<?xml version="1.0" encoding="UTF-8"?>
<svg xmlns="http://www.w3.org/2000/svg" xmlns:xlink="http://www.w3.org/1999/xlink" id="Layer_2" data-name="Layer 2" viewBox="0 0 179.65 210.16">
  <defs>
    <style>
      .cls-1 {
        fill: url(#linear-gradient);
      }

      .cls-1, .cls-2, .cls-3, .cls-4, .cls-5, .cls-6, .cls-7 {
        stroke-width: 0px;
      }

      .cls-2 {
        fill: #5ac2dd;
      }

      .cls-3 {
        fill: #6dc8ef;
      }

      .cls-4 {
        fill: url(#linear-gradient-5);
      }

      .cls-5 {
        fill: url(#linear-gradient-2);
      }

      .cls-6 {
        fill: url(#linear-gradient-3);
      }

      .cls-8 {
        fill: #fff;
        stroke: #000;
        stroke-miterlimit: 10;
      }

      .cls-7 {
        fill: url(#linear-gradient-4);
      }
    </style>
    <linearGradient id="linear-gradient" x1="90.55" y1="169.96" x2="89.63" y2="9.97" gradientUnits="userSpaceOnUse">
      <stop offset="0" stop-color="#046496"></stop>
      <stop offset="1" stop-color="#06060b"></stop>
    </linearGradient>
    <linearGradient id="linear-gradient-2" x1="89.82" y1="79.67" x2="89.82" y2="172.55" xlink:href="#linear-gradient"></linearGradient>
    <linearGradient id="linear-gradient-3" x1="40.12" y1="79.67" x2="40.12" y2="172.55" xlink:href="#linear-gradient"></linearGradient>
    <linearGradient id="linear-gradient-4" x1="144.18" y1="79.67" x2="144.18" y2="172.55" xlink:href="#linear-gradient"></linearGradient>
    <linearGradient id="linear-gradient-5" x1="143.8" y1="79.67" x2="143.8" y2="172.55" xlink:href="#linear-gradient"></linearGradient>
  </defs>
  <g id="Layer_1-2" data-name="Layer 1">
    <g>
      <path class="cls-8" d="m89.82,209.53l-1.86-1.39c-19.7-14.75-36.56-32.7-50.1-53.34-10.83-16.5-19.57-34.74-25.99-54.22C.93,67.39.54,42.43.53,41.38l-.02-2.16,2.01-.77C58.28,16.98,88.09,1.47,88.38,1.32l1.44-.75,1.44.75c.29.15,30.1,15.67,85.87,37.13l2.01.77-.02,2.16c-.01,1.05-.4,26.01-11.34,59.19-6.42,19.48-15.16,37.73-25.99,54.22-13.55,20.64-30.4,38.59-50.1,53.34l-1.86,1.39ZM6.82,43.45c.35,6.7,2.13,28.51,11.01,55.4,6.26,18.93,14.77,36.65,25.29,52.67,12.71,19.33,28.41,36.23,46.7,50.25,18.29-14.02,33.99-30.91,46.7-50.25,10.53-16.01,19.03-33.73,25.29-52.67,8.89-26.89,10.67-48.69,11.01-55.4C124.81,24.88,96.34,10.85,89.82,7.56c-6.52,3.29-34.99,17.32-83,35.89Z"></path>
      <path class="cls-8" d="m89.82,205.65C4.72,141.93,3.63,41.35,3.63,41.35,60.25,19.55,89.82,4.07,89.82,4.07c0,0,29.57,15.48,86.19,37.28,0,0-1.09,100.58-86.19,164.3"></path>
      <path class="cls-1" d="m89.82,202.67C7.24,140.84,6.18,43.23,6.18,43.23,61.13,22.07,89.82,7.05,89.82,7.05c0,0,28.7,15.02,83.64,36.18,0,0-1.06,97.61-83.64,159.45"></path>
      <path class="cls-3" d="m89.82,190.3C17.69,136.28,16.77,51.03,16.77,51.03c47.99-18.48,73.06-31.6,73.06-31.6,0,0,25.07,13.12,73.06,31.6,0,0-.92,85.26-73.06,139.27"></path>
      <g>
        <path class="cls-5" d="m119.66,132.69V54.09c4.73-.95,11.24-1.54,17.52-1.54,9.73,0,17.24,1.12,22.86,5.79.29-3.49.31-5.45.31-5.45-46.33-17.84-70.52-30.5-70.52-30.5,0,0-24.19,12.67-70.52,30.5,0,0,.14,12.16,4.25,30.09l6.38-30.08h22.25l13.26,72.64V52.91h16.69l11.24,28.64c2.01,5.09,5.8,15.15,7.81,21.31h.24c-.47-6.51-1.78-22.02-1.78-37.05v-12.9h15.98v79.78h-1.79c-4.25-7.23-11.65-12.37-20.32-13.53l-5.35-13.34c-2.49-6.15-6.15-16.69-7.58-22.61h-.24c.36,6.87,1.07,20.12,1.07,35.75v1.21c-6.67,2.08-12.26,6.61-15.74,12.52h-16.69l-2.6-15.74h-11.7c10.17,23.45,27.07,49.37,55.13,70.38,21.9-16.4,36.99-35.78,47.41-54.64h-17.57Z"></path>
        <path class="cls-6" d="m40.59,69.6h-.24c-.83,4.97-2.01,13.85-2.72,18.11l-2.37,15.15h9.71l-2.01-15.15c-.59-4.5-1.66-13.14-2.37-18.11Z"></path>
        <path class="cls-7" d="m137.88,131.48c5.38-9.93,9.48-19.7,12.59-28.79-3.4,1.08-6.88,1.59-9.87,1.59h-2.72v27.2Z"></path>
        <path class="cls-4" d="m149.72,78.36c0-6.39-2.6-11.13-8.52-11.13-1.18,0-2.49.24-3.31.59v21.66c.71.12,1.42.12,2.13.12,7.34,0,9.71-5.44,9.71-11.24Z"></path>
      </g>
      <g>
        <path class="cls-2" d="m89.82,26.7c-6.73,0-12.19,5.46-12.19,12.19s5.46,12.19,12.19,12.19,12.19-5.46,12.19-12.19-5.46-12.19-12.19-12.19Zm0,22.7c-5.81,0-10.51-4.71-10.51-10.51s4.71-10.51,10.51-10.51,10.51,4.71,10.51,10.51-4.71,10.51-10.51,10.51Z"></path>
        <path class="cls-2" d="m86.78,36.6c0,.47.01.94.03,1.42h-.03c-.26-.4-.56-.68-.89-.85-.33-.17-.72-.25-1.18-.25-.86,0-1.52.29-1.98.86s-.68,1.4-.68,2.48.23,1.81.69,2.35c.46.54,1.12.81,1.98.81s1.58-.36,2.05-1.07h.05l.14.96h.37v-8.97h-.56v2.25Zm0,3.67c0,.95-.17,1.62-.5,2.03-.33.41-.85.62-1.56.62-1.38,0-2.07-.89-2.07-2.66,0-.91.17-1.61.52-2.09.34-.48.86-.72,1.54-.72.73,0,1.25.21,1.58.64.32.42.49,1.12.49,2.09v.1Z"></path>
        <path class="cls-2" d="m95.15,34.89l-2.12,6.44h-.03l-1.99-6.44h-2.43v8.43h1.6v-3.92c0-.45-.04-1.35-.11-2.69h.05l2.03,6.61h1.64l2.17-6.6h.05c-.05,1.06-.07,1.71-.08,1.96,0,.25,0,.46,0,.65v3.99h1.67v-8.43h-2.43Z"></path>
      </g>
      <path class="cls-2" d="m89.76,120.95c-14.29,0-25.87,11.58-25.87,25.87s11.58,25.87,25.87,25.87,25.87-11.58,25.87-25.87-11.58-25.87-25.87-25.87Zm0,49.14c-5.98,0-11.44-2.26-15.56-5.97,2.34-3.08,5.75-10.29,7.85-12.38.14-.14.33-.26.52-.32.94-.33,1.91-.34,2.89-.26,1.35.11,2.68.37,3.96.8.7.24,1.37.57,2.06.85,3.53,1.39,7.17,2.32,10.97,2.55,1.87.11,3.74.04,5.59-.31.43-.08.84-.21,1.15-.54.29-.3.58-.61.86-.91.15-.16.1-.31-.05-.43-.12-.09-.25-.19-.39-.22-.49-.13-.97-.29-1.47-.35-.66-.07-1.2-.34-1.67-.79-1.35-1.28-2.69-2.56-4.04-3.83-2.08-1.95-4.51-3.35-7.14-4.42-1.23-.5-2.48-.91-3.77-1.21-.28-.07-.5,0-.72.18-.16.13-.35.23-.54.29-.19.06-.29-.05-.22-.24.07-.19.18-.38.3-.54.11-.15.25-.28.4-.4.18-.14.27-.32.25-.52-.05-.49-.07-1-.19-1.48-.39-1.63-1.04-3.17-1.73-4.68-.31-.67-.63-1.33-1.01-1.96-.37-.6-.88-1.13-1.51-1.43-.64-.31-.75-1.35-.44-1.82.08-.12.16-.23.24-.35,0-.02-.01-.05-.02-.07-.12.01-.27,0-.37.05-.3.18-.6.37-.88.59-1.81,1.45-3.4,3.11-4.81,4.94-.26.34-.37.81-.48,1.24-.34,1.37-.35,2.76-.29,4.16.08,1.74.31,3.47.65,5.17.02.11.03.21.05.34,1.25-.57,2.52-1.07,3.87-1.34-.05.02-.1.04-.16.06-1.45.44-2.84,1.01-4.21,1.65-.35.16-.73.26-1.1.4-1.89.75-3.66,1.74-5.41,2.77-2,1.18-3.94,2.44-5.85,3.75-.56-2-.86-4.1-.86-6.28,0-12.85,10.42-23.27,23.27-23.27s23.27,10.42,23.27,23.27-10.42,23.27-23.27,23.27Z"></path>
    </g>
  </g>
</svg>
