<?xml version="1.0" encoding="UTF-8"?>
<svg xmlns="http://www.w3.org/2000/svg" xmlns:xlink="http://www.w3.org/1999/xlink" id="Layer_2" data-name="Layer 2" viewBox="0 0 178.22 208.48">
  <defs>
    <style>
      .cls-1 {
        fill: #ccd428;
      }

      .cls-1, .cls-2, .cls-3, .cls-4, .cls-5, .cls-6, .cls-7 {
        stroke-width: 0px;
      }

      .cls-2 {
        fill: url(#linear-gradient);
      }

      .cls-3 {
        fill: url(#linear-gradient-5);
      }

      .cls-4 {
        fill: url(#linear-gradient-2);
      }

      .cls-5 {
        fill: url(#linear-gradient-3);
      }

      .cls-6 {
        fill: url(#linear-gradient-4);
      }

      .cls-7 {
        fill: #0d3e1e;
      }
    </style>
    <linearGradient id="linear-gradient" x1="89.11" y1="164.69" x2="89.11" y2="30.89" gradientUnits="userSpaceOnUse">
      <stop offset="0" stop-color="#36a94a"></stop>
      <stop offset=".28" stop-color="#34a648"></stop>
      <stop offset=".46" stop-color="#319d45"></stop>
      <stop offset=".61" stop-color="#2b8e3f"></stop>
      <stop offset=".75" stop-color="#237936"></stop>
      <stop offset=".88" stop-color="#195e2b"></stop>
      <stop offset="1" stop-color="#0d3e1e"></stop>
    </linearGradient>
    <linearGradient id="linear-gradient-2" x1="89.11" y1="40.06" x2="89.11" y2="152.32" xlink:href="#linear-gradient"></linearGradient>
    <linearGradient id="linear-gradient-3" x1="39.52" y1="40.06" x2="39.52" y2="152.32" xlink:href="#linear-gradient"></linearGradient>
    <linearGradient id="linear-gradient-4" x1="143.34" y1="40.06" x2="143.34" y2="152.32" xlink:href="#linear-gradient"></linearGradient>
    <linearGradient id="linear-gradient-5" x1="142.96" y1="40.06" x2="142.96" y2="152.32" xlink:href="#linear-gradient"></linearGradient>
  </defs>
  <g id="Layer_1-2" data-name="Layer 1">
    <g>
      <path class="cls-7" d="m89.11,208.48l-1.86-1.39c-19.65-14.72-36.47-32.62-49.99-53.21-10.8-16.46-19.53-34.66-25.93-54.1C.43,66.67.03,41.77.02,40.72l-.02-2.15,2.01-.77C57.64,16.38,87.38.91,87.68.75l1.44-.75,1.44.75c.29.15,30.03,15.63,85.67,37.05l2.01.77-.02,2.15c-.01,1.04-.4,25.95-11.31,59.06-6.4,19.44-15.13,37.64-25.93,54.1-13.51,20.59-30.33,38.5-49.99,53.21l-1.86,1.39ZM6.3,42.78c.35,6.69,2.12,28.44,10.99,55.27,6.24,18.89,14.73,36.57,25.23,52.54,12.68,19.29,28.34,36.14,46.59,50.13,18.28-14.01,33.97-30.91,46.66-50.25,10.5-16.01,18.99-33.72,25.23-52.64,8.82-26.78,10.58-48.39,10.92-55.06C124.02,24.26,95.61,10.26,89.11,6.97c-6.5,3.29-34.91,17.28-82.81,35.81Z"></path>
      <path class="cls-7" d="m89.11,204.61C4.21,141.04,3.12,40.69,3.12,40.69,59.61,18.94,89.11,3.5,89.11,3.5c0,0,29.5,15.45,85.99,37.19,0,0-1.09,100.35-85.99,163.92"></path>
      <path class="cls-2" d="m89.11,201.64C6.72,139.94,5.66,42.56,5.66,42.56,60.48,21.46,89.11,6.47,89.11,6.47c0,0,28.63,14.99,83.45,36.1,0,0-1.05,97.38-83.45,159.07"></path>
      <path class="cls-1" d="m89.11,189.29C17.14,135.4,16.22,50.35,16.22,50.35c47.88-18.43,72.89-31.53,72.89-31.53,0,0,25.01,13.09,72.89,31.53,0,0-.92,85.06-72.89,138.94"></path>
      <g>
        <path class="cls-4" d="m118.87,131.81V53.4c4.72-.94,11.22-1.54,17.48-1.54,9.7,0,17.2,1.12,22.8,5.78.29-3.48.31-5.43.31-5.43-46.22-17.79-70.36-30.43-70.36-30.43,0,0-24.14,12.64-70.36,30.43,0,0,.14,12.14,4.24,30.02l6.37-30.01h22.2l13.23,72.47V52.22h16.65l11.22,28.58c2.01,5.08,5.79,15.12,7.79,21.26h.24c-.47-6.49-1.77-21.96-1.77-36.96v-12.87h15.94v79.59h-1.79c-4.24-7.21-11.63-12.34-20.27-13.5l-5.33-13.31c-2.48-6.14-6.14-16.65-7.56-22.55h-.24c.35,6.85,1.06,20.08,1.06,35.66v1.2c-6.66,2.08-12.23,6.59-15.7,12.49h-16.65l-2.6-15.71h-11.67c10.15,23.4,27,49.25,55.01,70.22,21.85-16.36,36.91-35.69,47.29-54.51h-17.53Z"></path>
        <path class="cls-5" d="m39.99,68.87h-.24c-.83,4.96-2.01,13.82-2.72,18.07l-2.36,15.12h9.68l-2.01-15.12c-.59-4.49-1.65-13.11-2.36-18.07Z"></path>
        <path class="cls-6" d="m137.06,130.61c5.37-9.91,9.46-19.65,12.56-28.73-3.39,1.08-6.87,1.59-9.85,1.59h-2.72v27.14Z"></path>
        <path class="cls-3" d="m148.87,77.61c0-6.38-2.6-11.1-8.5-11.1-1.18,0-2.48.24-3.31.59v21.61c.71.12,1.42.12,2.13.12,7.32,0,9.68-5.43,9.68-11.22Z"></path>
      </g>
      <g>
        <path class="cls-1" d="m89.11,26.08c-6.72,0-12.16,5.44-12.16,12.16s5.45,12.16,12.16,12.16,12.16-5.44,12.16-12.16-5.45-12.16-12.16-12.16Zm0,22.65c-5.79,0-10.49-4.7-10.49-10.49s4.7-10.49,10.49-10.49,10.49,4.7,10.49,10.49-4.7,10.49-10.49,10.49Z"></path>
        <path class="cls-1" d="m86.08,35.96c0,.46.01.94.03,1.42h-.03c-.26-.4-.56-.68-.89-.85-.33-.16-.72-.25-1.17-.25-.86,0-1.52.29-1.97.86-.45.57-.68,1.4-.68,2.48s.23,1.81.68,2.35c.46.54,1.12.81,1.98.81s1.57-.36,2.05-1.07h.05l.14.95h.37v-8.95h-.56v2.25Zm0,3.66c0,.94-.17,1.62-.49,2.03-.33.41-.85.62-1.55.62-1.38,0-2.06-.89-2.06-2.66,0-.91.17-1.61.52-2.09.34-.48.86-.72,1.54-.72.72,0,1.25.21,1.57.64.32.42.49,1.12.49,2.08v.1Z"></path>
        <path class="cls-1" d="m94.43,34.25l-2.11,6.43h-.03l-1.99-6.43h-2.43v8.41h1.59v-3.91c0-.45-.04-1.34-.11-2.69h.05l2.02,6.6h1.63l2.17-6.58h.05c-.05,1.06-.07,1.71-.08,1.96,0,.25,0,.46,0,.65v3.98h1.66v-8.41h-2.43Z"></path>
      </g>
      <path class="cls-1" d="m89.05,120.12c-14.25,0-25.81,11.56-25.81,25.81s11.56,25.81,25.81,25.81,25.81-11.56,25.81-25.81-11.55-25.81-25.81-25.81Zm0,49.02c-3.04,0-5.95-.59-8.61-1.66-.27-2.68-.98-10.09-.54-12.01.04-.17.11-.2.27-.18,1.15.11,2.3.24,3.45.31,1.74.1,3.48.02,5.2-.35,1.94-.42,3.65-1.25,5.06-2.68,1-1.02,1.75-2.21,2.38-3.48.72-1.45,1.4-2.93,2.13-4.38.87-1.73,1.94-3.32,3.28-4.72,1.24-1.3,2.66-2.36,4.22-3.26.75-.44.81-1.32.1-1.82-.59-.42-1.19-.83-1.83-1.18-3.2-1.79-6.67-2.67-10.29-2.99-2.05-.18-4.1-.15-6.15.11-2.67.35-5.22,1.08-7.57,2.42-1.7.97-3.17,2.2-4.33,3.78-1.63,2.22-2.39,4.75-2.49,7.48-.09,2.28.28,4.5.9,6.69.09.31.18.61.28.93.04-.03.05-.03.06-.04.03-.08.06-.17.09-.25,1.81-5.01,4.86-9.07,9.23-12.13,3.2-2.24,6.75-3.55,10.65-3.87.45-.04.91-.05,1.37-.07-.04.07-.09.09-.14.1-3.23,1.03-6.24,2.52-9.01,4.47-2.55,1.79-4.76,3.93-6.53,6.51-1.05,1.52-1.84,3.18-2.52,4.89-1.51,3.79-2.32,7.72-2.34,11.81,0,.03,0,.55,0,1.09-5.76-4.22-9.5-11.04-9.5-18.73,0-12.82,10.39-23.22,23.22-23.22s23.22,10.39,23.22,23.22-10.39,23.22-23.22,23.22Z"></path>
    </g>
  </g>
</svg>
