<?xml version="1.0" encoding="UTF-8"?>
<svg id="Layer_2" data-name="Layer 2" xmlns="http://www.w3.org/2000/svg" viewBox="0 0 78.82 78.82">
  <defs>
    <style>
      .cls-1 {
        fill: #4c7738;
      }

      .cls-1, .cls-2, .cls-3, .cls-4 {
        stroke-width: 0px;
      }

      .cls-2 {
        fill: #fff;
      }

      .cls-3 {
        fill: #aeb521;
      }

      .cls-4 {
        fill: #003c3a;
      }
    </style>
  </defs>
  <g id="Layer_1-2" data-name="Layer 1">
    <g>
      <g>
        <circle class="cls-4" cx="39.41" cy="39.41" r="39.41"/>
        <circle class="cls-2" cx="39.41" cy="39.41" r="35.94"/>
        <circle class="cls-3" cx="39.41" cy="39.41" r="32.57"/>
        <path class="cls-1" d="m12.03,39.41c0,15.12,12.26,27.38,27.38,27.38s27.38-12.26,27.38-27.38H12.03Z"/>
      </g>
      <path class="cls-2" d="m46.74,30.59c-.58-.85-1.03-1.89-1.52-2.88-1.22-2.47-2.9-3.32-4.9-2.58-.64.24-1.33.39-1.97.26-1.19-.24-2.33-.13-3.5.23-.93.29-1.75.75-2.24,2.06-.15.41-.35.44-.61.26-.4-.27-.81-.5-1.19-.83-1.47-1.29-2.87-1.16-4.31.16-1.02.94-2.11,1.73-3.2,2.5-1.06.76-1.71,1.99-2.13,3.58-.17.66-.39,1.31-.66,1.9-.45.99-.28,1.76.53,1.96.95.24,1.91.41,2.87.56,1.27.2,2.54.4,3.82.53,1.01.1,2.03.12,3.04.1.85-.01,1.71-.16,2.56-.18.15,0,.37.23.44.44.24.66.57,1.09,1.08,1.24.88.26,1.76.5,2.62.85,2.14.87,4.22,0,6.31-.37.69-.12.85-1.15.39-1.96-.29-.51-.62-1-.89-1.53-.45-.86-1.02-1.44-1.75-1.59-.55-.12-.7-.62-.76-1.26.63-.08,1.24-.13,1.85-.23.69-.11,1.38-.23,2.08-.37.5-.1,1.01-.19,1.51-.36.85-.29,1.3-1.38.53-2.51Zm-21.65,5.51c-.42.06-.7.26-.43,1.18-1.25-.24-2.41-.45-3.56-.69-.37-.08-.46-.37-.25-.88.59-1.46,1.41-2.07,2.56-1.73.57.17,1.15.25,1.73.37v.17c-.18.07-.36.14-.71.28.6.43,1.07.76,1.63,1.16-.38.06-.66.1-.95.14Zm2.73-1.89c.09-.21.17-.37.25-.55-1-1.14-2.07-.93-3.16-.35,1.26-1.57,4.1-2.21,4.88-1.17-.22.76-1.2,1.95-1.97,2.07Zm-2.64-2.04c-.83.5-1.68.46-2.54.26-.43-.1-.49-.51-.19-.96.63-.96,1.38-1.5,2.3-1.47.41.01.83,0,1.24,0,0-.05,0-.1,0-.16-.28-.13-.55-.25-.96-.44,1.04-.95,1.87-2.1,3-2.45.73-.23,1.47-.13,2.14.44,1.5,1.26,3.1,2.04,4.85,2.09.16,0,.32.07.47.03,1.82-.41,2.91,1.18,3.85,3.17-.15-.18-.29-.36-.44-.53-.15-.17-.31-.34-.48-.47-.75-.56-.9-.43-.96.81-.03,0-.09,0-.09-.03-.36-1.58-1.31-1.86-2.22-1.99-.55-.08-1.13.24-1.69.39-.9.23-1.79.49-2.69.71-.18.04-.39.02-.57-.06-1.73-.78-3.39-.33-5.02.65Zm4.99,2.31c1.12-1.31,2.38-1.92,3.87-1.72-1.18,1.42-2.6,1.16-3.87,1.72Zm11.3,1.47c.62.17,1.13.65,1.53,1.41.2.39.48.68.7,1.05.49.85.37,1.3-.37,1.49-.15.04-.31.04-.49-.03.3-.17.6-.35,1.02-.59-.67-.79-1.21-1.54-1.83-2.12-.41-.38-.62-.07-.52.87-.35-.32-.62-.54-.88-.81-.77-.82-1.58-1.43-2.57-.96-.14.07-.32.07-.46,0-.54-.29-.95-.02-1.35.53.81-.14,1.53.18,2.19.82.13.13.17.45.26.69-.15.11-.3.3-.45.3-.72.02-1.44-.02-2.16-.03-.25,0-.51.04-.76.06,0,.06-.02.13-.03.19.48.34.96.68,1.43,1.02,0,.04-.01.08-.02.12-.7-.28-1.41-.51-2.1-.86-.37-.19-.41-.8-.21-1.19.48-.97.95-2.07,1.6-2.72.52-.52,1.3-.5,1.98-.64.24-.05.49.12.86.21-.21.21-.31.3-.42.41.06.04.1.1.14.11.97.22,1.94.4,2.91.66Zm-.31-6.75c-.83-.23-1.65-.63-2.46-1.02,1.8-.54,3.45.05,5.09,1.48-.94-.16-1.8-.22-2.62-.46Zm5.03,3.2c-.61.22-1.23.34-1.85.5-.01-.07-.02-.14-.04-.21.44-.13.89-.25,1.33-.39.48-.16.57-.42.29-1.03-.51-1.11-.95-2.33-1.91-2.76-.16-.07-.29-.28-.42-.53.24.05.48.11.86.2-.19-.24-.27-.39-.38-.46-1-.72-2-1.21-3.18-.99-.96.19-1.95-.05-2.93-.09-.43-.02-.86,0-1.41,0,.43.26.76.46,1.08.65,0,.09,0,.18,0,.27-.28.14-.56.38-.84.39-.88.03-1.75-.03-2.63-.05-.36,0-.72,0-1.1,0,.26-.79.71-1.23,1.27-1.43,1.28-.45,2.56-.74,3.91-.44.7.16,1.48-.02,2.18-.29,1.71-.65,3.29.09,4.34,2.17.56,1.12,1.16,2.22,1.74,3.31.28.53.19.98-.32,1.17Z"/>
      <g>
        <path class="cls-2" d="m47,44.87c-7.04,7.04-18.51,7.04-25.55,0-7.04-7.04-7.04-18.51,0-25.55,7.04-7.04,18.51-7.04,25.55,0,7.04,7.04,7.04,18.51,0,25.55Zm-23.24-23.24c-5.77,5.77-5.77,15.17,0,20.94s15.17,5.77,20.94,0c5.77-5.77,5.77-15.17,0-20.94-5.77-5.77-15.17-5.77-20.94,0Z"/>
        <path class="cls-2" d="m45.52,47.51c1.28,2.27,3.38,4.98,6.03,7.63,5.47,5.47,11.19,8.6,12.78,7.01,1.59-1.59-1.55-7.31-7.01-12.78-2.65-2.65-5.36-4.75-7.63-6.03l-4.17,4.17Z"/>
      </g>
      <path class="cls-4" d="m45.74,29.59c-.58-.85-1.03-1.89-1.52-2.88-1.22-2.47-2.9-3.32-4.9-2.58-.64.24-1.33.39-1.97.26-1.19-.24-2.33-.13-3.5.23-.93.29-1.75.75-2.24,2.06-.15.41-.35.44-.61.26-.4-.27-.81-.5-1.19-.83-1.47-1.29-2.87-1.16-4.31.16-1.02.94-2.11,1.73-3.2,2.5-1.06.76-1.71,1.99-2.13,3.58-.17.66-.39,1.31-.66,1.9-.45.99-.28,1.76.53,1.96.95.24,1.91.41,2.87.56,1.27.2,2.54.4,3.82.53,1.01.1,2.03.12,3.04.1.85-.01,1.71-.16,2.56-.18.15,0,.37.23.44.44.24.66.57,1.09,1.08,1.24.88.26,1.76.5,2.62.85,2.14.87,4.22,0,6.31-.37.69-.12.85-1.15.39-1.96-.29-.51-.62-1-.89-1.53-.45-.86-1.02-1.44-1.75-1.59-.55-.12-.7-.62-.76-1.26.63-.08,1.24-.13,1.85-.23.69-.11,1.38-.23,2.08-.37.5-.1,1.01-.19,1.51-.36.85-.29,1.3-1.38.53-2.51Zm-21.65,5.51c-.42.06-.7.26-.43,1.18-1.25-.24-2.41-.45-3.56-.69-.37-.08-.46-.37-.25-.88.59-1.46,1.41-2.07,2.56-1.73.57.17,1.15.25,1.73.37v.17c-.18.07-.36.14-.71.28.6.43,1.07.76,1.63,1.16-.38.06-.66.1-.95.14Zm2.73-1.89c.09-.21.17-.37.25-.55-1-1.14-2.07-.93-3.16-.35,1.26-1.57,4.1-2.21,4.88-1.17-.22.76-1.2,1.95-1.97,2.07Zm-2.64-2.04c-.83.5-1.68.46-2.54.26-.43-.1-.49-.51-.19-.96.63-.96,1.38-1.5,2.3-1.47.41.01.83,0,1.24,0,0-.05,0-.1,0-.16-.28-.13-.55-.25-.96-.44,1.04-.95,1.87-2.1,3-2.45.73-.23,1.47-.13,2.14.44,1.5,1.26,3.1,2.04,4.85,2.09.16,0,.32.07.47.03,1.82-.41,2.91,1.18,3.85,3.17-.15-.18-.29-.36-.44-.53-.15-.17-.31-.34-.48-.47-.75-.56-.9-.43-.96.81-.03,0-.09,0-.09-.03-.36-1.58-1.31-1.86-2.22-1.99-.55-.08-1.13.24-1.69.39-.9.23-1.79.49-2.69.71-.18.04-.39.02-.57-.06-1.73-.78-3.39-.33-5.02.65Zm4.99,2.31c1.12-1.31,2.38-1.92,3.87-1.72-1.18,1.42-2.6,1.16-3.87,1.72Zm11.3,1.47c.62.17,1.13.65,1.53,1.41.2.39.48.68.7,1.05.49.85.37,1.3-.37,1.49-.15.04-.31.04-.49-.03.3-.17.6-.35,1.02-.59-.67-.79-1.21-1.54-1.83-2.12-.41-.38-.62-.07-.52.87-.35-.32-.62-.54-.88-.81-.77-.82-1.58-1.43-2.57-.96-.14.07-.32.07-.46,0-.54-.29-.95-.02-1.35.53.81-.14,1.53.18,2.19.82.13.13.17.45.26.69-.15.11-.3.3-.45.3-.72.02-1.44-.02-2.16-.03-.25,0-.51.04-.76.06,0,.06-.02.13-.03.19.48.34.96.68,1.43,1.02,0,.04-.01.08-.02.12-.7-.28-1.41-.51-2.1-.86-.37-.19-.41-.8-.21-1.19.48-.97.95-2.07,1.6-2.72.52-.52,1.3-.5,1.98-.64.24-.05.49.12.86.21-.21.21-.31.3-.42.41.06.04.1.1.14.11.97.22,1.94.4,2.91.66Zm-.31-6.75c-.83-.23-1.65-.63-2.46-1.02,1.8-.54,3.45.05,5.09,1.48-.94-.16-1.8-.22-2.62-.46Zm5.03,3.2c-.61.22-1.23.34-1.85.5-.01-.07-.02-.14-.04-.21.44-.13.89-.25,1.33-.39.48-.16.57-.42.29-1.03-.51-1.11-.95-2.33-1.91-2.76-.16-.07-.29-.28-.42-.53.24.05.48.11.86.2-.19-.24-.27-.39-.38-.46-1-.72-2-1.21-3.18-.99-.96.19-1.95-.05-2.93-.09-.43-.02-.86,0-1.41,0,.43.26.76.46,1.08.65,0,.09,0,.18,0,.27-.28.14-.56.38-.84.39-.88.03-1.75-.03-2.63-.05-.36,0-.72,0-1.1,0,.26-.79.71-1.23,1.27-1.43,1.28-.45,2.56-.74,3.91-.44.7.16,1.48-.02,2.18-.29,1.71-.65,3.29.09,4.34,2.17.56,1.12,1.16,2.22,1.74,3.31.28.53.19.98-.32,1.17Z"/>
      <g>
        <path class="cls-4" d="m46,44.87c-7.04,7.04-18.51,7.04-25.55,0-7.04-7.04-7.04-18.51,0-25.55,7.04-7.04,18.51-7.04,25.55,0,7.04,7.04,7.04,18.51,0,25.55Zm-23.24-23.24c-5.77,5.77-5.77,15.17,0,20.94s15.17,5.77,20.94,0c5.77-5.77,5.77-15.17,0-20.94-5.77-5.77-15.17-5.77-20.94,0Z"/>
        <path class="cls-4" d="m44.52,47.51c1.28,2.27,3.38,4.98,6.03,7.63,5.47,5.47,11.19,8.6,12.78,7.01,1.59-1.59-1.55-7.31-7.01-12.78-2.65-2.65-5.36-4.75-7.63-6.03l-4.17,4.17Z"/>
      </g>
    </g>
  </g>
</svg>