<?xml version="1.0" encoding="UTF-8"?>
<svg xmlns="http://www.w3.org/2000/svg" xmlns:xlink="http://www.w3.org/1999/xlink" viewBox="0 0 1830 501">
  <defs>
    <style>
      .cls-1 {
        fill: url(#linear-gradient);
      }

      .cls-1, .cls-2, .cls-3, .cls-4, .cls-5, .cls-6, .cls-7, .cls-8, .cls-9, .cls-10, .cls-11, .cls-12 {
        stroke-width: 0px;
      }

      .cls-2 {
        fill: #4c7738;
      }

      .cls-13 {
        isolation: isolate;
      }

      .cls-3 {
        fill: #035129;
      }

      .cls-4 {
        fill: url(#linear-gradient-5);
      }

      .cls-5 {
        fill: #fff;
      }

      .cls-6 {
        fill: url(#linear-gradient-2);
      }

      .cls-7 {
        fill: url(#radial-gradient-2);
      }

      .cls-8 {
        fill: url(#linear-gradient-3);
      }

      .cls-9 {
        fill: url(#radial-gradient);
      }

      .cls-10 {
        fill: #22726e;
        mix-blend-mode: multiply;
      }

      .cls-11 {
        fill: #aeb521;
      }

      .cls-12 {
        fill: url(#linear-gradient-4);
      }
    </style>
    <linearGradient id="linear-gradient" x1="915.5" y1="0" x2="915.5" y2="501" gradientUnits="userSpaceOnUse">
      <stop offset="0" stop-color="#83a170"/>
      <stop offset=".5" stop-color="#658a40"/>
      <stop offset="1" stop-color="#4e7838"/>
    </linearGradient>
    <linearGradient id="linear-gradient-2" x1="0" y1="359.4" x2="1830" y2="359.4" gradientUnits="userSpaceOnUse">
      <stop offset="0" stop-color="#658a40"/>
      <stop offset="1" stop-color="#4e7838"/>
    </linearGradient>
    <linearGradient id="linear-gradient-3" x1="915" y1="311.54" x2="915" y2="532.68" gradientUnits="userSpaceOnUse">
      <stop offset="0" stop-color="#83a170"/>
      <stop offset="1" stop-color="#4e7838"/>
    </linearGradient>
    <linearGradient id="linear-gradient-4" x1="915" y1="361.15" x2="915" y2="513.14" xlink:href="#linear-gradient-2"/>
    <linearGradient id="linear-gradient-5" x1="1005" y1="399.68" x2="1005" y2="497.96" gradientTransform="translate(1920) rotate(-180) scale(1 -1)" xlink:href="#linear-gradient-2"/>
    <radialGradient id="radial-gradient" cx="372.52" cy="250.6" fx="465.9" fy="126.98" r="179.85" gradientUnits="userSpaceOnUse">
      <stop offset="0" stop-color="#cbd327"/>
      <stop offset=".41" stop-color="#c9d126"/>
      <stop offset=".56" stop-color="#c2cb26"/>
      <stop offset=".67" stop-color="#b6c226"/>
      <stop offset=".75" stop-color="#a5b425"/>
      <stop offset=".82" stop-color="#8fa224"/>
      <stop offset=".89" stop-color="#748c23"/>
      <stop offset=".95" stop-color="#557222"/>
      <stop offset="1" stop-color="#305421"/>
      <stop offset="1" stop-color="#2f5321"/>
    </radialGradient>
    <radialGradient id="radial-gradient-2" cx="372.52" cy="250.6" fx="372.52" fy="250.6" r="151.99" gradientUnits="userSpaceOnUse">
      <stop offset="0" stop-color="#fff"/>
      <stop offset=".43" stop-color="#fdfdfd"/>
      <stop offset=".59" stop-color="#f6f6f6"/>
      <stop offset=".7" stop-color="#eaeaeb"/>
      <stop offset=".79" stop-color="#d9dadb"/>
      <stop offset=".87" stop-color="#c3c4c6"/>
      <stop offset=".94" stop-color="#a9aaac"/>
      <stop offset="1" stop-color="#898b8e"/>
      <stop offset="1" stop-color="#87898c"/>
    </radialGradient>
  </defs>
  <g class="cls-13">
    <g id="Capa_2" data-name="Capa 2">
      <g id="Layer_1" data-name="Layer 1">
        <g>
          <rect class="cls-1" x="1" width="1829" height="501" rx="27.84" ry="27.84"/>
          <g>
            <path class="cls-6" d="M1830,345.9c-151.99-45.56-243.39-122.26-384.59-89.29-38.84,1.4-284.33,66.51-372.17,40.59-36.35-7.25-186.47-41.37-227.25-35.82-57.97,4.28-249.36,43.47-289.77,52.14C374.9,335.31,197.06,232.22,0,274.46v195.72h1830v-124.28Z"/>
            <path class="cls-2" d="M0,353.31c151.99-42.84,243.39-114.97,384.59-83.97,38.84,1.32,284.33,62.54,372.17,38.17,36.35-6.81,186.47-38.9,227.25-33.68,57.97,4.02,249.36,40.88,289.77,49.03,181.3,20.49,359.14-76.46,556.21-36.74v184.05H0v-116.87Z"/>
            <path class="cls-8" d="M1830,358.67c-151.99-40.88-243.39-109.7-384.59-80.12-38.84,1.25-284.33,59.67-372.17,36.42-36.35-6.5-186.47-37.12-227.25-32.14-57.97,3.84-249.36,39-289.77,46.79C374.9,349.16,197.06,256.66,0,294.56v175.62h1830v-111.51Z"/>
            <path class="cls-12" d="M1830,393.54c-151.99-28.1-243.39-75.4-384.59-55.07-38.84.86-284.33,41.01-372.17,25.03-36.35-4.47-186.47-25.51-227.25-22.09-57.97,2.64-249.36,26.81-289.77,32.16C374.9,387,197.06,323.43,0,349.48v120.7h1830v-76.64Z"/>
            <path class="cls-4" d="M0,420.62c151.99-18.17,243.39-48.75,384.59-35.61,38.84.56,284.33,26.52,372.17,16.19,36.35-2.89,186.47-16.5,227.25-14.28,57.97,1.71,249.36,17.33,289.77,20.79,181.3,8.69,359.14-32.42,556.21-15.58v78.05H0v-49.56Z"/>
          </g>
        </g>
        <g>
          <path class="cls-5" d="M607.66,173.31c7.08-1.46,18.33-2.71,30.42-2.71,18.96,0,32.08,4.38,41.67,13.33,12.5,11.46,17.92,30.21,17.92,56.46s-7.08,48.13-20.63,59.59c-9.79,8.54-23.75,12.92-44.79,12.92-9.58,0-18.96-1.04-24.58-1.67v-137.92ZM639.74,286.23c1.04.42,2.92.42,4.38.42,11.25,0,20.21-12.92,20.21-47.71,0-26.04-6.04-42.71-20-42.71-1.67,0-3.12,0-4.58.62v89.38Z"/>
          <path class="cls-5" d="M742.25,171.23v140.42h-32.29v-140.42h32.29Z"/>
          <path class="cls-5" d="M779.96,311.65l-31.04-140.42h35.83l8.33,58.34c2.08,14.79,4.38,30.63,6.04,46.46h.42c1.67-16.04,3.33-31.67,5.42-47.08l7.92-57.71h35.63l-31.88,140.42h-36.67Z"/>
          <path class="cls-5" d="M886.84,171.23v140.42h-32.29v-140.42h32.29Z"/>
          <path class="cls-5" d="M906.43,311.65v-140.42h29.38l19.79,50.42c3.54,8.96,10.21,26.67,13.75,37.5h.42c-.83-11.46-3.12-38.75-3.12-65.21v-22.71h28.13v140.42h-29.38l-18.96-47.29c-4.38-10.83-10.83-29.38-13.33-39.79h-.42c.62,12.08,1.88,35.42,1.88,62.92v24.17h-28.13Z"/>
          <path class="cls-5" d="M1096.02,307.9c-6.04,2.29-20,5-30.83,5-17.71,0-30.21-5-39.38-13.96-12.92-12.29-19.17-33.54-18.75-57.09.83-49.59,30.42-71.88,62.5-71.88,11.46,0,19.79,2.29,24.17,4.38l-5.21,27.71c-4.17-2.08-9.58-3.12-16.04-3.12-18.96,0-31.88,12.29-31.88,45.84,0,29.58,11.67,41.04,22.5,41.04,1.25,0,2.5,0,3.54-.42v-28.54h-10.21v-26.25h39.58v77.3Z"/>
          <path class="cls-11" d="M1165.61,283.94l-4.79,27.71h-31.25l29.79-140.42h39.17l25.63,140.42h-31.25l-4.58-27.71h-22.71ZM1185.81,259.15l-3.54-26.67c-1.04-7.92-2.92-23.13-4.17-31.88h-.42c-1.46,8.75-3.54,24.38-4.79,31.88l-4.17,26.67h17.08Z"/>
          <path class="cls-11" d="M1239.57,201.23h-24.38v-30h81.25v30h-24.58v110.42h-32.29v-110.42Z"/>
          <path class="cls-11" d="M1306.24,171.23h32.29v113.13h34.38v27.29h-66.67v-140.42Z"/>
          <path class="cls-11" d="M1411.03,283.94l-4.79,27.71h-31.25l29.79-140.42h39.17l25.63,140.42h-31.25l-4.58-27.71h-22.71ZM1431.24,259.15l-3.54-26.67c-1.04-7.92-2.92-23.13-4.17-31.88h-.42c-1.46,8.75-3.54,24.38-4.79,31.88l-4.17,26.67h17.08Z"/>
          <path class="cls-11" d="M1476.66,279.56c6.04,3.33,16.25,5.42,24.38,5.42,12.08,0,17.5-5.42,17.5-12.5,0-8.75-5.83-12.71-18.13-20-22.71-13.54-26.46-28.96-26.46-39.38,0-23.13,15-43.13,47.5-43.13,9.58,0,18.75,2.5,23.13,5l-4.58,27.71c-4.17-2.5-10.21-4.79-18.33-4.79-10.83,0-16.04,5.63-16.04,12.08,0,6.04,2.92,10,18.75,18.96,19.38,10.83,25.83,25.63,25.83,40,0,26.46-19.79,43.96-49.38,43.96-12.08,0-23.33-2.71-28.33-5.42l4.17-27.92Z"/>
        </g>
        <g>
          <path class="cls-10" d="M0,48.6h374.44c111.43,0,201.9,90.47,201.9,201.9h0c0,111.43-90.47,201.9-201.9,201.9H0V48.6h0Z"/>
          <g>
            <circle class="cls-9" cx="372.52" cy="250.6" r="179.85"/>
            <circle class="cls-3" cx="372.52" cy="250.6" r="159.39"/>
            <circle class="cls-7" cx="372.52" cy="250.6" r="151.99"/>
          </g>
        </g>
        <g>
          <path class="cls-11" d="M463.18,293.45c2.49-2.95,3.37-6.92,2.35-10.62-1.02-3.71-3.81-6.69-7.48-7.97-4.52-1.58-9.04-.45-12.39,3.1-2.56,2.71-5.3,5.56-8.24,8.05-8.62,7.31-18.36,12.68-28.95,15.96-11.12,3.45-22.45,4.51-33.68,3.17-10.48-1.25-20.39-4.4-29.46-9.35-10.12-5.52-18.77-12.89-25.73-21.9-7.53-9.75-12.65-20.68-15.21-32.49-2.01-9.29-2.42-18.75-1.19-28.12,1.36-10.45,4.71-20.43,9.94-29.65,6.27-11.04,14.82-20.31,25.42-27.54,3.43-2.34,7.33-4.53,11.91-6.7,3.75-1.78,6.3-5.22,6.81-9.21.5-3.93-1.06-7.82-4.17-10.42-3.74-3.13-8.4-3.62-13.12-1.38-2.64,1.25-5.2,2.58-7.66,3.98-.44-.6-.88-1.21-1.32-1.81-.71-.97-1.41-1.94-2.12-2.91-2.8-3.88-7.03-5.67-11.62-4.9-3.97.66-7.27,3.24-8.84,6.91-1.57,3.68-1.15,7.88,1.13,11.22,1.23,1.8,2.51,3.56,3.76,5.28-3.46,3.14-6.78,6.62-9.9,10.37-5.35,6.43-9.97,13.58-13.75,21.26-6.3,12.82-9.85,26.86-10.55,41.74-.27,5.63-.02,11.37.74,17.54,1.46,11.77,4.85,23.08,10.09,33.6,5.81,11.67,13.66,22.07,23.33,30.89,7.57,6.9,15.95,12.62,24.92,16.98,6.78,3.3,13.74,5.82,20.69,7.49,4.19,1.01,8.18,1.76,12.09,2.26,0,1.2,0,2.39,0,3.59h-5.46c-6.33,0-12.66,0-19,0-5.12,0-9.28,3.16-10.58,8.04-1.67,6.25-3.3,12.51-4.92,18.77l-.5,1.92c-.27,1.04-.55,2.44-.3,4.09.86,5.67,5.18,9.34,11,9.35,10.52,0,21.04,0,31.56,0h11.48s33.94,0,33.94,0c1.25,0,2.5,0,3.76,0,1.89,0,3.79,0,5.68-.02,5.56-.04,9.94-3.94,10.66-9.48.25-1.93-.18-3.52-.46-4.58l-.07-.28c-1.03-3.95-2.07-7.9-3.11-11.85l-1.96-7.46c-1.42-5.42-5.45-8.52-11.04-8.52h-5.79c-6.11,0-12.23,0-18.34,0,0-1.16,0-2.35,0-3.61,6.98-.88,13.97-2.5,20.81-4.84,6.14-2.1,12.12-4.79,17.82-8.03.86,1.19,1.73,2.38,2.6,3.57l1.19,1.62c.72.99,1.9,2.44,3.77,3.48,4.84,2.71,10.94,1.8,14.52-2.17,3.83-4.24,4.15-10.24.81-14.92-1.28-1.79-2.58-3.58-3.88-5.36,3.17-2.85,5.75-5.48,8.03-8.19Z"/>
          <path class="cls-11" d="M320.58,176.04c-.61.82-.97,1.79-1.06,2.79-.89.43-1.67,1.09-2.23,1.97-8.19,12.84-12.52,27.71-12.51,42.99,0,12.14,2.66,23.82,7.93,34.71.47.98,1.22,1.77,2.12,2.31-.05,1.03.17,2.08.72,3.03,14.34,24.69,40.06,39.43,68.8,39.43h0c21.39,0,41.38-8.25,56.3-23.22,14.74-14.79,22.97-34.49,23.19-55.48.22-21.49-7.92-41.69-22.93-56.87-14.92-15.1-35-23.44-56.53-23.48h-.16c-25.37,0-48.56,11.59-63.64,31.82Z"/>
          <g>
            <path class="cls-3" d="M449.73,299.09c3.29-2.84,6.44-5.85,9.24-9.18,2.83-3.36,1.41-8.41-2.73-9.85-2.54-.88-4.76-.24-6.58,1.68-2.78,2.94-5.59,5.85-8.68,8.47-9.14,7.76-19.42,13.47-30.88,17.02-11.75,3.64-23.74,4.84-35.96,3.38-11.1-1.33-21.61-4.62-31.44-9.99-10.77-5.88-19.95-13.65-27.45-23.37-7.99-10.34-13.45-21.88-16.23-34.68-2.15-9.93-2.58-19.93-1.27-30,1.47-11.24,5.01-21.79,10.61-31.65,6.76-11.9,15.81-21.66,27.1-29.36,4.01-2.74,8.26-5.05,12.66-7.13,4.31-2.04,5.06-7.43,1.47-10.44-2.22-1.86-4.69-1.83-7.24-.63-3.63,1.72-7.16,3.62-10.57,5.74-.75.47-1.15.33-1.63-.35-1.88-2.64-3.81-5.25-5.7-7.88-1.55-2.15-3.66-3.13-6.27-2.7-4.5.74-6.65,5.82-4.07,9.6,1.87,2.73,3.86,5.38,5.8,8.06.85,1.18.86,1.16-.27,2.11-4.37,3.66-8.35,7.72-11.98,12.1-5.15,6.19-9.48,12.92-13.04,20.17-6.14,12.49-9.34,25.72-9.99,39.57-.26,5.54.02,11.08.7,16.61,1.38,11.16,4.55,21.77,9.55,31.83,5.54,11.13,12.92,20.89,22.11,29.28,7.11,6.49,14.96,11.89,23.62,16.09,6.27,3.05,12.78,5.45,19.57,7.09,4.92,1.18,9.87,2.06,14.91,2.53,1.35.13,1.39.18,1.39,1.51,0,3.75,0,7.49,0,11.24,0,1.42,0,1.42-1.46,1.42-9.5,0-18.99,0-28.49,0-2.59,0-4.6,1.47-5.27,3.96-1.83,6.88-3.62,13.77-5.42,20.66-.16.61-.28,1.23-.18,1.88.45,2.93,2.48,4.67,5.57,4.67,14.35,0,28.69,0,43.04,0,10.07,0,20.13,0,30.2,0,4.38,0,8.76.02,13.14-.01,2.81-.02,4.89-1.92,5.25-4.69.12-.96-.17-1.86-.4-2.76-1.68-6.44-3.38-12.87-5.07-19.3-.78-2.99-2.63-4.42-5.72-4.42-9.46,0-18.93-.01-28.39.02-.94,0-1.29-.24-1.27-1.23.05-3.91.04-7.82,0-11.74,0-.82.31-1.15,1.08-1.21.77-.05,1.53-.14,2.29-.22,7.24-.8,14.3-2.41,21.19-4.76,7.11-2.43,13.87-5.65,20.25-9.61.67-.42,1-.33,1.45.29,2.01,2.83,4.07,5.64,6.12,8.45.55.76,1.18,1.45,2.02,1.92,2.58,1.45,5.9.99,7.74-1.05,2.07-2.29,2.24-5.48.42-8.03-1.75-2.45-3.53-4.88-5.3-7.31-1.56-2.14-1.52-2.09.47-3.81Z"/>
            <path class="cls-3" d="M428.22,245.39c.05-.37-.34-.77-.9-.89-.11-.02-.22-.03-.3-.05-.21,0-.43-.03-.55.12-.36.5.33.83.24,1.31-.03.15.12.29.33.29.42,0,1.14-.46,1.18-.79Z"/>
            <path class="cls-3" d="M330.62,194.25c-.55-1.56-1.11-3.13-1.64-4.7-.17-.49-.54-.79-.92-1.07-.87-.67-1.63-1.41-2.16-2.4-.47-.9-1.26-1.47-2.25-1.74-.59-.16-1.17-.35-1.73-.57-7.41,11.61-11.66,25.39-11.65,40.03,0,11.5,2.63,22.49,7.38,32.32.25-.56.48-1.14.75-1.69.92-1.95,1.88-3.88,3.14-5.64.59-.83.86-1.78.86-2.81,0-.83,0-1.67.1-2.48.25-1.8,2.16-4.35,4.77-3.62.25.07.52.07.75.18,1.41.63,2.66.16,3.88-.54,2.12-1.21,3.9-2.84,5.59-4.57,2.01-2.05,4.05-4.06,6.16-6.02,1.66-1.54,3.5-2.69,5.67-3.32.31-.09.62-.22.92-.39-.85-.12-1.7-.13-2.55-.06-1.3.11-2.61.21-3.92.21-.57,0-1.13.06-1.71.03-1.79-.1-2.96-1.02-3.63-2.62-.36-.86-.82-1.63-1.39-2.37-.65-.85-.79-1.93-1.06-2.94-.27-1.02-.4-2.06-.45-3.11-.07-1.44-.84-2.66-1.33-3.96-.4-1.07-.62-2.16-.64-3.29-.02-1.02-.13-2.02-.45-2.99-.6-1.82-.86-3.73-1.44-5.56-.2-.63-.43-1.25-.68-1.87-.24-.59-.38-1.19-.29-1.83.03-.21-.02-.4-.09-.59Z"/>
            <path class="cls-3" d="M377.38,203.97c.22-.06.42-.17.42-.44,0-.27-.22-.32-.41-.37-.57-.13-1.08-.02-1.57.46.21.07.32.12.44.16.36.11.72.3,1.12.19Z"/>
            <path class="cls-3" d="M409.31,184.46c.27.3.42.61.45,1.03.03.47.17.94.26,1.4.05.27.21.37.47.33,1.15-.17,2.21-.56,3.06-1.38.34-.33.39-.74.27-1.17-.13-.5-.43-.88-.85-1.19-.82-.59-1.78-.76-2.69-.85-.52-.01-1.11.4-1.35.89-.22.45.13.68.37.94Z"/>
            <path class="cls-3" d="M324.98,179.33c1.51.46,2.98,1.02,4.49,1.47,2.29.69,4.6,1.35,6.97,1.7.88.13,1.73.36,2.52.79.79.42,1.17,1.2,1.06,2.08-.03.26-.19.43-.35.61-.66.7-1.26,1.44-1.8,2.23-.5.73-.69,1.52-.57,2.41.07.56.3,1.14-.06,1.71-.08.12.03.4.1.58.96,2.42,1.74,4.89,2.51,7.38.37,1.2,1.12,2.2,1.91,3.15,2,2.41,3.18,5.2,3.86,8.23.17.76.42,1.54.05,2.32-.09.18.07.22.2.24.24.04.47.09.71.09,1.75,0,3.41-.39,4.92-1.27,1.96-1.15,4.08-1.88,6.2-2.62,1.68-.58,3.17-1.53,4.67-2.46-.93.28-1.86.56-2.8.83-1.86.52-3.51-.11-4.68-1.64-1.37-1.8-2.1-3.87-2.79-5.98-.2-.59-.07-1.17-.03-1.75.08-1.07.22-2.13.54-3.15.45-1.45,1.33-2.38,2.91-2.68,2.11-.41,4.25-.77,6.3-1.43,2.12-.68,4.27-1.3,6.39-1.97,3.12-.99,6.21-2.1,9.32-3.13,2.54-.84,5.1-1.6,7.74-2.06.52-.09.97-.27,1.38-.64.41-.37.88-.66,1.33-.99,1.12-.84,2.38-1.18,3.75-1.01,2.37.3,4.74.63,7.11.97,1.19.17,2.15.76,2.85,1.74.33.46.73.64,1.27.6.39-.03.77,0,1.16,0,.37.01.47-.14.44-.51-.1-1.03-.35-2.03-.31-3.08.05-1.1.76-1.75,1.87-1.64.25.02.42-.1.6-.23.78-.53,1.14-.51,1.76.18.21.23.44.21.7.2,2.17-.15,4.13.37,5.82,1.78,1.29,1.07,1.5,2.81.49,4.15-.83,1.1-1.84,1.95-3.21,2.33-.7.19-.71.24-.25.8.64.79,1.28,1.57,2.01,2.28.12.12.24.24.37.33.35.23.69.63,1.13.43.4-.18.26-.69.31-1.05.13-1.1.43-1.43,1.52-1.31.54.06.78-.13,1.02-.56,2.33-4.28,7.89-5.03,11.28-3.24,2.45,1.29,5.01,5.32,3.02,9.2-.18.34-.13.56.12.82.6.64,1,1.4,1.32,2.22.25.63.17,1.22-.16,1.75-.54.88-1.15,1.71-1.99,2.34-1.18.87-2.17.93-3.43.18-.14-.08-.29-.17-.42-.26q-.7-.47-1.18.23c-.17.24-.38.39-.67.44-.53.09-1.05.18-1.57.29-.13.03-.33.07-.34.24-.01.18.19.2.32.24.93.28,1.6.88,2.12,1.67.46.71.53,1.45.11,2.2-.46.8-1.08,1.43-2.08,1.42-.71,0-1.38.06-2.04.38-.72.35-1.39.08-1.93-.42-1.23-1.13-1.68-2.65-1.98-4.23-.04-.22.08-.39.25-.52.19-.14.39-.28.57-.43.18-.15.19-.36.13-.56-.07-.24-.28-.18-.46-.16-.26.03-.51.06-.77.07-.25,0-.42.11-.53.33-.45.86-1.1,1.47-2.07,1.69-.29.06-.27.3-.31.52-.32,1.76-.67,3.52-1.47,5.14-.75,1.53-1.69,2.94-3.06,4-.25.2-.27.32.05.44.24.09.48.19.71.31,1.27.69,1.6,1.4,1.29,2.82-.36,1.65-2.17,3.72-4.76,3.04-.58-.15-1.07-.48-1.54-.85-.5-.39-.99-.23-1.18.38-.39,1.29-.2,2.59-.04,3.89.12.98.19,1.96-.51,2.79-.17.2-.12.32.11.4.68.26.84.94,1.17,1.48.04.07.07.21.03.26-.35.45-.34,1.08-.73,1.5-.21.23-.35.47-.34.78.01.45-.18.78-.56,1.01-.23.14-.38.34-.46.6-.03.09-.06.21-.12.24-.57.25-.85.83-1.34,1.13-.43.26-.36.47-.21.79.3.61.66,1.19.77,1.88.23,1.47-.66,2.89-2.09,3.08-1.16.15-2.13-.35-2.82-1.3-.78-1.08-1-2.29-.54-3.56.18-.51-.02-.97-.19-1.38-.22-.53-.59-1-.9-1.5-.09-.14-.25-.29-.23-.42.08-.64-.29-1.12-.49-1.66-.23-.62-.05-1.2.2-1.77.18-.4.38-.8.54-1.21.18-.46.12-.87-.35-1.14-.67-.39-1.27-.85-1.77-1.46-.46-.56-.85-.49-1.33.05-.17.19-.36.38-.5.59-.26.39-.56.62-1.06.44-.55-.21-.93-.72-.9-1.26.04-.59.36-1.07.69-1.54.14-.19.34-.34.38-.59-.04-.03-.08-.07-.09-.06-.54.4-1.13.37-1.73.19-1.12-.34-2.06.07-2.97.65-1.35.86-2.7.75-3.89-.33-.08-.07-.16-.15-.24-.22-.52-.43-.86-.43-1.35.04-1.16,1.11-2.24,2.29-3.22,3.57-1.75,2.28-3.49,4.59-5.6,6.55-2.35,2.18-4.96,4.01-7.95,5.24-.46.19-.87.37-1.19-.28-.17-.34-.65-.44-.91-.78-.52-.7-.48-.97.25-1.42,2-1.24,3.77-2.77,5.5-4.36,1.57-1.44,3.01-2.99,4.31-4.67.16-.21.49-.46.32-.69-.15-.2-.46.07-.69.16-3.41,1.31-6.65,2.99-9.96,4.52-1.27.59-2.43,1.39-3.64,2.09-1.02.6-2.1.94-3.27,1.12-1.58.24-3.07.71-4.43,1.6-2.03,1.33-4.01,2.76-6.16,3.92-1.7.92-3.48,1.68-5.26,2.44-2.51,1.06-4.69,2.58-6.49,4.67-2.07,2.4-4.3,4.65-6.94,6.46-1.53,1.04-2.67,2.44-3.67,3.99-.68,1.05-1.49,2.02-2.32,2.95-.07.08-.15.14-.23.2,12.64,21.75,36.12,36.69,64.04,36.69,41.51,0,73.58-33.18,73.99-73.26.42-40.7-31.83-74.72-73.97-74.8-24.68-.05-46.02,11.69-59.37,29.61ZM436.25,249.4c-.12.44-.1.74.18,1.1.34.44.47.93.11,1.43-.44.6-.94,1.34-1.76,1.03-.64-.24-1.11-.17-1.65.1-.08.04-.17.06-.33.1.27.21.49.36.66.54.28.29.48.62.31,1.05-.18.44-.5.72-.98.79-.16.02-.33,0-.5.04-.97.18-1.39-.02-1.7-.96-.31-.95-.4-.74.07-1.45-.08-.12-.24-.1-.29-.05-.47.44-1.21.62-1.35,1.38-.23,1.24-.67,2.38-1.63,3.25-.14.13-.22.21,0,.36.8.56.9,1.02.45,1.78-.42.71-1.34.99-2.08.63-.76-.36-.84-.29-.88.57-.03.69.33,1.39-.09,2.06-.09.14.1.21.19.3.29.3.34.62.14,1-.3.59-.55,1.2-1.11,1.6-.28.2-.29.44-.13.76.24.49.26,1.01-.1,1.46-.28.36-.69.41-1.11.28-.57-.17-1.04-.61-.97-1.14.12-.98-.3-1.77-.62-2.61-.16-.42-.13-.83.08-1.23.2-.39.18-.69-.27-.9-.16-.07-.28-.24-.4-.37-.19-.2-.37-.2-.57,0-.22.22-.41.61-.81.3-.41-.32-.21-.69-.02-1.04.03-.05.06-.09.09-.15-.73-.1-1.41-.12-2.08.33-.41.28-.94.14-1.32-.23-.31-.29-.55-.24-.85.04-.96.93-1.69,2.04-2.55,3.05-1.12,1.31-2.46,2.32-4.02,3.05-.42.2-1.08-.13-1.22-.58-.1-.3.13-.38.32-.5,1.46-.96,2.72-2.14,3.83-3.48.07-.08.12-.18.13-.37-.51.21-1.02.41-1.52.64-1.5.71-3.02,1.37-4.44,2.25-.23.14-.51.26-.77.28-1.1.11-2.05.58-2.92,1.22-1.28.93-2.68,1.62-4.14,2.21-1.26.51-2.16,1.45-3.04,2.43-.59.66-1.2,1.32-1.95,1.79-1.05.66-1.7,1.66-2.41,2.63-.33.45-.67.83-1.31.72-.23-.04-.42.11-.6.25-.33.26-.7.49-.99.8-1.45,1.52-3.31,2.2-5.3,2.61-1.41.29-2.81.62-4.21.93-.37.08-.73.08-1.09-.06-.17-.07-.37-.14-.39-.35-.03-.24.19-.29.35-.37.68-.34,1.39-.62,2.14-.74,2.69-.43,5.05-1.7,7.42-2.93,1.21-.63,2.04-1.66,2.56-2.94.34-.84.76-1.64,1.29-2.37.26-.35.37-.75.38-1.19,0-.35.02-.7.08-1.05.19-1.15,1.1-1.79,2.2-1.46.74.22,1.33.03,1.92-.35.98-.64,1.8-1.46,2.61-2.29.86-.89,1.74-1.75,2.71-2.52.51-.4,1.1-.66,1.73-.87-.4,0-.81-.04-1.21,0-.61.07-1.21.06-1.82.06-.57,0-1.1-.22-1.35-.73-.39-.8-1.04-1.48-1.2-2.4-.06-.34-.16-.68-.18-1.03-.03-.48-.12-.94-.32-1.39-.34-.76-.51-1.55-.58-2.4-.09-1.13-.45-2.24-.8-3.32-.35-1.06-.44-2.2-.93-3.22,0-.02,0-.04-.02-.05-.79-.93-1.32-2.12-2.62-2.52-.8-.25-1.54-.62-2.16-1.2-.19-.18-.4-.33-.66-.39-2.39-.63-4.72-1.46-7.14-1.95-.29-.06-.58-.11-.87-.16-.14-.03-.32-.02-.33-.22-.01-.17.1-.28.24-.34.17-.08.34-.13.52-.18,1.58-.46,3.09-.03,4.55.46,3.01,1,6.1,1.71,9.11,2.7.97.32,1.97.49,2.96.7.85.18,1.32,1.03.52,1.69-.91.76-.82,1.79-.56,2.79.24.91.59,1.78.88,2.68.14.43.35.81.64,1.16,1.05,1.25,1.7,2.66,1.85,4.29.03.3.18.36.44.37.49.02.96-.07,1.39-.29,1.18-.62,2.42-1.07,3.66-1.54.22-.08.44-.18.6-.37-.03-.02-.06-.05-.08-.05-1.45.29-1.85.14-2.66-1.12-.83-1.29-1.12-2.67-.56-4.16.19-.5.51-.87,1.04-.97,3-.58,5.86-1.58,8.74-2.56,1.2-.41,2.42-.79,3.68-1.01.35-.06.6-.28.85-.49.6-.51,1.29-.69,2.06-.59.77.1,1.53.2,2.3.3.6.08,1.15.27,1.55.75.17.2.38.26.63.28.42.02.58-.13.5-.56-.05-.29-.06-.58-.07-.88,0-.22.07-.46.26-.52.51-.16.96-.6,1.59-.22.27.16.67.11,1.02.14.53.04,1,.25,1.43.54.76.5.87,1.42.26,2.1-.28.32-.59.62-1.02.74-.36.1-.33.27-.12.5.29.31.56.64.86.93.22.2.44.24.46-.17.02-.45.24-.68.7-.65.28.02.36-.22.49-.39.91-1.32,2.2-1.77,3.72-1.47,1.78.34,2.78,2,2.3,3.75Z"/>
          </g>
        </g>
      </g>
    </g>
  </g>
</svg>