<?xml version="1.0" encoding="UTF-8"?>
<svg id="Layer_2" data-name="Layer 2" xmlns="http://www.w3.org/2000/svg" viewBox="0 0 78.82 78.82">
  <defs>
    <style>
      .cls-1 {
        fill: #4c7738;
      }

      .cls-1, .cls-2, .cls-3, .cls-4 {
        stroke-width: 0px;
      }

      .cls-2 {
        fill: #fff;
      }

      .cls-3 {
        fill: #aeb521;
      }

      .cls-4 {
        fill: #003c3a;
      }
    </style>
  </defs>
  <g id="Layer_1-2" data-name="Layer 1">
    <g>
      <g>
        <circle class="cls-4" cx="39.41" cy="39.41" r="39.41"/>
        <circle class="cls-2" cx="39.41" cy="39.41" r="35.94"/>
        <circle class="cls-3" cx="39.41" cy="39.41" r="32.57"/>
        <path class="cls-1" d="m12.03,39.41c0,15.12,12.26,27.38,27.38,27.38s27.38-12.26,27.38-27.38H12.03Z"/>
      </g>
      <g>
        <path class="cls-2" d="m24.57,63.16c-.5-.18-1-.34-1.49-.54-1.03-.41-1.78-1.18-2.37-2.07-.65-.98-.98-2.1-.95-3.29.02-.88.3-1.7.64-2.51,1.24-2.89,2.47-5.78,3.69-8.67,1.22-2.88,2.43-5.76,3.65-8.64,1.09-2.56,2.19-5.12,3.28-7.67.4-.94.8-1.87,1.2-2.81.06-.15.12-.32.12-.48.01-.97,0-1.94,0-2.88-.36-.15-.71-.26-1.02-.45-.87-.52-1.01-1.9-.37-2.63.41-.47.87-.66,1.48-.66,5.93,0,11.86.02,17.79,0,1.12,0,1.91.72,1.99,1.56.1.99-.44,1.92-1.63,2.09-.04,0-.08.02-.15.03,0,1.01-.06,2.03.03,3.03.04.5.35.98.55,1.46.94,2.23,1.88,4.47,2.83,6.7.86,2.03,1.75,4.05,2.61,6.08,1.05,2.48,2.09,4.98,3.15,7.46.91,2.14,1.85,4.27,2.74,6.42.29.71.46,1.48.69,2.22v1.01s-.06.03-.06.05c-.04.89-.34,1.7-.8,2.44-.59.94-1.34,1.74-2.4,2.18-.51.21-1.04.39-1.56.58H24.57Zm11.41-39.65c0,1.26,0,2.48,0,3.7,0,.23-.04.47-.13.69-.47,1.13-.95,2.26-1.43,3.39-1.18,2.79-2.37,5.58-3.55,8.37-1.13,2.65-2.25,5.3-3.38,7.95-1.18,2.76-2.37,5.52-3.54,8.28-.19.44-.39.9-.46,1.36-.15,1.13.95,2.28,2.18,2.28,10.43,0,20.85-.02,31.28.02,1.54,0,2.98-1.55,2.07-3.28-.7-1.34-1.22-2.77-1.81-4.17-.7-1.65-1.4-3.3-2.1-4.95-.6-1.41-1.2-2.81-1.8-4.22-.67-1.57-1.33-3.15-1.99-4.72-.6-1.41-1.21-2.81-1.81-4.22-.7-1.63-1.37-3.28-2.08-4.91-.38-.88-.73-1.75-.65-2.76.07-.81.02-1.63.01-2.45,0-.12-.02-.24-.02-.37h-10.8Z"/>
        <g>
          <path class="cls-2" d="m51.18,49.18c.06-.04.11-.08.19-.14-1.04-.22-1.56.4-2.01,1.12-.41-.3-.79-.58-1.2-.87.12-.09.22-.16.38-.28-.65,0-1.22,0-1.78,0-.1,0-.19.05-.28.1-.67.32-.99.92-1.25,1.57-.02.05-.02.12,0,.16.23.61.53,1.17,1.12,1.52.68.4,1.42.03,2.12.21,0-.03,0-.06.01-.09-.1-.08-.2-.16-.31-.24.41-.29.79-.57,1.19-.85.72,1.05,1.27,1.35,2,1.07-.62-.31-.97-.84-1.22-1.45-.04-.11-.09-.25-.05-.35.22-.6.52-1.15,1.09-1.5Z"/>
          <path class="cls-2" d="m37.35,49.05c-1.07-.23-1.6.38-2.05,1.11-.4-.29-.79-.57-1.2-.86.11-.08.2-.15.3-.22,0-.02,0-.05-.01-.07-.55,0-1.09,0-1.63,0-.1,0-.2.04-.29.08-.7.32-1.05.93-1.3,1.61-.02.05-.02.11,0,.16.24.65.56,1.23,1.21,1.56.6.3,1.24.02,1.85.13.05.01.12-.02.21-.04-.14-.1-.23-.17-.34-.25.41-.3.8-.58,1.19-.86.8,1.09,1.28,1.34,2.01,1.07-.62-.3-.97-.82-1.2-1.41-.07-.17-.07-.4,0-.57.24-.6.6-1.12,1.25-1.45Zm-5.12,1.06s.06.06.1.09c-.03-.03-.07-.06-.1-.09-.03-.03-.06-.05-.09-.08h0s.06.05.09.08Z"/>
          <path class="cls-2" d="m49.35,39.44c-.39-.28-.77-.56-1.18-.85.12-.09.21-.16.31-.24-.35-.05-.69.02-1.01-.04-.75-.14-1.32.12-1.72.72-.69,1.03-.69,1.04,0,2.09.27.41.65.7,1.16.73.44.03.89,0,1.34,0,.07,0,.14-.02.26-.04-.14-.1-.23-.17-.35-.25.42-.3.8-.57,1.18-.85.92,1.1,1.4,1.36,1.99,1.05-.61-.3-.95-.82-1.19-1.42-.06-.16-.06-.38,0-.54.23-.61.6-1.12,1.23-1.45-.82-.21-1.17-.01-2.04,1.09Z"/>
          <path class="cls-2" d="m43.13,56.42c-.06-.17-.07-.4,0-.57.23-.59.59-1.11,1.2-1.42-.75-.24-1.15-.02-2.01,1.07-.39-.28-.78-.56-1.18-.85.11-.08.21-.15.37-.27-.31,0-.54,0-.77,0-.09,0-.18.04-.26.02-1.07-.15-2.1.61-2.28,1.67,0,.04-.01.09,0,.13.23.61.53,1.17,1.12,1.52.68.41,1.42.04,2.13.22,0-.03,0-.06.01-.09-.1-.08-.2-.16-.32-.25.23-.15.43-.27.62-.41.19-.14.37-.29.57-.45.74,1.07,1.28,1.36,2.01,1.09-.62-.3-.97-.82-1.2-1.42Z"/>
          <path class="cls-2" d="m49.36,44.8c-.41-.3-.79-.58-1.2-.87.13-.09.22-.16.39-.28-.65,0-1.21,0-1.78,0-.1,0-.19.05-.28.1-.67.32-.99.92-1.25,1.57-.02.05-.03.12,0,.16.23.61.53,1.18,1.11,1.52.68.4,1.42.05,2.12.21,0-.03,0-.06.01-.08-.1-.08-.2-.16-.3-.24.41-.29.79-.56,1.19-.85.72,1.04,1.27,1.34,2,1.07-.62-.31-.97-.84-1.22-1.45-.05-.12-.08-.27-.04-.38.2-.53.47-1.02.94-1.37.1-.07.2-.14.34-.23-1.05-.23-1.57.4-2.02,1.11Z"/>
          <path class="cls-2" d="m44.38,49.05c-1.07-.23-1.6.38-2.05,1.11-.4-.29-.79-.57-1.2-.86.12-.08.21-.15.31-.22l-.02-.08c-.31.02-.64.11-.94.05-.91-.2-1.47.25-1.95.94-.4.57-.39,1.08.01,1.63.33.46.69.89,1.29.95.47.05.96,0,1.44,0,.06,0,.11-.02.2-.05-.13-.1-.23-.17-.34-.25.41-.3.8-.58,1.19-.86.77,1.07,1.22,1.31,2.02,1.09-.62-.31-.98-.82-1.21-1.42-.07-.18-.07-.42,0-.6.23-.59.59-1.1,1.24-1.43Z"/>
          <path class="cls-2" d="m35.3,39.45c-.4-.29-.79-.58-1.2-.87.12-.08.22-.14.39-.26-.42,0-.77.04-1.11,0-.98-.14-2.14.74-2.22,1.73,0,.02,0,.04,0,.07.06.59.87,1.61,1.46,1.69.58.08,1.19.02,1.84.02-.14-.11-.24-.19-.34-.27.41-.3.8-.58,1.19-.85.72,1.05,1.26,1.34,2.01,1.07-.62-.3-.97-.82-1.2-1.41-.07-.17-.06-.4,0-.57.24-.6.6-1.12,1.26-1.45-1.07-.23-1.6.37-2.06,1.11Z"/>
          <path class="cls-2" d="m35.3,44.8c-.41-.29-.79-.58-1.2-.87.11-.08.2-.14.37-.26-.67,0-1.25,0-1.84,0-.07,0-.15.05-.22.08-.66.33-1,.92-1.24,1.57-.02.05-.03.11-.01.16.22.62.53,1.18,1.11,1.52.68.4,1.42.05,2.12.21,0-.03.01-.06.02-.09-.1-.08-.2-.16-.31-.25.22-.15.43-.27.62-.41.2-.14.38-.3.57-.45.74,1.06,1.22,1.32,2.03,1.09-.64-.31-.99-.84-1.23-1.44-.06-.16-.06-.38,0-.54.24-.6.6-1.13,1.26-1.46-1.07-.24-1.6.38-2.06,1.11Z"/>
          <path class="cls-2" d="m39.32,36.31c.66.38,1.38.1,2.07.17.01,0,.02-.03.04-.05-.09-.07-.19-.15-.29-.22.41-.29.8-.57,1.19-.85.59.97,1.23,1.34,2,1.07-.59-.3-.92-.79-1.18-1.35-.11-.23-.12-.44,0-.67.27-.57.6-1.08,1.21-1.38-.78-.24-1.26.02-2.02,1.08-.39-.28-.78-.57-1.19-.86.13-.09.22-.16.38-.28-.65,0-1.21,0-1.78,0-.1,0-.2.05-.29.09-.66.33-.99.92-1.24,1.58-.02.05-.03.11,0,.16.23.61.52,1.18,1.12,1.52Z"/>
          <path class="cls-2" d="m39.65,41.8c.58.08,1.19.02,1.83.02-.14-.11-.24-.19-.34-.27.41-.3.8-.57,1.19-.85.72,1.04,1.34,1.37,1.98,1.06-.61-.3-.95-.82-1.19-1.42-.06-.16-.06-.38,0-.54.24-.61.6-1.12,1.26-1.46-1.07-.23-1.59.37-2.04,1.1-.39-.27-.76-.53-1.14-.8-.02-.01-.02-.04-.04-.07.09-.07.19-.14.35-.25-.42,0-.76.04-1.1,0-.98-.14-2.14.75-2.22,1.73,0,.02,0,.04,0,.07.06.59.87,1.61,1.46,1.69Z"/>
          <path class="cls-2" d="m44.35,43.71c-.83-.21-1.22,0-2.03,1.09-.39-.28-.78-.56-1.18-.85.11-.09.21-.16.37-.29-.63,0-1.17,0-1.72,0-.11,0-.22.05-.32.09-.68.33-1.01.93-1.27,1.59-.02.05-.02.11,0,.16.24.63.56,1.2,1.18,1.55.6.33,1.24.01,1.85.15.06.01.14-.02.24-.04-.13-.11-.23-.18-.33-.26.41-.3.79-.57,1.18-.85.83,1.08,1.35,1.35,2,1.05-.62-.29-.96-.82-1.2-1.42-.06-.16-.06-.38,0-.54.23-.61.59-1.13,1.23-1.45Z"/>
        </g>
      </g>
      <g>
        <path class="cls-4" d="m22.57,61.16c-.5-.18-1-.34-1.49-.54-1.03-.41-1.78-1.18-2.37-2.07-.65-.98-.98-2.1-.95-3.29.02-.88.3-1.7.64-2.51,1.24-2.89,2.47-5.78,3.69-8.67,1.22-2.88,2.43-5.76,3.65-8.64,1.09-2.56,2.19-5.12,3.28-7.67.4-.94.8-1.87,1.2-2.81.06-.15.12-.32.12-.48.01-.97,0-1.94,0-2.88-.36-.15-.71-.26-1.02-.45-.87-.52-1.01-1.9-.37-2.63.41-.47.87-.66,1.48-.66,5.93,0,11.86.02,17.79,0,1.12,0,1.91.72,1.99,1.56.1.99-.44,1.92-1.63,2.09-.04,0-.08.02-.15.03,0,1.01-.06,2.03.03,3.03.04.5.35.98.55,1.46.94,2.23,1.88,4.47,2.83,6.7.86,2.03,1.75,4.05,2.61,6.08,1.05,2.48,2.09,4.98,3.15,7.46.91,2.14,1.85,4.27,2.74,6.42.29.71.46,1.48.69,2.22v1.01s-.06.03-.06.05c-.04.89-.34,1.7-.8,2.44-.59.94-1.34,1.74-2.4,2.18-.51.21-1.04.39-1.56.58H22.57Zm11.41-39.65c0,1.26,0,2.48,0,3.7,0,.23-.04.47-.13.69-.47,1.13-.95,2.26-1.43,3.39-1.18,2.79-2.37,5.58-3.55,8.37-1.13,2.65-2.25,5.3-3.38,7.95-1.18,2.76-2.37,5.52-3.54,8.28-.19.44-.39.9-.46,1.36-.15,1.13.95,2.28,2.18,2.28,10.43,0,20.85-.02,31.28.02,1.54,0,2.98-1.55,2.07-3.28-.7-1.34-1.22-2.77-1.81-4.17-.7-1.65-1.4-3.3-2.1-4.95-.6-1.41-1.2-2.81-1.8-4.22-.67-1.57-1.33-3.15-1.99-4.72-.6-1.41-1.21-2.81-1.81-4.22-.7-1.63-1.37-3.28-2.08-4.91-.38-.88-.73-1.75-.65-2.76.07-.81.02-1.63.01-2.45,0-.12-.02-.24-.02-.37h-10.8Z"/>
        <g>
          <path class="cls-4" d="m49.18,47.18c.06-.04.11-.08.19-.14-1.04-.22-1.56.4-2.01,1.12-.41-.3-.79-.58-1.2-.87.12-.09.22-.16.38-.28-.65,0-1.22,0-1.78,0-.1,0-.19.05-.28.1-.67.32-.99.92-1.25,1.57-.02.05-.02.12,0,.16.23.61.53,1.17,1.12,1.52.68.4,1.42.03,2.12.21,0-.03,0-.06.01-.09-.1-.08-.2-.16-.31-.24.41-.29.79-.57,1.19-.85.72,1.05,1.27,1.35,2,1.07-.62-.31-.97-.84-1.22-1.45-.04-.11-.09-.25-.05-.35.22-.6.52-1.15,1.09-1.5Z"/>
          <path class="cls-4" d="m35.35,47.05c-1.07-.23-1.6.38-2.05,1.11-.4-.29-.79-.57-1.2-.86.11-.08.2-.15.3-.22,0-.02,0-.05-.01-.07-.55,0-1.09,0-1.63,0-.1,0-.2.04-.29.08-.7.32-1.05.93-1.3,1.61-.02.05-.02.11,0,.16.24.65.56,1.23,1.21,1.56.6.3,1.24.02,1.85.13.05.01.12-.02.21-.04-.14-.1-.23-.17-.34-.25.41-.3.8-.58,1.19-.86.8,1.09,1.28,1.34,2.01,1.07-.62-.3-.97-.82-1.2-1.41-.07-.17-.07-.4,0-.57.24-.6.6-1.12,1.25-1.45Zm-5.12,1.06s.06.06.1.09c-.03-.03-.07-.06-.1-.09-.03-.03-.06-.05-.09-.08h0s.06.05.09.08Z"/>
          <path class="cls-4" d="m47.35,37.44c-.39-.28-.77-.56-1.18-.85.12-.09.21-.16.31-.24-.35-.05-.69.02-1.01-.04-.75-.14-1.32.12-1.72.72-.69,1.03-.69,1.04,0,2.09.27.41.65.7,1.16.73.44.03.89,0,1.34,0,.07,0,.14-.02.26-.04-.14-.1-.23-.17-.35-.25.42-.3.8-.57,1.18-.85.92,1.1,1.4,1.36,1.99,1.05-.61-.3-.95-.82-1.19-1.42-.06-.16-.06-.38,0-.54.23-.61.6-1.12,1.23-1.45-.82-.21-1.17-.01-2.04,1.09Z"/>
          <path class="cls-4" d="m41.13,54.42c-.06-.17-.07-.4,0-.57.23-.59.59-1.11,1.2-1.42-.75-.24-1.15-.02-2.01,1.07-.39-.28-.78-.56-1.18-.85.11-.08.21-.15.37-.27-.31,0-.54,0-.77,0-.09,0-.18.04-.26.02-1.07-.15-2.1.61-2.28,1.67,0,.04-.01.09,0,.13.23.61.53,1.17,1.12,1.52.68.41,1.42.04,2.13.22,0-.03,0-.06.01-.09-.1-.08-.2-.16-.32-.25.23-.15.43-.27.62-.41.19-.14.37-.29.57-.45.74,1.07,1.28,1.36,2.01,1.09-.62-.3-.97-.82-1.2-1.42Z"/>
          <path class="cls-4" d="m47.36,42.8c-.41-.3-.79-.58-1.2-.87.13-.09.22-.16.39-.28-.65,0-1.21,0-1.78,0-.1,0-.19.05-.28.1-.67.32-.99.92-1.25,1.57-.02.05-.03.12,0,.16.23.61.53,1.18,1.11,1.52.68.4,1.42.05,2.12.21,0-.03,0-.06.01-.08-.1-.08-.2-.16-.3-.24.41-.29.79-.56,1.19-.85.72,1.04,1.27,1.34,2,1.07-.62-.31-.97-.84-1.22-1.45-.05-.12-.08-.27-.04-.38.2-.53.47-1.02.94-1.37.1-.07.2-.14.34-.23-1.05-.23-1.57.4-2.02,1.11Z"/>
          <path class="cls-4" d="m42.38,47.05c-1.07-.23-1.6.38-2.05,1.11-.4-.29-.79-.57-1.2-.86.12-.08.21-.15.31-.22l-.02-.08c-.31.02-.64.11-.94.05-.91-.2-1.47.25-1.95.94-.4.57-.39,1.08.01,1.63.33.46.69.89,1.29.95.47.05.96,0,1.44,0,.06,0,.11-.02.2-.05-.13-.1-.23-.17-.34-.25.41-.3.8-.58,1.19-.86.77,1.07,1.22,1.31,2.02,1.09-.62-.31-.98-.82-1.21-1.42-.07-.18-.07-.42,0-.6.23-.59.59-1.1,1.24-1.43Z"/>
          <path class="cls-4" d="m33.3,37.45c-.4-.29-.79-.58-1.2-.87.12-.08.22-.14.39-.26-.42,0-.77.04-1.11,0-.98-.14-2.14.74-2.22,1.73,0,.02,0,.04,0,.07.06.59.87,1.61,1.46,1.69.58.08,1.19.02,1.84.02-.14-.11-.24-.19-.34-.27.41-.3.8-.58,1.19-.85.72,1.05,1.26,1.34,2.01,1.07-.62-.3-.97-.82-1.2-1.41-.07-.17-.06-.4,0-.57.24-.6.6-1.12,1.26-1.45-1.07-.23-1.6.37-2.06,1.11Z"/>
          <path class="cls-4" d="m33.3,42.8c-.41-.29-.79-.58-1.2-.87.11-.08.2-.14.37-.26-.67,0-1.25,0-1.84,0-.07,0-.15.05-.22.08-.66.33-1,.92-1.24,1.57-.02.05-.03.11-.01.16.22.62.53,1.18,1.11,1.52.68.4,1.42.05,2.12.21,0-.03.01-.06.02-.09-.1-.08-.2-.16-.31-.25.22-.15.43-.27.62-.41.2-.14.38-.3.57-.45.74,1.06,1.22,1.32,2.03,1.09-.64-.31-.99-.84-1.23-1.44-.06-.16-.06-.38,0-.54.24-.6.6-1.13,1.26-1.46-1.07-.24-1.6.38-2.06,1.11Z"/>
          <path class="cls-4" d="m37.32,34.31c.66.38,1.38.1,2.07.17.01,0,.02-.03.04-.05-.09-.07-.19-.15-.29-.22.41-.29.8-.57,1.19-.85.59.97,1.23,1.34,2,1.07-.59-.3-.92-.79-1.18-1.35-.11-.23-.12-.44,0-.67.27-.57.6-1.08,1.21-1.38-.78-.24-1.26.02-2.02,1.08-.39-.28-.78-.57-1.19-.86.13-.09.22-.16.38-.28-.65,0-1.21,0-1.78,0-.1,0-.2.05-.29.09-.66.33-.99.92-1.24,1.58-.02.05-.03.11,0,.16.23.61.52,1.18,1.12,1.52Z"/>
          <path class="cls-4" d="m37.65,39.8c.58.08,1.19.02,1.83.02-.14-.11-.24-.19-.34-.27.41-.3.8-.57,1.19-.85.72,1.04,1.34,1.37,1.98,1.06-.61-.3-.95-.82-1.19-1.42-.06-.16-.06-.38,0-.54.24-.61.6-1.12,1.26-1.46-1.07-.23-1.59.37-2.04,1.1-.39-.27-.76-.53-1.14-.8-.02-.01-.02-.04-.04-.07.09-.07.19-.14.35-.25-.42,0-.76.04-1.1,0-.98-.14-2.14.75-2.22,1.73,0,.02,0,.04,0,.07.06.59.87,1.61,1.46,1.69Z"/>
          <path class="cls-4" d="m42.35,41.71c-.83-.21-1.22,0-2.03,1.09-.39-.28-.78-.56-1.18-.85.11-.09.21-.16.37-.29-.63,0-1.17,0-1.72,0-.11,0-.22.05-.32.09-.68.33-1.01.93-1.27,1.59-.02.05-.02.11,0,.16.24.63.56,1.2,1.18,1.55.6.33,1.24.01,1.85.15.06.01.14-.02.24-.04-.13-.11-.23-.18-.33-.26.41-.3.79-.57,1.18-.85.83,1.08,1.35,1.35,2,1.05-.62-.29-.96-.82-1.2-1.42-.06-.16-.06-.38,0-.54.23-.61.59-1.13,1.23-1.45Z"/>
        </g>
      </g>
    </g>
  </g>
</svg>