<?xml version="1.0" encoding="UTF-8"?>
<svg id="Layer_2" data-name="Layer 2" xmlns="http://www.w3.org/2000/svg" xmlns:xlink="http://www.w3.org/1999/xlink" viewBox="0 0 179.85 179.85">
  <defs>
    <style>
      .cls-1 {
        fill: #035129;
      }

      .cls-1, .cls-2, .cls-3, .cls-4 {
        stroke-width: 0px;
      }

      .cls-2 {
        fill: url(#radial-gradient-2);
      }

      .cls-3 {
        fill: url(#radial-gradient);
      }

      .cls-4 {
        fill: #22726e;
      }
    </style>
    <radialGradient id="radial-gradient" cx="89.92" cy="89.92" fx="136.61" fy="28.11" r="89.92" gradientUnits="userSpaceOnUse">
      <stop offset="0" stop-color="#cbd327"/>
      <stop offset=".41" stop-color="#c9d126"/>
      <stop offset=".56" stop-color="#c2cb26"/>
      <stop offset=".67" stop-color="#b6c226"/>
      <stop offset=".75" stop-color="#a5b425"/>
      <stop offset=".82" stop-color="#8fa224"/>
      <stop offset=".89" stop-color="#748c23"/>
      <stop offset=".95" stop-color="#557222"/>
      <stop offset="1" stop-color="#305421"/>
      <stop offset="1" stop-color="#2f5321"/>
    </radialGradient>
    <radialGradient id="radial-gradient-2" cx="89.92" cy="89.92" fx="89.92" fy="89.92" r="75.99" gradientUnits="userSpaceOnUse">
      <stop offset="0" stop-color="#fff"/>
      <stop offset=".43" stop-color="#fdfdfd"/>
      <stop offset=".59" stop-color="#f6f6f6"/>
      <stop offset=".7" stop-color="#eaeaeb"/>
      <stop offset=".79" stop-color="#d9dadb"/>
      <stop offset=".87" stop-color="#c3c4c6"/>
      <stop offset=".94" stop-color="#a9aaac"/>
      <stop offset="1" stop-color="#898b8e"/>
      <stop offset="1" stop-color="#87898c"/>
    </radialGradient>
  </defs>
  <g id="Layer_1-2" data-name="Layer 1">
    <g>
      <g>
        <circle class="cls-3" cx="89.92" cy="89.92" r="89.92"/>
        <circle class="cls-1" cx="89.92" cy="89.92" r="79.69"/>
        <circle class="cls-2" cx="89.92" cy="89.92" r="75.99"/>
      </g>
      <g id="VqAUCv">
        <g>
          <path class="cls-4" d="m82.41,149.72c-16.01-.7-30.19-8.97-38.88-25.68-8.64-16.63-5.78-37.43,6.62-51.37,8.07-9.07,18.14-14.34,30.23-15.55,12.09-1.21,22.98,1.99,32.75,9.17.8.59,1.14,1.25,1.12,2.24-.05,2.45-.01,4.89-.03,7.34,0,.34.15.81-.21.98-.47.22-.68-.3-.94-.56-1.21-1.25-2.52-2.38-3.85-3.5-.7-.59-1.39-.74-2.19-.24-.42.26-.87.46-1.28.71-3.09,1.91-3.45,2.9-2.37,6.38.61,1.95,1.3,3.88,1.66,5.91.46,2.66-.74,3.76-3.31,3-3.55-1.06-6.82-2.81-10.23-4.22-2.47-1.02-4.96-1.97-7.62-2.38-1.85-.28-3.52,0-5.08,1.07-1.89,1.28-3.89,2.36-6.16,2.79-3.23.62-5.19-1.21-4.84-4.5.15-1.46.42-2.9.6-4.36.38-3.12-.97-5.26-3.68-5.93-.65-.16-1.22-.14-1.78.25-6.06,4.17-10.5,9.67-13.5,16.37-.3.66-.04.93.53,1.23,4.67,2.47,7.44,6.49,9.1,11.37.88,2.58.51,5.04-1.37,6.97-2.22,2.28-2.04,4.54-.58,7.01.38.65.73,1.33,1.1,1.98,1.83,3.23,1.27,6.21-1.63,8.53-.21.17-.42.33-.64.49q-2.11,1.54-.38,3.48c6.28,7.1,14.05,11.49,23.42,13.02.35.06.71.07,1.06.14.69.14,1-.01.86-.81-.59-3.35.39-6.15,2.69-8.69,2.02-2.23,1.99-5.16,1.88-7.98-.06-1.59-.28-3.19-1.02-4.66-.84-1.67-2.07-1.9-3.37-.54-.55.57-.98,1.26-1.44,1.92-.59.85-1.24,1.64-2.1,2.22-1.42.96-2.91,1.03-4.39.13-3.45-2.1-4.76-6.95-2.82-10.48,1.55-2.82,1.72-5.75.68-8.77-.92-2.69-2.07-5.31-2.42-8.17-.2-1.64-.33-3.29.11-4.9.4-1.46,1.22-1.85,2.62-1.26,1.57.66,2.86,1.79,4.23,2.78,2.97,2.14,5.98,4.16,9.67,4.93,1.74.36,2.84,1.63,3.3,3.35.28,1.03.42,2.09.63,3.14.41,2.01,1.53,2.79,3.56,2.38,1.96-.39,3.89-.92,5.9-1.09,2.07-.18,4.1.03,6.03.79,2.66,1.04,3.58,3.1,2.67,5.8-.4,1.2-1.05,2.25-1.81,3.25-1.61,2.13-3.23,4.25-4.83,6.39-.22.3-.6.66-.27,1.06.26.33.67.11,1,.03.52-.12,1.06-.19,1.55-.39,3.62-1.42,6.62-.27,9.26,2.26.77.74,1.52,1.52,2.12,2.39.72,1.06,1.12.73,1.72-.08,1.67-2.26,3.13-4.66,4.25-7.24.48-1.11,1.07-1.42,2.25-1.1,1.5.41,3.05.59,4.62.58,1.41,0,1.51.14.98,1.44-2.99,7.41-7.49,13.72-13.72,18.75-8.55,6.9-18.32,10.42-32.05,10.46Z"/>
          <path class="cls-4" d="m135.31,71.61c0,4.49.02,8.99-.01,13.48,0,.97.28,1.64,1.07,2.26,5.05,3.95,7.03,10.28,5.19,16.36-1.83,6.03-7.08,10.21-13.44,10.7-6.63.51-12.82-3.39-15.27-9.63-2.41-6.13-.54-13.23,4.66-17.31.91-.72,1.24-1.47,1.24-2.59-.03-8.81-.02-17.62-.02-26.42,0-1.71.26-3.37,1.13-4.88,1.86-3.23,5.65-4.88,9.12-3.97,3.84,1.01,6.27,4.17,6.32,8.4.05,4.54.01,9.08.01,13.61Zm-17.33,26.97c0,6.37,4.96,10.56,10.64,9.55,3.72-.66,6.17-2.92,7.12-6.56.97-3.7.08-7.18-3.13-9.21-2.42-1.53-3.03-3.24-2.7-5.73.03-.26,0-.53,0-.8q-.01-1.91-1.91-1.93c-1.84-.02-1.85-.03-1.86-1.87-.01-2.63-.01-2.65,2.57-2.73.83-.03,1.24-.29,1.21-1.16-.03-1.24-.03-2.49,0-3.73.02-.8-.33-1.15-1.12-1.11-.35.02-.72-.04-1.07,0-1.22.14-1.63-.38-1.61-1.6.04-2.72-.02-2.75,2.61-2.85.84-.03,1.22-.32,1.19-1.18-.03-1.02,0-2.05,0-3.07q-.01-1.74-1.8-1.75-1.96-.01-1.97-1.88,0-2.59,2.59-2.74c1.09-.07,1.37-.49,1.04-1.57-.39-1.24-1.71-2.15-2.97-2.03-1.34.12-2.44,1.11-2.64,2.43-.08.52-.06,1.06-.06,1.6,0,10.18-.01,20.37,0,30.55,0,1-.26,1.59-1.22,2.08-3.23,1.63-4.74,4.4-4.92,7.29Z"/>
          <path class="cls-4" d="m112.42,31.5c2.09-.02,3.25,1.92,2.21,3.64-.52.87-1.25,1.61-1.9,2.39-.81.97-.96,1.86-.15,2.98,1.84,2.56,1.68,5.57-.32,8-.73.89-1.47,1.78-2.28,2.61-.95.97-2.39,1.01-3.38.2-1.01-.83-1.19-2.17-.35-3.34.59-.83,1.28-1.59,1.94-2.37.69-.82.76-1.58.11-2.52-2.03-2.97-1.89-5.62.36-8.43.58-.73,1.18-1.45,1.78-2.16.54-.65,1.21-1.04,1.96-1.01Z"/>
          <path class="cls-4" d="m57.55,51.89c-1.96-.02-3.06-1.99-1.99-3.71.58-.94,1.34-1.76,2.05-2.62.7-.84.7-1.62.08-2.53-2.04-2.97-1.85-5.81.5-8.52.67-.77,1.3-1.58,2.02-2.3.91-.91,2.3-.96,3.27-.2,1,.77,1.26,2.06.51,3.21-.58.89-1.31,1.68-2,2.49-.74.86-.8,1.65-.12,2.63,1.94,2.79,1.81,5.55-.28,8.23-.6.77-1.23,1.51-1.85,2.27-.57.69-1.28,1.09-2.19,1.06Z"/>
          <path class="cls-4" d="m87.01,31.49c1.2.02,1.95.37,2.37,1.2.46.9.46,1.83-.14,2.66-.63.86-1.32,1.68-2.01,2.49-.68.8-.64,1.59-.1,2.44,2.11,3.31,1.94,5.72-.58,8.73-.54.65-1.07,1.31-1.64,1.93-1.03,1.11-2.55,1.28-3.58.43-1.02-.84-1.12-2.37-.2-3.6.56-.75,1.17-1.46,1.78-2.16.74-.84.69-1.66.1-2.55-2.01-3.06-1.88-5.63.41-8.42.59-.72,1.19-1.44,1.78-2.16.54-.67,1.24-1,1.81-.97Z"/>
          <path class="cls-4" d="m133.19,99.31c-.02,3.4-2.84,6.21-6.2,6.2-3.34-.01-6.16-2.89-6.15-6.26.01-3.45,2.89-6.24,6.35-6.18,3.32.06,6.03,2.87,6.01,6.24Z"/>
        </g>
      </g>
    </g>
  </g>
</svg>