<?xml version="1.0" encoding="UTF-8"?>
<svg xmlns="http://www.w3.org/2000/svg" xmlns:xlink="http://www.w3.org/1999/xlink" id="Layer_2" data-name="Layer 2" viewBox="0 0 87.38 87.38">
  <defs>
    <style>
      .cls-1 {
        fill: #4c7738;
      }

      .cls-1, .cls-2, .cls-3, .cls-4 {
        stroke-width: 0px;
      }

      .cls-2 {
        fill: #035129;
      }

      .cls-3 {
        fill: url(#radial-gradient-2);
      }

      .cls-4 {
        fill: url(#radial-gradient);
      }
    </style>
    <radialGradient id="radial-gradient" cx="43.69" cy="43.69" fx="66.37" fy="13.66" r="43.69" gradientUnits="userSpaceOnUse">
      <stop offset="0" stop-color="#cbd327"></stop>
      <stop offset=".41" stop-color="#c9d126"></stop>
      <stop offset=".56" stop-color="#c2cb26"></stop>
      <stop offset=".67" stop-color="#b6c226"></stop>
      <stop offset=".75" stop-color="#a5b425"></stop>
      <stop offset=".82" stop-color="#8fa224"></stop>
      <stop offset=".89" stop-color="#748c23"></stop>
      <stop offset=".95" stop-color="#557222"></stop>
      <stop offset="1" stop-color="#305421"></stop>
      <stop offset="1" stop-color="#2f5321"></stop>
    </radialGradient>
    <radialGradient id="radial-gradient-2" cx="43.69" cy="43.69" fx="43.69" fy="43.69" r="36.92" gradientUnits="userSpaceOnUse">
      <stop offset="0" stop-color="#fff"></stop>
      <stop offset=".43" stop-color="#fdfdfd"></stop>
      <stop offset=".59" stop-color="#f6f6f6"></stop>
      <stop offset=".7" stop-color="#eaeaeb"></stop>
      <stop offset=".79" stop-color="#d9dadb"></stop>
      <stop offset=".87" stop-color="#c3c4c6"></stop>
      <stop offset=".94" stop-color="#a9aaac"></stop>
      <stop offset="1" stop-color="#898b8e"></stop>
      <stop offset="1" stop-color="#87898c"></stop>
    </radialGradient>
  </defs>
  <g id="Layer_1-2" data-name="Layer 1">
    <g>
      <g>
        <circle class="cls-4" cx="43.69" cy="43.69" r="43.69"></circle>
        <circle class="cls-2" cx="43.69" cy="43.69" r="38.72"></circle>
        <circle class="cls-3" cx="43.69" cy="43.69" r="36.92"></circle>
      </g>
      <g id="KvVV2y">
        <g>
          <path class="cls-1" d="m22.7,46.72c0-5.29,0-10.57,0-15.86,0-.91.26-1.75.69-2.53.57-1.03,1.41-1.8,2.47-2.3.7-.33,1.43-.53,2.21-.52.57,0,1.13,0,1.7,0,.23,0,.31-.05.31-.29-.02-.48,0-.95,0-1.43,0-1.6,1.26-3.21,3.01-3.41,1.63-.19,2.84.49,3.62,1.91.27.49.39,1.04.39,1.6,0,.46,0,.92,0,1.38,0,.18.06.24.24.24,1.01,0,2.02,0,3.03,0,.2,0,.25-.07.24-.26,0-.44,0-.87,0-1.31-.04-1.49.94-2.9,2.29-3.37,1.24-.43,2.41-.27,3.45.58.73.6,1.14,1.38,1.26,2.29.07.56.02,1.15.02,1.72q0,.34.34.34c.95,0,1.89,0,2.84,0q.33,0,.33-.34c0-.44-.01-.87,0-1.31.06-1.73,1.21-3.21,2.99-3.47,1.79-.26,3.27.73,3.84,2.32.16.46.23.93.23,1.42,0,.38,0,.76,0,1.14,0,.18.05.24.24.24.47,0,.94-.02,1.41,0,1.2.04,2.26.44,3.2,1.18.92.73,1.55,1.65,1.88,2.77.13.42.21.86.21,1.3,0,10.59,0,21.17,0,31.76,0,1.25-.42,2.35-1.2,3.31-.8,1-1.82,1.65-3.06,1.95-.34.08-.68.13-1.03.13-10.56,0-21.12,0-31.68,0-1.23,0-2.32-.39-3.29-1.14-1.23-.95-1.94-2.21-2.15-3.76-.01-.1,0-.21,0-.31,0-5.33,0-10.67,0-16Zm21.2-12.98c-5.84,0-11.68,0-17.53,0q-.35,0-.35.34c0,9.45,0,18.91,0,28.36,0,1.14,1.01,2.15,2.15,2.15,10.46,0,20.93,0,31.39,0,1.17,0,2.21-1.03,2.21-2.2,0-9.44,0-18.88,0-28.32q0-.34-.35-.34c-5.84,0-11.68,0-17.53,0Zm-11.81-6.6c0,1.07,0,2.13,0,3.2,0,.21.03.4.1.59.32.83,1.31,1.35,2.18.74.48-.33.68-.81.69-1.37,0-2.03,0-4.05,0-6.08,0-.19-.01-.38-.05-.58-.13-.67-.76-1.23-1.38-1.25-.89-.04-1.54.77-1.54,1.53,0,1.07,0,2.15,0,3.22Zm13.49.04c0-1.06,0-2.12,0-3.18,0-.21-.03-.4-.1-.59-.33-.93-1.38-1.36-2.21-.75-.44.33-.66.78-.66,1.33,0,2.04,0,4.09,0,6.13,0,.19.01.38.05.58.13.67.88,1.3,1.48,1.24.85-.09,1.45-.76,1.45-1.61,0-1.05,0-2.1,0-3.15Zm10.52-.03c0-1.07,0-2.15,0-3.22,0-.21-.03-.4-.11-.59-.4-.98-1.64-1.3-2.37-.52-.36.38-.49.83-.49,1.32,0,1.91,0,3.81,0,5.72,0,.26,0,.51.05.77.14.75.71,1.29,1.44,1.3.83.01,1.47-.71,1.48-1.49.01-1.1,0-2.2,0-3.3Z"></path>
          <path class="cls-1" d="m31.91,44.85c-.92,0-1.84,0-2.76,0-.22,0-.29-.07-.29-.29,0-1.62,0-3.23,0-4.85,0-.22.07-.29.29-.29,1.84,0,3.68,0,5.52,0,.22,0,.29.07.29.29,0,1.62,0,3.23,0,4.85,0,.22-.07.29-.29.29-.92-.01-1.84,0-2.76,0Z"></path>
          <path class="cls-1" d="m39.91,39.43c.92,0,1.84,0,2.76,0,.22,0,.29.07.29.29,0,1.62,0,3.23,0,4.85,0,.22-.07.29-.29.29-1.84,0-3.68,0-5.52,0-.22,0-.29-.07-.29-.29,0-1.62,0-3.23,0-4.85,0-.22.07-.29.29-.29.92.01,1.84,0,2.76,0Z"></path>
          <path class="cls-1" d="m47.91,44.85c-.92,0-1.84,0-2.76,0-.22,0-.29-.06-.29-.29,0-1.62,0-3.23,0-4.85,0-.22.07-.29.29-.29,1.84,0,3.68,0,5.52,0,.22,0,.29.06.29.29,0,1.62,0,3.23,0,4.85,0,.22-.06.29-.29.29-.92-.01-1.84,0-2.76,0Z"></path>
          <path class="cls-1" d="m55.91,44.85c-.92,0-1.84,0-2.76,0-.22,0-.29-.07-.29-.29,0-1.62,0-3.23,0-4.85,0-.22.07-.29.29-.29,1.84,0,3.68,0,5.52,0,.22,0,.29.07.29.29,0,1.62,0,3.23,0,4.85,0,.22-.07.29-.29.29-.92-.01-1.84,0-2.76,0Z"></path>
          <path class="cls-1" d="m31.91,53.64c.92,0,1.84,0,2.76,0,.22,0,.29.07.29.29,0,1.62,0,3.23,0,4.85,0,.22-.07.29-.29.29-1.84,0-3.68,0-5.52,0-.22,0-.29-.07-.29-.29,0-1.62,0-3.23,0-4.85,0-.22.07-.29.29-.29.92.01,1.84,0,2.76,0Z"></path>
          <path class="cls-1" d="m39.91,59.06c-.92,0-1.84,0-2.76,0-.22,0-.29-.07-.29-.29,0-1.62,0-3.23,0-4.85,0-.22.07-.29.29-.29,1.84,0,3.68,0,5.52,0,.22,0,.29.07.29.29,0,1.62,0,3.23,0,4.85,0,.22-.07.29-.29.29-.92-.01-1.84,0-2.76,0Z"></path>
          <path class="cls-1" d="m47.91,59.06c-.92,0-1.84,0-2.76,0-.22,0-.29-.07-.29-.29,0-1.62,0-3.23,0-4.85,0-.22.07-.29.29-.29,1.84,0,3.68,0,5.52,0,.22,0,.29.07.29.29,0,1.62,0,3.23,0,4.85,0,.22-.07.29-.29.29-.92-.01-1.84,0-2.76,0Z"></path>
          <path class="cls-1" d="m55.91,59.06c-.92,0-1.84,0-2.76,0-.22,0-.29-.07-.29-.29,0-1.62,0-3.23,0-4.85,0-.22.07-.29.29-.29,1.84,0,3.68,0,5.52,0,.22,0,.29.07.29.29,0,1.62,0,3.23,0,4.85,0,.22-.07.29-.29.29-.92-.01-1.84,0-2.76,0Z"></path>
          <path class="cls-1" d="m31.91,51.93c-.92,0-1.84,0-2.76,0-.22,0-.29-.07-.29-.29,0-1.6,0-3.2,0-4.8,0-.22.07-.29.29-.29,1.84,0,3.68,0,5.52,0,.22,0,.29.07.29.29,0,1.6,0,3.2,0,4.8,0,.22-.07.29-.29.29-.92-.01-1.84,0-2.76,0Z"></path>
          <path class="cls-1" d="m39.91,51.93c-.92,0-1.84,0-2.76,0-.22,0-.29-.07-.29-.29,0-1.6,0-3.2,0-4.8,0-.22.07-.29.29-.29,1.84,0,3.68,0,5.52,0,.22,0,.29.07.29.29,0,1.6,0,3.2,0,4.8,0,.22-.07.29-.29.29-.92-.01-1.84,0-2.76,0Z"></path>
          <path class="cls-1" d="m47.88,51.93c-.91,0-1.83,0-2.74,0-.22,0-.29-.07-.29-.29,0-1.6,0-3.2,0-4.8,0-.22.07-.29.29-.29,1.84,0,3.68,0,5.52,0,.22,0,.29.07.29.29,0,1.6,0,3.2,0,4.8,0,.22-.07.29-.29.29-.93-.01-1.86,0-2.79,0Z"></path>
          <path class="cls-1" d="m55.91,51.93c-.92,0-1.84,0-2.76,0-.22,0-.29-.07-.29-.29,0-1.6,0-3.2,0-4.8,0-.22.07-.29.29-.29,1.84,0,3.68,0,5.52,0,.22,0,.29.07.29.29,0,1.6,0,3.2,0,4.8,0,.22-.07.29-.29.29-.92-.01-1.84,0-2.76,0Z"></path>
        </g>
      </g>
    </g>
  </g>
</svg>
