<?xml version="1.0" encoding="UTF-8"?>
<svg id="Layer_2" data-name="Layer 2" xmlns="http://www.w3.org/2000/svg" viewBox="0 0 57.86 57.86">
  <defs>
    <style>
      .cls-1 {
        fill: #fff;
        stroke-width: 0px;
      }

      .cls-2 {
        fill: #aeb521;
        stroke: #fff;
        stroke-miterlimit: 10;
      }
    </style>
  </defs>
  <g id="Layer_1-2" data-name="Layer 1">
    <g>
      <rect class="cls-2" x=".5" y=".5" width="56.86" height="56.86"/>
      <path class="cls-1" d="m5.68,30.14c.05.08.08.14.12.19.64.89,1.49,1.51,2.48,1.96.99.45,2.02.73,3.11.81.35.03.62.2.76.53.14.32.07.63-.14.9-.22.28-.44.55-.67.84.06.04.11.07.16.11,1.36.85,2.85,1.4,4.39,1.8,1.64.43,3.32.68,5.01.81,3.02.25,6.04.17,9.05-.08.19-.02.35.03.52.12,2.38,1.38,4.89,2.48,7.58,3.1.23.05.46.09.7.11-.04-.03-.09-.06-.13-.09-1.13-.75-2.26-1.51-3.32-2.37-.35-.29-.67-.6-.99-.92-.14-.14-.25-.31-.35-.49-.18-.35-.08-.79.41-.93,2.97-.87,5.92-1.8,8.83-2.88.92-.34,1.84-.7,2.71-1.17.11-.06.22-.12.32-.19.33-.2.67-.12.85.22.9,1.72,2.3,2.89,4.09,3.6.05.02.1.04.16.06,0-.03,0-.05-.01-.07-.59-1.26-.82-2.59-.86-3.97-.05-1.69.19-3.34.57-4.98.28-1.23.65-2.43,1.09-3.61.02-.04.03-.09.05-.15-.04.02-.06.02-.08.04-1.84,1.25-3.31,2.84-4.27,4.86-.29.61-.52,1.25-.69,1.9-.11.42-.36.58-.78.48-3.14-.72-6.24-1.57-9.22-2.79-1.09-.45-2.15-.95-3.13-1.61-.4-.27-.78-.57-1.1-.94-.09-.1-.16-.23-.18-.36-.44-2.33-.78-4.67-.91-7.04-.02-.41-.02-.81-.03-1.22,0-.06,0-.13,0-.19-.02,0-.04-.02-.06-.02-.49.66-1.01,1.3-1.48,1.97-1.14,1.63-2.06,3.37-2.68,5.27-.07.21-.13.43-.2.65-.09.29-.27.44-.58.45-2.18.06-4.35.23-6.51.51-3.04.39-6.05.97-8.96,1.95-1.62.55-3.18,1.22-4.63,2.14-.35.22-.68.46-1.03.7Zm20.37-2.62c-.04-.3.18-.59.5-.62.46-.05.91-.09,1.37-.13,1.28.03,2.51.26,3.73.63,1.25.38,2.46.89,3.6,1.52.16.09.28.21.32.4.05.23-.02.43-.21.57-.21.15-.43.15-.65.03-1.05-.58-2.16-1.05-3.31-1.41-1.54-.47-3.1-.74-4.71-.5-.33.05-.6-.17-.64-.49Zm-9.93,4.63c.17-.33.28-.68.32-1.05.07-.66-.04-1.29-.32-1.88-.12-.27-.08-.53.12-.71.29-.25.71-.16.88.19.31.64.46,1.31.47,2.02,0,.67-.15,1.31-.45,1.91-.14.27-.38.39-.63.34-.38-.08-.57-.47-.39-.82Zm-2.85.42c.3-.58.44-1.19.44-1.84,0-.68-.15-1.34-.45-1.96-.12-.25-.07-.51.12-.68.29-.26.73-.17.9.19.37.78.55,1.6.55,2.46,0,.12,0,.25,0,.37-.04.7-.23,1.36-.56,1.97-.13.25-.38.37-.63.32-.38-.08-.56-.48-.37-.83Z"/>
    </g>
  </g>
</svg>