<?xml version="1.0" encoding="UTF-8"?>
<svg xmlns="http://www.w3.org/2000/svg" width="87" height="87" viewBox="0 0 87 87" fill="none">
  <path d="M43.5 80C63.6584 80 80 63.6584 80 43.5C80 23.3416 63.6584 7 43.5 7C23.3416 7 7 23.3416 7 43.5C7 63.6584 23.3416 80 43.5 80Z" fill="url(#paint0_radial_436_92)"></path>
  <path d="M43.5 75.8482C61.3658 75.8482 75.8489 61.3651 75.8489 43.4993C75.8489 25.6335 61.3658 11.1504 43.5 11.1504C25.6342 11.1504 11.1511 25.6335 11.1511 43.4993C11.1511 61.3651 25.6342 75.8482 43.5 75.8482Z" fill="#035129"></path>
  <path d="M43.4999 74.3475C60.536 74.3475 74.3465 60.537 74.3465 43.5009C74.3465 26.4648 60.536 12.6543 43.4999 12.6543C26.4638 12.6543 12.6533 26.4648 12.6533 43.5009C12.6533 60.537 26.4638 74.3475 43.4999 74.3475Z" fill="url(#paint1_radial_436_92)"></path>
  <g style="mix-blend-mode:multiply">
    <path d="M62.4962 53.4032C62.427 54.6683 62.5752 55.9136 62.3973 57.1491C61.9921 59.9264 59.5608 62.0711 56.7538 62.0909C54.9155 62.1007 53.0673 62.1007 51.2289 62.0909C48.254 62.0711 45.7139 59.6793 45.5557 56.6944C45.4371 54.4509 45.4371 52.2172 45.5557 49.9736C45.704 47.2359 48.2441 44.8144 50.9917 44.7946C52.9388 44.7748 54.8957 44.7847 56.8428 44.7946C59.5706 44.8045 62.002 46.9393 62.3973 49.6573C62.5752 50.9125 62.427 52.1776 62.4962 53.4131V53.4032ZM59.3038 53.423C59.3038 52.4544 59.3137 51.4858 59.3038 50.5172C59.2741 49.0841 58.1771 47.987 56.7439 47.9771C54.9056 47.9672 53.0574 47.9672 51.219 47.9771C49.8156 47.987 48.6888 49.0841 48.6691 50.4875C48.6394 52.4346 48.6394 54.3916 48.6691 56.3386C48.6888 57.7322 49.776 58.8095 51.1696 58.8293C53.0475 58.849 54.9155 58.849 56.7934 58.8293C58.2561 58.8095 59.2939 57.7421 59.3137 56.2694C59.3236 55.3206 59.3137 54.3619 59.3137 53.4131L59.3038 53.423Z" fill="#4C7738"></path>
    <path d="M33.2309 41.8984C32.2228 41.8391 30.9379 42.0269 29.6728 41.7996C27.0932 41.335 25.0473 38.9729 24.9979 36.3438C24.9584 34.2979 24.9584 32.252 24.9979 30.216C25.0572 27.1521 27.6566 24.6121 30.7205 24.5923C32.5687 24.5824 34.4071 24.5923 36.2553 24.5923C39.1512 24.6022 41.6913 26.8754 41.9087 29.7614C42.0965 32.1236 42.0965 34.4956 41.9087 36.8479C41.6814 39.6252 39.1808 41.8688 36.4035 41.8885C35.435 41.8885 34.4664 41.8885 33.2408 41.8885L33.2309 41.8984ZM33.4484 27.844C32.5391 27.844 31.6397 27.844 30.7304 27.844C29.2281 27.8637 28.1211 28.9114 28.1014 30.4038C28.0717 32.3212 28.0717 34.2386 28.1014 36.1659C28.1211 37.5595 29.0502 38.6171 30.4536 38.7258C32.4106 38.874 34.3873 38.8641 36.3442 38.7357C37.9454 38.6368 38.825 37.5398 38.825 35.9287C38.825 34.1596 38.7954 32.4003 38.825 30.6311C38.8547 29.2178 37.8169 27.7451 36.028 27.8341C35.1681 27.8736 34.3082 27.8341 33.4484 27.8341V27.844Z" fill="#4C7738"></path>
    <path d="M38.8349 51.9804C38.8349 50.5176 38.8349 49.0647 38.8349 47.602C38.8349 46.6532 39.5465 45.902 40.4163 45.902C41.3157 45.902 41.9976 46.6433 41.9976 47.602C41.9976 50.3496 41.9878 53.1071 41.9779 55.8547C41.9779 57.3076 41.6418 58.6518 40.7325 59.8181C39.5959 61.2611 38.1035 62.0221 36.2849 62.0715C34.4367 62.111 32.5984 62.1012 30.7501 62.0715C27.6961 62.032 25.0671 59.4425 24.9979 56.3885C24.9584 54.3623 24.9584 52.3263 24.9979 50.3002C25.0671 47.2857 27.6368 44.795 30.6414 44.7852C31.4716 44.7852 32.3019 44.7852 33.1321 44.7852C34.0315 44.7852 34.7036 45.4671 34.7135 46.3566C34.7135 47.2363 34.0513 47.9578 33.1617 47.9775C32.3612 47.9973 31.5606 47.9775 30.76 47.9775C29.2577 47.9874 28.1607 49.0549 28.1508 50.5572C28.131 52.435 28.131 54.303 28.1508 56.1809C28.1705 57.6536 29.2874 58.7704 30.76 58.7902C32.6083 58.8099 34.4466 58.8198 36.2948 58.7902C37.7181 58.7704 38.7954 57.6832 38.825 56.26C38.8547 54.8269 38.825 53.4036 38.825 51.9705L38.8349 51.9804Z" fill="#4C7738"></path>
    <path d="M48.6493 34.6244C48.6493 36.018 48.6592 37.4214 48.6493 38.815C48.6493 39.5068 48.3231 40.0307 47.6807 40.3074C47.0975 40.5644 46.5342 40.4754 46.0499 40.0504C45.6447 39.7045 45.4964 39.2301 45.5063 38.726C45.5261 35.7116 45.3877 32.707 45.5755 29.6925C45.7435 27.0041 48.2836 24.6321 51.0016 24.5926C52.9486 24.5629 54.9056 24.5629 56.8526 24.5926C59.5805 24.6321 62.081 26.9053 62.3874 29.6727C62.6246 31.7878 62.4368 33.9128 62.4764 36.0278C62.4764 36.5022 62.4171 36.9767 62.3084 37.4412C61.6956 40.1295 59.4125 41.958 56.655 41.9679C56.0224 41.9679 55.3997 41.9679 54.7672 41.9679C53.8085 41.9481 53.1166 41.2562 53.1265 40.3371C53.1265 39.4377 53.8184 38.7952 54.7672 38.7755C55.5678 38.7557 56.3683 38.8348 57.159 38.7063C58.345 38.5086 59.284 37.4906 59.3037 36.2848C59.3235 34.2883 59.3235 32.2918 59.3037 30.2954C59.284 28.971 58.1869 27.8739 56.8526 27.8442C54.9747 27.8146 53.1068 27.8245 51.2289 27.8442C49.7661 27.8541 48.6789 28.9611 48.669 30.4239C48.6493 31.8174 48.669 33.2209 48.669 34.6145L48.6493 34.6244Z" fill="#4C7738"></path>
  </g>
  <defs>
    <radialGradient id="paint0_radial_436_92" cx="0" cy="0" r="1" gradientUnits="userSpaceOnUse" gradientTransform="translate(43.5 43.5) scale(36.5)">
      <stop stop-color="#CBD327"></stop>
      <stop offset="0.41" stop-color="#C9D126"></stop>
      <stop offset="0.56" stop-color="#C2CB26"></stop>
      <stop offset="0.67" stop-color="#B6C226"></stop>
      <stop offset="0.75" stop-color="#A5B425"></stop>
      <stop offset="0.82" stop-color="#8FA224"></stop>
      <stop offset="0.89" stop-color="#748C23"></stop>
      <stop offset="0.95" stop-color="#557222"></stop>
      <stop offset="1" stop-color="#2F5321"></stop>
    </radialGradient>
    <radialGradient id="paint1_radial_436_92" cx="0" cy="0" r="1" gradientUnits="userSpaceOnUse" gradientTransform="translate(43.4999 43.5009) scale(30.8466)">
      <stop stop-color="#CBD327"></stop>
      <stop offset="0.41" stop-color="#C9D126"></stop>
      <stop offset="0.56" stop-color="#C2CB26"></stop>
      <stop offset="0.67" stop-color="#B6C226"></stop>
      <stop offset="0.75" stop-color="#A5B425"></stop>
      <stop offset="0.82" stop-color="#8FA224"></stop>
      <stop offset="0.89" stop-color="#748C23"></stop>
      <stop offset="0.95" stop-color="#557222"></stop>
      <stop offset="1" stop-color="#2F5321"></stop>
    </radialGradient>
  </defs>
</svg>
