<?xml version="1.0" encoding="UTF-8"?>
<svg id="Capa_2" data-name="Capa 2" xmlns="http://www.w3.org/2000/svg" viewBox="0 0 390.93 124.81">
  <defs>
    <style>
      .cls-1 {
        fill: #4c7738;
      }

      .cls-1, .cls-2, .cls-3 {
        stroke-width: 0px;
      }

      .cls-2 {
        fill: #668b42;
      }

      .cls-3 {
        fill: #003c3a;
      }
    </style>
  </defs>
  <g id="Layer_1" data-name="Layer 1">
    <g>
      <path class="cls-1" d="m123.11,59.51c-1.59.71-4.95,1.33-9.11,1.33-16.8,0-23.61-13.88-23.61-29.36C90.4,9.46,103.22.18,115.68.18c4.33,0,7.25.88,8.4,1.59l-2.12,11.5c-1.33-.62-2.83-1.15-5.13-1.15-6.72,0-11.94,5.48-11.94,18.75,0,12.47,4.86,17.86,11.76,17.86,1.68,0,3.89-.35,5.31-.71l1.15,11.5Z"/>
      <path class="cls-1" d="m163.43,29.18c0,22.55-8.13,31.83-20.16,31.83-15.03,0-19.81-15.92-19.81-30.68S129.66,0,144.07,0c16.18,0,19.36,17.86,19.36,29.18Zm-25.73,1.33c0,14.06,2.56,18.66,6.01,18.66,3.71,0,5.48-7.07,5.48-19.28,0-10.26-1.41-18.04-5.57-18.04-3.36,0-5.92,5.57-5.92,18.66Z"/>
      <path class="cls-1" d="m168.65,60.31V.71h12.47l8.4,21.4c1.5,3.8,4.33,11.32,5.84,15.92h.18c-.35-4.86-1.33-16.45-1.33-27.68V.71h11.94v59.6h-12.47l-8.05-20.07c-1.86-4.6-4.6-12.47-5.66-16.89h-.18c.27,5.13.8,15.03.8,26.71v10.26h-11.94Z"/>
      <path class="cls-1" d="m213.13,46.69c2.56,1.42,6.9,2.3,10.35,2.3,5.13,0,7.43-2.3,7.43-5.31,0-3.71-2.48-5.39-7.69-8.49-9.64-5.75-11.23-12.29-11.23-16.71,0-9.81,6.37-18.3,20.16-18.3,4.07,0,7.96,1.06,9.81,2.12l-1.95,11.76c-1.77-1.06-4.33-2.03-7.78-2.03-4.6,0-6.81,2.39-6.81,5.13,0,2.56,1.24,4.24,7.96,8.05,8.22,4.6,10.96,10.88,10.96,16.98,0,11.23-8.4,18.66-20.96,18.66-5.13,0-9.9-1.15-12.03-2.3l1.77-11.85Z"/>
      <path class="cls-1" d="m262.11.71v38.2c0,7.87,2.12,10.17,4.6,10.17s4.6-1.77,4.6-10.17V.71h13.71v35.72c0,15.3-5.57,24.58-18.22,24.58-13.97,0-18.39-9.81-18.39-24.76V.71h13.71Z"/>
      <path class="cls-1" d="m292.88.71h13.71v48.01h14.59v11.58h-28.3V.71Z"/>
      <path class="cls-1" d="m327.81,13.44h-10.35V.71h34.49v12.73h-10.43v46.87h-13.71V13.44Z"/>
      <path class="cls-1" d="m363.89,48.54l-2.03,11.76h-13.26L361.23.71h16.62l10.88,59.6h-13.26l-1.95-11.76h-9.64Zm8.58-10.52l-1.5-11.32c-.44-3.36-1.24-9.82-1.77-13.53h-.18c-.62,3.71-1.5,10.34-2.03,13.53l-1.77,11.32h7.25Z"/>
      <path class="cls-3" d="m115.89,102.34h-11.24v11.62h12.61v10.24h-24.46v-51.51h23.62v10.24h-11.77v9.63h11.24v9.78Z"/>
      <path class="cls-3" d="m122.76,72.68h11.85v41.5h12.61v10.01h-24.46v-51.51Z"/>
      <path class="cls-3" d="m162.12,73.45c3.44-.61,7.8-.99,12-.99,5.66,0,11.08.69,14.67,3.9,3.36,2.98,4.28,6.42,4.28,11.01,0,5.04-2.52,10.24-7.8,12.69v.15c3.36,1.53,5.04,4.59,5.96,9.63.92,5.12,2.45,12.38,3.44,14.37h-12.38c-.61-1.38-1.83-6.73-2.52-12.15-.76-6.11-2.14-7.57-4.74-7.57h-1.15v19.72h-11.77v-50.75Zm11.77,21.94h1.53c3.82,0,5.73-3.29,5.73-7.03s-1.45-6.57-5.12-6.73c-.76,0-1.68.08-2.14.31v13.45Z"/>
      <path class="cls-3" d="m221.66,102.34h-11.24v11.62h12.61v10.24h-24.46v-51.51h23.62v10.24h-11.77v9.63h11.24v9.78Z"/>
      <path class="cls-3" d="m228.53,73.45c3.06-.61,7.26-.99,11.31-.99,6.5,0,11.46.76,15.13,4.05,3.29,2.83,4.66,7.26,4.66,11.54,0,5.96-1.91,10.24-4.89,13.22-3.36,3.21-8.71,4.59-12.69,4.59h-1.76v18.34h-11.77v-50.75Zm11.77,22.85c.46.08.92.08,1.38.08,4.74,0,6.27-3.52,6.27-7.26,0-4.13-1.68-7.18-5.5-7.18-.76,0-1.6.15-2.14.38v13.99Z"/>
      <path class="cls-3" d="m295.71,97.3c0,19.49-7.03,27.51-17.43,27.51-12.99,0-17.12-13.76-17.12-26.52s5.35-26.22,17.81-26.22c13.99,0,16.74,15.44,16.74,25.22Zm-22.24,1.15c0,12.15,2.22,16.13,5.2,16.13,3.21,0,4.74-6.12,4.74-16.66,0-8.87-1.22-15.59-4.81-15.59-2.9,0-5.12,4.82-5.12,16.13Z"/>
      <path class="cls-3" d="m300.21,73.45c3.44-.61,7.8-.99,12-.99,5.66,0,11.08.69,14.67,3.9,3.36,2.98,4.28,6.42,4.28,11.01,0,5.04-2.52,10.24-7.8,12.69v.15c3.36,1.53,5.04,4.59,5.96,9.63.92,5.12,2.45,12.38,3.44,14.37h-12.38c-.61-1.38-1.83-6.73-2.52-12.15-.76-6.11-2.14-7.57-4.74-7.57h-1.15v19.72h-11.77v-50.75Zm11.77,21.94h1.53c3.82,0,5.73-3.29,5.73-7.03s-1.45-6.57-5.12-6.73c-.76,0-1.68.08-2.14.31v13.45Z"/>
      <path class="cls-3" d="m342.02,83.69h-8.94v-11.01h29.81v11.01h-9.02v40.51h-11.85v-40.51Z"/>
      <path class="cls-3" d="m389.56,102.34h-11.24v11.62h12.61v10.24h-24.46v-51.51h23.62v10.24h-11.77v9.63h11.24v9.78Z"/>
    </g>
    <g>
      <path class="cls-2" d="m40.58,19.67C18.17,19.67,0,37.84,0,60.25s18.17,40.58,40.58,40.58,40.58-18.17,40.58-40.58S63,19.67,40.58,19.67Zm0,76.46c-19.81,0-35.87-16.06-35.87-35.87S20.77,24.38,40.58,24.38s35.87,16.06,35.87,35.87-16.06,35.87-35.87,35.87Z"/>
      <g id="ocjru3">
        <g>
          <path class="cls-2" d="m63.95,61.82c0,5.79,0,11.57,0,17.36,0,2.73,0,5.47,0,8.2,0,2.29-1.77,4.07-4.06,4.07-12.05,0-24.1,0-36.14,0-.52,0-1.03,0-1.55,0-2.26,0-4.04-1.79-4.04-4.04,0-6.44,0-12.88,0-19.32,0-4.86,0-9.72,0-14.58,0-4.95,0-9.9,0-14.85,0-.76,0-1.52,0-2.28,0-2.28,1.79-4.06,4.07-4.06,2.21,0,4.42,0,6.63,0,.36,0,.36,0,.36.37,0,.58,0,1.16,0,1.74,0,.23-.07.31-.31.31-2.19,0-4.39.02-6.58-.02-.92-.02-1.77.69-1.77,1.76.02,9.26.01,18.53.01,27.79,0,5.93,0,11.85,0,17.78,0,1.74.03,3.49,0,5.23-.02.99.75,1.77,1.77,1.76,12.47-.01,24.95-.01,37.42,0,.96,0,1.6-.62,1.74-1.31.04-.21.03-.42.03-.64,0-6.4,0-12.8,0-19.2,0-9.83,0-19.66,0-29.49,0-.7,0-1.39,0-2.09-.01-.88-.72-1.58-1.61-1.58-2.22,0-4.44,0-6.65,0-.38,0-.38,0-.38-.38,0-.59,0-1.18,0-1.77,0-.2.06-.28.27-.28,2.31,0,4.62-.01,6.92,0,1.79.01,3.44,1.42,3.79,3.18.07.36.08.71.08,1.07,0,4.39,0,8.77,0,13.16,0,4.03,0,8.07,0,12.1Z"/>
          <path class="cls-2" d="m41.05,37.08c-3.4,0-6.81,0-10.21,0q-.4,0-.4-.41c0-2.04,0-4.08,0-6.11q0-.42.43-.42c1.29,0,2.59,0,3.88,0,.19,0,.28-.06.3-.26.13-1.43.89-2.49,2.04-3.28,1.43-.99,3.03-1.31,4.74-1.14,1.34.13,2.55.58,3.59,1.44.93.77,1.53,1.74,1.65,2.96.02.22.11.28.33.28,1.3,0,2.6,0,3.9,0q.39,0,.39.4c0,2.05,0,4.09,0,6.14q0,.41-.4.41c-3.41,0-6.83,0-10.24,0Zm1.48-9.35c0-.83-.64-1.49-1.46-1.5-.8,0-1.47.65-1.48,1.45,0,.82.62,1.48,1.43,1.49.83.02,1.5-.62,1.5-1.44Z"/>
          <path class="cls-2" d="m38.91,74.25c-.1,2.16-1.12,4.1-3.25,5.37-2.12,1.26-4.31,1.27-6.51.17-.33-.16-.33-.17-.14-.49,1.05-1.75,2.09-3.49,3.14-5.24.07-.11.15-.19.26-.25,1.81-.99,3.63-1.99,5.44-2.99.18-.1.25-.05.34.12.47.95.72,1.94.72,3.3Z"/>
          <path class="cls-2" d="m41.06,45.58c-5.33,0-10.65,0-15.98,0-.22,0-.29-.07-.28-.28.01-.33,0-.67,0-1.01,0-.17.06-.26.24-.25.08,0,.16,0,.25,0,2.86,0,5.73,0,8.59,0,4.07,0,8.13,0,12.2,0,3.61,0,7.22,0,10.82,0q.42,0,.42.42c0,.29,0,.57,0,.86,0,.2-.06.26-.27.26-3.13,0-6.25,0-9.38,0-2.21,0-4.42,0-6.63,0Z"/>
          <path class="cls-2" d="m41.05,42.58c-5.34,0-10.67,0-16.01,0-.19,0-.26-.03-.25-.24.02-.31,0-.62,0-.93,0-.33,0-.33.33-.33,1.79,0,3.58,0,5.38,0,8.81,0,17.61,0,26.42,0q.4,0,.4.4c0,.29-.01.59,0,.88,0,.18-.05.22-.22.22-1.25,0-2.5,0-3.76,0-4.1,0-8.2,0-12.3,0Z"/>
          <path class="cls-2" d="m54.23,57.33c.02-1.06-.03-2.4.02-3.73,0-.18-.01-.36-.02-.54,0-.15.06-.23.22-.23.88,0,1.77,0,2.65,0,.24,0,.23.16.23.32,0,1.69,0,3.37,0,5.06,0,1.28,0,2.57,0,3.85,0,.32-.02.34-.33.34-.82,0-1.64,0-2.45,0-.24,0-.31-.08-.31-.32,0-1.5,0-2.99,0-4.76Z"/>
          <path class="cls-2" d="m49.02,71.97c2.68,0,5.35,0,8.03,0,.22,0,.29.07.28.28-.01.34,0,.69,0,1.03,0,.17-.07.24-.23.24-.07,0-.13,0-.2,0-5.28,0-10.55,0-15.83,0q-.4,0-.4-.41c0-.29.01-.57,0-.86-.01-.25.11-.28.31-.28,1.97,0,3.94,0,5.92,0,.71,0,1.42,0,2.14,0Z"/>
          <path class="cls-2" d="m49.02,78.16c2.65,0,5.3,0,7.95,0,.35,0,.35,0,.35.36,0,.31,0,.62,0,.93,0,.18-.07.25-.25.24-.07,0-.13,0-.2,0-5.26,0-10.52,0-15.78,0-.08,0-.16,0-.25,0-.13,0-.19-.07-.19-.2,0-.38,0-.75,0-1.13,0-.21.14-.2.28-.2,1.34,0,2.68,0,4.03,0,1.35,0,2.7,0,4.05,0Z"/>
          <path class="cls-2" d="m48.99,74.97c2.68,0,5.37,0,8.05,0,.24,0,.29.08.28.3-.01.3,0,.61,0,.91,0,.32-.02.34-.33.34-1.1,0-2.19,0-3.29,0-4.21,0-8.41,0-12.62,0-.43,0-.43,0-.43-.44,0-.29,0-.57,0-.86,0-.19.07-.25.26-.25,2.69,0,5.38,0,8.08,0Z"/>
          <path class="cls-2" d="m48.99,68.78c2.66,0,5.32,0,7.98,0,.35,0,.35,0,.35.36,0,.32,0,.64,0,.96,0,.16-.06.23-.22.22-.06,0-.11,0-.17,0-5.31,0-10.62,0-15.93,0-.33,0-.34,0-.34-.35,0-.3,0-.61,0-.91,0-.21.07-.29.28-.29,1.47,0,2.95,0,4.42,0,1.21,0,2.42,0,3.63,0h0Z"/>
          <path class="cls-2" d="m48.97,67.33c-2.65,0-5.3,0-7.95,0q-.35,0-.35-.36c0-.32,0-.64,0-.96,0-.15.06-.23.22-.22.12,0,.25,0,.37,0,5.22,0,10.44,0,15.66,0q.42,0,.42.42c0,.27-.01.54,0,.81.01.23-.07.31-.31.31-.98-.01-1.96,0-2.95,0-1.7,0-3.4,0-5.11,0Z"/>
          <path class="cls-2" d="m49.01,82.66c-2.7,0-5.4,0-8.1,0-.2,0-.26-.06-.25-.25.01-.36,0-.72,0-1.08,0-.14.04-.19.2-.19,1.87,0,3.73,0,5.6,0,3.54,0,7.08,0,10.63,0,.18,0,.25.06.24.24,0,.35-.01.7,0,1.06,0,.17-.04.22-.22.22-.91,0-1.82,0-2.72,0-1.79,0-3.58,0-5.37,0Z"/>
          <path class="cls-2" d="m32.56,69.58c0-1.02,0-2.04,0-3.07,0-.2.05-.28.27-.27,1.43.09,2.74.53,3.87,1.42.66.52,1.21,1.15,1.63,1.88.07.13.06.2-.07.27-1.2.66-2.41,1.32-3.61,1.98-.61.33-1.22.67-1.83,1-.24.13-.26.12-.26-.15,0-1.02,0-2.04,0-3.07Z"/>
          <path class="cls-2" d="m31.84,47.24c2.03,0,4.06,0,6.09,0,.24,0,.49.01.73,0,.19,0,.26.07.25.26-.01.33-.01.67,0,1.01,0,.21-.08.29-.29.29-.77,0-1.54,0-2.3,0-1.68,0-3.35,0-5.03,0-2.04,0-4.07,0-6.11,0-.38,0-.38,0-.38-.38,0-.3,0-.61,0-.91,0-.2.07-.28.27-.28.38,0,.75,0,1.13,0,1.45,0,2.9,0,4.34,0,.43,0,.87,0,1.3,0Z"/>
          <path class="cls-2" d="m31.85,59.6c2.23,0,4.47,0,6.7,0,.36,0,.36,0,.36.35,0,.3,0,.61,0,.91,0,.21-.07.29-.29.28-1.08,0-2.16,0-3.24,0-3.4,0-6.81,0-10.21,0q-.38,0-.38-.38c0-.29.01-.57,0-.86-.01-.24.08-.31.31-.31,1.43,0,2.86,0,4.29,0,.82,0,1.64,0,2.45,0Z"/>
          <path class="cls-2" d="m31.86,57.95c-2.23,0-4.47,0-6.7,0-.35,0-.36,0-.36-.35,0-.32,0-.64,0-.96,0-.16.07-.23.22-.22.07,0,.15,0,.22,0,4.42,0,8.83,0,13.25,0q.42,0,.42.42c0,.27-.01.54,0,.81.01.23-.07.31-.31.31-1.51,0-3.03,0-4.54,0-.74,0-1.47,0-2.21,0Z"/>
          <path class="cls-2" d="m31.84,64.14c-2.23,0-4.45,0-6.68,0-.37,0-.37,0-.37-.37,0-.28,0-.56,0-.83,0-.33,0-.33.33-.33,1.68,0,3.35,0,5.03,0,2.79,0,5.58,0,8.37,0q.38,0,.38.38c0,.29-.01.57,0,.86.01.22-.06.31-.29.3-.45-.01-.9,0-1.35,0-1.81,0-3.62,0-5.43,0Z"/>
          <path class="cls-2" d="m31.84,51.77c-2.23,0-4.45,0-6.68,0q-.36,0-.36-.35c0-.3.01-.61,0-.91-.01-.24.11-.28.32-.28,1.07,0,2.14,0,3.22,0,3.4,0,6.81,0,10.21,0q.37,0,.37.36c0,.3,0,.61,0,.91,0,.2-.08.27-.28.27-1.44,0-2.88,0-4.32,0-.83,0-1.65,0-2.48,0h0Z"/>
          <path class="cls-2" d="m51.44,54.93c-.23-.08-.52-.18-.81-.28-.98-.36-1.97-.71-2.95-1.07-.28-.11-.47-.07-.68.16-1.56,1.72-3.14,3.43-4.71,5.14-.15.16-.31.32-.45.49-.13.16-.25.18-.4.02-.11-.12-.23-.24-.36-.34-.14-.11-.12-.2,0-.32.57-.61,1.13-1.23,1.7-1.84.96-1.05,1.92-2.1,2.89-3.14.39-.42.79-.83,1.17-1.26.12-.14.23-.16.4-.1,1.28.47,2.57.92,3.85,1.39.18.07.3.05.43-.08,1.18-1.1,2.36-2.2,3.54-3.29.13-.12.26-.25.4-.36.15-.12.19-.23.02-.37-.06-.05-.15-.11-.12-.2.03-.09.13-.07.21-.09.5-.11,1.01-.22,1.51-.34.18-.04.25-.02.18.18-.17.51-.32,1.03-.48,1.55-.05.17-.11.2-.24.06-.23-.24-.23-.23-.48,0-.99.92-1.99,1.85-2.99,2.77-.44.41-.89.82-1.33,1.23-.07.07-.14.15-.31.11Z"/>
          <path class="cls-2" d="m31.86,53.45c2.23,0,4.47,0,6.7,0q.35,0,.36.35c0,.29,0,.59,0,.88,0,.2-.07.27-.27.27-.71,0-1.42,0-2.13,0-3.78,0-7.56,0-11.34,0q-.37,0-.37-.36c0-.28.01-.56,0-.83-.01-.23.08-.31.31-.31,1.71,0,3.42,0,5.13,0,.54,0,1.08,0,1.62,0Z"/>
          <path class="cls-2" d="m48.68,59.2c0,.96,0,1.93,0,2.89,0,.23-.08.32-.31.32-.83,0-1.65,0-2.48,0-.2,0-.31-.05-.3-.27,0-.11-.01-.23-.01-.34.01-1.74-.03-3.48.02-5.22.01-.56,0-.56.57-.56.74,0,1.47,0,2.21,0,.23,0,.3.07.3.3,0,.96,0,1.93,0,2.89Z"/>
          <path class="cls-2" d="m53,59.64c0,.82,0,1.64,0,2.45,0,.23-.06.32-.31.32-.83,0-1.67,0-2.5,0-.21,0-.29-.07-.29-.28.01-1.39.02-2.78.02-4.17,0-.29-.01-.59,0-.88,0-.16.05-.23.23-.23.87,0,1.73,0,2.6,0,.22,0,.26.1.26.29,0,.83,0,1.67,0,2.5h0Z"/>
          <path class="cls-2" d="m26.07,69.97s.08.05.12.08c1.7,1.2,3.4,2.39,5.1,3.59.14.1.18.18.08.34-1.05,1.74-2.1,3.49-3.15,5.24-.17.28-.18.29-.46.09-2.04-1.43-3.03-3.4-2.94-5.89.04-1.2.44-2.31,1.1-3.31.04-.05.06-.12.15-.13Zm-.61,4.08c.05,1.61.78,3.14,2.18,4.35.14.12.23.13.34-.05.82-1.39,1.65-2.78,2.49-4.17.11-.18.07-.27-.08-.38-1.33-.93-2.65-1.86-3.97-2.79-.15-.1-.23-.1-.32.07-.43.86-.64,1.76-.64,2.96Z"/>
          <path class="cls-2" d="m31.89,69.5c0,1.01,0,2.03,0,3.04,0,.08.04.18-.05.22-.09.04-.15-.05-.21-.09-1.66-1.17-3.32-2.34-4.98-3.5-.19-.13-.19-.24-.06-.4,1.12-1.43,2.58-2.28,4.38-2.55.23-.03.46-.04.68-.06.19-.02.24.06.23.24,0,1.03,0,2.06,0,3.09h0Zm-.65-.26h0c0-.66,0-1.33,0-1.99,0-.39-.05-.43-.43-.35-1.27.26-2.36.84-3.27,1.77-.15.16-.14.24.04.34.11.06.2.14.3.21,1.06.74,2.11,1.49,3.17,2.23.04.03.09.09.15.05.05-.04.03-.11.03-.16,0-.7,0-1.41,0-2.11Z"/>
          <path class="cls-2" d="m42.81,60.03c.44,0,.88,0,1.32,0,.17,0,.23.05.23.22,0,.63,0,1.26,0,1.89,0,.19-.07.27-.26.27-.86,0-1.71,0-2.57,0-.18,0-.27-.06-.27-.26,0-.64,0-1.27,0-1.91,0-.16.06-.21.22-.21.44,0,.88,0,1.32,0Z"/>
        </g>
      </g>
    </g>
  </g>
</svg>