<?xml version="1.0" encoding="UTF-8"?>
<svg id="Layer_2" data-name="Layer 2" xmlns="http://www.w3.org/2000/svg" xmlns:xlink="http://www.w3.org/1999/xlink" viewBox="0 0 179.85 179.85">
  <defs>
    <style>
      .cls-1 {
        fill: #035129;
      }

      .cls-1, .cls-2, .cls-3, .cls-4 {
        stroke-width: 0px;
      }

      .cls-2 {
        fill: url(#radial-gradient-2);
      }

      .cls-3 {
        fill: url(#radial-gradient);
      }

      .cls-4 {
        fill: #22726e;
      }
    </style>
    <radialGradient id="radial-gradient" cx="89.92" cy="89.92" fx="136.61" fy="28.11" r="89.92" gradientUnits="userSpaceOnUse">
      <stop offset="0" stop-color="#cbd327"/>
      <stop offset=".41" stop-color="#c9d126"/>
      <stop offset=".56" stop-color="#c2cb26"/>
      <stop offset=".67" stop-color="#b6c226"/>
      <stop offset=".75" stop-color="#a5b425"/>
      <stop offset=".82" stop-color="#8fa224"/>
      <stop offset=".89" stop-color="#748c23"/>
      <stop offset=".95" stop-color="#557222"/>
      <stop offset="1" stop-color="#305421"/>
      <stop offset="1" stop-color="#2f5321"/>
    </radialGradient>
    <radialGradient id="radial-gradient-2" cx="89.92" cy="89.92" fx="89.92" fy="89.92" r="75.99" gradientUnits="userSpaceOnUse">
      <stop offset="0" stop-color="#fff"/>
      <stop offset=".43" stop-color="#fdfdfd"/>
      <stop offset=".59" stop-color="#f6f6f6"/>
      <stop offset=".7" stop-color="#eaeaeb"/>
      <stop offset=".79" stop-color="#d9dadb"/>
      <stop offset=".87" stop-color="#c3c4c6"/>
      <stop offset=".94" stop-color="#a9aaac"/>
      <stop offset="1" stop-color="#898b8e"/>
      <stop offset="1" stop-color="#87898c"/>
    </radialGradient>
  </defs>
  <g id="Layer_1-2" data-name="Layer 1">
    <g>
      <circle class="cls-3" cx="89.92" cy="89.92" r="89.92"/>
      <circle class="cls-1" cx="89.92" cy="89.92" r="79.69"/>
      <circle class="cls-2" cx="89.92" cy="89.92" r="75.99"/>
    </g>
    <g id="L0HeST">
      <g>
        <path class="cls-4" d="m98.04,146.43c-7.22-.07-13.75-2.64-19.55-7.22-2.36-1.86-4.48-3.98-6.37-6.33-.32-.4-.59-.4-1.01-.15-4.07,2.42-8.14,4.81-12.22,7.22-.2.12-.4.24-.61.34-1.22.55-2.57-.12-2.85-1.43-.19-.88-.11-1.77-.08-2.65.16-4.84.04-9.67.09-14.51,0-.32,0-.63,0-.95.06-1.71,1.68-2.64,3.15-1.76,4.25,2.53,8.48,5.07,12.7,7.65.51.31.77.26,1.13-.18,1.28-1.57,2.59-3.12,3.9-4.66,2.1-2.46,4.65-4.35,7.47-5.89,4.2-2.31,8.7-3.59,13.51-3.59,4.88,0,9.43,1.32,13.67,3.7,5.78,3.24,10.27,7.85,13.91,13.32.61.92.62,1.74-.02,2.58-3.63,4.77-7.98,8.71-13.39,11.39-4.15,2.06-8.56,3.1-13.43,3.13Zm12.25-19.39c-.05-.32-.17-.6-.48-.77-.35-.19-.7-.16-1.01.09-.59.48-1.18.96-1.74,1.47-.33.3-.57.33-.91.02-.43-.4-.9-.77-1.36-1.13-.56-.44-1.1-.41-1.45.05-.34.44-.23.94.28,1.37.37.31.74.63,1.12.93.32.25.37.45,0,.73-.44.33-.85.7-1.25,1.07-.51.48-.58.98-.22,1.39.35.41.96.4,1.47-.03.48-.41.96-.82,1.43-1.25.3-.27.54-.32.87-.01.48.45,1,.85,1.5,1.26.5.41,1.08.44,1.42.06.37-.4.29-1.01-.2-1.45-.39-.35-.8-.7-1.22-1.01-.43-.31-.4-.57,0-.88.43-.34.84-.71,1.26-1.05.27-.23.45-.5.47-.87Z"/>
        <path class="cls-4" d="m84.48,64.58c-.26.07-.41-.12-.59-.21-3.54-1.93-7.82-1.37-10.74,1.41-.8.76-1.51,1.6-2.22,2.43-.26.3-.53.61-.83.87-.61.52-1.29.49-1.88-.05-.66-.6-1.21-1.3-1.77-1.98-2.98-3.64-7.32-4.78-11.41-2.95-1.55.69-2.77,1.84-3.85,3.13-.63.75-.65.73-.96-.18-2.25-6.62-4.5-13.23-6.76-19.85-.26-.77-.42-1.54-.19-2.36.23-.83.7-1.43,1.53-1.73.56-.2,1.11-.42,1.66-.62,1.84-.67,3.25-.02,3.9,1.84.82,2.35,1.64,4.71,2.42,7.07.19.58.42.7.99.49,5.47-2.01,10.95-3.99,16.43-5.96.56-.2.69-.43.48-1.01-.8-2.22-1.54-4.47-2.32-6.7-.23-.65-.33-1.31-.26-1.99.12-1.04.6-1.83,1.65-2.18.38-.13.75-.28,1.13-.42,1.71-.6,3.1.05,3.73,1.76.3.81.58,1.63.86,2.45,2.28,6.67,4.56,13.35,6.84,20.02.69,2.04,1.37,4.08,2.05,6.13.06.19.18.38.11.6Zm-12.06-13.42c0-.17,0-.34,0-.51-.06-1.1-.13-1.15-1.13-.79-3.87,1.4-7.73,2.81-11.6,4.21-1.59.58-3.17,1.16-4.76,1.74-.26.1-.55.17-.37.57.77,1.74,2.97,3.58,5.41,2.63,3.08-1.2,6.22-2.28,9.34-3.4,2.15-.77,3.12-2.13,3.11-4.45Z"/>
        <path class="cls-4" d="m130.94,75.34c-2.62.06-4.52-1.28-6.13-3.17-.6-.71-1.18-1.44-1.86-2.08-1.32-1.23-3.2-1.24-4.52-.01-.61.56-1.11,1.21-1.64,1.84-1.28,1.5-2.69,2.84-4.7,3.25-3.01.62-5.49-.33-7.51-2.59-.55-.61-1.05-1.27-1.6-1.88-.65-.73-1.37-1.37-2.42-1.49-1.31-.14-2.34.35-3.19,1.32-.95,1.08-1.8,2.24-2.92,3.16-2.89,2.35-6.95,2.22-9.67-.32-.7-.65-1.3-1.39-1.92-2.1-.37-.43-.75-.86-1.17-1.24-1.25-1.15-3.12-1.14-4.38,0-.63.57-1.15,1.24-1.69,1.88-1.34,1.59-2.84,2.96-5.01,3.33-2.77.47-5.08-.38-6.98-2.41-.63-.68-1.21-1.41-1.82-2.11-.71-.8-1.49-1.47-2.66-1.52-1.2-.05-2.11.42-2.89,1.28-.98,1.08-1.81,2.28-2.96,3.2-2.98,2.39-6.98,2.23-9.77-.39-.87-.81-1.57-1.77-2.36-2.64-.78-.86-1.64-1.44-2.88-1.5-1.34-.07-2.08-1.05-1.95-2.31.12-1.13,1.14-1.83,2.45-1.76,2.7.15,4.56,1.68,6.16,3.67.4.49.8.99,1.25,1.43,1.59,1.55,3.64,1.44,5.12-.22,1.01-1.13,1.88-2.39,3.11-3.32,3.04-2.3,6.96-2.06,9.71.6.88.85,1.65,1.82,2.44,2.74,1.52,1.78,3.93,1.64,5.35-.04.72-.85,1.43-1.72,2.22-2.52,3.3-3.29,8.06-3.13,11.13.38.56.64,1.1,1.28,1.66,1.92.79.9,1.68,1.58,2.98,1.53.83-.03,1.52-.3,2.11-.86.69-.65,1.29-1.39,1.91-2.12,1.24-1.46,2.67-2.67,4.62-3.03,2.55-.47,4.81.12,6.72,1.94,1,.95,1.78,2.08,2.76,3.05.7.69,1.5,1.04,2.5,1.01.96-.03,1.71-.43,2.35-1.08.98-.99,1.78-2.15,2.82-3.09,1.28-1.16,2.74-1.85,4.49-1.97,2.57-.18,4.6.84,6.28,2.68.63.68,1.23,1.4,1.82,2.11,1.48,1.79,3.93,1.83,5.49,0,.94-1.11,1.82-2.27,2.97-3.2,1.29-1.03,2.75-1.55,4.37-1.62,1.19-.05,2.14.73,2.24,1.79.11,1.2-.56,2.21-1.78,2.25-1.69.06-2.68,1.07-3.65,2.21-.69.82-1.37,1.66-2.22,2.34-1.39,1.11-2.94,1.73-4.73,1.67Z"/>
        <path class="cls-4" d="m130.79,108.41c-2.2.03-4.1-1.07-5.68-2.84-.56-.63-1.1-1.28-1.65-1.93-1.63-1.91-3.82-1.92-5.51-.05-1.01,1.11-1.87,2.35-3.08,3.27-2.93,2.25-6.89,2.05-9.57-.49-.77-.73-1.44-1.55-2.13-2.35-.66-.77-1.34-1.52-2.42-1.73-1.15-.21-2.16.03-2.97.86-.82.85-1.57,1.77-2.37,2.63-3.36,3.63-8.38,3.49-11.57-.28-.75-.88-1.41-1.85-2.34-2.57-1.32-1.03-2.97-.97-4.22.15-.73.65-1.32,1.42-1.95,2.17-1.99,2.37-4.44,3.59-7.6,3.02-2.1-.38-3.59-1.7-4.91-3.26-.53-.63-1.04-1.28-1.64-1.85-1.29-1.22-3.05-1.29-4.43-.16-.61.5-1.07,1.14-1.58,1.73-1.08,1.25-2.19,2.47-3.77,3.12-2.98,1.24-6.36.4-8.56-2.14-.57-.65-1.13-1.31-1.69-1.98-.77-.91-1.69-1.49-2.93-1.55-1.22-.05-1.99-.92-1.96-2.11.03-1.09.92-1.97,2.08-1.96,1.92.02,3.58.71,4.99,2.02.67.62,1.24,1.32,1.83,2.01.4.46.81.92,1.26,1.34,1.2,1.11,3.05,1.12,4.28.03.7-.62,1.27-1.35,1.87-2.07,1.6-1.93,3.52-3.29,6.14-3.34,1.94-.04,3.65.61,5.08,1.93.81.74,1.51,1.59,2.22,2.43.81.97,1.68,1.83,3.1,1.85,1.24.01,2.11-.6,2.88-1.47.87-.98,1.63-2.06,2.64-2.9,3.16-2.61,7.22-2.45,10.13.44.84.83,1.56,1.78,2.38,2.63,1.72,1.79,3.55,1.77,5.27-.01.82-.85,1.51-1.82,2.36-2.65,3.07-3,7.41-3.03,10.5-.04.7.68,1.32,1.43,1.94,2.17.82.97,1.69,1.82,3.11,1.83,1.21,0,2.07-.6,2.83-1.45.9-1,1.68-2.12,2.74-2.98,3.11-2.52,7.11-2.35,10,.42.86.82,1.55,1.79,2.36,2.65,1.71,1.82,3.63,1.85,5.37.03.79-.82,1.5-1.72,2.29-2.54,1.3-1.37,2.91-2.13,4.8-2.32,1.5-.15,2.61.73,2.59,2.08-.02,1.07-.76,1.94-1.83,1.97-1.39.04-2.38.72-3.23,1.74-.77.92-1.51,1.87-2.43,2.66-1.39,1.19-2.97,1.83-5.04,1.83Z"/>
        <path class="cls-4" d="m89.31,79.28c0,2.45-1.52,4.67-3.85,5.52-6.78,2.47-13.59,4.89-20.35,7.41-3.23,1.21-6.5-.49-7.55-3.65-1.31-3.97-2.68-7.92-4.05-11.87-.19-.54-.16-.85.36-1.19,1.38-.89,2.38-2.2,3.43-3.44.16-.19.33-.39.51-.56.74-.66,1.49-.67,2.18.05.82.85,1.56,1.78,2.37,2.63,2.8,2.96,6.75,3.84,10.37,2.33,1.72-.72,3.03-1.97,4.23-3.35.48-.56.95-1.14,1.47-1.66.7-.69,1.43-.68,2.11.02.76.79,1.45,1.65,2.2,2.45,1.53,1.63,3.35,2.76,5.6,3.09.27.04.47.15.57.43.2.58.4,1.16.39,1.78Z"/>
        <path class="cls-4" d="m100.17,83.71c-.01-.98.27-1.88.68-2.75.92-1.92,1.85-3.84,2.75-5.77.24-.52.43-.53.86-.17,3.64,3.08,8.81,2.9,12.29-.38.94-.89,1.7-1.93,2.59-2.86,1-1.04,1.66-1.04,2.66-.01,1.08,1.12,1.97,2.42,3.23,3.39,1,.77,1.03.81.5,1.94-1.82,3.88-3.68,7.74-5.52,11.61-.44.93-.87,1.88-1.35,2.79-1.33,2.57-4.36,3.62-6.92,2.28-3.01-1.58-5.98-3.23-8.92-4.94-1.93-1.12-2.77-2.94-2.85-5.13Z"/>
        <path class="cls-4" d="m131.13,62.39c.08,2.03-.69,3.84-1.51,5.63-.19.41-.38.18-.55-.02-.75-.85-1.47-1.74-2.33-2.49-3.58-3.12-8.92-3.02-12.35.24-.81.77-1.54,1.62-2.26,2.48-.26.3-.53.61-.84.86-.58.48-1.28.45-1.84-.05-.6-.53-1.09-1.17-1.61-1.78-.2-.23-.16-.46-.04-.7,1.5-3.1,2.93-6.23,4.51-9.29,1.05-2.04,2.83-3.36,4.92-4.29,1.75-.78,3.49-1.6,5.22-2.44.47-.23.84-.21,1.29.05,1.91,1.09,3.83,2.14,5.76,3.2.27.15.48.3.53.65.36,2.38.74,4.75,1.1,7.13.04.27,0,.55,0,.82Z"/>
        <path class="cls-4" d="m135.62,48.89c-.12-.06-.26-.11-.39-.18-3.8-2.11-7.6-4.22-11.41-6.32-.34-.19-.45-.36-.26-.74.75-1.51,1.48-3.04,2.19-4.57.2-.43.42-.49.83-.26,3.8,2.12,7.6,4.22,11.41,6.32.42.23.45.45.25.85-.73,1.47-1.44,2.96-2.16,4.44-.1.2-.14.46-.47.46Z"/>
        <path class="cls-4" d="m130.6,52.26c-.09-.04-.2-.09-.31-.15-1.92-1.06-3.83-2.13-5.77-3.17-.5-.27-.67-.53-.36-1.08.37-.64.66-1.32.96-2,.16-.36.33-.48.72-.26,1.96,1.11,3.94,2.21,5.92,3.29.43.23.52.46.29.9-.37.69-.69,1.4-1.04,2.1-.08.16-.13.37-.41.38Z"/>
      </g>
    </g>
  </g>
</svg>