<?xml version="1.0" encoding="UTF-8"?>
<svg id="Layer_2" data-name="Layer 2" xmlns="http://www.w3.org/2000/svg" viewBox="0 0 147.13 147.13">
  <defs>
    <style>
      .cls-1 {
        fill: #4c7738;
      }

      .cls-1, .cls-2, .cls-3 {
        stroke-width: 0px;
      }

      .cls-2 {
        fill: #fff;
      }

      .cls-3 {
        fill: #003c3a;
      }
    </style>
  </defs>
  <g id="Layer_1-2" data-name="Layer 1">
    <g>
      <g>
        <circle class="cls-3" cx="73.56" cy="73.56" r="73.56"/>
        <circle class="cls-2" cx="73.56" cy="73.56" r="65.44"/>
        <circle class="cls-1" cx="73.56" cy="73.56" r="59.74"/>
      </g>
      <g>
        <path class="cls-2" d="m41.29,115.11c-.96-.34-1.92-.65-2.87-1.03-1.97-.79-3.41-2.26-4.55-3.96-1.38-2.08-2-4.48-1.78-7.04.33-1.21.66-2.41,1-3.63,2.45-5.69,4.87-11.39,7.29-17.09,2.34-5.52,4.65-11.05,7-16.57,2.09-4.91,4.2-9.82,6.3-14.72.77-1.8,1.54-3.59,2.3-5.4l.23-1.14c.02-1.79,0-3.58,0-5.31-.68-.3-1.36-.51-1.95-.86-1.67-.99-1.93-3.65-.72-5.05,1.91-2.19,4.45-1.27,10.21.69,8.47-.51,15.99-.96,24.45-1.47,3.32-1.41,5.91.33,6.12,2.49.19,1.89-.85,3.68-3.12,4.01-.08.01-.15.03-.28.06,0,1.94-.12,3.89.05,5.82.08.96.68,1.87,1.06,2.8,1.8,4.29,3.61,8.57,5.43,12.85,1.66,3.89,3.35,7.77,5,11.66,2.02,4.77,4.01,9.55,6.04,14.31,1.75,4.11,3.55,8.19,5.26,12.32.56,1.37.89,2.83,1.33,4.25v1.95s-.12.06-.12.09c-.08,1.7-.65,3.26-1.54,4.68-1.13,1.81-2.58,3.34-4.6,4.19-.98.41-1.99.74-2.99,1.11H41.29Zm21.9-76.06c0,2.41.01,4.76-.01,7.1,0,.44-.08.91-.25,1.32-.89,2.17-1.83,4.33-2.75,6.5-2.27,5.35-4.54,10.7-6.81,16.06-2.16,5.08-4.32,10.17-6.49,15.25-2.26,5.3-4.54,10.59-6.8,15.89-.36.85-.76,1.72-.88,2.61-.29,2.18,1.83,4.38,4.18,4.38,20-.01,40.01-.04,60.01.03,2.96.01,5.72-2.97,3.98-6.29-1.35-2.57-2.33-5.32-3.47-8-1.34-3.16-2.68-6.33-4.02-9.49-1.15-2.7-2.3-5.4-3.45-8.1-1.28-3.02-2.54-6.04-3.82-9.05-1.15-2.7-2.32-5.39-3.47-8.09-1.33-3.14-2.64-6.29-3.99-9.41-.73-1.69-1.41-3.36-1.24-5.29.14-1.56.03-3.13.03-4.7,0-.23-.03-.46-.05-.71h-20.71Z"/>
        <g>
          <path class="cls-2" d="m92.34,88.3c.11-.07.21-.16.37-.28-1.99-.43-2.99.77-3.86,2.15-.79-.57-1.52-1.11-2.29-1.66.24-.17.42-.31.74-.53-1.25,0-2.33,0-3.42,0-.18,0-.37.1-.55.19-1.28.62-1.9,1.77-2.39,3.02-.04.09-.05.22-.01.31.45,1.17,1.01,2.25,2.14,2.92,1.31.77,2.73.05,4.07.41,0-.06.01-.11.02-.17-.19-.15-.38-.3-.59-.46.78-.56,1.51-1.09,2.28-1.64,1.38,2.01,2.44,2.58,3.84,2.06-1.2-.6-1.86-1.62-2.34-2.77-.09-.21-.17-.48-.1-.67.42-1.15,1-2.21,2.09-2.87Z"/>
          <path class="cls-2" d="m65.81,88.04c-2.05-.44-3.06.72-3.93,2.13-.77-.55-1.51-1.09-2.29-1.66.21-.15.39-.29.57-.42,0-.04-.01-.09-.02-.13-1.05,0-2.09,0-3.14,0-.19,0-.38.08-.56.16-1.34.62-2.01,1.78-2.49,3.09-.03.09-.03.22,0,.31.46,1.24,1.08,2.37,2.32,3,1.15.58,2.38.03,3.55.25.1.02.22-.04.41-.09-.26-.19-.44-.32-.66-.47.79-.57,1.53-1.11,2.28-1.65,1.53,2.08,2.45,2.58,3.86,2.06-1.19-.57-1.86-1.57-2.31-2.71-.13-.32-.13-.77,0-1.09.45-1.16,1.15-2.15,2.4-2.78Zm-9.82,2.04c.06.05.12.11.18.17-.06-.06-.12-.12-.18-.17-.06-.05-.11-.1-.17-.15h0c.06.05.11.1.17.15Z"/>
          <path class="cls-2" d="m88.83,69.61c-.74-.53-1.48-1.07-2.27-1.63.22-.17.41-.31.6-.46-.67-.1-1.33.05-1.94-.07-1.44-.27-2.53.24-3.3,1.38-1.33,1.98-1.33,1.99.02,4,.52.78,1.25,1.34,2.23,1.4.85.05,1.71.01,2.56,0,.14,0,.27-.04.5-.08-.26-.19-.44-.32-.67-.49.8-.58,1.53-1.1,2.27-1.63,1.76,2.11,2.69,2.6,3.83,2.01-1.17-.58-1.83-1.58-2.27-2.73-.12-.3-.11-.72,0-1.03.45-1.17,1.15-2.15,2.36-2.77-1.58-.4-2.25-.03-3.91,2.09Z"/>
          <path class="cls-2" d="m76.9,102.18c-.12-.32-.13-.77,0-1.09.44-1.14,1.13-2.12,2.3-2.73-1.44-.46-2.21-.04-3.86,2.05-.74-.53-1.49-1.07-2.27-1.63.21-.16.39-.29.71-.53-.6,0-1.04,0-1.47,0-.17,0-.34.07-.5.05-2.06-.28-4.03,1.16-4.38,3.21-.01.08-.02.18,0,.25.45,1.17,1.02,2.25,2.14,2.92,1.31.78,2.73.07,4.08.42,0-.06.02-.11.02-.17-.19-.15-.38-.3-.62-.48.43-.28.82-.52,1.18-.78.37-.26.71-.56,1.1-.87,1.42,2.04,2.46,2.61,3.86,2.09-1.18-.59-1.86-1.57-2.31-2.72Z"/>
          <path class="cls-2" d="m88.85,79.89c-.79-.57-1.52-1.11-2.3-1.67.24-.17.42-.3.74-.53-1.25,0-2.33,0-3.42,0-.18,0-.37.1-.55.18-1.28.62-1.9,1.77-2.39,3.02-.04.09-.05.22-.02.31.44,1.17,1.01,2.26,2.14,2.92,1.31.76,2.72.1,4.06.41,0-.05.02-.11.03-.16-.19-.15-.38-.3-.58-.46.78-.56,1.51-1.08,2.28-1.63,1.38,2,2.43,2.57,3.83,2.05-1.2-.6-1.86-1.61-2.33-2.77-.09-.22-.16-.53-.08-.73.38-1.02.9-1.96,1.81-2.63.19-.14.39-.27.66-.45-2.01-.43-3.01.76-3.88,2.14Z"/>
          <path class="cls-2" d="m79.3,88.04c-2.06-.44-3.07.73-3.93,2.12-.77-.56-1.51-1.09-2.3-1.66.22-.16.4-.29.59-.43l-.03-.16c-.6.04-1.23.21-1.8.09-1.75-.38-2.81.48-3.74,1.8-.76,1.09-.75,2.07.02,3.13.64.88,1.32,1.71,2.47,1.82.91.09,1.84.02,2.76,0,.11,0,.22-.05.39-.09-.26-.19-.44-.32-.65-.47.79-.57,1.53-1.11,2.28-1.65,1.48,2.05,2.33,2.52,3.88,2.09-1.18-.6-1.88-1.57-2.32-2.72-.13-.34-.12-.81,0-1.15.44-1.14,1.14-2.11,2.38-2.74Z"/>
          <path class="cls-2" d="m61.88,69.63c-.77-.56-1.52-1.11-2.3-1.68.24-.16.41-.28.74-.49-.81,0-1.48.08-2.13-.01-1.88-.27-4.1,1.43-4.26,3.32,0,.04,0,.09,0,.13.12,1.13,1.67,3.09,2.8,3.25,1.12.16,2.27.03,3.52.03-.28-.22-.47-.37-.66-.52.79-.57,1.53-1.1,2.28-1.64,1.38,2.01,2.42,2.57,3.85,2.06-1.2-.57-1.86-1.57-2.31-2.71-.13-.32-.12-.77,0-1.09.45-1.16,1.15-2.15,2.41-2.78-2.05-.45-3.07.71-3.95,2.13Z"/>
          <path class="cls-2" d="m61.87,79.9c-.78-.57-1.52-1.1-2.29-1.67.22-.15.39-.28.72-.51-1.28,0-2.4,0-3.52,0-.14,0-.29.09-.42.16-1.27.63-1.92,1.76-2.39,3.02-.03.09-.05.22-.02.31.42,1.18,1.01,2.26,2.13,2.92,1.3.77,2.72.09,4.06.41.01-.05.02-.11.03-.16-.19-.15-.38-.31-.6-.48.43-.28.82-.51,1.19-.78.38-.27.73-.57,1.1-.86,1.42,2.03,2.35,2.54,3.9,2.1-1.22-.59-1.9-1.6-2.36-2.77-.12-.3-.11-.73,0-1.03.46-1.16,1.14-2.17,2.42-2.8-2.06-.46-3.07.72-3.95,2.12Z"/>
          <path class="cls-2" d="m69.58,63.61c1.27.72,2.65.18,3.98.32.02,0,.05-.06.08-.1-.18-.14-.36-.28-.55-.43.78-.56,1.53-1.1,2.27-1.64,1.14,1.86,2.35,2.58,3.83,2.05-1.13-.57-1.76-1.52-2.27-2.6-.21-.45-.23-.84-.01-1.29.52-1.09,1.16-2.06,2.32-2.65-1.5-.46-2.42.04-3.87,2.08-.75-.55-1.51-1.09-2.28-1.66.24-.18.42-.31.73-.53-1.24,0-2.33,0-3.41,0-.18,0-.38.1-.55.18-1.27.63-1.91,1.77-2.39,3.02-.04.09-.05.22-.01.31.44,1.17,1.01,2.26,2.14,2.91Z"/>
          <path class="cls-2" d="m70.22,74.14c1.12.16,2.28.03,3.52.03-.27-.22-.46-.37-.66-.52.79-.57,1.54-1.1,2.28-1.64,1.37,1.99,2.56,2.63,3.8,2.04-1.17-.58-1.83-1.58-2.28-2.73-.12-.3-.11-.73,0-1.03.45-1.16,1.15-2.16,2.41-2.8-2.05-.44-3.06.72-3.92,2.12-.74-.52-1.47-1.02-2.19-1.53-.03-.02-.04-.07-.08-.14.18-.13.36-.26.67-.48-.8,0-1.47.08-2.11-.01-1.88-.27-4.11,1.44-4.26,3.32,0,.04,0,.09,0,.13.12,1.13,1.68,3.09,2.81,3.25Z"/>
          <path class="cls-2" d="m79.25,77.8c-1.59-.4-2.33,0-3.89,2.08-.74-.54-1.49-1.07-2.27-1.64.21-.17.4-.31.7-.56-1.2,0-2.25,0-3.29,0-.21,0-.42.09-.61.18-1.3.62-1.95,1.78-2.43,3.06-.04.09-.04.22,0,.31.46,1.21,1.07,2.31,2.26,2.97,1.14.64,2.38.02,3.55.28.12.03.27-.04.47-.08-.26-.2-.44-.35-.63-.5.79-.57,1.52-1.1,2.26-1.62,1.6,2.06,2.59,2.6,3.84,2.02-1.2-.56-1.84-1.57-2.3-2.72-.12-.3-.12-.73,0-1.03.45-1.16,1.14-2.16,2.36-2.78Z"/>
        </g>
      </g>
    </g>
  </g>
</svg>