<?xml version="1.0" encoding="UTF-8"?>
<svg id="Layer_2" data-name="Layer 2" xmlns="http://www.w3.org/2000/svg" viewBox="0 0 415.96 118.08">
  <defs>
    <style>
      .cls-1 {
        fill: #669042;
      }

      .cls-1, .cls-2, .cls-3, .cls-4, .cls-5, .cls-6 {
        stroke-width: 0px;
      }

      .cls-2 {
        fill: #237570;
      }

      .cls-3 {
        fill: #64924d;
      }

      .cls-4 {
        fill: #fff;
      }

      .cls-5 {
        fill: #698f45;
      }

      .cls-6 {
        fill: #aeb521;
      }
    </style>
  </defs>
  <g id="Layer_1-2" data-name="Layer 1">
    <g>
      <g>
        <g>
          <path class="cls-6" d="m118.31,24.61c4.32,0,8.06.79,11.21,2.36,3.15,1.58,5.97,4.27,8.46,8.08h.33c-.22-4.61-.33-9.14-.33-13.57V0h5.39v85.49h-3.57l-1.37-9.12h-.44c-4.54,6.81-11.06,10.22-19.56,10.22s-14.54-2.56-18.9-7.69c-4.36-5.13-6.54-12.6-6.54-22.42,0-10.33,2.16-18.22,6.48-23.68,4.32-5.46,10.6-8.19,18.84-8.19Zm0,4.95c-6.52,0-11.42,2.29-14.7,6.87-3.28,4.58-4.92,11.23-4.92,19.94,0,16.92,6.57,25.38,19.72,25.38,6.74,0,11.68-1.96,14.83-5.88,3.15-3.92,4.73-10.38,4.73-19.4v-.93c0-9.23-1.55-15.87-4.64-19.92-3.09-4.05-8.1-6.07-15.03-6.07Z"/>
          <path class="cls-6" d="m190.68,85.49l-1.37-9.45h-.44c-3,3.85-6.09,6.57-9.26,8.16-3.17,1.59-6.91,2.39-11.23,2.39-5.86,0-10.42-1.5-13.68-4.51-3.26-3-4.89-7.16-4.89-12.47,0-5.83,2.42-10.35,7.28-13.57,4.85-3.22,11.88-4.93,21.07-5.11l11.37-.33v-3.96c0-5.68-1.15-9.96-3.46-12.86-2.31-2.89-6.03-4.34-11.15-4.34-5.53,0-11.26,1.54-17.2,4.61l-2.03-4.72c6.56-3.08,13.04-4.61,19.45-4.61s11.46,1.7,14.7,5.11,4.86,8.72,4.86,15.93v39.73h-4.01Zm-21.98-3.85c6.37,0,11.4-1.82,15.08-5.47,3.68-3.64,5.52-8.71,5.52-15.19v-5.88l-10.44.44c-8.39.4-14.37,1.71-17.94,3.93-3.57,2.22-5.36,5.67-5.36,10.36,0,3.74,1.14,6.64,3.43,8.71,2.29,2.07,5.52,3.1,9.7,3.1Z"/>
          <path class="cls-6" d="m220.8,81.76c3.44,0,6.45-.29,9.01-.88v4.39c-2.64.88-5.68,1.32-9.12,1.32-5.27,0-9.17-1.41-11.67-4.23-2.51-2.82-3.76-7.25-3.76-13.3V30.49h-8.85v-3.19l8.85-2.47,2.75-13.52h2.8v14.45h17.53v4.73h-17.53v37.8c0,4.58.8,7.97,2.42,10.16,1.61,2.2,4.14,3.3,7.58,3.3Z"/>
          <path class="cls-6" d="m269.98,85.49l-1.37-9.45h-.44c-3,3.85-6.09,6.57-9.26,8.16-3.17,1.59-6.91,2.39-11.23,2.39-5.86,0-10.42-1.5-13.68-4.51-3.26-3-4.89-7.16-4.89-12.47,0-5.83,2.42-10.35,7.28-13.57,4.85-3.22,11.88-4.93,21.07-5.11l11.37-.33v-3.96c0-5.68-1.15-9.96-3.46-12.86-2.31-2.89-6.03-4.34-11.15-4.34-5.53,0-11.26,1.54-17.2,4.61l-2.03-4.72c6.56-3.08,13.04-4.61,19.45-4.61s11.46,1.7,14.7,5.11c3.24,3.41,4.86,8.72,4.86,15.93v39.73h-4.01Zm-21.98-3.85c6.37,0,11.4-1.82,15.08-5.47,3.68-3.64,5.52-8.71,5.52-15.19v-5.88l-10.44.44c-8.39.4-14.37,1.71-17.94,3.93-3.57,2.22-5.36,5.67-5.36,10.36,0,3.74,1.14,6.64,3.43,8.71,2.29,2.07,5.52,3.1,9.7,3.1Z"/>
        </g>
        <g>
          <path class="cls-3" d="m330.89,6.25h17.2l-27.31,80.33h-18.57l-27.25-80.33h17.2l15.11,47.8c.84,2.82,1.71,6.11,2.61,9.86.9,3.76,1.46,6.37,1.68,7.83.4-3.37,1.77-9.27,4.12-17.69l15.22-47.8Z"/>
          <path class="cls-3" d="m347.16,9.27c0-5.46,3.04-8.18,9.12-8.18s9.12,2.73,9.12,8.18c0,2.6-.76,4.63-2.28,6.07-1.52,1.45-3.8,2.17-6.84,2.17-6.08,0-9.12-2.75-9.12-8.24Zm17.47,77.31h-16.76V25.15h16.76v61.43Z"/>
          <path class="cls-3" d="m415.96,86.58h-48.52v-9.89l28.46-38.73h-26.76v-12.8h45.82v10.88l-27.69,37.75h28.68v12.8Z"/>
        </g>
        <g>
          <circle class="cls-1" cx="40.58" cy="46" r="40.58"/>
          <g>
            <path class="cls-4" d="m47.57,59.46c.59.94,1.29.98,1.92.09,1.4-1.97,2.79-3.95,4.18-5.93.5-.71.49-1.26,0-1.63-.51-.38-1.01-.22-1.53.51-1.16,1.63-2.32,3.26-3.54,4.98-.27-.42-.45-.73-.66-1.02-.34-.47-.77-.72-1.32-.37-.55.35-.61.85-.28,1.4.4.66.81,1.31,1.22,1.97Z"/>
            <path class="cls-4" d="m72.85,32.42c-.07,9.08-.04,18.16-.03,27.23,1.78-4.2,2.77-8.81,2.77-13.66s-.97-9.4-2.73-13.58Z"/>
            <path class="cls-4" d="m59.19,59.38c.66,1.06,1.33,1.07,2.06.04.75-1.05,1.48-2.1,2.23-3.15.68-.97,1.37-1.93,2.04-2.91.35-.5.31-.99-.18-1.36-.5-.38-.97-.23-1.34.24-.13.16-.24.33-.36.5-1.1,1.55-2.2,3.1-3.35,4.73-.27-.41-.46-.71-.66-1.01-.33-.49-.76-.72-1.31-.38-.55.34-.64.83-.29,1.39.39.63.77,1.27,1.17,1.91Z"/>
            <path class="cls-4" d="m69.98,31.66H10.55v30.17h59.43v-30.17Zm-55.58,9.36c2.3-2.62,4.61-5.22,6.93-7.82.52-.58,1.06-.59,1.69-.05,2.92,2.5,5.83,5.01,8.74,7.52.45.38.89.78,1.39,1.22,1.02-1.08,1.98-2.08,2.93-3.08-.35-.17-.75-.24-.91-.47-.2-.28-.35-.76-.24-1.03.13-.32.55-.69.88-.71,1-.09,2.01-.08,3.02-.02.66.04.96.55.96,1.19,0,.93,0,1.86,0,2.79,0,.66-.2,1.18-.94,1.29-.67.1-1.05-.25-1.22-1.08-.02-.09-.03-.18-.07-.38-1.08,1.13-2.1,2.18-3.11,3.25-1.03,1.1-1.37,1.09-2.48.11-3.18-2.82-6.39-5.62-9.64-8.47-1.67,1.89-3.27,3.7-4.88,5.51-.48.54-.95,1.09-1.43,1.63-.5.55-1.08.64-1.57.25-.51-.41-.57-1.04-.06-1.63Zm3.84,17.85c0,1.12-.62,1.81-1.58,1.81-.95,0-1.53-.69-1.53-1.83,0-1.83,0-3.67,0-5.5,0-1.81,0-3.62,0-5.43,0-1.17.55-1.79,1.56-1.78.99,0,1.55.63,1.55,1.81,0,3.64,0,7.29,0,10.93Zm5.47.22c0,1.22-1.13,1.95-2.2,1.44-.7-.33-.86-.95-.86-1.68.01-4.54,0-9.09,0-13.63,0-.75,0-1.5,0-2.25.02-1,.66-1.66,1.56-1.64.88.02,1.48.67,1.48,1.64.01,2.69,0,5.37,0,8.06,0,2.69.01,5.37,0,8.06Zm5.55-.24c0,1.13-.61,1.83-1.56,1.82-.97,0-1.55-.68-1.55-1.81,0-2.3,0-4.6,0-6.9,0-2.25,0-4.49,0-6.74,0-1.1.63-1.84,1.54-1.84.91,0,1.56.74,1.57,1.83,0,4.55,0,9.09,0,13.64Zm5.46.31c-.02.89-.58,1.47-1.42,1.52-.87.05-1.58-.52-1.6-1.42-.04-2.19-.04-4.38,0-6.57.01-.84.73-1.44,1.54-1.42.83.02,1.45.61,1.47,1.48.03,1.08,0,2.17,0,3.25h0c0,1.06.02,2.11,0,3.17Zm5.56-.3c0,1.13-.6,1.81-1.56,1.81-.96,0-1.55-.68-1.55-1.82,0-4.55,0-9.09,0-13.64,0-1.09.65-1.84,1.56-1.83.91,0,1.55.75,1.55,1.84,0,2.27,0,4.55,0,6.82,0,2.27,0,4.55,0,6.82Zm6.23-25.56c4.55,0,9.09,0,13.64,0,1.07,0,1.83.67,1.83,1.58,0,.94-.7,1.52-1.85,1.52-2.27,0-4.55,0-6.82,0-2.27,0-4.55,0-6.82,0-1.15,0-1.81-.58-1.8-1.55,0-.97.67-1.55,1.82-1.55Zm15.46,6.89c-.02.92-.66,1.49-1.71,1.49-2.3,0-4.6,0-6.89,0-2.32,0-4.65,0-6.97,0-1.07,0-1.67-.52-1.7-1.47-.03-.98.58-1.59,1.67-1.6,4.65-.01,9.3-.01,13.94,0,.97,0,1.68.7,1.66,1.57Zm-17.28,5.35c-.04-.85.49-1.5,1.34-1.6.28-.03.57-.03.85-.03,3.07,0,6.15,0,9.22,0,1.47,0,2.95-.03,4.41.03,1.24.05,1.85,1.34,1.18,2.38-.35.54-.87.67-1.47.66-2.3,0-4.6,0-6.89,0h0c-2.4-.01-4.8,0-7.2-.02-.85,0-1.39-.6-1.43-1.42Zm10.12,15.13h-9.37v-9.37h9.37v9.37Zm11.64.03h-9.36v-9.4h9.36v9.4Z"/>
            <path class="cls-4" d="m66.95,68.1c-2.83,0-5.65.05-8.48.04-3.68,0-7.36-.06-11.04-.07-2.01,0-4.02.07-6.02.07-1.98,0-3.96-.06-5.94-.06-3.14,0-6.28.05-9.41.05-2.52,0-5.03-.05-7.55-.07-1.68,0-3.37.03-5.05.01,4.19,5.15,9.82,9.06,16.28,11.17v-8.87h21.14v9.07c6.72-2.06,12.58-6.1,16.9-11.43-.27.03-.53.07-.81.07Z"/>
            <path class="cls-4" d="m13.52,25.19c8.91,0,17.83,0,26.74,0,8.84,0,17.67.07,26.51-.03.78,0,1.5.14,2.17.37-6.36-8.79-16.67-14.53-28.35-14.53s-21.8,5.64-28.18,14.3c.36-.06.73-.1,1.11-.1Z"/>
            <path class="cls-4" d="m7.72,34.06c-1.36,3.73-2.13,7.74-2.13,11.94s.78,8.21,2.13,11.94c0-7.96,0-15.92,0-23.88Z"/>
          </g>
        </g>
        <g>
          <g>
            <path class="cls-5" d="m239.82,108.01c-.28-.59-.72-1.11-1.32-1.56-.6-.45-1.54-.93-2.82-1.45-1.44-.58-2.37-1.01-2.8-1.31-.43-.29-.64-.64-.64-1.04,0-.71.66-1.07,1.98-1.07.74,0,1.47.11,2.19.34.71.23,1.48.51,2.3.87l1.35-3.23c-1.87-.86-3.79-1.29-5.77-1.29-2.07,0-3.68.4-4.81,1.2-1.13.8-1.69,1.92-1.69,3.38,0,.85.13,1.57.4,2.15.27.58.7,1.1,1.29,1.55.59.45,1.52.94,2.78,1.47.88.37,1.58.7,2.11.98.53.28.9.53,1.12.75.22.22.32.51.32.86,0,.94-.81,1.41-2.44,1.41-.79,0-1.71-.13-2.75-.4-1.04-.26-1.98-.59-2.81-.98v3.7c.73.31,1.52.55,2.36.71.84.16,1.86.24,3.05.24,2.33,0,4.08-.44,5.25-1.32,1.17-.88,1.75-2.16,1.75-3.84,0-.81-.14-1.51-.43-2.1Z"/>
            <path class="cls-5" d="m207.34,99.11c-.87.56-1.55,1.3-2.06,2.22h-.22l-.66-2.76h-3.39v16.4h4.48v-8.35c0-1.32.4-2.35,1.2-3.08.8-.73,1.91-1.1,3.34-1.1.52,0,.96.05,1.32.15l.34-4.2c-.4-.09-.9-.13-1.51-.13-1.02,0-1.96.28-2.82.84Z"/>
            <path class="cls-5" d="m219.62,98.27c-2.43,0-4.33.75-5.7,2.25-1.37,1.5-2.06,3.63-2.06,6.38s.74,4.73,2.23,6.19c1.49,1.46,3.55,2.19,6.19,2.19,1.28,0,2.37-.1,3.26-.29.89-.19,1.73-.48,2.51-.87v-3.46c-.96.45-1.88.78-2.76.98-.88.21-1.81.31-2.8.31-1.27,0-2.26-.36-2.96-1.07-.7-.71-1.08-1.71-1.13-2.98h10.58v-2.17c0-2.33-.65-4.15-1.94-5.47-1.29-1.32-3.1-1.98-5.41-1.98Zm-3.13,6.65c.08-1.11.39-1.96.92-2.56.54-.6,1.28-.9,2.23-.9s1.7.3,2.26.9c.56.6.85,1.46.87,2.56h-6.28Z"/>
            <path class="cls-5" d="m171.64,109.93h-.09l-5.08-16.4h-6.19v21.45h4.06v-9.98c0-1.14-.09-3.43-.28-6.85h.13l5.16,16.83h4.17l5.53-16.8h.13c-.12,2.7-.18,4.36-.2,4.99-.01.63-.02,1.18-.02,1.66v10.15h4.24v-21.45h-6.19l-5.38,16.4Z"/>
            <path class="cls-5" d="m197.65,99.68c-1.17-.96-2.86-1.44-5.06-1.44s-4.39.49-6.28,1.48l1.48,3.02c1.77-.79,3.31-1.19,4.62-1.19,1.7,0,2.55.83,2.55,2.49v.72l-2.85.09c-2.46.09-4.29.55-5.51,1.37-1.22.83-1.83,2.11-1.83,3.85s.45,2.94,1.36,3.84c.9.9,2.14,1.35,3.72,1.35,1.28,0,2.32-.18,3.12-.55.8-.37,1.57-1.02,2.33-1.97h.12l.87,2.23h3.13v-10.93c0-1.96-.59-3.41-1.76-4.37Zm-2.69,9.05c0,.99-.31,1.78-.93,2.38-.62.6-1.45.9-2.49.9-1.45,0-2.17-.63-2.17-1.89,0-.88.32-1.54.95-1.97.64-.43,1.6-.67,2.91-.7l1.73-.06v1.35Z"/>
          </g>
          <g>
            <path class="cls-6" d="m140.07,113.1c-.43-.59-.65-1.49-.65-2.71v-10.09h4.68v-1.26h-4.68v-3.86h-.75l-.73,3.61-2.36.66v.85h2.36v10.3c0,1.61.33,2.8,1.01,3.55.67.75,1.71,1.13,3.12,1.13.92,0,1.73-.12,2.44-.35v-1.17c-.68.16-1.49.23-2.41.23s-1.59-.29-2.02-.88Z"/>
            <path class="cls-6" d="m129.29,98.75c-1.71,0-3.44.41-5.19,1.23l.54,1.26c1.58-.82,3.12-1.23,4.59-1.23,1.37,0,2.36.39,2.98,1.16.62.77.92,1.92.92,3.43v1.06l-3.04.09c-2.46.05-4.33.5-5.63,1.36-1.3.86-1.94,2.07-1.94,3.62,0,1.42.44,2.53,1.31,3.33.87.8,2.09,1.2,3.65,1.2,1.15,0,2.15-.21,3-.64.85-.43,1.67-1.15,2.47-2.18h.12l.37,2.52h1.07v-10.61c0-1.93-.43-3.35-1.3-4.26-.87-.91-2.17-1.36-3.92-1.36Zm3.79,9.68c0,1.73-.49,3.08-1.47,4.06-.98.97-2.33,1.46-4.03,1.46-1.12,0-1.98-.28-2.59-.83-.61-.55-.92-1.33-.92-2.33,0-1.25.48-2.17,1.43-2.77.95-.59,2.55-.94,4.79-1.05l2.79-.12v1.57Z"/>
            <path class="cls-6" d="m119.37,97.89c0,1.18.03,2.39.09,3.62h-.09c-.67-1.02-1.42-1.74-2.26-2.16-.84-.42-1.84-.63-2.99-.63-2.2,0-3.88.73-5.03,2.19-1.15,1.46-1.73,3.57-1.73,6.32s.58,4.62,1.75,5.99c1.16,1.37,2.85,2.05,5.05,2.05s4.01-.91,5.22-2.73h.12l.37,2.44h.95v-22.83h-1.44v5.74Zm0,9.35c0,2.41-.42,4.13-1.26,5.18-.84,1.05-2.16,1.57-3.96,1.57-3.51,0-5.27-2.26-5.27-6.78,0-2.33.44-4.1,1.31-5.33.88-1.22,2.18-1.83,3.92-1.83,1.85,0,3.19.54,4.01,1.62.83,1.08,1.24,2.85,1.24,5.32v.25Z"/>
            <path class="cls-6" d="m152.27,98.75c-1.71,0-3.44.41-5.19,1.23l.54,1.26c1.58-.82,3.12-1.23,4.59-1.23,1.37,0,2.36.39,2.98,1.16.62.77.92,1.92.92,3.43v1.06l-3.04.09c-2.46.05-4.33.5-5.63,1.36-1.3.86-1.94,2.07-1.94,3.62,0,1.42.44,2.53,1.31,3.33.87.8,2.09,1.2,3.65,1.2,1.15,0,2.15-.21,3-.64.85-.43,1.67-1.15,2.47-2.18h.12l.37,2.52h1.07v-10.61c0-1.93-.43-3.35-1.3-4.26-.87-.91-2.17-1.36-3.93-1.36Zm3.79,9.68c0,1.73-.49,3.08-1.47,4.06-.98.97-2.33,1.46-4.03,1.46-1.12,0-1.98-.28-2.59-.83-.61-.55-.92-1.33-.92-2.33,0-1.25.48-2.17,1.43-2.77.95-.59,2.55-.94,4.79-1.05l2.79-.12v1.57Z"/>
          </g>
        </g>
        <path class="cls-2" d="m246.91,108.53c2.66,0,4.77,2.06,4.77,4.69s-2.11,4.72-4.8,4.72-4.83-2.09-4.83-4.72,2.14-4.69,4.83-4.69h.03Zm-.06.94c-2.03,0-3.6,1.69-3.6,3.75s1.57,3.75,3.66,3.75c2.03.03,3.57-1.66,3.57-3.72s-1.54-3.78-3.6-3.78h-.03Zm-.71,6.18h-1.09v-4.69c.43-.06,1.03-.14,1.8-.14.89,0,1.29.14,1.6.37.28.2.48.54.48,1,0,.57-.43.94-.97,1.12v.06c.46.14.68.51.83,1.14.14.71.26.97.34,1.14h-1.14c-.14-.17-.23-.57-.37-1.14-.08-.49-.37-.71-.97-.71h-.51v1.86Zm.03-2.63h.51c.6,0,1.09-.2,1.09-.69,0-.43-.31-.71-1-.71-.29,0-.49.03-.6.06v1.34Z"/>
      </g>
      <g>
        <path class="cls-2" d="m90.03,115.32c-.77,0-1.37-.28-1.81-.84h-.09c.06.55.09.86.09.95v2.65h-1.78v-9.41h1.45l.25.85h.08c.41-.65,1.03-.97,1.85-.97.77,0,1.37.3,1.81.89s.65,1.42.65,2.48c0,.7-.1,1.3-.31,1.82-.2.51-.5.91-.87,1.17-.38.27-.82.4-1.33.4Zm-.53-5.35c-.44,0-.76.14-.96.41-.2.27-.31.72-.32,1.34v.19c0,.7.1,1.2.31,1.51.21.3.54.46.99.46.8,0,1.2-.66,1.2-1.97,0-.64-.1-1.13-.29-1.45-.2-.32-.51-.48-.93-.48Z"/>
        <path class="cls-2" d="m98.99,111.93c0,1.06-.28,1.9-.84,2.5s-1.34.9-2.35.9c-.63,0-1.18-.14-1.66-.41-.48-.28-.85-.67-1.1-1.18-.26-.52-.39-1.12-.39-1.8,0-1.07.28-1.9.83-2.49.56-.59,1.34-.89,2.35-.89.63,0,1.18.14,1.66.41s.85.66,1.1,1.17c.26.51.39,1.11.39,1.79Zm-4.52,0c0,.65.1,1.13.32,1.47.21.33.56.5,1.04.5s.82-.16,1.03-.49c.21-.33.31-.82.31-1.47s-.1-1.13-.32-1.46c-.21-.32-.55-.49-1.03-.49s-.82.16-1.03.48c-.21.32-.32.81-.32,1.46Z"/>
        <path class="cls-2" d="m103.16,108.55c.24,0,.44.02.6.05l-.14,1.67c-.14-.04-.32-.06-.52-.06-.57,0-1.01.15-1.33.44s-.47.7-.47,1.23v3.32h-1.78v-6.53h1.35l.26,1.1h.09c.2-.37.48-.66.82-.89s.72-.34,1.12-.34Z"/>
      </g>
    </g>
  </g>
</svg>