<?xml version="1.0" encoding="UTF-8"?>
<svg id="Layer_2" data-name="Layer 2" xmlns="http://www.w3.org/2000/svg" viewBox="0 0 77.55 77.55">
  <defs>
    <style>
      .cls-1 {
        fill: #4c7738;
      }

      .cls-1, .cls-2, .cls-3 {
        stroke-width: 0px;
      }

      .cls-2 {
        fill: #fff;
      }

      .cls-3 {
        fill: #aeb521;
      }
    </style>
  </defs>
  <g id="Layer_1-2" data-name="Layer 1">
    <g>
      <g>
        <circle class="cls-1" cx="38.77" cy="38.77" r="38.77"/>
        <circle class="cls-2" cx="38.77" cy="38.77" r="35.36"/>
        <circle class="cls-3" cx="38.77" cy="38.77" r="32.05"/>
        <path class="cls-2" d="m11.84,38.77c0,14.88,12.06,26.94,26.94,26.94s26.94-12.06,26.94-26.94H11.84Z"/>
      </g>
      <g>
        <path class="cls-2" d="m29.58,47.3c1.11,0,2.22,0,3.34,0,5.93,0,11.87,0,17.8,0,1.12,0,1.9-.47,2.23-1.42.14-.4.18-.84.18-1.26.01-4.23,0-8.46,0-12.68,0-3.01,0-6.02,0-9.03,0-1.34.01-2.67,0-4.01-.02-1.56-.96-2.49-2.5-2.49-6.99,0-13.97,0-20.96,0-1.73,0-2.78,1.04-2.78,2.77,0,8.49,0,16.97,0,25.46,0,1.68,1,2.67,2.69,2.68Zm5.06-14.21c-.92.01-1.84.01-2.76,0-.46,0-.7-.24-.7-.63,0-.4.26-.64.73-.65.44,0,.89,0,1.33,0,.46,0,.92,0,1.38,0,.46,0,.74.27.73.66,0,.37-.27.62-.72.62Zm.72,2.85c-.04.37-.25.6-.64.6-.49,0-.98,0-1.46,0h0c-.47,0-.95.01-1.42,0-.42-.01-.66-.25-.65-.62,0-.35.27-.63.66-.64.96-.01,1.92-.02,2.88,0,.39,0,.66.31.63.66Zm.08,7.9c-1.17,0-2.34,0-3.51,0-.5,0-.74-.21-.75-.62,0-.42.26-.64.77-.64.58,0,1.16,0,1.73,0,.58,0,1.16,0,1.73,0,.48,0,.75.24.75.63,0,.39-.26.63-.74.64Zm-3.3-3.64c-.15,0-.3,0-.44-.02-.32-.05-.49-.25-.51-.57-.02-.35.15-.57.47-.66.13-.03.26-.02.4-.02,3.17,0,6.34,0,9.51,0,.1,0,.21,0,.31,0,.36.04.62.32.59.66-.03.35-.22.59-.59.6-.49.02-.98.01-1.47.01-1.2,0-2.4,0-3.6,0-1.56,0-3.11,0-4.67,0Zm10.53,3.21c-.02.34-.31.41-.58.42-.74.01-1.48,0-2.22,0,0,0,0,0,0,0-.68,0-1.36,0-2.04,0-.47,0-.75-.25-.74-.64,0-.38.29-.63.76-.63,1.35,0,2.69,0,4.04,0,.1,0,.21,0,.31.03.39.13.5.46.48.81Zm.89-3.77c0-.39.28-.62.76-.62.64,0,1.27,0,1.91,0,.62,0,1.24,0,1.87,0,.46,0,.72.23.73.6.01.39-.26.66-.72.67-1.27,0-2.55,0-3.82,0-.49,0-.74-.24-.73-.65Zm4.59,4.2c-.5.01-1,0-1.51,0-.5,0-1,0-1.51,0-.41,0-.67-.26-.67-.61,0-.37.26-.65.69-.65,1,0,2.01-.01,3.01,0,.42,0,.65.24.66.62,0,.4-.22.63-.67.64Zm-3.11-23.98c.28-.24.59-.28.87,0,1.44,1.44,2.88,2.87,4.31,4.31.35.35.36.69,0,1.05-1.37,1.42-2.75,2.82-4.14,4.23-.32.33-.71.34-.99.07-.3-.29-.27-.64.1-1,1.16-1.16,2.33-2.33,3.49-3.49.1-.1.2-.21.3-.32-.05.04-.09.07-.14.11-1.16-1.23-2.31-2.46-3.47-3.69-.13-.14-.28-.26-.4-.41-.24-.3-.22-.63.07-.86Zm-7.73,8.79c.94-1.75,1.89-3.49,2.83-5.24.61-1.13,1.23-2.27,1.84-3.4.17-.31.41-.48.76-.38.31.09.52.28.54.68-.05.11-.1.29-.18.44-1.53,2.84-3.07,5.68-4.61,8.52-.23.43-.57.55-.94.36-.37-.19-.48-.54-.24-.98Zm-.75,3.8c.02-.22.2-.46.37-.64.08-.09.28-.09.42-.09,3.53,0,7.06,0,10.59,0,.35,0,.66.08.78.46.14.46-.16.82-.7.82-1.11.01-2.22,0-3.34,0-.68,0-1.36,0-2.05,0-1.69,0-3.38,0-5.07,0-.15,0-.3,0-.44-.01-.33-.03-.57-.23-.55-.53Zm.13,3.11c.14-.15.4-.27.61-.27,3.56-.02,7.12-.01,10.68-.01.36,0,.65.11.74.5.11.45-.18.77-.71.77-1.44,0-2.88,0-4.32,0-.34,0-.68,0-1.02,0-1.72,0-3.44,0-5.16,0-.15,0-.3,0-.44-.02-.48-.08-.71-.61-.37-.97Zm-6.46-11.56c1.37-1.38,2.74-2.75,4.12-4.12.43-.42.89-.38,1.13.1.16.32.05.56-.19.79-1.16,1.15-2.31,2.3-3.46,3.45-.12.12-.27.23-.43.36,1.26,1.26,2.45,2.45,3.64,3.64.12.12.23.23.34.35.24.28.25.57,0,.84-.24.26-.54.29-.85.1-.1-.06-.18-.15-.27-.23-1.34-1.34-2.68-2.68-4.02-4.03-.47-.47-.47-.78,0-1.25Z"/>
        <path class="cls-2" d="m58.6,53.18c0-7.02,0-14.03,0-21.05,0-.29.09-.59.06-.87-.09-1.04-.95-2-1.98-2.11-.67-.08-1.36-.01-2.1-.01,0,.19,0,.37,0,.55,0,4.97,0,9.94,0,14.91,0,2.42-1.49,3.91-3.91,3.91-7,0-14,0-21,0-.37,0-.75-.02-1.1-.11-1.86-.43-3.07-1.99-3.07-3.95,0-4.92,0-9.85,0-14.77v-.58c-.4,0-.77,0-1.14,0-1.88.01-3.05,1.19-3.05,3.07,0,7.05,0,14.09,0,21.14v.46h37.28v-.57Z"/>
        <path class="cls-2" d="m61.58,56.53c-.12-.96-.67-1.38-1.74-1.38-6.58,0-13.17,0-19.75,0-5.89,0-11.78,0-17.66,0-.77,0-1.54-.01-2.31,0-1.23.03-1.91,1.03-1.49,2.18.32.88.66,1.75,1.01,2.61.3.75.88,1.14,1.69,1.14,12.49,0,24.97,0,37.46,0,.88,0,1.38-.34,1.7-1.16.34-.85.68-1.71.99-2.57.09-.26.15-.55.12-.82Zm-20.01,2.17c-1.1,0-2.19,0-3.29,0-.47,0-.74-.26-.73-.65,0-.39.28-.61.76-.62.55,0,1.1,0,1.65,0,.53,0,1.07,0,1.6,0,.48,0,.75.27.76.74,0,.32-.26.52-.74.52Z"/>
      </g>
      <g>
        <path class="cls-1" d="m28.67,46.4c1.11,0,2.22,0,3.34,0,5.93,0,11.87,0,17.8,0,1.12,0,1.9-.47,2.23-1.42.14-.4.18-.84.18-1.26.01-4.23,0-8.46,0-12.68,0-3.01,0-6.02,0-9.03,0-1.34.01-2.67,0-4.01-.02-1.56-.96-2.49-2.5-2.49-6.99,0-13.97,0-20.96,0-1.73,0-2.78,1.04-2.78,2.77,0,8.49,0,16.97,0,25.46,0,1.68,1,2.67,2.69,2.68Zm5.06-14.21c-.92.01-1.84.01-2.76,0-.46,0-.7-.24-.7-.63,0-.4.26-.64.73-.65.44,0,.89,0,1.33,0,.46,0,.92,0,1.38,0,.46,0,.74.27.73.66,0,.37-.27.62-.72.62Zm.72,2.85c-.04.37-.25.6-.64.6-.49,0-.98,0-1.46,0h0c-.47,0-.95.01-1.42,0-.42-.01-.66-.25-.65-.62,0-.35.27-.63.66-.64.96-.01,1.92-.02,2.88,0,.39,0,.66.31.63.66Zm.08,7.9c-1.17,0-2.34,0-3.51,0-.5,0-.74-.21-.75-.62,0-.42.26-.64.77-.64.58,0,1.16,0,1.73,0,.58,0,1.16,0,1.73,0,.48,0,.75.24.75.63,0,.39-.26.63-.74.64Zm-3.3-3.64c-.15,0-.3,0-.44-.02-.32-.05-.49-.25-.51-.57-.02-.35.15-.57.47-.66.13-.03.26-.02.4-.02,3.17,0,6.34,0,9.51,0,.1,0,.21,0,.31,0,.36.04.62.32.59.66-.03.35-.22.59-.59.6-.49.02-.98.01-1.47.01-1.2,0-2.4,0-3.6,0-1.56,0-3.11,0-4.67,0Zm10.53,3.21c-.02.34-.31.41-.58.42-.74.01-1.48,0-2.22,0,0,0,0,0,0,0-.68,0-1.36,0-2.04,0-.47,0-.75-.25-.74-.64,0-.38.29-.63.76-.63,1.35,0,2.69,0,4.04,0,.1,0,.21,0,.31.03.39.13.5.46.48.81Zm.89-3.77c0-.39.28-.62.76-.62.64,0,1.27,0,1.91,0,.62,0,1.24,0,1.87,0,.46,0,.72.23.73.6.01.39-.26.66-.72.67-1.27,0-2.55,0-3.82,0-.49,0-.74-.24-.73-.65Zm4.59,4.2c-.5.01-1,0-1.51,0-.5,0-1,0-1.51,0-.41,0-.67-.26-.67-.61,0-.37.26-.65.69-.65,1,0,2.01-.01,3.01,0,.42,0,.65.24.66.62,0,.4-.22.63-.67.64Zm-3.11-23.98c.28-.24.59-.28.87,0,1.44,1.44,2.88,2.87,4.31,4.31.35.35.36.69,0,1.05-1.37,1.42-2.75,2.82-4.14,4.23-.32.33-.71.34-.99.07-.3-.29-.27-.64.1-1,1.16-1.16,2.33-2.33,3.49-3.49.1-.1.2-.21.3-.32-.05.04-.09.07-.14.11-1.16-1.23-2.31-2.46-3.47-3.69-.13-.14-.28-.26-.4-.41-.24-.3-.22-.63.07-.86Zm-7.73,8.79c.94-1.75,1.89-3.49,2.83-5.24.61-1.13,1.23-2.27,1.84-3.4.17-.31.41-.48.76-.38.31.09.52.28.54.68-.05.11-.1.29-.18.44-1.53,2.84-3.07,5.68-4.61,8.52-.23.43-.57.55-.94.36-.37-.19-.48-.54-.24-.98Zm-.75,3.8c.02-.22.2-.46.37-.64.08-.09.28-.09.42-.09,3.53,0,7.06,0,10.59,0,.35,0,.66.08.78.46.14.46-.16.82-.7.82-1.11.01-2.22,0-3.34,0-.68,0-1.36,0-2.05,0-1.69,0-3.38,0-5.07,0-.15,0-.3,0-.44-.01-.33-.03-.57-.23-.55-.53Zm.13,3.11c.14-.15.4-.27.61-.27,3.56-.02,7.12-.01,10.68-.01.36,0,.65.11.74.5.11.45-.18.77-.71.77-1.44,0-2.88,0-4.32,0-.34,0-.68,0-1.02,0-1.72,0-3.44,0-5.16,0-.15,0-.3,0-.44-.02-.48-.08-.71-.61-.37-.97Zm-6.46-11.56c1.37-1.38,2.74-2.75,4.12-4.12.43-.42.89-.38,1.13.1.16.32.05.56-.19.79-1.16,1.15-2.31,2.3-3.46,3.45-.12.12-.27.23-.43.36,1.26,1.26,2.45,2.45,3.64,3.64.12.12.23.23.34.35.24.28.25.57,0,.84-.24.26-.54.29-.85.1-.1-.06-.18-.15-.27-.23-1.34-1.34-2.68-2.68-4.02-4.03-.47-.47-.47-.78,0-1.25Z"/>
        <path class="cls-1" d="m57.69,52.27c0-7.02,0-14.03,0-21.05,0-.29.09-.59.06-.87-.09-1.04-.95-2-1.98-2.11-.67-.08-1.36-.01-2.1-.01,0,.19,0,.37,0,.55,0,4.97,0,9.94,0,14.91,0,2.42-1.49,3.91-3.91,3.91-7,0-14,0-21,0-.37,0-.75-.02-1.1-.11-1.86-.43-3.07-1.99-3.07-3.95,0-4.92,0-9.85,0-14.77v-.58c-.4,0-.77,0-1.14,0-1.88.01-3.05,1.19-3.05,3.07,0,7.05,0,14.09,0,21.14v.46h37.28v-.57Z"/>
        <path class="cls-1" d="m60.67,55.62c-.12-.96-.67-1.38-1.74-1.38-6.58,0-13.17,0-19.75,0-5.89,0-11.78,0-17.66,0-.77,0-1.54-.01-2.31,0-1.23.03-1.91,1.03-1.49,2.18.32.88.66,1.75,1.01,2.61.3.75.88,1.14,1.69,1.14,12.49,0,24.97,0,37.46,0,.88,0,1.38-.34,1.7-1.16.34-.85.68-1.71.99-2.57.09-.26.15-.55.12-.82Zm-20.01,2.17c-1.1,0-2.19,0-3.29,0-.47,0-.74-.26-.73-.65,0-.39.28-.61.76-.62.55,0,1.1,0,1.65,0,.53,0,1.07,0,1.6,0,.48,0,.75.27.76.74,0,.32-.26.52-.74.52Z"/>
      </g>
    </g>
  </g>
</svg>