<?xml version="1.0" encoding="UTF-8"?>
<svg id="Layer_2" data-name="Layer 2" xmlns="http://www.w3.org/2000/svg" viewBox="0 0 57.86 57.86">
  <defs>
    <style>
      .cls-1 {
        fill: #003c3a;
        stroke: #fff;
        stroke-miterlimit: 10;
      }

      .cls-2 {
        fill: #fff;
        stroke-width: 0px;
      }
    </style>
  </defs>
  <g id="Layer_1-2" data-name="Layer 1">
    <g>
      <rect class="cls-1" x=".5" y=".5" width="56.86" height="56.86"/>
      <path class="cls-2" d="m8.03,28.36c.67.4,1.21.72,2.02,1.19-.87.05-1.44.09-2.02.12-.05.11-.1.22-.16.33,1.49.94,2.91,2.06,4.51,2.79,1.77.81,3.68,1.31,5.56,1.85.76.22,1.23.45,1.51,1.29.34,1.01.97,1.93,1.47,2.89.11-.04.23-.07.34-.11.19-.57.38-1.13.6-1.78.36.09.75.19,1.33.34-.38-.69-.67-1.22-1.05-1.92.42,0,.71.02.99,0,2.52-.21,5.04-.48,7.56-.59.79-.04,1.63.26,2.38.55,1.19.47,2.33,1.07,3.59,1.38-.7-.56-1.41-1.12-2.11-1.7-.63-.52-.63-1.1.06-1.49,2.59-1.48,5-3.31,7.95-4.12,1.24-.34,1.96.09,2.74,1.04,1.11,1.35,2.42,2.55,3.66,3.79.18.18.46.25.93.5-.81-1.47-1.49-2.73-2.21-3.97-.67-1.16-.73-2.33-.1-3.51.72-1.35,1.48-2.67,2.41-4.35-.89.56-1.59.88-2.12,1.36-.99.9-1.97,1.85-2.81,2.89-.62.77-1.34,1.12-2.2.79-3.29-1.26-6.57-2.57-9.83-3.91-.73-.3-.72-.99-.27-1.54.63-.77,1.34-1.47,2.09-2.27-1.55.27-2.69,1.13-3.79,2.05-1.22,1.02-1.31.92-2.63.09-.84-.53-1.89-.81-2.89-.97-1.55-.25-2.93-.7-3.91-2-.37-.49-.75-.51-1.09.01-.53.8-1.16,1.56-1.52,2.43-.39.97-1.01,1.34-1.97,1.56-3.4.79-6.34,2.45-9.01,4.97Z"/>
    </g>
  </g>
</svg>