<?xml version="1.0" encoding="UTF-8"?>
<svg id="Layer_2" data-name="Layer 2" xmlns="http://www.w3.org/2000/svg" viewBox="0 0 262.26 254.97">
  <defs>
    <style>
      .cls-1 {
      fill: #afb621;
      }

      .cls-1, .cls-2, .cls-3 {
      stroke-width: 0px;
      }

      .cls-2 {
      fill: #fff;
      }

      .cls-3 {
      fill: #1c736f;
      }
    </style>
  </defs>
  <g id="Layer_1-2" data-name="Layer 1">
    <g>
      <path class="cls-1"
        d="m7.02,203.21l-.93,5.39H0l5.8-27.33h7.62l4.99,27.33h-6.08l-.89-5.39h-4.42Zm9.25-28.06l-4.91,4.66h-4.34l3.12-4.66h6.12Zm-5.31,23.24l-.69-5.19c-.2-1.54-.57-4.5-.81-6.2h-.08c-.28,1.7-.69,4.74-.93,6.2l-.81,5.19h3.33Z" />
      <path class="cls-1"
        d="m21.21,181.67c1.83-.32,4.14-.53,6.37-.53,3,0,5.88.37,7.79,2.07,1.78,1.58,2.27,3.41,2.27,5.84,0,2.68-1.34,5.43-4.14,6.73v.08c1.78.81,2.68,2.43,3.16,5.11.49,2.72,1.3,6.57,1.82,7.62h-6.57c-.32-.73-.97-3.57-1.34-6.45-.41-3.24-1.14-4.01-2.51-4.01h-.61v10.46h-6.24v-26.93Zm6.24,11.64h.81c2.03,0,3.04-1.74,3.04-3.73s-.77-3.49-2.72-3.57c-.41,0-.89.04-1.14.16v7.14Z" />
      <path class="cls-1"
        d="m53.6,197h-5.96v6.16h6.69v5.43h-12.98v-27.33h12.53v5.43h-6.24v5.11h5.96v5.19Z" />
      <path class="cls-1"
        d="m62.85,203.21l-.93,5.39h-6.08l5.8-27.33h7.62l4.99,27.33h-6.08l-.89-5.39h-4.42Zm3.93-4.83l-.69-5.19c-.2-1.54-.57-4.5-.81-6.2h-.08c-.28,1.7-.69,4.74-.93,6.2l-.81,5.19h3.33Z" />
      <path class="cls-1"
        d="m76.43,202.35c1.18.65,3.16,1.05,4.74,1.05,2.35,0,3.41-1.05,3.41-2.43,0-1.7-1.14-2.47-3.53-3.89-4.42-2.64-5.15-5.64-5.15-7.66,0-4.5,2.92-8.39,9.25-8.39,1.86,0,3.65.49,4.5.97l-.89,5.39c-.81-.49-1.99-.93-3.57-.93-2.11,0-3.12,1.1-3.12,2.35,0,1.18.57,1.95,3.65,3.69,3.77,2.11,5.03,4.99,5.03,7.79,0,5.15-3.85,8.56-9.61,8.56-2.35,0-4.54-.53-5.52-1.05l.81-5.43Z" />
      <path class="cls-1"
        d="m100.11,208.6v-27.33h5.72l3.85,9.81c.69,1.74,1.99,5.19,2.68,7.3h.08c-.16-2.23-.61-7.54-.61-12.69v-4.42h5.47v27.33h-5.72l-3.69-9.21c-.85-2.11-2.11-5.72-2.6-7.75h-.08c.12,2.35.37,6.89.37,12.25v4.7h-5.47Z" />
      <path class="cls-1"
        d="m126.71,203.21l-.93,5.39h-6.08l5.8-27.33h7.62l4.99,27.33h-6.08l-.89-5.39h-4.42Zm3.93-4.83l-.69-5.19c-.2-1.54-.57-4.5-.81-6.2h-.08c-.28,1.7-.69,4.74-.93,6.2l-.81,5.19h3.32Z" />
      <path class="cls-1" d="m141.91,187.11h-4.74v-5.84h15.82v5.84h-4.79v21.49h-6.29v-21.49Z" />
      <path class="cls-1"
        d="m161.78,181.27v17.52c0,3.61.97,4.66,2.11,4.66s2.11-.81,2.11-4.66v-17.52h6.29v16.38c0,7.02-2.56,11.27-8.35,11.27-6.41,0-8.43-4.5-8.43-11.35v-16.3h6.29Z" />
      <path class="cls-1"
        d="m176.7,181.67c1.83-.32,4.14-.53,6.37-.53,3,0,5.88.37,7.79,2.07,1.78,1.58,2.27,3.41,2.27,5.84,0,2.68-1.34,5.43-4.14,6.73v.08c1.78.81,2.68,2.43,3.16,5.11.49,2.72,1.3,6.57,1.82,7.62h-6.57c-.32-.73-.97-3.57-1.34-6.45-.41-3.24-1.14-4.01-2.51-4.01h-.61v10.46h-6.24v-26.93Zm6.24,11.64h.81c2.03,0,3.04-1.74,3.04-3.73s-.77-3.49-2.72-3.57c-.41,0-.89.04-1.14.16v7.14Z" />
      <path class="cls-1"
        d="m201.64,203.21l-.93,5.39h-6.08l5.8-27.33h7.62l4.99,27.33h-6.08l-.89-5.39h-4.42Zm3.93-4.83l-.69-5.19c-.2-1.54-.57-4.5-.81-6.2h-.08c-.28,1.7-.69,4.74-.93,6.2l-.81,5.19h3.32Z" />
      <path class="cls-1" d="m215.83,181.27h6.29v22.02h6.69v5.31h-12.98v-27.33Z" />
      <path class="cls-1"
        d="m244.09,197h-5.96v6.16h6.69v5.43h-12.98v-27.33h12.53v5.43h-6.25v5.11h5.96v5.19Z" />
      <path class="cls-1"
        d="m247.94,202.35c1.18.65,3.16,1.05,4.74,1.05,2.35,0,3.41-1.05,3.41-2.43,0-1.7-1.14-2.47-3.53-3.89-4.42-2.64-5.15-5.64-5.15-7.66,0-4.5,2.92-8.39,9.25-8.39,1.86,0,3.65.49,4.5.97l-.89,5.39c-.81-.49-1.99-.93-3.57-.93-2.11,0-3.12,1.1-3.12,2.35,0,1.18.57,1.95,3.65,3.69,3.77,2.11,5.03,4.99,5.03,7.79,0,5.15-3.85,8.56-9.61,8.56-2.35,0-4.54-.53-5.52-1.05l.81-5.43Z" />
      <path class="cls-2"
        d="m3.37,215.08c2.37-.47,5.64-.77,8.79-.77,5.05,0,8.9.59,11.75,3.15,2.55,2.2,3.62,5.64,3.62,8.96,0,4.63-1.48,7.95-3.8,10.27-2.61,2.49-6.77,3.56-9.85,3.56h-1.37v14.25H3.37v-39.42Zm9.14,17.75c.36.06.71.06,1.07.06,3.68,0,4.87-2.73,4.87-5.64,0-3.21-1.31-5.58-4.27-5.58-.59,0-1.25.12-1.66.3v10.86Z" />
      <path class="cls-2"
        d="m31.98,215.08c2.67-.47,6.05-.77,9.32-.77,4.39,0,8.61.53,11.4,3.03,2.61,2.32,3.32,4.99,3.32,8.55,0,3.92-1.96,7.95-6.05,9.85v.12c2.61,1.19,3.92,3.56,4.63,7.48.71,3.98,1.9,9.62,2.67,11.16h-9.62c-.48-1.07-1.43-5.22-1.96-9.44-.59-4.75-1.66-5.88-3.68-5.88h-.89v15.32h-9.14v-39.42Zm9.14,17.04h1.19c2.97,0,4.45-2.55,4.45-5.46s-1.13-5.1-3.98-5.22c-.59,0-1.31.06-1.66.24v10.45Z" />
      <path class="cls-2"
        d="m72.7,254.97c-10.09,0-13.3-10.68-13.3-20.6s4.16-20.36,13.83-20.36c10.86,0,13,11.99,13,19.59,0,15.14-5.46,21.37-13.48,21.37h-.06Zm.3-7.95c2.49,0,3.68-4.75,3.68-12.94,0-6.89-.95-12.11-3.74-12.11s-4.04,5.22-3.98,12.29c-.12,8.01,1.31,12.76,3.98,12.76h.06Z" />
      <path class="cls-2" d="m95.08,223.04h-6.94v-8.55h23.15v8.55h-7.01v31.46h-9.2v-31.46Z" />
      <path class="cls-2"
        d="m133.18,237.52h-8.73v9.02h9.79v7.95h-19v-40.01h18.34v7.95h-9.14v7.48h8.73v7.6Z" />
      <path class="cls-2"
        d="m162.98,253.43c-1.72.65-5.7,1.43-8.79,1.43-5.05,0-8.61-1.43-11.22-3.98-3.68-3.5-5.46-9.56-5.34-16.27.24-14.13,8.67-20.48,17.81-20.48,3.27,0,5.64.65,6.89,1.25l-1.48,7.9c-1.19-.59-2.73-.89-4.57-.89-5.4,0-9.08,3.5-9.08,13.06,0,8.43,3.32,11.69,6.41,11.69.36,0,.71,0,1.01-.12v-8.13h-2.91v-7.48h11.28v22.02Z" />
      <path class="cls-2" d="m177.88,214.49v40.01h-9.2v-40.01h9.2Z" />
      <path class="cls-2"
        d="m184.64,215.08c2.02-.42,5.22-.77,8.67-.77,5.4,0,9.14,1.25,11.87,3.8,3.56,3.27,5.11,8.61,5.11,16.09s-2.02,13.71-5.88,16.98c-2.79,2.43-6.77,3.68-12.76,3.68-2.73,0-5.4-.3-7.01-.48v-39.3Zm9.14,32.17c.3.12.83.12,1.25.12,3.21,0,5.76-3.68,5.76-13.59,0-7.42-1.72-12.17-5.7-12.17-.48,0-.89,0-1.31.18v25.47Z" />
      <path class="cls-2"
        d="m221.09,246.6l-1.37,7.9h-8.9l8.49-40.01h11.16l7.3,40.01h-8.9l-1.31-7.9h-6.47Zm5.76-7.06l-1.01-7.6c-.3-2.26-.83-6.59-1.19-9.08h-.12c-.42,2.49-1.01,6.95-1.37,9.08l-1.19,7.6h4.87Z" />
      <path class="cls-2"
        d="m240.97,245.36c1.72.95,4.63,1.54,6.94,1.54,3.44,0,4.99-1.54,4.99-3.56,0-2.49-1.66-3.62-5.16-5.7-6.47-3.86-7.54-8.25-7.54-11.22,0-6.59,4.27-12.29,13.53-12.29,2.73,0,5.34.71,6.59,1.42l-1.31,7.9c-1.19-.71-2.91-1.37-5.22-1.37-3.09,0-4.57,1.6-4.57,3.44,0,1.72.83,2.85,5.34,5.4,5.52,3.09,7.36,7.3,7.36,11.4,0,7.54-5.64,12.53-14.07,12.53-3.44,0-6.65-.77-8.07-1.54l1.19-7.95Z" />
    </g>
    <g>
      <g>
        <path class="cls-1"
          d="m36.41,140.28l-4.67,26.97H1.32L30.32,30.56h38.13l24.95,136.7h-30.42l-4.46-26.97h-22.11Zm19.67-24.14l-3.45-25.96c-1.01-7.71-2.84-22.51-4.06-31.03h-.41c-1.42,8.52-3.45,23.73-4.67,31.03l-4.06,25.96h16.63Z" />
        <path class="cls-1"
          d="m66.73,167.26V30.56h28.6l24.64,64.9V30.56h32.76v136.7h-28.6l-23.83-64.09v64.09h-33.57Z" />
        <polygon class="cls-3"
          points="127.55 162.32 95.36 77.69 95.36 162.32 71.66 162.32 71.66 35.49 91.92 35.49 124.9 121.08 124.9 35.49 147.78 35.49 147.78 162.32 127.55 162.32" />
        <path class="cls-1"
          d="m225.3,87.19c-.25-.19-.52-.39-.81-.47-1.01-.28-2.03-.61-3.06-.73-1.38-.15-2.5-.71-3.47-1.64-2.8-2.66-5.6-5.34-8.42-7.98-4.34-4.07-9.39-6.98-14.87-9.21-2.55-1.04-5.17-1.89-7.85-2.52-.58-.14-1.04,0-1.5.38-.33.26-.73.47-1.13.59-.39.12-.59-.11-.46-.5.14-.4.37-.79.62-1.13.23-.31.52-.59.82-.83.37-.29.55-.66.51-1.09-.1-1.03-.15-2.08-.39-3.07-.82-3.39-2.17-6.6-3.61-9.76-.64-1.39-1.31-2.77-2.11-4.07-.77-1.25-1.82-2.35-3.14-2.99-1.33-.64-1.57-2.81-.91-3.79.16-.25.34-.49.5-.73-.01-.05-.02-.1-.03-.15-.26.03-.56-.02-.76.11-.63.37-1.25.77-1.83,1.23-3.77,3.01-7.07,6.48-10.01,10.3-.54.7-.77,1.69-1,2.58-.71,2.84-.74,5.75-.61,8.66.16,3.63.66,7.22,1.36,10.78.03.16.05.67.08,1.03-.33.15-.67.3-1,.45-.73.34-1.53.54-2.28.84-3.94,1.56-7.63,3.62-11.27,5.76-4.54,2.67-8.94,5.55-13.27,8.54-.13.09-.26.19-.46.34.36.42.69.82,1.04,1.2,1.97,2.07,4.28,3.68,6.72,5.14,2.86,1.71,5.85,3.15,8.92,4.44.44.18.68.11,1-.21,4.81-4.83,9.63-9.65,14.46-14.45.3-.29.69-.53,1.09-.67,1.96-.68,3.99-.7,6.02-.54,2.82.22,5.58.78,8.25,1.68,1.46.49,2.86,1.19,4.3,1.76,7.35,2.89,14.93,4.84,22.84,5.31,3.9.23,7.79.09,11.64-.66.91-.18,1.75-.44,2.4-1.13.6-.63,1.2-1.26,1.79-1.9.3-.33.21-.65-.11-.89Z" />
        <path class="cls-1"
          d="m261.26,30.56C214.85,12.69,190.61,0,190.61,0c0,0-24.24,12.69-70.65,30.56,0,0,3.05,49.43,32.76,94.6V30.56c8.11-1.62,19.27-2.64,30.02-2.64,17.24,0,30.42,2.03,40.16,10.75,8.72,7.5,12.37,19.27,12.37,30.62,0,15.82-5.07,27.18-12.98,35.09-8.92,8.52-23.12,12.17-33.67,12.17h-4.67v43.42c2.14,1.78,4.36,3.53,6.66,5.26,69.75-52.23,70.65-134.67,70.65-134.67Z" />
        <path class="cls-3"
          d="m190.61,159.01c-.57-.45-1.15-.91-1.72-1.37v-36.15c10.56-.06,26.43-3.63,36.8-13.53l.08-.08c9.57-9.57,14.43-22.55,14.43-38.58,0-14.12-5.12-26.63-14.05-34.33-11.78-10.52-27.83-11.98-43.41-11.98-10.85,0-22.43,1.02-30.98,2.73l-3.97.79v80.51c-16.66-31.82-21.38-62.92-22.55-73.21,36.58-14.21,58.53-24.84,65.38-28.27,6.86,3.44,28.87,14.09,65.54,28.34-.47,6.82-2.25,23.3-8.86,43.22-5.07,15.29-11.96,29.6-20.46,42.53-9.92,15.07-22.09,28.3-36.21,39.38Z" />
        <path class="cls-3"
          d="m67.16,162.32l-4.46-26.97h-30.45l-4.67,26.97H7.41l26.91-126.83h30.01l23.14,126.83h-20.32Zm-23.86-103.98c-.75,4.48-1.65,10.72-2.52,16.76-.8,5.56-1.57,10.82-2.14,14.27l-4.95,31.71h28.03l-4.19-31.55c-.33-2.52-.75-5.8-1.21-9.38-.95-7.47-2.03-15.94-2.86-21.7l-.61-4.24h-8.87l-.69,4.12Z" />
      </g>
      <path class="cls-3"
        d="m146.65,98.06c-2.13-.97.35-6.76-1.42-7.82-.88-.53-1.67-1.03-2.38-1.53,2.9-1.91,5.64-3.63,8.31-5.2,3.31-1.95,6.89-3.96,10.59-5.43.22-.09.45-.16.68-.24.53-.18,1.18-.39,1.87-.72,3.05-1.43,5.62-2.44,8.1-3.19.2-.06.39-.13.59-.21l-2.67-9.48c-1.11.23-2.18.51-3.2.82-.22-1.69-.36-3.31-.43-4.91-.11-2.37-.12-4.89.46-7.23l.03-.12c.07-.26.16-.63.23-.83,1.74-2.24,3.59-4.31,5.53-6.18.4.32.84.6,1.31.83.36.17.75.58,1.08,1.12.73,1.19,1.36,2.52,1.83,3.55,1.28,2.8,2.57,5.82,3.3,8.86.04.18.08.39.11.61-.08.1-.16.2-.24.31-.57.79-1.01,1.59-1.3,2.41-.6,1.7-.37,3.49.64,4.91.97,1.38,2.57,2.2,4.28,2.2.54,0,1.08-.08,1.6-.24.48-.14.96-.34,1.41-.57,1.91.51,3.86,1.17,5.81,1.96,5.42,2.2,9.78,4.89,13.35,8.23,1.97,1.85,3.93,3.71,5.89,5.57l1.45,1.38c-.18,0-.56,0-.56,0-.98,0-2.01-.03-3.06-.09-6.88-.41-13.86-2.03-21.33-4.97-.48-.19-.99-.41-1.52-.64-.94-.41-1.92-.84-3.01-1.2-3.04-1.02-6.22-1.67-9.44-1.92-.84-.07-1.59-.1-2.3-.1-2.13,0-4,.29-5.74.9-1.11.39-2.13,1.02-2.94,1.83-4.02,4-12.63,12.99-16.95,17.32Z" />
    </g>
  </g>
</svg>