<?xml version="1.0" encoding="UTF-8"?>
<svg id="Capa_2" data-name="Capa 2" xmlns="http://www.w3.org/2000/svg" viewBox="0 0 259.94 277.11">
  <defs>
    <style>
      .cls-1 {
        fill: #afb621;
      }

      .cls-1, .cls-2, .cls-3, .cls-4 {
        stroke-width: 0px;
      }

      .cls-2 {
        fill: #fff;
      }

      .cls-3 {
        fill: #aeb521;
      }

      .cls-4 {
        fill: #1c736f;
      }
    </style>
  </defs>
  <g id="Layer_1" data-name="Layer 1">
    <g>
      <g>
        <g>
          <path class="cls-1" d="M35.09,140.28l-4.67,26.97H0L29,30.56h38.13l24.95,136.7h-30.42l-4.46-26.97h-22.11ZM54.76,116.15l-3.45-25.96c-1.01-7.71-2.84-22.51-4.06-31.03h-.41c-1.42,8.52-3.45,23.73-4.67,31.03l-4.06,25.96h16.63Z"/>
          <path class="cls-1" d="M65.41,167.26V30.56h28.6l24.64,64.9V30.56h32.76v136.7h-28.6l-23.83-64.09v64.09h-33.57Z"/>
          <polygon class="cls-4" points="126.24 162.32 94.04 77.69 94.04 162.32 70.34 162.32 70.34 35.49 90.6 35.49 123.58 121.08 123.58 35.49 146.47 35.49 146.47 162.32 126.24 162.32"/>
          <path class="cls-1" d="M223.98,87.19c-.25-.19-.52-.39-.81-.47-1.01-.28-2.03-.61-3.06-.73-1.38-.15-2.5-.71-3.47-1.64-2.8-2.66-5.6-5.34-8.42-7.98-4.34-4.07-9.39-6.98-14.87-9.21-2.55-1.04-5.17-1.89-7.85-2.52-.58-.14-1.04,0-1.5.38-.33.26-.73.47-1.13.59-.39.12-.59-.11-.46-.5.14-.4.37-.79.62-1.13.23-.31.52-.59.82-.83.37-.29.55-.66.51-1.09-.1-1.03-.15-2.08-.39-3.07-.82-3.39-2.17-6.6-3.61-9.76-.64-1.39-1.31-2.77-2.11-4.07-.77-1.25-1.82-2.35-3.14-2.99-1.33-.64-1.57-2.81-.91-3.79.16-.25.34-.49.5-.73-.01-.05-.02-.1-.03-.15-.26.03-.56-.02-.76.11-.63.37-1.25.77-1.83,1.23-3.77,3.01-7.07,6.48-10.01,10.3-.54.7-.77,1.69-1,2.58-.71,2.84-.74,5.75-.61,8.66.16,3.63.66,7.22,1.36,10.78.03.16.05.67.08,1.03-.33.15-.67.3-1,.45-.73.34-1.53.54-2.28.84-3.94,1.56-7.63,3.62-11.27,5.76-4.54,2.67-8.94,5.55-13.27,8.54-.13.09-.26.19-.46.34.36.42.69.82,1.04,1.2,1.97,2.07,4.28,3.68,6.72,5.14,2.86,1.71,5.85,3.15,8.92,4.44.44.18.68.11,1-.21,4.81-4.83,9.63-9.65,14.46-14.45.3-.29.69-.53,1.09-.67,1.96-.68,3.99-.7,6.02-.54,2.82.22,5.58.78,8.25,1.68,1.46.49,2.86,1.19,4.3,1.76,7.35,2.89,14.93,4.84,22.84,5.31,3.9.23,7.79.09,11.64-.66.91-.18,1.75-.44,2.4-1.13.6-.63,1.2-1.26,1.79-1.9.3-.33.21-.65-.11-.89Z"/>
          <path class="cls-1" d="M259.94,30.56C213.53,12.69,189.29,0,189.29,0c0,0-24.24,12.69-70.65,30.56,0,0,3.05,49.43,32.76,94.6V30.56c8.11-1.62,19.27-2.64,30.02-2.64,17.24,0,30.42,2.03,40.16,10.75,8.72,7.5,12.37,19.27,12.37,30.62,0,15.82-5.07,27.18-12.98,35.09-8.92,8.52-23.12,12.17-33.67,12.17h-4.67v43.42c2.14,1.78,4.36,3.53,6.66,5.26,69.75-52.23,70.65-134.67,70.65-134.67Z"/>
          <path class="cls-4" d="M189.29,159.01c-.57-.45-1.15-.91-1.72-1.37v-36.15c10.56-.06,26.43-3.63,36.8-13.53l.08-.08c9.57-9.57,14.43-22.55,14.43-38.58,0-14.12-5.12-26.63-14.05-34.33-11.78-10.52-27.83-11.98-43.41-11.98-10.85,0-22.43,1.02-30.98,2.73l-3.97.79v80.51c-16.66-31.82-21.38-62.92-22.55-73.21,36.58-14.21,58.53-24.84,65.38-28.27,6.86,3.44,28.87,14.09,65.54,28.34-.47,6.82-2.25,23.3-8.86,43.22-5.07,15.29-11.96,29.6-20.46,42.53-9.92,15.07-22.09,28.3-36.21,39.38Z"/>
          <path class="cls-4" d="M65.84,162.32l-4.46-26.97h-30.45l-4.67,26.97H6.09l26.91-126.83h30.01l23.14,126.83h-20.32ZM41.98,58.34c-.75,4.48-1.65,10.72-2.52,16.76-.8,5.56-1.57,10.82-2.14,14.27l-4.95,31.71h28.03l-4.19-31.55c-.33-2.52-.75-5.8-1.21-9.38-.95-7.47-2.03-15.94-2.86-21.7l-.61-4.24h-8.87l-.69,4.12Z"/>
        </g>
        <path class="cls-4" d="M145.34,98.06c-2.13-.97.35-6.76-1.42-7.82-.88-.53-1.67-1.03-2.38-1.53,2.9-1.91,5.64-3.63,8.31-5.2,3.31-1.95,6.89-3.96,10.59-5.43.22-.09.45-.16.68-.24.53-.18,1.18-.39,1.87-.72,3.05-1.43,5.62-2.44,8.1-3.19.2-.06.39-.13.59-.21l-2.67-9.48c-1.11.23-2.18.51-3.2.82-.22-1.69-.36-3.31-.43-4.91-.11-2.37-.12-4.89.46-7.23l.03-.12c.07-.26.16-.63.23-.83,1.74-2.24,3.59-4.31,5.53-6.18.4.32.84.6,1.31.83.36.17.75.58,1.08,1.12.73,1.19,1.36,2.52,1.83,3.55,1.28,2.8,2.57,5.82,3.3,8.86.04.18.08.39.11.61-.08.1-.16.2-.24.31-.57.79-1.01,1.59-1.3,2.41-.6,1.7-.37,3.49.64,4.91.97,1.38,2.57,2.2,4.28,2.2.54,0,1.08-.08,1.6-.24.48-.14.96-.34,1.41-.57,1.91.51,3.86,1.17,5.81,1.96,5.42,2.2,9.78,4.89,13.35,8.23,1.97,1.85,3.93,3.71,5.89,5.57l1.45,1.38c-.18,0-.56,0-.56,0-.98,0-2.01-.03-3.06-.09-6.88-.41-13.86-2.03-21.33-4.97-.48-.19-.99-.41-1.52-.64-.94-.41-1.92-.84-3.01-1.2-3.04-1.02-6.22-1.67-9.44-1.92-.84-.07-1.59-.1-2.3-.1-2.13,0-4,.29-5.74.9-1.11.39-2.13,1.02-2.94,1.83-4.02,4-12.63,12.99-16.95,17.32Z"/>
      </g>
      <g>
        <path class="cls-3" d="M6.82,237.79v-55.06h11.52l7.76,19.77c1.39,3.51,4,10.46,5.39,14.71h.16c-.33-4.49-1.23-15.2-1.23-25.57v-8.9h11.03v55.06h-11.52l-7.43-18.54c-1.71-4.25-4.25-11.52-5.23-15.6h-.16c.25,4.74.74,13.89.74,24.67v9.48H6.82Z"/>
        <path class="cls-3" d="M58.78,226.93l-1.88,10.87h-12.25l11.68-55.06h15.36l10.05,55.06h-12.25l-1.8-10.87h-8.9ZM66.7,217.21l-1.39-10.46c-.41-3.1-1.14-9.07-1.63-12.5h-.16c-.57,3.43-1.39,9.56-1.88,12.5l-1.63,10.46h6.7Z"/>
        <path class="cls-3" d="M87.78,194.49h-9.56v-11.76h31.86v11.76h-9.64v43.3h-12.66v-43.3Z"/>
        <path class="cls-3" d="M126.17,182.73v35.29c0,7.27,1.96,9.4,4.25,9.4s4.25-1.63,4.25-9.4v-35.29h12.66v33.01c0,14.13-5.15,22.71-16.83,22.71-12.91,0-16.99-9.07-16.99-22.88v-32.84h12.66Z"/>
        <path class="cls-3" d="M154.6,183.55c3.68-.65,8.33-1.06,12.83-1.06,6.05,0,11.85.74,15.69,4.17,3.59,3.19,4.58,6.86,4.58,11.76,0,5.39-2.7,10.95-8.33,13.56v.16c3.59,1.63,5.39,4.9,6.37,10.29.98,5.47,2.61,13.23,3.68,15.36h-13.23c-.65-1.47-1.96-7.19-2.7-12.99-.82-6.54-2.29-8.09-5.07-8.09h-1.23v21.08h-12.58v-54.25ZM167.18,206.99h1.63c4.08,0,6.13-3.51,6.13-7.52s-1.55-7.03-5.47-7.19c-.82,0-1.8.08-2.29.33v14.38Z"/>
        <path class="cls-3" d="M203.21,226.93l-1.88,10.87h-12.25l11.68-55.06h15.36l10.05,55.06h-12.25l-1.8-10.87h-8.9ZM211.13,217.21l-1.39-10.46c-.41-3.1-1.14-9.07-1.63-12.5h-.16c-.57,3.43-1.39,9.56-1.88,12.5l-1.63,10.46h6.7Z"/>
        <path class="cls-3" d="M230.16,182.73h12.66v44.36h13.48v10.7h-26.14v-55.06Z"/>
        <path class="cls-2" d="M2.39,248.92c1.68-.34,3.99-.55,6.21-.55,3.57,0,6.29.42,8.31,2.22,1.8,1.55,2.56,3.98,2.56,6.33,0,3.27-1.05,5.62-2.68,7.26-1.85,1.76-4.78,2.52-6.96,2.52h-.96v10.07H2.39v-27.85ZM8.85,261.46c.25.04.5.04.75.04,2.6,0,3.44-1.93,3.44-3.98,0-2.27-.92-3.94-3.02-3.94-.42,0-.88.08-1.17.21v7.68Z"/>
        <path class="cls-2" d="M21.77,248.92c1.89-.34,4.28-.55,6.59-.55,3.1,0,6.08.38,8.05,2.14,1.85,1.64,2.35,3.52,2.35,6.04,0,2.77-1.38,5.62-4.28,6.96v.08c1.85.84,2.77,2.52,3.27,5.29.5,2.81,1.34,6.79,1.89,7.89h-6.79c-.34-.75-1.01-3.69-1.38-6.67-.42-3.36-1.17-4.15-2.6-4.15h-.63v10.82h-6.46v-27.85ZM28.23,260.96h.84c2.1,0,3.15-1.8,3.15-3.86s-.8-3.61-2.81-3.69c-.42,0-.92.04-1.17.17v7.38Z"/>
        <path class="cls-2" d="M59.26,262.01c0,10.7-3.86,15.1-9.56,15.1-7.13,0-9.4-7.55-9.4-14.56s2.94-14.39,9.77-14.39c7.68,0,9.19,8.47,9.19,13.84ZM47.06,262.63c0,6.67,1.22,8.85,2.85,8.85,1.76,0,2.6-3.36,2.6-9.14,0-4.87-.67-8.56-2.64-8.56-1.59,0-2.81,2.64-2.81,8.85Z"/>
        <path class="cls-2" d="M64.67,254.54h-4.91v-6.04h16.36v6.04h-4.95v22.23h-6.5v-22.23Z"/>
        <path class="cls-2" d="M90.76,264.77h-6.17v6.38h6.92v5.62h-13.42v-28.27h12.96v5.62h-6.46v5.29h6.17v5.37Z"/>
        <path class="cls-2" d="M108.58,276.39c-.76.34-2.35.63-4.32.63-7.97,0-11.2-6.59-11.2-13.93,0-10.44,6.08-14.85,12-14.85,2.05,0,3.44.42,3.98.75l-1.01,5.45c-.63-.29-1.34-.55-2.43-.55-3.19,0-5.66,2.6-5.66,8.89,0,5.91,2.31,8.47,5.58,8.47.8,0,1.85-.17,2.52-.34l.55,5.45Z"/>
        <path class="cls-2" d="M114.83,254.54h-4.91v-6.04h16.36v6.04h-4.95v22.23h-6.5v-22.23Z"/>
        <path class="cls-2" d="M140.92,264.77h-6.17v6.38h6.92v5.62h-13.42v-28.27h12.96v5.62h-6.46v5.29h6.17v5.37Z"/>
        <path class="cls-2" d="M144.69,248.92c1.43-.29,3.69-.55,6.12-.55,3.82,0,6.46.88,8.39,2.68,2.52,2.31,3.61,6.08,3.61,11.37s-1.43,9.69-4.15,12c-1.97,1.72-4.78,2.6-9.02,2.6-1.93,0-3.82-.21-4.95-.34v-27.77ZM151.15,271.65c.21.08.59.08.88.08,2.27,0,4.07-2.6,4.07-9.61,0-5.24-1.22-8.6-4.03-8.6-.34,0-.63,0-.92.13v17.99Z"/>
        <path class="cls-2" d="M176.1,271.19l-.96,5.58h-6.29l6-28.27h7.89l5.16,28.27h-6.29l-.92-5.58h-4.57ZM185.67,242.16l-5.08,4.82h-4.49l3.23-4.82h6.33ZM180.17,266.2l-.71-5.37c-.21-1.59-.59-4.66-.84-6.42h-.08c-.29,1.76-.71,4.91-.96,6.42l-.84,5.37h3.44Z"/>
        <path class="cls-2" d="M189.94,248.92c1.89-.34,4.28-.55,6.59-.55,3.1,0,6.08.38,8.05,2.14,1.85,1.64,2.35,3.52,2.35,6.04,0,2.77-1.38,5.62-4.28,6.96v.08c1.85.84,2.77,2.52,3.27,5.29.5,2.81,1.34,6.79,1.89,7.89h-6.79c-.34-.75-1.01-3.69-1.38-6.67-.42-3.36-1.17-4.15-2.6-4.15h-.63v10.82h-6.46v-27.85ZM196.4,260.96h.84c2.1,0,3.15-1.8,3.15-3.86s-.8-3.61-2.81-3.69c-.42,0-.92.04-1.17.17v7.38Z"/>
        <path class="cls-2" d="M222.61,264.77h-6.17v6.38h6.92v5.62h-13.42v-28.27h12.96v5.62h-6.46v5.29h6.17v5.37Z"/>
        <path class="cls-2" d="M231.34,271.19l-.96,5.58h-6.29l6-28.27h7.89l5.16,28.27h-6.29l-.92-5.58h-4.57ZM235.41,266.2l-.71-5.37c-.21-1.59-.59-4.66-.84-6.42h-.08c-.29,1.76-.71,4.91-.96,6.42l-.84,5.37h3.44Z"/>
        <path class="cls-2" d="M244.55,270.31c1.22.67,3.27,1.09,4.91,1.09,2.43,0,3.52-1.09,3.52-2.52,0-1.76-1.17-2.56-3.65-4.03-4.57-2.73-5.33-5.83-5.33-7.93,0-4.66,3.02-8.68,9.56-8.68,1.93,0,3.78.5,4.66,1.01l-.92,5.58c-.84-.5-2.06-.96-3.69-.96-2.18,0-3.23,1.13-3.23,2.43,0,1.22.59,2.01,3.77,3.82,3.9,2.18,5.2,5.16,5.2,8.05,0,5.33-3.98,8.85-9.94,8.85-2.43,0-4.7-.54-5.71-1.09l.84-5.62Z"/>
      </g>
    </g>
  </g>
</svg>