<?xml version="1.0" encoding="UTF-8"?>
<svg id="Layer_2" data-name="Layer 2" xmlns="http://www.w3.org/2000/svg" xmlns:xlink="http://www.w3.org/1999/xlink" viewBox="0 0 166.94 79.15">
  <defs>
    <style>
      .cls-1 {
        fill: #fff;
      }

      .cls-1, .cls-2, .cls-3, .cls-4, .cls-5 {
        stroke-width: 0px;
      }

      .cls-2 {
        fill: url(#radial-gradient-2);
      }

      .cls-3 {
        fill: url(#radial-gradient);
      }

      .cls-4 {
        fill: #aeb521;
      }

      .cls-5 {
        fill: #003c3a;
      }
    </style>
    <radialGradient id="radial-gradient" cx="39.57" cy="39.57" fx="39.57" fy="39.57" r="34.23" gradientUnits="userSpaceOnUse">
      <stop offset="0" stop-color="#a89983"/>
      <stop offset=".46" stop-color="#a69781"/>
      <stop offset=".63" stop-color="#9f917d"/>
      <stop offset=".75" stop-color="#938675"/>
      <stop offset=".85" stop-color="#82766b"/>
      <stop offset=".93" stop-color="#6c625d"/>
      <stop offset="1" stop-color="#524a4c"/>
      <stop offset="1" stop-color="#524a4c"/>
    </radialGradient>
    <radialGradient id="radial-gradient-2" cx="127.37" fx="127.37" r="34.23" xlink:href="#radial-gradient"/>
  </defs>
  <g id="Layer_1-2" data-name="Layer 1">
    <g>
      <g>
        <g>
          <circle class="cls-1" cx="39.57" cy="39.57" r="39.57"/>
          <circle class="cls-3" cx="39.57" cy="39.57" r="34.23"/>
          <circle class="cls-5" cx="39.57" cy="39.57" r="34.23"/>
        </g>
        <path class="cls-1" d="m65.65,31.18c-.21-.72-.76-1.09-1.43-1.3-1.17-.37-2.36-.32-3.55-.18-2.56.29-5,1.04-7.4,1.95-1.69.64-3.36,1.35-5.13,1.74-2.14.48-3.05-.05-3.48-2.2-.35-1.75-.97-3.4-1.65-5.03-.46-1.1-.88-2.22-1.19-3.37-.56-2.1-.46-4.08,1.03-5.82.21-.25.38-.53.57-.8.56-.81.53-1.51-.08-2.27-.83-1.02-2.07-1.27-3.26-.61-1.96,1.08-3.32,2.74-4.31,4.7-2.28,4.49-2.53,9.3-2.13,14.2.06.79-.16,1.36-.8,1.77-.49.32-1.05.5-1.63.54-3.17.17-6.35.32-9.53.16-2.18-.11-4.26-.6-6.21-1.6-.22-.11-.47-.17-.71-.23-1-.22-1.8.24-2.12,1.21-.21.64-.19,1.3-.04,1.94.45,1.95,1.68,3.3,3.38,4.26,1.17.66,2.4,1.23,3.65,1.72,3.26,1.29,6.59,2.25,10.12,2.35.13,0,.27,0,.4,0,.99-.02,1.32.25,1.49,1.25.06.33.07.65,0,.98-.55,2.69-1.11,5.38-1.84,8.04-.82,2.99-2.37,5.4-5.09,6.99-.46.27-.88.62-1.28.99-.93.86-.64,2.05.58,2.46.26.09.52.11.8.12,1.5,0,2.89-.46,4.2-1.12,6.42-3.21,10.4-8.38,12.17-15.29.05-.21,0-.49.31-.55.26-.05.43.09.6.27,2.84,2.98,5.94,5.66,9.25,8.09,1.98,1.45,3.14,3.41,3.35,5.88.06.67.35,1.14.97,1.37.61.23,1.17.09,1.66-.35.55-.5.83-1.16.99-1.86.48-2.13.37-4.24-.3-6.32-.88-2.71-2.46-5.03-4.1-7.32-.76-1.06-1.58-2.09-2.21-3.24-.67-1.23-.57-1.9.43-2.88.32-.31.66-.59,1.02-.86.82-.6,1.66-1.19,2.5-1.77,1.76-1.23,3.36-2.63,4.62-4.4.92-1.29,2.21-2.06,3.77-2.38.38-.08.76-.14,1.13-.25.52-.15.68-.45.53-.97Zm-49.13,6.26c-.38,0-.66-.21-.66-.63,0-.42.25-.65.64-.64.4,0,.61.26.64.66-.03.39-.26.62-.62.62Zm4.38,1.3c-.37-.01-.62-.26-.61-.64,0-.4.25-.62.68-.64.38.04.6.26.59.64,0,.41-.26.65-.66.64Zm4.52.89c-.38-.05-.63-.25-.63-.63,0-.41.25-.65.64-.66.36,0,.63.21.62.6,0,.4-.25.62-.63.68Zm4.39.17c-.38-.05-.6-.29-.57-.69.03-.38.27-.59.65-.58.39.01.62.26.61.63-.01.38-.23.65-.69.65Zm-1.74,22.25c-.37,0-.62-.25-.62-.63,0-.41.26-.62.66-.66.36.06.62.24.61.63,0,.4-.25.66-.65.66Zm3.44-3.91c-.37,0-.59-.24-.62-.64.04-.4.25-.64.67-.63.39,0,.61.24.61.62,0,.41-.26.65-.66.64Zm9.24-23.29c0,.66-.51,1.15-1.18,1.15-.65,0-1.16-.51-1.17-1.16,0-.67.53-1.2,1.21-1.18.65.02,1.14.54,1.14,1.19Zm-2.52-5.13c.02-.4.28-.63.69-.61.39.03.56.29.59.63-.06.4-.27.64-.65.64-.4,0-.66-.26-.64-.66Zm1.31-13.04c.38,0,.58.25.62.62-.04.4-.24.65-.65.64-.38,0-.63-.23-.62-.6.01-.38.25-.66.65-.66Zm-1.35,4.13c.4.03.64.23.66.6.02.4-.22.66-.62.68-.38.01-.63-.2-.64-.59-.01-.4.21-.64.6-.69Zm.04,4.2c.37,0,.62.25.62.63,0,.41-.25.62-.65.65-.38-.04-.62-.23-.61-.63,0-.4.24-.66.65-.65Zm-3.73,13.38c.65.01,1.15.53,1.15,1.18,0,.66-.51,1.16-1.17,1.16-.66,0-1.17-.5-1.18-1.15,0-.68.52-1.2,1.2-1.19Zm-.57,15.18c-.41.01-.67-.21-.68-.61-.02-.4.23-.66.63-.67.4,0,.61.25.66.64-.03.37-.21.61-.6.63Zm1.7-4.43c-.38-.02-.57-.26-.6-.63.03-.39.23-.63.62-.64.42,0,.66.24.66.64,0,.4-.26.65-.67.63Zm1.92-3.43c-.65,0-1.17-.52-1.17-1.16,0-.64.52-1.17,1.16-1.18.67,0,1.22.54,1.21,1.19-.02.64-.54,1.15-1.19,1.15Zm2.84-3.72c-1.06,0-1.95-.9-1.95-1.96,0-1.05.92-1.96,1.97-1.95,1.06.01,1.94.91,1.93,1.97,0,1.07-.88,1.94-1.96,1.93Zm15.74,15.59c.38.04.6.27.59.64,0,.4-.25.65-.66.63-.38-.01-.62-.26-.6-.63.02-.38.24-.64.68-.64Zm-2.28-4.56c.4.01.65.26.62.68-.03.41-.3.63-.7.59-.37-.04-.57-.28-.57-.68.05-.37.28-.59.65-.58Zm-9.09-8.49c-.65-.01-1.16-.54-1.16-1.18,0-.66.52-1.16,1.18-1.16.68,0,1.18.52,1.18,1.22,0,.66-.5,1.14-1.19,1.12Zm1.65-5.32c-.67.02-1.2-.5-1.2-1.19,0-.65.51-1.16,1.16-1.16.66,0,1.17.5,1.18,1.15,0,.65-.49,1.18-1.14,1.2Zm1.78,8.16c-.4.02-.64-.21-.68-.58.01-.44.22-.67.6-.69.41-.02.66.22.68.62.02.38-.23.63-.6.65Zm3.26,2.89c0,.37-.27.61-.64.6-.4,0-.62-.25-.64-.67.05-.37.24-.62.63-.59.39.02.66.26.65.66Zm-.6-12.84c-.37,0-.62-.25-.62-.62,0-.4.24-.65.65-.65.37,0,.59.23.63.62-.04.39-.25.66-.65.66Zm3.6-2.02c-.41.01-.67-.22-.67-.62,0-.41.26-.65.66-.64.38,0,.58.25.62.63-.03.38-.22.62-.61.63Zm3.62-2.43c-.42.02-.67-.22-.69-.61-.02-.37.21-.63.59-.65.41-.03.63.22.69.61-.03.38-.2.63-.59.65Zm3.55-1.35c-.38-.04-.62-.24-.63-.62,0-.41.24-.66.65-.66.4,0,.65.28.63.68-.02.37-.26.58-.65.6Z"/>
      </g>
      <g>
        <g>
          <circle class="cls-1" cx="127.37" cy="39.57" r="39.57"/>
          <circle class="cls-2" cx="127.37" cy="39.57" r="34.23"/>
          <circle class="cls-4" cx="127.37" cy="39.57" r="34.23"/>
        </g>
        <g>
          <path class="cls-1" d="m150.64,54.54c-.16-.42-.16-1,0-1.42.61-1.61,1.58-2.97,3.31-3.87-2.84-.63-4.22,1.05-5.41,2.93-1.09-.79-2.1-1.51-3.15-2.27.3-.23.55-.44.98-.77-1.25,0-2.28.09-3.3-.02-2.04-.23-3.3.84-4.39,2.34-1.05,1.45-1.38,2.87-.19,4.46.91,1.23,1.83,2.43,3.45,2.59,1.28.13,2.59.01,3.89,0,.13,0,.25-.06.45-.11-.34-.24-.59-.43-.9-.65,1.08-.78,2.11-1.52,3.17-2.28,1.21,1.95,2.61,3.54,5.41,2.93-1.74-.89-2.7-2.25-3.32-3.86Z"/>
          <path class="cls-1" d="m115.68,49.95c.31-.23.63-.44,1.04-.72-2.77-.59-4.15,1.04-5.35,2.95-1.07-.78-2.09-1.52-3.16-2.29.31-.22.56-.41.95-.69-1.74,0-3.32,0-4.89,0-.17,0-.33.12-.49.2-1.75.87-2.65,2.42-3.29,4.16-.05.13-.08.3-.04.42.7,1.93,1.65,3.83,3.75,4.36,1.49.38,3.16.09,4.74.1.02,0,.04-.08.06-.12-.25-.19-.5-.37-.77-.58,1.09-.78,2.11-1.52,3.14-2.26,1.98,2.81,3.5,3.62,5.27,2.82-1.72-.83-2.6-2.33-3.27-3.98-.1-.25-.15-.61-.05-.85.54-1.33,1.18-2.61,2.37-3.51Z"/>
          <path class="cls-1" d="m142.1,30.23c1.14.07,2.29.02,3.44,0,.21,0,.43-.07.75-.12-.37-.27-.62-.46-.96-.7.59-.38,1.12-.69,1.62-1.05.53-.38,1.02-.8,1.53-1.2,2.24,2.9,3.36,3.51,5.34,2.86-1.65-.84-2.59-2.22-3.21-3.83-.15-.39-.15-.94,0-1.34.62-1.61,1.56-3,3.37-3.91-2.85-.61-4.24,1-5.45,2.93-1.07-.77-2.09-1.51-3.17-2.29.32-.23.58-.41,1.03-.73-.79,0-1.36,0-1.93,0-.29,0-.6.12-.87.05-2.1-.51-3.65.35-4.74,2.04-1.69,2.63-1.67,2.52,0,5.16.74,1.16,1.78,2.04,3.24,2.12Z"/>
          <path class="cls-1" d="m150.64,40.4c-.16-.41-.16-1,0-1.42.61-1.61,1.57-2.98,3.32-3.87-2.83-.63-4.22,1.02-5.41,2.92-1.09-.78-2.09-1.51-3.16-2.27.3-.23.56-.43.98-.76-1.67,0-3.14-.01-4.61.01-.26,0-.52.12-.76.23-1.8.85-2.68,2.45-3.36,4.21-.05.13-.06.31-.01.43.62,1.61,1.42,3.07,2.95,4.02,1.61.99,3.38.12,5.05.48.17.04.37-.06.65-.11-.35-.27-.61-.47-.88-.69,1.09-.78,2.1-1.5,3.15-2.26,1.2,1.93,2.6,3.53,5.48,2.91-1.86-.88-2.76-2.26-3.38-3.84Z"/>
          <path class="cls-1" d="m135.38,49.25c-2.84-.61-4.22,1.01-5.42,2.93-1.07-.77-2.09-1.51-3.16-2.28.31-.22.56-.4.81-.59-.01-.07-.03-.14-.04-.22-.83.05-1.7.29-2.48.12-2.42-.52-3.87.66-5.15,2.48-1.05,1.5-1.02,2.85.03,4.31.88,1.22,1.82,2.35,3.4,2.51,1.25.12,2.53.02,3.8.01.15,0,.3-.07.54-.12-.35-.26-.6-.44-.89-.65,1.09-.79,2.12-1.53,3.16-2.28,1.2,1.95,2.58,3.54,5.41,2.93-1.72-.87-2.68-2.21-3.29-3.79-.18-.47-.17-1.12.01-1.59.61-1.57,1.57-2.91,3.28-3.77Z"/>
          <path class="cls-1" d="m104.92,30.23c1.17.07,2.35.01,3.53,0,.18,0,.37-.06.68-.11-.38-.28-.63-.46-.91-.67,1.08-.78,2.1-1.52,3.13-2.26,2.1,2.81,3.55,3.59,5.23,2.83-1.65-1.07-2.39-1.96-3.15-3.84-.12-.31-.24-.77-.1-1.01.71-1.18,1.49-2.33,2.3-3.45.23-.32.66-.49,1.08-.79-2.75-.59-4.14,1.03-5.34,2.96-1.06-.76-2.08-1.51-3.15-2.28.3-.23.56-.43.81-.63-.91-.14-1.79.08-2.59-.08-2.11-.43-3.66.38-4.75,2.05-1.69,2.6-1.67,2.56-.01,5.16.74,1.16,1.78,2.05,3.24,2.13Z"/>
          <path class="cls-1" d="m104.18,44.2c1.35.38,2.87.15,4.31.18.18,0,.35-.07.6-.13-.35-.27-.59-.46-.86-.66,1.08-.78,2.11-1.52,3.13-2.25,2,2.8,3.51,3.61,5.27,2.81-1.69-.81-2.57-2.27-3.24-3.9-.11-.28-.2-.7-.07-.93.63-1.1,1.29-2.19,2.04-3.22.3-.41.84-.66,1.34-1.03-2.73-.58-4.12,1.03-5.32,2.96-1.06-.77-2.08-1.51-3.16-2.29.3-.22.55-.4.92-.67-1.73,0-3.33,0-4.93,0-.08,0-.17.06-.25.1-1.88.85-2.82,2.48-3.5,4.31-.04.1-.05.24-.01.34.7,1.93,1.65,3.79,3.74,4.37Z"/>
          <path class="cls-1" d="m135.38,20.95c-2.82-.61-4.21,1-5.41,2.93-1.06-.76-2.08-1.5-3.15-2.28.3-.23.56-.43.81-.63-.93-.14-1.84.07-2.67-.09-1.95-.37-3.44.31-4.5,1.84-1.91,2.77-1.89,2.84.03,5.65.7,1.03,1.7,1.79,3.01,1.86,1.17.06,2.35.01,3.53,0,.19,0,.38-.06.7-.11-.37-.27-.62-.45-.93-.67,1.12-.8,2.14-1.54,3.17-2.27,1.87,2.73,3.58,3.65,5.22,2.8-1.61-.8-2.52-2.18-3.13-3.76-.16-.42-.15-1,.01-1.42.63-1.6,1.58-2.97,3.32-3.85Z"/>
          <path class="cls-1" d="m121.97,43.88c1.63,1.01,3.43.17,5.13.49.16.03.34-.08.58-.14-.34-.26-.59-.44-.86-.64,1.07-.77,2.08-1.5,3.15-2.27,1.76,2.93,3.68,3.48,5.2,2.88-1.88-1.45-2.4-2.06-3.13-3.85-.13-.31-.23-.73-.13-1.02.55-1.43,1.27-2.76,2.56-3.68.24-.17.5-.33.86-.56-2.78-.59-4.17,1.03-5.35,2.94-1.08-.78-2.1-1.52-3.16-2.3.32-.23.58-.41,1.01-.71-1.74,0-3.26,0-4.78,0-.14,0-.29.07-.42.13-1.93.84-2.87,2.5-3.57,4.35-.04.1-.04.24,0,.35.61,1.61,1.41,3.08,2.94,4.03Zm-.7-5.82c.12-.12.25-.24.35-.37h0c-.1.12-.23.25-.35.37-.08.08-.16.16-.22.25.06-.08.14-.16.22-.25Z"/>
        </g>
      </g>
    </g>
  </g>
</svg>