<?xml version="1.0" encoding="UTF-8"?>
<svg xmlns="http://www.w3.org/2000/svg" viewBox="0 0 880.85 1167.35">
  <defs>
    <style>
      .cls-1 {
        opacity: .5;
      }

      .cls-2 {
        fill: #e1e1bd;
      }

      .cls-2, .cls-3, .cls-4, .cls-5, .cls-6, .cls-7, .cls-8, .cls-9 {
        stroke-width: 0px;
      }

      .cls-3 {
        fill: #4c7738;
      }

      .cls-10 {
        isolation: isolate;
      }

      .cls-11 {
        stroke-width: 4px;
      }

      .cls-11, .cls-12 {
        fill: none;
        stroke: #005f7e;
      }

      .cls-11, .cls-13 {
        stroke-miterlimit: 10;
      }

      .cls-14 {
        opacity: .2;
      }

      .cls-4 {
        fill: #f29838;
      }

      .cls-12 {
        stroke-linecap: round;
        stroke-linejoin: round;
        stroke-width: .25px;
      }

      .cls-5, .cls-13 {
        fill: #fff;
      }

      .cls-6 {
        fill: #e7e9e9;
      }

      .cls-13 {
        stroke: #000;
      }

      .cls-7 {
        fill: #aeb521;
      }

      .cls-8 {
        fill: #003c3a;
      }

      .cls-9 {
        fill: #22726e;
      }

      .cls-15 {
        mix-blend-mode: multiply;
      }
    </style>
  </defs>
  <g class="cls-10">
    <g id="Layer_2" data-name="Layer 2">
      <g id="Layer_1-2" data-name="Layer 1">
        <rect class="cls-6" x="2" y="2" width="876.85" height="1163.35"/>
        <g class="cls-1">
          <g class="cls-15">
            <path class="cls-7" d="m380.64,87.04c-.41.16-.76.09-1.06-.21-.07-.51-.15-1.02-.24-1.53-.23-.8-.22-1.53-.4-2.3-.12-.52-.49-.55-.64-1.06-.27-.95.14-1.62-.37-2.5-.74-1.28-.82-.65-1.9-.55-.89.08-.64-.14-1.26-.31-.6-.16-1.68-.29-2.08-.83-.43-.58.08-1.56-.06-2.21-.29-1.31-1.12-1.85-2.32-2.26-1.24-.43-2.29-1.15-3.44-1.72-.27-.58-.83-.86-1.19-.04-.14.32-.06,1.71.02,2.07.31,1.42,1.15,1.28,2.32,1.69.38.13,1.02.38,1.31.7.65.7.12,1.14.36,1.92.31,1,2.32,2.34,3.39,2.36.39,1.17.2,4.88-1.65,4.25-1.64-.56-.84-3-2.26-3.8-.96-.54-1.53.04-1.76-1.69-.15-1.14.4-1.99-1.11-2.33-.87-.2-1.76.05-2.44.45-1.13.65-.89,1.27-1.1,2.36-2.34-.19-.14,1.72.25,2.36.39.65.11,1.71.5,2.21.27.34,1.13.67,1.51.84,1.48.67,2.63.64,3.02,2.71.25,1.35-.38,2.29.68,3.44.66.71,1.83,2.13,2.72,2.34.45.11,1.89.12,2.33-.02.82-.24.64-.72,1.11-1.19,1.08-1.07,1.56-.48,2.72.17,1.13.63,2.15.51,3.24-.22,2.16-1.44,1.75-3.79-.2-5.1Z"/>
            <path class="cls-7" d="m421.31,136.93c-1.59-.64-1.14-1.89-1.15-3.47,0-.75.1-1.56.01-2.31-.08-.67-.37-.92-.53-1.47-.35-1.2-.64-2.05-.63-3.38.01-1.39-.22-2.96.13-4.3.38-1.47.61-1.85-.12-3.21-.3-.56-.93-1.16-1.11-1.71-.2-.64.15-1.36-.02-1.99-.27-.99-1.35-1.97-1.62-2.96-.25-.93-.57-3.19.4-3.8,1.08-.68,3.04.59,3.97-.78.47-.69.15-3.39-.24-3.85-.72-.84-2.16-.25-2.99-.73-1.09-.63-.57-2.13-1.26-3.04-.53-.72-1.59-1.22-2.03-1.98-.32-.56-.24-1.17-.52-1.75-.31-.64-.95-.87-1.46-1.27-1.45-1.16-.94-1.97-1.13-3.59-.4-3.43-3.72-2.58-6.32-2.58-1.89,1.19.83,3.15-.09,4.47-.59.85-1.58.25-1.61,1.48-.02.67.87,1.01.46,1.98-1.14-.04-1.06.69-1.76,1.15-.4.26-1.15.08-1.61.21-2.53.74-.35,1.96.6,2.72,3.26,2.61-1.03,4.29-3.48,3.05-1.06-.53-1.6-1.15-2.82-1.32-1.12-.15-2.34.22-3.45.04-1.97-.32-2.33-1.58-3.4-2.9-1.2-1.49-4.02-1.58-5.73-1.05-.18.76-.3,2.64-.07,3.38.29.95,1.34,1.35,1.76,2.25.89,1.93.56,4.22.56,6.32,0,1.12-.27,2.61.02,3.66.19.72.78,1.16,1.23,1.74.36.63.8,1.19,1.34,1.68.34.45.79.73,1.35.84.81.82.61-.07.66,1.35.02.74-.07,1.48-.04,2.22.06,1.42.9,2.04,2.31,2.29.42.08,1.87.09,2.21,0,.6-.17.61-.49,1.09-.76.68-.38,1.49-.74,2.34-.3.65.34,1.15,1.21,1.8,1.59,1.49.86,1.95.91,1.18,2.59-.68,1.49-.55,1.2.15,2.42.3.53.89,2.07.39,2.71-.2.26-2.27.83-2.81.92-1.12.19-3.38-.35-3.45-1.66,1.12-.37,2.03.4,2.78-.74.41-.63.19-2.72-.04-3.4-.57-1.66-1.6-1.06-2.73-.52-.2-.02-.4-.03-.61-.05-.39,0-.62.2-.68.6-.87.52-1.07.6-2.16.57-1.08-.03-3.19-.25-3.49,1.13-.25,1.17.32.6.62,1.16.41-.06.62.12.63.53.04.41-.02.81-.18,1.19-.21.7-.64.96-.37,1.73.43,1.24,1.4.83,2.25,1.12,2.77.94-1.08,4.1,1.66,5.65,1.02.57,2.6.12,2.92-1.02.35-1.24-.2-2.4,1.55-2.21.63.07.84.49,1.73.33.57-.1.45-.47,1.27-.47.62,0,1.27.2,1.73.59.47.39.34.56.69,1.02.66.88,1.72,2.7,2.71,3.04,2.49.86,1.1-1.63,2.06-2.31,1.03-.74,2.48.81,3.13,1.42,1.02.95,1.43,1.6,1.06,3.07-1.39.13-2.98.91-2.52,2.37.22.68,1.05,1.14.93,2.03-.08.61-.42,1.06-.69,1.63-.64,1.37-.2,2.6-.55,4.08-.33,1.45-1.96,2.5-1.7,4.03.14.82.35.84.96,1.35.78.65.76.11.8,1.49.05,1.77-.08,2.83,1.71,3.46,1.02.35,3.16.03,2.18,1.89-.28.54-.85.59-1.06,1.23-.13.42-.1,1.8.14,2.2.55.94,2.68,1.03,3.57.65.86-.37,1.43-1.32,2.39-1.62,1.4-.44,2.22-.33,1.53-1.9-.54-1.23-1.17-1.54-2.09-2.23-1.24-.92-.91-1.88-.92-3.37-.02-1.72.45-1.48,1.3-2.71.54-.78.78-2.76.16-3.62-.43-.6-.9-.31-1.46-.64-.66-.39-.84-.97-1.3-1.51-.78-.91-1.54-1.87-.95-3.22.51-1.16,1.36-1.49,1.68-2.91,1.03-4.59,3.24.78,5.76-1.12.53-.4.47-1,.82-1.48.31-.42.75-.64,1.03-1.1.48-.78,1.07-3.14,1.02-4.05-.03-.61-.18-1.26-.59-1.72-.57-.64-.35-.21-1.16-.53Z"/>
            <path class="cls-7" d="m702,228.59c1.12,2.54,2.13,4.6,4.67,5.88,2,1.01,6.36.99,7.92-.73.99-1.09.27-2.31,1.24-3.31,1.21-1.25,2.65-1.09,2.92-2.98.06-.42.11-1.38-.11-1.76-.36-.63-1.15-.67-1.5-1.36-.25-.49-.32-2.1-.14-2.65.19-.61.49-.47.76-.96.79-1.42.34-2.68-.17-4.18-.26-.75.08-.64-.39-1.29-.46-.63-1.22-.75-1.89-.99-1.65-.58-3.04-1.66-4.74-2.32-1.57-.61-4.44-1.69-6.14-1.69.43.96-.46,1.19-1.02,1.83-.46.53.09,1.05-.66,1.52-.32.2-1.3.12-1.68.17-.07.69.01,1.28-.49,1.81-.49.52-1.02.34-1.49.93-.55.7-.93,3.19-.99,4.05-.1,1.43.54,2.59.57,4.01.06,2.44,2.46,2.03,3.34,4.02Z"/>
            <path class="cls-7" d="m741.11,271.85c-.17-1.33-1.78-2.4-2.86-3.27-.96-.78-2.02-1.44-3.02-2.16-.74-.54-1.91-.82-2.2-1.69-.31-.92.39-1.79.56-2.61.18-.91-.02-1.48-.23-2.34-.36-1.51-.84-2.5-1.46-3.91-.38-.86-.49-1.85-1.11-2.51-.97-1.04-2.44-.56-3.58-1.11-2.11-1.02-3.26-2.79-5.09-4.15-1.22-.91-3.93-2.51-5.45-2.88-.74-.18-1.73,0-2.51,0-.8-.38-1.44.05-2.29.29-.69.19-1.48.15-2.21.37-.24,1.24-.13,1.26-.94,2.21-.6.7-1.12.9-.84,1.99.17.66.8,1.02,1.15,1.58.26.41.4,1.07.69,1.48.39.54.87.48,1.05,1.23.06.26-.04.85-.04,1.16-.04,1.36-.09,2.64.53,3.88.67,1.33,1.78,2.39,2.47,3.69.57,1.08,1.06,2.28,1.7,3.31.62,1,1.39,1.54.94,2.84-.61,1.77-3.07,2.57-3.44,4.51-.15.79.15,1.69.49,2.39.46.95,1.07,1.54,1.9,2.17.89.66,1.36,1.46,2.28,2.12,2.08,1.48,4.35,2.56,6.33,4.19,1.19.98,1.7,1.61,3.41,1.15.9-.24.73-.41,1.59-.33-.01,0,.51.45.67.49.84.19,1.88.24,2.77.41,1.46.28,3.59.4,4.84-.28.74-.4,2.23-1.27,2.78-1.86.67-.72.53-1.42.53-2.32,0-1.76.59-3.13.57-4.87-.02-1.67.24-3.51.03-5.16Z"/>
            <path class="cls-7" d="m698.09,521.97c.98-.28,1.5.24,1.78-1.1.12-.58-.12-1.14.07-1.74.51-1.61,2.43-1.19,3.35-2.55.44-.64.35-1.37.65-2.02.47-1.04,1.36-1.27,2.2-1.71,2.06-1.07.98-4.12,1.09-6.3.07-1.41.82-2.38,1.09-3.65.22-1.04.1-2.14.11-3.19.02-1.95-.48-4-1.27-5.78-.34-.76-1.96-3.5-2.72-3.93-.63-.35-1.59-.17-2.32-.5-.59-.27-1.07-.65-1.72-.76-.94-.16-3.59-.3-4.27.34-1.1,1.02-.23,3.29-2.54,3.23-.32.81.48,1.88.52,2.77.04.85-.02,1.72-.02,2.58,0,1.33.52,3.91-.57,4.87l1.15.57c-2.05-.55-1.73,2.2-1.72,3.31.02,1.6-.11,2.77-1,4.17-.79,1.25-1.25,1.82-1.29,3.41-.04,1.66.15,3.67.7,5.22.5,1.4,1.83,4.23,3.31,4.57,2.01.47,1.95-1.38,3.42-1.8Z"/>
            <path class="cls-7" d="m692.2,543.16c-.74-.83-1.39-.97-.88-2.24.46-1.15,2.15-1.84,2.57-2.91.34-.87,0-1.57-.5-2.42-.26-.44-2.52-3.46-2.74-1.56-1.8,1.15-2.85.93-3.47,1.12-.63.2-.76.65-1.25,1.05-.3.07-.59.14-.88.24-.17.35-.4.67-.68.94-.75.42-1.6-.12-2.36.5-.88.71-.22.96-.5,1.92-.22.74-.71.72-1.18,1.22-1.28,1.38-1.73,3.67-1.72,5.5,0,.76.12,1.67.02,2.42-.15,1.13-.93,1.34-1.24,2.41-.54,1.85,1.45,4.11,2.22,5.61.63,1.24,1.14,2.71,1.31,4,.24,1.92-.07,3.22,2.28,3.91,1.95.57,2.44-.72,3.97-1.04,1.75-.36,4.1.14,4.67-2.09.24-.95-.3-2.11-.08-3.06.19-.82.8-.97,1.09-1.69.57-1.45,0-3.61.09-5.17.09-1.84,1.43-3.02,1.2-4.99-.19-1.58-.91-2.51-1.93-3.65Z"/>
            <path class="cls-7" d="m689.75,579.6c-1.13-.92-2.09-1.52-2.95-2.71-.62-.86-1.26-2.11-2.45-2.17l-1.72.57c-1.54,0-1.69-.08-1.72,1.43-.03,1.04-.06,2.12,0,3.16.06,1.21.67,1.48,1.04,2.42.56,1.38-.37,1.75-1.06,2.74-1.66,2.39-.37,5.99,1.7,7.66,1.76,1.42,4.02,1.9,6.07.94,2.39-1.12,3.74-1.7,3.72-4.46-.01-2,.56-3.35.57-5.28.01-2.13-1.61-3-3.2-4.29Z"/>
            <path class="cls-7" d="m715.86,598.78c-.58.07-.77.24-1.26.43-.99.37-1.62.65-2.74.87-1.69.34-2.64.57-4.01,1.58l-1.15-1.15c-.9.19-1.46-.46-2.29-.6-.6-.1-1.4,0-2.01.03-2.36.09-.78,1-1.45,2.6-.48,1.14-2.08,1.23-2.78,2.32-.33.51-.45,1.39-.65,1.98-.09.25-.48,1.24-.51,1.47-.24,1.85,3.02,5.24,4.83,5.42.78.08,1.01-.34,1.54-.48.83-.21,1.62-.06,2.49-.11,1.39-.07,2.18-1.04,3.48-1.5,2.06-.73,5.41-.86,6.97-2.52.5-.53.51-.9,1.25-1.32.9-.51,1.71-.73,2.51-1.43.78-.69,1.01-1.52,1.68-2.28.99-1.12,1.08-1.2.57-2.56-1.11-2.93-3.51-3.12-6.46-2.75Z"/>
            <path class="cls-7" d="m653.07,426.87c-1.18.68-2.39.75-3.45,1.69-1.59,1.42-2.41,3.81-3.65,5.58-1.18,1.68-2.46,3.86-4.38,4.84.99-1.13,2.96-5.87,0-6.37-1.25-.21-1.25,1.31-1.75,1.99-.67.91-1.95,1.98-2.75,2.86-1.12,1.24-2.08,1.75-3.46,2.57-1.05.62-2,1.74-3.4,1.12-2.35-1.05-1.37-6.42-4.65-2.54-1,1.18-1.28,2.45-3.13,2.05-1.34-.29-2.4-1.74-2.75-3.03-.43-1.57-.37-2.45,1-3.14,2.37-1.2,1.58-2.64,2.87-4.66,1.01-1.58,2.63-3.17,3.91-4.54,1.53-1.63,1.64-3.94,3.07-5.48,1.83-1.98,4.43-3.24,6.15-5.4,1.23-1.55.46-3.53-.02-5.28-1.5-.08-3.19,3.3-3.9,4.39-1.6,2.47-3.62,3.99-5.61,6.01-.69.7-.95,1.21-1.85,1.74-1.27.74-1.77,1.56-2.63,2.76-1.27,1.78-2.44,3.58-3.58,5.46-.55.91-.58,2.13-1.84,2-1.91-.19-1.91-2.73-1.58-4.06.41-1.62.86-3.32,1.52-4.91,1.47-3.52,4.98-5.54,8.57-6.07.02-.71.52-.99.69-1.59.19-.7.09-1.02.4-1.75.49-1.13,1.19-2.02,2.1-2.84,1.64-1.48,3.24-2.06,4.37-4.04.8-1.4,1-2.21-.87-2.3-1.74-.08-2.78.32-3.76,1.86-.82,1.3-.28,1.35-1.67,1.59-.46.08-1.21.11-1.62-.12-3.21-1.88,3.86-3.33,1.06-5.35-2.08-1.5-5.82,1.4-7.07-1.52-.99-2.31-1.99-6.03.3-7.78.44-.34.74-.16,1.18-.66.4-.45.54-1.26.85-1.79.64-1.11,1.11-1.81.3-2.99-.82-1.2-1.81-1.04-1.89-2.71-.02-.5-.13-1.24-.02-1.75.13-.63.69-.88.7-1.62,1.48-.13,2.04,1.91,3.8.96.42-.23.55-.79,1.02-.99.52-.23,1.4-.05,1.96-.04,2.26.01,4.73.52,6.49-1.12,1.91-1.78,3.06-3.95,5.23-5.52,1.25-.91,2.02-1.89,1.34-3.55-.62-1.5-1.89-1.84-3.32-1.84-1.28,0-3.09.32-4.32.02-1.39-.34-.68-2.17-1.25-3.46-.52-1.19-1.06-1.91-2.14-2.58-1.26-.78-2.26-1.62-3.62-2.15-1.19-.46-2.53-.35-3.85-.72-1.36-.38-3.02-.51-4.31-.98-.81-.29-1.84-1.19-2.5-1.67-.85-.61-1.99-1.39-2.67-2.21-.83-1-1.27-2.02-2.53-2.61-1.12-.53-2.53-.25-3.74-.26-1.27-.02-1.93.5-3.15.57-1.55.08-2.37.46-2.04,2.29.42,2.36,2.65,3.15,2.33,5.75-.21,1.75-2.3,4.04-.04,5.3.55.31,1.41.27,1.73.73.23.34.02,1.28.02,1.69,0,1.05-.06,2.16-.7,3.02-.58.78-1.47,1.2-1.9,2.11-.54,1.15-.19,2.5-.25,3.75-.07,1.37-.82,2.25-1.5,3.39-.65,1.1-.99,2.22-1.51,3.36-.39.86-1.2,1.58-1.51,2.45-.56,1.55-.12,3.03-1.54,4.27-1.95,1.71-3.13,2.13-3.58,4.88-.18,1.11-.04,2.09-.44,3.14-.3.78-.77,1.58-1.18,2.31-.36.65-.85,1.53-1.42,2-.87.72-2.42.88-3.42,1.53-1.24.81-1.45,1.57-2.25,2.65-.36.49-.94.76-1.37,1.23-.62.66-.49,1.19-1.47,1.48-.5.15-1.21.29-1.73.42-.65.16-1.43-.08-2.03.15-.76.29-.66.87-1.15,1.43-1.21,1.4-2.88.19-3.87,1.85-.97,1.63.04,2.34,1.55,3.24,1.65.99,3.05,1.76,4.35,3.19,1.49,1.65,2.09,2.19,1.09,4.26-.43.89-1.32,1.68-1.65,2.63.92-1.3-.44-1.27-1.8-1.06.03,1.52-3.19,2.59-3.98,3.92-.71,1.2-.6,2.08-2.22,2.32-.81.12-1.53-.23-2.34.07-.56.2-1.17.76-1.75,1.02-2.26,1-3.5,3.19-5.61,4.58-.8.53-.95.66-1.79.51-1.08-.19-.84-.59-2.13-.37-1.63.28-3.72,1.05-5.24,1.61-1.8.66-2.34,2.84-1.81,4.82.28,1.06,1.35,1.83,1.61,2.89.49,2.03-1.2,3.01-2.67,3.82.06.75.86,1.05,1.24,1.74.48.87.42,1.74.43,2.71.02,1.34-.07,1.69-.94,2.66-.81.9-2.33,2.97-1.04,4.03.56.46,2.96.55,3.6.24.16-.08.16-.29.26-.41,1.44,2.77-1.93,2.24-3.23,3.13-.79.54-.46.77-1.02,1.46-1.16,1.4-2.53.65-3.81,1.4-1.31.78-.32,1.02-.73,2.17-.35.99-1.62,2.35-2.41,3.05-.88.78-2.24,1.02-2.69,2.25-.22.59-.19,1.96,0,2.56.32,1.02,1.67,2.75,2.74,3.17,1.44.57.6-.19,1.59-.6.81-.34,2.11.02,3.07-.22,1.2-.3,2.11-.71,3.45-.78,2.4-.13,5.6.8,3.34,3.66-1.97,2.5-4.01,1.07-6.79,1.58-.14.97.51,4.05-1.43,3.32-.58-.22-.68-.95-1.35-1.06-.55-.09-2.67,1.35-3.12,1.71-1.39,1.09-1.18,1.32-.07,2.26,1.62,1.39,2.68,3.01,3.33,5.11.68,2.2,1.03,5.04-1.93,4.72-1.62-.18-3.64-1.72-3.54-3.57.01-.27.55-.46.56-.58.04-.84-.32-2.03-.58-2.8-.42-1.22-2.26-3.76-3.86-3.4-.29,1.16,0,2.52-.02,3.71-.04,2.35-.6,4.61-.61,6.97,0,1.06-.11,1.5.54,2.31.82,1.01,1.64,2.13,2.5,3.18,1.72,2.11,1,7.13-2.45,6.78-1.18-.12-2.25-.85-3.49-.66-1.42.21-2.86.93-4.32,1.19-1.77.32-3.65.24-4.87,1.72-1.03,1.24-1,2.67-2.22,3.72-3.18,2.74-3.47,6.46-3.46,10.47,0,1.81.31,3.83-.09,5.6-.36,1.63-1.64,2.97-1.71,4.68-.06,1.4.61,2.89.65,4.33.05,1.46.09,2.81-.56,4.15-.7,1.45-.95,2.43-2.53,2.6-.65.07-1.39-.03-2.05-.03-2.37,0-3.63.3-5.67,1.71-1.61,1.12-2.36,6.86.2,6.3,2.53-.56,1.5-4.68,4.29-4.64,2.22.03,2.97,1.48,1.77,3.06-.78,1.01-1.07.78-1.18,2.16-.05.61-.05,1.77-.69,2.2-.78.53-2.17-.21-3.01.11-1.02.39-.71.75-.88,1.71-.13.77-.27.74-.57,1.39-.72,1.54-.72,3.29-.47,4.99.16,1.09.6,3.03,1.41,3.83.91.91,2.37.92,3.64.64,2.66-.57.87-2.8,2.32-4.24.63-.62,1.8-.44,2.25-1.2.26-.45.36-2.4.47-3.03.38-2.18-.35-4.6.96-6.58.59-.89,1.33-1.94,2.3-2.15.64-.14,1.46.32,2.07-.06,1.27-.8.33-3.01.09-4.05-.48-2.02.02-3.12.97-4.77.27-.46.49-.99.73-1.49.74-1.54,1.16-2.01,2.77-2.59,1.02-.37,1.74-.86,2.6-1.34,1.14-.64,1.95-.39,3.18-.55,1.9-.25,2.27-2.22,3.45-3.54,1.03-1.15,2.14-2.09,3.05-3.35.65-.9,1.1-1.9,1.79-2.77,1.25-1.59,1.32-1.88,1.39-4.01.07-2.1,1.77-5.42,2.98-7.01,1.12-1.47,1.99-2.22,2.61-3.99.49-1.4.64-2.06,2.16-2.54,1.53-.48,2.79-.23,4.12-1.3.81-.65,1.18-1.01,2.32-1.22.54-.1,1.29.09,1.8-.13.97-.43.92-1.11,1.53-1.96.52-.74,1.31-1.35,1.95-1.99.95-.95,1.87-2.16,3-2.9,1.11-.72,2.07-.92,2.63-2.24,1.53-3.62,3.97-7.15,6.66-10.07,1.47-1.6,3.39-2.72,4.84-4.31,1.08-1.18,1.97-2.67,2.82-4.03.98-1.55,1.3-2.59,3.12-3.44,1.04-.49,2.17-.94,3.04-1.69.92-.79.63-.74.79-1.83.21-1.42.89-2.86,1.49-4.17.66-1.44,1.69-2.56,2.46-3.91.41-.72.54-1.65.98-2.35.79-1.25,1.17-.75,2.43-.2,1.35.58,4.04,1.46,3.39,3.09-.6.22-1.08.59-1.45,1.1-.42.37-.75.81-.99,1.32-.65.99-1.12,2.02-1.33,3.18-.14.78-.53,3.24.43,3.74.65.34,2.81-.6,3.52-.6,1.17,0,2.4.17,3.43.76-.47.9-1.86,1.66-2.52,2.71-.89,1.42-1.68,2.07-2.89,3.16-.93.84-1.49,1.62-2.59,2.34-1.22.8-2.11,1.62-2.89,2.8-1.43,2.16-4.62,4.65-3.97,7.45.22.91.55.5.27,1.45-.16.55-.72,1.39-.95,2.02-1,2.68-3.39,3.36-5.41,5.15-.75.67-1.33,1.35-2.17,1.91-.67.45-.88.22-1.42,1.02-.35.52-.41,1.49-.64,2.08-.32.84-.8,1.44-1.22,2.22-.48.89-.5,1.65-.89,2.62-.67,1.68-2.41,2.96-3.67,4.18-1.43,1.4-2.38,2.64-3.27,4.43-.95,1.92-2.37,3.4-3.52,5.22-.98,1.55-.88,2.73-1.32,4.41-.31,1.2-1.32,2.13-1.89,3.2-.94,1.76-1.45,3.9-2.71,5.47-.88,1.09-2.24,1.58-3.21,2.56-1.64,1.66-1.74,4.36-3.32,5.95-.91.92-1.74,1.34-2.55,2.44-.58.78-.79,1.49-1.23,2.3-.68,1.26-1.53.98-2.39,1.82-1.06,1.02-.57,4.4.73,5.2,1.81,1.12,3.5.46,4.67-1.12.79-1.07.71-2.46,1.23-3.65.39-.89,1.07-1.6,1.61-2.39,1.34-1.96,2.28-3.89,3.17-6.06,1.41-3.43,4.36-6.11,6.57-9.01.95-1.25,2.11-2.33,3.39-3.25.88-.63,2.17-1.11,2.81-2,.59-.83.77-2.05,1.38-2.91.49-.69,1.14-1.19,1.72-1.8,1.02-1.08,1.68-2.38,2.79-3.37.91-.81,1.94-1.42,2.82-2.26,2.31-2.22,3.73-5,4.86-7.98,1.34-3.51,3.5-5.07,5.73-7.84.86-1.06,1.42-1.98,2.55-2.79,1.27-.92,2.4-1.94,3.37-3.19,1.39-1.79,2.34-3.73,3.52-5.59.66-1.05,1.23-1.79,1.72-2.98.52-1.25.97-2.13,1.95-3.12,1.55-1.58,2.33-2.87,3.22-4.92,1.04-2.42,2.75-4.56,4.01-6.89,1.59-2.96,4.19-4.58,7.12-5.99,3.46-1.67,6.02-4.68,9.37-6.62,1.15-.67,2.5-.83,3.6-1.5,1.42-.87,1.82-1.98,3.57-2.34,2.26-.48,2.97-1.8,4.3-3.6,1.07-1.45,2.23-2.77,3.6-3.94,2.41-2.07,3.29-4.77,4.82-7.46,1-1.76.83-4.26,1.32-6.23.4-1.61.56-3.31,1.12-4.86.76-2.11,3.17-2.84,4.75-4.41,1.21-1.2,2.15-2.06,3.59-2.98,1.18-.76,2.46-1.84,2.24-3.41-.01-.08-.59-2.01-.78-2.13-.69-.44-.88.2-1.37.49Zm-74.84,22.25c-.3.07-.6.13-.89.18-.24.41-.51.79-.83,1.14-.6.66-1.14,1.37-1.62,2.13-.45.43-.97.73-1.57.92-.46.53-.95,1.03-1.47,1.51-1.08.46-2.21.65-3.39.55-1.55.03-3.72.35-5.14-.32-2.25-1.06-2.53-.41-4.58.97-.67.45-4.35,2.08-3.86,3.23,1.52-.1,2.4,1.9,3.84,2.32,1.88.55,3.77-.51,5.61-.44,1.27.04,3.36.51,3.21,2.16-.1,1.06-1.85,3.73-2.86,4.06-1.24.41-1.2-.72-2.09-1.12-1.37-.62-3.27.23-4.79-.43-1.16-.5-.94-1.15-1.55-1.87-.74-.88-3.41-2.01-4.58-1.7.93-1.36-.48-4.66,1.18-6.05.88-.73,2.4-.31,3.44-1.14,1.11-.89,2.28-2.56,3.11-3.69,1.16-1.6.57-3.93,1.84-5.76,1.3-1.85,2.07-4.1,3.47-5.87,1-1.27,3.06-1.56,4.42-.49,1.2.94.61,1.35-.33,1.88-1.95,1.1-3.19,1.91-3.6,4.36-.16.92-.57,2.78.53,3.08,1.77.49,4.74-2.5,5.61-3.71,1.08-1.49,1.94-2.94,4.01-2.77-2.5.89-2.47,3.61-2.2,5.85,1.01-.64,4.26-3.44,5.2-1.27.18.41.15,1.88-.11,2.26Z"/>
            <path class="cls-7" d="m531.9,585.65c-.26.91.03.76-.54,1.69-.37.6-.66.82-1.13,1.26-1.28,1.21-2.26,2.22-2.76,4.02-.37,1.32-.38,2.63-.67,3.9-.28,1.21-.99,1.75-.49,3.22.93-1.23,1.43-2.53,2.05-3.98.38-.89.48-2.06,1.24-2.75.63-.57,1.2-.21,1.79-.5.94-.48.29-.85.5-1.78.1-.43.42-.65.59-1.04,1.06-2.42,2.07-4.54,3.48-6.83.72-1.17.98-2.52,1.82-3.55,1.17-1.44,1.63-1.78,1.59-3.88,0-.44-.16-1.31.12-1.73.41-.62,1-.43,1.47-.82,1.05-.85.69-2.08-2.74-1.59-1.1.24-1.59,1.65-2,2.56-.37.8-.48,1.65-1.18,2.22-.7.56-1.58.35-1.97,1.22-.25.57.09,1.43.01,2.04-.06.5-.38.9-.46,1.25-.36,1.68-.22,3.35-.72,5.08Z"/>
            <path class="cls-7" d="m507.97,624.71c.15-.68.46-1.22.44-2.13,0-.69-.3-2.01.09-2.62.93-1.48,5.36.53,5.71-1.06.13-.58-.61-1.89-.65-2.62-.04-.7-.25-1.95.55-2.34.82-.39,1.72.61,2.76.22.54-.2,1.68-1.11,1.88-1.58.1-.22-.04-.85.07-1.17.17-.49.87-1.16,1.21-1.59.47-.6.89-1.53,1.79-1.28.41.11,1.12,1.27,1.5,1.61.23.21.53.25.73.53.54.77.41,1.51.4,2.45-.01,1.78-.31,3.92.06,5.64,2.48.78,7.02-.25,5.27-3.48-.85-1.57-1.92-1.92-1.89-3.88.02-1.23-.17-2.35.41-3.47.59-1.14,1.09-2,.62-3.42-.48-1.43-1.39-1.72-2.75-1.7-.95.01-2.48-.35-3.32.11-.44.24-.79.87-1.23,1.17-.54.36-1.21.54-1.78.86-1.11.64-1.72,1.2-2.84.03-1.04-1.08-.08-1.71.01-3.03.14-1.99-.57-2.96-2.33-3.92-1.07-.58-1.94-1.22-2.69-2.22-.32-.43-.44-1.15-.83-1.51-.34-.31-1.46-.41-1.91-.6-1.62-.67-1.15-.86-.81-2.36.24-1.09.01-3.06-1.15-3.48-.78-.28-3.21-.08-3.94.14-.03.16-.07.32-.1.47.13.74-1.09,1.35-2.01,2.29-.94.96-1.04,1.76-.81,3.13.3,1.8,1.17,3.7,2.98,2.76.34-.18.61-.54.97-.74.36-.2,1.16-.27,1.58-.47.59.76,1.87.88,2.33,1.75.54,1.02.12,2.18.83,3.34.65,1.06,1.87,1.6,2.12,2.85.23,1.1.02,2.43.02,3.57,0,1.84.04,5.41-2.74,3.32-.98-.74-1.36-1.69-1.71-2.87-.21-.71-.45-1.56-.59-2.27-.18-.91.15-2.11-.09-2.95-.33-1.13-1.23-1.3-2.35-1.1-1.11.19-1.41.44-1.16,1.73.38,2.03,2.33,3.49,1.77,5.76-.21.85-.79,1.22-.61,2.28.17,1,.53,1.39,1.3,2.13,1.29,1.24,2.41,2.41.87,4-1.23,1.27-3.94,2.33-3.91,4.17.02,1.06.69,1.82.62,2.88-.05.93-.5,1.35-.61,2.27-.24,2.03.57,4.51,1.66,6.1.49.71.69,1.15,1.79.7.91-.38,1.98-1.76,2.46-2.65,1.03-1.93-.5-3.69-.04-5.73Z"/>
            <path class="cls-7" d="m540.23,624.03c-.84-1-.79-1.15-2.03-.74-.8.26-1.49.34-1.7,1.3l-1.72-2.29c-2.58-.18.54,4.75.58,5.73.11,2.34.08,4.71,1.72,6.54.58.64.78.93,1.7.93,1.11,0,1.27-.72,2.25-1.06,1.35-.46,2.48.04,3.72-.95.65-.51,1.85-1.25,2.09-2,.49-1.53-.08-3.86-2.06-3.5-1.13.21-2.68,2.07-3.59.48-.43-.74,0-1.94-.1-2.76-.11-.93-.28-.99-.87-1.69Z"/>
            <path class="cls-7" d="m530.65,682.91c.89-.63.12-.71,1.51-1.18,2.13-.72,3.21-.34,3.19-2.71,0-1.19,0-1.82-1.13-2.31-1.09-.47-1.96-.11-1.47-1.7.18-.58.78-1.01.91-1.73.1-.52-.03-1.19-.03-1.72,0-.41.21-1.37.04-1.76-.39-.87-.66-.36-1.47-.51-2.02-.38-2.1-2.05-3.14-3.63-1.12-1.69-1.73-2.06-2.83-.32-1.15,1.82-1.57,3.4-3.48,2.21-1.25-.78-.7-1.03-1.11-2.32-.47-1.49-3.32-2.09-4.61-2.37-.09-1.27,1.89-.92,1.75-2.48-.08-.91-.81-1.2-.58-2.22.21-.96,1.59-2.35,2.13-3.24.51-.83,1.18-2.32,2.33-2.22.16.61-.21,1.63.17,2.13.4.54,1.78.87,2.35,1.23,1.39.88,2.52,2.25,2.18,4.04-.35,1.87-1.17,2.35.53,3.58,1.21.87,3.61,1.99,3.55-.63.88-.16,1.82-.73,2.67-.74.59-1.25.23-3.19.65-4.54.41-1.29.98-1.36.03-2.84-.57-.89-1.43-1.34-1.12-2.51.19-.71,1.21-1.52,1.82-1.93,1.49-1.01,4.45-1.29,5.04.72.33,1.14.25,1.56,1.08,2.57,1.21,1.47,3.35,2.59,3.96,4.48,1.14,3.52-3.9.55-4.96,2.54-.86,1.62,3.31,3.34,4.2,4.46,1.13,1.4.73,2.8,1.25,4.47.45,1.44,1.29,3.09,2.46,4.07,1.08.9,1.94.8,3.15.3.55-.22.8-.67,1.42-.84.33-.09.88.02,1.27-.07,1-.24,1.95-1.06,2.97-1.36.57-.17,1.45-.13,1.95-.36.59-.27,1.82-1.46,1.89-2.16.27-2.6-3.58-2.61-4.94-3.16-.79-.32-.97-.95-1.56-1.35-.23-.15-.69-.07-.88-.24-.71-.65-.81-1.19-.73-2.14.2-2.27,2.05-4.28.75-6.49-.5-.84-1.52-1.43-2.11-2.14-.56-.67-.97-1.5-1.46-2.26-.62-.96-1.64-2.2-1.19-3.49.35-1,1.06-.9,1.77-1.54,1.54-1.4-.54-2.88-2.01-3.06-1.82-.22-3.82,2.14-3.74-1.08.03-1.26-.33-5.95-2.45-4.79-1.52.83-.99,3.32-3.52,2.43-3.09-1.09-3.24-5.62-5.37-7.49-2.32-2.04-2.03,2.12-3.55,2.78-.84-.26-.73-1.12-1.29-1.46-.38-.23-.88-.08-1.3-.09-1.02-.03-2.43-.31-3.16.58,2.26-3.02,2.23-3.18,2.19-3.34-.61-.18-1.59.2-2.09-.18-.22-.17-.74-2-.95-2.34-2.5-4.15-1.2,1.48-2.71,2.38-.69.41-1.44-.46-2.17-.43-.55.02-1.6.53-1.77,1-.41,1.09.74,1.65,1.23,2.34.68.96.53.95.28,1.98-.21.91-.57,2.22-.87,3.09-.41,1.17-.36,1.36-1.3.77-1.03-.64-.44-2.84-1.54-3.49-.71-.42-1.52-.16-1.79.47-.54,1.25.85,3.45-1.08,4.09-1.58.53-2.94-.39-4.56.64-.02.55.3,1.52.5,2.06.26.71.8,1.18,1.06,1.84.48,1.21-.22,2.63.2,3.87.23.69.85,1.12,1.02,1.87.13.57.04,1.15.03,1.73-.03,1.52.02,3.05,0,4.57-.03,1.83.3,3.02,1.73,4.25.75.65,1.67.71,2.43,1.28.94.7,1.32,2.26,1.03,3.38-.37,1.45-1.3.36-2.36,1.24-1.26,1.05.16,1.32.78,2.32.54.86.29,1.43.39,2.45.13,1.28.94,1.93,1.72,2.98,1.05,1.42,1.37,2.16,3.17,2.17,2.07.02,5.05-.73,6.28,1.42.7,1.23.3,3.23.31,4.62.01,1.46.36,3.25-1.63,3.21-1.31,2.92,1.18,9.52,5.09,8.55,1.32-.33,1.84-2.25,2.15-3.48.39-1.53.03-2.32-1.02-3.44-.87-.94-2.02-3.09-1.06-4.48.27-.39,1.13-.53,1.51-.8Z"/>
            <path class="cls-7" d="m533.39,703.85c-1.21,2.59,2.32-.97,2.81-1.5.67-.72,1.26-1.57,1.9-2.36-1.97.89-3.89,2.09-4.71,3.86Z"/>
            <path class="cls-7" d="m632.72,720.77c.19-1.46-3.18-4.19-4.11-4.93-.74-.59-1.26-1.43-1.97-2.02-1.32-1.1-3.39-1.19-5.04-.94-1.66.25-3.13.57-4.87.52-1.55-.05-2.67-.64-4.17-1.02-2.04-.51-2.78-.67-4.15-2.43-.69-.89-2.03-1.49-2.1-2.74-1.24-.1-3.54-1.5-4.34-2.52-.5-.62-.48-1.36-1.25-1.65-.85-.32-2.32.19-3.22.07-3.35-.48.37-5.57-2.53-6.89-.84-.38-2.43,0-3.36-.01-1.03-.01-1.76,0-2.7.5-1.01.53-.85.51-.83,1.77.02.97-.01,1.94,0,2.91,0,.75.28,1.93-.09,2.59-.36.65-1.56,1.29-2.18,1.71-1.27.85-2.57,1.14-4.08.71-.61-.18-1.42-.24-1.99-.42-.99-.33-.69-.17-.84-1.15-.12-.76-.04-1.31.4-1.89,1.04-1.36,3.35-1.23,4.78-1.52,1.49-.31,1.53-2.23.59-3.07-.69-.61-1.36-.39-1.23-1.56.15-1.29.85-.94,1.77-1.13,1.38-.28,2.14-.96,2.31-2.27.23-1.84.08-3.25-1.13-4.63-.77-.87-2.72-2.46-3.82-2.82-1.37-.46-3.33-.04-4.78-.04-.97,0-1.93-.02-2.9,0-1.74.03-2.76-.38-1.73-2.05.91-1.48,1.69-2.49.04-3.93-1.32-1.17-2.78.88-3.92.21-.85-.5-.45-2.52-.76-3.26-.43-1.01-1.53-1.79-2.53-2.18-1.03-.41-3.69-.29-3.13,1.48-1.74,1.3-1.66,2.25-2.41,3.38-.68-.16-1.45-.76-2.21-.57-.62.15-.6.69-1.09,1.06-.84.65-2.69,1.05-2.37,2.45.21.94,2.67,1.91,3.49,2.28,1.49.67,2.08,1.65,1.73,3.46-.24,1.25,0,.76-1.14,1.26-.42.19-.76.29-1.17.45-.96.38-1.14-.31-1.02.96.06.68.61,1.13.51,2.03-.16,1.41-1.5,3.02-2.92,3.33-1.43.32-2.1-.81-3.15-1.54-1.69-1.18-1.46-1.69-1.44-3.77.03-2.62-.42-4.79-2.65-6.45-1.67-1.24-4.23-1.93-6.3-1.42-3.62.9.84,3.59,1.61,5.09.72,1.41.46,3.1.01,4.55-.82,2.65-2.46,5.04-4.25,7.26,1.11-.5,2.23-.93,3.2-1.25,1.55-.5,3.54-1.23,5.19-.93,2.04.38,2.51,2.24,1.12,3.69-1.01,1.06-2.76,1.92-1.98,3.79.83,1.99,3.07.94,4.63,1.21,1.08.19,1.99.95,3.17.63,2.46-.68,1.55-3.94,3.55-5.35,2.28-1.61,2.45,1.91,1.47,3.19-.45.59-1.4.55-1.8,1.08-.32.43-.18,1.89-.11,2.36.15,1.07.48,2.13,1.16,2.72,1.86,1.61,5.69.1,8,.66,3.49.84,5.22,3.34,8.14,5.03,2.65,1.54,4.52,3.66,7.5,4.77,1.37.51,2.87.51,4.33.43,1.4-.07,2.23-.97,3.57-1.19,1.99-.33,4.26.5,6.21-.07.06-.32.13-.63.2-.95.72-.22,1.38.02,2.1-.2.07-.32.13-.63.2-.95.91-.26,1.85.01,2.78-.08,1.02-.11.93-.52,1.68-.89,1.06-.52,3.9-.57,5.08-.18.05,1.33,1.29,1.94,1.34,3.26.9.23,1.93-.18,2.8.06.74.2,1.16.93,1.97,1.13.47.12,2.04.28,2.49-.06.14-.1.23-.87.42-1.06.26-.28.75-.3,1.06-.54.86-.67.8-1.27,2.07-1.19,1.03.06,1.26.26,1.7,1.14.77,1.51,1.41,2.96,1.82,4.51,1.38.07,2.18,1.25,3.63,1.25,1.05,0,1.13-.41,1.98-.61.74-.17,1.51.17,2.26-.06.17-1.23-1.79-2.02-1.13-3.4.4-.84,1.94-1.11,2.85-1.18Z"/>
          </g>
        </g>
        <polygon class="cls-2" points="1.35 1166.15 527.49 1166.15 530.79 1080.7 485.9 965.69 511.19 937.45 558.64 911.13 580.06 916.88 603.72 918.96 613.46 919.03 621.17 915.86 626.2 909.59 635.49 896.09 640.4 875.84 635.66 858.93 615.63 838.33 608.64 815.19 605.3 796.46 604.8 771.16 609.21 763.21 613.18 751.1 616.22 737.34 622.08 733.35 621.38 727.73 615.31 727.05 605.41 726.88 595.06 725.23 585.01 724.08 576.8 732.37 551.99 721.91 541.86 720.54 520.05 710.28 510.15 694.08 493.54 666.48 489.16 636.33 489.16 571.09 503.75 547.28 514.36 504.19 517.72 486.81 534.89 451.41 530.53 444.12 524.71 430.46 526.19 396.8 535.87 363.05 556.66 358.58 544.22 341.58 536.06 307.36 508.48 245.91 426.76 209.3 393.73 177.35 381.48 152.52 374.34 122.83 381.48 112.49 380.64 102.25 378.64 91.38 311.34 2.8 1.35 2.8 1.35 1166.15"/>
        <g>
          <rect class="cls-12" x="1.71" y="2" width="876.66" height="1162.97"/>
          <line class="cls-12" x1="1.71" y1="971.14" x2="878.37" y2="971.14"/>
          <line class="cls-12" x1="1.71" y1="777.31" x2="878.37" y2="777.31"/>
          <line class="cls-12" x1="1.71" y1="583.49" x2="878.37" y2="583.49"/>
          <line class="cls-12" x1="1.71" y1="389.66" x2="878.37" y2="389.66"/>
          <line class="cls-12" x1="1.71" y1="195.83" x2="878.37" y2="195.83"/>
          <line class="cls-12" x1="732.26" y1="2" x2="732.26" y2="1164.97"/>
          <line class="cls-12" x1="586.15" y1="2" x2="586.15" y2="1164.97"/>
          <line class="cls-12" x1="440.04" y1="2" x2="440.04" y2="1164.97"/>
          <line class="cls-12" x1="293.93" y1="2" x2="293.93" y2="1164.97"/>
          <line class="cls-12" x1="147.82" y1="2" x2="147.82" y2="1164.97"/>
        </g>
        <g>
          <path class="cls-13" d="m634.73,896.89c0-4.23,3.47-7.71,7.73-7.71s7.71,3.47,7.71,7.71-3.47,7.73-7.71,7.73-7.73-3.47-7.73-7.73"/>
          <path class="cls-13" d="m703.12,535.79c0-4.23,3.47-7.71,7.73-7.71s7.71,3.47,7.71,7.71-3.47,7.73-7.71,7.73-7.73-3.47-7.73-7.73"/>
          <path class="cls-13" d="m623.25,356c0-4.23,3.47-7.71,7.71-7.71s7.73,3.47,7.73,7.71-3.47,7.73-7.73,7.73-7.71-3.47-7.71-7.73"/>
          <path class="cls-13" d="m575.3,513.55c0-4.23,3.47-7.71,7.73-7.71s7.71,3.47,7.71,7.71-3.47,7.73-7.71,7.73-7.73-3.47-7.73-7.73"/>
          <path class="cls-13" d="m617.15,458.38c0-4.25,3.47-7.73,7.73-7.73s7.71,3.47,7.71,7.73-3.47,7.71-7.71,7.71-7.73-3.47-7.73-7.71"/>
          <path class="cls-13" d="m617,729.55c0-4.23,3.47-7.71,7.71-7.71s7.73,3.47,7.73,7.71-3.47,7.73-7.73,7.73-7.71-3.47-7.71-7.73"/>
          <path class="cls-13" d="m599.01,526.68c0-4.23,3.47-7.71,7.73-7.71s7.71,3.47,7.71,7.71-3.47,7.73-7.71,7.73-7.73-3.47-7.73-7.73"/>
          <path class="cls-13" d="m669.63,542.91c0-4.23,3.47-7.71,7.71-7.71s7.73,3.47,7.73,7.71-3.47,7.73-7.73,7.73-7.71-3.47-7.71-7.73"/>
          <path class="cls-13" d="m628.91,690.26c0-4.25,3.47-7.73,7.71-7.73s7.73,3.47,7.73,7.73-3.47,7.71-7.73,7.71-7.71-3.47-7.71-7.71"/>
          <path class="cls-13" d="m590.65,345.53c0-4.23,3.47-7.71,7.71-7.71s7.73,3.47,7.73,7.71-3.47,7.73-7.73,7.73-7.71-3.47-7.71-7.73"/>
          <path class="cls-13" d="m614.59,733.54c0-4.25,3.47-7.73,7.71-7.73s7.73,3.47,7.73,7.73-3.47,7.71-7.73,7.71-7.71-3.47-7.71-7.71"/>
          <path class="cls-13" d="m678.53,214.87c0-4.25,3.47-7.73,7.71-7.73s7.73,3.47,7.73,7.73-3.47,7.71-7.73,7.71-7.71-3.47-7.71-7.71"/>
          <path class="cls-13" d="m601.5,353.89c0-4.25,3.47-7.73,7.71-7.73s7.73,3.47,7.73,7.73-3.47,7.71-7.73,7.71-7.71-3.47-7.71-7.71"/>
        </g>
        <rect class="cls-11" x="2" y="2" width="876.85" height="1163.35"/>
        <g class="cls-14">
          <g>
            <path class="cls-3" d="m641.98,90.33c-1.51.57-5.01,1.25-7.73,1.25-4.44,0-7.57-1.25-9.87-3.5-3.24-3.08-4.8-8.41-4.7-14.31.21-12.43,7.62-18.01,15.67-18.01,2.87,0,4.96.57,6.06,1.1l-1.3,6.94c-1.04-.52-2.4-.78-4.02-.78-4.75,0-7.99,3.08-7.99,11.49,0,7.41,2.92,10.29,5.64,10.29.31,0,.63,0,.89-.1v-7.15h-2.56v-6.58h9.92v19.37Z"/>
            <path class="cls-3" d="m667.72,72.89c0,13.32-4.8,18.8-11.91,18.8-8.88,0-11.7-9.4-11.7-18.12s3.66-17.91,12.17-17.91c9.55,0,11.43,10.55,11.43,17.23Zm-15.19.78c0,8.3,1.51,11.02,3.55,11.02,2.19,0,3.24-4.18,3.24-11.38,0-6.06-.84-10.65-3.29-10.65-1.98,0-3.5,3.29-3.5,11.02Z"/>
            <path class="cls-3" d="m670.8,56.08h8.09v28.35h8.62v6.84h-16.71v-35.19Z"/>
            <path class="cls-3" d="m690.38,56.08h16.13v7h-8.04v7.62h7.57v6.68h-7.57v13.89h-8.09v-35.19Z"/>
            <path class="cls-3" d="m732.62,72.89c0,13.32-4.8,18.8-11.91,18.8-8.88,0-11.7-9.4-11.7-18.12s3.66-17.91,12.17-17.91c9.55,0,11.43,10.55,11.43,17.23Zm-15.19.78c0,8.3,1.51,11.02,3.55,11.02,2.19,0,3.24-4.18,3.24-11.38,0-6.06-.84-10.65-3.29-10.65-1.98,0-3.5,3.29-3.5,11.02Z"/>
            <path class="cls-3" d="m743.01,56.6c1.78-.37,4.59-.68,7.62-.68,4.75,0,8.04,1.1,10.44,3.34,3.13,2.87,4.49,7.57,4.49,14.15s-1.78,12.06-5.17,14.93c-2.45,2.14-5.95,3.24-11.23,3.24-2.4,0-4.75-.26-6.16-.42v-34.57Zm8.04,28.3c.26.1.73.1,1.1.1,2.82,0,5.06-3.24,5.06-11.96,0-6.53-1.51-10.7-5.01-10.7-.42,0-.78,0-1.15.16v22.4Z"/>
            <path class="cls-3" d="m784.42,76.33h-7.68v7.94h8.62v7h-16.71v-35.19h16.13v7h-8.04v6.58h7.68v6.68Z"/>
            <path class="cls-3" d="m621.09,145.1c-.94.42-2.92.78-5.38.78-9.92,0-13.94-8.2-13.94-17.34,0-13,7.57-18.48,14.93-18.48,2.56,0,4.28.52,4.96.94l-1.25,6.79c-.78-.37-1.67-.68-3.03-.68-3.97,0-7.05,3.24-7.05,11.07,0,7.36,2.87,10.55,6.95,10.55.99,0,2.3-.21,3.13-.42l.68,6.79Z"/>
            <path class="cls-3" d="m630.86,138.63l-1.2,6.94h-7.83l7.47-35.19h9.82l6.42,35.19h-7.83l-1.15-6.94h-5.69Zm5.06-6.21l-.89-6.68c-.26-1.98-.73-5.8-1.04-7.99h-.1c-.37,2.19-.89,6.11-1.2,7.99l-1.04,6.68h4.28Z"/>
            <path class="cls-3" d="m648.09,110.38h8.09v28.35h8.62v6.84h-16.71v-35.19Z"/>
            <path class="cls-3" d="m675.76,110.38v35.19h-8.09v-35.19h8.09Z"/>
            <path class="cls-3" d="m680.67,110.38h16.13v7h-8.04v7.62h7.57v6.68h-7.57v13.89h-8.09v-35.19Z"/>
            <path class="cls-3" d="m722.91,127.19c0,13.32-4.8,18.8-11.91,18.8-8.88,0-11.7-9.4-11.7-18.12s3.66-17.91,12.17-17.91c9.55,0,11.43,10.55,11.43,17.23Zm-15.19.78c0,8.3,1.51,11.02,3.55,11.02,2.19,0,3.24-4.18,3.24-11.38,0-6.06-.84-10.65-3.29-10.65-1.98,0-3.5,3.29-3.5,11.02Z"/>
            <path class="cls-3" d="m725.99,110.9c2.35-.42,5.33-.68,8.2-.68,3.86,0,7.57.47,10.03,2.66,2.3,2.04,2.92,4.39,2.92,7.52,0,3.45-1.72,7-5.33,8.67v.1c2.3,1.04,3.45,3.13,4.07,6.58.63,3.5,1.67,8.46,2.35,9.82h-8.46c-.42-.94-1.25-4.59-1.72-8.3-.52-4.18-1.46-5.17-3.24-5.17h-.78v13.47h-8.04v-34.67Zm8.04,14.99h1.04c2.61,0,3.92-2.25,3.92-4.8s-.99-4.49-3.5-4.59c-.52,0-1.15.05-1.46.21v9.19Z"/>
            <path class="cls-3" d="m750.9,145.57v-35.19h7.36l4.96,12.64c.89,2.25,2.56,6.68,3.45,9.4h.1c-.21-2.87-.78-9.71-.78-16.34v-5.69h7.05v35.19h-7.36l-4.75-11.85c-1.1-2.72-2.72-7.36-3.34-9.97h-.1c.16,3.03.47,8.88.47,15.77v6.06h-7.05Z"/>
            <path class="cls-3" d="m786.04,110.38v35.19h-8.09v-35.19h8.09Z"/>
            <path class="cls-3" d="m797.11,138.63l-1.2,6.94h-7.83l7.47-35.19h9.82l6.42,35.19h-7.83l-1.15-6.94h-5.69Zm5.06-6.21l-.89-6.68c-.26-1.98-.73-5.8-1.04-7.99h-.1c-.37,2.19-.89,6.11-1.2,7.99l-1.04,6.68h4.28Z"/>
          </g>
        </g>
        <g class="cls-14">
          <g>
            <path class="cls-3" d="m174.73,524.39c3.28-.69,7.77-.99,12.58-.99s9.83.46,13.72,3.66c2.97,2.44,4.12,6.02,4.12,9.6,0,4.27-2.13,8.76-7.24,11.13v.3c5.95,1.75,8.92,6.71,8.92,11.89,0,4.27-1.37,7.54-3.81,10.06-3.12,3.35-8.54,5.41-18.29,5.41-3.81,0-7.39-.23-9.98-.61v-50.46Zm11.74,20.04h1.91c3.12,0,5.26-2.74,5.26-6.4,0-3.35-1.6-5.95-4.73-5.95-.99,0-1.83.08-2.44.31v12.04Zm0,21.88c.61.15,1.22.15,1.91.15,3.2,0,6.25-2.06,6.25-6.63s-2.9-6.71-6.17-6.71h-1.98v13.19Z"/>
            <path class="cls-3" d="m221.22,564.86l-1.75,10.14h-11.43l10.9-51.37h14.33l9.38,51.37h-11.43l-1.68-10.14h-8.31Zm7.39-9.07l-1.3-9.76c-.38-2.9-1.07-8.46-1.52-11.66h-.15c-.53,3.2-1.3,8.92-1.75,11.66l-1.52,9.76h6.25Z"/>
            <path class="cls-3" d="m253.99,523.63h11.81v34.14c0,16.23-8.23,17.83-15.47,17.83-2.29,0-4.42-.38-5.56-.84l.99-9.91c.99.3,2.06.46,3.43.46,2.36,0,4.8-.99,4.8-6.94v-34.75Z"/>
            <path class="cls-3" d="m281.28,564.86l-1.75,10.14h-11.43l10.9-51.37h14.33l9.38,51.37h-11.43l-1.68-10.14h-8.31Zm7.39-9.07l-1.3-9.76c-.38-2.9-1.07-8.46-1.52-11.66h-.15c-.53,3.2-1.3,8.92-1.75,11.66l-1.52,9.76h6.25Z"/>
            <path class="cls-3" d="m112.31,640.62c-1.37.61-4.27,1.14-7.85,1.14-14.48,0-20.35-11.97-20.35-25.3,0-18.98,11.05-26.98,21.8-26.98,3.73,0,6.25.76,7.24,1.37l-1.83,9.91c-1.14-.53-2.44-.99-4.42-.99-5.79,0-10.29,4.73-10.29,16.16,0,10.75,4.19,15.4,10.14,15.4,1.45,0,3.35-.3,4.57-.61l.99,9.91Z"/>
            <path class="cls-3" d="m126.56,631.17l-1.75,10.14h-11.43l10.9-51.37h14.33l9.38,51.37h-11.43l-1.68-10.14h-8.31Zm7.39-9.07l-1.3-9.76c-.38-2.9-1.07-8.46-1.52-11.66h-.15c-.53,3.2-1.3,8.92-1.75,11.66l-1.52,9.76h6.25Z"/>
            <path class="cls-3" d="m151.71,589.93h11.81v41.39h12.58v9.98h-24.39v-51.37Z"/>
            <path class="cls-3" d="m192.11,589.93v51.37h-11.81v-51.37h11.81Z"/>
            <path class="cls-3" d="m199.27,589.93h23.55v10.21h-11.74v11.13h11.05v9.76h-11.05v20.27h-11.81v-51.37Z"/>
            <path class="cls-3" d="m260.93,614.48c0,19.44-7.01,27.44-17.38,27.44-12.96,0-17.07-13.72-17.07-26.45s5.33-26.14,17.76-26.14c13.95,0,16.69,15.4,16.69,25.15Zm-22.18,1.14c0,12.12,2.21,16.08,5.18,16.08,3.2,0,4.72-6.1,4.72-16.62,0-8.84-1.22-15.55-4.8-15.55-2.9,0-5.11,4.8-5.11,16.08Z"/>
            <path class="cls-3" d="m265.42,590.7c3.43-.61,7.78-.99,11.97-.99,5.64,0,11.05.69,14.63,3.89,3.35,2.97,4.27,6.4,4.27,10.97,0,5.03-2.52,10.21-7.77,12.65v.15c3.35,1.52,5.03,4.57,5.94,9.6.92,5.11,2.44,12.35,3.43,14.33h-12.35c-.61-1.37-1.83-6.71-2.51-12.12-.76-6.1-2.13-7.55-4.73-7.55h-1.14v19.66h-11.74v-50.61Zm11.74,21.87h1.52c3.81,0,5.72-3.28,5.72-7.01s-1.45-6.55-5.11-6.71c-.76,0-1.68.08-2.13.3v13.41Z"/>
            <path class="cls-3" d="m301.78,641.31v-51.37h10.75l7.24,18.45c1.3,3.28,3.74,9.76,5.03,13.72h.15c-.3-4.19-1.14-14.18-1.14-23.86v-8.31h10.29v51.37h-10.75l-6.94-17.3c-1.6-3.96-3.96-10.75-4.88-14.56h-.15c.23,4.42.69,12.96.69,23.02v8.84h-10.29Z"/>
            <path class="cls-3" d="m353.07,589.93v51.37h-11.81v-51.37h11.81Z"/>
            <path class="cls-3" d="m369.23,631.17l-1.75,10.14h-11.43l10.9-51.37h14.33l9.38,51.37h-11.43l-1.68-10.14h-8.31Zm7.39-9.07l-1.3-9.76c-.38-2.9-1.07-8.46-1.52-11.66h-.15c-.53,3.2-1.3,8.92-1.75,11.66l-1.52,9.76h6.25Z"/>
            <path class="cls-3" d="m187.46,695.87c2.21,1.22,5.95,1.98,8.92,1.98,4.42,0,6.4-1.98,6.4-4.57,0-3.2-2.13-4.65-6.63-7.32-8.31-4.95-9.68-10.59-9.68-14.41,0-8.46,5.49-15.78,17.38-15.78,3.51,0,6.86.92,8.46,1.83l-1.68,10.14c-1.52-.91-3.73-1.75-6.71-1.75-3.96,0-5.87,2.06-5.87,4.42,0,2.21,1.07,3.66,6.86,6.94,7.09,3.96,9.45,9.38,9.45,14.63,0,9.68-7.24,16.08-18.06,16.08-4.42,0-8.54-.99-10.37-1.98l1.52-10.21Z"/>
            <path class="cls-3" d="m229.68,656.24v32.93c0,6.78,1.83,8.76,3.96,8.76s3.96-1.52,3.96-8.76v-32.93h11.81v30.79c0,13.19-4.8,21.19-15.7,21.19-12.04,0-15.85-8.46-15.85-21.34v-30.64h11.81Z"/>
            <path class="cls-3" d="m256.2,657c3.43-.61,7.77-.99,11.97-.99,5.64,0,11.05.69,14.63,3.89,3.35,2.97,4.27,6.4,4.27,10.97,0,5.03-2.52,10.21-7.77,12.65v.15c3.35,1.52,5.03,4.57,5.94,9.6.92,5.11,2.44,12.35,3.43,14.33h-12.35c-.61-1.37-1.83-6.71-2.52-12.12-.76-6.1-2.13-7.55-4.73-7.55h-1.14v19.66h-11.74v-50.61Zm11.74,21.87h1.53c3.81,0,5.72-3.28,5.72-7.01s-1.45-6.55-5.11-6.71c-.76,0-1.68.08-2.13.3v13.41Z"/>
          </g>
        </g>
        <g>
          <circle class="cls-8" cx="529.9" cy="394.27" r="29.88"/>
          <circle class="cls-5" cx="529.9" cy="394.27" r="19.72"/>
          <circle class="cls-4" cx="529.9" cy="394.27" r="11.88"/>
        </g>
        <g>
          <path class="cls-3" d="m429.8,316.56c-.87.39-2.7.72-4.97.72-9.16,0-12.87-7.57-12.87-16.01,0-12.01,6.99-17.07,13.79-17.07,2.36,0,3.95.48,4.58.87l-1.16,6.27c-.72-.34-1.54-.63-2.8-.63-3.66,0-6.51,2.99-6.51,10.22,0,6.8,2.65,9.74,6.41,9.74.92,0,2.12-.19,2.89-.39l.63,6.27Z"/>
          <path class="cls-3" d="m438.82,310.58l-1.11,6.41h-7.23l6.89-32.5h9.07l5.93,32.5h-7.23l-1.06-6.41h-5.26Zm4.68-5.74l-.82-6.17c-.24-1.83-.68-5.35-.96-7.38h-.1c-.34,2.03-.82,5.64-1.11,7.38l-.96,6.17h3.95Z"/>
          <path class="cls-3" d="m454.73,284.98c2.07-.43,4.92-.63,7.96-.63s6.22.29,8.68,2.31c1.88,1.54,2.6,3.81,2.6,6.08,0,2.7-1.35,5.55-4.58,7.04v.19c3.76,1.11,5.64,4.24,5.64,7.52,0,2.7-.87,4.77-2.41,6.37-1.98,2.12-5.4,3.42-11.57,3.42-2.41,0-4.68-.14-6.32-.39v-31.92Zm7.43,12.68h1.21c1.98,0,3.33-1.74,3.33-4.05,0-2.12-1.01-3.76-2.99-3.76-.63,0-1.16.05-1.54.19v7.62Zm0,13.84c.39.1.77.1,1.21.1,2.02,0,3.95-1.3,3.95-4.2s-1.83-4.24-3.91-4.24h-1.25v8.34Z"/>
          <path class="cls-3" d="m498.56,300.02c0,12.3-4.44,17.36-10.99,17.36-8.2,0-10.8-8.68-10.8-16.73s3.38-16.54,11.24-16.54c8.82,0,10.56,9.74,10.56,15.91Zm-14.03.72c0,7.67,1.4,10.17,3.28,10.17,2.03,0,2.99-3.86,2.99-10.51,0-5.59-.77-9.84-3.04-9.84-1.83,0-3.23,3.04-3.23,10.17Z"/>
          <path class="cls-3" d="m398.6,327.43c1.93-.39,4.58-.63,7.14-.63,4.1,0,7.23.48,9.55,2.56,2.07,1.78,2.94,4.58,2.94,7.28,0,3.76-1.21,6.46-3.09,8.34-2.12,2.02-5.5,2.89-8,2.89h-1.11v11.57h-7.43v-32.02Zm7.43,14.42c.29.05.58.05.87.05,2.99,0,3.95-2.22,3.95-4.58,0-2.6-1.06-4.53-3.47-4.53-.48,0-1.01.1-1.35.24v8.82Z"/>
          <path class="cls-3" d="m428.11,326.95v20.83c0,4.29,1.16,5.54,2.51,5.54s2.51-.96,2.51-5.54v-20.83h7.47v19.48c0,8.34-3.04,13.4-9.93,13.4-7.62,0-10.03-5.35-10.03-13.5v-19.38h7.47Z"/>
          <path class="cls-3" d="m444.89,326.95h7.47v26.18h7.96v6.32h-15.43v-32.5Z"/>
          <path class="cls-3" d="m482.93,349.22c-.15-2.6-.34-6.51-.29-9.93h-.1c-.53,3.42-1.4,7.47-1.83,9.45l-2.31,10.03h-5.4l-2.22-10.03c-.43-1.98-1.25-6.03-1.69-9.45h-.1c-.14,3.42-.39,7.33-.53,9.93l-.53,10.22h-6.32l2.51-32.5h7.81l2.07,10.42c.82,4.05,1.64,7.81,2.17,11.48h.1c.43-3.57,1.16-7.47,1.93-11.48l2.07-10.42h7.76l2.03,32.5h-6.61l-.53-10.22Z"/>
          <path class="cls-3" d="m513.6,342.47c0,12.3-4.44,17.36-10.99,17.36-8.2,0-10.8-8.68-10.8-16.73s3.38-16.54,11.24-16.54c8.82,0,10.56,9.74,10.56,15.91Zm-14.03.72c0,7.67,1.4,10.17,3.28,10.17,2.03,0,2.99-3.86,2.99-10.51,0-5.59-.77-9.84-3.04-9.84-1.83,0-3.23,3.04-3.23,10.17Z"/>
        </g>
        <g>
          <path class="cls-3" d="m625.65,1119.15l-.89,5.14h-5.8l5.53-26.07h7.27l4.76,26.07h-5.8l-.85-5.14h-4.22Zm3.75-4.6l-.66-4.95c-.19-1.47-.54-4.29-.77-5.92h-.08c-.27,1.62-.66,4.53-.89,5.92l-.77,4.95h3.17Z"/>
          <path class="cls-3" d="m638.41,1098.61c1.74-.31,3.95-.5,6.07-.5,2.86,0,5.61.35,7.43,1.97,1.7,1.51,2.17,3.25,2.17,5.57,0,2.55-1.28,5.18-3.95,6.42v.08c1.7.77,2.55,2.32,3.02,4.87.46,2.59,1.24,6.27,1.74,7.27h-6.27c-.31-.7-.93-3.4-1.28-6.15-.39-3.09-1.08-3.83-2.4-3.83h-.58v9.98h-5.96v-25.68Zm5.96,11.1h.77c1.93,0,2.9-1.66,2.9-3.56s-.74-3.33-2.59-3.4c-.39,0-.85.04-1.08.15v6.81Z"/>
          <path class="cls-3" d="m656.86,1098.61c1.74-.31,3.95-.5,6.07-.5,2.86,0,5.61.35,7.43,1.97,1.7,1.51,2.17,3.25,2.17,5.57,0,2.55-1.28,5.18-3.95,6.42v.08c1.7.77,2.55,2.32,3.02,4.87.46,2.59,1.24,6.27,1.74,7.27h-6.27c-.31-.7-.93-3.4-1.28-6.15-.39-3.09-1.08-3.83-2.4-3.83h-.58v9.98h-5.96v-25.68Zm5.96,11.1h.77c1.93,0,2.9-1.66,2.9-3.56s-.74-3.33-2.59-3.4c-.39,0-.85.04-1.08.15v6.81Z"/>
          <path class="cls-3" d="m686.99,1113.23h-5.69v5.88h6.38v5.18h-12.38v-26.07h11.95v5.18h-5.96v4.87h5.69v4.95Z"/>
          <path class="cls-3" d="m703.43,1123.95c-.7.31-2.17.58-3.98.58-7.35,0-10.33-6.07-10.33-12.84,0-9.63,5.61-13.69,11.06-13.69,1.9,0,3.17.39,3.67.7l-.93,5.03c-.58-.27-1.24-.5-2.24-.5-2.94,0-5.22,2.4-5.22,8.2,0,5.45,2.13,7.81,5.14,7.81.73,0,1.7-.15,2.32-.31l.5,5.03Z"/>
          <path class="cls-3" d="m711.32,1098.22v26.07h-6v-26.07h6Z"/>
          <path class="cls-3" d="m714.95,1098.22h11.95v5.18h-5.96v5.65h5.61v4.95h-5.61v10.29h-6v-26.07Z"/>
          <path class="cls-3" d="m741.8,1113.23h-5.69v5.88h6.38v5.18h-12.38v-26.07h11.95v5.18h-5.96v4.87h5.69v4.95Z"/>
          <path class="cls-3" d="m744.7,1118.34c1.12.62,3.02,1.01,4.53,1.01,2.24,0,3.25-1.01,3.25-2.32,0-1.62-1.08-2.36-3.37-3.71-4.22-2.51-4.91-5.38-4.91-7.31,0-4.29,2.79-8.01,8.82-8.01,1.78,0,3.48.46,4.29.93l-.85,5.14c-.77-.46-1.9-.89-3.4-.89-2.01,0-2.98,1.04-2.98,2.24,0,1.12.54,1.86,3.48,3.52,3.6,2.01,4.8,4.76,4.8,7.43,0,4.91-3.67,8.16-9.17,8.16-2.24,0-4.33-.5-5.26-1.01l.77-5.18Z"/>
        </g>
        <g>
          <path class="cls-3" d="m620.5,1070.34c1.12.62,3.02,1.01,4.53,1.01,2.24,0,3.25-1.01,3.25-2.32,0-1.62-1.08-2.36-3.37-3.71-4.22-2.51-4.91-5.38-4.91-7.31,0-4.29,2.79-8.01,8.82-8.01,1.78,0,3.48.46,4.29.93l-.85,5.14c-.77-.46-1.89-.89-3.4-.89-2.01,0-2.98,1.04-2.98,2.24,0,1.12.54,1.86,3.48,3.52,3.6,2.01,4.8,4.76,4.8,7.43,0,4.91-3.67,8.16-9.17,8.16-2.24,0-4.33-.5-5.26-1.01l.77-5.18Z"/>
          <path class="cls-3" d="m642.12,1050.22v26.07h-6v-26.07h6Z"/>
          <path class="cls-3" d="m648.47,1055.79h-4.53v-5.57h15.09v5.57h-4.56v20.5h-6v-20.5Z"/>
          <path class="cls-3" d="m666.84,1050.22v26.07h-6v-26.07h6Z"/>
          <path class="cls-3" d="m686.6,1062.68c0,9.86-3.56,13.92-8.82,13.92-6.58,0-8.66-6.96-8.66-13.42s2.71-13.27,9.01-13.27c7.08,0,8.47,7.81,8.47,12.77Zm-11.26.58c0,6.15,1.12,8.16,2.63,8.16,1.62,0,2.4-3.09,2.4-8.43,0-4.49-.62-7.89-2.44-7.89-1.47,0-2.59,2.44-2.59,8.16Z"/>
          <path class="cls-3" d="m688.3,1070.34c1.12.62,3.02,1.01,4.53,1.01,2.24,0,3.25-1.01,3.25-2.32,0-1.62-1.08-2.36-3.37-3.71-4.22-2.51-4.91-5.38-4.91-7.31,0-4.29,2.79-8.01,8.82-8.01,1.78,0,3.48.46,4.29.93l-.85,5.14c-.77-.46-1.9-.89-3.4-.89-2.01,0-2.98,1.04-2.98,2.24,0,1.12.54,1.86,3.48,3.52,3.6,2.01,4.8,4.76,4.8,7.43,0,4.91-3.67,8.16-9.17,8.16-2.24,0-4.33-.5-5.26-1.01l.77-5.18Z"/>
          <path class="cls-3" d="m709.35,1050.61c1.32-.27,3.4-.5,5.65-.5,3.52,0,5.96.81,7.74,2.48,2.32,2.13,3.33,5.61,3.33,10.48s-1.32,8.93-3.83,11.06c-1.82,1.59-4.41,2.4-8.32,2.4-1.78,0-3.52-.19-4.56-.31v-25.61Zm5.96,20.97c.19.08.54.08.81.08,2.09,0,3.75-2.4,3.75-8.86,0-4.83-1.12-7.93-3.71-7.93-.31,0-.58,0-.85.12v16.59Z"/>
          <path class="cls-3" d="m740.02,1065.23h-5.69v5.88h6.38v5.18h-12.38v-26.07h11.95v5.18h-5.96v4.87h5.69v4.95Z"/>
          <path class="cls-3" d="m748.91,1050.61c1.66-.35,3.95-.5,6.38-.5s4.99.23,6.96,1.86c1.51,1.24,2.09,3.06,2.09,4.87,0,2.17-1.08,4.45-3.67,5.65v.16c3.02.89,4.53,3.4,4.53,6.03,0,2.17-.7,3.83-1.93,5.11-1.59,1.7-4.33,2.75-9.28,2.75-1.93,0-3.75-.12-5.07-.31v-25.61Zm5.96,10.17h.97c1.59,0,2.67-1.39,2.67-3.25,0-1.7-.81-3.02-2.4-3.02-.5,0-.93.04-1.24.15v6.11Zm0,11.1c.31.08.62.08.97.08,1.62,0,3.17-1.04,3.17-3.37s-1.47-3.4-3.13-3.4h-1.01v6.69Z"/>
          <path class="cls-3" d="m773.74,1050.22v16.71c0,3.44.93,4.45,2.01,4.45s2.01-.77,2.01-4.45v-16.71h6v15.63c0,6.69-2.44,10.75-7.97,10.75-6.11,0-8.05-4.29-8.05-10.83v-15.55h6Z"/>
          <path class="cls-3" d="m800.16,1075.95c-.7.31-2.17.58-3.98.58-7.35,0-10.33-6.07-10.33-12.84,0-9.63,5.61-13.69,11.06-13.69,1.9,0,3.17.39,3.68.7l-.93,5.03c-.58-.27-1.24-.5-2.24-.5-2.94,0-5.22,2.4-5.22,8.2,0,5.45,2.13,7.81,5.14,7.81.74,0,1.7-.15,2.32-.31l.5,5.03Z"/>
          <path class="cls-3" d="m813.74,1065.23h-5.69v5.88h6.38v5.18h-12.38v-26.07h11.95v5.18h-5.96v4.87h5.69v4.95Z"/>
          <path class="cls-3" d="m833.35,1062.68c0,9.86-3.56,13.92-8.82,13.92-6.58,0-8.67-6.96-8.67-13.42s2.71-13.27,9.01-13.27c7.08,0,8.47,7.81,8.47,12.77Zm-11.26.58c0,6.15,1.12,8.16,2.63,8.16,1.62,0,2.4-3.09,2.4-8.43,0-4.49-.62-7.89-2.44-7.89-1.47,0-2.59,2.44-2.59,8.16Z"/>
        </g>
        <rect class="cls-7" x="578.59" y="1099.41" width="25.06" height="25.06"/>
        <g>
          <circle class="cls-9" cx="685.9" cy="215.13" r="16.87"/>
          <circle class="cls-5" cx="685.9" cy="215.13" r="13.06"/>
          <g>
            <path class="cls-9" d="m684.05,210.97c2.42,0,4.84,0,7.26,0,.79,0,1.22.43,1.23,1.23,0,1.07,0,2.14,0,3.2,0,1.98-1.47,3.71-3.43,4.02-.89.14-1.7,0-2.39-.62-.33-.3-.57-.67-.85-1-.31-.37-.6-.75-.9-1.11-.51-.62-1.35-.61-1.86,0-.48.59-.95,1.17-1.43,1.76-.72.89-1.65,1.16-2.74.96-1.74-.32-3.01-1.59-3.34-3.33-.06-.3-.06-.6-.06-.91,0-1.01,0-2.02,0-3.03,0-.73.44-1.17,1.18-1.17,2.45,0,4.89,0,7.34,0Z"/>
            <path class="cls-9" d="m681.78,219.41c.33-.31.6-.66.88-1,.32-.4.65-.79.96-1.19.28-.35.55-.35.84,0,.52.64,1.02,1.3,1.57,1.92.08.09.19.17.29.25-.01.02-.03.05-.04.07-.27,0-.54,0-.8,0-.33,0-.34,0-.27.33.29,1.37,1.07,2.31,2.42,2.73,1.79.55,3.7-.49,4.25-2.28.05-.18.08-.37.12-.55.03-.16,0-.25-.19-.23-.13.01-.27.02-.4-.03-.05-.02-.12-.03-.13-.09,0-.06.06-.08.1-.11.45-.34.83-.74,1.13-1.22.44-.68.71-1.42.76-2.23.07-1.23.04-2.47.02-3.71,0-.78-.38-1.36-1.1-1.68-.12-.05-.16-.13-.16-.25,0-.65-.02-1.31,0-1.96.02-.56-.04-1.12.02-1.69.04-.42.34-.7.76-.72.23-.01.47-.01.7,0,.4.02.7.31.75.71.02.13.02.27.02.41,0,2.94,0,5.89,0,8.83q0,.3.29.3c.56,0,.88.32.88.88,0,.57,0,1.14,0,1.71,0,.53-.32.85-.86.85-.05,0-.1,0-.16,0-.14-.02-.18.05-.19.19-.19,2.57-2.1,4.71-4.64,5.15-1.93.33-3.63-.21-5.03-1.59-.98-.97-1.51-2.16-1.61-3.54-.01-.16-.07-.21-.23-.21-.31,0-.62,0-.93,0,0-.02-.01-.03-.02-.05Z"/>
            <path class="cls-9" d="m684.05,208.87c1.02,0,2.04,0,3.07,0,.45,0,.77.18.95.59.09.21.21.42.32.62.06.11.02.17-.09.15-.48-.05-.97.03-1.45-.01-.07,0-.14-.01-.21,0-.56.05-1.12,0-1.68,0-.56,0-1.12.02-1.68,0-.58-.02-1.16.01-1.74.01-.57,0-1.15-.01-1.72-.01-.15,0-.14-.06-.09-.16.12-.24.24-.47.36-.71.19-.36.5-.48.89-.48,1.03,0,2.07,0,3.1,0Z"/>
          </g>
        </g>
        <g>
          <circle class="cls-9" cx="597.9" cy="345.13" r="16.87"/>
          <circle class="cls-5" cx="597.9" cy="345.13" r="13.06"/>
          <g>
            <path class="cls-9" d="m596.05,340.97c2.42,0,4.84,0,7.26,0,.79,0,1.22.43,1.23,1.23,0,1.07,0,2.14,0,3.2,0,1.98-1.47,3.71-3.43,4.02-.89.14-1.7,0-2.39-.62-.33-.3-.57-.67-.85-1-.31-.37-.6-.75-.9-1.11-.51-.62-1.35-.61-1.86,0-.48.59-.95,1.17-1.43,1.76-.72.89-1.65,1.16-2.74.96-1.74-.32-3.01-1.59-3.34-3.33-.06-.3-.06-.6-.06-.91,0-1.01,0-2.02,0-3.03,0-.73.44-1.17,1.18-1.17,2.45,0,4.89,0,7.34,0Z"/>
            <path class="cls-9" d="m593.78,349.41c.33-.31.6-.66.88-1,.32-.4.65-.79.96-1.19.28-.35.55-.35.84,0,.52.64,1.02,1.3,1.57,1.92.08.09.19.17.29.25-.01.02-.03.05-.04.07-.27,0-.54,0-.8,0-.33,0-.34,0-.27.33.29,1.37,1.07,2.31,2.42,2.73,1.79.55,3.7-.49,4.25-2.28.05-.18.08-.37.12-.55.03-.16,0-.25-.19-.23-.13.01-.27.02-.4-.03-.05-.02-.12-.03-.13-.09,0-.06.06-.08.1-.11.45-.34.83-.74,1.13-1.22.44-.68.71-1.42.76-2.23.07-1.23.04-2.47.02-3.71,0-.78-.38-1.36-1.1-1.68-.12-.05-.16-.13-.16-.25,0-.65-.02-1.31,0-1.96.02-.56-.04-1.12.02-1.69.04-.42.34-.7.76-.72.23-.01.47-.01.7,0,.4.02.7.31.75.71.02.13.02.27.02.41,0,2.94,0,5.89,0,8.83q0,.3.29.3c.56,0,.88.32.88.88,0,.57,0,1.14,0,1.71,0,.53-.32.85-.86.85-.05,0-.1,0-.16,0-.14-.02-.18.05-.19.19-.19,2.57-2.1,4.71-4.64,5.15-1.93.33-3.63-.21-5.03-1.59-.98-.97-1.51-2.16-1.61-3.54-.01-.16-.07-.21-.23-.21-.31,0-.62,0-.93,0,0-.02-.01-.03-.02-.05Z"/>
            <path class="cls-9" d="m596.05,338.87c1.02,0,2.04,0,3.07,0,.45,0,.77.18.95.59.09.21.21.42.32.62.06.11.02.17-.09.15-.48-.05-.97.03-1.45-.01-.07,0-.14-.01-.21,0-.56.05-1.12,0-1.68,0-.56,0-1.12.02-1.68,0-.58-.02-1.16.01-1.74.01-.57,0-1.15-.01-1.72-.01-.15,0-.14-.06-.09-.16.12-.24.24-.47.36-.71.19-.36.5-.48.89-.48,1.03,0,2.07,0,3.1,0Z"/>
          </g>
        </g>
        <g>
          <circle class="cls-9" cx="608.9" cy="354.13" r="16.87"/>
          <circle class="cls-5" cx="608.9" cy="354.13" r="13.06"/>
          <g>
            <path class="cls-9" d="m607.05,349.97c2.42,0,4.84,0,7.26,0,.79,0,1.22.43,1.23,1.23,0,1.07,0,2.14,0,3.2,0,1.98-1.47,3.71-3.43,4.02-.89.14-1.7,0-2.39-.62-.33-.3-.57-.67-.85-1-.31-.37-.6-.75-.9-1.11-.51-.62-1.35-.61-1.86,0-.48.59-.95,1.17-1.43,1.76-.72.89-1.65,1.16-2.74.96-1.74-.32-3.01-1.59-3.34-3.33-.06-.3-.06-.6-.06-.91,0-1.01,0-2.02,0-3.03,0-.73.44-1.17,1.18-1.17,2.45,0,4.89,0,7.34,0Z"/>
            <path class="cls-9" d="m604.78,358.41c.33-.31.6-.66.88-1,.32-.4.65-.79.96-1.19.28-.35.55-.35.84,0,.52.64,1.02,1.3,1.57,1.92.08.09.19.17.29.25-.01.02-.03.05-.04.07-.27,0-.54,0-.8,0-.33,0-.34,0-.27.33.29,1.37,1.07,2.31,2.42,2.73,1.79.55,3.7-.49,4.25-2.28.05-.18.08-.37.12-.55.03-.16,0-.25-.19-.23-.13.01-.27.02-.4-.03-.05-.02-.12-.03-.13-.09,0-.06.06-.08.1-.11.45-.34.83-.74,1.13-1.22.44-.68.71-1.42.76-2.23.07-1.23.04-2.47.02-3.71,0-.78-.38-1.36-1.1-1.68-.12-.05-.16-.13-.16-.25,0-.65-.02-1.31,0-1.96.02-.56-.04-1.12.02-1.69.04-.42.34-.7.76-.72.23-.01.47-.01.7,0,.4.02.7.31.75.71.02.13.02.27.02.41,0,2.94,0,5.89,0,8.83q0,.3.29.3c.56,0,.88.32.88.88,0,.57,0,1.14,0,1.71,0,.53-.32.85-.86.85-.05,0-.1,0-.16,0-.14-.02-.18.05-.19.19-.19,2.57-2.1,4.71-4.64,5.15-1.93.33-3.63-.21-5.03-1.59-.98-.97-1.51-2.16-1.61-3.54-.01-.16-.07-.21-.23-.21-.31,0-.62,0-.93,0,0-.02-.01-.03-.02-.05Z"/>
            <path class="cls-9" d="m607.05,347.87c1.02,0,2.04,0,3.07,0,.45,0,.77.18.95.59.09.21.21.42.32.62.06.11.02.17-.09.15-.48-.05-.97.03-1.45-.01-.07,0-.14-.01-.21,0-.56.05-1.12,0-1.68,0-.56,0-1.12.02-1.68,0-.58-.02-1.16.01-1.74.01-.57,0-1.15-.01-1.72-.01-.15,0-.14-.06-.09-.16.12-.24.24-.47.36-.71.19-.36.5-.48.89-.48,1.03,0,2.07,0,3.1,0Z"/>
          </g>
        </g>
        <g>
          <circle class="cls-9" cx="630.9" cy="356.13" r="16.87"/>
          <circle class="cls-5" cx="630.9" cy="356.13" r="13.06"/>
          <g>
            <path class="cls-9" d="m629.05,351.97c2.42,0,4.84,0,7.26,0,.79,0,1.22.43,1.23,1.23,0,1.07,0,2.14,0,3.2,0,1.98-1.47,3.71-3.43,4.02-.89.14-1.7,0-2.39-.62-.33-.3-.57-.67-.85-1-.31-.37-.6-.75-.9-1.11-.51-.62-1.35-.61-1.86,0-.48.59-.95,1.17-1.43,1.76-.72.89-1.65,1.16-2.74.96-1.74-.32-3.01-1.59-3.34-3.33-.06-.3-.06-.6-.06-.91,0-1.01,0-2.02,0-3.03,0-.73.44-1.17,1.18-1.17,2.45,0,4.89,0,7.34,0Z"/>
            <path class="cls-9" d="m626.78,360.41c.33-.31.6-.66.88-1,.32-.4.65-.79.96-1.19.28-.35.55-.35.84,0,.52.64,1.02,1.3,1.57,1.92.08.09.19.17.29.25-.01.02-.03.05-.04.07-.27,0-.54,0-.8,0-.33,0-.34,0-.27.33.29,1.37,1.07,2.31,2.42,2.73,1.79.55,3.7-.49,4.25-2.28.05-.18.08-.37.12-.55.03-.16,0-.25-.19-.23-.13.01-.27.02-.4-.03-.05-.02-.12-.03-.13-.09,0-.06.06-.08.1-.11.45-.34.83-.74,1.13-1.22.44-.68.71-1.42.76-2.23.07-1.23.04-2.47.02-3.71,0-.78-.38-1.36-1.1-1.68-.12-.05-.16-.13-.16-.25,0-.65-.02-1.31,0-1.96.02-.56-.04-1.12.02-1.69.04-.42.34-.7.76-.72.23-.01.47-.01.7,0,.4.02.7.31.75.71.02.13.02.27.02.41,0,2.94,0,5.89,0,8.83q0,.3.29.3c.56,0,.88.32.88.88,0,.57,0,1.14,0,1.71,0,.53-.32.85-.86.85-.05,0-.1,0-.16,0-.14-.02-.18.05-.19.19-.19,2.57-2.1,4.71-4.64,5.15-1.93.33-3.63-.21-5.03-1.59-.98-.97-1.51-2.16-1.61-3.54-.01-.16-.07-.21-.23-.21-.31,0-.62,0-.93,0,0-.02-.01-.03-.02-.05Z"/>
            <path class="cls-9" d="m629.05,349.87c1.02,0,2.04,0,3.07,0,.45,0,.77.18.95.59.09.21.21.42.32.62.06.11.02.17-.09.15-.48-.05-.97.03-1.45-.01-.07,0-.14-.01-.21,0-.56.05-1.12,0-1.68,0-.56,0-1.12.02-1.68,0-.58-.02-1.16.01-1.74.01-.57,0-1.15-.01-1.72-.01-.15,0-.14-.06-.09-.16.12-.24.24-.47.36-.71.19-.36.5-.48.89-.48,1.03,0,2.07,0,3.1,0Z"/>
          </g>
        </g>
        <g>
          <circle class="cls-9" cx="624.9" cy="458.13" r="16.87"/>
          <circle class="cls-5" cx="624.9" cy="458.13" r="13.06"/>
          <g>
            <path class="cls-9" d="m623.05,453.97c2.42,0,4.84,0,7.26,0,.79,0,1.22.43,1.23,1.23,0,1.07,0,2.14,0,3.2,0,1.98-1.47,3.71-3.43,4.02-.89.14-1.7,0-2.39-.62-.33-.3-.57-.67-.85-1-.31-.37-.6-.75-.9-1.11-.51-.62-1.35-.61-1.86,0-.48.59-.95,1.17-1.43,1.76-.72.89-1.65,1.16-2.74.96-1.74-.32-3.01-1.59-3.34-3.33-.06-.3-.06-.6-.06-.91,0-1.01,0-2.02,0-3.03,0-.73.44-1.17,1.18-1.17,2.45,0,4.89,0,7.34,0Z"/>
            <path class="cls-9" d="m620.78,462.41c.33-.31.6-.66.88-1,.32-.4.65-.79.96-1.19.28-.35.55-.35.84,0,.52.64,1.02,1.3,1.57,1.92.08.09.19.17.29.25-.01.02-.03.05-.04.07-.27,0-.54,0-.8,0-.33,0-.34,0-.27.33.29,1.37,1.07,2.31,2.42,2.73,1.79.55,3.7-.49,4.25-2.28.05-.18.08-.37.12-.55.03-.16,0-.25-.19-.23-.13.01-.27.02-.4-.03-.05-.02-.12-.03-.13-.09,0-.06.06-.08.1-.11.45-.34.83-.74,1.13-1.22.44-.68.71-1.42.76-2.23.07-1.23.04-2.47.02-3.71,0-.78-.38-1.36-1.1-1.68-.12-.05-.16-.13-.16-.25,0-.65-.02-1.31,0-1.96.02-.56-.04-1.12.02-1.69.04-.42.34-.7.76-.72.23-.01.47-.01.7,0,.4.02.7.31.75.71.02.13.02.27.02.41,0,2.94,0,5.89,0,8.83q0,.3.29.3c.56,0,.88.32.88.88,0,.57,0,1.14,0,1.71,0,.53-.32.85-.86.85-.05,0-.1,0-.16,0-.14-.02-.18.05-.19.19-.19,2.57-2.1,4.71-4.64,5.15-1.93.33-3.63-.21-5.03-1.59-.98-.97-1.51-2.16-1.61-3.54-.01-.16-.07-.21-.23-.21-.31,0-.62,0-.93,0,0-.02-.01-.03-.02-.05Z"/>
            <path class="cls-9" d="m623.05,451.87c1.02,0,2.04,0,3.07,0,.45,0,.77.18.95.59.09.21.21.42.32.62.06.11.02.17-.09.15-.48-.05-.97.03-1.45-.01-.07,0-.14-.01-.21,0-.56.05-1.12,0-1.68,0-.56,0-1.12.02-1.68,0-.58-.02-1.16.01-1.74.01-.57,0-1.15-.01-1.72-.01-.15,0-.14-.06-.09-.16.12-.24.24-.47.36-.71.19-.36.5-.48.89-.48,1.03,0,2.07,0,3.1,0Z"/>
          </g>
        </g>
        <g>
          <circle class="cls-9" cx="582.9" cy="513.13" r="16.87"/>
          <circle class="cls-5" cx="582.9" cy="513.13" r="13.06"/>
          <g>
            <path class="cls-9" d="m581.05,508.97c2.42,0,4.84,0,7.26,0,.79,0,1.22.43,1.23,1.23,0,1.07,0,2.14,0,3.2,0,1.98-1.47,3.71-3.43,4.02-.89.14-1.7,0-2.39-.62-.33-.3-.57-.67-.85-1-.31-.37-.6-.75-.9-1.11-.51-.62-1.35-.61-1.86,0-.48.59-.95,1.17-1.43,1.76-.72.89-1.65,1.16-2.74.96-1.74-.32-3.01-1.59-3.34-3.33-.06-.3-.06-.6-.06-.91,0-1.01,0-2.02,0-3.03,0-.73.44-1.17,1.18-1.17,2.45,0,4.89,0,7.34,0Z"/>
            <path class="cls-9" d="m578.78,517.41c.33-.31.6-.66.88-1,.32-.4.65-.79.96-1.19.28-.35.55-.35.84,0,.52.64,1.02,1.3,1.57,1.92.08.09.19.17.29.25-.01.02-.03.05-.04.07-.27,0-.54,0-.8,0-.33,0-.34,0-.27.33.29,1.37,1.07,2.31,2.42,2.73,1.79.55,3.7-.49,4.25-2.28.05-.18.08-.37.12-.55.03-.16,0-.25-.19-.23-.13.01-.27.02-.4-.03-.05-.02-.12-.03-.13-.09,0-.06.06-.08.1-.11.45-.34.83-.74,1.13-1.22.44-.68.71-1.42.76-2.23.07-1.23.04-2.47.02-3.71,0-.78-.38-1.36-1.1-1.68-.12-.05-.16-.13-.16-.25,0-.65-.02-1.31,0-1.96.02-.56-.04-1.12.02-1.69.04-.42.34-.7.76-.72.23-.01.47-.01.7,0,.4.02.7.31.75.71.02.13.02.27.02.41,0,2.94,0,5.89,0,8.83q0,.3.29.3c.56,0,.88.32.88.88,0,.57,0,1.14,0,1.71,0,.53-.32.85-.86.85-.05,0-.1,0-.16,0-.14-.02-.18.05-.19.19-.19,2.57-2.1,4.71-4.64,5.15-1.93.33-3.63-.21-5.03-1.59-.98-.97-1.51-2.16-1.61-3.54-.01-.16-.07-.21-.23-.21-.31,0-.62,0-.93,0,0-.02-.01-.03-.02-.05Z"/>
            <path class="cls-9" d="m581.05,506.87c1.02,0,2.04,0,3.07,0,.45,0,.77.18.95.59.09.21.21.42.32.62.06.11.02.17-.09.15-.48-.05-.97.03-1.45-.01-.07,0-.14-.01-.21,0-.56.05-1.12,0-1.68,0-.56,0-1.12.02-1.68,0-.58-.02-1.16.01-1.74.01-.57,0-1.15-.01-1.72-.01-.15,0-.14-.06-.09-.16.12-.24.24-.47.36-.71.19-.36.5-.48.89-.48,1.03,0,2.07,0,3.1,0Z"/>
          </g>
        </g>
        <g>
          <circle class="cls-9" cx="606.9" cy="527.13" r="16.87"/>
          <circle class="cls-5" cx="606.9" cy="527.13" r="13.06"/>
          <g>
            <path class="cls-9" d="m605.05,522.97c2.42,0,4.84,0,7.26,0,.79,0,1.22.43,1.23,1.23,0,1.07,0,2.14,0,3.2,0,1.98-1.47,3.71-3.43,4.02-.89.14-1.7,0-2.39-.62-.33-.3-.57-.67-.85-1-.31-.37-.6-.75-.9-1.11-.51-.62-1.35-.61-1.86,0-.48.59-.95,1.17-1.43,1.76-.72.89-1.65,1.16-2.74.96-1.74-.32-3.01-1.59-3.34-3.33-.06-.3-.06-.6-.06-.91,0-1.01,0-2.02,0-3.03,0-.73.44-1.17,1.18-1.17,2.45,0,4.89,0,7.34,0Z"/>
            <path class="cls-9" d="m602.78,531.41c.33-.31.6-.66.88-1,.32-.4.65-.79.96-1.19.28-.35.55-.35.84,0,.52.64,1.02,1.3,1.57,1.92.08.09.19.17.29.25-.01.02-.03.05-.04.07-.27,0-.54,0-.8,0-.33,0-.34,0-.27.33.29,1.37,1.07,2.31,2.42,2.73,1.79.55,3.7-.49,4.25-2.28.05-.18.08-.37.12-.55.03-.16,0-.25-.19-.23-.13.01-.27.02-.4-.03-.05-.02-.12-.03-.13-.09,0-.06.06-.08.1-.11.45-.34.83-.74,1.13-1.22.44-.68.71-1.42.76-2.23.07-1.23.04-2.47.02-3.71,0-.78-.38-1.36-1.1-1.68-.12-.05-.16-.13-.16-.25,0-.65-.02-1.31,0-1.96.02-.56-.04-1.12.02-1.69.04-.42.34-.7.76-.72.23-.01.47-.01.7,0,.4.02.7.31.75.71.02.13.02.27.02.41,0,2.94,0,5.89,0,8.83q0,.3.29.3c.56,0,.88.32.88.88,0,.57,0,1.14,0,1.71,0,.53-.32.85-.86.85-.05,0-.1,0-.16,0-.14-.02-.18.05-.19.19-.19,2.57-2.1,4.71-4.64,5.15-1.93.33-3.63-.21-5.03-1.59-.98-.97-1.51-2.16-1.61-3.54-.01-.16-.07-.21-.23-.21-.31,0-.62,0-.93,0,0-.02-.01-.03-.02-.05Z"/>
            <path class="cls-9" d="m605.05,520.87c1.02,0,2.04,0,3.07,0,.45,0,.77.18.95.59.09.21.21.42.32.62.06.11.02.17-.09.15-.48-.05-.97.03-1.45-.01-.07,0-.14-.01-.21,0-.56.05-1.12,0-1.68,0-.56,0-1.12.02-1.68,0-.58-.02-1.16.01-1.74.01-.57,0-1.15-.01-1.72-.01-.15,0-.14-.06-.09-.16.12-.24.24-.47.36-.71.19-.36.5-.48.89-.48,1.03,0,2.07,0,3.1,0Z"/>
          </g>
        </g>
        <g>
          <circle class="cls-9" cx="676.9" cy="543.13" r="16.87"/>
          <circle class="cls-5" cx="676.9" cy="543.13" r="13.06"/>
          <g>
            <path class="cls-9" d="m675.05,538.97c2.42,0,4.84,0,7.26,0,.79,0,1.22.43,1.23,1.23,0,1.07,0,2.14,0,3.2,0,1.98-1.47,3.71-3.43,4.02-.89.14-1.7,0-2.39-.62-.33-.3-.57-.67-.85-1-.31-.37-.6-.75-.9-1.11-.51-.62-1.35-.61-1.86,0-.48.59-.95,1.17-1.43,1.76-.72.89-1.65,1.16-2.74.96-1.74-.32-3.01-1.59-3.34-3.33-.06-.3-.06-.6-.06-.91,0-1.01,0-2.02,0-3.03,0-.73.44-1.17,1.18-1.17,2.45,0,4.89,0,7.34,0Z"/>
            <path class="cls-9" d="m672.78,547.41c.33-.31.6-.66.88-1,.32-.4.65-.79.96-1.19.28-.35.55-.35.84,0,.52.64,1.02,1.3,1.57,1.92.08.09.19.17.29.25-.01.02-.03.05-.04.07-.27,0-.54,0-.8,0-.33,0-.34,0-.27.33.29,1.37,1.07,2.31,2.42,2.73,1.79.55,3.7-.49,4.25-2.28.05-.18.08-.37.12-.55.03-.16,0-.25-.19-.23-.13.01-.27.02-.4-.03-.05-.02-.12-.03-.13-.09,0-.06.06-.08.1-.11.45-.34.83-.74,1.13-1.22.44-.68.71-1.42.76-2.23.07-1.23.04-2.47.02-3.71,0-.78-.38-1.36-1.1-1.68-.12-.05-.16-.13-.16-.25,0-.65-.02-1.31,0-1.96.02-.56-.04-1.12.02-1.69.04-.42.34-.7.76-.72.23-.01.47-.01.7,0,.4.02.7.31.75.71.02.13.02.27.02.41,0,2.94,0,5.89,0,8.83q0,.3.29.3c.56,0,.88.32.88.88,0,.57,0,1.14,0,1.71,0,.53-.32.85-.86.85-.05,0-.1,0-.16,0-.14-.02-.18.05-.19.19-.19,2.57-2.1,4.71-4.64,5.15-1.93.33-3.63-.21-5.03-1.59-.98-.97-1.51-2.16-1.61-3.54-.01-.16-.07-.21-.23-.21-.31,0-.62,0-.93,0,0-.02-.01-.03-.02-.05Z"/>
            <path class="cls-9" d="m675.05,536.87c1.02,0,2.04,0,3.07,0,.45,0,.77.18.95.59.09.21.21.42.32.62.06.11.02.17-.09.15-.48-.05-.97.03-1.45-.01-.07,0-.14-.01-.21,0-.56.05-1.12,0-1.68,0-.56,0-1.12.02-1.68,0-.58-.02-1.16.01-1.74.01-.57,0-1.15-.01-1.72-.01-.15,0-.14-.06-.09-.16.12-.24.24-.47.36-.71.19-.36.5-.48.89-.48,1.03,0,2.07,0,3.1,0Z"/>
          </g>
        </g>
        <g>
          <circle class="cls-9" cx="710.9" cy="536.13" r="16.87"/>
          <circle class="cls-5" cx="710.9" cy="536.13" r="13.06"/>
          <g>
            <path class="cls-9" d="m709.05,531.97c2.42,0,4.84,0,7.26,0,.79,0,1.22.43,1.23,1.23,0,1.07,0,2.14,0,3.2,0,1.98-1.47,3.71-3.43,4.02-.89.14-1.7,0-2.39-.62-.33-.3-.57-.67-.85-1-.31-.37-.6-.75-.9-1.11-.51-.62-1.35-.61-1.86,0-.48.59-.95,1.17-1.43,1.76-.72.89-1.65,1.16-2.74.96-1.74-.32-3.01-1.59-3.34-3.33-.06-.3-.06-.6-.06-.91,0-1.01,0-2.02,0-3.03,0-.73.44-1.17,1.18-1.17,2.45,0,4.89,0,7.34,0Z"/>
            <path class="cls-9" d="m706.78,540.41c.33-.31.6-.66.88-1,.32-.4.65-.79.96-1.19.28-.35.55-.35.84,0,.52.64,1.02,1.3,1.57,1.92.08.09.19.17.29.25-.01.02-.03.05-.04.07-.27,0-.54,0-.8,0-.33,0-.34,0-.27.33.29,1.37,1.07,2.31,2.42,2.73,1.79.55,3.7-.49,4.25-2.28.05-.18.08-.37.12-.55.03-.16,0-.25-.19-.23-.13.01-.27.02-.4-.03-.05-.02-.12-.03-.13-.09,0-.06.06-.08.1-.11.45-.34.83-.74,1.13-1.22.44-.68.71-1.42.76-2.23.07-1.23.04-2.47.02-3.71,0-.78-.38-1.36-1.1-1.68-.12-.05-.16-.13-.16-.25,0-.65-.02-1.31,0-1.96.02-.56-.04-1.12.02-1.69.04-.42.34-.7.76-.72.23-.01.47-.01.7,0,.4.02.7.31.75.71.02.13.02.27.02.41,0,2.94,0,5.89,0,8.83q0,.3.29.3c.56,0,.88.32.88.88,0,.57,0,1.14,0,1.71,0,.53-.32.85-.86.85-.05,0-.1,0-.16,0-.14-.02-.18.05-.19.19-.19,2.57-2.1,4.71-4.64,5.15-1.93.33-3.63-.21-5.03-1.59-.98-.97-1.51-2.16-1.61-3.54-.01-.16-.07-.21-.23-.21-.31,0-.62,0-.93,0,0-.02-.01-.03-.02-.05Z"/>
            <path class="cls-9" d="m709.05,529.87c1.02,0,2.04,0,3.07,0,.45,0,.77.18.95.59.09.21.21.42.32.62.06.11.02.17-.09.15-.48-.05-.97.03-1.45-.01-.07,0-.14-.01-.21,0-.56.05-1.12,0-1.68,0-.56,0-1.12.02-1.68,0-.58-.02-1.16.01-1.74.01-.57,0-1.15-.01-1.72-.01-.15,0-.14-.06-.09-.16.12-.24.24-.47.36-.71.19-.36.5-.48.89-.48,1.03,0,2.07,0,3.1,0Z"/>
          </g>
        </g>
        <g>
          <circle class="cls-9" cx="636.9" cy="690.13" r="16.87"/>
          <circle class="cls-5" cx="636.9" cy="690.13" r="13.06"/>
          <g>
            <path class="cls-9" d="m635.05,685.97c2.42,0,4.84,0,7.26,0,.79,0,1.22.43,1.23,1.23,0,1.07,0,2.14,0,3.2,0,1.98-1.47,3.71-3.43,4.02-.89.14-1.7,0-2.39-.62-.33-.3-.57-.67-.85-1-.31-.37-.6-.75-.9-1.11-.51-.62-1.35-.61-1.86,0-.48.59-.95,1.17-1.43,1.76-.72.89-1.65,1.16-2.74.96-1.74-.32-3.01-1.59-3.34-3.33-.06-.3-.06-.6-.06-.91,0-1.01,0-2.02,0-3.03,0-.73.44-1.17,1.18-1.17,2.45,0,4.89,0,7.34,0Z"/>
            <path class="cls-9" d="m632.78,694.41c.33-.31.6-.66.88-1,.32-.4.65-.79.96-1.19.28-.35.55-.35.84,0,.52.64,1.02,1.3,1.57,1.92.08.09.19.17.29.25-.01.02-.03.05-.04.07-.27,0-.54,0-.8,0-.33,0-.34,0-.27.33.29,1.37,1.07,2.31,2.42,2.73,1.79.55,3.7-.49,4.25-2.28.05-.18.08-.37.12-.55.03-.16,0-.25-.19-.23-.13.01-.27.02-.4-.03-.05-.02-.12-.03-.13-.09,0-.06.06-.08.1-.11.45-.34.83-.74,1.13-1.22.44-.68.71-1.42.76-2.23.07-1.23.04-2.47.02-3.71,0-.78-.38-1.36-1.1-1.68-.12-.05-.16-.13-.16-.25,0-.65-.02-1.31,0-1.96.02-.56-.04-1.12.02-1.69.04-.42.34-.7.76-.72.23-.01.47-.01.7,0,.4.02.7.31.75.71.02.13.02.27.02.41,0,2.94,0,5.89,0,8.83q0,.3.29.3c.56,0,.88.32.88.88,0,.57,0,1.14,0,1.71,0,.53-.32.85-.86.85-.05,0-.1,0-.16,0-.14-.02-.18.05-.19.19-.19,2.57-2.1,4.71-4.64,5.15-1.93.33-3.63-.21-5.03-1.59-.98-.97-1.51-2.16-1.61-3.54-.01-.16-.07-.21-.23-.21-.31,0-.62,0-.93,0,0-.02-.01-.03-.02-.05Z"/>
            <path class="cls-9" d="m635.05,683.87c1.02,0,2.04,0,3.07,0,.45,0,.77.18.95.59.09.21.21.42.32.62.06.11.02.17-.09.15-.48-.05-.97.03-1.45-.01-.07,0-.14-.01-.21,0-.56.05-1.12,0-1.68,0-.56,0-1.12.02-1.68,0-.58-.02-1.16.01-1.74.01-.57,0-1.15-.01-1.72-.01-.15,0-.14-.06-.09-.16.12-.24.24-.47.36-.71.19-.36.5-.48.89-.48,1.03,0,2.07,0,3.1,0Z"/>
          </g>
        </g>
        <g>
          <circle class="cls-9" cx="621.9" cy="733.13" r="16.87"/>
          <circle class="cls-5" cx="621.9" cy="733.13" r="13.06"/>
          <g>
            <path class="cls-9" d="m620.05,728.97c2.42,0,4.84,0,7.26,0,.79,0,1.22.43,1.23,1.23,0,1.07,0,2.14,0,3.2,0,1.98-1.47,3.71-3.43,4.02-.89.14-1.7,0-2.39-.62-.33-.3-.57-.67-.85-1-.31-.37-.6-.75-.9-1.11-.51-.62-1.35-.61-1.86,0-.48.59-.95,1.17-1.43,1.76-.72.89-1.65,1.16-2.74.96-1.74-.32-3.01-1.59-3.34-3.33-.06-.3-.06-.6-.06-.91,0-1.01,0-2.02,0-3.03,0-.73.44-1.17,1.18-1.17,2.45,0,4.89,0,7.34,0Z"/>
            <path class="cls-9" d="m617.78,737.41c.33-.31.6-.66.88-1,.32-.4.65-.79.96-1.19.28-.35.55-.35.84,0,.52.64,1.02,1.3,1.57,1.92.08.09.19.17.29.25-.01.02-.03.05-.04.07-.27,0-.54,0-.8,0-.33,0-.34,0-.27.33.29,1.37,1.07,2.31,2.42,2.73,1.79.55,3.7-.49,4.25-2.28.05-.18.08-.37.12-.55.03-.16,0-.25-.19-.23-.13.01-.27.02-.4-.03-.05-.02-.12-.03-.13-.09,0-.06.06-.08.1-.11.45-.34.83-.74,1.13-1.22.44-.68.71-1.42.76-2.23.07-1.23.04-2.47.02-3.71,0-.78-.38-1.36-1.1-1.68-.12-.05-.16-.13-.16-.25,0-.65-.02-1.31,0-1.96.02-.56-.04-1.12.02-1.69.04-.42.34-.7.76-.72.23-.01.47-.01.7,0,.4.02.7.31.75.71.02.13.02.27.02.41,0,2.94,0,5.89,0,8.83q0,.3.29.3c.56,0,.88.32.88.88,0,.57,0,1.14,0,1.71,0,.53-.32.85-.86.85-.05,0-.1,0-.16,0-.14-.02-.18.05-.19.19-.19,2.57-2.1,4.71-4.64,5.15-1.93.33-3.63-.21-5.03-1.59-.98-.97-1.51-2.16-1.61-3.54-.01-.16-.07-.21-.23-.21-.31,0-.62,0-.93,0,0-.02-.01-.03-.02-.05Z"/>
            <path class="cls-9" d="m620.05,726.87c1.02,0,2.04,0,3.07,0,.45,0,.77.18.95.59.09.21.21.42.32.62.06.11.02.17-.09.15-.48-.05-.97.03-1.45-.01-.07,0-.14-.01-.21,0-.56.05-1.12,0-1.68,0-.56,0-1.12.02-1.68,0-.58-.02-1.16.01-1.74.01-.57,0-1.15-.01-1.72-.01-.15,0-.14-.06-.09-.16.12-.24.24-.47.36-.71.19-.36.5-.48.89-.48,1.03,0,2.07,0,3.1,0Z"/>
          </g>
        </g>
        <g>
          <circle class="cls-9" cx="626.9" cy="727.13" r="16.87"/>
          <circle class="cls-5" cx="626.9" cy="727.13" r="13.06"/>
          <g>
            <path class="cls-9" d="m625.05,722.97c2.42,0,4.84,0,7.26,0,.79,0,1.22.43,1.23,1.23,0,1.07,0,2.14,0,3.2,0,1.98-1.47,3.71-3.43,4.02-.89.14-1.7,0-2.39-.62-.33-.3-.57-.67-.85-1-.31-.37-.6-.75-.9-1.11-.51-.62-1.35-.61-1.86,0-.48.59-.95,1.17-1.43,1.76-.72.89-1.65,1.16-2.74.96-1.74-.32-3.01-1.59-3.34-3.33-.06-.3-.06-.6-.06-.91,0-1.01,0-2.02,0-3.03,0-.73.44-1.17,1.18-1.17,2.45,0,4.89,0,7.34,0Z"/>
            <path class="cls-9" d="m622.78,731.41c.33-.31.6-.66.88-1,.32-.4.65-.79.96-1.19.28-.35.55-.35.84,0,.52.64,1.02,1.3,1.57,1.92.08.09.19.17.29.25-.01.02-.03.05-.04.07-.27,0-.54,0-.8,0-.33,0-.34,0-.27.33.29,1.37,1.07,2.31,2.42,2.73,1.79.55,3.7-.49,4.25-2.28.05-.18.08-.37.12-.55.03-.16,0-.25-.19-.23-.13.01-.27.02-.4-.03-.05-.02-.12-.03-.13-.09,0-.06.06-.08.1-.11.45-.34.83-.74,1.13-1.22.44-.68.71-1.42.76-2.23.07-1.23.04-2.47.02-3.71,0-.78-.38-1.36-1.1-1.68-.12-.05-.16-.13-.16-.25,0-.65-.02-1.31,0-1.96.02-.56-.04-1.12.02-1.69.04-.42.34-.7.76-.72.23-.01.47-.01.7,0,.4.02.7.31.75.71.02.13.02.27.02.41,0,2.94,0,5.89,0,8.83q0,.3.29.3c.56,0,.88.32.88.88,0,.57,0,1.14,0,1.71,0,.53-.32.85-.86.85-.05,0-.1,0-.16,0-.14-.02-.18.05-.19.19-.19,2.57-2.1,4.71-4.64,5.15-1.93.33-3.63-.21-5.03-1.59-.98-.97-1.51-2.16-1.61-3.54-.01-.16-.07-.21-.23-.21-.31,0-.62,0-.93,0,0-.02-.01-.03-.02-.05Z"/>
            <path class="cls-9" d="m625.05,720.87c1.02,0,2.04,0,3.07,0,.45,0,.77.18.95.59.09.21.21.42.32.62.06.11.02.17-.09.15-.48-.05-.97.03-1.45-.01-.07,0-.14-.01-.21,0-.56.05-1.12,0-1.68,0-.56,0-1.12.02-1.68,0-.58-.02-1.16.01-1.74.01-.57,0-1.15-.01-1.72-.01-.15,0-.14-.06-.09-.16.12-.24.24-.47.36-.71.19-.36.5-.48.89-.48,1.03,0,2.07,0,3.1,0Z"/>
          </g>
        </g>
        <g>
          <circle class="cls-9" cx="642.9" cy="897.13" r="16.87"/>
          <circle class="cls-5" cx="642.9" cy="897.13" r="13.06"/>
          <g>
            <path class="cls-9" d="m641.05,892.97c2.42,0,4.84,0,7.26,0,.79,0,1.22.43,1.23,1.23,0,1.07,0,2.14,0,3.2,0,1.98-1.47,3.71-3.43,4.02-.89.14-1.7,0-2.39-.62-.33-.3-.57-.67-.85-1-.31-.37-.6-.75-.9-1.11-.51-.62-1.35-.61-1.86,0-.48.59-.95,1.17-1.43,1.76-.72.89-1.65,1.16-2.74.96-1.74-.32-3.01-1.59-3.34-3.33-.06-.3-.06-.6-.06-.91,0-1.01,0-2.02,0-3.03,0-.73.44-1.17,1.18-1.17,2.45,0,4.89,0,7.34,0Z"/>
            <path class="cls-9" d="m638.78,901.41c.33-.31.6-.66.88-1,.32-.4.65-.79.96-1.19.28-.35.55-.35.84,0,.52.64,1.02,1.3,1.57,1.92.08.09.19.17.29.25-.01.02-.03.05-.04.07-.27,0-.54,0-.8,0-.33,0-.34,0-.27.33.29,1.37,1.07,2.31,2.42,2.73,1.79.55,3.7-.49,4.25-2.28.05-.18.08-.37.12-.55.03-.16,0-.25-.19-.23-.13.01-.27.02-.4-.03-.05-.02-.12-.03-.13-.09,0-.06.06-.08.1-.11.45-.34.83-.74,1.13-1.22.44-.68.71-1.42.76-2.23.07-1.23.04-2.47.02-3.71,0-.78-.38-1.36-1.1-1.68-.12-.05-.16-.13-.16-.25,0-.65-.02-1.31,0-1.96.02-.56-.04-1.12.02-1.69.04-.42.34-.7.76-.72.23-.01.47-.01.7,0,.4.02.7.31.75.71.02.13.02.27.02.41,0,2.94,0,5.89,0,8.83q0,.3.29.3c.56,0,.88.32.88.88,0,.57,0,1.14,0,1.71,0,.53-.32.85-.86.85-.05,0-.1,0-.16,0-.14-.02-.18.05-.19.19-.19,2.57-2.1,4.71-4.64,5.15-1.93.33-3.63-.21-5.03-1.59-.98-.97-1.51-2.16-1.61-3.54-.01-.16-.07-.21-.23-.21-.31,0-.62,0-.93,0,0-.02-.01-.03-.02-.05Z"/>
            <path class="cls-9" d="m641.05,890.87c1.02,0,2.04,0,3.07,0,.45,0,.77.18.95.59.09.21.21.42.32.62.06.11.02.17-.09.15-.48-.05-.97.03-1.45-.01-.07,0-.14-.01-.21,0-.56.05-1.12,0-1.68,0-.56,0-1.12.02-1.68,0-.58-.02-1.16.01-1.74.01-.57,0-1.15-.01-1.72-.01-.15,0-.14-.06-.09-.16.12-.24.24-.47.36-.71.19-.36.5-.48.89-.48,1.03,0,2.07,0,3.1,0Z"/>
          </g>
        </g>
        <g>
          <circle class="cls-9" cx="590.9" cy="1066.13" r="16.87"/>
          <circle class="cls-5" cx="590.9" cy="1066.13" r="13.06"/>
          <g>
            <path class="cls-9" d="m589.05,1061.97c2.42,0,4.84,0,7.26,0,.79,0,1.22.43,1.23,1.23,0,1.07,0,2.14,0,3.2,0,1.98-1.47,3.71-3.43,4.02-.89.14-1.7,0-2.39-.62-.33-.3-.57-.67-.85-1-.31-.37-.6-.75-.9-1.11-.51-.62-1.35-.61-1.86,0-.48.59-.95,1.17-1.43,1.76-.72.89-1.65,1.16-2.74.96-1.74-.32-3.01-1.59-3.34-3.33-.06-.3-.06-.6-.06-.91,0-1.01,0-2.02,0-3.03,0-.73.44-1.17,1.18-1.17,2.45,0,4.89,0,7.34,0Z"/>
            <path class="cls-9" d="m586.78,1070.41c.33-.31.6-.66.88-1,.32-.4.65-.79.96-1.19.28-.35.55-.35.84,0,.52.64,1.02,1.3,1.57,1.92.08.09.19.17.29.25-.01.02-.03.05-.04.07-.27,0-.54,0-.8,0-.33,0-.34,0-.27.33.29,1.37,1.07,2.31,2.42,2.73,1.79.55,3.7-.49,4.25-2.28.05-.18.08-.37.12-.55.03-.16,0-.25-.19-.23-.13.01-.27.02-.4-.03-.05-.02-.12-.03-.13-.09,0-.06.06-.08.1-.11.45-.34.83-.74,1.13-1.22.44-.68.71-1.42.76-2.23.07-1.23.04-2.47.02-3.71,0-.78-.38-1.36-1.1-1.68-.12-.05-.16-.13-.16-.25,0-.65-.02-1.31,0-1.96.02-.56-.04-1.12.02-1.69.04-.42.34-.7.76-.72.23-.01.47-.01.7,0,.4.02.7.31.75.71.02.13.02.27.02.41,0,2.94,0,5.89,0,8.83q0,.3.29.3c.56,0,.88.32.88.88,0,.57,0,1.14,0,1.71,0,.53-.32.85-.86.85-.05,0-.1,0-.16,0-.14-.02-.18.05-.19.19-.19,2.57-2.1,4.71-4.64,5.15-1.93.33-3.63-.21-5.03-1.59-.98-.97-1.51-2.16-1.61-3.54-.01-.16-.07-.21-.23-.21-.31,0-.62,0-.93,0,0-.02-.01-.03-.02-.05Z"/>
            <path class="cls-9" d="m589.05,1059.87c1.02,0,2.04,0,3.07,0,.45,0,.77.18.95.59.09.21.21.42.32.62.06.11.02.17-.09.15-.48-.05-.97.03-1.45-.01-.07,0-.14-.01-.21,0-.56.05-1.12,0-1.68,0-.56,0-1.12.02-1.68,0-.58-.02-1.16.01-1.74.01-.57,0-1.15-.01-1.72-.01-.15,0-.14-.06-.09-.16.12-.24.24-.47.36-.71.19-.36.5-.48.89-.48,1.03,0,2.07,0,3.1,0Z"/>
          </g>
        </g>
        <g>
          <path class="cls-3" d="m600.45,237.94h3.23v13.89h4.27v2.74h-7.5v-16.63Z"/>
          <path class="cls-3" d="m618.48,245.96c0,6.27-2.22,8.81-5.38,8.81-3.77,0-5.25-4-5.25-8.56s1.8-8.46,5.48-8.46c4.02,0,5.16,4.42,5.16,8.22Zm-7.28.3c0,3.78.71,5.7,2.02,5.7s1.88-2.47,1.88-5.85c0-2.91-.44-5.55-1.9-5.55-1.28,0-2,2.12-2,5.7Z"/>
          <path class="cls-3" d="m619.67,251.27c.67.37,1.8.64,2.74.64,1.53,0,2.27-.79,2.27-1.88,0-1.21-.74-1.8-2.15-2.71-2.27-1.38-3.13-3.13-3.13-4.64,0-2.67,1.78-4.89,5.26-4.89,1.09,0,2.12.3,2.62.59l-.52,2.79c-.47-.3-1.18-.57-2.12-.57-1.38,0-2.05.84-2.05,1.73,0,.99.49,1.5,2.29,2.59,2.2,1.33,3.01,3.01,3.01,4.76,0,3.04-2.25,5.03-5.5,5.03-1.33,0-2.64-.35-3.18-.67l.47-2.79Z"/>
          <path class="cls-3" d="m642.87,248.75c-.07-1.58-.2-3.73-.15-5.5h-.07c-.3,1.78-.74,3.82-1.06,5.11l-1.43,5.95h-2.29l-1.38-5.85c-.32-1.33-.76-3.41-1.01-5.21h-.07c-.05,1.8-.15,3.9-.25,5.55l-.27,5.77h-2.79l1.21-16.63h3.4l1.33,6.02c.47,2.1.89,3.95,1.18,5.82h.05c.25-1.85.62-3.73,1.06-5.82l1.31-6.02h3.4l1.01,16.63h-2.89l-.3-5.82Z"/>
          <path class="cls-3" d="m657.75,245.96c0,6.27-2.22,8.81-5.38,8.81-3.77,0-5.25-4-5.25-8.56s1.8-8.46,5.48-8.46c4.02,0,5.16,4.42,5.16,8.22Zm-7.28.3c0,3.78.71,5.7,2.02,5.7s1.88-2.47,1.88-5.85c0-2.91-.44-5.55-1.9-5.55-1.28,0-2,2.12-2,5.7Z"/>
          <path class="cls-3" d="m659.3,238.19c1.01-.2,2.29-.32,3.53-.32,1.78,0,3.36.25,4.44,1.23,1.01.91,1.31,2.02,1.31,3.46,0,1.78-.86,3.38-2.57,4.17v.05c1.13.44,1.7,1.5,2.02,3.28.32,1.85.77,3.9,1.06,4.52h-3.38c-.2-.47-.57-2.15-.81-3.97-.3-2.07-.81-2.66-1.9-2.66h-.47v6.64h-3.23v-16.38Zm3.23,7.25h.57c1.41,0,2.22-1.13,2.22-2.59s-.57-2.42-2.02-2.47c-.27,0-.59.03-.76.1v4.96Z"/>
          <path class="cls-3" d="m670.41,238.19c1.01-.2,2.29-.32,3.53-.32,1.78,0,3.36.25,4.44,1.23,1.01.91,1.31,2.02,1.31,3.46,0,1.78-.86,3.38-2.57,4.17v.05c1.13.44,1.7,1.5,2.02,3.28.32,1.85.77,3.9,1.06,4.52h-3.38c-.2-.47-.57-2.15-.81-3.97-.3-2.07-.81-2.66-1.9-2.66h-.47v6.64h-3.23v-16.38Zm3.23,7.25h.57c1.41,0,2.22-1.13,2.22-2.59s-.57-2.42-2.02-2.47c-.27,0-.59.03-.76.1v4.96Z"/>
          <path class="cls-3" d="m691.33,245.96c0,6.27-2.22,8.81-5.38,8.81-3.77,0-5.25-4-5.25-8.56s1.8-8.46,5.48-8.46c4.02,0,5.16,4.42,5.16,8.22Zm-7.28.3c0,3.78.71,5.7,2.02,5.7s1.88-2.47,1.88-5.85c0-2.91-.44-5.55-1.9-5.55-1.28,0-2,2.12-2,5.7Z"/>
          <path class="cls-3" d="m692.52,251.27c.67.37,1.8.64,2.74.64,1.53,0,2.27-.79,2.27-1.88,0-1.21-.74-1.8-2.15-2.71-2.27-1.38-3.13-3.13-3.13-4.64,0-2.67,1.78-4.89,5.26-4.89,1.09,0,2.12.3,2.62.59l-.52,2.79c-.47-.3-1.18-.57-2.12-.57-1.38,0-2.05.84-2.05,1.73,0,.99.49,1.5,2.29,2.59,2.2,1.33,3.01,3.01,3.01,4.76,0,3.04-2.25,5.03-5.5,5.03-1.33,0-2.64-.35-3.18-.67l.47-2.79Z"/>
        </g>
        <g>
          <path class="cls-3" d="m661.85,356.27h-3.8v4.49h4.29v2.81h-7.53v-16.63h7.23v2.81h-4v3.82h3.8v2.69Z"/>
          <path class="cls-3" d="m664.05,346.94h3.23v13.89h4.27v2.74h-7.5v-16.63Z"/>
          <path class="cls-3" d="m676.36,347.19c.99-.22,2.27-.32,3.68-.32,1.55,0,3.06.2,4.22,1.18.89.74,1.26,1.85,1.26,3.01,0,1.48-.76,2.91-2.42,3.63v.1c1.92.54,2.96,2.15,2.96,3.97,0,1.38-.44,2.44-1.23,3.26-.99,1.09-2.67,1.68-5.45,1.68-1.23,0-2.27-.07-3.01-.17v-16.33Zm3.23,6.59h.69c1.16,0,2.05-.99,2.05-2.34,0-1.21-.57-2.15-1.9-2.15-.34,0-.64.02-.84.1v4.39Zm0,7.38c.2.05.42.05.72.05,1.31,0,2.39-.79,2.39-2.49s-1.14-2.52-2.42-2.54h-.69v4.98Z"/>
          <path class="cls-3" d="m690.43,359.77l-.74,3.8h-3.13l3.6-16.63h3.87l3.23,16.63h-3.13l-.72-3.8h-2.99Zm2.69-2.52l-.54-3.48c-.17-1.01-.39-2.67-.54-3.78h-.07c-.17,1.11-.42,2.84-.59,3.8l-.62,3.45h2.37Z"/>
          <path class="cls-3" d="m700.97,346.94h3.26v11.33c0,4.79-2.32,5.5-4.69,5.5-.67,0-1.26-.1-1.63-.25l.27-2.71c.32.1.64.12,1.06.12.94,0,1.73-.37,1.73-2.52v-11.47Z"/>
          <path class="cls-3" d="m716.19,354.96c0,6.27-2.22,8.81-5.38,8.81-3.77,0-5.25-4-5.25-8.56s1.8-8.46,5.48-8.46c4.02,0,5.16,4.42,5.16,8.22Zm-7.28.3c0,3.78.71,5.7,2.02,5.7s1.88-2.47,1.88-5.85c0-2.91-.44-5.55-1.9-5.55-1.28,0-2,2.12-2,5.7Z"/>
        </g>
        <g>
          <path class="cls-3" d="m657.19,720.27h-3.8v4.49h4.29v2.81h-7.53v-16.63h7.23v2.81h-4v3.82h3.8v2.69Z"/>
          <path class="cls-3" d="m659.39,710.94h3.23v13.89h4.27v2.74h-7.5v-16.63Z"/>
          <path class="cls-3" d="m674.93,710.94v16.63h-3.23v-16.63h3.23Z"/>
          <path class="cls-3" d="m676.96,724.27c.67.37,1.8.64,2.74.64,1.53,0,2.27-.79,2.27-1.88,0-1.21-.74-1.8-2.15-2.71-2.27-1.38-3.13-3.13-3.13-4.64,0-2.67,1.78-4.89,5.25-4.89,1.09,0,2.12.3,2.62.59l-.52,2.79c-.47-.3-1.18-.57-2.12-.57-1.38,0-2.05.84-2.05,1.73,0,.99.49,1.5,2.29,2.59,2.2,1.33,3.01,3.01,3.01,4.76,0,3.04-2.25,5.03-5.5,5.03-1.33,0-2.64-.35-3.18-.67l.47-2.79Z"/>
          <path class="cls-3" d="m686.56,710.94h3.23v13.89h4.27v2.74h-7.5v-16.63Z"/>
          <path class="cls-3" d="m704.59,718.96c0,6.27-2.22,8.81-5.38,8.81-3.77,0-5.25-4-5.25-8.56s1.8-8.46,5.48-8.46c4.02,0,5.16,4.42,5.16,8.22Zm-7.28.3c0,3.78.71,5.7,2.02,5.7s1.88-2.47,1.88-5.85c0-2.91-.44-5.55-1.9-5.55-1.28,0-2,2.12-2,5.7Z"/>
          <path class="cls-3" d="m707.78,713.93h-2.94v-2.99h9.13v2.99h-2.96v13.64h-3.23v-13.64Z"/>
          <path class="cls-3" d="m722.21,720.27h-3.8v4.49h4.29v2.81h-7.53v-16.63h7.23v2.81h-4v3.82h3.8v2.69Z"/>
        </g>
        <g>
          <path class="cls-3" d="m704.15,569.77l-.74,3.8h-3.13l3.6-16.63h3.87l3.23,16.63h-3.13l-.72-3.8h-2.99Zm2.69-2.52l-.54-3.48c-.17-1.01-.39-2.67-.54-3.78h-.07c-.17,1.11-.42,2.84-.59,3.8l-.62,3.45h2.37Z"/>
          <path class="cls-3" d="m712.32,557.19c1.01-.2,2.29-.32,3.53-.32,1.78,0,3.36.25,4.44,1.23,1.01.91,1.31,2.02,1.31,3.46,0,1.78-.86,3.38-2.57,4.17v.05c1.13.44,1.7,1.5,2.02,3.28.32,1.85.77,3.9,1.06,4.52h-3.38c-.2-.47-.57-2.15-.81-3.97-.3-2.07-.81-2.66-1.9-2.66h-.47v6.64h-3.23v-16.38Zm3.23,7.25h.57c1.41,0,2.22-1.13,2.22-2.59s-.57-2.42-2.02-2.47c-.27,0-.59.03-.76.1v4.96Z"/>
          <path class="cls-3" d="m723.43,557.19c1.01-.2,2.29-.32,3.53-.32,1.78,0,3.36.25,4.44,1.23,1.01.91,1.31,2.02,1.31,3.46,0,1.78-.86,3.38-2.57,4.17v.05c1.13.44,1.7,1.5,2.02,3.28.32,1.85.77,3.9,1.06,4.52h-3.38c-.2-.47-.57-2.15-.81-3.97-.3-2.07-.81-2.66-1.9-2.66h-.47v6.64h-3.23v-16.38Zm3.23,7.25h.57c1.41,0,2.22-1.13,2.22-2.59s-.57-2.42-2.02-2.47c-.27,0-.59.03-.76.1v4.96Z"/>
          <path class="cls-3" d="m741.56,566.27h-3.8v4.49h4.29v2.81h-7.53v-16.63h7.23v2.81h-4v3.82h3.8v2.69Z"/>
          <path class="cls-3" d="m751.73,573.33c-.47.22-1.38.4-2.52.4-4.24,0-6.27-3.5-6.27-8.22,0-6.27,3.48-8.71,6.71-8.71,1.13,0,1.92.22,2.25.44l-.54,2.71c-.37-.17-.79-.32-1.5-.32-1.83,0-3.48,1.58-3.48,5.7s1.5,5.53,3.48,5.53c.54,0,1.16-.12,1.55-.25l.32,2.71Z"/>
          <path class="cls-3" d="m756.25,556.94v16.63h-3.23v-16.63h3.23Z"/>
          <path class="cls-3" d="m758.64,556.94h7.23v2.81h-4v4.27h3.75v2.69h-3.75v6.86h-3.23v-16.63Z"/>
          <path class="cls-3" d="m774.86,566.27h-3.8v4.49h4.29v2.81h-7.53v-16.63h7.23v2.81h-4v3.82h3.8v2.69Z"/>
          <path class="cls-3" d="m717.76,589.59c-.07-1.58-.2-3.73-.15-5.5h-.07c-.3,1.78-.74,3.82-1.06,5.11l-1.43,5.95h-2.29l-1.38-5.85c-.32-1.33-.76-3.41-1.01-5.21h-.07c-.05,1.8-.15,3.9-.25,5.55l-.27,5.77h-2.79l1.21-16.63h3.4l1.33,6.02c.47,2.1.89,3.95,1.18,5.82h.05c.25-1.85.62-3.73,1.06-5.82l1.31-6.02h3.4l1.01,16.63h-2.89l-.3-5.82Z"/>
          <path class="cls-3" d="m725.46,591.62l-.74,3.8h-3.13l3.6-16.63h3.87l3.23,16.63h-3.13l-.72-3.8h-2.99Zm2.69-2.52l-.54-3.48c-.17-1.01-.39-2.67-.54-3.78h-.07c-.17,1.11-.42,2.84-.59,3.8l-.62,3.45h2.37Z"/>
          <path class="cls-3" d="m733.63,579.03c1.01-.2,2.29-.32,3.53-.32,1.78,0,3.36.25,4.44,1.23,1.01.91,1.31,2.02,1.31,3.46,0,1.78-.86,3.38-2.57,4.17v.05c1.13.44,1.7,1.5,2.02,3.28.32,1.85.77,3.9,1.06,4.52h-3.38c-.2-.47-.57-2.15-.81-3.97-.3-2.07-.81-2.66-1.9-2.66h-.47v6.64h-3.23v-16.38Zm3.23,7.25h.57c1.41,0,2.22-1.14,2.22-2.59s-.57-2.42-2.02-2.47c-.27,0-.59.03-.76.1v4.96Z"/>
          <path class="cls-3" d="m747.97,578.79v16.63h-3.23v-16.63h3.23Z"/>
          <path class="cls-3" d="m760.18,586.8c0,6.27-2.22,8.81-5.38,8.81-3.77,0-5.25-4-5.25-8.56s1.8-8.46,5.48-8.46c4.02,0,5.16,4.42,5.16,8.22Zm-7.28.3c0,3.78.71,5.7,2.02,5.7s1.88-2.47,1.88-5.85c0-2.91-.44-5.55-1.9-5.55-1.28,0-2,2.12-2,5.7Z"/>
          <path class="cls-3" d="m761.37,592.11c.67.37,1.8.64,2.74.64,1.53,0,2.27-.79,2.27-1.88,0-1.21-.74-1.8-2.15-2.71-2.27-1.38-3.13-3.13-3.13-4.64,0-2.67,1.78-4.89,5.26-4.89,1.09,0,2.12.3,2.62.59l-.52,2.79c-.47-.3-1.18-.57-2.12-.57-1.38,0-2.05.84-2.05,1.73,0,.99.49,1.5,2.29,2.59,2.2,1.33,3.01,3.01,3.01,4.76,0,3.04-2.25,5.03-5.5,5.03-1.33,0-2.64-.35-3.18-.67l.47-2.79Z"/>
        </g>
        <g>
          <path class="cls-3" d="m567.25,618.94h3.23v13.89h4.27v2.74h-7.5v-16.63Z"/>
          <path class="cls-3" d="m578.98,631.77l-.74,3.8h-3.13l3.6-16.63h3.87l3.23,16.63h-3.13l-.72-3.8h-2.99Zm2.69-2.52l-.54-3.48c-.17-1.01-.39-2.67-.54-3.78h-.07c-.17,1.11-.42,2.84-.59,3.8l-.62,3.45h2.37Z"/>
          <path class="cls-3" d="m597.61,628.27h-3.8v4.49h4.29v2.81h-7.53v-16.63h7.23v2.81h-4v3.82h3.8v2.69Z"/>
          <path class="cls-3" d="m599.43,632.27c.67.37,1.8.64,2.74.64,1.53,0,2.27-.79,2.27-1.88,0-1.21-.74-1.8-2.15-2.71-2.27-1.38-3.13-3.13-3.13-4.64,0-2.67,1.78-4.89,5.25-4.89,1.09,0,2.12.3,2.62.59l-.52,2.79c-.47-.3-1.18-.57-2.12-.57-1.38,0-2.05.84-2.05,1.73,0,.99.49,1.5,2.29,2.59,2.2,1.33,3.01,3.01,3.01,4.76,0,3.04-2.25,5.03-5.5,5.03-1.33,0-2.64-.35-3.18-.67l.47-2.79Z"/>
          <path class="cls-3" d="m609.03,619.19c.91-.2,2.15-.32,3.38-.32,1.92,0,3.43.27,4.51,1.28.99.86,1.43,2.25,1.43,3.65,0,1.8-.54,3.06-1.41,4-1.04,1.09-2.71,1.58-4.05,1.58h-.64v6.19h-3.23v-16.38Zm3.23,7.55c.15.05.32.05.52.05,1.63,0,2.37-1.16,2.37-2.71,0-1.46-.59-2.59-2.1-2.59-.3,0-.59.05-.79.12v5.13Z"/>
          <path class="cls-3" d="m626.85,628.27h-3.8v4.49h4.29v2.81h-7.53v-16.63h7.23v2.81h-4v3.82h3.8v2.69Z"/>
          <path class="cls-3" d="m629.05,619.19c1.01-.2,2.29-.32,3.53-.32,1.78,0,3.36.25,4.44,1.23,1.01.91,1.31,2.02,1.31,3.46,0,1.78-.86,3.38-2.57,4.17v.05c1.13.44,1.7,1.5,2.02,3.28.32,1.85.77,3.9,1.06,4.52h-3.38c-.2-.47-.57-2.15-.81-3.97-.3-2.07-.81-2.66-1.9-2.66h-.47v6.64h-3.23v-16.38Zm3.23,7.25h.57c1.41,0,2.22-1.13,2.22-2.59s-.57-2.42-2.02-2.47c-.27,0-.59.03-.76.1v4.96Z"/>
          <path class="cls-3" d="m642.79,631.77l-.74,3.8h-3.13l3.6-16.63h3.87l3.23,16.63h-3.13l-.72-3.8h-2.99Zm2.69-2.52l-.54-3.48c-.17-1.01-.39-2.67-.54-3.78h-.07c-.17,1.11-.42,2.84-.59,3.8l-.62,3.45h2.37Z"/>
          <path class="cls-3" d="m650.96,635.57v-16.63h2.96l2.57,6.51c.49,1.28,1.31,3.43,1.78,4.86h.05c-.1-1.75-.32-4.64-.32-7.7v-3.68h2.84v16.63h-2.96l-2.54-6.32c-.54-1.41-1.31-3.5-1.68-5.01h-.05c.07,1.68.2,4.24.2,7.58v3.75h-2.84Z"/>
          <path class="cls-3" d="m662.04,633.67l5.26-11.84v-.07h-4.76v-2.81h8.41v2.39l-5.03,11.35v.07h5.01v2.81h-8.88v-1.9Z"/>
          <path class="cls-3" d="m675.15,631.77l-.74,3.8h-3.13l3.6-16.63h3.87l3.23,16.63h-3.13l-.72-3.8h-2.99Zm2.69-2.52l-.54-3.48c-.17-1.01-.39-2.67-.54-3.78h-.07c-.17,1.11-.42,2.84-.59,3.8l-.62,3.45h2.37Z"/>
        </g>
        <g>
          <path class="cls-3" d="m676.81,850.33c-.47.22-1.38.4-2.52.4-4.24,0-6.27-3.5-6.27-8.22,0-6.27,3.48-8.71,6.71-8.71,1.13,0,1.92.22,2.25.44l-.54,2.71c-.37-.17-.79-.32-1.5-.32-1.83,0-3.48,1.58-3.48,5.7s1.5,5.53,3.48,5.53c.54,0,1.16-.12,1.55-.25l.32,2.71Z"/>
          <path class="cls-3" d="m687.62,841.96c0,6.27-2.22,8.81-5.38,8.81-3.77,0-5.25-4-5.25-8.56s1.8-8.46,5.48-8.46c4.02,0,5.16,4.42,5.16,8.22Zm-7.28.3c0,3.78.71,5.7,2.02,5.7s1.88-2.47,1.88-5.85c0-2.91-.44-5.55-1.9-5.55-1.28,0-2,2.12-2,5.7Z"/>
          <path class="cls-3" d="m689.17,833.94h3.23v13.89h4.27v2.74h-7.5v-16.63Z"/>
          <path class="cls-3" d="m707.21,841.96c0,6.27-2.22,8.81-5.38,8.81-3.77,0-5.25-4-5.25-8.56s1.8-8.46,5.48-8.46c4.02,0,5.16,4.42,5.16,8.22Zm-7.28.3c0,3.78.71,5.7,2.02,5.7s1.88-2.47,1.88-5.85c0-2.91-.44-5.55-1.9-5.55-1.28,0-2,2.12-2,5.7Z"/>
          <path class="cls-3" d="m708.77,850.57v-16.63h2.96l2.57,6.51c.49,1.28,1.31,3.43,1.78,4.86h.05c-.1-1.75-.32-4.64-.32-7.7v-3.68h2.84v16.63h-2.96l-2.54-6.32c-.54-1.41-1.31-3.5-1.68-5.01h-.05c.07,1.68.2,4.24.2,7.58v3.75h-2.84Z"/>
          <path class="cls-3" d="m724.24,833.94v16.63h-3.23v-16.63h3.23Z"/>
          <path class="cls-3" d="m729.28,846.77l-.74,3.8h-3.13l3.6-16.63h3.87l3.23,16.63h-3.13l-.72-3.8h-2.99Zm2.69-2.52l-.54-3.48c-.17-1.01-.39-2.67-.54-3.78h-.07c-.17,1.11-.42,2.84-.59,3.8l-.62,3.45h2.37Z"/>
          <path class="cls-3" d="m740.87,834.19c.81-.2,2-.32,3.28-.32,2.1,0,3.55.49,4.61,1.48,1.43,1.28,2.17,3.48,2.17,6.71s-.86,5.75-2.32,7.03c-1.11,1.09-2.76,1.6-5.08,1.6-1.01,0-2.02-.1-2.67-.17v-16.33Zm3.23,13.82c.15.05.39.05.57.05,1.55,0,2.91-1.53,2.91-6.12,0-3.41-.89-5.48-2.84-5.48-.22,0-.44,0-.64.07v11.47Z"/>
          <path class="cls-3" d="m759.53,843.27h-3.8v4.49h4.29v2.81h-7.53v-16.63h7.23v2.81h-4v3.82h3.8v2.69Z"/>
          <path class="cls-3" d="m649.95,855.79h3.23v13.89h4.27v2.74h-7.5v-16.63Z"/>
          <path class="cls-3" d="m667.99,863.8c0,6.27-2.22,8.81-5.38,8.81-3.77,0-5.25-4-5.25-8.56s1.8-8.46,5.48-8.46c4.02,0,5.16,4.42,5.16,8.22Zm-7.28.3c0,3.78.71,5.7,2.02,5.7s1.88-2.47,1.88-5.85c0-2.91-.44-5.55-1.9-5.55-1.28,0-2,2.12-2,5.7Z"/>
          <path class="cls-3" d="m669.54,856.03c.99-.22,2.27-.32,3.68-.32,1.55,0,3.06.2,4.22,1.18.89.74,1.26,1.85,1.26,3.01,0,1.48-.76,2.91-2.42,3.63v.1c1.92.54,2.96,2.15,2.96,3.97,0,1.38-.44,2.44-1.23,3.26-.99,1.09-2.67,1.68-5.45,1.68-1.23,0-2.27-.07-3.01-.17v-16.33Zm3.23,6.59h.69c1.16,0,2.05-.99,2.05-2.34,0-1.21-.57-2.15-1.9-2.15-.34,0-.64.02-.84.1v4.39Zm0,7.38c.2.05.42.05.72.05,1.31,0,2.39-.79,2.39-2.49s-1.14-2.52-2.42-2.54h-.69v4.98Z"/>
          <path class="cls-3" d="m690.79,863.8c0,6.27-2.22,8.81-5.38,8.81-3.77,0-5.25-4-5.25-8.56s1.8-8.46,5.48-8.46c4.02,0,5.16,4.42,5.16,8.22Zm-7.28.3c0,3.78.71,5.7,2.02,5.7s1.88-2.47,1.88-5.85c0-2.91-.44-5.55-1.9-5.55-1.28,0-2,2.12-2,5.7Z"/>
          <path class="cls-3" d="m691.98,869.11c.67.37,1.8.64,2.74.64,1.53,0,2.27-.79,2.27-1.88,0-1.21-.74-1.8-2.15-2.71-2.27-1.38-3.13-3.13-3.13-4.64,0-2.67,1.78-4.89,5.25-4.89,1.09,0,2.12.3,2.62.59l-.52,2.79c-.47-.3-1.18-.57-2.12-.57-1.38,0-2.05.84-2.05,1.73,0,.99.49,1.5,2.29,2.59,2.2,1.33,3.01,3.01,3.01,4.76,0,3.04-2.25,5.03-5.5,5.03-1.33,0-2.64-.35-3.18-.67l.47-2.79Z"/>
          <path class="cls-3" d="m715.17,866.59c-.07-1.58-.2-3.73-.15-5.5h-.07c-.3,1.78-.74,3.82-1.06,5.11l-1.43,5.95h-2.29l-1.38-5.85c-.32-1.33-.76-3.41-1.01-5.21h-.07c-.05,1.8-.15,3.9-.25,5.55l-.27,5.77h-2.79l1.21-16.63h3.4l1.33,6.02c.47,2.1.89,3.95,1.18,5.82h.05c.25-1.85.62-3.73,1.06-5.82l1.31-6.02h3.4l1.01,16.63h-2.89l-.3-5.82Z"/>
          <path class="cls-3" d="m722.87,868.62l-.74,3.8h-3.13l3.6-16.63h3.87l3.23,16.63h-3.13l-.72-3.8h-2.99Zm2.69-2.52l-.54-3.48c-.17-1.01-.39-2.67-.54-3.78h-.07c-.17,1.11-.42,2.84-.59,3.8l-.62,3.45h2.37Z"/>
          <path class="cls-3" d="m731.04,856.03c1.01-.2,2.29-.32,3.53-.32,1.78,0,3.36.25,4.44,1.23,1.01.91,1.31,2.02,1.31,3.46,0,1.78-.86,3.38-2.57,4.17v.05c1.13.44,1.7,1.5,2.02,3.28.32,1.85.77,3.9,1.06,4.52h-3.38c-.2-.47-.57-2.15-.81-3.97-.3-2.07-.81-2.66-1.9-2.66h-.47v6.64h-3.23v-16.38Zm3.23,7.25h.57c1.41,0,2.22-1.14,2.22-2.59s-.57-2.42-2.02-2.47c-.27,0-.59.03-.76.1v4.96Z"/>
          <path class="cls-3" d="m745.38,855.79v16.63h-3.23v-16.63h3.23Z"/>
          <path class="cls-3" d="m747.77,872.42v-16.63h2.96l2.57,6.51c.49,1.28,1.31,3.43,1.78,4.86h.05c-.1-1.75-.32-4.64-.32-7.7v-3.68h2.84v16.63h-2.96l-2.54-6.32c-.54-1.41-1.31-3.5-1.68-5.01h-.05c.07,1.68.2,4.24.2,7.58v3.75h-2.84Z"/>
          <path class="cls-3" d="m769.83,863.8c0,6.27-2.22,8.81-5.38,8.81-3.77,0-5.25-4-5.25-8.56s1.8-8.46,5.48-8.46c4.02,0,5.16,4.42,5.16,8.22Zm-7.28.3c0,3.78.71,5.7,2.02,5.7s1.88-2.47,1.88-5.85c0-2.91-.44-5.55-1.9-5.55-1.28,0-2,2.12-2,5.7Z"/>
          <path class="cls-3" d="m771.02,869.11c.67.37,1.8.64,2.74.64,1.53,0,2.27-.79,2.27-1.88,0-1.21-.74-1.8-2.15-2.71-2.27-1.38-3.13-3.13-3.13-4.64,0-2.67,1.78-4.89,5.26-4.89,1.09,0,2.12.3,2.62.59l-.52,2.79c-.47-.3-1.18-.57-2.12-.57-1.38,0-2.05.84-2.05,1.73,0,.99.49,1.5,2.29,2.59,2.2,1.33,3.01,3.01,3.01,4.76,0,3.04-2.25,5.03-5.5,5.03-1.33,0-2.64-.35-3.18-.67l.47-2.79Z"/>
        </g>
        <g>
          <path class="cls-3" d="m577.34,386.27h-3.8v4.49h4.29v2.81h-7.53v-16.63h7.23v2.81h-4v3.82h3.8v2.69Z"/>
          <path class="cls-3" d="m579.53,376.94h3.23v13.89h4.27v2.74h-7.5v-16.63Z"/>
          <path class="cls-3" d="m599.82,393.33c-.47.22-1.38.4-2.52.4-4.24,0-6.27-3.5-6.27-8.22,0-6.27,3.48-8.71,6.71-8.71,1.13,0,1.92.22,2.25.44l-.54,2.71c-.37-.17-.79-.32-1.5-.32-1.83,0-3.48,1.58-3.48,5.7s1.5,5.53,3.48,5.53c.54,0,1.16-.12,1.55-.25l.32,2.71Z"/>
          <path class="cls-3" d="m604.14,389.77l-.74,3.8h-3.13l3.6-16.63h3.87l3.23,16.63h-3.13l-.72-3.8h-2.99Zm2.69-2.52l-.54-3.48c-.17-1.01-.39-2.67-.54-3.78h-.07c-.17,1.11-.42,2.84-.59,3.8l-.62,3.45h2.37Z"/>
          <path class="cls-3" d="m612.31,393.57v-16.63h2.96l2.57,6.51c.49,1.28,1.31,3.43,1.78,4.86h.05c-.1-1.75-.32-4.64-.32-7.7v-3.68h2.84v16.63h-2.96l-2.54-6.32c-.54-1.41-1.31-3.5-1.68-5.01h-.05c.07,1.68.2,4.24.2,7.58v3.75h-2.84Z"/>
          <path class="cls-3" d="m626.35,379.93h-2.94v-2.99h9.13v2.99h-2.96v13.64h-3.23v-13.64Z"/>
          <path class="cls-3" d="m636.98,376.94v16.63h-3.23v-16.63h3.23Z"/>
          <path class="cls-3" d="m639.38,376.94h3.23v13.89h4.27v2.74h-7.5v-16.63Z"/>
        </g>
        <g>
          <path class="cls-3" d="m552.6,323.57v-16.63h2.96l2.57,6.51c.49,1.28,1.31,3.43,1.78,4.86h.05c-.1-1.75-.32-4.64-.32-7.7v-3.68h2.84v16.63h-2.96l-2.54-6.32c-.54-1.41-1.31-3.5-1.68-5.01h-.05c.07,1.68.2,4.24.2,7.58v3.75h-2.84Z"/>
          <path class="cls-3" d="m567.49,319.77l-.74,3.8h-3.13l3.6-16.63h3.87l3.23,16.63h-3.13l-.72-3.8h-2.99Zm2.69-2.52l-.54-3.48c-.17-1.01-.39-2.67-.54-3.78h-.07c-.17,1.11-.42,2.84-.59,3.8l-.62,3.45h2.37Z"/>
          <path class="cls-3" d="m578.39,306.94v10.81c0,2.44.74,3.18,1.58,3.18.94,0,1.6-.67,1.6-3.18v-10.81h3.23v10.24c0,4.27-1.6,6.59-4.81,6.59-3.48,0-4.84-2.39-4.84-6.56v-10.26h3.23Z"/>
          <path class="cls-3" d="m587.1,306.94h7.23v2.81h-4v4.27h3.75v2.69h-3.75v6.86h-3.23v-16.63Z"/>
          <path class="cls-3" d="m596.29,307.19c1.01-.2,2.29-.32,3.53-.32,1.78,0,3.36.25,4.44,1.23,1.01.91,1.31,2.02,1.31,3.46,0,1.78-.86,3.38-2.57,4.17v.05c1.13.44,1.7,1.5,2.02,3.28.32,1.85.77,3.9,1.06,4.52h-3.38c-.2-.47-.57-2.15-.81-3.97-.3-2.07-.81-2.66-1.9-2.66h-.47v6.64h-3.23v-16.38Zm3.23,7.25h.57c1.41,0,2.22-1.13,2.22-2.59s-.57-2.42-2.02-2.47c-.27,0-.59.03-.76.1v4.96Z"/>
          <path class="cls-3" d="m610.03,319.77l-.74,3.8h-3.13l3.6-16.63h3.87l3.23,16.63h-3.13l-.72-3.8h-2.99Zm2.69-2.52l-.54-3.48c-.17-1.01-.39-2.67-.54-3.78h-.07c-.17,1.11-.42,2.84-.59,3.8l-.62,3.45h2.37Z"/>
          <path class="cls-3" d="m627.03,323.13c-.72.3-2.25.59-3.45.59-1.9,0-3.33-.54-4.44-1.65-1.43-1.38-2.2-3.85-2.15-6.71.07-6.05,3.53-8.56,7.06-8.56,1.26,0,2.2.25,2.71.49l-.57,2.79c-.47-.25-1.09-.37-1.9-.37-2.2,0-3.95,1.5-3.95,5.85,0,4,1.55,5.43,3.06,5.43.3,0,.52-.02.64-.07v-4.02h-1.48v-2.64h4.47v8.88Z"/>
          <path class="cls-3" d="m632.19,306.94v16.63h-3.23v-16.63h3.23Z"/>
          <path class="cls-3" d="m644.41,314.96c0,6.27-2.22,8.81-5.38,8.81-3.77,0-5.25-4-5.25-8.56s1.8-8.46,5.48-8.46c4.02,0,5.16,4.42,5.16,8.22Zm-7.28.3c0,3.78.71,5.7,2.02,5.7s1.88-2.47,1.88-5.85c0-2.91-.44-5.55-1.9-5.55-1.28,0-2,2.12-2,5.7Z"/>
        </g>
      </g>
    </g>
  </g>
</svg>