<?xml version="1.0" encoding="UTF-8"?>
<svg id="Layer_2" data-name="Layer 2" xmlns="http://www.w3.org/2000/svg" xmlns:xlink="http://www.w3.org/1999/xlink" viewBox="0 0 87.38 87.38">
  <defs>
    <style>
      .cls-1 {
        fill: #4c7738;
      }

      .cls-1, .cls-2, .cls-3, .cls-4 {
        stroke-width: 0px;
      }

      .cls-2 {
        fill: #035129;
      }

      .cls-3 {
        fill: url(#radial-gradient-2);
      }

      .cls-4 {
        fill: url(#radial-gradient);
      }
    </style>
    <radialGradient id="radial-gradient" cx="43.69" cy="43.69" fx="66.37" fy="13.66" r="43.69" gradientUnits="userSpaceOnUse">
      <stop offset="0" stop-color="#cbd327"/>
      <stop offset=".41" stop-color="#c9d126"/>
      <stop offset=".56" stop-color="#c2cb26"/>
      <stop offset=".67" stop-color="#b6c226"/>
      <stop offset=".75" stop-color="#a5b425"/>
      <stop offset=".82" stop-color="#8fa224"/>
      <stop offset=".89" stop-color="#748c23"/>
      <stop offset=".95" stop-color="#557222"/>
      <stop offset="1" stop-color="#305421"/>
      <stop offset="1" stop-color="#2f5321"/>
    </radialGradient>
    <radialGradient id="radial-gradient-2" cx="43.69" cy="43.69" fx="43.69" fy="43.69" r="36.92" gradientUnits="userSpaceOnUse">
      <stop offset="0" stop-color="#fff"/>
      <stop offset=".43" stop-color="#fdfdfd"/>
      <stop offset=".59" stop-color="#f6f6f6"/>
      <stop offset=".7" stop-color="#eaeaeb"/>
      <stop offset=".79" stop-color="#d9dadb"/>
      <stop offset=".87" stop-color="#c3c4c6"/>
      <stop offset=".94" stop-color="#a9aaac"/>
      <stop offset="1" stop-color="#898b8e"/>
      <stop offset="1" stop-color="#87898c"/>
    </radialGradient>
  </defs>
  <g id="Layer_1-2" data-name="Layer 1">
    <g>
      <circle class="cls-4" cx="43.69" cy="43.69" r="43.69"/>
      <circle class="cls-2" cx="43.69" cy="43.69" r="38.72"/>
      <circle class="cls-3" cx="43.69" cy="43.69" r="36.92"/>
    </g>
    <g id="orjigN">
      <g>
        <path class="cls-1" d="m40.89,58.01v-15.54c-.46.54-.77.94-1.1,1.31-1.11,1.25-2.78,1.41-4.05.41-1.19-.94-1.52-2.7-.58-3.93,2.28-2.99,4.59-5.95,6.97-8.85,1.3-1.58,3.44-1.46,4.67.18,2.06,2.77,4.08,5.57,6.08,8.39,1.12,1.57.92,3.36-.39,4.41-1.39,1.11-3.13.84-4.46-.69-.25-.29-.48-.58-.86-1.04v15.29c.73-.3,1.02-.92,1.53-1.31,1.28-.98,3-.89,4.13.23,1.09,1.09,1.14,2.5.02,3.82-2.35,2.76-4.73,5.49-7.15,8.2-1.18,1.32-2.35,1.35-3.55.03-2.56-2.81-4.88-5.82-7.06-8.93-.84-1.2-.55-2.71.5-3.63,1.11-.98,2.63-1.01,3.77,0,.51.45.93,1,1.52,1.66Z"/>
        <path class="cls-1" d="m28.77,20.4c2.29.11,4.26,1.09,6.07,2.37.92.64,1.66.68,2.57.07,4.59-3.11,9.21-3.01,13.79,0,1.01.67,1.83.59,2.8-.12,3.97-2.87,8.04-2.97,12.18-.3,1.23.8,2.51,1.53,3.6,2.52,1.41,1.27,1.6,2.91.54,4.26-1,1.28-2.63,1.5-4.17.47-1.36-.91-2.68-1.88-4.14-2.64-1.23-.63-2.36-.63-3.56.06-1.09.63-2.1,1.35-3.1,2.11-1.85,1.42-2.73,1.45-4.71.28-1.64-.97-3.29-1.9-5.04-2.64-.89-.38-1.73-.38-2.62-.01-1.69.69-3.23,1.64-4.77,2.59-2.02,1.26-2.87,1.18-4.8-.23-4.8-3.51-4.15-3.31-9.4-.66-1,.51-1.95,1.12-2.98,1.55-1.38.57-2.82.01-3.57-1.26-.72-1.22-.6-2.8.56-3.64,3.07-2.2,6.35-4.01,10.11-4.74.21-.04.43-.03.65-.05Z"/>
        <path class="cls-1" d="m25.09,44.8c1.38,0,2.76-.03,4.14,0,1.87.06,3.23,1.32,3.29,2.98.06,1.67-1.2,2.84-3.16,3.06-2.97.32-5.94-.02-8.91-.06-1.54-.03-2.7-1.39-2.7-2.92,0-1.55,1.18-2.9,2.81-3.01,1.5-.1,3.01-.02,4.52-.02,0,0,0-.02,0-.03Z"/>
        <path class="cls-1" d="m25.19,39.11c-1.51,0-3.02.05-4.53-.01-1.68-.07-2.86-1.28-2.92-2.87-.06-1.54,1.1-2.98,2.74-3.04,3.1-.12,6.21-.11,9.31-.03,1.56.04,2.77,1.57,2.71,3.09-.06,1.59-1.26,2.81-2.92,2.86-1.47.05-2.93.01-4.4.01,0,0,0,0,0,0Z"/>
        <path class="cls-1" d="m63.19,39.1c-1.42,0-2.85.04-4.27-.01-1.82-.07-3.12-1.32-3.13-2.96-.01-1.52,1.27-2.94,2.98-2.99,2.97-.08,5.95-.09,8.92.02,1.8.06,2.94,1.39,2.9,3.02-.04,1.66-1.21,2.85-3.01,2.93-1.46.07-2.93.01-4.4.01v-.02Z"/>
        <path class="cls-1" d="m63.56,56.41c1.42.07,2.84.12,4.26.22,1.65.12,2.83,1.4,2.8,2.98-.02,1.57-1.26,2.77-2.89,2.89-3.02.23-6.03-.01-9.05-.03-1.63,0-2.88-1.33-2.88-2.89,0-1.55,1.23-2.89,2.85-2.95,1.63-.06,3.27-.01,4.91-.01,0-.07,0-.14,0-.21Z"/>
        <path class="cls-1" d="m25.06,62.48c-1.51,0-3.02.04-4.52,0-1.58-.05-2.78-1.29-2.81-2.8-.03-1.59,1.17-2.93,2.74-3.05,2.75-.21,5.51-.2,8.26-.15,1.24.02,2.41.26,3.18,1.38.62.91.86,1.89.33,2.92-.52,1.02-1.33,1.7-2.54,1.71-1.55.02-3.1,0-4.65,0,0,0,0,0,0,0Z"/>
        <path class="cls-1" d="m63.12,50.83c-1.51,0-3.02.04-4.52-.01-1.56-.05-2.78-1.42-2.77-3.01.01-1.46,1.29-2.79,2.79-2.85,3.01-.12,6.02-.29,9.04-.02,1.8.16,2.98,1.34,2.95,3.09-.03,1.54-1.27,2.74-2.96,2.79-1.51.04-3.02,0-4.52,0,0,0,0,0,0,.01Z"/>
      </g>
    </g>
  </g>
</svg>