<?xml version="1.0" encoding="UTF-8"?>
<svg id="Layer_2" data-name="Layer 2" xmlns="http://www.w3.org/2000/svg" xmlns:xlink="http://www.w3.org/1999/xlink" viewBox="0 0 179.85 179.85">
  <defs>
    <style>
      .cls-1 {
        fill: #035129;
      }

      .cls-1, .cls-2, .cls-3, .cls-4 {
        stroke-width: 0px;
      }

      .cls-2 {
        fill: url(#radial-gradient-2);
      }

      .cls-3 {
        fill: url(#radial-gradient);
      }

      .cls-4 {
        fill: #22726e;
      }
    </style>
    <radialGradient id="radial-gradient" cx="89.92" cy="89.92" fx="136.61" fy="28.11" r="89.92" gradientUnits="userSpaceOnUse">
      <stop offset="0" stop-color="#cbd327"/>
      <stop offset=".41" stop-color="#c9d126"/>
      <stop offset=".56" stop-color="#c2cb26"/>
      <stop offset=".67" stop-color="#b6c226"/>
      <stop offset=".75" stop-color="#a5b425"/>
      <stop offset=".82" stop-color="#8fa224"/>
      <stop offset=".89" stop-color="#748c23"/>
      <stop offset=".95" stop-color="#557222"/>
      <stop offset="1" stop-color="#305421"/>
      <stop offset="1" stop-color="#2f5321"/>
    </radialGradient>
    <radialGradient id="radial-gradient-2" cx="89.92" cy="89.92" fx="89.92" fy="89.92" r="75.99" gradientUnits="userSpaceOnUse">
      <stop offset="0" stop-color="#fff"/>
      <stop offset=".43" stop-color="#fdfdfd"/>
      <stop offset=".59" stop-color="#f6f6f6"/>
      <stop offset=".7" stop-color="#eaeaeb"/>
      <stop offset=".79" stop-color="#d9dadb"/>
      <stop offset=".87" stop-color="#c3c4c6"/>
      <stop offset=".94" stop-color="#a9aaac"/>
      <stop offset="1" stop-color="#898b8e"/>
      <stop offset="1" stop-color="#87898c"/>
    </radialGradient>
  </defs>
  <g id="Layer_1-2" data-name="Layer 1">
    <g>
      <circle class="cls-3" cx="89.92" cy="89.92" r="89.92"/>
      <circle class="cls-1" cx="89.92" cy="89.92" r="79.69"/>
      <circle class="cls-2" cx="89.92" cy="89.92" r="75.99"/>
    </g>
    <g>
      <path class="cls-4" d="m148.6,83.96c-.82-7.69-2.96-14.99-6.64-21.81-5.89-10.93-14.35-19.27-25.39-24.89-11.58-5.89-23.84-7.69-36.65-5.51-9.45,1.61-17.97,5.42-25.62,11.19-.69.52-.7.84-.09,1.42,1.77,1.7,3.51,3.42,5.2,5.2.61.64,1.01.62,1.71.12,10.66-7.56,22.52-10.58,35.45-8.87,11.81,1.56,21.84,6.81,29.84,15.66,10.18,11.26,14.33,24.56,12.57,39.61-1.06,9.01-4.55,17.09-10.18,24.23q-.7.9-1.51.09c-12.85-12.85-25.69-25.69-38.54-38.54-12-12-24-24-36-36-.94-.94-.93-.93-1.89-.07-2.1,1.87-4.08,3.86-5.86,6.04-11.79,14.34-16.16,30.69-12.86,48.93,2.54,14.03,9.62,25.56,20.61,34.61,9.94,8.18,21.42,12.53,34.26,13.26,5.36.31,10.68-.19,15.93-1.38,8.37-1.91,15.95-5.5,22.78-10.69.66-.5.66-.8.08-1.37-1.79-1.72-3.55-3.47-5.26-5.26-.59-.62-.97-.57-1.63-.1-10.67,7.6-22.55,10.64-35.52,8.91-13.57-1.81-24.58-8.31-32.83-19.2-7.84-10.35-11.04-22.11-9.7-35.05.98-9.46,4.52-17.89,10.37-25.37.48-.61.72-.71,1.33-.11,15.05,15.08,30.13,30.13,45.2,45.19,9.85,9.84,19.7,19.69,29.53,29.55.61.61.99.8,1.72.11,1.81-1.7,3.6-3.41,5.23-5.29,9.66-11.13,14.49-24.07,14.63-38.78.02-1.95-.05-3.89-.26-5.83Z"/>
      <path class="cls-4" d="m83.76,128.05c.11.3.47.16.72.18,3.07.24,6.14.11,9.21-.16,6.25-.56,12.23-2.1,17.86-4.89,1.21-.6,1.22-.61.27-1.55-7.67-7.67-15.34-15.32-22.98-23.02-.7-.71-1.34-.88-2.28-.69-4.78.97-9.32,2.57-13.58,4.96-3.85,2.16-7.32,4.83-10.29,8.12-.48.53-.54.84.13,1.22.73.41,1.41.89,2.12,1.35,1.3.84,2.59,1.67,4.12,2.66-2.2.63-4.13,1.17-6.05,1.73-.97.28-1,.41-.35,1.15.12.14.24.26.37.39,4.69,4.81,10.47,7.41,17.05,8.36.47.07.95.09,1.37-.24,3.64-2.81,5.91-6.36,6.05-11.07.07-2.34-.4-4.57-1.31-6.71-.21-.49-.34-1.04.27-1.32.66-.31.97.19,1.23.7.05.11.09.22.13.33,2.39,6.7,1.56,12.74-3.64,17.9-.18.18-.54.32-.42.62Zm-7.37-18.83c-.56.34-1.19.31-1.81.32-.62-.01-1.26,0-1.81-.34-.53-.33-.55-.72.02-.99,1.19-.56,2.42-.53,3.61,0,.55.25.52.68,0,.99Z"/>
      <path class="cls-4" d="m104.02,93.81c2.34,2.34,4.69,4.69,7.03,7.03,4.14,4.14,8.28,8.28,12.41,12.41.33.33.6.77,1.14.19,2.15-2.3,4.14-4.7,5.47-7.59,2-4.38,2.47-9.01,2.19-13.74-.14-2.27-.53-4.51-1.37-6.64-.21-.53-.37-1.1-.98-1.62.02,1.57.05,2.97-.21,4.35-.93,4.98-7.61,9.63-12.62,8.79-.42-.07-.49-.25-.34-.61.19-.45.37-.9.55-1.36-1.93,1.68-4.08,1.45-6.26,1.01-1.87-.38-3.53-1.26-5.22-2.09-.76-.38-1.52-.79-2.44-.84.22.23.44.47.66.7Z"/>
      <path class="cls-4" d="m114.1,76.09c-1.52,1.3-3.04,2.61-4.55,3.92-.98.85-1.96,1.71-2.94,2.57.04.06.08.12.12.18.2-.05.4-.09.59-.15,3.72-1.05,7.49-1.59,11.33-.8,4.07.84,7.26,2.85,8.8,6.93.06.15.08.37.42.33.45-1.21.61-2.5.66-3.81.19-5.07-2.12-8.96-5.87-12.12-4.65-3.92-10.17-5.8-16.1-6.64-.27-.04-.59-.15-.83.14.13.41.48.62.76.87,2.55,2.35,5.11,4.68,7.66,7.02.84.77.83.8-.05,1.55Z"/>
      <path class="cls-4" d="m52.32,106.96c.65,2.09,2.39,3.35,4.57,3.35,3.15,0,5.45-2.36,5.52-5.72.04-1.97.01-3.94.01-5.92,0-.95,0-1.9,0-2.84-.1-.02-.19-.05-.29-.07-1.28,2.22-2.56,4.43-3.82,6.66-.28.48.05.56.44.56.42,0,.88-.05.87.6,0,.97-.12,1.91-.63,2.76-.44.73-1.13,1.07-1.97,1-.84-.07-1.45-.53-1.77-1.32-.31-.76-.38-1.55-.38-2.37,0-10.49-.06-20.98.06-31.46.02-2.14-.44-3.76-2.16-5-.23-.16-.37-.59-.7-.44-.3.14-.15.54-.15.82,0,12.22,0,24.44,0,36.66,0,.94.14,1.85.41,2.74Z"/>
    </g>
  </g>
</svg>