<?xml version="1.0" encoding="UTF-8"?>
<svg id="Layer_2" data-name="Layer 2" xmlns="http://www.w3.org/2000/svg" viewBox="0 0 57.86 57.86">
  <defs>
    <style>
      .cls-1 {
        fill: #5ac1dc;
        stroke: #fff;
        stroke-miterlimit: 10;
      }

      .cls-2 {
        fill: #fff;
        stroke-width: 0px;
      }
    </style>
  </defs>
  <g id="Layer_1-2" data-name="Layer 1">
    <g>
      <rect class="cls-1" x=".5" y=".5" width="56.86" height="56.86"/>
      <path class="cls-2" d="m51.82,34.62c-.1.04-.21.12-.31.12-1.37.09-2.64-.21-3.73-1.09-.03,0-.07,0-.1,0-.06.02-.09,0-.11-.06-.44-.19-.8-.5-1.15-.83-.07-.04-.14-.09-.21-.13-.29-.02-.47-.24-.7-.36-.36,0-.63-.26-.97-.3-.52.11-1-.11-1.5-.19-.33.01-.65.02-.98.03-.22.14-.47.07-.71.06-.33,0-.66-.03-.97.11-.19.04-.38.08-.56.12-.14.05-.29.11-.43.16-.09.11-.11.24-.1.38h0c.39.09.81-.09,1.2.13.21.12.34.17.21.46-.1.24-.23.51-.1.8.09.07.1.17.13.27.47.59.58,1.36.2,1.92-.23.35-.62.24-.95.13-.4-.13-.78-.33-1.17-.49-.26,0-.47-.09-.63-.29-.03-.01-.06-.02-.09-.04-.04-.09-.11-.17-.18-.23-.22-.18-.53-.24-.68-.51-.21-.14-.5-.14-.65-.36.15.22.45.22.65.36.15.26.46.33.68.51.07.06.14.13.18.23-.6-.05-1.08-.35-1.53-.7-.38-.29-.76-.56-1.24-.66l-.2-.1c-.29.21-.64-.17-.81-.02-.23.21-.43.38-.75.37-.7-.02-1.38.12-2.07.2-.3.04-.59.36-.92.08h-.04s-.04,0-.04,0c-.1.01-.21.02-.31.03-.03.14-.16.29-.25.26-.43-.15-.89.06-1.31-.14-.04.07-.08.14-.13.21-.03.24.14.33.29.44.15.1.3.2.22.41.2.23.09.52.14.78.24.31.3.66.18,1.04-.08.26-.18.51-.27.76h0c-.18.42-.49.43-.85.26-.14-.06-.28-.12-.41-.19-.03-.01-.06-.02-.08-.03-.04-.02-.07-.04-.11-.05-.25-.2-.59-.3-.67-.67-.32-.13-.62-.31-1-.24-.15.03-.31-.07-.43-.2-.54-.59-1.18-1.07-1.66-1.72-.09-.04-.18-.08-.27-.12h0c-.54,0-1.09,0-1.63,0-.16,0-.29,0-.39-.2-.08-.14-.4-.24-.5-.11-.31.4-.73.27-1.12.32-.08.25-.06.5.01.75.07.24.17.5-.05.72.08.8,0,.85-.98.75-.92-.24-1.59-.87-2.27-1.48-.42.02-.55-.47-.92-.54-.04.02-.09.04-.13.07.06.1.08.2-.01.29-.42.28-1,.15-1.29-.33-.11-.19-.23-.35-.41-.47-.72-.32-1.48-.47-2.24-.66-.44-.11-.89-.21-1.32-.35-.42-.17-.93-.14-1.27-.52-.35-.02-.66-.17-.96-.31-.85-.39-.85-.4-.98.48.01.06.05.13-.02.17-.07.05-.1,0-.14-.06-.22-.27-.41-.53-.21-.9.05-.1.03-.25.04-.38,0-.1.01-.21.02-.31,0,0,0,0,0,0,0,.1-.01.21-.02.31-.43.01-.76-.14-.97-.53.15.03.31.06.46.09.02-.13.03-.25.05-.38,0,0,0,0,0,0-.01-.03-.03-.06-.04-.1.02-.03.04-.06.06-.09.09,0,.2-.02.26.09.11.13.12.28.15.43-.03-.15-.05-.31-.15-.43-.06-.11-.16-.09-.26-.09,0-.26-.27-.24-.4-.37-.1-.1-.35-.06-.26-.32h0c0-.21.13-.41.28-.5.6-.37,1.01-.96,1.68-1.24.41-.17.8-.45,1.14-.74.99-.84,2.06-1.59,3.21-2.14.97-.46,1.89-.98,2.81-1.5.24-.13.49-.25.77-.29.04,0,.07-.01.11-.02.06-.05.12-.16.19-.01.03.01.06.02.09.01h0c.03-.07.02-.16.13-.18,1.03-.19,1.99-.64,3.03-.77.49-.07.98-.14,1.48-.21.23-.06.47-.05.7-.02.2-.09.4-.13.59.01.08-.05.16-.16.23-.16.76.05,1.13-.51,1.55-.98.33-.37.6-.81,1.06-1.06.02.02.04.03.06.05h0s-.04-.03-.06-.05c.06-.07.13-.14.19-.21h0c.24-.35.55-.62.88-.88,0,0,.01-.02.01-.02.09-.16.25-.26.4-.35.07-.11.15-.22.31-.19.24-.46.78-.75,1.08-.59.15.12.09.33.19.47-.09.07-.18.14-.26.21-.18.21-.42.38-.63.58.21-.19.44-.36.63-.58l.26-.21c.14.11.25.23.28.41.05,0,.06.03.04.07.22.15.5.23.58.53.15-.09.2.09.3.12.17-.04.28.07.4.17.17.05.33.09.5.14.1,0,.1.07.1.14.1.02.19.03.29.05.16-.04.18.13.28.18.29.04.62-.02.81.29-.03,0-.07,0-.1,0-.18.14-.34.3-.5.47.16-.17.32-.33.5-.47h.1s.06-.01.08,0c.72.06,1.39.32,2.08.48.21-.03.32.04.3.27.15-.15.27-.06.4.03.22-.18.45-.12.68-.02.16.03.34-.02.49.1.07.01.14.02.2.03-.02.03-.05.06-.08.07.03-.01.06-.04.08-.07.18.04.39.04.5.23.17-.02.35-.15.49.06.07.03.14.06.21.09.53,0,1.06.02,1.49.39-.01,0-.02,0-.03,0,.01,0,.02,0,.03,0,.23.02.45.06.55.31.02.01.03.03.02.06.21.06.38.18.53.33.13-.02.16.06.16.17.13.07.26.15.39.22.14-.08.21,0,.28.11.1-.02.15.05.21.11-.11.1-.22.18-.35.26.12-.07.23-.16.35-.26.21.06.36.21.51.36.08.1.15.2.23.3-.27.04-.55.08-.82.11-.03.06-.07.13-.1.19.03-.06.07-.13.1-.19l.82-.11c.08.05.17.08.15.21.38.68.29.87-.45.89-.34.01-.68,0-1.02,0,0-.03,0-.06,0-.1,0-.03,0-.07,0-.1,0,0,0,0,0-.01h0s0,.08,0,.11c0,.03,0,.06,0,.1-.45.07-.27.29-.11.5.04,0,.08,0,.11,0,.02.11.1.22.15.33-.05-.11-.13-.22-.15-.33.49-.07.99-.04,1.46.06.43.09.82.04,1.2-.15.04,0,.07.01.11.02.04.01.09.02.13.03.03-.02.05-.02.08,0,.33-.03.61-.31.97-.18.17-.07.33-.13.5-.2h0s0,0,0,0c.59-.27,1.11-.63,1.56-1.11.13-.14.29-.27.5-.29.03-.02.05-.04.08-.07.08-.12.22-.12.34-.16,1.26-.8,2.53-1.58,4.03-1.86.86-.16,1.09.01,1.16.92-.07.47-.27.89-.54,1.29-.11.16-.25.23-.41.3-.02.04-.04.08-.06.12.18.21-.15.1-.13.21.02.03.01.05,0,.08.03.14-.03.24-.15.31-.02.03-.04.06-.07.08-.16.31-.38.56-.63.8-.03.03-.05.07-.08.1.01.06-.01.09-.07.09-.08.19-.27.27-.42.4,0,.25-.21.36-.36.51-.16.23-.24.53-.5.68-.13.19.01.33.09.49h0c.46.49.92.98,1.39,1.47.21.13.37.31.52.49.92.64,1.49,1.52,1.64,2.63.03.26,0,.61-.38.71Z"/>
    </g>
  </g>
</svg>