<?xml version="1.0" encoding="UTF-8"?>
<svg id="Layer_2" data-name="Layer 2" xmlns="http://www.w3.org/2000/svg" xmlns:xlink="http://www.w3.org/1999/xlink" viewBox="0 0 87.38 87.38">
  <defs>
    <style>
      .cls-1 {
        fill: #4c7738;
      }

      .cls-1, .cls-2, .cls-3, .cls-4 {
        stroke-width: 0px;
      }

      .cls-2 {
        fill: #035129;
      }

      .cls-3 {
        fill: url(#radial-gradient-2);
      }

      .cls-4 {
        fill: url(#radial-gradient);
      }
    </style>
    <radialGradient id="radial-gradient" cx="43.69" cy="43.69" fx="66.37" fy="13.66" r="43.69" gradientUnits="userSpaceOnUse">
      <stop offset="0" stop-color="#cbd327"/>
      <stop offset=".41" stop-color="#c9d126"/>
      <stop offset=".56" stop-color="#c2cb26"/>
      <stop offset=".67" stop-color="#b6c226"/>
      <stop offset=".75" stop-color="#a5b425"/>
      <stop offset=".82" stop-color="#8fa224"/>
      <stop offset=".89" stop-color="#748c23"/>
      <stop offset=".95" stop-color="#557222"/>
      <stop offset="1" stop-color="#305421"/>
      <stop offset="1" stop-color="#2f5321"/>
    </radialGradient>
    <radialGradient id="radial-gradient-2" cx="43.69" cy="43.69" fx="43.69" fy="43.69" r="36.92" gradientUnits="userSpaceOnUse">
      <stop offset="0" stop-color="#fff"/>
      <stop offset=".43" stop-color="#fdfdfd"/>
      <stop offset=".59" stop-color="#f6f6f6"/>
      <stop offset=".7" stop-color="#eaeaeb"/>
      <stop offset=".79" stop-color="#d9dadb"/>
      <stop offset=".87" stop-color="#c3c4c6"/>
      <stop offset=".94" stop-color="#a9aaac"/>
      <stop offset="1" stop-color="#898b8e"/>
      <stop offset="1" stop-color="#87898c"/>
    </radialGradient>
  </defs>
  <g id="Layer_1-2" data-name="Layer 1">
    <g>
      <circle class="cls-4" cx="43.69" cy="43.69" r="43.69"/>
      <circle class="cls-2" cx="43.69" cy="43.69" r="38.72"/>
      <circle class="cls-3" cx="43.69" cy="43.69" r="36.92"/>
    </g>
    <g id="X7v2DM">
      <g>
        <path class="cls-1" d="m39.93,48.26c-6.53,0-13.07,0-19.6,0-2.81,0-5.03-2.04-5.28-5.01-.24-2.82,1.81-5.17,4.06-5.51,1.14-.17,1.67-.69,2.23-1.61,1.91-3.15,5.25-4.42,8.81-3.49.5.13.55-.09.64-.46,1.39-5.44,4.8-8.89,10.3-10.06,3.42-.73,6.66-.03,9.59,1.92.44.29.73.32,1.18.01,6.07-4.1,14.46-2.24,18.25,4.02,3.68,6.09,2.16,13.67-3.61,17.82-2.17,1.56-4.62,2.36-7.31,2.36-6.42.01-12.84,0-19.26,0Z"/>
        <path class="cls-1" d="m27.38,56.69c-.81,0-1.46-.86-1.11-1.61.56-1.22,1.24-2.39,2.02-3.49.36-.51.99-.58,1.51-.27.51.31.79.91.53,1.44-.58,1.22-1.26,2.38-2.02,3.49-.21.31-.55.44-.93.44Z"/>
        <path class="cls-1" d="m27.27,60.62c-.04.12-.07.33-.17.5-.59,1.04-1.18,2.08-1.8,3.11-.27.45-.69.7-1.23.62-.5-.08-.83-.39-1.01-.87-.13-.35-.04-.67.13-.97.57-1.01,1.14-2.02,1.74-3.01.33-.55.93-.79,1.43-.64.49.14.89.66.9,1.26Z"/>
        <path class="cls-1" d="m42.66,63.87c-.82-.01-1.45-.86-1.1-1.61.56-1.22,1.24-2.39,2.02-3.49.38-.53,1.04-.58,1.55-.23.51.34.74.98.44,1.52-.6,1.1-1.23,2.18-1.88,3.25-.22.37-.59.57-1.04.56Z"/>
        <path class="cls-1" d="m51.74,61.83c-.03.09-.04.27-.12.41-.6,1.12-1.21,2.24-1.91,3.3-.27.4-.66.62-1.16.53-.5-.09-.83-.4-1-.88-.11-.31-.07-.6.08-.87.6-1.06,1.19-2.12,1.82-3.16.35-.57.92-.75,1.45-.57.46.15.83.68.84,1.23Z"/>
        <path class="cls-1" d="m36.23,50.98c-.04.11-.07.32-.17.49-.57,1.01-1.14,2.02-1.74,3.01-.28.47-.7.8-1.3.69-.79-.15-1.27-1-.9-1.71.58-1.11,1.22-2.19,1.88-3.25.33-.53.91-.68,1.42-.49.47.17.82.69.81,1.27Z"/>
        <path class="cls-1" d="m57.73,57.87c-.04.13-.07.32-.16.48-.6,1.06-1.18,2.12-1.82,3.16-.38.61-1,.78-1.55.54-.57-.25-.93-.93-.66-1.48.58-1.23,1.25-2.42,2.05-3.53.31-.44.82-.52,1.32-.33.5.19.74.6.82,1.18Z"/>
        <path class="cls-1" d="m50.52,52.68c.84,0,1.48.87,1.11,1.64-.55,1.16-1.21,2.28-1.93,3.35-.41.61-1.07.7-1.62.35-.57-.37-.74-1.02-.39-1.67.55-1,1.12-1.99,1.7-2.97.25-.42.61-.71,1.13-.71Z"/>
        <path class="cls-1" d="m44.58,55.49c-.79,0-1.46-.88-1.13-1.61.56-1.22,1.23-2.39,2.02-3.48.38-.53,1.06-.59,1.55-.26.55.37.75.97.43,1.56-.58,1.07-1.19,2.11-1.81,3.16-.23.39-.6.61-1.07.63Z"/>
        <path class="cls-1" d="m40.8,53.57c.02.25-.05.48-.18.7-.56.97-1.1,1.95-1.69,2.91-.5.82-1.32.98-1.93.41-.41-.38-.58-.86-.31-1.37.61-1.12,1.23-2.22,1.9-3.3.33-.53.88-.68,1.36-.5.52.2.81.58.83,1.14Z"/>
        <path class="cls-1" d="m34.54,64.81c-.02-.21.06-.42.17-.62.56-.99,1.11-1.99,1.71-2.96.5-.82,1.39-.93,1.98-.31.37.39.51.85.24,1.34-.61,1.09-1.22,2.18-1.88,3.25-.32.52-.86.68-1.36.51-.54-.18-.86-.63-.85-1.21Z"/>
        <path class="cls-1" d="m57.72,51.25c-.04.12-.07.33-.17.51-.58,1.03-1.15,2.05-1.76,3.06-.28.46-.7.73-1.27.65-.52-.07-.81-.41-.99-.88-.12-.31-.06-.6.09-.86.59-1.06,1.18-2.12,1.82-3.15.34-.56.89-.74,1.39-.58.49.15.9.7.89,1.26Z"/>
        <path class="cls-1" d="m33.33,59c-.02.25-.07.47-.18.66-.57,1-1.14,2.01-1.74,3-.28.46-.69.74-1.26.66-.52-.07-.81-.41-1-.87-.12-.3-.07-.6.08-.86.6-1.07,1.2-2.15,1.85-3.2.33-.53.92-.72,1.41-.53.52.2.78.61.85,1.13Z"/>
      </g>
    </g>
  </g>
</svg>