<?xml version="1.0" encoding="UTF-8"?>
<svg id="Layer_2" data-name="Layer 2" xmlns="http://www.w3.org/2000/svg" viewBox="0 0 78.82 78.82">
  <defs>
    <style>
      .cls-1 {
        fill: #4c7738;
      }

      .cls-1, .cls-2, .cls-3, .cls-4 {
        stroke-width: 0px;
      }

      .cls-2 {
        fill: #fff;
      }

      .cls-3 {
        fill: #aeb521;
      }

      .cls-4 {
        fill: #003c3a;
      }
    </style>
  </defs>
  <g id="Layer_1-2" data-name="Layer 1">
    <g>
      <g>
        <circle class="cls-4" cx="39.41" cy="39.41" r="39.41"/>
        <circle class="cls-2" cx="39.41" cy="39.41" r="35.94"/>
        <circle class="cls-3" cx="39.41" cy="39.41" r="32.57"/>
        <path class="cls-1" d="m12.03,39.41c0,15.12,12.26,27.38,27.38,27.38s27.38-12.26,27.38-27.38H12.03Z"/>
      </g>
      <g>
        <path class="cls-2" d="m63.11,40.49c-.19-12.71-10.56-22.7-23.05-22.67-12.23-.08-23.21,9.84-23.05,23.37.15,12.73,10.57,22.83,23.28,22.72,12.74-.11,23-10.54,22.82-23.42Zm-17.56-4.25c.84.57,1.53.3,2.23-.26.25-.2.5-.28.4-.7-.08-.33.2-.49.51-.52.29-.02.59-.02.88-.05.67-.07,1.34-.18,1.7.63-.58,1.24-.58,1.33-.1,2.8-.39.23-.77.47-1.16.68-.39.21-.59.04-.57-.38-.85-.27-1.68-.54-2.51-.8-.11-.03-.27,0-.38.04-.29.14-.57.32-.86.45-.09.04-.24.05-.33.01-.05-.02-.07-.2-.04-.29.17-.46.12-.89-.08-1.34-.13-.29.06-.47.32-.29Zm-6.96-8.23c1.3.42,2.49,1.03,3.34,2.13.34.45.57,1.02.76,1.56.19.55.05.89-.51,1.12-.92.37-1.88.65-2.83.96-.19.06-.39.08-.59.11-.85.15-.9.13-1.31-.62-.38-.69-.57-1.43-.56-2.49.02-.75.3-1.69.94-2.51.21-.26.46-.36.77-.26Zm-13.85,5.91c-.11-.09-.08-.37-.1-.57,0-.03,0-.06.02-.09.44-.92.37-1.81-.12-2.7-.1-.18-.03-.45-.03-.68.23,0,.48-.06.68.01.68.25,1.35.54,2.01.84.27.12.47.09.72-.08.86-.57,1.73-1.12,2.62-1.66.28-.17.4-.31.26-.66-.33-.85,0-1.43.9-1.51,1.28-.12,2.56-.16,3.84-.22.39-.02.71.15.94.49.18.27.41.51.62.76.05,0,.11,0,.16-.01-.09.16-.17.31-.27.47-1.05,1.76-1.04,3.54-.1,5.33.23.44.2.54-.27.52-.68-.02-1.16.3-1.64.73-.28.25-.67.44-1.04.51-.53.1-.72-.21-.55-.73.04-.11.07-.23.12-.41-.58-.1-1.12-.19-1.66-.28-1.3-.23-2.55-.59-3.73-1.2-.29-.15-.54-.13-.83.03-.64.37-1.29.74-1.95,1.07-.17.08-.46.12-.58.03Zm19.64,19.7c-1.19-.1-2.05.43-2.78,1.27-.48.55-1.11.71-1.8.66-.6-.04-.81-.39-.63-.96.27-.85.27-.87-.59-.99-1.97-.28-3.92-.65-5.79-1.37-.65-.25-1.29-.52-1.9-.84-.42-.22-.77-.21-1.17.03-.95.55-1.91,1.08-2.87,1.61-.16.09-.32.18-.49.25-.56.23-.99-.08-.87-.67.09-.48.23-.96.4-1.42.29-.79.25-1.53-.13-2.28-.19-.38-.33-.8-.5-1.19-.12-.28-.18-.57.06-.82.26-.27.56-.19.86-.07,1.11.47,2.22.92,3.32,1.41.45.2.79.18,1.18-.14,1.24-1.03,2.6-1.88,4.05-2.58.66-.32.68-.36.42-1.05-.5-1.32.1-2.25,1.55-2.36,1.26-.09,2.53-.14,3.79-.21.55-.03,1.11-.07,1.66-.1,0,0,0,.01,0,.02.26,0,.53-.03.79,0,.59.09,1.04.39,1.22.99.12.4.33.64.77.67.42.03.31.29.18.53-.3.54-.65,1.06-.88,1.62-1.02,2.51-.79,4.94.53,7.29.29.53.22.74-.37.69Zm8.74-2.15c-1.14.65-2.37,1.03-3.64,1.32-.83.19-1.67.32-2.49.51-.4.09-.65-.04-.87-.35-.94-1.26-1.37-2.68-1.37-4,0-1.83.45-3.28,1.45-4.54.44-.56.65-.62,1.32-.4,2.18.73,4.15,1.8,5.46,3.77.4.6.65,1.33.87,2.03.24.79,0,1.24-.73,1.66Zm.52-13.79c-.6.2-1.2.38-1.81.53-.1.02-.3-.11-.35-.22-.17-.37-.29-.77-.44-1.15.02,0,.04-.02.07-.02,0-.05,0-.09.01-.14.14-1.35.7-1.63,1.82-.88.46.31.83.68.98,1.24.08.3.02.55-.27.64Z"/>
        <path class="cls-2" d="m50.04,47.33c-.37,0-.7.35-.68.72.02.35.34.65.7.65.39,0,.69-.32.67-.71-.01-.36-.33-.66-.69-.66Z"/>
        <path class="cls-2" d="m40.26,31c.16,0,.33-.22.6-.43-.28-.19-.46-.41-.59-.38-.17.04-.3.27-.45.42.14.14.29.38.43.38Z"/>
      </g>
      <g>
        <path class="cls-4" d="m62.23,38.61c-.19-12.71-10.56-22.7-23.05-22.67-12.23-.08-23.21,9.84-23.05,23.37.15,12.73,10.57,22.83,23.28,22.72,12.74-.11,23-10.54,22.82-23.42Zm-17.56-4.25c.84.57,1.53.3,2.23-.26.25-.2.5-.28.4-.7-.08-.33.2-.49.51-.52.29-.02.59-.02.88-.05.67-.07,1.34-.18,1.7.63-.58,1.24-.58,1.33-.1,2.8-.39.23-.77.47-1.16.68-.39.21-.59.04-.57-.38-.85-.27-1.68-.54-2.51-.8-.11-.03-.27,0-.38.04-.29.14-.57.32-.86.45-.09.04-.24.05-.33.01-.05-.02-.07-.2-.04-.29.17-.46.12-.89-.08-1.34-.13-.29.06-.47.32-.29Zm-6.96-8.23c1.3.42,2.49,1.03,3.34,2.13.34.45.57,1.02.76,1.56.19.55.05.89-.51,1.12-.92.37-1.88.65-2.83.96-.19.06-.39.08-.59.11-.85.15-.9.13-1.31-.62-.38-.69-.57-1.43-.56-2.49.02-.75.3-1.69.94-2.51.21-.26.46-.36.77-.26Zm-13.85,5.91c-.11-.09-.08-.37-.1-.57,0-.03,0-.06.02-.09.44-.92.37-1.81-.12-2.7-.1-.18-.03-.45-.03-.68.23,0,.48-.06.68.01.68.25,1.35.54,2.01.84.27.12.47.09.72-.08.86-.57,1.73-1.12,2.62-1.66.28-.17.4-.31.26-.66-.33-.85,0-1.43.9-1.51,1.28-.12,2.56-.16,3.84-.22.39-.02.71.15.94.49.18.27.41.51.62.76.05,0,.11,0,.16-.01-.09.16-.17.31-.27.47-1.05,1.76-1.04,3.54-.1,5.33.23.44.2.54-.27.52-.68-.02-1.16.3-1.64.73-.28.25-.67.44-1.04.51-.53.1-.72-.21-.55-.73.04-.11.07-.23.12-.41-.58-.1-1.12-.19-1.66-.28-1.3-.23-2.55-.59-3.73-1.2-.29-.15-.54-.13-.83.03-.64.37-1.29.74-1.95,1.07-.17.08-.46.12-.58.03Zm19.64,19.7c-1.19-.1-2.05.43-2.78,1.27-.48.55-1.11.71-1.8.66-.6-.04-.81-.39-.63-.96.27-.85.27-.87-.59-.99-1.97-.28-3.92-.65-5.79-1.37-.65-.25-1.29-.52-1.9-.84-.42-.22-.77-.21-1.17.03-.95.55-1.91,1.08-2.87,1.61-.16.09-.32.18-.49.25-.56.23-.99-.08-.87-.67.09-.48.23-.96.4-1.42.29-.79.25-1.53-.13-2.28-.19-.38-.33-.8-.5-1.19-.12-.28-.18-.57.06-.82.26-.27.56-.19.86-.07,1.11.47,2.22.92,3.32,1.41.45.2.79.18,1.18-.14,1.24-1.03,2.6-1.88,4.05-2.58.66-.32.68-.36.42-1.05-.5-1.32.1-2.25,1.55-2.36,1.26-.09,2.53-.14,3.79-.21.55-.03,1.11-.07,1.66-.1,0,0,0,.01,0,.02.26,0,.53-.03.79,0,.59.09,1.04.39,1.22.99.12.4.33.64.77.67.42.03.31.29.18.53-.3.54-.65,1.06-.88,1.62-1.02,2.51-.79,4.94.53,7.29.29.53.22.74-.37.69Zm8.74-2.15c-1.14.65-2.37,1.03-3.64,1.32-.83.19-1.67.32-2.49.51-.4.09-.65-.04-.87-.35-.94-1.26-1.37-2.68-1.37-4,0-1.83.45-3.28,1.45-4.54.44-.56.65-.62,1.32-.4,2.18.73,4.15,1.8,5.46,3.77.4.6.65,1.33.87,2.03.24.79,0,1.24-.73,1.66Zm.52-13.79c-.6.2-1.2.38-1.81.53-.1.02-.3-.11-.35-.22-.17-.37-.29-.77-.44-1.15.02,0,.04-.02.07-.02,0-.05,0-.09.01-.14.14-1.35.7-1.63,1.82-.88.46.31.83.68.98,1.24.08.3.02.55-.27.64Z"/>
        <path class="cls-4" d="m49.15,45.44c-.37,0-.7.35-.68.72.02.35.34.65.7.65.39,0,.69-.32.67-.71-.01-.36-.33-.66-.69-.66Z"/>
        <path class="cls-4" d="m39.38,29.12c.16,0,.33-.22.6-.43-.28-.19-.46-.41-.59-.38-.17.04-.3.27-.45.42.14.14.29.38.43.38Z"/>
      </g>
    </g>
  </g>
</svg>