<?xml version="1.0" encoding="UTF-8"?>
<svg xmlns="http://www.w3.org/2000/svg" width="87" height="87" viewBox="0 0 87 87" fill="none">
  <path d="M43.5 80C63.6584 80 80 63.6584 80 43.5C80 23.3416 63.6584 7 43.5 7C23.3416 7 7 23.3416 7 43.5C7 63.6584 23.3416 80 43.5 80Z" fill="url(#paint0_radial_436_93)"></path>
  <path d="M43.5 75.8482C61.3658 75.8482 75.8489 61.3651 75.8489 43.4993C75.8489 25.6335 61.3658 11.1504 43.5 11.1504C25.6342 11.1504 11.1511 25.6335 11.1511 43.4993C11.1511 61.3651 25.6342 75.8482 43.5 75.8482Z" fill="#035129"></path>
  <path d="M43.4999 74.3475C60.536 74.3475 74.3465 60.537 74.3465 43.5009C74.3465 26.4648 60.536 12.6543 43.4999 12.6543C26.4638 12.6543 12.6533 26.4648 12.6533 43.5009C12.6533 60.537 26.4638 74.3475 43.4999 74.3475Z" fill="url(#paint1_radial_436_93)"></path>
  <g style="mix-blend-mode:multiply">
    <path d="M58.7902 62.2712C57.6437 61.5299 57.5547 60.6503 58.5233 59.6718C58.9912 59.204 58.9912 58.7329 58.5233 58.2584C57.2879 57.023 56.0327 55.7876 54.8071 54.5323C53.9077 53.6132 54.1251 52.1801 55.2321 51.5772C55.9536 51.1818 56.8234 51.3202 57.446 51.9527C58.7902 53.287 60.1343 54.6213 61.4587 55.9753C61.7651 56.2817 61.9628 56.3213 62.2198 55.9753C62.3087 55.8469 62.4372 55.7579 62.5459 55.6393C63.5244 54.6608 64.3942 54.7498 65.1453 55.9062C65.1453 57.9422 65.1453 59.9782 65.1453 62.0142C65.1453 62.2218 65.0959 62.2712 64.8883 62.2712C62.8523 62.2712 60.8163 62.2712 58.7803 62.2712H58.7902Z" fill="#4C7738"></path>
    <path d="M22.6459 62.271C21.9343 61.9448 21.6477 61.4012 21.6675 60.6105C21.707 59.2367 21.6872 57.8728 21.6675 56.499C21.6675 55.8466 21.9047 55.3722 22.5076 55.1153C23.1302 54.8484 23.6639 55.0164 24.1285 55.4809C24.2965 55.649 24.4843 55.8071 24.6325 55.9949C24.8796 56.3112 25.0674 56.3112 25.3639 56.0147C26.6883 54.6606 28.0325 53.3362 29.3668 51.992C29.9301 51.4287 30.5923 51.231 31.3435 51.488C32.6679 51.9426 33.0237 53.5438 32.0353 54.5519C30.701 55.9158 29.3569 57.26 27.9831 58.5943C27.6767 58.9007 27.6371 59.0983 27.9831 59.3553C28.1115 59.4443 28.2005 59.5727 28.3191 59.6815C29.2877 60.6599 29.1987 61.5396 28.0522 62.2808H22.6262L22.6459 62.271Z" fill="#4C7738"></path>
    <path d="M41.6718 52.683C41.6718 55.4998 41.6718 58.3068 41.6718 61.1236C41.6718 61.7166 41.6619 61.7265 41.1183 61.5288C38.2817 60.491 35.4452 59.4434 32.6086 58.3957C32.1144 58.2178 32.1144 58.198 32.4801 57.8324C32.9842 57.3184 33.5179 56.8242 34.0022 56.3004C35.2574 54.9365 35.5737 53.3353 34.9213 51.6255C34.2789 49.9354 32.994 48.9866 31.1853 48.7988C29.8412 48.6604 28.6749 49.0656 27.6965 49.9947C27.0145 50.647 26.3523 51.329 25.6802 52.001C25.5913 52.09 25.5122 52.2481 25.3837 52.1987C25.2157 52.1394 25.2849 51.9516 25.2849 51.8231C25.2849 47.0988 25.2849 42.3843 25.2849 37.66C25.2849 37.1955 25.3244 37.1658 25.7296 37.3338C30.9086 39.4094 36.0876 41.4751 41.2765 43.5407C41.5927 43.6692 41.6916 43.8471 41.6916 44.1733C41.6817 47.0099 41.6916 49.8563 41.6916 52.6929L41.6718 52.683Z" fill="#4C7738"></path>
    <path d="M45.1904 52.674C45.1904 49.8769 45.1904 47.0799 45.1904 44.2828C45.1904 43.8677 45.309 43.6602 45.7044 43.502C50.8241 41.466 55.9437 39.4201 61.0535 37.3742C61.5971 37.1568 61.5971 37.1568 61.5971 37.7696C61.5971 42.405 61.5971 47.0404 61.5971 51.6757C61.5971 51.735 61.5971 51.7845 61.5971 51.8438C61.5873 51.9624 61.6466 52.1304 61.5082 52.1897C61.3599 52.2589 61.2908 52.1007 61.2018 52.0118C60.5396 51.3595 59.8873 50.6874 59.2152 50.0351C57.96 48.8392 56.4676 48.4834 54.8269 48.9578C53.1763 49.4421 52.1188 50.5688 51.7432 52.2589C51.4072 53.7414 51.7432 55.0955 52.7909 56.2321C53.3246 56.8152 53.8979 57.3687 54.4612 57.9123C54.7083 58.1495 54.6688 58.2582 54.3624 58.3669C51.4566 59.4245 48.5508 60.5018 45.655 61.5692C45.23 61.7273 45.2003 61.6878 45.2003 61.243C45.2003 58.3867 45.2003 55.5303 45.2003 52.674H45.1904Z" fill="#4C7738"></path>
    <path d="M38.9635 30.1684C39.003 30.8207 38.9042 31.5916 39.0525 32.3724C39.4478 34.4479 41.2861 35.9601 43.4309 35.9601C45.5855 35.9601 47.4238 34.4677 47.8192 32.3823C48.007 31.4038 47.8785 30.4056 47.9081 29.4172C47.918 29.0614 47.9081 28.7056 47.9081 28.3597C47.9081 27.826 47.9081 27.8259 48.432 28.0236C50.1221 28.6957 51.822 29.3777 53.5121 30.0498C56.0225 31.048 58.5231 32.0561 61.0335 33.0544C61.1422 33.0939 61.2411 33.1334 61.3399 33.1927C61.4881 33.2718 61.4881 33.3509 61.3399 33.4299C61.2509 33.4793 61.162 33.509 61.0632 33.5485C55.3603 35.8316 49.6476 38.1147 43.9448 40.4077C43.589 40.5461 43.2925 40.556 42.9367 40.4077C37.2438 38.1246 31.5508 35.8415 25.8579 33.5683C25.7788 33.5386 25.6998 33.509 25.6207 33.4695C25.5416 33.4398 25.4428 33.42 25.4329 33.3212C25.423 33.1927 25.5515 33.1828 25.6306 33.1433C26.2335 32.8962 26.8364 32.659 27.4393 32.4119C31.0962 30.9492 34.763 29.4864 38.4199 28.0236C38.7757 27.8853 38.9536 28.0039 38.9536 28.3794C38.9536 28.9329 38.9536 29.4864 38.9536 30.1585L38.9635 30.1684Z" fill="#4C7738"></path>
    <path d="M41.5632 28.3294C41.5632 27.3114 41.5434 26.2933 41.5632 25.2753C41.5632 24.88 41.4248 24.7416 41.0492 24.7713C40.7725 24.791 40.4859 24.7812 40.1992 24.7614C39.6161 24.7021 39.1911 24.4155 38.9638 23.862C38.7266 23.2887 38.8748 22.7748 39.2899 22.3399C39.9126 21.6876 40.5649 21.0551 41.2074 20.4126C41.4643 20.1557 41.7114 19.8888 41.919 19.5824C42.6009 18.6138 44.0934 18.515 44.8149 19.444C45.5561 20.4027 46.4753 21.1737 47.2956 22.0533C47.4241 22.1917 47.5625 22.3103 47.6712 22.4585C48.3433 23.3184 47.9084 24.5143 46.8311 24.7219C46.6137 24.7614 46.3863 24.7713 46.159 24.7713C45.2102 24.7812 45.309 24.6823 45.309 25.6509C45.309 27.5288 45.309 29.4067 45.309 31.2944C45.309 32.0851 45.0323 32.7374 44.3108 33.1328C43.0457 33.8246 41.6027 32.9153 41.5632 31.3834C41.5335 30.3654 41.5632 29.3474 41.5632 28.3294Z" fill="#4C7738"></path>
  </g>
  <defs>
    <radialGradient id="paint0_radial_436_93" cx="0" cy="0" r="1" gradientUnits="userSpaceOnUse" gradientTransform="translate(43.5 43.5) scale(36.5)">
      <stop stop-color="#CBD327"></stop>
      <stop offset="0.41" stop-color="#C9D126"></stop>
      <stop offset="0.56" stop-color="#C2CB26"></stop>
      <stop offset="0.67" stop-color="#B6C226"></stop>
      <stop offset="0.75" stop-color="#A5B425"></stop>
      <stop offset="0.82" stop-color="#8FA224"></stop>
      <stop offset="0.89" stop-color="#748C23"></stop>
      <stop offset="0.95" stop-color="#557222"></stop>
      <stop offset="1" stop-color="#2F5321"></stop>
    </radialGradient>
    <radialGradient id="paint1_radial_436_93" cx="0" cy="0" r="1" gradientUnits="userSpaceOnUse" gradientTransform="translate(43.4999 43.5009) scale(30.8466)">
      <stop stop-color="#CBD327"></stop>
      <stop offset="0.41" stop-color="#C9D126"></stop>
      <stop offset="0.56" stop-color="#C2CB26"></stop>
      <stop offset="0.67" stop-color="#B6C226"></stop>
      <stop offset="0.75" stop-color="#A5B425"></stop>
      <stop offset="0.82" stop-color="#8FA224"></stop>
      <stop offset="0.89" stop-color="#748C23"></stop>
      <stop offset="0.95" stop-color="#557222"></stop>
      <stop offset="1" stop-color="#2F5321"></stop>
    </radialGradient>
  </defs>
</svg>
