<?xml version="1.0" encoding="UTF-8"?>
<svg id="Layer_2" data-name="Layer 2" xmlns="http://www.w3.org/2000/svg" xmlns:xlink="http://www.w3.org/1999/xlink" viewBox="0 0 87.38 87.38">
  <defs>
    <style>
      .cls-1 {
        fill: #4c7738;
      }

      .cls-1, .cls-2, .cls-3, .cls-4 {
        stroke-width: 0px;
      }

      .cls-2 {
        fill: #035129;
      }

      .cls-3 {
        fill: url(#radial-gradient-2);
      }

      .cls-4 {
        fill: url(#radial-gradient);
      }
    </style>
    <radialGradient id="radial-gradient" cx="43.69" cy="43.69" fx="66.37" fy="13.66" r="43.69" gradientUnits="userSpaceOnUse">
      <stop offset="0" stop-color="#cbd327"/>
      <stop offset=".41" stop-color="#c9d126"/>
      <stop offset=".56" stop-color="#c2cb26"/>
      <stop offset=".67" stop-color="#b6c226"/>
      <stop offset=".75" stop-color="#a5b425"/>
      <stop offset=".82" stop-color="#8fa224"/>
      <stop offset=".89" stop-color="#748c23"/>
      <stop offset=".95" stop-color="#557222"/>
      <stop offset="1" stop-color="#305421"/>
      <stop offset="1" stop-color="#2f5321"/>
    </radialGradient>
    <radialGradient id="radial-gradient-2" cx="43.69" cy="43.69" fx="43.69" fy="43.69" r="36.92" gradientUnits="userSpaceOnUse">
      <stop offset="0" stop-color="#fff"/>
      <stop offset=".43" stop-color="#fdfdfd"/>
      <stop offset=".59" stop-color="#f6f6f6"/>
      <stop offset=".7" stop-color="#eaeaeb"/>
      <stop offset=".79" stop-color="#d9dadb"/>
      <stop offset=".87" stop-color="#c3c4c6"/>
      <stop offset=".94" stop-color="#a9aaac"/>
      <stop offset="1" stop-color="#898b8e"/>
      <stop offset="1" stop-color="#87898c"/>
    </radialGradient>
  </defs>
  <g id="Layer_1-2" data-name="Layer 1">
    <g>
      <circle class="cls-4" cx="43.69" cy="43.69" r="43.69"/>
      <circle class="cls-2" cx="43.69" cy="43.69" r="38.72"/>
      <circle class="cls-3" cx="43.69" cy="43.69" r="36.92"/>
    </g>
    <g id="W9e4Ua">
      <g>
        <path class="cls-1" d="m47.51,32.51c0,3.99.02,7.97-.02,11.96,0,.88.27,1.42.99,1.94,4.64,3.3,6.95,7.78,6.8,13.52-.19,6.94-6.05,13.53-12.93,14.44-6.46.86-11.66-1.33-15.42-6.66-4.06-5.77-3.37-14.07,1.51-19.25.77-.82,1.58-1.62,2.55-2.19.76-.44.94-1.03.94-1.86-.02-7.8-.02-15.6-.02-23.4,0-3.73,2.15-6.71,5.61-7.79,4.9-1.53,9.94,2.1,9.99,7.24.03,4.02,0,8.04,0,12.06Zm-3.96,1.42c0-4.4,0-8.79,0-13.19,0-1.72-1.07-3.15-2.64-3.6-2.54-.75-4.87,1.05-4.87,3.79,0,8.66,0,17.31.01,25.97,0,.82-.16,1.36-1.01,1.76-7.33,3.44-8.98,12.86-3.21,18.55,3.42,3.37,7.54,4.12,11.99,2.52,4.44-1.59,7.21-5.62,7.31-10.24.1-4.93-2.12-8.48-6.5-10.67-.78-.39-1.11-.81-1.11-1.7.04-4.4.02-8.79.02-13.19Z"/>
        <path class="cls-1" d="m57.07,30.38c-1.19,0-2.38.02-3.57,0-1.34-.02-2.24-.83-2.25-1.99-.01-1.17.85-2.08,2.17-2.1,2.45-.05,4.9-.05,7.35,0,1.28.03,2.25,1,2.24,2.07-.01,1.14-1,2.01-2.36,2.03-1.19.02-2.38,0-3.57,0,0,0,0,0,0,0Z"/>
        <path class="cls-1" d="m57.07,22.66c-1.26,0-2.52.02-3.77,0-1.22-.03-2.02-.82-2.04-1.96-.02-1.14.78-2.01,1.97-2.03,2.58-.04,5.17-.03,7.75,0,1.16.01,2.02.93,2.01,2.01-.01,1.1-.84,1.94-2.05,1.97-1.29.04-2.58,0-3.88,0Z"/>
        <path class="cls-1" d="m57.02,37.99c-1.23,0-2.45.02-3.68,0-1.23-.02-2.08-.82-2.1-1.91-.02-1.14.85-2.06,2.06-2.07,2.52-.03,5.04-.03,7.56,0,1.18.01,2.14,1,2.12,2.05-.02,1.1-.85,1.89-2.09,1.93-1.29.03-2.59,0-3.88,0Z"/>
        <path class="cls-1" d="m58.16,41.6c.88,0,1.77-.03,2.65,0,1.19.05,2.15.95,2.18,2.01.04,1.17-.83,2.06-2.17,2.09-1.84.05-3.67.04-5.51,0-1.31-.03-2.17-.86-2.17-1.97,0-1.19.85-2.05,2.15-2.13.47-.03.95-.02,1.43-.02.48,0,.95,0,1.43,0,0,0,0,0,0,.01Z"/>
        <path class="cls-1" d="m41.77,42.49c0,1.94.04,3.88-.01,5.82-.02.88.22,1.31,1.13,1.59,3.61,1.08,6.28,4.59,6.62,8.53.33,3.76-1.88,7.61-5.38,9.38-3.41,1.72-7.69,1.23-10.54-1.23-5.89-5.06-4.19-14.15,3.16-16.69.85-.29,1.08-.7,1.07-1.53-.03-3.81-.01-7.63-.01-11.45,0-.34-.01-.68.03-1.02.16-1.18.98-1.92,2.04-1.87,1.07.05,1.85.84,1.88,2.03.04,2.15.01,4.29.01,6.44Z"/>
      </g>
    </g>
  </g>
</svg>