<?xml version="1.0" encoding="UTF-8"?>
<svg id="Layer_2" data-name="Layer 2" xmlns="http://www.w3.org/2000/svg" viewBox="0 0 104 104">
  <defs>
    <style>
      .cls-1 {
        fill: #4c7738;
      }

      .cls-1, .cls-2, .cls-3, .cls-4 {
        stroke-width: 0px;
      }

      .cls-5 {
        fill: none;
        stroke: #fff;
        stroke-linecap: round;
        stroke-linejoin: round;
        stroke-width: 5px;
      }

      .cls-2 {
        fill: #fff;
      }

      .cls-3 {
        fill: #aeb521;
      }

      .cls-4 {
        fill: #003c3a;
      }
    </style>
  </defs>
  <g id="Layer_1-2" data-name="Layer 1">
    <g>
      <g>
        <circle class="cls-4" cx="52" cy="52" r="52"/>
        <circle class="cls-2" cx="52" cy="52" r="47.43"/>
        <circle class="cls-3" cx="52" cy="52" r="42.98"/>
        <path class="cls-1" d="m15.88,52c0,19.95,16.17,36.12,36.12,36.12s36.12-16.17,36.12-36.12H15.88Z"/>
      </g>
      <g>
        <path class="cls-5" d="m83.57,72.62c-1.99-2.76-3.98-5.51-5.98-8.27-2.07-2.86-4.14-5.72-6.21-8.57-.31-.43-.33-.42-.62,0-.41.61-.8,1.22-1.21,1.83-.36.53-.71.53-1.06-.01-2.84-4.26-5.57-8.58-8.11-13.03-.57-.99-1.11-2-1.65-3.01-.17-.32-.32-.38-.52-.05-.04.07-.09.13-.14.19-2.51,3.46-5.01,6.93-7.52,10.39-.57.79-1.13,1.58-1.71,2.36-.37.5-.68.5-1.05.01-.08-.1-.15-.2-.23-.31-2.1-2.9-4.19-5.79-6.29-8.69q-.35-.48-.68-.02c-6.15,8.5-12.3,16.99-18.45,25.49-.46.63-.91,1.27-1.37,1.89-.24.32-.15.45.23.44.06,0,.13,0,.19,0,3.69,0,7.37,0,11.06,0,.64,0,.65-.02.65-.68,0-2.65,0-5.31,0-7.96,0-.25,0-.51.06-.76.26-1.22,1.22-2.05,2.49-2.12.42-.02.57-.18.53-.58-.01-.13,0-.26,0-.38.04-.35.23-.55.59-.56,1.06,0,2.13,0,3.19,0,.34,0,.52.17.55.52.09.99.09.99,1.09.98.05,0,.1,0,.14,0,.42.05.56-.17.59-.55.05-.58.15-1.17.19-1.75.03-.48.24-.68.72-.67,2.19.01,4.39,0,6.58,0,.56,0,.69.13.76.69.07.55.16,1.1.18,1.66.01.51.24.63.71.62,3.13-.02,6.26-.01,9.39,0,1.9,0,2.99,1.09,3,2.99,0,2.62,0,5.24,0,7.87,0,.68,0,.68.7.68,3.15,0,6.29,0,9.44,0,3.15,0,6.29,0,9.44,0,.2,0,.48.09.58-.1.13-.23-.14-.39-.26-.56Zm-26.5-25.21c-1.42,1.97-2.85,3.93-4.27,5.9-.21.29-.47.55-.82.27-.33-.26-.2-.59.01-.88,1.43-1.98,2.87-3.96,4.3-5.94.17-.23.35-.42.67-.33.23.07.32.24.33.47,0,.21-.11.36-.22.52Z"/>
        <path class="cls-5" d="m58.46,38.79c2.97,6.07,6.61,11.73,10.28,17.38.22.34.36.31.56-.01,1.29-2.02,2.61-4.03,3.87-6.07,2.38-3.82,4.69-7.68,6.61-11.75.99-2.1,1.77-4.26,1.67-6.57.05-1.23-.1-2.38-.39-3.51-1.07-4.22-3.6-7.09-7.84-8.29-2.52-.71-5.08-.71-7.65-.19-2.01.4-3.82,1.27-5.3,2.67-3.15,2.99-4.04,6.79-3.62,10.98.19,1.91.96,3.65,1.79,5.35Zm10.59-14.54c3.88,0,6.94,3.08,6.94,6.97,0,3.88-3.08,6.95-6.97,6.94-3.9,0-6.95-3.05-6.95-6.95,0-3.93,3.05-6.98,6.98-6.97Z"/>
        <path class="cls-5" d="m60.53,62.75c-4.08,0-8.17,0-12.25,0-4.18,0-8.36,0-12.54,0-1.14,0-1.84.7-1.84,1.85,0,5.86,0,11.73,0,17.59,0,.31.04.6.18.88.4.79,1.09,1,1.9.99,8.18,0,16.37,0,24.55,0,1.46,0,2.12-.67,2.12-2.14,0-5.69,0-11.38,0-17.07,0-1.47-.64-2.11-2.13-2.11Zm-14.17,18.25c-4.28,0-7.65-3.38-7.64-7.67,0-4.18,3.45-7.58,7.67-7.56,4.22.01,7.58,3.4,7.57,7.64,0,4.26-3.35,7.6-7.6,7.59Zm14.41-12.02c-.9-.01-1.81,0-2.72,0-.89,0-1.78,0-2.67,0-.44,0-.65-.18-.64-.62,0-.9,0-1.81,0-2.72,0-.44.24-.63.66-.63,1.78,0,3.56,0,5.33,0,.49,0,.66.18.66.67.01.89,0,1.78,0,2.67,0,.44-.19.64-.63.63Z"/>
        <path class="cls-5" d="m46.34,61.74c.78,0,1.56,0,2.33,0,.85,0,1.05.14.85-.92-.04-.19-.04-.38-.05-.57-.02-.4-.21-.54-.61-.53-1.65.02-3.3.02-4.95,0-.47,0-.67.16-.66.63,0,.3-.04.6-.1.9-.08.4.12.5.47.49.91-.01,1.81,0,2.72,0Z"/>
        <path class="cls-5" d="m80.53,75.43c-.18-.08-.37-.07-.56-.07-1.3,0-2.61,0-3.91,0-1.29,0-2.57,0-3.86,0-.16,0-.32,0-.47.03-.31.07-.51.26-.51.59,0,.34.19.53.5.6.12.03.25.03.38.03,2.64,0,5.27,0,7.91,0,.17,0,.35-.02.52-.07.25-.08.4-.27.41-.53.01-.28-.14-.48-.4-.59Z"/>
        <path class="cls-5" d="m69.57,75.27c-.34,0-.64.28-.65.63-.02.34.26.66.6.68.36.03.68-.26.69-.63.02-.38-.27-.68-.64-.69Z"/>
        <path class="cls-5" d="m39.05,61.73c.16,0,.28-.07.27-.26-.01-.19-.15-.23-.3-.23-.28,0-.57,0-.85,0-.28,0-.57,0-.85,0-.15,0-.29.04-.3.23,0,.18.13.25.28.25.58,0,1.17,0,1.75,0Z"/>
        <path class="cls-5" d="m69,37.16c3.31,0,5.97-2.62,5.98-5.9.01-3.34-2.68-6.06-5.97-6.03-3.31.03-6,2.73-5.99,5.99.01,3.27,2.68,5.93,5.97,5.94Zm1.81-4.35c-.6,0-1.2,0-1.81,0-.59,0-1.17,0-1.76,0-.34,0-.62-.11-.64-.48-.01-.37.26-.52.6-.52,1.2,0,2.41,0,3.61,0,.35,0,.59.16.58.54,0,.38-.28.46-.59.46Zm-3.6-3.21c.62,0,1.24,0,1.85,0,.59,0,1.17,0,1.76,0,.32,0,.58.09.58.47,0,.38-.23.53-.58.54-1.2,0-2.41,0-3.61,0-.34,0-.61-.15-.59-.53.02-.34.27-.48.6-.47Z"/>
        <path class="cls-5" d="m46.36,66.77c-3.65,0-6.64,2.99-6.63,6.65,0,3.63,2.98,6.57,6.64,6.57,3.63,0,6.57-2.92,6.62-6.56.04-3.62-2.99-6.66-6.63-6.67Zm5.38,6.64c.02.86-.17,1.68-.58,2.43-1.03,1.91-2.67,2.87-4.44,2.95-3.08,0-5.45-2.12-5.71-4.66-.35-3.39,1.96-5.59,4.35-6.04.26-.05.54-.05.81-.08.35-.04.63.07.67.44.05.38-.22.52-.57.54-1.42.11-2.6.67-3.46,1.84-1.09,1.49-1.12,3.51-.07,5.05,1.05,1.53,2.98,2.25,4.73,1.76,1.82-.5,3.15-2.1,3.27-3.92,0-.11,0-.22.02-.33.04-.29.21-.46.51-.46.31,0,.47.19.47.49Z"/>
        <path class="cls-5" d="m60.44,66.53s0-.1,0-.14c0-.25-.12-.38-.38-.38-1.3,0-2.6,0-3.9,0-.28,0-.41.12-.4.4,0,.38.01.76,0,1.14,0,.31.13.42.43.42.63-.01,1.27,0,1.9,0,.33,0,.67,0,1,0,1.57-.04,1.35.34,1.36-1.44Z"/>
      </g>
      <g>
        <path class="cls-4" d="m83.57,72.62c-1.99-2.76-3.98-5.51-5.98-8.27-2.07-2.86-4.14-5.72-6.21-8.57-.31-.43-.33-.42-.62,0-.41.61-.8,1.22-1.21,1.83-.36.53-.71.53-1.06-.01-2.84-4.26-5.57-8.58-8.11-13.03-.57-.99-1.11-2-1.65-3.01-.17-.32-.32-.38-.52-.05-.04.07-.09.13-.14.19-2.51,3.46-5.01,6.93-7.52,10.39-.57.79-1.13,1.58-1.71,2.36-.37.5-.68.5-1.05.01-.08-.1-.15-.2-.23-.31-2.1-2.9-4.19-5.79-6.29-8.69q-.35-.48-.68-.02c-6.15,8.5-12.3,16.99-18.45,25.49-.46.63-.91,1.27-1.37,1.89-.24.32-.15.45.23.44.06,0,.13,0,.19,0,3.69,0,7.37,0,11.06,0,.64,0,.65-.02.65-.68,0-2.65,0-5.31,0-7.96,0-.25,0-.51.06-.76.26-1.22,1.22-2.05,2.49-2.12.42-.02.57-.18.53-.58-.01-.13,0-.26,0-.38.04-.35.23-.55.59-.56,1.06,0,2.13,0,3.19,0,.34,0,.52.17.55.52.09.99.09.99,1.09.98.05,0,.1,0,.14,0,.42.05.56-.17.59-.55.05-.58.15-1.17.19-1.75.03-.48.24-.68.72-.67,2.19.01,4.39,0,6.58,0,.56,0,.69.13.76.69.07.55.16,1.1.18,1.66.01.51.24.63.71.62,3.13-.02,6.26-.01,9.39,0,1.9,0,2.99,1.09,3,2.99,0,2.62,0,5.24,0,7.87,0,.68,0,.68.7.68,3.15,0,6.29,0,9.44,0,3.15,0,6.29,0,9.44,0,.2,0,.48.09.58-.1.13-.23-.14-.39-.26-.56Zm-26.5-25.21c-1.42,1.97-2.85,3.93-4.27,5.9-.21.29-.47.55-.82.27-.33-.26-.2-.59.01-.88,1.43-1.98,2.87-3.96,4.3-5.94.17-.23.35-.42.67-.33.23.07.32.24.33.47,0,.21-.11.36-.22.52Z"/>
        <path class="cls-4" d="m58.46,38.79c2.97,6.07,6.61,11.73,10.28,17.38.22.34.36.31.56-.01,1.29-2.02,2.61-4.03,3.87-6.07,2.38-3.82,4.69-7.68,6.61-11.75.99-2.1,1.77-4.26,1.67-6.57.05-1.23-.1-2.38-.39-3.51-1.07-4.22-3.6-7.09-7.84-8.29-2.52-.71-5.08-.71-7.65-.19-2.01.4-3.82,1.27-5.3,2.67-3.15,2.99-4.04,6.79-3.62,10.98.19,1.91.96,3.65,1.79,5.35Zm10.59-14.54c3.88,0,6.94,3.08,6.94,6.97,0,3.88-3.08,6.95-6.97,6.94-3.9,0-6.95-3.05-6.95-6.95,0-3.93,3.05-6.98,6.98-6.97Z"/>
        <path class="cls-4" d="m60.53,62.75c-4.08,0-8.17,0-12.25,0-4.18,0-8.36,0-12.54,0-1.14,0-1.84.7-1.84,1.85,0,5.86,0,11.73,0,17.59,0,.31.04.6.18.88.4.79,1.09,1,1.9.99,8.18,0,16.37,0,24.55,0,1.46,0,2.12-.67,2.12-2.14,0-5.69,0-11.38,0-17.07,0-1.47-.64-2.11-2.13-2.11Zm-14.17,18.25c-4.28,0-7.65-3.38-7.64-7.67,0-4.18,3.45-7.58,7.67-7.56,4.22.01,7.58,3.4,7.57,7.64,0,4.26-3.35,7.6-7.6,7.59Zm14.41-12.02c-.9-.01-1.81,0-2.72,0-.89,0-1.78,0-2.67,0-.44,0-.65-.18-.64-.62,0-.9,0-1.81,0-2.72,0-.44.24-.63.66-.63,1.78,0,3.56,0,5.33,0,.49,0,.66.18.66.67.01.89,0,1.78,0,2.67,0,.44-.19.64-.63.63Z"/>
        <path class="cls-4" d="m46.34,61.74c.78,0,1.56,0,2.33,0,.85,0,1.05.14.85-.92-.04-.19-.04-.38-.05-.57-.02-.4-.21-.54-.61-.53-1.65.02-3.3.02-4.95,0-.47,0-.67.16-.66.63,0,.3-.04.6-.1.9-.08.4.12.5.47.49.91-.01,1.81,0,2.72,0Z"/>
        <path class="cls-4" d="m80.53,75.43c-.18-.08-.37-.07-.56-.07-1.3,0-2.61,0-3.91,0-1.29,0-2.57,0-3.86,0-.16,0-.32,0-.47.03-.31.07-.51.26-.51.59,0,.34.19.53.5.6.12.03.25.03.38.03,2.64,0,5.27,0,7.91,0,.17,0,.35-.02.52-.07.25-.08.4-.27.41-.53.01-.28-.14-.48-.4-.59Z"/>
        <path class="cls-4" d="m69.57,75.27c-.34,0-.64.28-.65.63-.02.34.26.66.6.68.36.03.68-.26.69-.63.02-.38-.27-.68-.64-.69Z"/>
        <path class="cls-4" d="m39.05,61.73c.16,0,.28-.07.27-.26-.01-.19-.15-.23-.3-.23-.28,0-.57,0-.85,0-.28,0-.57,0-.85,0-.15,0-.29.04-.3.23,0,.18.13.25.28.25.58,0,1.17,0,1.75,0Z"/>
        <path class="cls-4" d="m69,37.16c3.31,0,5.97-2.62,5.98-5.9.01-3.34-2.68-6.06-5.97-6.03-3.31.03-6,2.73-5.99,5.99.01,3.27,2.68,5.93,5.97,5.94Zm1.81-4.35c-.6,0-1.2,0-1.81,0-.59,0-1.17,0-1.76,0-.34,0-.62-.11-.64-.48-.01-.37.26-.52.6-.52,1.2,0,2.41,0,3.61,0,.35,0,.59.16.58.54,0,.38-.28.46-.59.46Zm-3.6-3.21c.62,0,1.24,0,1.85,0,.59,0,1.17,0,1.76,0,.32,0,.58.09.58.47,0,.38-.23.53-.58.54-1.2,0-2.41,0-3.61,0-.34,0-.61-.15-.59-.53.02-.34.27-.48.6-.47Z"/>
        <path class="cls-4" d="m46.36,66.77c-3.65,0-6.64,2.99-6.63,6.65,0,3.63,2.98,6.57,6.64,6.57,3.63,0,6.57-2.92,6.62-6.56.04-3.62-2.99-6.66-6.63-6.67Zm5.38,6.64c.02.86-.17,1.68-.58,2.43-1.03,1.91-2.67,2.87-4.44,2.95-3.08,0-5.45-2.12-5.71-4.66-.35-3.39,1.96-5.59,4.35-6.04.26-.05.54-.05.81-.08.35-.04.63.07.67.44.05.38-.22.52-.57.54-1.42.11-2.6.67-3.46,1.84-1.09,1.49-1.12,3.51-.07,5.05,1.05,1.53,2.98,2.25,4.73,1.76,1.82-.5,3.15-2.1,3.27-3.92,0-.11,0-.22.02-.33.04-.29.21-.46.51-.46.31,0,.47.19.47.49Z"/>
        <path class="cls-4" d="m60.44,66.53s0-.1,0-.14c0-.25-.12-.38-.38-.38-1.3,0-2.6,0-3.9,0-.28,0-.41.12-.4.4,0,.38.01.76,0,1.14,0,.31.13.42.43.42.63-.01,1.27,0,1.9,0,.33,0,.67,0,1,0,1.57-.04,1.35.34,1.36-1.44Z"/>
      </g>
    </g>
  </g>
</svg>