<?xml version="1.0" encoding="UTF-8"?>
<svg id="Layer_2" data-name="Layer 2" xmlns="http://www.w3.org/2000/svg" xmlns:xlink="http://www.w3.org/1999/xlink" viewBox="0 0 179.85 179.85">
  <defs>
    <style>
      .cls-1 {
        fill: #035129;
      }

      .cls-1, .cls-2, .cls-3, .cls-4 {
        stroke-width: 0px;
      }

      .cls-2 {
        fill: url(#radial-gradient-2);
      }

      .cls-3 {
        fill: url(#radial-gradient);
      }

      .cls-4 {
        fill: #22726e;
      }
    </style>
    <radialGradient id="radial-gradient" cx="89.92" cy="89.92" fx="136.61" fy="28.11" r="89.92" gradientUnits="userSpaceOnUse">
      <stop offset="0" stop-color="#cbd327"/>
      <stop offset=".41" stop-color="#c9d126"/>
      <stop offset=".56" stop-color="#c2cb26"/>
      <stop offset=".67" stop-color="#b6c226"/>
      <stop offset=".75" stop-color="#a5b425"/>
      <stop offset=".82" stop-color="#8fa224"/>
      <stop offset=".89" stop-color="#748c23"/>
      <stop offset=".95" stop-color="#557222"/>
      <stop offset="1" stop-color="#305421"/>
      <stop offset="1" stop-color="#2f5321"/>
    </radialGradient>
    <radialGradient id="radial-gradient-2" cx="89.92" cy="89.92" fx="89.92" fy="89.92" r="75.99" gradientUnits="userSpaceOnUse">
      <stop offset="0" stop-color="#fff"/>
      <stop offset=".43" stop-color="#fdfdfd"/>
      <stop offset=".59" stop-color="#f6f6f6"/>
      <stop offset=".7" stop-color="#eaeaeb"/>
      <stop offset=".79" stop-color="#d9dadb"/>
      <stop offset=".87" stop-color="#c3c4c6"/>
      <stop offset=".94" stop-color="#a9aaac"/>
      <stop offset="1" stop-color="#898b8e"/>
      <stop offset="1" stop-color="#87898c"/>
    </radialGradient>
  </defs>
  <g id="Layer_1-2" data-name="Layer 1">
    <g>
      <circle class="cls-3" cx="89.92" cy="89.92" r="89.92"/>
      <circle class="cls-1" cx="89.92" cy="89.92" r="79.69"/>
      <circle class="cls-2" cx="89.92" cy="89.92" r="75.99"/>
    </g>
    <g id="GbGOBu">
      <path class="cls-4" d="m108.85,60.09c.33-.32.69-.6,1.08-.85.86-.54,1.77-.87,2.81-.73.4.05.8.09,1.2.06.54-.04.58-.1.42-.61-.13-.44.07-.76.52-.85.19-.04.37,0,.55.03.31.06.37-.01.24-.31-.21-.48-.34-.97-.42-1.49-.2-1.37.97-1.79,1.8-1.48.18.07.33.06.49-.01.64-.26,1.24-.12,1.81.2.19.11.36.24.52.38.42.36.86.66,1.41.8.06.01.11.03.16.06.11.06.17.13.12.27-.1.29-.06.35.22.36.09,0,.17-.02.26-.02.2-.01.43-.08.54.15.1.22-.1.36-.23.51-.09.11-.33.18-.22.36.1.15.29.03.44,0,.06,0,.11-.03.16-.06.41-.21.82-.41,1.28-.49.15-.03.19-.12.15-.25-.03-.11-.08-.21-.13-.32-.09-.2-.15-.41-.1-.62.09-.37.07-.74.05-1.11-.03-.46.01-.91.29-1.32.18-.26.19-.57.1-.87-.19-.64.01-1.15.5-1.58.15-.13.31-.25.47-.37.59-.44,1.27-.72,1.91-1.06,1.62-.87,3.34-1.06,5.13-.82.31.04.62.12.91.23.19.08.3.18.23.43-.09.31-.03.38.27.3.34-.09.56.05.73.3.13.19.24.39.35.59.14.26.28.53.42.8.09.16.2.28.41.23.3-.08.57.02.83.14.72.35,1.35.81,1.92,1.36.26.25.45.55.56.9.21.72.34,1.45.39,2.2.04.67-.22,1.13-.84,1.4-.14.06-.28.15-.4.25-.26.24-.2.51.14.61.14.04.28.03.42.06.28.04.31.09.29.36-.03.31.02.36.32.28.29-.08.57-.2.85-.31.48-.19.96-.39,1.47-.48.51-.09.81.1.91.61.16.79.2,1.59.02,2.39-.12.55-.44.89-1.02.95-.43.04-.84.19-1.24.34-.12.04-.24.09-.37.12-.62.13-1.09-.07-1.43-.61-.08-.12-.14-.25-.23-.36-.21-.26-.41-.26-.58.02-.19.31-.42.58-.73.78-.3.19-.62.37-.95.49-.39.15-.75.36-1.12.54-.64.31-.56,1.06-.11,1.37.22.16.39.38.56.59.64.78,1.11,1.67,1.64,2.52.34.55.79.93,1.42,1.1.32.08.63.18.93.34.18.1.36.2.45.39.11.22.29.35.52.41.15.04.31.09.38.25.1.23.29.35.5.45.33.16.67.33,1.01.47.78.32,1.57.62,2.36.93.64.25,1.16.67,1.59,1.21.78.96,1.43,2,2,3.1.34.64.59,1.3.78,2,.2.74.27,1.49.18,2.26-.02.17-.02.37-.23.42-.21.05-.31.2-.4.36-.26.49-.68.8-1.19,1-.73.3-1.5.49-2.26.7-.33.09-.67.15-1.02.15-.17,0-.36,0-.49-.13-.32-.31-.64-.23-.98-.05-.7.36-1.36.8-1.99,1.27-.69.51-1.36,1.05-2.11,1.47-1.39.78-2.88,1.34-4.42,1.77-.41.12-.84.17-1.28.08-.53-.1-.58-.05-.66.49-.04.24-.06.49-.2.7-.14.21-.32.23-.51.07-.11-.09-.19-.22-.25-.35-.09-.18-.17-.36-.25-.55-.18-.41-.18-.42-.6-.28-.21.07-.43.14-.63.02-.36-.21-.65-.1-.96.08-.98.57-1.91,1.21-2.8,1.91-.62.49-1.19,1.03-1.66,1.67-.37.5-.7,1.02-.69,1.68.01.53-.03,1.06-.11,1.58-.22,1.39-.45,2.77-.69,4.16-.09.55-.34,1.03-.75,1.42-.76.7-1.65,1.23-2.48,1.84-.14.1-.29.12-.44.02-.76-.54-1.55-1.03-2.28-1.62-.32-.26-.39-.58-.28-.96.14-.5.36-.97.62-1.41.06-.1.16-.19.12-.35-.26.09-.4.27-.55.43-.57.62-1.23,1.11-1.96,1.52-.8.45-1.66.78-2.46,1.22-.65.36-1.22.8-1.7,1.36-.63.74-1.36,1.4-2.1,2.03-1.33,1.14-2.73,2.19-4.1,3.26-2.37,1.85-4.72,3.73-7.09,5.58-.69.54-1.4,1.04-2.19,1.43-.71.35-1.42.46-2.2.26-.97-.25-1.93-.56-2.88-.87-.64-.21-1.29-.43-1.87-.75-.57-.32-1.16-.42-1.79-.48-1.88-.17-3.75-.5-5.61-.82-1.16-.2-2.3-.46-3.48-.51-1.55-.06-3.09,0-4.61.37-.87.22-1.61.66-2.21,1.33-.77.85-1.34,1.82-1.83,2.85-.98,2.09-1.69,4.29-2.35,6.5-.53,1.79-1.22,3.52-2.08,5.17-1.8,3.46-3.73,6.85-5.65,10.24-.87,1.53-1.77,3.05-2.72,4.53-.35.55-.79.75-1.4.69-.07,0-.14,0-.21-.01-.99-.1-1.96-.29-2.9-.61-.58-.2-1.09-.49-1.53-.93-.79-.78-1.51-1.61-2.19-2.48-.37-.47-.48-1-.28-1.57.08-.22.14-.44.23-.65.74-1.66,1.51-3.31,2.3-4.95,1.27-2.65,2.64-5.25,4.16-7.76,2.06-3.39,4.42-6.56,6.82-9.7.65-.85,1.34-1.68,1.88-2.62.17-.29.29-.59.25-.94-.03-.23.04-.46.13-.67.42-1.03.96-1.99,1.68-2.83.22-.25.43-.5.66-.74.3-.31.42-.68.34-1.1-.05-.31-.1-.62-.16-.93-.04-.26-.06-.51-.02-.77.05-.33.29-.42.55-.22.17.13.29.32.38.51.14.28.24.58.31.89.15.66.15.66.78.48.28-.08.56-.12.85-.12,1.01,0,2,.11,2.99.29.32.06.66.12.95.27.26.13.51.16.79.14,1.26-.11,2.5-.32,3.73-.61.13-.03.28-.05.36-.22-.21-.17-.45-.22-.68-.28-2.6-.75-5.24-1.36-7.89-1.91-2.18-.45-4.37-.59-6.58-.41-1.8.14-3.6.3-5.4.45-2.1.17-4.14-.05-6.09-.93-1.1-.49-2.2-.98-3.27-1.52-.31-.16-.62-.3-.89-.52-.27-.22-.56-.4-.86-.56-1.6-.84-3.06-1.91-4.57-2.91-.15-.1-.26-.22-.33-.39-.33-.87-.68-1.73-.99-2.61-.35-.98-.02-1.83.48-2.65.16-.26.25-.27.54-.14.31.15.61.31.91.49,1.51.87,2.95,1.88,4.44,2.78,1.91,1.16,3.86,2.26,5.91,3.17,1.18.53,2.39.86,3.68.95,2.92.2,5.84.14,8.75-.19.65-.08,1.32-.15,1.93-.42.72-.32,1.47-.48,2.24-.55.47-.05.92-.17,1.38-.29,1.14-.3,2.29-.36,3.43.06.77.28,1.03.68.99,1.49-.03.67.29,1.48,1.14,1.8.35.13.7.27,1.06.35,1.33.28,2.68.49,4.03.68,1.31.19,2.6.43,3.88.76.81.21,1.55.6,2.29.97,1.25.63,2.53,1.22,3.68,2.04.14.1.29.13.45.1.21-.04.41-.11.61-.21.45-.23.85-.53,1.25-.84.62-.49,1.2-1.03,1.91-1.38.5-.25.91-.59,1.29-.99.28-.29.54-.59.8-.9.63-.74,1.26-1.49,1.98-2.14.19-.17.37-.36.51-.58.08-.12.11-.25-.08-.3-.24-.06-.19-.21-.12-.36.05-.1.11-.2.17-.3.37-.67.88-1.24,1.3-1.87.15-.23.31-.45.4-.71.1-.29.03-.43-.26-.53-.15-.05-.31-.07-.46-.09-.36-.05-.7-.14-1.04-.27-2.14-.83-4.09-2-5.85-3.48-.35-.29-.67-.63-.95-.99-.39-.49-.35-.77.14-1.16.11-.09.24-.16.36-.24.15-.09.23-.22.16-.4-.11-.29-.04-.57.09-.83.24-.47.48-.95.74-1.41,1.05-1.86,2.16-3.68,3.26-5.51,1.23-2.04,2.46-4.07,3.69-6.11.92-1.54,1.84-3.07,2.66-4.67.17-.33.33-.67.43-1.03.05-.21.11-.45-.03-.62-.23-.27-.15-.53-.06-.81.09-.26.22-.5.35-.73.12-.21.24-.42.32-.65.15-.44.1-.84-.23-1.19-.28-.31-.6-.58-.94-.82-1.13-.81-2.32-1.52-3.5-2.26-1.6-1-3.18-2.04-4.74-3.12-.43-.3-.87-.61-1.23-1-.31-.34-.39-.72-.26-1.16.1-.32.26-.61.44-.88.41-.63.55-.66,1.23-.32.85.42,1.63.97,2.4,1.51,1.73,1.2,3.44,2.44,5.23,3.54.64.39,1.23.84,1.81,1.31.51.42.95.91,1.41,1.38.35.36.72.69,1.19.93.26-1.02.83-1.81,1.54-2.51Zm31.76,18.99c.16-.24.32-.48.47-.72.38-.61.91-1.02,1.6-1.23.15-.05.3-.1.44-.18.21-.12.2-.3,0-.43-.12-.08-.27-.09-.41-.11-.64-.09-1.29-.09-1.93-.07-.87.03-1.75.03-2.62-.03-.95-.07-1.88-.23-2.79-.48-.37-.1-.75-.19-1.13-.24-.58-.08-.74.09-.67.66.04.33.13.65.23.96.12.37.21.74.25,1.13.04.39.04.77-.07,1.15-.13.46-.06.56.41.64.64.1,1.3.11,1.92-.09,1.2-.4,2.43-.54,3.68-.61.13,0,.26,0,.38-.07.12-.06.19-.17.26-.28Zm-34.17,6.26c.15.06.28-.02.4-.08.66-.33,1.37-.5,2.08-.65.25-.05.5-.11.75-.2.28-.1.31-.2.2-.45-.57-1.34-.44-2.68-.04-4.03.04-.14.09-.27.13-.41.02-.07.03-.14.06-.31-.63.71-3.53,5.68-3.59,6.12Zm14.62,11.54c.1-.1.19-.21.28-.33.08-.12.14-.26.02-.39-.1-.12-.24-.08-.36-.04-.6.22-1.2.46-1.69.9-.12.11-.23.21-.3.36-.07.15-.1.3.02.44.11.12.26.12.4.06.24-.1.47-.21.7-.32.33-.2.66-.4.93-.68Zm-3.41-41.7c0,.19.19.23.31.32.04.03.1.06.15.08.19.07.38.13.55-.05.13-.14.1-.46-.04-.64-.15-.19-.32-.19-.66,0-.11.08-.3.12-.3.3Zm-.68,2.69c-.16.07-.18.31-.05.57.14.28.36.41.52.31.15-.09.14-.3-.02-.58-.15-.26-.3-.36-.45-.3Zm12.82,28.91c-.05.08-.07.16,0,.24.06.08.15.08.23.05.26-.09.42-.28.52-.53.03-.07.05-.14-.02-.19-.07-.05-.13,0-.2.02-.05.02-.1.05-.15.08-.15.09-.29.18-.38.33Zm4.76-21.02s-.11-.05-.16,0c-.05.04-.05.1-.03.15.09.23.27.35.57.5-.09-.31-.2-.5-.38-.65Z"/>
    </g>
    <path class="cls-4" d="m75.68,128.69c0-8.2,5.73-14.08,13.93-14.08s13.62,5.89,13.77,14.08c0,8.05-5.41,14.08-13.77,14.08s-13.93-6.04-13.93-14.08Zm5.11-21.81l-3.56-70.1h24.61l-3.41,70.1h-17.63Z"/>
  </g>
</svg>