<?xml version="1.0" encoding="UTF-8"?>
<svg id="Layer_2" data-name="Layer 2" xmlns="http://www.w3.org/2000/svg" viewBox="0 0 57.86 57.86">
  <defs>
    <style>
      .cls-1 {
        fill: #fff;
        stroke-width: 0px;
      }

      .cls-2 {
        fill: #f18e1d;
        stroke: #fff;
        stroke-miterlimit: 10;
      }
    </style>
  </defs>
  <g id="Layer_1-2" data-name="Layer 1">
    <g>
      <rect class="cls-2" x=".5" y=".5" width="56.86" height="56.86"/>
      <path class="cls-1" d="m47.11,28.28s-.03.04-.05.06c-.05.05-.08.07-.11.08-.01,0-.02,0-.03,0,0,0,.02,0,.03,0,.03,0,.07-.03.11-.08.02-.02.03-.03.05-.06-.34,1.44.02,2.93-.27,4.38-.18.9-.51,1.4-1.31,1.51-.59.23-1.19.22-1.76-.06-1.18-.57-2.27-1.26-3.23-2.15-.53-.28-1.1-.31-1.68-.3h0c-.08.09-.17.17-.25.26,1.29.23,2.17,1.19,3.24,1.82.31.18.17.49-.07.7-.85.73-1.83,1.17-2.94,1.28-.6.06-1.2.03-1.81.04-.13.09-.27.1-.41.02-.08,0-.16,0-.24,0-.13.08-.27.09-.41.06-.3.01-.6.03-.91.04-.05.2-.19.19-.35.19-.62-.03-1.25-.06-1.87-.09-.22-.04-.43-.09-.65-.13,0-.08.01-.14.04-.19-.02.05-.04.11-.04.19-.31,0-.61,0-.92,0h0c-1.11.15-2.2.4-3.28.67-.53.19-1.09.25-1.65.3-.46.03-.88.03-1.37.28-.58.3-1.49.23-2.16.02-1.18-.37-2.4-.57-3.55-1.02h0c-.91-.27-1.8-.52-2.59-1.12-.75-.56-1.67-.9-2.48-1.38-1.04-.62-2.1-1.21-3.04-2-.25-.21-.36-.55-.67-.69v-1.18c.25-.18.4-.49.73-.56.1-.08.15-.24.32-.2.03-.03.07-.04.11-.04.21-.25.43-.49.64-.74.05-.23.22-.34.4-.46.22-.22.38-.49.67-.63.05-.04.09-.08.14-.13.08-.18.21-.3.41-.35l.02-.03c.21-.34.51-.59.79-.86h0c1.45-1.54,3.08-2.84,4.9-3.91.48-.27.96-.51,1.55-.53.32,0,.64-.2.95-.35.27-.13.53-.06.79,0,1.01-.46,2.08-.41,3.15-.36.21,0,.43,0,.64,0,.26.06.51.19.79.08.08-.01.17-.02.25-.04.08-.09.17-.09.28-.06,1.46,0,2.88.27,4.31.54,1.64.32,3.26.88,4.97.39.53-.15,1.12-.09,1.64.14.28.12.48-.1.74-.09.71.02,1.33.38,2.02.47.04,0,.08.04.12.05.33.09.9-.04.86.45-.02.29-.56.41-.91.46-.41.06-.69.29-.91.61-.25.36-.47.73-.81,1.02-.16.27-.25.59-.54.77h0c-.07.17-.19.28-.38.27-.26.15-.51.3-.83.28-.34-.02-.43.3-.57.51,1.22.92,2.29.34,3.36-.29.4-.24.78-.5,1.18-.76.9-.87,1.94-1.46,3.16-1.75.33-.08.63.04.93.12.68.14,1.04.5,1.04,1.25,0,.53-.15,1.03-.17,1.55,0,.57.15,1.15-.11,1.71Z"/>
    </g>
  </g>
</svg>