<svg xmlns="http://www.w3.org/2000/svg" viewBox="0 0 330.36 66.91"><defs><style>.cls-1{fill:#64974d;}.cls-2{fill:#237570;}.cls-3{fill:#669542;}.cls-4{fill:#fff;}.cls-5{fill:#699445;}.cls-6{fill:#267371;}</style></defs><g id="Capa_2" data-name="Capa 2"><g id="Layer_1" data-name="Layer 1"><path class="cls-1" d="M66.21,14.2a14,14,0,0,1,6.28,1.32A12.47,12.47,0,0,1,77.22,20h.19q-.19-3.87-.19-7.59V.42h3V48.27h-2l-.77-5.1h-.25a12.37,12.37,0,0,1-10.94,5.72q-6.93,0-10.58-4.31T52,32q0-8.67,3.63-13.25T66.21,14.2Zm0,2.77c-3.64,0-6.39,1.28-8.22,3.84S55.24,27.1,55.24,32q0,14.2,11,14.21c3.77,0,6.53-1.1,8.3-3.29S77.22,37.08,77.22,32v-.52q0-7.74-2.6-11.15T66.21,17Z"/><path class="cls-1" d="M106.72,48.27,106,43h-.25a15.82,15.82,0,0,1-5.18,4.57,13.86,13.86,0,0,1-6.29,1.34q-4.92,0-7.65-2.53a9,9,0,0,1-2.74-7,8.61,8.61,0,0,1,4.07-7.59q4.08-2.71,11.8-2.86l6.36-.19V26.53c0-3.18-.64-5.57-1.93-7.2s-3.38-2.42-6.25-2.42a20.89,20.89,0,0,0-9.62,2.58l-1.14-2.65A25.51,25.51,0,0,1,98,14.26q5.51,0,8.22,2.86C108.06,19,109,22,109,26V48.27Zm-12.3-2.15a11.46,11.46,0,0,0,8.44-3.06c2.06-2,3.09-4.88,3.09-8.5V31.27l-5.84.24q-7,.34-10,2.2a6.33,6.33,0,0,0-3,5.8A6.23,6.23,0,0,0,89,44.38,7.8,7.8,0,0,0,94.42,46.12Z"/><path class="cls-1" d="M123.57,46.18a22.8,22.8,0,0,0,5.05-.49v2.46a16.23,16.23,0,0,1-5.11.74q-4.42,0-6.53-2.37t-2.11-7.44V17.49h-5V15.71l5-1.39,1.54-7.56H118v8.09h9.81v2.64H118V38.65c0,2.56.45,4.45,1.35,5.69A4.91,4.91,0,0,0,123.57,46.18Z"/><path class="cls-1" d="M151.1,48.27,150.33,43h-.24a15.84,15.84,0,0,1-5.19,4.57,13.84,13.84,0,0,1-6.28,1.34c-3.28,0-5.84-.84-7.66-2.53a9,9,0,0,1-2.74-7,8.6,8.6,0,0,1,4.08-7.59q4.06-2.71,11.79-2.86l6.37-.19V26.53c0-3.18-.65-5.57-1.94-7.2s-3.38-2.42-6.24-2.42a20.9,20.9,0,0,0-9.63,2.58l-1.14-2.65a25.51,25.51,0,0,1,10.89-2.58q5.5,0,8.22,2.86T153.35,26V48.27Zm-12.3-2.15a11.46,11.46,0,0,0,8.44-3.06c2.06-2,3.09-4.88,3.09-8.5V31.27l-5.84.24q-7,.34-10,2.2a6.33,6.33,0,0,0-3,5.8,6.23,6.23,0,0,0,1.92,4.87A7.8,7.8,0,0,0,138.8,46.12Z"/><path class="cls-2" d="M190.6,17.31q0,7.26-4.53,11.1t-12.9,3.85h-4.09v16h-9.54v-45H173.9q8.19,0,12.44,3.52T190.6,17.31Zm-21.52,7.14h3.13q4.41,0,6.58-1.74A6.08,6.08,0,0,0,181,17.65a6.24,6.24,0,0,0-1.83-4.95q-1.83-1.6-5.74-1.6h-4.33Z"/><path class="cls-2" d="M224.56,31q0,8.39-4.43,13.13T207.8,48.86a17.25,17.25,0,0,1-8.74-2.17,14.46,14.46,0,0,1-5.81-6.22,21,21,0,0,1-2-9.47q0-8.43,4.4-13.1T208,13.22a17.35,17.35,0,0,1,8.74,2.16,14.36,14.36,0,0,1,5.81,6.18A20.75,20.75,0,0,1,224.56,31Zm-23.77,0c0,3.4.55,6,1.67,7.71s2.94,2.62,5.46,2.62,4.3-.87,5.4-2.6S215,34.42,215,31s-.55-6-1.66-7.66-2.92-2.55-5.44-2.55-4.31.84-5.41,2.53S200.79,27.57,200.79,31Zm2-20.91V9.26A86,86,0,0,0,210,0H220.5V.65C219.43,1.71,217.61,3.3,215,5.4s-4.59,3.66-6,4.69Z"/><path class="cls-2" d="M251.25,38c0,3.52-1.22,6.21-3.67,8.05s-6.12,2.77-11,2.77a35.24,35.24,0,0,1-6.39-.5,24.16,24.16,0,0,1-4.95-1.5V39.11a32.19,32.19,0,0,0,5.89,2.06,23.53,23.53,0,0,0,5.76.84q5.12,0,5.11-3a2.5,2.5,0,0,0-.68-1.8A9.69,9.69,0,0,0,239,35.69q-1.65-.88-4.43-2a28.15,28.15,0,0,1-5.82-3.07A8.7,8.7,0,0,1,226,27.32a10.76,10.76,0,0,1-.84-4.5,8.16,8.16,0,0,1,3.55-7.09q3.56-2.5,10.07-2.51a28.46,28.46,0,0,1,12.08,2.71l-2.82,6.76c-1.73-.73-3.34-1.34-4.83-1.81a15.27,15.27,0,0,0-4.59-.71c-2.76,0-4.15.75-4.15,2.25a2.64,2.64,0,0,0,1.34,2.18,36.93,36.93,0,0,0,5.86,2.74,26.91,26.91,0,0,1,5.9,3,9,9,0,0,1,2.77,3.26A10,10,0,0,1,251.25,38Z"/><path class="cls-2" d="M268,41.39a20.27,20.27,0,0,0,5.9-1.08v7a21,21,0,0,1-8.61,1.57q-5.62,0-8.19-2.84c-1.72-1.9-2.57-4.74-2.57-8.54V20.91h-4.49v-4l5.16-3.13,2.71-7.26h6v7.32h9.62v7h-9.62V37.48a3.67,3.67,0,0,0,1.12,3A4.47,4.47,0,0,0,268,41.39Z"/><path class="cls-2" d="M291.39,48.86q-8.29,0-13-4.58t-4.68-13q0-8.64,4.32-13.36T290,13.22q7.29,0,11.35,4.15t4.05,11.47v4.55H283.24a9.11,9.11,0,0,0,2.37,6.25,8.36,8.36,0,0,0,6.21,2.24,25.91,25.91,0,0,0,5.88-.64,29.68,29.68,0,0,0,5.78-2.06v7.25a22.13,22.13,0,0,1-5.26,1.83A33.17,33.17,0,0,1,291.39,48.86Zm-1.32-29a5.93,5.93,0,0,0-4.67,1.89,8.71,8.71,0,0,0-1.94,5.36h13.16a7.8,7.8,0,0,0-1.81-5.36A6.15,6.15,0,0,0,290.07,19.9Z"/><path class="cls-2" d="M327.19,13.22a15.44,15.44,0,0,1,3.17.28l-.71,8.79a11,11,0,0,0-2.77-.3,9.92,9.92,0,0,0-7,2.3,8.35,8.35,0,0,0-2.51,6.46v17.5H308V13.87h7.11l1.38,5.78H317A13,13,0,0,1,321.27,15,10.67,10.67,0,0,1,327.19,13.22Z"/><circle class="cls-3" cx="22.71" cy="26.17" r="22.71"/><path class="cls-4" d="M14.9,37.75h3.84l0,0A10,10,0,0,0,19,35.27a11.69,11.69,0,0,0-.11-1.77c-.1-.72-.26-1.43-.4-2.15,0-.1-.05-.17-.17-.17-.29,0-.57-.06-.86-.09a8.84,8.84,0,0,0-2.18.09.24.24,0,0,0-.16.13,13.74,13.74,0,0,0-.52,3.6c0,.75.09,1.5.16,2.26A4,4,0,0,0,14.9,37.75Zm.4-5.13a.6.6,0,0,1,.66-.53.59.59,0,0,1,.56.66c0,.28-.08.56-.1.84,0,.58-.07,1.16-.08,1.74,0,.4,0,.79.05,1.19a.57.57,0,0,1-.49.59c-.38,0-.67-.13-.71-.47-.07-.51-.08-1-.13-1.71S15.21,33.44,15.3,32.62Z"/><path class="cls-4" d="M17.73,45.09h1.13c.18,0,.22-.06.24-.23,0-.56.09-1.12.14-1.71H13A19.36,19.36,0,0,0,17.73,45.09Z"/><path class="cls-4" d="M20.31,45.08h4.8c-.05-.64-.11-1.27-.17-1.92H20.49C20.43,43.81,20.37,44.44,20.31,45.08Z"/><path class="cls-4" d="M15.8,29.06c-.09.27-.16.55-.23.8H18.1c-.08-.27-.16-.55-.25-.83a.26.26,0,0,0-.13-.1,5.32,5.32,0,0,0-1.78,0S15.81,29,15.8,29.06Z"/><path class="cls-4" d="M5.63,31.93V25.84c0-1.07,0-2.15,0-3.22a3.93,3.93,0,0,1,2.57-3.7,3.66,3.66,0,0,1,1.31-.24h4.17c.06,0,.15,0,.16.08a.24.24,0,0,1,0,.2c-.27.31-.55.6-.83.91s-.37.41-.56.63a.73.73,0,0,1-.55.23c-.5,0-1,0-1.49,0a3.86,3.86,0,0,0-1.55.16,1.86,1.86,0,0,0-1.13,1.78c0,3.6,0,7.2,0,10.8,0,1.34,0,2.67,0,4v.27h5.94c0-.24-.07-.48-.1-.71a11.1,11.1,0,0,1-.12-2.51c0-.57.07-1.15.17-1.71.15-.8.34-1.6.54-2.39.11-.46.25-.91.39-1.37,0-.12,0-.17-.1-.24a4.84,4.84,0,0,1-1.62-7.49c.53-.67,1.15-1.28,1.72-1.93a3.66,3.66,0,0,0,.94-1.83,4.59,4.59,0,0,0,0-1c0-.48.14-.8.55-.85a.8.8,0,0,1,.4.08A10.94,10.94,0,0,1,19.33,18a9.56,9.56,0,0,1,2.05,3A8.75,8.75,0,0,1,22,23.73a5.15,5.15,0,0,1-1.55,4.12,4.44,4.44,0,0,1-1.36,1c1.34,4.25,1.38,6.2.94,8.92h3.62v-.26c0-5.27,0-10.54,0-15.8a3.34,3.34,0,0,1,.76-2.05c.93-1.21,1.85-2.43,2.77-3.64a.63.63,0,0,1,1,0c.68.87,1.38,1.71,2.07,2.57.35.43.71.86,1,1.3A3.05,3.05,0,0,1,32,21.79v16h5.79v-.23c0-2.58,0-5.17,0-7.76,0-2.34,0-4.69,0-7a1.85,1.85,0,0,0-1.51-1.95,6.85,6.85,0,0,0-1.2,0H33c-.29,0-.36-.05-.43-.31a3.71,3.71,0,0,0-.78-1.31c-.05-.06-.11-.11-.15-.17a.24.24,0,0,1,0-.18.23.23,0,0,1,.16-.08c1.5,0,3,0,4.5,0a3.54,3.54,0,0,1,2.39,1.14,4,4,0,0,1,1.14,2.88v13A19.59,19.59,0,1,0,3.12,26.17a19.47,19.47,0,0,0,2.51,9.57Zm6.93-3.37a.67.67,0,0,1,.64.63.86.86,0,0,1-.73.74.65.65,0,0,1-.64-.61A.85.85,0,0,1,12.56,28.56Zm-.11,1.58a.83.83,0,0,1,.74.73.64.64,0,0,1-.61.63.83.83,0,0,1-.75-.73A.63.63,0,0,1,12.45,30.14Zm-.83-.84a.65.65,0,0,1-.63.63.84.84,0,0,1-.73-.75.66.66,0,0,1,.64-.62A.84.84,0,0,1,11.62,29.3ZM8.48,22.15a.83.83,0,0,1,.73.73.61.61,0,0,1-.62.62.82.82,0,0,1-.74-.74A.64.64,0,0,1,8.48,22.15Zm0,2.91a.62.62,0,0,1-.62-.61.82.82,0,0,1,.75-.72.63.63,0,0,1,.61.63A.77.77,0,0,1,8.47,25.06Zm1.7-2.91a.64.64,0,0,1,.62.62.79.79,0,0,1-.74.72.61.61,0,0,1-.63-.61A.82.82,0,0,1,10.17,22.15Zm-.75,2.2a.62.62,0,0,1,.65-.62.8.8,0,0,1,.72.73.62.62,0,0,1-.64.61A.8.8,0,0,1,9.42,24.35Zm1.47,7.15a.63.63,0,0,1-.63-.62.82.82,0,0,1,.74-.74.64.64,0,0,1,.62.63A.83.83,0,0,1,10.89,31.5Zm22.49-1a.64.64,0,0,1-.62-.63.79.79,0,0,1,.74-.73.64.64,0,0,1,.62.62A.85.85,0,0,1,33.38,30.49Zm.38-5a.63.63,0,0,1,0-.88,4.07,4.07,0,0,1,.42-.41,1.76,1.76,0,0,1,.38-.21.7.7,0,0,1,.6.4.6.6,0,0,1-.11.67,5.66,5.66,0,0,1-.43.42A.63.63,0,0,1,33.76,25.51Zm2.13-3a4.89,4.89,0,0,1,.45-.46.63.63,0,0,1,.88,0,.61.61,0,0,1,0,.86,3.68,3.68,0,0,1-.4.39,1.56,1.56,0,0,1-.35.19.66.66,0,0,1-.64-.37A.56.56,0,0,1,35.89,22.51Zm-.09,1.87a.62.62,0,0,1,.57-.34c.06,0,.12,0,.16,0a1.72,1.72,0,0,1,.82.86.55.55,0,0,1-.26.65.61.61,0,0,1-.72,0,5.55,5.55,0,0,1-.49-.48A.62.62,0,0,1,35.8,24.38Zm-.75,6.11a.83.83,0,0,1-.72-.74.63.63,0,0,1,.61-.62.79.79,0,0,1,.74.73A.63.63,0,0,1,35.05,30.49Zm.63-2.28a.81.81,0,0,1-.74.71.65.65,0,0,1-.61-.67.81.81,0,0,1,.75-.69A.63.63,0,0,1,35.68,28.21Zm-2-6.09a.59.59,0,0,1,.8-.14,3.85,3.85,0,0,1,.61.6.77.77,0,0,1,.1.29.61.61,0,0,1-.37.6.58.58,0,0,1-.67-.11c-.15-.14-.29-.29-.43-.44A.61.61,0,0,1,33.71,22.12Zm-.34,5.44a.82.82,0,0,1,.74.71.64.64,0,0,1-.62.65.83.83,0,0,1-.73-.73A.63.63,0,0,1,33.37,27.56ZM34,15a.62.62,0,0,1,.62.63.77.77,0,0,1-.71.73.6.6,0,0,1-.62-.63A.8.8,0,0,1,34,15Zm-.1,1.57a.78.78,0,0,1,.72.73.6.6,0,0,1-.61.63.79.79,0,0,1-.72-.73A.62.62,0,0,1,33.93,16.52Zm-1.57,1.36a.6.6,0,0,1-.61-.63.8.8,0,0,1,.72-.73.61.61,0,0,1,.61.64A.77.77,0,0,1,32.36,17.88Zm0-2.93a.79.79,0,0,1,.72.75.61.61,0,0,1-.63.61.84.84,0,0,1-.71-.75A.64.64,0,0,1,32.36,15ZM22.76,13a3.48,3.48,0,0,1,.47-.47.65.65,0,0,1,.83,0,.6.6,0,0,1,.06.82,4.08,4.08,0,0,1-.55.55,1.18,1.18,0,0,1-.33.12.63.63,0,0,1-.56-.35A.59.59,0,0,1,22.76,13Zm-.05,1.82a.57.57,0,0,1,.73-.23,1.58,1.58,0,0,1,.79.84.27.27,0,0,1,0,.12.63.63,0,0,1-.36.58.6.6,0,0,1-.68-.11c-.15-.14-.29-.28-.43-.43A.61.61,0,0,1,22.71,14.86Zm-.16,3.82h1.24c.07,0,.18,0,.19.07a.24.24,0,0,1,0,.21c-.28.49-.59,1-.85,1.48a.69.69,0,0,1-1.09,0c-.28-.51-.57-1-.86-1.52-.09-.17,0-.27.16-.27Zm-1.92-6.06a.61.61,0,0,1,.89,0,3.41,3.41,0,0,1,.38.38,3.48,3.48,0,0,1,.22.43.66.66,0,0,1-.39.58.63.63,0,0,1-.69-.12l-.38-.38A.61.61,0,0,1,20.63,12.62Zm-.09,2.67a2.61,2.61,0,0,1,.62-.62.6.6,0,0,1,.92.53v.08c0,.47-.83,1-1.23.9A.61.61,0,0,1,20.54,15.29Zm-7.45,2.38a.84.84,0,0,1-.73-.75.62.62,0,0,1,.63-.61.8.8,0,0,1,.71.74A.63.63,0,0,1,13.09,17.67Zm0-2.93a.6.6,0,0,1,.6.62.77.77,0,0,1-.72.73.61.61,0,0,1-.62-.62A.79.79,0,0,1,13.1,14.74Zm-1.7,0a.78.78,0,0,1,.73.72.6.6,0,0,1-.61.62.78.78,0,0,1-.73-.71A.61.61,0,0,1,11.4,14.74Zm.13,1.57a.59.59,0,0,1,.6.63.8.8,0,0,1-.73.73.63.63,0,0,1-.61-.65A.79.79,0,0,1,11.53,16.31Z"/><path class="cls-4" d="M15.46,20.9c-.4.38-.79.77-1.15,1.18a3.73,3.73,0,0,0-.88,2.57,3.37,3.37,0,0,0,.43,1.55.61.61,0,1,0,1.05-.6A2.42,2.42,0,0,1,14.69,24a3.12,3.12,0,0,1,.88-1.52c.27-.27.56-.52.82-.8a.56.56,0,0,0,.09-.7A.61.61,0,0,0,15.46,20.9Z"/><path class="cls-4" d="M23.63,40.78a.64.64,0,0,0,.61-.63.62.62,0,0,0-.62-.58H21.81a.62.62,0,0,0-.62.58.64.64,0,0,0,.61.63Z"/><path class="cls-4" d="M26.45,43.16h-.26c0,.64.11,1.27.17,1.93H27.7a19.5,19.5,0,0,0,4.74-1.93Z"/><path class="cls-4" d="M30.69,37.75v-14H24.91v14ZM28.61,25.41a.64.64,0,0,1,.52-.73.6.6,0,0,1,.72.6V35.66c0,.43-.22.68-.6.68a.63.63,0,0,1-.64-.7V25.41Zm-2.17-.75a.62.62,0,0,1,.63.68V35.7a.62.62,0,0,1-1.23.17,1.36,1.36,0,0,1,0-.2V25.34A.63.63,0,0,1,26.44,24.66Z"/><path class="cls-4" d="M30.7,21.81a1.83,1.83,0,0,0-.38-1.2c-.34-.45-.7-.88-1.06-1.32a.3.3,0,0,0-.21-.08H26.43a.33.33,0,0,0-.22.11l-1,1.28a2.74,2.74,0,0,0-.35,1.86h5.8Z"/><path class="cls-2" d="M134.22,61.35a2.33,2.33,0,0,0-.74-.87,7.36,7.36,0,0,0-1.57-.81,9.84,9.84,0,0,1-1.57-.73.7.7,0,0,1-.35-.58c0-.4.37-.6,1.1-.6a4,4,0,0,1,1.23.19,11.67,11.67,0,0,1,1.29.48l.75-1.81a7.63,7.63,0,0,0-3.22-.72,4.57,4.57,0,0,0-2.69.67,2.17,2.17,0,0,0-.95,1.89,2.91,2.91,0,0,0,.22,1.21,2.26,2.26,0,0,0,.73.86,7.31,7.31,0,0,0,1.55.82c.49.21.89.39,1.18.55a2.8,2.8,0,0,1,.63.42.65.65,0,0,1,.18.48c0,.52-.46.79-1.36.79a6.7,6.7,0,0,1-1.54-.22,9.71,9.71,0,0,1-1.58-.55v2.06a6.23,6.23,0,0,0,1.33.4,9.17,9.17,0,0,0,1.7.14,4.86,4.86,0,0,0,2.94-.74,2.53,2.53,0,0,0,1-2.15A2.67,2.67,0,0,0,134.22,61.35Z"/><path class="cls-2" d="M116,56.37a3.46,3.46,0,0,0-1.15,1.25h-.12l-.37-1.55h-1.9v9.18H115V60.58a2.23,2.23,0,0,1,.66-1.72,2.67,2.67,0,0,1,1.87-.62,3.1,3.1,0,0,1,.74.08l.19-2.35a4.84,4.84,0,0,0-.85-.07A2.92,2.92,0,0,0,116,56.37Z"/><path class="cls-2" d="M122.91,55.9a4.12,4.12,0,0,0-3.19,1.26,5.09,5.09,0,0,0-1.15,3.57,4.63,4.63,0,0,0,1.25,3.46,4.72,4.72,0,0,0,3.46,1.23,9.42,9.42,0,0,0,1.83-.16,6.12,6.12,0,0,0,1.4-.49V62.83a7.76,7.76,0,0,1-1.54.55,6.69,6.69,0,0,1-1.57.17,2.22,2.22,0,0,1-1.66-.6,2.36,2.36,0,0,1-.63-1.66H127V60.07A4.17,4.17,0,0,0,125.94,57,4,4,0,0,0,122.91,55.9Zm-1.74,3.72a2.29,2.29,0,0,1,.51-1.43,1.58,1.58,0,0,1,1.25-.51,1.66,1.66,0,0,1,1.27.51,2.07,2.07,0,0,1,.48,1.43Z"/><path class="cls-2" d="M96.07,62.43h0l-2.85-9.18H89.71v12H92V59.67q0-1-.15-3.84h.07l2.89,9.42h2.33l3.1-9.4h.07c-.06,1.51-.1,2.44-.11,2.79s0,.66,0,.93v5.68h2.37v-12H99.08Z"/><path class="cls-2" d="M110.62,56.69a4.36,4.36,0,0,0-2.83-.81,7.52,7.52,0,0,0-3.52.83l.83,1.7a6.4,6.4,0,0,1,2.59-.67,1.25,1.25,0,0,1,1.43,1.4v.4l-1.6.05a5.85,5.85,0,0,0-3.08.77,2.42,2.42,0,0,0-1,2.15,2.88,2.88,0,0,0,.76,2.15,2.79,2.79,0,0,0,2.08.76,4.11,4.11,0,0,0,1.74-.31,3.59,3.59,0,0,0,1.3-1.1h.07l.48,1.24h1.75V59.14A3,3,0,0,0,110.62,56.69Zm-1.5,5.07a1.77,1.77,0,0,1-.53,1.33,1.92,1.92,0,0,1-1.39.5c-.81,0-1.21-.36-1.21-1.06a1.22,1.22,0,0,1,.53-1.1,3.21,3.21,0,0,1,1.63-.4l1,0Z"/><path class="cls-5" d="M78.39,64.2A2.58,2.58,0,0,1,78,62.68V57h2.62v-.7H78V54.17h-.42l-.41,2-1.32.37V57H77.2V62.8a3,3,0,0,0,.56,2,2.24,2.24,0,0,0,1.75.63,4.33,4.33,0,0,0,1.36-.2v-.66a5.9,5.9,0,0,1-1.35.14A1.31,1.31,0,0,1,78.39,64.2Z"/><path class="cls-5" d="M72.36,56.17a6.76,6.76,0,0,0-2.9.69l.3.71a5.57,5.57,0,0,1,2.57-.69,2,2,0,0,1,1.67.65,3.05,3.05,0,0,1,.51,1.92V60l-1.7.05a6,6,0,0,0-3.15.76,2.31,2.31,0,0,0-1.08,2,2.38,2.38,0,0,0,.73,1.86,2.89,2.89,0,0,0,2,.68A3.65,3.65,0,0,0,73,65.06a4.17,4.17,0,0,0,1.39-1.22h.06l.21,1.41h.6V59.32a3.35,3.35,0,0,0-.73-2.38A2.91,2.91,0,0,0,72.36,56.17Zm2.12,5.42a2.84,2.84,0,0,1-3.08,3.09A2.14,2.14,0,0,1,70,64.22a1.91,1.91,0,0,1,.29-2.85,5.77,5.77,0,0,1,2.68-.59l1.56-.07Z"/><path class="cls-5" d="M66.81,55.69c0,.66,0,1.34,0,2h0a3.28,3.28,0,0,0-1.26-1.21,3.68,3.68,0,0,0-1.68-.35,3.38,3.38,0,0,0-2.82,1.22,5.61,5.61,0,0,0-1,3.54,5.05,5.05,0,0,0,1,3.35,3.49,3.49,0,0,0,2.83,1.15,3.3,3.3,0,0,0,2.92-1.53h.07l.2,1.36h.53V52.48h-.8Zm0,5.23a4.69,4.69,0,0,1-.71,2.9,2.69,2.69,0,0,1-2.21.88q-3,0-3-3.8a5.1,5.1,0,0,1,.73-3,2.55,2.55,0,0,1,2.2-1,2.69,2.69,0,0,1,2.25.91,5,5,0,0,1,.69,3Z"/><path class="cls-5" d="M85.22,56.17a6.8,6.8,0,0,0-2.9.69l.3.71a5.57,5.57,0,0,1,2.57-.69,2,2,0,0,1,1.67.65,3.05,3.05,0,0,1,.52,1.92V60l-1.7.05a5.93,5.93,0,0,0-3.15.76,2.29,2.29,0,0,0-1.09,2,2.38,2.38,0,0,0,.73,1.86,2.9,2.9,0,0,0,2,.68,3.65,3.65,0,0,0,1.68-.36,4.17,4.17,0,0,0,1.39-1.22h.06l.21,1.41h.6V59.32a3.31,3.31,0,0,0-.73-2.38A2.9,2.9,0,0,0,85.22,56.17Zm2.12,5.42a2.84,2.84,0,0,1-3.08,3.09,2.15,2.15,0,0,1-1.45-.46,1.91,1.91,0,0,1,.29-2.85,5.8,5.8,0,0,1,2.68-.59l1.56-.07Z"/><path class="cls-6" d="M51.2,59.51a1.66,1.66,0,0,1,1.41.7,3.29,3.29,0,0,1,.5,1.92,3.16,3.16,0,0,1-.52,1.95,1.83,1.83,0,0,1-2.83,0h-.09l-.23.56H48.38V57.62h1.38v1.64c0,.21,0,.55,0,1h0A1.62,1.62,0,0,1,51.2,59.51Zm-.44,1.11a.86.86,0,0,0-.75.32,1.8,1.8,0,0,0-.25,1v.15A2.17,2.17,0,0,0,50,63.3a.89.89,0,0,0,.77.35.77.77,0,0,0,.68-.39,2.1,2.1,0,0,0,.25-1.14A2,2,0,0,0,51.45,61,.81.81,0,0,0,50.76,60.62Z"/><path class="cls-6" d="M52.79,59.61H54.3l1,2.85a4,4,0,0,1,.17.88h0a4.18,4.18,0,0,1,.2-.88l.94-2.85h1.48l-2.14,5.72a2.51,2.51,0,0,1-.85,1.19,2.13,2.13,0,0,1-1.27.39,3.36,3.36,0,0,1-.71-.08V65.74a3.12,3.12,0,0,0,.55.05,1,1,0,0,0,.64-.22,1.48,1.48,0,0,0,.43-.68l.08-.25Z"/><path class="cls-4" d="M138.19,61.65a2.63,2.63,0,1,1,0,5.26,2.63,2.63,0,1,1,0-5.26Zm0,.52a2.1,2.1,0,0,0,0,4.2,2,2,0,0,0,2-2.08,2.05,2.05,0,0,0-2-2.12Zm-.4,3.46h-.61V63a6,6,0,0,1,1-.08,1.44,1.44,0,0,1,.89.2.68.68,0,0,1,.27.56.69.69,0,0,1-.54.63v0c.26.08.38.29.46.64a2.21,2.21,0,0,0,.2.64h-.64a2.1,2.1,0,0,1-.21-.64c-.05-.27-.21-.4-.55-.4h-.28Zm0-1.47h.29c.34,0,.61-.11.61-.39s-.18-.4-.56-.4a1.25,1.25,0,0,0-.34,0Z"/></g></g></svg>