<svg xmlns="http://www.w3.org/2000/svg" viewBox="0 0 258.81 67.5"><defs><style>.cls-1{fill:#63984c;}.cls-2{fill:#257570;}.cls-3{fill:#699544;}.cls-4{fill:#287371;}.cls-5{fill:#fff;}.cls-6{fill:#669742;}</style></defs><g id="Capa_2" data-name="Capa 2"><g id="Layer_1" data-name="Layer 1"><path class="cls-1" d="M63.11,17.26a13.25,13.25,0,0,1,6,1.26,11.92,11.92,0,0,1,4.51,4.31h.18q-.18-3.69-.18-7.24V4.13h2.87v45.6h-1.9l-.74-4.86H73.6a11.79,11.79,0,0,1-10.43,5.45q-6.6,0-10.09-4.1t-3.48-12q0-8.26,3.46-12.63T63.11,17.26Zm0,2.64q-5.22,0-7.84,3.66T52.64,34.2q0,13.54,10.53,13.54,5.39,0,7.91-3.13c1.68-2.1,2.52-5.54,2.52-10.35v-.5q0-7.38-2.48-10.62T63.11,19.9Z"/><path class="cls-1" d="M101.71,49.73l-.73-5h-.24a15.14,15.14,0,0,1-4.93,4.36,13.21,13.21,0,0,1-6,1.27c-3.12,0-5.56-.8-7.3-2.4a8.59,8.59,0,0,1-2.6-6.66A8.19,8.19,0,0,1,83.79,34Q87.67,31.45,95,31.3l6.07-.18V29c0-3-.62-5.31-1.85-6.86s-3.21-2.31-6-2.31a19.88,19.88,0,0,0-9.17,2.46L83,19.78a24.32,24.32,0,0,1,10.38-2.46c3.49,0,6.11.91,7.84,2.72s2.59,4.66,2.59,8.51V49.73ZM90,47.68a10.93,10.93,0,0,0,8-2.91q3-2.93,3-8.11V33.53l-5.57.23q-6.7.33-9.57,2.1A6,6,0,0,0,83,41.38,6,6,0,0,0,84.81,46,7.49,7.49,0,0,0,90,47.68Z"/><path class="cls-1" d="M117.78,47.74a21.26,21.26,0,0,0,4.8-.47v2.35a15.32,15.32,0,0,1-4.86.7c-2.82,0-4.89-.75-6.23-2.26s-2-3.86-2-7.09V20.4h-4.71V18.7l4.71-1.32L111,10.17h1.49v7.71h9.35V20.4h-9.35V40.56A9.19,9.19,0,0,0,113.73,46,4.69,4.69,0,0,0,117.78,47.74Z"/><path class="cls-1" d="M144,49.73l-.73-5h-.23a15.27,15.27,0,0,1-4.94,4.36,13.21,13.21,0,0,1-6,1.27q-4.68,0-7.29-2.4a8.6,8.6,0,0,1-2.61-6.66A8.19,8.19,0,0,1,126.09,34q3.89-2.58,11.24-2.73l6.07-.18V29c0-3-.62-5.31-1.85-6.86s-3.21-2.31-6-2.31a19.88,19.88,0,0,0-9.17,2.46l-1.09-2.52a24.32,24.32,0,0,1,10.38-2.46q5.25,0,7.84,2.72t2.59,8.51V49.73Zm-11.72-2a10.93,10.93,0,0,0,8-2.91q3-2.93,2.95-8.11V33.53l-5.57.23q-6.71.33-9.57,2.1a6,6,0,0,0-2.86,5.52A6,6,0,0,0,127.12,46,7.45,7.45,0,0,0,132.29,47.68Z"/><path class="cls-2" d="M184.83,17.58q0,7.55-4.71,11.54t-13.41,4h-4.25V49.73h-9.91V3h14.92Q176,3,180.4,6.66T184.83,17.58ZM162.46,25h3.26q4.56,0,6.84-1.8a6.33,6.33,0,0,0,2.27-5.26,6.49,6.49,0,0,0-1.91-5.15c-1.26-1.1-3.25-1.66-6-1.66h-4.5Z"/><path class="cls-2" d="M213,49.73l-1.31-4.57h-.51A10.24,10.24,0,0,1,206.7,49a15.25,15.25,0,0,1-6.55,1.35q-6.3,0-9.5-3.37t-3.19-9.7V14h9.75V34.87a10,10,0,0,0,1.37,5.8A5,5,0,0,0,203,42.61q4.09,0,5.91-2.74t1.83-9.06V14h9.74V49.73Z"/><path class="cls-2" d="M245.32,13.33a11.55,11.55,0,0,1,9.91,4.94q3.57,4.93,3.58,13.53,0,8.86-3.7,13.72a12.9,12.9,0,0,1-19.93.28h-.67l-1.63,3.93h-7.44V0h9.74V11.57c0,1.47-.12,3.82-.38,7.06h.38A11.29,11.29,0,0,1,245.32,13.33Zm-3.14,7.8q-3.6,0-5.27,2.22c-1.11,1.48-1.68,3.93-1.73,7.33v1.06q0,5.75,1.71,8.25a6.11,6.11,0,0,0,5.42,2.49,5.43,5.43,0,0,0,4.78-2.77q1.77-2.76,1.77-8t-1.78-7.91A5.64,5.64,0,0,0,242.18,21.13Z"/><path class="cls-2" d="M127.93,62.2a2.28,2.28,0,0,0-.71-.82,6.91,6.91,0,0,0-1.5-.78,9,9,0,0,1-1.49-.7.65.65,0,0,1-.34-.55c0-.38.35-.57,1.06-.57a3.85,3.85,0,0,1,1.16.18,12.88,12.88,0,0,1,1.23.46l.72-1.72A7.26,7.26,0,0,0,125,57a4.38,4.38,0,0,0-2.57.64,2.07,2.07,0,0,0-.9,1.8,2.81,2.81,0,0,0,.21,1.15,2.31,2.31,0,0,0,.69.82,7,7,0,0,0,1.49.78c.46.2.84.38,1.12.53a2.7,2.7,0,0,1,.6.39.65.65,0,0,1,.17.46c0,.5-.43.75-1.3.75a6.17,6.17,0,0,1-1.47-.21,8.5,8.5,0,0,1-1.5-.52v2a6.57,6.57,0,0,0,1.26.38,8.53,8.53,0,0,0,1.63.13,4.62,4.62,0,0,0,2.8-.71,2.41,2.41,0,0,0,.94-2.05A2.6,2.6,0,0,0,127.93,62.2Z"/><path class="cls-2" d="M110.6,57.46a3.28,3.28,0,0,0-1.1,1.18h-.12L109,57.17h-1.81v8.75h2.39V61.47a2.09,2.09,0,0,1,.64-1.64,2.49,2.49,0,0,1,1.78-.59,2.36,2.36,0,0,1,.7.08l.18-2.24a3.6,3.6,0,0,0-.8-.07A2.72,2.72,0,0,0,110.6,57.46Z"/><path class="cls-2" d="M117.15,57a3.92,3.92,0,0,0-3,1.2,4.86,4.86,0,0,0-1.1,3.4,4.42,4.42,0,0,0,1.19,3.3,4.49,4.49,0,0,0,3.3,1.17,8.6,8.6,0,0,0,1.74-.15,6.08,6.08,0,0,0,1.34-.47V63.61a7.49,7.49,0,0,1-1.47.53,6.57,6.57,0,0,1-1.5.16,2.13,2.13,0,0,1-1.58-.57,2.25,2.25,0,0,1-.6-1.59h5.64V61a4,4,0,0,0-1-2.92A3.87,3.87,0,0,0,117.15,57Zm-1.67,3.54a2.18,2.18,0,0,1,.5-1.36,1.5,1.5,0,0,1,1.19-.48,1.57,1.57,0,0,1,1.2.48,2,2,0,0,1,.46,1.36Z"/><path class="cls-2" d="M91.56,63.23h0L88.8,54.48H85.5V65.92h2.17V60.6c0-.61,0-1.83-.15-3.65h.07l2.76,9h2.22l3-9h.07c-.06,1.44-.1,2.33-.1,2.66s0,.63,0,.89v5.41h2.27V54.48H94.43Z"/><path class="cls-2" d="M105.43,57.76a4.19,4.19,0,0,0-2.7-.77,7.2,7.2,0,0,0-3.35.79l.79,1.61a6.28,6.28,0,0,1,2.47-.63A1.19,1.19,0,0,1,104,60.09v.39l-1.52,0a5.69,5.69,0,0,0-2.94.73,2.31,2.31,0,0,0-1,2.06,2.77,2.77,0,0,0,.72,2,2.68,2.68,0,0,0,2,.72,4.14,4.14,0,0,0,1.67-.29,3.59,3.59,0,0,0,1.24-1.06h.06l.46,1.19h1.67V60.09A2.82,2.82,0,0,0,105.43,57.76ZM104,62.59a1.69,1.69,0,0,1-.5,1.27,1.86,1.86,0,0,1-1.33.47c-.77,0-1.15-.33-1.15-1a1.17,1.17,0,0,1,.5-1,3,3,0,0,1,1.55-.38l.93,0Z"/><path class="cls-3" d="M74.71,64.92a2.52,2.52,0,0,1-.34-1.45V58.09h2.5v-.68h-2.5v-2H74l-.39,1.92-1.26.35v.46h1.26v5.49a2.82,2.82,0,0,0,.54,1.9,2.1,2.1,0,0,0,1.66.6,4,4,0,0,0,1.3-.19v-.62a6.09,6.09,0,0,1-1.29.12A1.26,1.26,0,0,1,74.71,64.92Z"/><path class="cls-3" d="M69,57.27a6.59,6.59,0,0,0-2.77.65l.29.68a5.28,5.28,0,0,1,2.45-.66,1.92,1.92,0,0,1,1.59.62A2.87,2.87,0,0,1,71,60.39V61L69.4,61a5.66,5.66,0,0,0-3,.73,2.19,2.19,0,0,0-1,1.93,2.28,2.28,0,0,0,.7,1.78,2.75,2.75,0,0,0,2,.64,3.49,3.49,0,0,0,1.6-.34,4.2,4.2,0,0,0,1.32-1.16H71l.19,1.34h.58V60.26a3.23,3.23,0,0,0-.7-2.27A2.77,2.77,0,0,0,69,57.27Zm2,5.16a2.7,2.7,0,0,1-2.94,2.94,2,2,0,0,1-1.38-.44A1.8,1.8,0,0,1,67,62.22a5.43,5.43,0,0,1,2.55-.56L71,61.59Z"/><path class="cls-3" d="M63.68,56.8c0,.64,0,1.28,0,1.94h0a3.12,3.12,0,0,0-1.21-1.15,3.47,3.47,0,0,0-1.6-.34,3.22,3.22,0,0,0-2.68,1.17,5.29,5.29,0,0,0-.92,3.37A4.8,4.8,0,0,0,58.2,65a3.34,3.34,0,0,0,2.69,1.1,3.16,3.16,0,0,0,2.79-1.46h.06l.2,1.3h.5V53.74h-.76Zm0,5A4.43,4.43,0,0,1,63,64.55a2.54,2.54,0,0,1-2.11.84q-2.8,0-2.81-3.62a4.84,4.84,0,0,1,.7-2.84,2.42,2.42,0,0,1,2.09-1,2.54,2.54,0,0,1,2.15.87,4.75,4.75,0,0,1,.66,2.84Z"/><path class="cls-3" d="M81.23,57.27a6.55,6.55,0,0,0-2.77.65l.29.68a5.28,5.28,0,0,1,2.45-.66,1.89,1.89,0,0,1,1.58.62,2.87,2.87,0,0,1,.5,1.83V61l-1.62,0a5.66,5.66,0,0,0-3,.73,2.17,2.17,0,0,0-1,1.93,2.28,2.28,0,0,0,.7,1.78,2.74,2.74,0,0,0,1.94.64,3.54,3.54,0,0,0,1.61-.34,4.07,4.07,0,0,0,1.31-1.16h.07l.19,1.34H84V60.26A3.23,3.23,0,0,0,83.32,58,2.77,2.77,0,0,0,81.23,57.27Zm2,5.16a2.7,2.7,0,0,1-2.94,2.94,2,2,0,0,1-1.38-.44,1.57,1.57,0,0,1-.49-1.24,1.61,1.61,0,0,1,.76-1.47,5.48,5.48,0,0,1,2.56-.56l1.49-.07Z"/><path class="cls-4" d="M48.8,60.45a1.55,1.55,0,0,1,1.34.67A3.06,3.06,0,0,1,50.62,63a2.93,2.93,0,0,1-.5,1.85,1.6,1.6,0,0,1-1.36.66,1.58,1.58,0,0,1-1.33-.62h-.09l-.22.53h-1V58.65h1.32v1.56c0,.2,0,.52,0,1h0A1.52,1.52,0,0,1,48.8,60.45Zm-.42,1.06a.84.84,0,0,0-.72.3,1.68,1.68,0,0,0-.23,1v.14a2.1,2.1,0,0,0,.23,1.12.83.83,0,0,0,.73.33A.74.74,0,0,0,49,64a2,2,0,0,0,.24-1.09A2,2,0,0,0,49,61.86.78.78,0,0,0,48.38,61.51Z"/><path class="cls-4" d="M50.31,60.54h1.45l.91,2.72a3.8,3.8,0,0,1,.16.84h0a4.3,4.3,0,0,1,.19-.84l.89-2.72h1.42L53.3,66a2.33,2.33,0,0,1-.8,1.14,2,2,0,0,1-1.22.37,3.05,3.05,0,0,1-.67-.07V66.38a2.18,2.18,0,0,0,.52.06.88.88,0,0,0,.61-.22,1.25,1.25,0,0,0,.41-.64l.08-.24Z"/><path class="cls-5" d="M131.71,62.48a2.51,2.51,0,1,1-2.59,2.5,2.51,2.51,0,0,1,2.59-2.5Zm0,.51a2,2,0,0,0,0,4,1.91,1.91,0,0,0,1.91-2,2,2,0,0,0-1.92-2Zm-.38,3.29h-.58v-2.5a6.78,6.78,0,0,1,1-.08,1.35,1.35,0,0,1,.86.2.64.64,0,0,1-.26,1.13v0c.24.08.36.28.44.61a2.25,2.25,0,0,0,.18.61h-.61a2.2,2.2,0,0,1-.2-.61c0-.26-.19-.38-.51-.38h-.28Zm0-1.4h.27c.32,0,.58-.11.58-.37s-.17-.38-.53-.38a1.69,1.69,0,0,0-.32,0Z"/><circle class="cls-6" cx="21.65" cy="28.67" r="21.65"/><path class="cls-5" d="M7.57,34a8.12,8.12,0,1,0,8.12-8.12A8.13,8.13,0,0,0,7.57,34Zm6.21,3.42h-.29l-.11-.74h0a1.79,1.79,0,0,1-1.58.83,1.88,1.88,0,0,1-1.53-.63A2.68,2.68,0,0,1,9.7,35a3,3,0,0,1,.52-1.92,1.85,1.85,0,0,1,1.53-.67,2,2,0,0,1,.91.2,1.74,1.74,0,0,1,.68.65h0c0-.37,0-.74,0-1.1V30.87h.44Zm4.37-1.53h0l1.64-5h1.88v6.51H20.4V34.3c0-.15,0-.32,0-.51s0-.69.06-1.51h0l-1.68,5.1H17.48l-1.56-5.11h0c0,1,.08,1.73.08,2.08v3H14.73V30.87h1.88Z"/><path class="cls-5" d="M21.65,10a18.53,18.53,0,0,0-8.31,2h4.53c1,0,2.06,0,3.09.06a.8.8,0,0,1,.59.27c1.82,1.8,3.66,3.59,5.47,5.39,1.41,1.41,2.78,2.85,4.19,4.26A2.35,2.35,0,0,1,32,23.77c0,1.75,0,3.5,0,5.25q0,7.59,0,15.18A18.66,18.66,0,0,0,21.65,10Z"/><path class="cls-5" d="M11.75,32.84a1.36,1.36,0,0,0-1.19.56,2.73,2.73,0,0,0-.4,1.62c0,1.37.53,2,1.6,2A1.45,1.45,0,0,0,13,36.6,2.5,2.5,0,0,0,13.34,35V35A2.67,2.67,0,0,0,13,33.34,1.44,1.44,0,0,0,11.75,32.84Z"/><path class="cls-5" d="M19.8,15.22H8.71A18.66,18.66,0,0,0,28.8,45.91V24.22h-.25l-8-.06a.8.8,0,0,1-.72-.72V15.22ZM25.11,34a9.42,9.42,0,1,1-9.42-9.42A9.41,9.41,0,0,1,25.11,34Z"/><path class="cls-5" d="M26.75,22.55c.13,0,.26,0,.39,0l0-.07-5.75-5.59h0V22.4c0,.16.06.19.2.19Z"/></g></g></svg>