<?xml version="1.0" encoding="UTF-8"?> <svg xmlns="http://www.w3.org/2000/svg" viewBox="0 0 100.52 100.52"><defs><style>.cls-1{fill:#fff;}.cls-2{fill:#237370;}</style></defs><g id="Capa_2" data-name="Capa 2"><g id="Layer_1" data-name="Layer 1"><circle class="cls-1" cx="50.26" cy="50.26" r="50.26"></circle><circle class="cls-2" cx="50.26" cy="50.26" r="46.21"></circle><path class="cls-1" d="M64.84,28H35.68a8.22,8.22,0,0,0-8.3,8.08v28.4a8.22,8.22,0,0,0,8.3,8.08H64.84a8.22,8.22,0,0,0,8.3-8.08V36.06A8.22,8.22,0,0,0,64.84,28Zm-5.38,6.26a1.79,1.79,0,0,1,1.87-1.77h5.46A1.8,1.8,0,0,1,68.63,34a1.27,1.27,0,0,1,0,.28v5.21a1.77,1.77,0,0,1-1.53,1.74,2.17,2.17,0,0,1-.36,0H61.32a1.84,1.84,0,0,1-1.85-1.52,2.09,2.09,0,0,1,0-.25Zm-9.2,7a8.75,8.75,0,1,1-9.19,8.74A9,9,0,0,1,50.26,41.2Zm18.4,5.49v19a1.77,1.77,0,0,1-1.47,1.72,3,3,0,0,1-.52,0H33.87a2.45,2.45,0,0,1-.72-.09,1.75,1.75,0,0,1-1.27-1.51,2.72,2.72,0,0,1,0-.28V46.46H36A13.18,13.18,0,0,0,37.44,56.8a14,14,0,0,0,5.74,5.39,15.3,15.3,0,0,0,18.93-3.95,13.38,13.38,0,0,0,2.41-11.78h4.14Z"></path></g></g></svg> 