<?xml version="1.0" encoding="UTF-8"?>
<svg id="Layer_2" data-name="Layer 2" xmlns="http://www.w3.org/2000/svg" viewBox="0 0 42.63 96.59">
  <defs>
    <style>
      .cls-1 {
        fill: #1f4c5c;
      }
    </style>
  </defs>
  <g id="Layer_1-2" data-name="Layer 1">
    <path class="cls-1" d="m0,47.44v.27s0,1.16,0,1.16v.27s7,6.44,7,6.44l.04-.04,26.14,24.78c3.09,2.86,5.18,5.33,6.27,7.41,1.09,2.08,1.83,5.03,2.24,8.84h.95s0-42.25,0-42.25h-.95s-.03,1.43-.03,1.43c-.16,4.16-.51,7.09-1.04,8.78-.53,1.69-1.37,2.54-2.53,2.54-.89,0-1.94-.56-3.14-1.69l-19.59-17.09,19.59-17.09c1.2-1.13,2.25-1.69,3.14-1.69,1.16,0,2,.84,2.53,2.54.53,1.69.87,4.62,1.04,8.78l.03,1.43h.95S42.63,0,42.63,0h-.95c-.41,3.81-1.15,6.76-2.24,8.84-1.09,2.08-3.18,4.55-6.27,7.41L7.04,41.04l-.04-.04L0,47.44Zm12.47-1.67l-4-3.49,25.04-23.5c.63-.56,1.27-1.19,1.92-1.88.65-.69,1.4-1.54,2.26-2.54,1.48-1.78,2.72-4.01,3.72-6.7v19.89c-.65-1.6-1.23-2.69-1.72-3.25-.5-.56-1.05-.85-1.66-.85-1,0-2.17.63-3.51,1.89l-22.05,20.42Zm-4,8.53l4-3.49,22.05,20.42c1.34,1.26,2.51,1.89,3.51,1.89.61,0,1.16-.28,1.66-.85.5-.56,1.07-1.65,1.72-3.25v19.89c-1-2.69-2.24-4.92-3.72-6.7-.85-1-1.61-1.84-2.26-2.54-.65-.69-1.29-1.32-1.92-1.88l-25.04-23.5Z"/>
  </g>
</svg>