<?xml version="1.0" encoding="UTF-8"?>
<svg id="Layer_2" data-name="Layer 2" xmlns="http://www.w3.org/2000/svg" viewBox="0 0 42.63 96.59">
  <defs>
    <style>
      .cls-1 {
        fill: #fff;
      }
    </style>
  </defs>
  <g id="Layer_1-2" data-name="Layer 1">
    <path class="cls-1" d="m35.63,41l-.04.04L9.45,16.25c-3.09-2.86-5.18-5.33-6.27-7.41C2.1,6.76,1.35,3.81.95,0h-.95v42.25h.95l.03-1.43c.16-4.16.51-7.09,1.04-8.78.53-1.69,1.37-2.54,2.53-2.54.89,0,1.94.56,3.14,1.69l19.59,17.09-19.59,17.09c-1.2,1.13-2.25,1.69-3.14,1.69-1.16,0-2-.84-2.53-2.54-.53-1.69-.87-4.62-1.04-8.78l-.03-1.43h-.95v42.25h.95c.41-3.81,1.15-6.76,2.24-8.84,1.09-2.08,3.18-4.55,6.27-7.41l26.14-24.78.04.04,7-6.44v-1.7l-7-6.44Zm-27.52-15.65c-1.34-1.26-2.51-1.89-3.51-1.89-.61,0-1.16.28-1.66.85-.5.56-1.07,1.65-1.72,3.25V7.67c1,2.69,2.24,4.92,3.72,6.7.85,1,1.61,1.84,2.26,2.54.65.69,1.29,1.32,1.92,1.88l25.04,23.5-4,3.49L8.11,25.35Zm1.01,52.45c-.63.56-1.27,1.19-1.92,1.88-.65.69-1.4,1.54-2.26,2.54-1.48,1.78-2.72,4.01-3.72,6.7v-19.89c.65,1.6,1.23,2.69,1.72,3.25.5.56,1.05.85,1.66.85,1,0,2.17-.63,3.51-1.89l22.05-20.42,4,3.49-25.04,23.5Z"/>
  </g>
</svg>