<svg width="224" height="41" viewBox="0 0 224 41" fill="none" xmlns="http://www.w3.org/2000/svg">
<path d="M39.2698 20.6257C39.2698 10.3288 30.9225 1.98145 20.6255 1.98145C10.3285 1.98145 1.9812 10.3288 1.9812 20.6257C1.9812 30.9227 10.3285 39.27 20.6255 39.27C30.9225 39.27 39.2698 30.9227 39.2698 20.6257Z" fill="white" stroke="#689944" stroke-width="3"/>
<path d="M14.6857 11.5977V19.0592H14.6357C14.1111 18.0316 12.7871 16.9797 10.7137 16.9797C7.76599 16.9797 5.29284 19.4261 5.31781 23.3404C5.31781 26.8387 7.51615 29.2607 10.4889 29.2607C12.7122 29.2607 14.1361 28.0619 14.7606 26.7653H14.8106L14.9105 28.9915H15.9847C15.9098 28.1597 15.8848 27.1323 15.8848 26.276V11.5977H14.6857ZM14.6857 24.2455C14.6857 24.6125 14.6607 24.9305 14.5608 25.2241C14.0612 27.1567 12.4374 28.2821 10.7137 28.2821C7.86588 28.2821 6.5169 25.8602 6.5169 23.218C6.5169 20.1845 8.16563 17.9582 10.7887 17.9582C12.7371 17.9582 14.1611 19.2548 14.5608 20.8206C14.6607 21.163 14.6857 21.579 14.6857 21.897V24.2455Z" fill="#689944"/>
<path d="M24.8033 29.2607L20.7995 15.4033H20.6971C20.7123 15.7335 20.735 16.2329 20.7654 16.9013C20.8033 17.5618 20.8374 18.2666 20.8677 19.0156C20.8981 19.7646 20.9132 20.4412 20.9132 21.0453V29.2607H17.7625V11.5977H22.5625L26.4981 25.1046H26.5664L30.7408 11.5977H35.5409V29.2607H32.2537V20.9003C32.2537 20.3446 32.2612 19.7043 32.2764 18.9794C32.2992 18.2545 32.3257 17.5659 32.356 16.9134C32.3864 16.253 32.4091 15.7576 32.4243 15.4275H32.3219L28.0337 29.2607H24.8033Z" fill="#187470"/>
<path d="M63.8284 6.09668H65.8695V31.6099C65.8695 33.0982 65.912 34.8841 66.0396 36.3299H64.2111L64.041 32.4604H63.956C62.8929 34.714 60.4692 36.7976 56.6847 36.7976C51.6246 36.7976 47.8826 32.5879 47.8826 26.5073C47.8401 19.7037 52.0498 15.4515 57.0674 15.4515C60.5967 15.4515 62.8504 17.28 63.7434 19.0659H63.8284V6.09668ZM63.8284 28.0806V23.9985C63.8284 23.4457 63.7859 22.7228 63.6158 22.1275C62.9355 19.4061 60.5117 17.1524 57.195 17.1524C52.7302 17.1524 49.9237 21.0219 49.9237 26.2947C49.9237 30.8871 52.2199 35.0967 57.0674 35.0967C60.0014 35.0967 62.7654 33.1407 63.6158 29.7815C63.7859 29.2712 63.8284 28.7184 63.8284 28.0806Z" fill="#689944"/>
<path d="M82.4508 23.4882V31.4824C82.4508 33.0982 82.4933 34.7566 82.7484 36.3299H80.8775L80.5798 33.3959H80.4948C79.4742 34.9692 77.2206 36.7976 73.9464 36.7976C69.8217 36.7976 67.9507 33.9061 67.9507 31.1847C67.9507 26.4648 72.0754 23.6158 80.4097 23.7008V23.148C80.4097 21.1495 80.027 17.1099 75.1795 17.1524C73.3936 17.1524 71.5226 17.6202 70.0343 18.6832L69.3965 17.1949C71.2675 15.9618 73.5637 15.4515 75.3921 15.4515C81.3027 15.4515 82.4508 19.8738 82.4508 23.4882ZM80.4097 29.7815V25.4017C75.9449 25.2741 70.0768 25.9545 70.0768 30.8445C70.0768 33.7786 72.0329 35.0967 74.159 35.0967C77.5607 35.0967 79.5167 33.0132 80.1971 31.0146C80.3672 30.5894 80.4097 30.1217 80.4097 29.7815Z" fill="#689944"/>
<path d="M86.8349 12.1773L88.8759 11.4119V15.9193H94.7014V17.5776H88.8759V30.8445C88.8759 33.4384 89.6838 35.0542 91.8525 35.0542C92.9155 35.0542 93.6809 34.9267 94.1912 34.7566L94.4463 36.2874C93.766 36.5425 92.8305 36.7551 91.5973 36.7551C90.1091 36.7551 88.8759 36.2874 88.1105 35.3519C87.175 34.2888 86.8349 32.5454 86.8349 30.4618V17.5776H83.3906V15.9193H86.8349V12.1773Z" fill="#689944"/>
<path d="M108.929 23.4882V31.4824C108.929 33.0982 108.972 34.7566 109.227 36.3299H107.356L107.058 33.3959H106.973C105.953 34.9692 103.699 36.7976 100.425 36.7976C96.3 36.7976 94.429 33.9061 94.429 31.1847C94.429 26.4648 98.5537 23.6158 106.888 23.7008V23.148C106.888 21.1495 106.505 17.1099 101.658 17.1524C99.8719 17.1524 98.0009 17.6202 96.5126 18.6832L95.8748 17.1949C97.7458 15.9618 100.042 15.4515 101.87 15.4515C107.781 15.4515 108.929 19.8738 108.929 23.4882ZM106.888 29.7815V25.4017C102.423 25.2741 96.5551 25.9545 96.5551 30.8445C96.5551 33.7786 98.5112 35.0967 100.637 35.0967C104.039 35.0967 105.995 33.0132 106.675 31.0146C106.845 30.5894 106.888 30.1217 106.888 29.7815Z" fill="#689944"/>
<path d="M127.338 36.3297L118.597 10.9784H118.41C118.451 11.5459 118.5 12.3211 118.555 13.3039C118.611 14.2866 118.659 15.3386 118.701 16.4598C118.742 17.581 118.763 18.6537 118.763 19.678V36.3297H114.237V5.97461H121.234L129.643 30.2047H129.767L138.467 5.97461H145.443V36.3297H140.688V19.4289C140.688 18.5015 140.702 17.4979 140.73 16.4183C140.771 15.3386 140.813 14.3143 140.854 13.3454C140.91 12.3765 140.951 11.6013 140.979 11.02H140.813L131.74 36.3297H127.338Z" fill="#267371"/>
<path d="M158.973 12.9094C161.88 12.9094 164.073 13.553 165.555 14.8403C167.049 16.1276 167.797 18.1347 167.797 20.8615V36.3297H164.33L163.395 33.07H163.229C162.579 33.9005 161.907 34.5857 161.215 35.1255C160.523 35.6653 159.72 36.0667 158.807 36.3297C157.907 36.6066 156.807 36.745 155.505 36.745C154.135 36.745 152.91 36.4958 151.83 35.9975C150.751 35.4854 149.899 34.7102 149.277 33.6721C148.654 32.634 148.342 31.319 148.342 29.7272C148.342 27.3602 149.221 25.5816 150.979 24.3912C152.751 23.2008 155.422 22.5433 158.994 22.4187L162.98 22.2734V21.0691C162.98 19.4773 162.606 18.3423 161.859 17.664C161.125 16.9858 160.087 16.6467 158.744 16.6467C157.596 16.6467 156.481 16.8128 155.402 17.145C154.322 17.4772 153.27 17.8855 152.246 18.37L150.668 14.9233C151.789 14.3281 153.062 13.8437 154.488 13.47C155.928 13.0962 157.423 12.9094 158.973 12.9094ZM162.959 25.3462L159.99 25.4501C157.554 25.5331 155.845 25.9484 154.862 26.6958C153.879 27.4433 153.388 28.4676 153.388 29.7687C153.388 30.9037 153.727 31.7342 154.405 32.2602C155.083 32.7724 155.976 33.0285 157.083 33.0285C158.772 33.0285 160.17 32.5509 161.277 31.5958C162.399 30.6269 162.959 29.2081 162.959 27.3395V25.3462Z" fill="#267371"/>
<path d="M183.299 12.9094C183.687 12.9094 184.109 12.9301 184.566 12.9717C185.023 13.0132 185.417 13.0685 185.749 13.1378L185.292 17.7056C185.002 17.6225 184.642 17.5602 184.213 17.5187C183.798 17.4772 183.424 17.4564 183.092 17.4564C182.22 17.4564 181.389 17.6017 180.6 17.8924C179.811 18.1693 179.112 18.5984 178.503 19.1797C177.894 19.7472 177.416 20.4601 177.07 21.3183C176.724 22.1765 176.551 23.1731 176.551 24.3081V36.3297H171.651V13.3454H175.472L176.136 17.3941H176.364C176.821 16.5774 177.389 15.83 178.067 15.1517C178.745 14.4735 179.52 13.9337 180.392 13.5322C181.278 13.117 182.247 12.9094 183.299 12.9094Z" fill="#267371"/>
<path d="M196.185 12.9094C198.234 12.9094 199.992 13.3315 201.459 14.1759C202.926 15.0202 204.055 16.2176 204.843 17.7678C205.632 19.3181 206.027 21.1729 206.027 23.3323V25.9484H190.683C190.739 28.1769 191.334 29.8933 192.469 31.0975C193.618 32.3018 195.223 32.9039 197.286 32.9039C198.753 32.9039 200.068 32.7655 201.231 32.4886C202.407 32.1979 203.618 31.7758 204.864 31.2221V35.1878C203.715 35.7276 202.546 36.1221 201.355 36.3713C200.165 36.6204 198.739 36.745 197.078 36.745C194.822 36.745 192.836 36.309 191.119 35.4369C189.417 34.5511 188.081 33.2361 187.112 31.492C186.157 29.7479 185.679 27.5817 185.679 24.9933C185.679 22.4187 186.115 20.2317 186.988 18.4322C187.86 16.6328 189.085 15.2625 190.663 14.3212C192.241 13.38 194.081 12.9094 196.185 12.9094ZM196.185 16.5844C194.649 16.5844 193.403 17.0827 192.448 18.0793C191.507 19.0759 190.953 20.5362 190.787 22.4602H201.252C201.238 21.3113 201.044 20.294 200.67 19.4081C200.31 18.5222 199.757 17.8301 199.009 17.3318C198.276 16.8335 197.334 16.5844 196.185 16.5844Z" fill="#267371"/>
<path d="M224 29.7687C224 31.2775 223.633 32.5509 222.9 33.589C222.166 34.6272 221.093 35.4162 219.681 35.956C218.283 36.482 216.567 36.745 214.532 36.745C212.927 36.745 211.542 36.6273 210.38 36.392C209.231 36.1705 208.144 35.8245 207.12 35.3539V31.139C208.213 31.6512 209.438 32.0941 210.795 32.4679C212.165 32.8416 213.459 33.0285 214.678 33.0285C216.283 33.0285 217.439 32.7793 218.145 32.281C218.851 31.7688 219.204 31.0906 219.204 30.2462C219.204 29.7479 219.058 29.305 218.768 28.9174C218.491 28.516 217.965 28.1077 217.19 27.6924C216.429 27.2633 215.307 26.7512 213.826 26.156C212.373 25.5746 211.148 24.9933 210.151 24.4119C209.155 23.8306 208.4 23.1315 207.888 22.3149C207.376 21.4844 207.12 20.4255 207.12 19.1382C207.12 17.1034 207.923 15.5601 209.528 14.5081C211.148 13.4423 213.286 12.9094 215.944 12.9094C217.356 12.9094 218.685 13.0547 219.931 13.3454C221.19 13.6222 222.422 14.0306 223.626 14.5704L222.09 18.2454C221.052 17.7886 220.007 17.4149 218.955 17.1242C217.917 16.8197 216.858 16.6674 215.778 16.6674C214.518 16.6674 213.556 16.8612 212.892 17.2488C212.241 17.6363 211.916 18.19 211.916 18.9098C211.916 19.4496 212.075 19.9064 212.394 20.2801C212.712 20.6539 213.259 21.0276 214.034 21.4013C214.823 21.775 215.916 22.2388 217.314 22.7924C218.685 23.3184 219.868 23.8721 220.865 24.4534C221.875 25.021 222.65 25.72 223.19 26.5505C223.73 27.381 224 28.4537 224 29.7687Z" fill="#267371"/>
</svg>
