<?xml version="1.0" encoding="UTF-8"?>
<svg id="Layer_2" data-name="Layer 2" xmlns="http://www.w3.org/2000/svg" xmlns:xlink="http://www.w3.org/1999/xlink" viewBox="0 0 224.53 58.93">
  <defs>
    <style>
      .cls-1 {
        fill: #fff;
      }

      .cls-2 {
        fill: #1f4c5c;
      }

      .cls-3 {
        fill: url(#linear-gradient);
      }
    </style>
    <linearGradient id="linear-gradient" x1="-812.23" y1="47.4" x2="-812.23" y2="6.32" gradientTransform="translate(82.8 -782.76) rotate(-90)" gradientUnits="userSpaceOnUse">
      <stop offset="0" stop-color="#90a9b9"/>
      <stop offset="1" stop-color="#1f4c5c"/>
    </linearGradient>
  </defs>
  <g id="Layer_1-2" data-name="Layer 1">
    <g>
      <g>
        <g>
          <rect class="cls-2" x="0" y="0" width="224.53" height="58.93" rx="29.46" ry="29.46"/>
          <rect class="cls-3" x="89.11" y="-76.05" width="46.3" height="211.03" rx="23.15" ry="23.15" transform="translate(141.73 -82.8) rotate(90)"/>
        </g>
        <g>
          <path class="cls-1" d="m59.35,18.52c1.17-.26,2.87-.43,4.71-.43,3.01,0,5.1.66,6.62,1.99,2.06,1.72,3.12,4.67,3.12,9.01s-1.24,7.72-3.33,9.45c-1.59,1.46-3.97,2.15-7.3,2.15-1.45,0-2.91-.13-3.83-.23v-21.94Zm4.64,18.56c.21.07.57.07.82.07,2.23,0,4.18-2.05,4.18-8.22,0-4.57-1.28-7.36-4.08-7.36-.32,0-.64,0-.92.1v15.41Z"/>
          <path class="cls-1" d="m86.84,30.72h-5.46v6.03h6.17v3.78h-10.81v-22.34h10.38v3.78h-5.74v5.14h5.46v3.61Z"/>
          <path class="cls-1" d="m90.17,36.09c.96.5,2.59.86,3.93.86,2.2,0,3.26-1.06,3.26-2.52,0-1.62-1.06-2.42-3.08-3.65-3.26-1.86-4.5-4.21-4.5-6.23,0-3.58,2.55-6.56,7.55-6.56,1.56,0,3.05.4,3.76.79l-.74,3.75c-.67-.4-1.7-.76-3.05-.76-1.98,0-2.94,1.13-2.94,2.32,0,1.33.71,2.02,3.29,3.48,3.15,1.79,4.32,4.04,4.32,6.4,0,4.08-3.22,6.76-7.9,6.76-1.91,0-3.79-.46-4.57-.9l.67-3.75Z"/>
          <path class="cls-1" d="m116.1,40.2c-.67.3-1.98.53-3.61.53-6.09,0-9-4.71-9-11.04,0-8.42,5-11.7,9.64-11.7,1.63,0,2.76.3,3.22.6l-.78,3.65c-.53-.23-1.13-.43-2.16-.43-2.62,0-5,2.12-5,7.66s2.16,7.42,5,7.42c.78,0,1.67-.17,2.23-.33l.46,3.65Z"/>
          <path class="cls-1" d="m123,35.43l-1.06,5.1h-4.5l5.17-22.34h5.56l4.64,22.34h-4.5l-1.03-5.1h-4.29Zm3.86-3.38l-.78-4.67c-.25-1.36-.57-3.58-.78-5.07h-.11c-.25,1.49-.6,3.81-.85,5.1l-.89,4.64h3.4Z"/>
          <path class="cls-1" d="m135.44,18.52c1.45-.26,3.29-.43,5.07-.43,2.55,0,4.82.33,6.38,1.66,1.45,1.23,1.88,2.72,1.88,4.64,0,2.39-1.24,4.54-3.68,5.6v.07c1.63.6,2.44,2.02,2.91,4.41.46,2.49,1.1,5.24,1.52,6.07h-4.85c-.28-.63-.81-2.88-1.17-5.34-.42-2.78-1.17-3.58-2.73-3.58h-.67v8.92h-4.64v-22.01Zm4.64,9.74h.82c2.02,0,3.19-1.52,3.19-3.48s-.82-3.25-2.91-3.31c-.39,0-.85.03-1.1.13v6.66Z"/>
          <path class="cls-1" d="m165.34,39.93c-1.03.4-3.22.8-4.96.8-2.73,0-4.78-.73-6.38-2.22-2.05-1.86-3.15-5.17-3.08-9.01.11-8.12,5.07-11.5,10.13-11.5,1.81,0,3.15.33,3.9.66l-.81,3.75c-.67-.33-1.56-.5-2.73-.5-3.15,0-5.67,2.02-5.67,7.85,0,5.37,2.23,7.29,4.39,7.29.43,0,.74-.03.92-.1v-5.4h-2.12v-3.55h6.41v11.93Z"/>
          <path class="cls-1" d="m172.6,35.43l-1.06,5.1h-4.5l5.17-22.34h5.56l4.64,22.34h-4.5l-1.03-5.1h-4.29Zm3.86-3.38l-.78-4.67c-.25-1.36-.57-3.58-.78-5.07h-.11c-.25,1.49-.6,3.81-.85,5.1l-.89,4.64h3.4Z"/>
          <path class="cls-1" d="m185.03,18.52c1.45-.26,3.29-.43,5.07-.43,2.55,0,4.82.33,6.38,1.66,1.45,1.23,1.88,2.72,1.88,4.64,0,2.39-1.24,4.54-3.68,5.6v.07c1.63.6,2.44,2.02,2.91,4.41.46,2.49,1.1,5.24,1.52,6.07h-4.85c-.28-.63-.81-2.88-1.17-5.34-.42-2.78-1.17-3.58-2.73-3.58h-.67v8.92h-4.64v-22.01Zm4.64,9.74h.82c2.02,0,3.19-1.52,3.19-3.48s-.82-3.25-2.91-3.31c-.39,0-.85.03-1.1.13v6.66Z"/>
        </g>
      </g>
      <g>
        <g>
          <circle class="cls-1" cx="30.99" cy="29.15" r="19.91"/>
          <circle class="cls-2" cx="30.99" cy="29.15" r="18.31"/>
        </g>
        <g>
          <path class="cls-1" d="m19.45,31.43c4.28-2.01,8.55-4.01,12.83-6.02.15-.07.31-.14.48-.16.89-.14,1.44.23,1.45,1.19,0,.17-.03.35-.08.52-.67,2.39-1.34,4.78-2.02,7.18-.61,2.17-1.22,4.33-1.83,6.5-.12.42-.37.73-.77.89-.47.2-.88.04-1.1-.43-.59-1.22-1.18-2.45-1.78-3.67-.06-.13-.14-.25-.22-.4-.06.06-.11.11-.15.15-.41.48-.81.96-1.22,1.43-.44.52-.88,1.04-1.33,1.56-.6.69-1.52.86-2.27.43-1-.57-1.25-1.84-.51-2.74.82-1,1.67-1.98,2.51-2.97.06-.07.11-.14.19-.23-.17-.06-.3-.11-.44-.15-1.32-.39-2.65-.78-3.97-1.18-.36-.11-.57-.38-.56-.75.01-.56.3-.93.8-1.17Z"/>
          <path class="cls-1" d="m28.28,24.65c-.11.41-.38.66-.8.71-.19.02-.4.01-.58-.04-.85-.23-1.69-.47-2.54-.72-.21-.06-.42-.13-.61-.23-.43-.24-.59-.67-.45-1.14.13-.46.48-.72.98-.73.14.03.28.04.41.08.92.26,1.84.52,2.76.79.18.05.36.14.5.26.33.26.44.61.33,1.02Z"/>
          <path class="cls-1" d="m38.51,27.89c0-.49.3-.91.76-.98.22-.04.47-.02.69.04.92.25,1.84.51,2.76.79.17.05.35.13.49.24.57.42.49,1.31-.13,1.65-.29.16-.6.15-.9.06-.93-.26-1.85-.52-2.78-.79-.17-.05-.33-.13-.47-.23-.26-.18-.41-.44-.41-.77Z"/>
          <path class="cls-1" d="m30.26,21.6c-.37-.01-.62-.22-.79-.51-.54-.94-1.07-1.89-1.58-2.84-.09-.16-.13-.36-.12-.54,0-.42.35-.78.78-.88.45-.11.84.05,1.07.44.53.94,1.04,1.88,1.58,2.81.44.76-.23,1.56-.93,1.52Z"/>
          <path class="cls-1" d="m42.15,22.41c-.77.44-1.54.88-2.33,1.29-.3.16-.64.24-.96.35-.05.02-.13.02-.18,0-.44-.16-.72-.57-.72-1.04,0-.4.21-.68.54-.86.74-.41,1.47-.82,2.21-1.23.22-.12.44-.26.68-.34.6-.23,1.21.11,1.33.72.09.43-.13.88-.57,1.13Z"/>
          <path class="cls-1" d="m36.55,30.68c.29,0,.6.13.79.46.54.95,1.07,1.9,1.59,2.86.26.48.08,1.07-.39,1.33-.48.27-1.07.12-1.34-.35-.54-.95-1.08-1.91-1.6-2.88-.35-.65.14-1.42.96-1.42Z"/>
          <path class="cls-1" d="m34.28,19.43c.25-.9.51-1.8.77-2.7.16-.54.61-.85,1.1-.78.65.09,1,.67.81,1.36-.27.97-.55,1.94-.83,2.9-.03.12-.09.24-.15.35-.23.38-.67.54-1.1.41-.47-.14-.73-.48-.75-.95.05-.2.09-.4.14-.59Z"/>
        </g>
      </g>
    </g>
  </g>
</svg>