<?xml version="1.0" encoding="UTF-8"?>
<svg xmlns="http://www.w3.org/2000/svg" viewBox="0 0 76.05 60.33">
  <defs>
    <style>
      .cls-1 {
        isolation: isolate;
      }
      .cls-3 {
        mix-blend-mode: multiply;
      }
    </style>
  </defs>
  <g class="cls-1">
    <g class="cls-3">
        <path fill="#1f4c5c" class='' d="m27.45,11.77c4.8-.04,9.22.84,13.46,2.63,3.46,1.47,6.56,3.51,9.13,6.27,2.89,3.1,4.8,6.71,5.29,10.97.37,3.19-.1,6.27-1.41,9.22-1.02,2.3-2.44,4.32-4.17,6.12-1.73,1.8-3.72,3.29-5.89,4.51-2.48,1.4-5.11,2.42-7.88,3.11-3.39.84-6.83,1.12-10.31.95-1.37-.07-2.75-.2-4.1-.48-.37-.07-.59,0-.8.31-1.28,1.92-3.06,3.22-5.18,4.07-1.9.76-3.89.97-5.92.84-1.46-.1-2.87-.47-4.26-.89-.14-.04-.36-.06-.37-.24-.01-.19.2-.22.34-.28.86-.39,1.74-.77,2.6-1.16,2-.92,2.99-2.53,3.22-4.68.11-1.02-.03-1.74-1.07-2.36-2.93-1.74-5.34-4.09-7.23-6.94-1.42-2.15-2.42-4.49-2.81-7.04-.18-1.17-.05-2.37-.05-3.55,0-1.01-.09-2.02.13-3.03.69-3.14,2.09-5.93,4.14-8.39,3.16-3.8,7.19-6.34,11.79-8.01,3.72-1.34,7.57-2,11.34-1.94Z"/>
        <path fill="#1f4c5c" d="m76.02,22.11c-.07,1.21.13,2.63-.24,4.04-1.01,3.79-3,6.97-5.81,9.67-1.46,1.4-3.07,2.58-4.79,3.63-.17.11-.37.2-.36.45.06,1.4.18,2.78.92,4.02.6,1.01,1.54,1.62,2.56,2.11.83.4,1.67.75,2.51,1.13.11.05.27.07.26.23-.01.16-.17.17-.28.21-4.24,1.38-8.39,1.48-12.33-.96-1.09-.67-1.99-1.55-2.8-2.54-.25-.31-.15-.57,0-.87,1.15-2.21,1.91-4.55,2.23-7.02.37-2.85.13-5.65-.71-8.4-1.31-4.28-3.79-7.78-7.13-10.72-4.37-3.84-9.5-6.08-15.14-7.24-2.44-.5-4.91-.7-7.4-.7-.3,0-.6.03-.9.04-.18,0-.43.1-.52-.1-.09-.2.13-.34.26-.47.58-.56,1.15-1.13,1.77-1.65,2.63-2.21,5.59-3.86,8.82-5.02,2.84-1.02,5.78-1.63,8.79-1.86,3.56-.28,7.08-.03,10.56.76,4.38,1.01,8.39,2.81,11.93,5.59,2.61,2.05,4.74,4.52,6.2,7.51,1.01,2.07,1.8,4.22,1.63,6.6-.03.44,0,.89,0,1.54Z"/>
    </g>
  </g>
</svg>