<?xml version="1.0" encoding="UTF-8"?> <svg xmlns="http://www.w3.org/2000/svg" width="66" height="33" viewBox="0 0 66 33" fill="none"><rect width="66" height="33" fill="#257470"></rect><path d="M44.34 16.14C42.87 12.59 41.34 9.08 39.88 5.51C39.6659 4.64741 39.5883 3.75661 39.65 2.87C39.65 2.78 39.81 2.63 39.92 2.6C40.2102 2.54503 40.4709 2.38748 40.6545 2.15613C40.8381 1.92478 40.9324 1.63509 40.92 1.34C40.9178 1.03492 40.8159 0.738923 40.63 0.497038C40.4441 0.255152 40.1842 0.0806217 39.89 0L26.1 0C25.51 0.26 25 0.62 25 1.34C24.9928 1.63611 25.0886 1.92553 25.271 2.15894C25.4533 2.39235 25.711 2.55529 26 2.62C26.0812 2.66991 26.149 2.73874 26.1978 2.82058C26.2465 2.90243 26.2747 2.99487 26.28 3.09C26.3702 4.17057 26.2023 5.25711 25.79 6.26C22.99 12.72 20.25 19.26 17.5 25.71C17.32 26.31 17.19 27 17 27.58V27.87C17.2204 28.6423 17.5047 29.3949 17.85 30.12C18.1702 30.6126 18.5885 31.0338 19.0789 31.3572C19.5693 31.6807 20.1212 31.8995 20.7 32H45.29C45.926 31.8866 46.5291 31.6342 47.0563 31.2608C47.5836 30.8874 48.0219 30.4023 48.34 29.84C48.617 29.1945 48.8346 28.525 48.99 27.84V27.55C47.44 23.77 45.92 20 44.34 16.14ZM44.5 29.31C36.82 29.31 29.1533 29.31 21.5 29.31C21.2032 29.3494 20.9014 29.3037 20.6296 29.1781C20.3578 29.0526 20.1273 28.8524 19.9649 28.6009C19.8024 28.3494 19.7148 28.057 19.7122 27.7576C19.7096 27.4583 19.792 27.1643 19.95 26.91C22.86 20 25.8 13.11 28.7 6.19C28.9069 5.47867 29.008 4.74076 29 4C29 3.59 29 3.16 29 2.67H37C37 2.74 37.1 2.78 37.09 2.81C36.73 5.27 37.83 7.36 38.75 9.5C41.23 15.2933 43.6967 21.0867 46.15 26.88C46.3225 27.1427 46.4133 27.4507 46.4109 27.765C46.4084 28.0793 46.3129 28.3859 46.1363 28.6459C45.9598 28.9059 45.7101 29.1078 45.4188 29.226C45.1276 29.3442 44.8078 29.3734 44.5 29.31Z" fill="white"></path><path d="M39.81 17.47C39.2275 16.5014 38.4261 15.6828 37.47 15.08C36.3195 14.2484 34.9394 13.7942 33.52 13.78C31.9847 13.774 30.4782 14.1965 29.17 15C29.0993 15.0397 29.0208 15.0636 28.94 15.07C28.2048 15.1501 27.4919 15.3708 26.84 15.72C26.62 15.86 26.6 15.87 26.73 16.1C26.8654 16.3194 26.9371 16.5722 26.9371 16.83C26.9371 17.0878 26.8654 17.3406 26.73 17.56L26.68 17.68C25.8965 19.1973 25.6565 20.9373 26 22.61C26.2135 23.803 26.7979 24.8983 27.67 25.74C27.77 25.84 27.89 25.93 28 26.02C27.6673 25.3128 27.5491 24.5236 27.66 23.75C27.7289 23.211 27.9366 22.6992 28.2626 22.2645C28.5886 21.8298 29.0219 21.4871 29.52 21.27C30.2133 20.9904 30.939 20.7989 31.68 20.7L32.68 20.55C32.3885 19.9807 32.199 19.3647 32.12 18.73C32.0023 17.7776 32.0979 16.8109 32.4 15.9C32.4 15.85 32.5 15.81 32.56 15.76C32.62 15.71 32.64 15.9 32.63 15.97C32.5049 16.7336 32.5252 17.514 32.69 18.27C32.8485 19.0106 33.1926 19.6988 33.69 20.27C33.7236 20.3203 33.7701 20.3608 33.8246 20.3872C33.8791 20.4135 33.9396 20.4249 34 20.42C34.55 20.36 35.1 20.33 35.64 20.28C36.18 20.23 36.92 20.19 37.55 20.09C38.1579 19.9896 38.7435 19.7831 39.28 19.48L38.17 19H38.29H39.66C39.95 19 40.03 18.95 40.09 18.66C40.1146 18.5819 40.1146 18.4981 40.09 18.42C40.0315 18.0941 39.9376 17.7755 39.81 17.47Z" fill="white"></path><path d="M35.79 25C35.7539 24.9707 35.7291 24.9296 35.72 24.884C35.7108 24.8384 35.7179 24.791 35.74 24.75C35.82 24.5264 35.877 24.2952 35.91 24.06C35.9635 23.7075 35.9264 23.3473 35.8022 23.0131C35.6779 22.679 35.4707 22.3819 35.2 22.15L35.06 22.36C34.5622 23.1275 33.9365 23.804 33.21 24.36C32.578 24.8504 31.8309 25.1705 31.04 25.29C30.1417 25.3944 29.2341 25.1974 28.46 24.73L28.22 24.6C28.22 24.66 28.22 24.69 28.22 24.72C28.22 24.75 28.22 24.96 28.22 25.08C28.38 25.82 28.56 26.49 29.46 26.74C30.6537 27.0691 31.895 27.1909 33.13 27.1C34.2364 26.952 35.3616 27.1511 36.35 27.67C36.5359 27.3065 36.6024 26.8935 36.54 26.49C36.4576 25.9253 36.1944 25.4026 35.79 25Z" fill="white"></path></svg> 