<?xml version="1.0" encoding="UTF-8"?> <svg xmlns="http://www.w3.org/2000/svg" width="66" height="33" viewBox="0 0 66 33" fill="none"><rect width="66" height="33" fill="#257470"></rect><path d="M46.0231 4C46.0231 3.94 46.0231 3.88 46.073 3.91C46.4689 3.94509 46.8672 3.94509 47.2631 3.91C47.6166 3.84587 47.945 3.6833 48.2103 3.44096C48.4756 3.19862 48.6672 2.88634 48.7631 2.54C48.7631 2.47 48.813 2.4 48.833 2.34V1.61C48.6986 1.08267 48.37 0.625537 47.913 0.33C47.6831 0.2 47.4331 0.11 47.1931 0H46.4431L46.1931 0.1C45.7083 0.261073 45.3036 0.601514 45.0618 1.0515C44.8201 1.50148 44.7597 2.02691 44.8931 2.52C44.8931 2.6 44.9431 2.68 44.9731 2.8C36.9908 3.55373 28.9553 3.55373 20.9731 2.8C21.0136 2.37095 21.0136 1.93905 20.9731 1.51C20.9016 1.16294 20.733 0.843331 20.4869 0.58839C20.2408 0.333449 19.9274 0.153673 19.5831 0.07L19.3831 0H18.6431C18.4231 0.1 18.1831 0.18 18.0231 0.3C17.6077 0.545203 17.295 0.932238 17.1425 1.3898C16.9899 1.84737 17.0079 2.34464 17.1931 2.79C17.3843 3.22407 17.7237 3.57601 18.1505 3.783C18.5773 3.98999 19.0638 4.03855 19.5231 3.92L19.8231 3.84C20.5831 11.852 20.5831 19.918 19.8231 27.93C19.3606 27.7458 18.8473 27.7343 18.3771 27.8978C17.907 28.0612 17.5115 28.3886 17.2631 28.82C17.0441 29.2036 16.9583 29.6489 17.019 30.0865C17.0797 30.524 17.2836 30.9291 17.5988 31.2385C17.914 31.548 18.3227 31.7444 18.7613 31.7972C19.1998 31.8499 19.6435 31.7559 20.0231 31.53C20.4419 31.2778 20.7575 30.8848 20.9132 30.4213C21.0689 29.9578 21.0547 29.454 20.8731 29C28.905 28.2369 36.9911 28.2369 45.0231 29C44.8433 29.4907 44.8433 30.0293 45.0231 30.52C45.1688 30.8962 45.4249 31.2196 45.7577 31.4476C46.0906 31.6756 46.4846 31.7977 46.8881 31.7977C47.2915 31.7977 47.6855 31.6756 48.0184 31.4476C48.3512 31.2196 48.6073 30.8962 48.753 30.52L48.8731 30.2V29.46C48.7473 28.9501 48.4465 28.5006 48.0231 28.19C47.7329 27.992 47.3972 27.8708 47.0475 27.8375C46.6978 27.8043 46.3453 27.8602 46.0231 28C45.9631 27.29 45.8931 26.6 45.8531 25.92C45.8531 25.44 45.663 25.19 45.3431 25.2C45.0231 25.21 44.863 25.46 44.903 25.97C44.9431 26.48 44.973 26.81 44.993 27.21L41.653 23.84L44.5931 20.89C44.643 21.77 44.6831 22.66 44.733 23.56C44.7178 23.6896 44.7178 23.8204 44.733 23.95C44.7547 24.0532 44.8135 24.1449 44.8983 24.2076C44.9831 24.2703 45.088 24.2996 45.1931 24.29C45.304 24.288 45.4104 24.245 45.4916 24.1693C45.5728 24.0936 45.6232 23.9906 45.6331 23.88C45.638 23.8068 45.638 23.7332 45.6331 23.66C45.5631 20.83 45.423 18 45.4331 15.16C45.4331 12.62 45.573 10.08 45.6831 7.54C45.7631 6.33 45.8931 5.18 46.0231 4ZM46.8631 0.9C47.132 0.919942 47.3837 1.03977 47.5688 1.23592C47.7538 1.43208 47.8588 1.69037 47.8631 1.96C47.8627 2.17213 47.7987 2.37928 47.6794 2.55466C47.56 2.73004 47.3908 2.86557 47.1936 2.94373C46.9964 3.02189 46.7803 3.03908 46.5732 2.99308C46.3661 2.94708 46.1776 2.84 46.032 2.68569C45.8864 2.53139 45.7905 2.33696 45.7567 2.12755C45.7228 1.91814 45.7525 1.70338 45.842 1.51105C45.9315 1.31873 46.0767 1.15768 46.2587 1.04875C46.4407 0.939808 46.6513 0.887993 46.8631 0.9ZM19.0231 3C18.7534 2.99574 18.4951 2.89077 18.299 2.70572C18.1028 2.52067 17.983 2.26893 17.9631 2C17.9656 1.71873 18.0778 1.44956 18.2758 1.24973C18.4737 1.04991 18.7418 0.935197 19.0231 0.93C19.2821 0.948575 19.5258 1.0599 19.7095 1.24356C19.8932 1.42722 20.0045 1.67093 20.0231 1.93C20.0286 2.20347 19.9272 2.46829 19.7404 2.66813C19.5536 2.86796 19.2963 2.98703 19.0231 3ZM19.0231 30.85C18.7533 30.8277 18.5014 30.7058 18.3166 30.508C18.1317 30.3102 18.0271 30.0507 18.0231 29.78C18.0252 29.5107 18.1297 29.2523 18.3154 29.0573C18.5012 28.8622 18.7542 28.7452 19.0231 28.73C19.3042 28.73 19.5738 28.8417 19.7726 29.0405C19.9714 29.2393 20.0831 29.5089 20.0831 29.79C20.0831 30.0711 19.9714 30.3407 19.7726 30.5395C19.5738 30.7383 19.3042 30.85 19.0231 30.85ZM46.8631 28.73C47.0743 28.7343 47.2794 28.8017 47.4521 28.9234C47.6248 29.0451 47.7571 29.2157 47.8322 29.4131C47.9073 29.6106 47.9216 29.826 47.8734 30.0317C47.8252 30.2374 47.7166 30.424 47.5615 30.5676C47.4065 30.7111 47.2121 30.805 47.0033 30.8373C46.7946 30.8696 46.5809 30.8388 46.3897 30.7488C46.1986 30.6587 46.0387 30.5137 45.9306 30.3321C45.8225 30.1506 45.7711 29.9409 45.7831 29.73C45.8007 29.4602 45.9199 29.2072 46.1165 29.0217C46.3131 28.8362 46.5727 28.7319 46.8431 28.73H46.8631ZM44.173 3.85L40.833 7.19L37.8831 4.25L44.173 3.85ZM42.2231 10.37C42.0518 10.3031 41.8642 10.2902 41.6854 10.3331C41.5066 10.376 41.3453 10.4726 41.2231 10.61L40.7231 11.14C40.2831 10.27 40.793 9.51 40.903 8.75L44.0231 11.91L42.4531 13.48C42.5231 13.08 42.6031 12.65 42.663 12.21C42.723 11.77 42.743 11.6 42.753 11.29C42.7737 11.1003 42.7334 10.9089 42.6382 10.7435C42.5429 10.5781 42.3975 10.4473 42.2231 10.37ZM34.403 19.27C33.8007 19.4003 33.1886 19.4806 32.5731 19.51C32.3431 19.51 32.133 19.51 32.0131 19.77C31.9688 19.8694 31.9556 19.9799 31.9752 20.087C31.9948 20.1941 32.0464 20.2927 32.1231 20.37C32.6262 20.9836 32.9391 21.7309 33.0231 22.52C33.0507 22.8812 33.0057 23.2443 32.8906 23.5879C32.7755 23.9314 32.5927 24.2483 32.3531 24.52C31.7028 24.0454 31.1945 23.4023 30.883 22.66C30.6514 22.1218 30.4609 21.5669 30.3131 21C30.2884 20.8578 30.2204 20.7268 30.1183 20.6247C30.0163 20.5227 29.8852 20.4547 29.7431 20.43C28.5043 20.2025 27.3658 19.5984 26.4831 18.7L26.3231 18.51L26.2431 18.38C26.5392 18.1135 26.8919 17.9174 27.2747 17.8066C27.6574 17.6957 28.0603 17.673 28.4531 17.74C29.1528 17.8461 29.8119 18.136 30.3631 18.58C30.4392 18.6646 30.5397 18.7236 30.6508 18.7486C30.7618 18.7737 30.8779 18.7637 30.9831 18.72C31.2231 18.6 31.2431 18.38 31.2431 18.14C31.2866 16.6474 31.6952 15.1882 32.4331 13.89C33.063 12.7 33.803 11.58 34.503 10.44C34.566 10.3351 34.6558 10.2488 34.7631 10.19C36.2817 9.4051 37.9548 8.96464 39.663 8.9C39.7192 8.88967 39.7769 8.88967 39.833 8.9C39.753 9.28 39.643 9.66 39.5931 10.05C39.5424 10.4201 39.5764 10.7969 39.6925 11.152C39.8085 11.5071 40.0036 11.8312 40.2631 12.1C40.3056 12.166 40.3641 12.2204 40.4331 12.258C40.5021 12.2956 40.5795 12.3153 40.6581 12.3153C40.7366 12.3153 40.814 12.2956 40.883 12.258C40.952 12.2204 41.0105 12.166 41.0531 12.1C41.2931 11.86 41.5131 11.61 41.743 11.37H41.8431C41.743 11.94 41.6631 12.51 41.5531 13.08C41.3428 14.0337 41.0065 14.9551 40.5531 15.82C40.5058 15.9339 40.43 16.0338 40.333 16.11C38.5695 17.5221 36.5586 18.5936 34.403 19.27ZM38.5231 18.55C38.3957 19.2691 38.0459 19.9301 37.5231 20.44C37.5231 20.44 37.3231 20.44 37.3031 20.39C37.1831 20.08 37.083 19.77 36.993 19.45C36.9938 19.4191 37.0013 19.3887 37.0152 19.3611C37.029 19.3334 37.0488 19.3091 37.073 19.29L38.5231 18.55ZM36.1231 19.79C36.1231 19.85 36.123 19.94 36.073 19.98C35.9674 20.1039 35.8538 20.2208 35.733 20.33L34.0231 22.1L33.4431 20.51L35.983 19.78C36.0231 19.76 36.0231 19.79 36.1231 19.79ZM25.0231 16.62L25.8731 17.49L25.3631 17.94C25.3088 17.9804 25.2631 18.0311 25.2286 18.0894C25.1941 18.1476 25.1716 18.2121 25.1623 18.2791C25.153 18.3461 25.1571 18.4143 25.1744 18.4797C25.1917 18.5451 25.2218 18.6064 25.2631 18.66C25.74 19.4244 26.4044 20.0543 27.1931 20.49L27.3931 20.61L24.9531 23.05L21.7731 19.85L25.0231 16.62ZM21.3331 18.84V13L24.2531 15.92L21.3331 18.84ZM29.9431 13.59C30.0181 13.673 30.0638 13.7784 30.0731 13.89C30.0864 14.7569 30.2005 15.6194 30.4131 16.46C30.4383 16.7713 30.418 17.0845 30.3531 17.39C29.7831 17.21 29.2731 17.01 28.7331 16.88C28.1631 16.759 27.5706 16.8006 27.0231 17C26.9553 17.0332 26.878 17.0413 26.8048 17.023C26.7316 17.0047 26.6672 16.9611 26.6231 16.9L25.7031 15.98L29.0231 12.64C29.3131 13 29.633 13.26 29.9431 13.59ZM29.7231 11.93L30.5331 11.11L30.1931 12.48L29.7231 11.93ZM31.0231 14.51C31.0361 13.9215 31.0795 13.334 31.1531 12.75C31.3677 11.3169 31.9008 9.95007 32.713 8.75C32.7945 8.6476 32.9014 8.56831 33.0231 8.52C33.3859 8.45876 33.7572 8.46963 34.1158 8.55199C34.4744 8.63435 34.8133 8.78659 35.1131 9C35.0231 9 35.0231 9.06 35.0231 9.07C34.3174 9.32375 33.7276 9.82469 33.3631 10.48C32.5323 11.7103 31.8128 13.0121 31.213 14.37C31.213 14.43 31.1631 14.48 31.1431 14.53L31.0231 14.51ZM40.0231 8C38.7964 8.01055 37.5775 8.19574 36.403 8.55C36.313 8.55 36.1831 8.55 36.1231 8.55C35.5068 8.06978 34.7882 7.73788 34.0231 7.58L36.8431 4.76L40.0231 8ZM35.7931 4.31L32.883 7.21L30.0231 4.31H35.7931ZM32.1431 8C31.2231 9.18 30.0231 10.15 28.9531 11.32L27.9531 10.32C27.8796 10.2244 27.7721 10.1608 27.653 10.1421C27.5339 10.1235 27.4122 10.1514 27.3131 10.22C27.2532 10.2614 27.2043 10.3167 27.1706 10.3811C27.1368 10.4456 27.1192 10.5172 27.1192 10.59C27.1192 10.6628 27.1368 10.7344 27.1706 10.7989C27.2043 10.8633 27.2532 10.9186 27.3131 10.96L28.3131 11.89L25.0231 15.15L21.7731 11.94L25.0231 8.65C25.2731 8.92 25.5531 9.22 25.8431 9.51C26.133 9.8 26.383 9.81 26.5931 9.59C26.8031 9.37 26.7731 9.12 26.5131 8.86C26.253 8.6 25.963 8.28 25.6831 8L28.9431 4.72L32.1431 8ZM28.0231 4.25L25.0231 7.25L21.6031 3.84L28.0231 4.25ZM24.2131 8L21.2731 10.9L20.8731 4.61L24.2131 8ZM20.8731 27.2L21.2731 20.83L24.2731 23.83L20.8731 27.2ZM21.6331 27.93L25.0231 24.56L28.0231 27.56L21.6331 27.93ZM25.7331 23.73L28.3031 21.17C28.3031 21.17 28.423 21.08 28.463 21.1C28.764 21.1714 29.061 21.2582 29.3531 21.36C29.3531 21.36 29.423 21.45 29.4431 21.51C29.7262 22.7338 30.3263 23.8615 31.1831 24.78L28.9531 27L25.7331 23.73ZM30.0231 27.47L32.0231 25.47C32.6931 25.95 32.903 25.23 33.253 24.91L35.8031 27.47H30.0231ZM36.4531 26.68L34.0231 24.21C33.9668 24.165 33.9213 24.108 33.8901 24.0431C33.8589 23.9781 33.8427 23.907 33.8427 23.835C33.8427 23.763 33.8589 23.6919 33.8901 23.6269C33.9213 23.562 33.9668 23.505 34.0231 23.46C34.8631 22.6 35.713 21.76 36.573 20.91C36.6864 21.1132 36.863 21.2739 37.0759 21.3677C37.2889 21.4616 37.5266 21.4834 37.753 21.43C37.8226 21.4306 37.8897 21.4554 37.9431 21.5L40.233 23.77L36.823 27.1C36.713 27 36.5931 26.82 36.4531 26.68ZM44.2231 27.93L37.8931 27.53L40.8931 24.53L44.2231 27.93ZM40.823 23.09L38.5631 20.83C38.8123 20.3865 39.036 19.9291 39.233 19.46C39.3655 19.0165 39.4724 18.5658 39.5531 18.11C39.5531 18.02 39.6131 17.89 39.6931 17.84C40.153 17.5 40.6231 17.19 41.0631 16.89L44.0631 19.89L40.823 23.09ZM44.503 18.8L41.6131 15.9C41.728 15.7279 41.855 15.5642 41.993 15.41C42.803 14.58 43.633 13.76 44.503 12.89V18.8ZM44.5531 10.94L41.6131 8L44.9631 4.65L44.5531 10.94Z" fill="white"></path></svg> 