<?xml version="1.0" encoding="UTF-8"?> <svg xmlns="http://www.w3.org/2000/svg" width="66" height="33" viewBox="0 0 66 33" fill="none"><rect width="66" height="33" fill="#257470"></rect><g clip-path="url(#clip0_6_155)"><path d="M36.62 13.36C37.55 12.59 37.88 11.96 36.87 10.94C32.22 6.25 25.94 5.71 20.61 9.6C20.27 9.85 19.9 10.06 19.45 10.35C18.6964 9.49552 17.8987 8.68107 17.06 7.91C16.8608 7.7475 16.6297 7.62879 16.3815 7.56159C16.1334 7.4944 15.8739 7.48022 15.62 7.52C15.33 7.61 15.05 8.31 15 8.74C15 11.12 14.94 13.51 15 15.89C15.0266 16.1472 15.1072 16.3959 15.2364 16.6199C15.3657 16.8439 15.5406 17.0382 15.75 17.19C16 17.34 16.69 17.03 17 16.73C18 15.85 18.8 14.88 19.7 13.92C26 17.9 31.47 17.65 36.62 13.36ZM21.15 12.07C24.51 8.09 30.43 8 34.83 12C30.51 15.68 24.56 15.67 21.15 12.07Z" fill="white"></path><path d="M50.82 15.87C50.8143 15.612 50.7523 15.3584 50.6383 15.127C50.5243 14.8955 50.361 14.6917 50.16 14.53C49.9063 14.498 49.6487 14.5237 49.4063 14.605C49.1639 14.6864 48.943 14.8214 48.76 15C48.0533 15.7134 47.3856 16.4645 46.76 17.25L40.43 14.46C40.55 13.78 40.66 13.07 40.79 12.36C40.92 11.65 41.13 10.84 41.22 10.08C41.1952 9.45085 41.3492 8.82754 41.6643 8.28239C41.9793 7.73724 42.4425 7.29258 43 7C44.6 6.14 44.8 3.78 43.7 2.31C43.1473 1.59479 42.3367 1.12425 41.4415 0.999039C40.5463 0.873828 39.6377 1.10388 38.91 1.64C37.42 2.74 36.91 5.12 38.22 6.31C39.53 7.5 39.3 8.83 39 10.31C38.7 11.79 38.48 13.24 38.32 14.13C35.62 15.51 33.27 16.67 31 18C29.82 18.67 29.68 19.65 30.88 20.48C32.67 21.74 34.51 22.91 36.53 24.25L36.3 25.5C36.2344 26.1353 36.0425 26.7511 35.7355 27.3111C35.4285 27.8711 35.0126 28.3641 34.5122 28.761C34.0119 29.1579 33.4372 29.4508 32.822 29.6223C32.2068 29.7939 31.5635 29.8407 30.93 29.76C28.3 29.45 26.6 27.17 26.93 24.23C27.11 22.59 27.49 20.96 27.74 19.32C27.95 17.94 27.32 17.43 26.04 17.97C25.0029 18.3882 23.9999 18.8863 23.04 19.46C22.8504 19.5904 22.692 19.7611 22.5762 19.96C22.4604 20.1588 22.3899 20.3808 22.37 20.61C22.37 20.88 22.88 21.26 23.24 21.41C23.8479 21.6111 24.4695 21.7682 25.1 21.88C24.39 27.54 25.99 30.96 29.93 31.6C31.6115 31.8173 33.3204 31.5682 34.87 30.88C37.62 29.64 38.3 26.88 38.54 24.68L47.03 21.24C47.5653 21.8594 48.1363 22.4471 48.74 23C49.1 23.32 49.74 23.65 50.12 23.5C50.3293 23.3484 50.5006 23.1502 50.6203 22.9212C50.74 22.6921 50.805 22.4384 50.81 22.18C50.89 20.06 50.8933 17.9567 50.82 15.87ZM39.07 4.27C39.072 3.93025 39.1745 3.59869 39.3647 3.31716C39.5549 3.03562 39.8242 2.81672 40.1387 2.68807C40.4531 2.55942 40.7987 2.52678 41.1316 2.59428C41.4646 2.66177 41.7702 2.82636 42.0097 3.0673C42.2493 3.30824 42.4121 3.61473 42.4776 3.9481C42.5432 4.28147 42.5086 4.6268 42.3781 4.9405C42.2476 5.25421 42.0272 5.52225 41.7445 5.71081C41.4619 5.89936 41.1298 5.99999 40.79 6C40.5633 6 40.3388 5.95518 40.1295 5.86812C39.9201 5.78106 39.7301 5.65347 39.5702 5.49269C39.4104 5.33191 39.2839 5.14112 39.198 4.93128C39.1122 4.72145 39.0687 4.49671 39.07 4.27ZM32.81 19.27C36.72 16.01 41.91 16.01 45.05 19.27C44.2639 20.1048 43.3151 20.7698 42.2622 21.2241C41.2093 21.6783 40.0745 21.9122 38.9278 21.9113C37.7811 21.9103 36.6467 21.6746 35.5946 21.2186C34.5424 20.7627 33.5948 20.0961 32.81 19.26V19.27Z" fill="white"></path></g><defs><clipPath id="clip0_6_155"><rect width="35.87" height="30.64" fill="white" transform="translate(15 1)"></rect></clipPath></defs></svg> 