<?xml version="1.0" encoding="UTF-8"?> <svg xmlns="http://www.w3.org/2000/svg" width="66" height="33" viewBox="0 0 66 33" fill="none"><rect width="66" height="33" fill="#257470"></rect><path d="M28.71 19.2253L31.71 25.7453C31.7991 25.9575 31.9532 26.136 32.15 26.2553C32.2758 26.3266 32.4156 26.3698 32.5598 26.3819C32.7039 26.3939 32.849 26.3746 32.9849 26.3252C33.1209 26.2757 33.2445 26.1974 33.3472 26.0955C33.45 25.9937 33.5294 25.8708 33.58 25.7353C35.5 21.5486 37.4167 17.3553 39.33 13.1553C39.8582 12.0611 40.1544 10.8694 40.2 9.65527C40.14 9.17527 40.12 8.65527 40.02 8.19527C39.8233 7.13007 39.4002 6.11949 38.7795 5.2318C38.1587 4.34411 37.3547 3.59998 36.4217 3.04967C35.4887 2.49937 34.4484 2.1557 33.3712 2.0419C32.294 1.92809 31.2049 2.04679 30.1775 2.38998C29.1501 2.73318 28.2083 3.29286 27.4157 4.03124C26.6232 4.76962 25.9983 5.66949 25.5833 6.67007C25.1684 7.67064 24.973 8.74862 25.0104 9.83119C25.0477 10.9138 25.317 11.9757 25.8 12.9453L28.71 19.2253ZM32.63 5.96527C33.268 5.96922 33.8905 6.16201 34.419 6.51932C34.9475 6.87663 35.3584 7.38245 35.5998 7.973C35.8412 8.56354 35.9023 9.21234 35.7755 9.83758C35.6486 10.4628 35.3394 11.0365 34.8869 11.4862C34.4344 11.9359 33.8588 12.2416 33.2328 12.3646C32.6068 12.4876 31.9584 12.4225 31.3693 12.1774C30.7803 11.9324 30.277 11.5184 29.923 10.9877C29.5689 10.4569 29.38 9.83325 29.38 9.19527C29.3813 8.76978 29.4664 8.34873 29.6304 7.95613C29.7945 7.56354 30.0342 7.2071 30.336 6.90717C30.6378 6.60723 30.9957 6.36968 31.3893 6.20807C31.7829 6.04646 32.2045 5.96395 32.63 5.96527V5.96527Z" fill="white"></path><path d="M42.55 25.6553C42.2695 25.3198 41.9544 25.0148 41.61 24.7453C40.5606 23.9752 39.3669 23.4243 38.1 23.1253C37.5 22.9553 36.89 22.8353 36.28 22.6953L35.54 24.3153L35.99 24.3953C37.1777 24.5665 38.3356 24.9031 39.43 25.3953C40.0947 25.6747 40.689 26.0982 41.17 26.6353C41.3954 26.8668 41.5216 27.1771 41.5216 27.5003C41.5216 27.8234 41.3954 28.1337 41.17 28.3653C41.0774 28.4879 40.9736 28.6017 40.86 28.7053C40.2725 29.2195 39.5942 29.6197 38.86 29.8853C36.995 30.583 35.0213 30.9453 33.03 30.9553C31.7883 30.9873 30.5462 30.9036 29.32 30.7053C28.0773 30.5158 26.8683 30.1487 25.73 29.6153C25.1024 29.3445 24.5449 28.9341 24.1 28.4153C23.9806 28.2988 23.8857 28.1596 23.8209 28.0059C23.756 27.8522 23.7226 27.6871 23.7226 27.5203C23.7226 27.3535 23.756 27.1883 23.8209 27.0346C23.8857 26.8809 23.9806 26.7417 24.1 26.6253C24.4573 26.2157 24.8881 25.8765 25.37 25.6253C26.4609 25.0622 27.6309 24.6677 28.84 24.4553L29.72 24.3053L29.03 22.7153L28.43 22.8253C27.1038 23.0651 25.8223 23.5069 24.63 24.1353C23.7881 24.5419 23.0649 25.1583 22.53 25.9253C22.1028 26.5212 21.9235 27.2598 22.03 27.9853C22.1688 28.6658 22.5187 29.2852 23.03 29.7553C23.6665 30.3935 24.4203 30.9029 25.25 31.2553C27.27 32.1155 29.4351 32.5838 31.63 32.6353C33.1446 32.7122 34.6631 32.6284 36.16 32.3853C37.4949 32.1839 38.7965 31.8038 40.03 31.2553C40.9683 30.8694 41.8037 30.2702 42.47 29.5053C42.9462 28.9815 43.2166 28.303 43.2313 27.5953C43.246 26.8875 43.004 26.1984 42.55 25.6553V25.6553Z" fill="white"></path><path d="M30.4201 25.7653C30.2601 25.4053 30.0901 25.0353 29.9201 24.6753C29.9036 24.6506 29.8813 24.6304 29.8551 24.6164C29.8289 24.6025 29.7997 24.5952 29.7701 24.5953C29 24.6911 28.2424 24.8688 27.5101 25.1253C26.9308 25.2948 26.4021 25.6038 25.9701 26.0253C25.731 26.253 25.5892 26.5643 25.5743 26.8942C25.5594 27.224 25.6725 27.5469 25.8901 27.7953C26.1039 28.0354 26.3535 28.2412 26.6301 28.4053C27.1728 28.7088 27.76 28.9248 28.3701 29.0453C29.5698 29.3296 30.7972 29.4805 32.0301 29.4953C33.7468 29.5695 35.4652 29.3909 37.1301 28.9653C37.8118 28.8217 38.4579 28.5429 39.0301 28.1453C39.2198 28.0194 39.3755 27.8485 39.4832 27.6478C39.5909 27.4472 39.6472 27.223 39.6472 26.9953C39.6472 26.7675 39.5909 26.5434 39.4832 26.3427C39.3755 26.142 39.2198 25.9711 39.0301 25.8453C38.7624 25.6291 38.4663 25.4507 38.1501 25.3153C37.315 24.9649 36.4375 24.7262 35.5401 24.6053C35.4201 24.6053 35.3701 24.6053 35.3201 24.7353C35.1901 25.0453 35.0401 25.3553 34.9001 25.6653C34.8957 25.7085 34.8957 25.752 34.9001 25.7953L35.9001 25.9653C36.5949 26.0666 37.2697 26.2758 37.9001 26.5853C38.0801 26.6853 38.24 26.8153 38.43 26.9453C38.3593 27.0214 38.2823 27.0917 38.2001 27.1553C37.9744 27.3014 37.7369 27.4285 37.4901 27.5353C36.4811 27.9054 35.423 28.1244 34.35 28.1853C32.6268 28.3422 30.8901 28.2581 29.1901 27.9353C28.5622 27.8238 27.953 27.6252 27.3801 27.3453C27.2101 27.2453 27.0501 27.1153 26.8601 26.9753C27.3503 26.5403 27.9535 26.2526 28.6001 26.1453C29.1701 25.9853 29.8001 25.8853 30.4201 25.7653Z" fill="white"></path></svg> 