<?xml version="1.0" encoding="UTF-8"?> <svg xmlns="http://www.w3.org/2000/svg" width="66" height="33" viewBox="0 0 66 33" fill="none"><rect width="66" height="33" fill="#257470"></rect><path d="M48.02 16.3077C48.1268 18.4094 47.8051 20.5109 47.0743 22.4844C46.3436 24.4579 45.2191 26.2621 43.7693 27.7875C42.3195 29.3129 40.5746 30.5274 38.6408 31.3574C36.7069 32.1873 34.6244 32.6153 32.52 32.6153C30.4156 32.6153 28.3331 32.1873 26.3992 31.3574C24.4654 30.5274 22.7205 29.3129 21.2707 27.7875C19.8209 26.2621 18.6964 24.4579 17.9657 22.4844C17.2349 20.5109 16.9132 18.4094 17.02 16.3077C16.9132 14.2059 17.2349 12.1044 17.9657 10.1309C18.6964 8.15744 19.8209 6.35316 21.2707 4.82781C22.7205 3.30245 24.4654 2.08788 26.3992 1.25793C28.3331 0.427983 30.4156 0 32.52 0C34.6244 0 36.7069 0.427983 38.6408 1.25793C40.5746 2.08788 42.3195 3.30245 43.7693 4.82781C45.2191 6.35316 46.3436 8.15744 47.0743 10.1309C47.8051 12.1044 48.1268 14.2059 48.02 16.3077ZM33.65 4.24765C33.66 4.41751 33.66 4.5878 33.65 4.75765C33.6432 5.01299 33.5538 5.25923 33.3951 5.45939C33.2364 5.65954 33.0171 5.80281 32.77 5.86765C32.5486 5.91651 32.3172 5.8887 32.1137 5.78876C31.9102 5.68883 31.7467 5.52271 31.65 5.31765C31.5493 5.0862 31.4884 4.83939 31.47 4.58765C31.47 4.23765 31.41 4.19765 31.06 4.24765C30.71 4.29766 30.4 4.35765 30.06 4.42765C27.4221 4.99624 25.0458 6.41994 23.3 8.47765C22.048 9.96821 21.1642 11.7324 20.72 13.6277C20.59 14.1377 20.52 14.6277 20.43 15.1677C20.7431 15.2104 21.0536 15.2705 21.36 15.3477C21.5819 15.4024 21.7783 15.5315 21.9166 15.7134C22.0549 15.8954 22.1267 16.1192 22.12 16.3477C22.1034 16.5863 22.0095 16.813 21.8525 16.9934C21.6955 17.1739 21.484 17.2982 21.25 17.3477C21 17.3977 20.74 17.4177 20.49 17.4477C20.741 20.2688 21.9714 22.9132 23.9677 24.9223C25.9641 26.9314 28.6005 28.1786 31.42 28.4477C31.4565 28.1409 31.5133 27.8369 31.59 27.5377C31.6602 27.2967 31.8185 27.091 32.0334 26.9613C32.2483 26.8316 32.5041 26.7875 32.75 26.8377C33.027 26.8975 33.2724 27.0567 33.4401 27.2852C33.6077 27.5136 33.6859 27.7955 33.66 28.0777C33.66 28.4777 33.66 28.4777 34.05 28.4377C34.18 28.4377 34.31 28.4377 34.44 28.3777C37.0905 27.9622 39.5281 26.6784 41.37 24.7277C42.7817 23.2664 43.7911 21.4647 44.3 19.4977C44.46 18.8477 44.58 18.1877 44.74 17.4977C43.9 17.4477 43.11 17.4077 43.03 16.3977C43.0428 16.1384 43.1373 15.8899 43.3 15.6877C43.64 15.2377 44.18 15.2877 44.67 15.2477C44.4063 12.416 43.16 9.76593 41.1472 7.75682C39.1345 5.74771 36.4821 4.50625 33.65 4.24765Z" fill="white"></path><path d="M30.31 16.2477C30.304 15.954 30.3648 15.6627 30.4878 15.396C30.6108 15.1292 30.7928 14.8938 31.02 14.7077C31.1618 14.5842 31.2733 14.4298 31.3462 14.2564C31.419 14.0831 31.4511 13.8954 31.44 13.7077C31.44 12.3577 31.58 11.0077 31.66 9.70766C31.66 9.14766 31.74 8.57765 31.8 8.01765C31.7972 7.81151 31.8752 7.61245 32.0172 7.46298C32.1592 7.3135 32.354 7.22547 32.56 7.21765C32.7658 7.2169 32.9645 7.29362 33.1164 7.43257C33.2683 7.57152 33.3624 7.76253 33.38 7.96765C33.46 8.84099 33.52 9.71099 33.56 10.5777C33.62 11.7477 33.65 12.9177 33.71 14.0777C33.7216 14.2249 33.7854 14.3633 33.89 14.4677C34.4537 14.9416 34.8121 15.6153 34.89 16.3477C34.9152 16.4544 34.9708 16.5517 35.05 16.6277L39.02 21.0777C39.18 21.2577 39.32 21.4577 39.47 21.6477C39.5567 21.7498 39.6221 21.8684 39.6621 21.9963C39.7021 22.1243 39.716 22.2589 39.7029 22.3923C39.6899 22.5257 39.6501 22.6551 39.586 22.7729C39.522 22.8906 39.4349 22.9942 39.33 23.0777C39.1537 23.2719 38.9082 23.3892 38.6463 23.4042C38.3845 23.4191 38.1272 23.3306 37.93 23.1577C36.3566 21.791 34.8 20.411 33.26 19.0177C33.0178 18.7759 32.7002 18.6241 32.36 18.5877C31.7817 18.5391 31.2449 18.2681 30.8625 17.8316C30.4801 17.3951 30.282 16.8273 30.31 16.2477Z" fill="white"></path></svg> 