<?xml version="1.0" encoding="UTF-8"?> <svg xmlns="http://www.w3.org/2000/svg" width="66" height="33" viewBox="0 0 66 33" fill="none"><rect width="66" height="33" fill="#257470"></rect><path d="M8.00681 15.3875V24.0775C8.00681 24.3427 8.11216 24.597 8.2997 24.7846C8.48724 24.9721 8.74159 25.0775 9.00681 25.0775H10.7268V26.0775C10.7167 26.234 10.7167 26.391 10.7268 26.5475C10.791 27.1475 10.9766 27.7282 11.2723 28.2542C11.568 28.7803 11.9676 29.2407 12.4468 29.6075C13.2093 30.1904 14.1373 30.516 15.0968 30.5375C15.2324 30.5376 15.3667 30.5102 15.4914 30.4569C15.6161 30.4035 15.7287 30.3253 15.8222 30.2271C15.9157 30.1289 15.9883 30.0127 16.0355 29.8855C16.0827 29.7584 16.1036 29.6229 16.0968 29.4875C16.0968 28.0975 16.0968 26.6975 16.0968 25.3075V25.0875H20.0468V30.5275C20.0387 30.6542 20.0563 30.7813 20.0986 30.901C20.141 31.0207 20.2071 31.1306 20.2931 31.2241C20.3791 31.3175 20.4831 31.3926 20.5989 31.4447C20.7147 31.4969 20.8398 31.525 20.9668 31.5275C21.4031 31.5464 21.8399 31.5094 22.2668 31.4175C22.9508 31.2612 23.5804 30.9247 24.0904 30.4428C24.6003 29.961 24.972 29.3515 25.1668 28.6775C25.1716 28.6471 25.1825 28.6179 25.1988 28.5918C25.2151 28.5657 25.2364 28.5431 25.2616 28.5254C25.2868 28.5076 25.3153 28.4952 25.3454 28.4886C25.3755 28.4821 25.4066 28.4817 25.4368 28.4875C27.0068 28.4875 28.5768 28.4875 30.1368 28.4875C30.2704 28.4963 30.4044 28.4765 30.5297 28.4294C30.655 28.3822 30.7689 28.3089 30.8635 28.2142C30.9582 28.1195 31.0316 28.0057 31.0787 27.8804C31.1258 27.755 31.1456 27.6211 31.1368 27.4875C31.1368 26.8675 31.1368 26.2575 31.1368 25.6375V25.0575H56.1368C56.2265 25.0674 56.3171 25.0674 56.4068 25.0575C56.6596 25.0225 56.8895 24.8923 57.0494 24.6933C57.2093 24.4944 57.2871 24.2419 57.2668 23.9875V14.3775C57.2774 14.2334 57.2567 14.0887 57.206 13.9534C57.1553 13.8181 57.076 13.6953 56.9733 13.5937C56.8707 13.492 56.7472 13.4137 56.6114 13.3643C56.4757 13.3149 56.3308 13.2955 56.1868 13.3075H30.8468V12.3875C30.847 12.2518 30.8196 12.1176 30.7662 11.9929C30.7128 11.8682 30.6347 11.7556 30.5365 11.6621C30.4382 11.5685 30.322 11.496 30.1949 11.4487C30.0677 11.4015 29.9323 11.3807 29.7968 11.3875H26.2968C26.2313 11.3948 26.1652 11.3788 26.1103 11.3422C26.0554 11.3056 26.0152 11.2508 25.9968 11.1875C25.8968 10.9575 25.7868 10.7375 25.6868 10.5175C24.9268 8.89747 24.1668 7.28747 23.4168 5.66747C22.9268 4.66747 22.4168 3.59747 21.9568 2.56747C21.8497 2.38397 21.6868 2.23937 21.492 2.15464C21.2971 2.06992 21.0803 2.04948 20.873 2.09628C20.6657 2.14309 20.4787 2.25471 20.3392 2.41495C20.1996 2.57519 20.1147 2.77573 20.0968 2.98747V3.88747C20.0968 6.95747 20.0968 10.0175 20.0968 13.0875C20.1018 13.1574 20.1018 13.2276 20.0968 13.2975H15.0068V2.98747C15.0026 2.80622 14.9492 2.62952 14.8523 2.47628C14.7555 2.32303 14.6187 2.19901 14.4568 2.11747C14.3345 2.0523 14.2 2.01327 14.0618 2.00284C13.9236 1.99241 13.7848 2.01081 13.6541 2.05688C13.5234 2.10296 13.4037 2.17569 13.3026 2.27047C13.2015 2.36526 13.1212 2.48002 13.0668 2.60747L10.8168 7.71747C10.0068 9.62747 9.13681 11.5275 8.30681 13.4375C8.18021 13.6763 8.08925 13.9323 8.03681 14.1975C8.00173 14.5931 7.99171 14.9906 8.00681 15.3875V15.3875ZM29.2068 26.5275H24.5168C24.3694 26.512 24.2204 26.5294 24.0806 26.5786C23.9408 26.6277 23.8136 26.7073 23.7084 26.8117C23.6031 26.916 23.5223 27.0424 23.4719 27.1818C23.4215 27.3211 23.4027 27.4699 23.4168 27.6175C23.4003 28.02 23.2626 28.4082 23.0217 28.7312C22.7808 29.0542 22.448 29.2969 22.0668 29.4275V23.1175H29.2068V26.5275ZM22.0668 7.52747L22.7268 8.93747L24.5068 12.7475C24.5833 12.947 24.7216 13.1168 24.9016 13.2319C25.0815 13.3471 25.2936 13.4016 25.5068 13.3875H28.7868V15.4475H22.0668V7.52747ZM10.0068 14.6075C9.99649 14.5412 9.99649 14.4737 10.0068 14.4075L12.9068 7.81747V7.75747H13.0068V14.1175C12.982 14.2715 12.9936 14.4292 13.0407 14.5779C13.0877 14.7266 13.1689 14.8623 13.2777 14.974C13.3866 15.0858 13.52 15.1705 13.6675 15.2215C13.8149 15.2724 13.9722 15.2882 14.1268 15.2675H20.1268C20.1268 15.6175 20.1268 15.9575 20.1268 16.2675C20.1145 16.4133 20.1343 16.56 20.1848 16.6973C20.2354 16.8347 20.3155 16.9592 20.4194 17.0622C20.5233 17.1652 20.6486 17.2441 20.7864 17.2934C20.9242 17.3427 21.0711 17.3612 21.2168 17.3475C22.1668 17.3475 23.1168 17.3475 24.0668 17.3475H29.8068C29.9508 17.3594 30.0957 17.34 30.2314 17.2906C30.3672 17.2412 30.4907 17.163 30.5933 17.0613C30.696 16.9596 30.7753 16.8369 30.826 16.7016C30.8767 16.5663 30.8974 16.4216 30.8868 16.2775V15.2775H32.7168V16.1475C32.7168 16.5975 32.7168 17.0575 32.7168 17.5075C32.7069 17.7059 32.7608 17.9022 32.8706 18.0678C32.9803 18.2333 33.1402 18.3594 33.3268 18.4275C33.5095 18.5089 33.7138 18.5285 33.9087 18.4834C34.1036 18.4383 34.2784 18.3309 34.4068 18.1775C34.5503 18.0082 34.6377 17.7986 34.6568 17.5775C34.6568 16.8775 34.6568 16.1775 34.6568 15.4775C34.6521 15.4076 34.6521 15.3374 34.6568 15.2675H37.2968C37.2968 15.6975 37.2968 16.1175 37.2968 16.5375C37.2916 16.6688 37.3122 16.7999 37.3576 16.9232C37.403 17.0465 37.4723 17.1597 37.5614 17.2563C37.6506 17.3529 37.7579 17.4309 37.8772 17.486C37.9965 17.5412 38.1255 17.5722 38.2568 17.5775C38.3881 17.5827 38.5192 17.5621 38.6425 17.5167C38.7659 17.4713 38.8791 17.402 38.9756 17.3129C39.0722 17.2237 39.1503 17.1164 39.2054 16.9971C39.2605 16.8778 39.2916 16.7488 39.2968 16.6175C39.2968 16.2375 39.2968 15.8475 39.2968 15.4675V15.2675H41.9068V17.4975C41.9068 17.7627 42.0122 18.017 42.1997 18.2046C42.3872 18.3921 42.6416 18.4975 42.9068 18.4975C43.172 18.4975 43.4264 18.3921 43.6139 18.2046C43.8015 18.017 43.9068 17.7627 43.9068 17.4975V15.2775H46.5568V15.6175C46.5516 16.035 46.5716 16.4524 46.6168 16.8675C46.6584 17.0927 46.786 17.2928 46.9728 17.4254C47.1595 17.5579 47.3905 17.6125 47.6168 17.5775C47.8312 17.5679 48.0355 17.4837 48.1944 17.3395C48.3533 17.1952 48.4567 17 48.4868 16.7875C48.4868 16.5075 48.4868 16.2175 48.4868 15.9375V15.2975H51.1468V15.4975C51.1468 16.1775 51.1468 16.8575 51.1468 17.4975C51.1468 17.7627 51.2522 18.017 51.4397 18.2046C51.6272 18.3921 51.8816 18.4975 52.1468 18.4975C52.412 18.4975 52.6664 18.3921 52.8539 18.2046C53.0415 18.017 53.1468 17.7627 53.1468 17.4975C53.1468 16.8475 53.1468 16.1975 53.1468 15.4975V15.2875H55.3168V23.1075H31.1668V22.1075C31.1782 21.9508 31.1459 21.794 31.0735 21.6545C31.0011 21.5151 30.8915 21.3984 30.7568 21.3175C30.5754 21.1966 30.3645 21.1275 30.1468 21.1175H21.1468C20.8816 21.1175 20.6272 21.2228 20.4397 21.4104C20.2522 21.5979 20.1468 21.8523 20.1468 22.1175C20.1468 22.4275 20.1468 22.7375 20.1468 23.0675H19.9068C18.3668 23.0675 16.8168 23.0675 15.2768 23.0675C15.1285 23.0517 14.9785 23.0694 14.8379 23.1191C14.6973 23.1688 14.5696 23.2493 14.4641 23.3548C14.3586 23.4602 14.2781 23.588 14.2284 23.7286C14.1787 23.8692 14.1611 24.0192 14.1768 24.1675C14.1768 25.5375 14.1768 26.9175 14.1768 28.3175L14.0068 28.2875C13.606 28.0756 13.2716 27.7571 13.0404 27.3671C12.8092 26.9771 12.6903 26.5308 12.6968 26.0775C12.6968 25.4475 12.6968 24.8175 12.6968 24.1875C12.7076 24.0425 12.6867 23.8968 12.6354 23.7608C12.5842 23.6247 12.5039 23.5014 12.4001 23.3995C12.2963 23.2977 12.1716 23.2197 12.0346 23.1709C11.8976 23.1222 11.7516 23.104 11.6068 23.1175H10.0068V22.5675C10.0068 21.5675 10.0068 20.4975 10.0068 19.4675C10.0068 17.8475 10.0068 16.2275 10.0068 14.6075Z" fill="white"></path></svg> 