<?xml version="1.0" encoding="UTF-8"?> <svg xmlns="http://www.w3.org/2000/svg" width="66" height="34" viewBox="0 0 66 34" fill="none"><rect width="66" height="33" fill="#257470"></rect><path d="M29.27 15.14L29.6 17.63C30.0941 17.4798 30.6044 17.3892 31.12 17.36C31.42 17.36 31.7 17.7 31.99 17.88C31.78 18.11 31.6 18.49 31.35 18.55C29.96 18.88 28.55 19.13 27.14 19.41C26.66 19.5 26.29 19.36 26.14 18.88C25.99 18.4 26.45 18.24 26.85 18.16L28.29 17.86L28 15.31C26.5831 15.2967 25.2257 14.738 24.21 13.75C24.1 13.64 23.69 13.75 23.48 13.84C20.72 15.14 17.98 16.46 15.24 17.77L14.59 18L13 14.23L13.66 14C16.51 13 19.35 12 22.2 11C22.3934 10.9612 22.5653 10.8514 22.6819 10.6923C22.7985 10.5331 22.8513 10.3361 22.83 10.14C22.8503 9.09309 23.2048 8.08009 23.8417 7.24893C24.4785 6.41777 25.3644 5.81197 26.37 5.52C27.3644 5.2059 28.432 5.21056 29.4236 5.53332C30.4152 5.85607 31.281 6.48078 31.9 7.32C32.23 7.78 32.51 7.63 32.9 7.49L50.5 0.06L50.7 0C51.087 0.389501 51.3281 0.900378 51.3827 1.44673C51.4374 1.99308 51.3022 2.54158 51 3C49.71 5.15 48.37 7.27 47 9.39L39.84 20.77C39.7173 20.9019 39.6352 21.0663 39.6032 21.2436C39.5713 21.4209 39.591 21.6036 39.66 21.77C39.9 22.29 39.66 22.7 39.11 23.02C38.2 23.59 37.54 25.59 38.17 26.36C38.3437 26.5785 38.5705 26.7487 38.8288 26.8544C39.0872 26.9601 39.3683 26.9976 39.6453 26.9635C39.9223 26.9294 40.1859 26.8247 40.4108 26.6595C40.6358 26.4943 40.8146 26.2741 40.93 26.02L39.79 25.87L39.71 25.7L42.29 24.28L42.5 24.44C42.1273 25.3264 41.6859 26.1823 41.18 27C40.8611 27.409 40.405 27.6889 39.896 27.7881C39.387 27.8873 38.8592 27.7992 38.41 27.54C37.9407 27.2981 37.5612 26.9122 37.3272 26.4389C37.0933 25.9656 37.0171 25.4298 37.11 24.91C37.2122 24.5152 37.3494 24.1304 37.52 23.76C37.66 23.5367 37.7448 23.2833 37.7674 23.0207C37.79 22.7581 37.7498 22.4939 37.65 22.25C37.54 22 37.85 21.48 38.09 21.17C38.33 20.86 38.88 20.54 39.14 20.17C42.4267 15.1833 45.7033 10.1833 48.97 5.17L49.06 5L45.72 5.12L46 6L45.4 6.29L45 5.07C44.7913 5.59882 44.4783 6.08026 44.0798 6.48569C43.6812 6.89112 43.2052 7.21226 42.68 7.43C42.1793 7.65613 41.639 7.78135 41.09 7.79851C40.5409 7.81567 39.9938 7.72443 39.48 7.53C39.28 7.96 40.22 8.59 39.16 8.89L38.64 8C38.1446 9.02235 37.2792 9.8183 36.2191 10.2267C35.159 10.6352 33.9833 10.6256 32.93 10.2C32.929 11.3067 32.5729 12.3839 31.9141 13.2732C31.2553 14.1624 30.3285 14.8168 29.27 15.14ZM27.78 13.69C27.64 12.69 27.53 11.76 27.38 10.81C27.3 10.34 27.29 9.91 27.87 9.81C28.45 9.71 28.57 10.16 28.64 10.61C28.77 11.53 28.91 12.45 29.04 13.38C29.8214 13.0917 30.4664 12.521 30.8477 11.7805C31.2291 11.0401 31.3191 10.1836 31.1 9.38C30.8515 8.57494 30.3121 7.89128 29.5869 7.46228C28.8618 7.03327 28.0029 6.88967 27.1776 7.05946C26.3524 7.22926 25.6199 7.70028 25.1231 8.38071C24.6262 9.06115 24.4005 9.90223 24.49 10.74C24.5891 11.5464 24.9769 12.2895 25.5818 12.8319C26.1867 13.3743 26.9676 13.6791 27.78 13.69ZM50.62 1.53L45.29 3.76C45.743 4.15281 46.3033 4.40087 46.8987 4.47217C47.494 4.54347 48.0971 4.43474 48.63 4.16C49.1824 3.96394 49.6652 3.61038 50.0188 3.14299C50.3725 2.6756 50.5815 2.11485 50.62 1.53ZM39.05 6.35C39.5549 6.79677 40.1955 7.06046 40.8686 7.09856C41.5417 7.13666 42.2079 6.94694 42.76 6.56C43.2176 6.35064 43.6053 6.01391 43.8766 5.59008C44.1479 5.16625 44.2914 4.67324 44.29 4.17L39.05 6.35ZM32.76 9C33.2668 9.39716 33.8818 9.63168 34.5244 9.67273C35.1669 9.71378 35.8068 9.55944 36.36 9.23C36.8484 9.02796 37.2693 8.69136 37.5738 8.2594C37.8783 7.82743 38.0538 7.31786 38.08 6.79L32.76 9Z" fill="white"></path><path d="M37.8901 33.09C38.13 32.5704 38.2723 32.0111 38.3101 31.44C38.1104 30.8234 37.8133 30.2427 37.4301 29.72C38.3001 30.06 38.9901 30.27 39.6301 30.59C39.9341 30.7655 40.279 30.8579 40.6301 30.8579C40.9811 30.8579 41.326 30.7655 41.6301 30.59C42.5701 30.1 43.5401 29.59 44.4501 29.08C44.8572 28.7602 45.2292 28.3982 45.5601 28C45.1341 27.8014 44.6617 27.7234 44.1945 27.7745C43.7273 27.8257 43.283 28.004 42.9101 28.29C43.1101 26.92 43.5901 26.42 45.5301 25.56L44.7501 23.96L49.7501 22.13C49.8101 22.66 49.8701 23.38 50.0001 24.13C50.0438 24.4603 50.1908 24.7683 50.4201 25.01C51.0626 25.554 51.5479 26.26 51.8258 27.0548C52.1036 27.8495 52.1638 28.7041 52.0001 29.53C51.7201 29.24 51.5201 29.03 51.3101 28.84C51.1198 28.6189 50.8807 28.4452 50.6117 28.3324C50.3427 28.2197 50.0511 28.1712 49.7601 28.1906C49.4691 28.21 49.1865 28.2968 48.9349 28.4442C48.6832 28.5917 48.4693 28.7956 48.3101 29.04C47.3417 30.1867 45.9787 30.9289 44.4901 31.12C43.5625 31.3072 42.6143 31.3711 41.6701 31.31C41.2945 31.265 40.9137 31.3065 40.5566 31.4312C40.1996 31.556 39.8758 31.7608 39.6101 32.03C39.1301 32.44 38.6101 32.81 38.1201 33.2L37.8901 33.09Z" fill="white"></path><path d="M44.48 18.61L45.41 19.19L44.91 17.38C46.6369 18.3638 48.1936 19.6199 49.52 21.1C48.0749 22.2243 46.3417 22.9175 44.52 23.1L44.48 18.61ZM47.53 21C47.53 20.57 47.53 20.2 47.46 20.14C47.2224 20.0454 46.9576 20.0454 46.72 20.14C46.67 20.2375 46.6439 20.3454 46.6439 20.455C46.6439 20.5646 46.67 20.6725 46.72 20.77C46.82 20.9 47.14 20.89 47.53 21Z" fill="white"></path></svg> 