<svg width="133" height="133" viewBox="0 0 133 133" fill="none" xmlns="http://www.w3.org/2000/svg">
<g clip-path="url(#clip0_4_2)">
<path d="M66.08 132.16C102.575 132.16 132.16 102.575 132.16 66.08C132.16 29.585 102.575 0 66.08 0C29.585 0 0 29.585 0 66.08C0 102.575 29.585 132.16 66.08 132.16Z" fill="#699948"/>
<path d="M66.0801 123.56C97.8254 123.56 123.56 97.8249 123.56 66.0796C123.56 34.3343 97.8254 8.59961 66.0801 8.59961C34.3348 8.59961 8.6001 34.3343 8.6001 66.0796C8.6001 97.8249 34.3348 123.56 66.0801 123.56Z" fill="#257470"/>
<rect x="28" y="38" width="76" height="12" rx="6" fill="white"/>
<rect x="28" y="60" width="76" height="12" rx="6" fill="white"/>
<rect x="28" y="82" width="76" height="12" rx="6" fill="white"/>
</g>
<defs>
<clipPath id="clip0_4_2">
<rect width="132.16" height="132.16" fill="white"/>
</clipPath>
</defs>
</svg>
