<svg xmlns="http://www.w3.org/2000/svg" viewBox="0 0 132.16 132.16"><defs><style>.cls-1{fill:#699948;}.cls-2{fill:#257470;}.cls-3{fill:#fff;}</style></defs><g id="Capa_2" data-name="Capa 2"><g id="Layer_1" data-name="Layer 1"><circle class="cls-1" cx="66.08" cy="66.08" r="66.08"/><circle class="cls-2" cx="66.08" cy="66.08" r="57.48"/><path class="cls-3" d="M27.87,65.4A49.92,49.92,0,0,1,39.58,43.59c4.77-5.41,10.2-9.89,17.13-12.28,10.81-3.72,21.63-3.25,32.46-.07,1,.31,2.06.76,3,1.12-1.18,2.26-2.29,4.36-3.39,6.47a.7.7,0,0,1-.2,0c-.26-.06-.52-.14-.78-.22A45.63,45.63,0,0,0,63.57,38c-13.45,3.44-22.67,12-28.52,24.31-2.76,5.86-4.15,12-3.25,18.16C31.49,66.12,38,54.73,49.47,46.32c11.76-8.61,24.9-9.23,38.64-4.91a28.46,28.46,0,0,0,2,19.94,7,7,0,0,1-.92.12c-5.59-.11-11.19-.2-16.79-.34-4-.1-8-.5-11.91-.33-11.18.49-20.06,8.84-22.87,18.55-1.25,4.3-1.49,8.57.41,12.79a10.22,10.22,0,0,0,17.61,1.8c.78-1.11,1.41-2.34,2.16-3.58A8.41,8.41,0,0,1,58,96c-1.22,3.62-4.19,5.37-7.59,6.82a8.86,8.86,0,0,1,3.27,6.73,13.06,13.06,0,0,1-2.44,7.31c-1.7-6.72-4-9.28-8.65-13.44-1.79-1.59-3.6-3.18-5.27-4.89C28.22,89.22,24.86,78.2,27.87,65.4Z"/><path class="cls-3" d="M92.65,60.61a3.36,3.36,0,0,0,.63-.06c7.65-2.11,14.39-5.72,19.64-11.82.49-.58.85-1,.16-1.77a59.84,59.84,0,0,0-17.58-13c-.21-.1-.43-.17-.7-.28C88.92,41.48,88.25,51.45,92.65,60.61Zm3.17-17.2a2.22,2.22,0,0,1,4.43,0,2.22,2.22,0,1,1-4.43,0Z"/><path class="cls-3" d="M39.25,40.29c-.35-5.53-3.28-9-8-11.3a36.27,36.27,0,0,1,17.08-5.45,38.15,38.15,0,0,1,17.38,2.94C55.33,28.05,46.26,32,39.25,40.29Z"/><path class="cls-3" d="M63.77,63l10.75.83C71,71.35,64.16,75.21,58.19,73.68A12.8,12.8,0,0,0,63.77,63Z"/><path class="cls-2" d="M105.43,91q-6-6-12-12l-2.75-2.79-1.4-1.42a3.87,3.87,0,0,0-2.66-1.1A3.69,3.69,0,0,0,84,74.82l0,0-1-1A32.34,32.34,0,0,0,76.42,32C64,21.51,45.15,22,33.56,33a32.41,32.41,0,0,0,18,55.88,31.69,31.69,0,0,0,21-4.69l.95,1a3.67,3.67,0,0,0-1.09,2.46,3.64,3.64,0,0,0,1,2.64l.2.22.42.45,3.38,3.37c3,3,6,6,9,9l1.06,1.08a39.51,39.51,0,0,0,3.55,3.36,10.61,10.61,0,0,0,6.69,2.45,11.1,11.1,0,0,0,4.9-1.18,10.79,10.79,0,0,0,6.26-9.79A11,11,0,0,0,105.43,91Zm-50-16.23h0a17.62,17.62,0,0,1-12.6-5.28,18.05,18.05,0,0,1-5.17-12.82A17.82,17.82,0,0,1,55.51,38.82h.19A17.34,17.34,0,0,1,68,43.88,18.1,18.1,0,0,1,73.34,56.8a17.84,17.84,0,0,1-17.88,18ZM73,75.8a3.7,3.7,0,0,0-1.09.17c.47-.4.92-.82,1.36-1.26s.95-1,1.39-1.51a3.7,3.7,0,0,0,.75,3.5A3.72,3.72,0,0,0,73,75.8Zm26.41,26.65a3.15,3.15,0,0,1-3.76-.4,35,35,0,0,1-2.9-2.76c-.38-.39-.75-.78-1.14-1.16q-4.5-4.48-9-9l-1.21-1.21A3.66,3.66,0,0,0,81.77,83a3.49,3.49,0,0,0,2.32.78,3.69,3.69,0,0,0,2.62-1.17h0l1.5,1.52q6,6,12,12a3.7,3.7,0,0,1,1.34,2.88A3.49,3.49,0,0,1,99.43,102.45Z"/><path class="cls-3" d="M102.84,93.58q-6-6-12-12c-1.38-1.38-2.73-2.77-4.17-4.23L84,80.12l-5.84-5.83a28.87,28.87,0,0,0-4.12-39.5c-11.31-9.51-28-8.59-38,.9A28.67,28.67,0,0,0,73,79.47l5.87,5.81-2.75,2.51.54.57,12.37,12.37a58.54,58.54,0,0,0,4.32,4.17,6.8,6.8,0,0,0,7.67.84,7.12,7.12,0,0,0,4.21-6.59A7.39,7.39,0,0,0,102.84,93.58ZM55.41,78.41A21.63,21.63,0,1,1,77,56.79,21.52,21.52,0,0,1,55.41,78.41Z"/></g></g></svg>