<svg xmlns="http://www.w3.org/2000/svg" viewBox="0 0 132.16 132.16"><defs><style>.cls-1{fill:#699948;}.cls-2{fill:#257470;}.cls-3{fill:#fff;}</style></defs><g id="Capa_2" data-name="Capa 2"><g id="Layer_1" data-name="Layer 1"><circle class="cls-1" cx="66.08" cy="66.08" r="66.08"/><circle class="cls-2" cx="66.08" cy="66.08" r="57.48"/><g id="vDCQtZ"><path class="cls-3" d="M99.41,99.45C82,117.11,51.36,118.3,32.62,99S16,49.64,32.74,33c19.59-19.41,48.91-18,67.35.49C118.34,51.8,117.51,82,99.41,99.45Zm-47-16.64c4.5,2.91,8.72,5.65,13,8.32A1.41,1.41,0,0,0,66.64,91c3.42-3.34,6.77-6.72,10.2-10.15L65.61,69.56Zm28.18-5.37c3.52-3.52,6.9-6.88,10.23-10.29a1.35,1.35,0,0,0,.15-1.26c-2.68-4.23-5.41-8.43-8.23-12.8L69.44,66.34Zm-1.36-27.9-13-8.6-11,11L66,62.73ZM49.24,79.36,62.36,66.24c-3.45-3.45-6.76-6.81-10.16-10.07a1.75,1.75,0,0,0-1.71.12q-4.65,4.47-9.12,9.11a1.89,1.89,0,0,0-.28,1.76C43.71,71.21,46.43,75.19,49.24,79.36ZM37.45,98.23c3.87,2.33,7.3,4.62,10.94,6.51,3.22,1.66,3.32,1.46,5.88-1.09,2.75-2.76,5.51-5.52,8.24-8.24L49.45,86.24ZM86.1,49.64l9.09,13.07c3.33-3.32,6.67-6.64,10-10a1.73,1.73,0,0,0,.35-1.48,40.14,40.14,0,0,0-7.93-13.06ZM34.2,94.34,45.72,82.82,36.83,70c-3.37,3.37-6.71,6.68-10,10a1.75,1.75,0,0,0-.49,1.45A40.34,40.34,0,0,0,34.2,94.34ZM82.42,46.17,94.25,34.35c-2.93-1.93-5.56-3.91-8.4-5.49-5.08-2.81-5.13-2.71-9.17,1.33L74.1,32.77l-4.31,4.31ZM44.05,30.05a4.86,4.86,0,0,0,.78.29A68.41,68.41,0,0,1,64,34.7a1.77,1.77,0,0,0,1.53-.21c3.16-3.07,6.26-6.21,9.74-9.68A42.47,42.47,0,0,0,44.05,30.05ZM107.21,57c-3.3,3.3-6.35,6.28-9.29,9.38a2.61,2.61,0,0,0-.15,2.08c.92,3.29,2.11,6.51,2.89,9.83.74,3.14,1.09,6.37,1.67,9.94A41.36,41.36,0,0,0,107.21,57ZM87.26,102.59a76.68,76.68,0,0,1-19.52-4.71,2.43,2.43,0,0,0-2,.7c-2.69,2.57-5.29,5.22-7.91,7.87a10.56,10.56,0,0,0-.92,1.32A42.12,42.12,0,0,0,87.26,102.59ZM24.56,75.22C27.83,72,30.84,69,33.73,66A2.75,2.75,0,0,0,34,63.75c-.87-3.22-2-6.38-2.79-9.63s-1.1-6.5-1.69-10.13C24,53.89,22.08,64,24.56,75.22Zm13.61-40.3L51.53,48.28,61,38.85A55.31,55.31,0,0,0,38.17,34.92Zm-3.51,3.54a54.13,54.13,0,0,0,4,22.94l9.47-9.48ZM80.3,84.05l-9.5,9.5a55.79,55.79,0,0,0,23,4ZM84,80.73,97.21,94a57.75,57.75,0,0,0-3.85-22.61Z"/></g><path class="cls-2" d="M66.31,59.65a10.28,10.28,0,0,0,0-20.56h0A10.3,10.3,0,0,0,56,49.35a10.28,10.28,0,0,0,10.28,10.3Zm-3-10.28a3,3,0,0,1,3-2.95h0a3,3,0,0,1,0,5.9h0a3,3,0,0,1-3-3Z"/><path class="cls-2" d="M89.52,80.81h0A15.39,15.39,0,0,0,87,78.32a24.17,24.17,0,0,0-8.47-4c-.62-.17-1.24-.31-1.87-.45Q80,66.46,83.45,59a21.79,21.79,0,0,0,2.12-8.6,4.53,4.53,0,0,0,0-.52L85.45,49a23.86,23.86,0,0,0-.32-2.4A19.17,19.17,0,1,0,49,58.6q2.19,4.69,4.36,9.4L55,71.44h0l1.13,2.45a29.8,29.8,0,0,0-8,2.85,14.81,14.81,0,0,0-5.57,4.89,9.53,9.53,0,0,0-1.49,6.81A10.4,10.4,0,0,0,43.94,94a17.77,17.77,0,0,0,5.7,3.9A38.35,38.35,0,0,0,64.13,101c.78,0,1.56.06,2.33.06a47.26,47.26,0,0,0,7.7-.62,34.53,34.53,0,0,0,8.93-2.6,17.34,17.34,0,0,0,6.29-4.59A9.64,9.64,0,0,0,89.52,80.81Zm-35-31.29A11.83,11.83,0,0,1,77.94,48c.11.56.16,1.14.22,1.71,0,.25,0,.49.07.73A14.7,14.7,0,0,1,76.79,56q-4.14,9-8.23,18l-2.14,4.69-4.78-10.3L60,64.91,55.67,55.5A11.72,11.72,0,0,1,54.51,49.52Z"/><path class="cls-3" d="M58.31,69.9q3.11,6.67,6.2,13.36a2.22,2.22,0,0,0,.91,1,2,2,0,0,0,2.93-1.06q5.88-12.89,11.77-25.77a18,18,0,0,0,1.78-7.16c-.12-1-.17-2-.36-3a15.51,15.51,0,1,0-29.19,9.73Q55.35,63.47,58.31,69.9Zm8-27.14a6.61,6.61,0,1,1-6.65,6.6A6.61,6.61,0,0,1,66.34,42.76Z"/><path class="cls-3" d="M86.65,83.09a11,11,0,0,0-1.92-1.87,20.19,20.19,0,0,0-7.19-3.33c-1.23-.34-2.49-.59-3.73-.88-.53,1.15-1,2.23-1.52,3.33l.93.16a26.74,26.74,0,0,1,7,2.09,10.17,10.17,0,0,1,3.56,2.53,2.55,2.55,0,0,1,.06,3.56,5.86,5.86,0,0,1-.63.69,12.81,12.81,0,0,1-4.09,2.41,34.78,34.78,0,0,1-11.94,2.16,41.05,41.05,0,0,1-7.59-.52,26.45,26.45,0,0,1-7.43-2.23,9.47,9.47,0,0,1-3.35-2.45,2.57,2.57,0,0,1,.06-3.67,9.09,9.09,0,0,1,2.62-2,24.39,24.39,0,0,1,7.1-2.39c.59-.12,1.18-.21,1.8-.32-.52-1.12-1-2.19-1.52-3.28l-1.22.23A27.32,27.32,0,0,0,49.9,80a11.4,11.4,0,0,0-4.25,3.67,5.86,5.86,0,0,0-.95,4.23,6.79,6.79,0,0,0,1.9,3.61,14.09,14.09,0,0,0,4.55,3.08A35.19,35.19,0,0,0,64.3,97.38a44.87,44.87,0,0,0,9.26-.51,31.38,31.38,0,0,0,8-2.32,13.45,13.45,0,0,0,5-3.59A6,6,0,0,0,86.65,83.09Z"/><path class="cls-3" d="M61.82,83.3c-.34-.74-.68-1.49-1-2.22a.36.36,0,0,0-.3-.17A23.77,23.77,0,0,0,55.85,82a7.75,7.75,0,0,0-3.16,1.84,2.63,2.63,0,0,0-.16,3.63A6.29,6.29,0,0,0,54,88.71a12,12,0,0,0,3.58,1.35,34.37,34.37,0,0,0,7.5.93,36.2,36.2,0,0,0,10.42-1.08,10.71,10.71,0,0,0,3.81-1.73,2.82,2.82,0,0,0,.13-4.7,7.75,7.75,0,0,0-1.81-1.1,20,20,0,0,0-5.34-1.44c-.25,0-.34,0-.44.26-.27.64-.57,1.26-.86,1.9a2.14,2.14,0,0,0-.09.27c.71.12,1.4.21,2.08.34a14,14,0,0,1,4,1.28,11.36,11.36,0,0,1,1.07.73,3.51,3.51,0,0,1-.47.44,12.55,12.55,0,0,1-1.45.76,22.19,22.19,0,0,1-6.44,1.33,37.42,37.42,0,0,1-10.56-.51,12.75,12.75,0,0,1-3.7-1.21,9.9,9.9,0,0,1-1.07-.74A7.14,7.14,0,0,1,58,84.07C59.26,83.77,60.54,83.55,61.82,83.3Z"/></g></g></svg>