<svg xmlns="http://www.w3.org/2000/svg" viewBox="0 0 132.16 132.16"><defs><style>.cls-1{fill:#699948;}.cls-2{fill:#257470;}.cls-3{fill:#fff;}</style></defs><g id="Capa_2" data-name="Capa 2"><g id="Layer_1" data-name="Layer 1"><circle class="cls-1" cx="66.08" cy="66.08" r="66.08"/><circle class="cls-2" cx="66.08" cy="66.08" r="57.48"/><path class="cls-3" d="M91,59.76l.07-.34a2.62,2.62,0,0,1,.59-.17c2.2-.07,4.4-.15,6.6-.17,1.43,0,1.82-.27,2.13-1.67a2.38,2.38,0,0,0,0-1.18,21.1,21.1,0,0,0-1.47-4A35.8,35.8,0,0,0,87.6,40.63c-5.77-3.93-12.09-6.33-19.15-6.3a40.54,40.54,0,0,0-21.06,5.86,3,3,0,0,1-1.11.35A27.5,27.5,0,0,0,36.1,43.72c-1.1.63-1.19.7-.57,1.83a6.76,6.76,0,0,1-.05,7.07c-.1.19-.17.39-.27.58a36.42,36.42,0,0,0-3,24,27.74,27.74,0,0,0,8.1,15.13c.51.49,1.06.93,1.59,1.39a19.18,19.18,0,0,1-1.63-11c1-5.53,3.84-9.68,9-12a43.26,43.26,0,0,1,10.45-2.73c1.52-.27,3.05-.49,4.65-.75a27.51,27.51,0,0,1-2.71-8.84A31.41,31.41,0,0,1,63,44.64c.1-.28.51-.46.78-.69.12.34.39.69.34,1a31.18,31.18,0,0,0,.29,11.15A22,22,0,0,0,69,65.78a1.52,1.52,0,0,0,1.52.72c2.65-.29,5.31-.41,8-.65,3.07-.27,6.17-.46,9.21-.93a24.59,24.59,0,0,0,8.38-3Z"/><path class="cls-3" d="M110.77,66.37a2.87,2.87,0,0,1-.55-1.35c-.42-3.06-.54-6.18-1.21-9.18-5.47-24.57-30.91-40-55.27-33.57A45.22,45.22,0,0,0,20.8,75.75C25,96,43.62,111.21,64.28,111.31c5.36,0,10.73,0,16.09,0,.22,0,.5.07.63,0,.31-.27.72-.61.75-1s-.45-.63-.78-.81-.59,0-.9,0c-5,0-9.93,0-14.9,0a44.19,44.19,0,0,1-9.92-1.12A43.4,43.4,0,0,1,22.58,57.11c5.29-25.66,32.61-40.95,57.21-31.72,15.47,5.81,24.72,17.2,27.94,33.4.43,2.18.5,4.42.73,6.57-2.75,1.13-3.2,2.43-1.92,5a.89.89,0,0,1,0,.66c-1.57,3.32-3.1,6.66-4.76,9.93a8,8,0,0,1-5.16,4.39,4.31,4.31,0,0,1-4.25-.75,4.78,4.78,0,0,1-.93-6.34,25.67,25.67,0,0,1,3-3.43c.87-.92,1.85-1.52,3-.44,0,0,.12,0,.27,0l3.45-6a45.11,45.11,0,0,0-8.4,5.31,12,12,0,0,0-3.62,4.79A6.65,6.65,0,0,0,94,87.32a7.45,7.45,0,0,0,4.64-.73A11.64,11.64,0,0,0,104,80.77c1.4-2.93,2.77-5.88,4.19-8.79a1.7,1.7,0,0,1,1-.75,2.92,2.92,0,0,0,1.62-4.86Z"/><path class="cls-3" d="M79.47,88.81a1,1,0,0,1-.27-1.2,17.21,17.21,0,0,0,.87-3.37A10.28,10.28,0,0,0,76.62,75l-.69,1a38.48,38.48,0,0,1-9,9.51A22.61,22.61,0,0,1,56.43,90a19.43,19.43,0,0,1-12.5-2.72l-1.14-.63a4.7,4.7,0,0,0-.06.6A12.36,12.36,0,0,0,42.88,89c.76,3.59,1.67,6.82,6,8.06a50.94,50.94,0,0,0,17.79,1.72c5.38-.38,10.72-.09,15.6,2.76a9,9,0,0,0,.93-5.71A12.81,12.81,0,0,0,79.47,88.81Z"/></g></g></svg>