<svg xmlns="http://www.w3.org/2000/svg" viewBox="0 0 132.16 132.16"><defs><style>.cls-1{fill:#699948;}.cls-2{fill:#257470;}.cls-3{fill:#fff;}</style></defs><g id="Capa_2" data-name="Capa 2"><g id="Layer_1" data-name="Layer 1"><circle class="cls-1" cx="66.08" cy="66.08" r="66.08"/><circle class="cls-2" cx="66.08" cy="66.08" r="57.48"/><path class="cls-3" d="M80.3,57.75a21.34,21.34,0,0,0-8,6.93,14.36,14.36,0,0,0-1.2,14.63c.41.93.89,1.83,1.36,2.74a9.67,9.67,0,0,1,1.43,6.65A5.61,5.61,0,0,0,76,86.15a3.78,3.78,0,0,0-.3-3.17c1.58-.06,3-.31,4.05-1.58a3.52,3.52,0,0,0,.77-2.28c-.48.38-.92.78-1.4,1.1a4.35,4.35,0,0,1-6.74-3.36,7.67,7.67,0,0,1,1.76-5.16,10.91,10.91,0,0,1,11.9-4c1.6.53,3.13,1.29,4.69,1.92,2.21.9,4.43,1.78,6.64,2.67.09,0,.19,0,.38.08A12.09,12.09,0,0,1,100,64.18c-4.82-3.79-10.15-5.52-16.12-3.86S73.68,65.51,71.66,71.26a13.39,13.39,0,0,1,4-6.74c4.19-4,9.14-6,15-5.4a19.34,19.34,0,0,1,9.56,3.9l.28.2a.13.13,0,0,0,.08,0l2.32-2.06c-.33-.29-.67-.62-1-.9A22.14,22.14,0,0,0,89,55.44,17.1,17.1,0,0,0,80.3,57.75Z"/><path class="cls-3" d="M109.06,70.14a25.32,25.32,0,0,0-5-7.83l-.24-.22a10.84,10.84,0,0,0-4.9,10.42,1.38,1.38,0,0,0,.26.07,16.37,16.37,0,0,0,9.59-1.76C109,70.67,109.23,70.53,109.06,70.14Zm-4.57-3.35a.94.94,0,1,1-1.77-.66.94.94,0,0,1,1.77.66Z"/><path class="cls-3" d="M80.66,56.39a17.4,17.4,0,0,1,12.6-1.53,16.14,16.14,0,0,0-6.48-3.78,15.33,15.33,0,0,0-7.62-.4A5.45,5.45,0,0,1,80.66,56.39Z"/><path class="cls-3" d="M83.18,72.53c2.15,1.51,5.46,1,8-1.45l-4.16-2A5.46,5.46,0,0,1,83.18,72.53Z"/><path class="cls-3" d="M91.21,76.9l-1.53,2.29a37.94,37.94,0,0,1,3.47,2.27c2,1.64,2.09,3.74.12,5.38a14.56,14.56,0,0,1-4.52,2.59A53.91,53.91,0,0,1,58.6,90.51,25.53,25.53,0,0,1,50.69,87c-2.43-1.59-2.21-4.08.18-5.79a15,15,0,0,1,4.5-2.3c3.63-1,7.35-1.76,11.13-2.64V74.1c-1.21.06-2.32.07-3.42.19-4.26.48-8.48,1.12-12.34,3.14-3.54,1.85-5.91,4.62-6.38,8.69a17.22,17.22,0,0,0,1.56,9.42A28.49,28.49,0,0,0,94,100.86,24.93,24.93,0,0,0,99,89.8V86.63l-.36-1.51C97.7,81,95.05,78.48,91.21,76.9Z"/><path class="cls-3" d="M40.63,36.87q11.82,0,23.62,0a2.54,2.54,0,0,0,1.57-.53C68,34.42,70,32.42,72.17,30.4c-3.89-5-10.69-7.77-17.09-3.49-1.95,1.31-3.86,1-5.75-.24-6.19-4-13.31-.91-16.57,3.8,2.1,2,4.17,4,6.32,5.86A2.51,2.51,0,0,0,40.63,36.87Z"/><path class="cls-3" d="M52,73.18c4.37-2,9.17-2.28,13.91-2.64a1.57,1.57,0,0,0,1.69-1.33A38.73,38.73,0,0,1,74.8,54.85a2.41,2.41,0,0,0,.28-2,28.43,28.43,0,0,0-6.75-10.38,4.15,4.15,0,0,0-2.58-1.12q-13.32-.12-26.63,0a4.11,4.11,0,0,0-2.57,1.11,27.1,27.1,0,0,0-7,10.85c-.94,2.81-1.46,5.75-2.17,8.63v5.29c.24,1.44.46,2.88.71,4.31a8.08,8.08,0,0,0,8,7c2.23.09,4.46.09,6.69,0a3.75,3.75,0,0,0,1.66-.72C47,76.28,49.37,74.4,52,73.18ZM50,58.62c-2.93-.94-5-2.32-5-5.06,0-2.46,1.7-4.41,4.79-5V46h3.08v2.27a11.13,11.13,0,0,1,4.09.87l-.86,3.6A9.66,9.66,0,0,0,52,51.86c-1.6,0-2.09.57-2.09,1.16s.92,1.19,3.2,2c3.41,1.11,4.66,2.66,4.66,5.12s-1.79,4.6-5,5.17v2.76H49.63V65.56a12.8,12.8,0,0,1-4.79-1.14l.89-3.76a11.09,11.09,0,0,0,4.74,1.19c1.38,0,2.33-.38,2.33-1.25S52,59.25,50,58.62Z"/></g></g></svg>