<svg xmlns="http://www.w3.org/2000/svg" viewBox="0 0 132.16 132.16"><defs><style>.cls-1{fill:#699948;}.cls-2{fill:#257470;}.cls-3{fill:#fff;}</style></defs><g id="Capa_2" data-name="Capa 2"><g id="Layer_1" data-name="Layer 1"><circle class="cls-1" cx="66.08" cy="66.08" r="66.08"/><circle class="cls-2" cx="66.08" cy="66.08" r="57.48"/><path class="cls-3" d="M70.36,90.89c-2.54-.52-3.66-1.88-3.67-4.47,0-1.62,0-3.25,0-4.88,0-2.74,1.49-4.27,4.23-4.47a1,1,0,0,0,.72-.5,1,1,0,0,0-.22-.85,4.1,4.1,0,0,1,.09-6q1.92-2,3.88-3.88a3.84,3.84,0,0,1,5.71,0,.81.81,0,0,0,1.42-.56,4.06,4.06,0,0,1,4.26-4.17c1.91,0,3.83,0,5.74,0a4,4,0,0,1,4.17,4c0,.82.37,1.09,1.14,1.14l1.66-4.31c.59-1.55.08-2.31-1.56-2.31q-29.66,0-59.31,0a1.36,1.36,0,0,0-1.52,1.07q-4.44,12.12-9,24.2c-.89,2.42-1.79,4.85-2.71,7.33H71.78C71.78,91.17,71.08,91,70.36,90.89Z"/><path class="cls-3" d="M30.59,69.87q2.07-5.66,4.12-11.32c.58-1.61,1.19-2.06,2.91-2.06H78.37c0-.34,0-.59,0-.84q0-14.4,0-28.8c0-1.33-.44-1.75-1.83-1.75H32.17c-1.67,0-2,.27-2,1.92q0,19.41,0,38.82v4.5A.76.76,0,0,0,30.59,69.87ZM70.21,42.62h-16c-5.28,0-10.57,0-15.85,0-.7,0-1.32-.18-1.52-.84A1.7,1.7,0,0,1,37,40.38a2.18,2.18,0,0,1,1.47-.63c6.8,0,13.6,0,20.4,0H70c1,0,1.66.44,1.75,1.24C71.91,42,71.31,42.61,70.21,42.62ZM38.28,31c2.8,0,5.6,0,8.39,0h7.54c5.26,0,10.51,0,15.77,0a2,2,0,0,1,1.38.46,1.74,1.74,0,0,1,.3,1.52,1.9,1.9,0,0,1-1.38.88c-1.85.1-3.71,0-5.56,0H38.24a1.55,1.55,0,0,1-1.63-1.41A1.61,1.61,0,0,1,38.28,31Zm0,17.45H70.08c1,0,1.54.36,1.7,1.08.22,1-.43,1.77-1.62,1.78-2.48,0-5,0-7.45,0H39.13c-.32,0-.63,0-.94,0-.94-.07-1.58-.63-1.58-1.38A1.57,1.57,0,0,1,38.27,48.41Z"/><path class="cls-3" d="M108.74,79.61l-2.57-.17c-.59-1.35-1.15-2.66-1.74-4l1.62-1.86a1.44,1.44,0,0,0-.06-2.25c-1.27-1.28-2.54-2.56-3.82-3.81a1.28,1.28,0,0,0-2-.06c-.7.58-1.38,1.19-2,1.71l-4.09-1.67c0-.79,0-1.65,0-2.5a1.32,1.32,0,0,0-1.38-1.42c-2,0-3.94,0-5.91,0a1.23,1.23,0,0,0-1.33,1.18c-.08.8-.06,1.6-.16,2.39a.94.94,0,0,1-.46.66c-1.16.51-2.36,1-3.73,1.51-.45-.48-1-1.1-1.57-1.68a1.4,1.4,0,0,0-2.25,0c-1.31,1.27-2.6,2.57-3.88,3.87a1.34,1.34,0,0,0,0,2c.44.52.88,1,1.36,1.53a.81.81,0,0,1,.17,1.06c-.52,1.1-1,2.23-1.45,3.39-.8.06-1.66.1-2.51.17a1.42,1.42,0,0,0-1.51,1.59c0,1.86,0,3.72,0,5.57a1.3,1.3,0,0,0,1.39,1.5c.9.09,1.81.11,2.69.16.23.64.41,1.24.64,1.82.31.76,1,1.55.89,2.23s-1,1.27-1.52,1.9a1.35,1.35,0,0,0,.06,2.16c1.26,1.28,2.54,2.55,3.81,3.82a1.32,1.32,0,0,0,2.1.08c.7-.59,1.38-1.19,2-1.76a9.74,9.74,0,0,0,1.83.87c1.92.4,2.53,1.53,2.3,3.4-.12,1,.57,1.54,1.53,1.54q2.7,0,5.4,0a1.3,1.3,0,0,0,1.45-1.34c.08-.91.13-1.82.18-2.67l4-1.74c.64.56,1.29,1.15,2,1.72a1.29,1.29,0,0,0,2-.06q2-1.92,3.88-3.88a1.3,1.3,0,0,0,.08-2.09c-.58-.69-1.19-1.37-1.68-1.94.52-1.28,1-2.45,1.49-3.58a1.1,1.1,0,0,1,.7-.51c.74-.1,1.49-.06,2.22-.14a1.38,1.38,0,0,0,1.33-1.5c0-1.83,0-3.65,0-5.48A1.61,1.61,0,0,0,108.74,79.61Zm-19.18,13a8.84,8.84,0,0,1-8.62-8.85,8.75,8.75,0,0,1,9.12-8.66A8.84,8.84,0,0,1,98.46,84,8.73,8.73,0,0,1,89.56,92.65Z"/><path class="cls-3" d="M27.32,78.16q0-15.12,0-30.25V43.15c-1.87-.42-2.56.12-2.56,1.89v40h.16c.78-2,1.57-4.09,2.34-6.14A2.4,2.4,0,0,0,27.32,78.16Z"/><path class="cls-3" d="M81.28,55.63a8.2,8.2,0,0,0,.07.83h6.32c0-.24,0-.41,0-.57V44.68C87.7,43.51,87.22,43,86,43s-2.57,0-3.85,0c-.72,0-.91.21-.9.91C81.3,47.82,81.28,51.72,81.28,55.63Z"/></g></g></svg>