<svg xmlns="http://www.w3.org/2000/svg" viewBox="0 0 132.16 132.16"><defs><style>.cls-1{fill:#699948;}.cls-2{fill:#257470;}.cls-3{fill:#fff;}</style></defs><g id="Capa_2" data-name="Capa 2"><g id="Layer_1" data-name="Layer 1"><circle class="cls-1" cx="66.08" cy="66.08" r="66.08"/><circle class="cls-2" cx="66.08" cy="66.08" r="57.48"/><path class="cls-3" d="M95.42,101.4V87.33H100V26.11H44.47A11.67,11.67,0,0,0,32.58,38c0,18.63.06,37.26,0,55.89a11.9,11.9,0,0,0,10.06,12,1,1,0,0,1,.28.13h57.16V101.4ZM37.26,38.23a7.08,7.08,0,0,1,3.51-6.46,5.71,5.71,0,0,1,.7-.35,4,4,0,0,1,.48-.15v.82Q42,57,42,82c0,.71-.22.94-.86,1.16-1.29.45-2.52,1-3.81,1.6,0-.1,0-.31,0-.53Zm53.37,63.14H44.8a7.07,7.07,0,0,1-6.72-3.85A7,7,0,0,1,43.4,87.44c.72-.08,1.45-.12,2.17-.13h45V92H44.31v4.67H90.63Zm4.67-18.8H46.67V30.83H95.3Z"/><path class="cls-3" d="M75.74,60.76a1.8,1.8,0,0,0,1.92,1.94H89a1.79,1.79,0,0,0,2-2V54.94c0-1.48-.65-2.11-2.14-2.11-1.67,0-3.34,0-5,0a1.53,1.53,0,0,1-1.07-.46,3.8,3.8,0,0,0-3.91-1.61,6.91,6.91,0,0,1-.91,0c-1.59,0-2.22.63-2.22,2.22,0,1,0,2,0,3H73.51c0-3.61,0-7.16,0-10.71,0-1.12.88-1.64,2.21-1.43,0,.83,0,1.69,0,2.54a1.7,1.7,0,0,0,1.84,1.81q5.76,0,11.5,0A1.72,1.72,0,0,0,91,46.31q0-3,0-6a1.72,1.72,0,0,0-1.91-1.9c-1.72,0-3.44,0-5.16,0a1.63,1.63,0,0,1-1.13-.47,3.8,3.8,0,0,0-3.85-1.58,6.66,6.66,0,0,1-1,0c-1.59,0-2.19.63-2.19,2.24v3.78c-2.92.45-3.55,1.2-3.55,4.08V56H68.84l-.06-1A27.75,27.75,0,0,1,51,55v1.65c0,1.32.17,1.58,1.43,2.09a6.88,6.88,0,0,0,.87.3,23.65,23.65,0,0,0,8.41.71,49.33,49.33,0,0,0,5.39-.92,2.18,2.18,0,0,0,1.79-1.45h3.3v1c0,3.16,0,6.33,0,9.49A2.91,2.91,0,0,0,75.09,71l.64.07c0,1.4,0,2.75,0,4.11a1.75,1.75,0,0,0,1.9,1.93c3.81,0,7.61,0,11.42,0a1.74,1.74,0,0,0,1.93-2V69.39c0-1.49-.65-2.13-2.14-2.13-1.66,0-3.33,0-5,0a1.44,1.44,0,0,1-1-.38,3.87,3.87,0,0,0-4.06-1.64,8.34,8.34,0,0,1-1,0c-1.4,0-2,.61-2.05,2,0,.8,0,1.59,0,2.38-1.57.12-2.23-.45-2.23-1.86,0-2.83,0-5.66,0-8.5V57.45h2.23C75.74,58.6,75.72,59.68,75.74,60.76Z"/><path class="cls-3" d="M51.59,49.05a4.24,4.24,0,0,0,1.5.68c2.25.4,4.52.73,6.25,1,2.2-.22,3.84-.29,5.45-.55a15.32,15.32,0,0,0,3.15-1c.36-.14.82-.63.8-.93s-.46-.77-.81-1a3.64,3.64,0,0,0-1.21-.52,26.93,26.93,0,0,0-12.11-.36,11.21,11.21,0,0,0-3,1.07C50.76,47.86,50.8,48.54,51.59,49.05Z"/><path class="cls-3" d="M52.19,54a13.08,13.08,0,0,0,1.49.51,24.84,24.84,0,0,0,8.67.55A41.38,41.38,0,0,0,67.62,54a1.53,1.53,0,0,0,1.2-1.82c-.06-.61,0-1.22,0-1.83a27.44,27.44,0,0,1-17.81,0,15.84,15.84,0,0,1,0,1.82A1.62,1.62,0,0,0,52.19,54Z"/><path class="cls-3" d="M53.46,63.74a26.48,26.48,0,0,0,9.91.52,24.39,24.39,0,0,0,4.42-1.09,1.7,1.7,0,0,0,1-1.09,12.36,12.36,0,0,0,0-2.43,27.91,27.91,0,0,1-17.81,0v1.4c0,1.64.19,1.91,1.74,2.46C53,63.61,53.22,63.67,53.46,63.74Z"/><path class="cls-3" d="M51,64.27v1.35c0,1.71.21,2,1.84,2.56q.34.12.72.21a28.09,28.09,0,0,0,10.73.38,15.74,15.74,0,0,0,3.49-1,1.86,1.86,0,0,0,1-1.18,11,11,0,0,0,0-2.37A27.51,27.51,0,0,1,51,64.27Z"/></g></g></svg>