<svg xmlns="http://www.w3.org/2000/svg" viewBox="0 0 132.16 132.16"><defs><style>.cls-1{fill:#699948;}.cls-2{fill:#257470;}.cls-3{fill:#fff;}</style></defs><g id="Capa_2" data-name="Capa 2"><g id="Layer_1" data-name="Layer 1"><circle class="cls-1" cx="66.08" cy="66.08" r="66.08"/><circle class="cls-2" cx="66.08" cy="66.08" r="57.48"/><path class="cls-3" d="M112.14,43.71c0-1.82-.59-2.41-2.42-2.42H105V36.36c0-1.84-.57-2.41-2.42-2.42H93.65c0-1.42-.06-2.73,0-4a9.17,9.17,0,0,0-9.52-9.56c-12.14.08-24.29,0-36.43,0a9,9,0,0,0-9.05,7.44,16.09,16.09,0,0,0-.13,2.78c0,1.08,0,2.15,0,3.34-.37,0-.68,0-1,0H30.13c-1.63,0-2.22.59-2.23,2.22s0,3.23,0,5H25.06c-.84,0-1.68,0-2.52,0A2.58,2.58,0,0,0,20,42.29V90.52a2.74,2.74,0,0,0,2.59,1.23c4.92,0,9.84,0,14.75,0h1.16v1.16c0,3.51-.06,7,0,10.53a8.88,8.88,0,0,0,9,8.67q14.22,0,28.43,0h8.36a9,9,0,0,0,9.32-9.19c0-3.45,0-6.9,0-10.34,0-.24,0-.47,0-.84h15.93c1.94,0,2.53-.58,2.53-2.5Zm-11.29-6.1c.12,0,.23,0,.42,0v43h-.91c-9.39,0-18.77,0-28.16,0A3.47,3.47,0,0,0,69.07,82l-.76,1-.23-.16c0-.29,0-.57,0-.85q0-19.8,0-39.58A2.29,2.29,0,0,1,68.63,41c.88-1,1.84-2,2.81-2.91a1.66,1.66,0,0,1,1-.46Q86.64,37.59,100.85,37.61Zm-18,54.15c-.23.68-.37,1.28-.62,1.84a1.68,1.68,0,0,1-1.75,1q-11.39,0-22.76,0c-2.19,0-4.37,0-6.56,0-1.13,0-1.41-.23-1.62-1.34-.09-.44-.12-.89-.2-1.45ZM66.38,37.63c-.81-.75-1.84-1.6-2.74-2.58A3.28,3.28,0,0,0,61,33.93c-3.48,0-7,0-10.43,0H49.37c.06-.53.08-1,.16-1.4.21-1.1.51-1.33,1.64-1.33H80.11c1.73,0,2.5.81,2.51,2.73H76.74c-1.74,0-3.48,0-5.22,0a2.75,2.75,0,0,0-2.07.88C68.46,35.8,67.38,36.72,66.38,37.63Zm-24-9.54a5.05,5.05,0,0,1,5.25-4H84.41A5.3,5.3,0,0,1,90,29.64c0,1.41,0,2.81,0,4.3H86.62a26.1,26.1,0,0,0-1.14-3.37,5,5,0,0,0-4.88-3q-14.7,0-29.41,0c-3,0-4.67,1.37-5.24,4.33-.12.64-.18,1.3-.28,2h-3.6A50.85,50.85,0,0,1,42.37,28.09ZM31.6,37.65c.29,0,.58,0,.87,0q13.85,0,27.69,0a1.71,1.71,0,0,1,1.4.6c.89,1,2.16,1.78,2.62,2.91s.17,2.59.17,3.91q0,18.21,0,36.42v.86l-.27.11c-.19-.23-.39-.45-.57-.69a2.78,2.78,0,0,0-2.45-1q-14.07,0-28.14,0H31.6ZM23.7,88V44.85h4.2V81.8c0,2.08.51,2.58,2.61,2.59,9.83,0,19.66,0,29.49,0a2.16,2.16,0,0,1,1.71.73c.87.91,1.84,1.72,2.77,2.57l-.22.3ZM90,102.63c0,3.52-2.18,5.75-5.7,5.75-12.14,0-24.28,0-36.41,0a5.55,5.55,0,0,1-5.77-5.82c.08-3.26,0-6.53,0-9.8V91.73h3.48c.16.93.26,1.85.49,2.73a4.54,4.54,0,0,0,4.94,3.78h28.6c4.09,0,6.2-1.86,6.74-6,0-.15,0-.3.06-.58H90v1C90,96,90,99.3,90,102.63Zm18.45-14.69h-40c1.17-1.2,2.23-2.32,3.35-3.39.19-.18.61-.16.93-.16q14.88,0,29.78,0c1.91,0,2.48-.56,2.48-2.44V45h3.5Z"/><path class="cls-3" d="M94.17,52.59h-18a4.23,4.23,0,0,0-1.23.15,1.63,1.63,0,0,0-1.22,1.69A1.66,1.66,0,0,0,75,56.14a4.08,4.08,0,0,0,1.15.15H90.93c1.07,0,2.15,0,3.23,0a1.87,1.87,0,0,0,1.94-1.84A1.9,1.9,0,0,0,94.17,52.59Z"/><path class="cls-3" d="M94,61.88H75.81a1.85,1.85,0,0,0-2.07,1.85c0,1.09.84,1.78,2.13,1.78h9c3,0,6.05,0,9.07,0,1.33,0,2.2-.74,2.18-1.84S95.27,61.88,94,61.88Z"/><path class="cls-3" d="M75.43,47c1.68,0,3.36,0,5,0H94.11a1.88,1.88,0,0,0,2-1.86,1.85,1.85,0,0,0-2-1.77c-3.08,0-6.16,0-9.25,0h0c-3,0-5.93,0-8.89,0a2.94,2.94,0,0,0-1.44.33A1.79,1.79,0,0,0,75.43,47Z"/><path class="cls-3" d="M38.8,56.28H57c1.36,0,2.19-.74,2.19-1.86S58.3,52.59,57,52.58H38.89a1.86,1.86,0,1,0-.09,3.7Z"/><path class="cls-3" d="M57.08,71.1H38.75a1.83,1.83,0,1,0-.17,3.66,5.77,5.77,0,0,0,.72,0c5.51,0,11,0,16.53,0a13.4,13.4,0,0,0,1.79-.07,1.66,1.66,0,0,0,1.49-1.56A1.83,1.83,0,0,0,57.08,71.1Z"/><path class="cls-3" d="M57.1,61.88q-9.12,0-18.23,0a1.86,1.86,0,0,0-2.09,1.84c0,1.08.85,1.78,2.14,1.78,3,0,6,0,9,0s6.11,0,9.16,0a1.83,1.83,0,1,0,0-3.62Z"/><path class="cls-3" d="M38.66,47c3.09,0,6.18,0,9.27,0s6.24,0,9.36,0a1.75,1.75,0,0,0,1.84-1.79,1.78,1.78,0,0,0-1.82-1.82c-.75,0-1.5,0-2.25,0H39.23a4.35,4.35,0,0,0-1.25.12,1.8,1.8,0,0,0,.68,3.5Z"/><path class="cls-3" d="M70.31,101.34c-1.38,0-2.76,0-4.14,0s-2.88,0-4.31,0a1.89,1.89,0,0,0-2.06,1.8,1.85,1.85,0,0,0,2,1.89c2.87,0,5.75,0,8.62,0a1.84,1.84,0,0,0,2-1.89A1.89,1.89,0,0,0,70.31,101.34Z"/></g></g></svg>