<svg width="66" height="33" viewBox="0 0 66 33" fill="none" xmlns="http://www.w3.org/2000/svg">
<path d="M66 0H0V33H66V0Z" fill="#257470"/>
<path d="M50.2803 5.0116H50.0204C48.5204 5.0716 47.0204 5.1216 45.5204 5.2016C44.8537 5.2016 44.2137 5.2516 43.6004 5.3516C43.5043 5.36347 43.4131 5.40096 43.3365 5.46013C43.2599 5.51931 43.2006 5.598 43.1648 5.68796C43.129 5.77793 43.1181 5.87586 43.1331 5.9715C43.1482 6.06715 43.1887 6.15698 43.2504 6.2316C43.3255 6.34408 43.4127 6.44803 43.5104 6.5416L45.2904 8.2416L32.2904 21.2416C32.2904 21.2416 32.2304 21.1516 32.1804 21.1016L26.0204 15.0116C25.4904 14.4916 24.9504 14.0116 24.3904 13.5216C24.3097 13.4317 24.211 13.3599 24.1008 13.3107C23.9905 13.2615 23.8711 13.2361 23.7504 13.2361C23.6296 13.2361 23.5102 13.2615 23.3999 13.3107C23.2897 13.3599 23.191 13.4317 23.1104 13.5216C22.7585 13.7823 22.4244 14.0663 22.1104 14.3716C20.1104 16.3716 18.1104 18.3716 16.1104 20.3716C15.7904 20.7016 15.5004 21.0616 15.2104 21.4216C15.1107 21.5303 15.043 21.6644 15.0148 21.8091C14.9866 21.9538 14.9989 22.1035 15.0504 22.2416C15.236 22.7497 15.5886 23.1798 16.0504 23.4616C16.281 23.5827 16.5419 23.634 16.8012 23.6091C17.0605 23.5842 17.3069 23.4843 17.5104 23.3216C17.8804 22.9616 18.2604 22.6116 18.6204 22.2516L23.5004 17.4316C23.7304 17.2116 23.7404 17.2116 23.9704 17.4316C25.9104 19.3516 27.8404 21.2716 29.7904 23.1816C30.3704 23.7516 30.9604 24.3116 31.5704 24.8416C31.6641 24.9584 31.7828 25.0527 31.9178 25.1174C32.0528 25.1822 32.2006 25.2158 32.3504 25.2158C32.5001 25.2158 32.6479 25.1822 32.7829 25.1174C32.9179 25.0527 33.0367 24.9584 33.1304 24.8416C33.6904 24.3216 34.2404 23.8416 34.7804 23.2616L46.7804 11.3616L47.4704 10.6916L47.9204 11.0916C48.4504 11.6016 48.9704 12.0916 49.5104 12.6016C49.9004 12.9416 50.1904 12.8816 50.5104 12.4516C50.5783 12.3361 50.6161 12.2055 50.6203 12.0716C50.7003 10.8616 50.7804 9.6516 50.8404 8.4316C50.8404 7.5416 50.9103 6.6416 50.9403 5.7516C50.9695 5.65632 50.9736 5.55513 50.9523 5.45779C50.9309 5.36046 50.8849 5.27026 50.8186 5.1959C50.7522 5.12153 50.6679 5.06551 50.5736 5.03323C50.4793 5.00095 50.3783 4.9935 50.2803 5.0116Z" fill="white"/>
<path d="M48.4902 13.7319C48.1602 13.3719 47.8102 13.0319 47.4902 12.6719L47.3802 12.7719L43.5302 16.6319C43.4545 16.7176 43.412 16.8275 43.4102 16.9419V31.3519H48.5702V14.0119C48.5777 13.912 48.5494 13.8127 48.4902 13.7319V13.7319Z" fill="white"/>
<path d="M29.4494 13.5917C29.9994 13.7817 30.5694 13.9117 31.1394 14.0517C31.1816 14.0566 31.2223 14.0699 31.2593 14.0907C31.2963 14.1116 31.3287 14.1396 31.3548 14.1731C31.3809 14.2066 31.4 14.2449 31.4111 14.2859C31.4222 14.3269 31.425 14.3696 31.4194 14.4117C31.4194 14.7017 31.4194 15.0017 31.4194 15.3017C31.4194 15.6017 31.5594 15.7317 31.8594 15.7617H32.3494H32.6894H32.8494C33.1294 15.7617 33.2394 15.6317 33.2694 15.3317C33.2844 15.0586 33.2844 14.7848 33.2694 14.5117C33.2514 14.3517 33.2908 14.1905 33.3806 14.0568C33.4703 13.9232 33.6045 13.8257 33.7594 13.7817C34.1082 13.648 34.4431 13.4805 34.7594 13.2817C35.2624 12.973 35.6657 12.5258 35.9211 11.9937C36.1765 11.4617 36.2731 10.8673 36.1994 10.2817C36.1542 9.8067 35.9963 9.34935 35.7389 8.9476C35.4815 8.54585 35.132 8.21129 34.7194 7.97169C34.0694 7.57169 33.3494 7.29169 32.6694 6.97169C32.3217 6.80809 31.9874 6.6175 31.6694 6.40169C31.5198 6.3115 31.4042 6.17424 31.3409 6.01139C31.2776 5.84854 31.27 5.66929 31.3194 5.50169C31.3539 5.32333 31.4459 5.16119 31.5814 5.04017C31.7169 4.91914 31.8883 4.8459 32.0694 4.83169C32.5646 4.77671 33.0643 4.77671 33.5594 4.83169C34.0537 4.89981 34.5419 5.00681 35.0194 5.15169C35.1594 5.15169 35.3194 5.24169 35.3794 5.05169C35.5294 4.55169 35.6794 4.05169 35.8094 3.53169C35.8216 3.49429 35.8261 3.45479 35.8226 3.4156C35.819 3.37642 35.8076 3.33836 35.7889 3.30375C35.7702 3.26913 35.7446 3.23869 35.7137 3.21427C35.6829 3.18985 35.6474 3.17196 35.6094 3.16169C35.3417 3.04684 35.068 2.94669 34.7894 2.86169C34.4394 2.75169 34.0694 2.67169 33.7094 2.57169C33.6432 2.5595 33.5839 2.52299 33.5432 2.46934C33.5025 2.41569 33.4833 2.34876 33.4894 2.28169C33.4894 2.00169 33.4894 1.71169 33.4894 1.43169C33.4979 1.37002 33.4911 1.30722 33.4696 1.24879C33.4481 1.19037 33.4126 1.13813 33.3661 1.09665C33.3197 1.05517 33.2638 1.02573 33.2034 1.01092C33.1429 0.996104 33.0797 0.996369 33.0194 1.01169C32.6794 1.01169 32.3394 1.01169 32.0194 1.01169C31.6994 1.01169 31.6294 1.09169 31.6094 1.43169C31.5894 1.77169 31.6094 2.07169 31.6094 2.43169C31.5853 2.54904 31.5174 2.65277 31.4194 2.72169C31.1841 2.85432 30.9402 2.97124 30.6894 3.07169C30.2267 3.25865 29.8194 3.56071 29.5061 3.94922C29.1928 4.33774 28.984 4.79984 28.8994 5.29169C28.7514 5.84814 28.7819 6.437 28.9864 6.97523C29.1909 7.51347 29.5592 7.97393 30.0394 8.29169C30.3195 8.48943 30.6136 8.66657 30.9194 8.82169C31.4894 9.10169 32.0794 9.33169 32.6494 9.61169C32.9296 9.74737 33.1889 9.92248 33.4194 10.1317C33.527 10.2533 33.6034 10.3993 33.642 10.557C33.6806 10.7147 33.6801 10.8795 33.6408 11.037C33.6014 11.1946 33.5242 11.3401 33.416 11.4612C33.3077 11.5822 33.1716 11.6751 33.0194 11.7317C32.4691 11.9766 31.8516 12.026 31.2694 11.8717C30.6494 11.7117 30.0494 11.4917 29.4394 11.2917C29.2494 11.2217 29.1294 11.2917 29.0694 11.4617C28.9294 11.9517 28.7694 12.4617 28.6294 12.9317C28.6203 12.9689 28.621 13.0078 28.6315 13.0447C28.642 13.0815 28.662 13.1149 28.6894 13.1417C28.9192 13.3284 29.1753 13.48 29.4494 13.5917V13.5917Z" fill="white"/>
<path d="M41.7403 18.3916L37.0903 23.0116C37.034 23.0636 36.9897 23.1271 36.9603 23.1979C36.931 23.2687 36.9173 23.345 36.9203 23.4216V31.3416H42.0203V18.1516V18.1016C41.9329 18.2037 41.8394 18.3006 41.7403 18.3916V18.3916Z" fill="white"/>
<path d="M24.2798 19.7718L24.0898 19.5918V31.3418H29.1798C29.184 31.2685 29.184 31.1951 29.1798 31.1218C29.1798 29.0418 29.1798 26.9685 29.1798 24.9018C29.1702 24.7776 29.1171 24.6607 29.0298 24.5718L24.2798 19.7718Z" fill="white"/>
<path d="M19.1894 23.7227C18.7937 24.1796 18.3196 24.5623 17.7894 24.8527C17.7279 24.8751 17.6762 24.9184 17.6433 24.9751C17.6104 25.0317 17.5984 25.0981 17.6094 25.1627C17.6094 27.1627 17.6094 29.1627 17.6094 31.1627C17.605 31.2393 17.605 31.3161 17.6094 31.3927H22.7494V20.2227L22.5494 20.4027C21.4294 21.5127 20.3194 22.6227 19.1894 23.7227Z" fill="white"/>
<path d="M35.6105 24.6012L35.4905 24.5312C35.391 24.6792 35.2807 24.8196 35.1605 24.9513C34.8305 25.2813 34.5105 25.6113 34.1605 25.9513C33.7066 26.3643 33.1284 26.615 32.5166 26.6638C31.9048 26.7127 31.2942 26.557 30.7805 26.2212L30.4805 26.0312V31.3512H30.8605H35.4005C35.5905 31.3512 35.6205 31.2812 35.6205 31.1112C35.6205 29.0412 35.6205 26.9612 35.6205 24.8912L35.6105 24.6012Z" fill="white"/>
</svg>
