<svg width="66" height="33" viewBox="0 0 66 33" fill="none" xmlns="http://www.w3.org/2000/svg">
<path d="M66 0H0V33H66V0Z" fill="#257470"/>
<path d="M38.8531 25.1005C38.7431 24.6105 38.6431 24.1005 38.5231 23.6205L42.2331 21.5005C42.7631 21.2005 43.2331 20.8405 42.8731 20.1905C42.5131 19.5405 41.8731 19.7005 41.3531 20.0205L38.0031 21.9005L37.6631 20.4505C40.2731 18.9205 42.8231 17.4505 45.3831 15.9605C45.5148 15.8995 45.6581 15.868 45.8031 15.868C45.9482 15.868 46.0915 15.8995 46.2231 15.9605C48.7731 17.4305 51.3131 18.9605 53.9031 20.4705L53.5231 21.8705C52.3231 21.2005 51.2131 20.5605 50.0931 19.9505C49.3331 19.5505 48.6231 19.7605 48.6531 20.4205C48.6919 20.6236 48.7713 20.8168 48.8864 20.9886C49.0015 21.1604 49.15 21.3073 49.3231 21.4205C50.5431 22.1905 51.8231 22.8805 53.0431 23.5905C52.9331 24.1605 52.8431 24.5905 52.7431 25.0805L54.9531 25.8205C55.2831 24.5805 55.6131 23.3805 55.9531 22.1705C56.7731 19.0205 56.9531 19.4305 54.2331 17.8705C54.0011 17.7661 53.8083 17.5907 53.6825 17.3696C53.5567 17.1486 53.5044 16.8932 53.5331 16.6405C53.5331 14.9305 53.5331 13.2205 53.5331 11.5205C53.5637 11.3292 53.5486 11.1335 53.4893 10.9492C53.4299 10.7649 53.3278 10.5972 53.1914 10.4598C53.0549 10.3224 52.888 10.2191 52.7041 10.1584C52.5202 10.0977 52.3246 10.0813 52.1331 10.1105H50.0031C49.7131 9.11047 49.3831 8.22047 49.1731 7.27047C48.9131 6.09047 48.5531 5.09047 47.0531 5.27047C46.9231 4.27047 47.2331 3.03047 45.8531 2.98047C44.3231 2.98047 44.6531 4.28047 44.5131 5.26047C43.1931 5.12047 42.7031 5.88047 42.4531 6.99047C42.2031 8.10047 41.8931 8.99047 41.5831 10.0705H40.5531C40.2131 10.0705 39.8631 10.0705 39.5531 10.0705C38.5531 10.0705 38.1131 10.4905 38.0931 11.5405C38.0031 12.652 38.0031 13.769 38.0931 14.8805C38.2115 15.2724 38.2513 15.684 38.2103 16.0914C38.1693 16.4988 38.0482 16.8941 37.854 17.2546C37.6598 17.6151 37.3964 17.9337 37.0787 18.1921C36.7611 18.4505 36.3956 18.6437 36.0031 18.7605C35.7749 18.8892 35.5823 19.0727 35.4427 19.2944C35.303 19.5161 35.2207 19.769 35.2031 20.0305C35.5831 22.0305 36.1331 23.9105 36.6231 25.8605L38.8531 25.1005ZM46.8531 7.85047C47.0631 8.57047 47.2631 9.26047 47.5031 10.0605H44.2831C44.3831 7.85047 44.5831 7.67047 46.8531 7.85047V7.85047ZM40.4431 12.6105H51.1731V16.0705C49.9231 15.3305 48.7131 14.7505 47.6431 13.9605C47.1377 13.5183 46.487 13.2779 45.8155 13.2852C45.144 13.2926 44.4987 13.5473 44.0031 14.0005C42.8598 14.7636 41.6783 15.4678 40.4631 16.1105L40.4431 12.6105Z" fill="white"/>
<path d="M57.8033 29.7307C56.9433 28.8207 56.1033 27.8807 55.1633 27.0607C54.2915 26.3206 53.178 25.9269 52.0347 25.9546C50.8914 25.9822 49.7983 26.4293 48.9633 27.2107C48.4433 27.6907 47.9633 28.2107 47.4833 28.6907C47.2684 28.9087 47.0123 29.0818 46.7299 29.2C46.4475 29.3181 46.1444 29.379 45.8383 29.379C45.5322 29.379 45.2291 29.3181 44.9467 29.2C44.6643 29.0818 44.4082 28.9087 44.1933 28.6907C43.7033 28.2507 43.2633 27.7407 42.7833 27.2907C41.9026 26.4259 40.7176 25.9414 39.4833 25.9414C38.249 25.9414 37.064 26.4259 36.1833 27.2907C35.6933 27.7407 35.2733 28.2907 34.7833 28.7007C34.5634 28.9263 34.3006 29.1056 34.0103 29.228C33.7201 29.3504 33.4083 29.4135 33.0933 29.4135C32.7783 29.4135 32.4665 29.3504 32.1762 29.228C31.886 29.1056 31.6231 28.9263 31.4033 28.7007C30.9433 28.2707 30.5333 27.7907 30.0833 27.3607C29.2064 26.4887 28.02 25.9992 26.7833 25.9992C25.5466 25.9992 24.3602 26.4887 23.4833 27.3607C23.0533 27.7607 22.6633 28.2107 22.2333 28.6207C22.009 28.8913 21.7278 29.109 21.4098 29.2585C21.0918 29.408 20.7447 29.4854 20.3933 29.4854C20.0419 29.4854 19.6948 29.408 19.3767 29.2585C19.0587 29.109 18.7775 28.8913 18.5533 28.6207C18.1633 28.2307 17.7833 27.8107 17.3833 27.4207C16.4937 26.5467 15.3096 26.0367 14.0633 25.9907C13.4109 26.0413 12.7752 26.2215 12.1933 26.5207C10.8299 27.5927 9.54034 28.7554 8.33327 30.0007C8.24932 30.2238 8.22545 30.465 8.26406 30.7002C8.30267 30.9353 8.40241 31.1562 8.55327 31.3407C8.7723 31.4642 9.01613 31.5373 9.26697 31.5546C9.51782 31.5719 9.76936 31.533 10.0033 31.4407C10.4805 31.1471 10.8896 30.755 11.2033 30.2907C13.3233 27.7507 14.6033 27.6707 16.9333 30.2007C17.3602 30.7148 17.8952 31.1284 18.5001 31.4123C19.105 31.6962 19.765 31.8434 20.4333 31.8434C21.1015 31.8434 21.7615 31.6962 22.3664 31.4123C22.9713 31.1284 23.5063 30.7148 23.9333 30.2007C26.0333 27.8607 27.3533 27.7007 29.6233 30.2007C30.0502 30.7148 30.5852 31.1284 31.1901 31.4123C31.795 31.6962 32.4551 31.8434 33.1233 31.8434C33.7915 31.8434 34.4515 31.6962 35.0564 31.4123C35.6613 31.1284 36.1963 30.7148 36.6233 30.2007C38.8933 27.6907 40.2333 27.8407 42.3033 30.2007C42.8653 30.9063 43.6368 31.4153 44.5066 31.6543C45.3764 31.8933 46.2996 31.85 47.1433 31.5307C48.1583 31.0932 49.0735 30.4535 49.8333 29.6507C51.6433 27.9107 52.7033 27.8707 54.4733 29.6507C55.0033 30.2007 55.5333 30.7607 56.0833 31.2907C56.1841 31.4138 56.3099 31.5139 56.4524 31.5845C56.5949 31.6552 56.7508 31.6946 56.9097 31.7003C57.0687 31.706 57.227 31.6777 57.3741 31.6175C57.5213 31.5572 57.654 31.4663 57.7633 31.3507C57.8807 31.2523 57.9759 31.1299 58.0424 30.9918C58.1089 30.8537 58.1453 30.703 58.1491 30.5498C58.1529 30.3965 58.124 30.2442 58.0644 30.103C58.0047 29.9618 57.9157 29.8349 57.8033 29.7307V29.7307Z" fill="white"/>
<path d="M46.6639 19.0004C46.6639 18.3904 46.5839 17.8304 45.8339 17.8204C45.0839 17.8104 45.0039 18.3804 45.0039 19.0004C45.0039 21.8904 45.0039 24.7704 45.0039 27.6504C45.0039 28.2504 45.1639 28.5804 45.7939 28.5904C46.4239 28.6004 46.7439 28.3904 46.7239 27.6804C46.6739 26.2204 46.7239 24.7604 46.7239 23.3004C46.7239 21.8404 46.6539 20.4404 46.6639 19.0004Z" fill="white"/>
<path d="M29.4233 17.66H9.36332C8.59332 17.66 8.05332 18 8.00332 18.77C7.95332 19.54 8.47332 20 9.23332 20L10.2333 20.09V26.61C10.7219 26.2503 11.2484 25.9452 11.8033 25.7C12.5033 25.47 12.6533 25.07 12.6333 24.39C12.5733 22.97 12.6333 21.55 12.6333 20.07H15.6433C15.6433 21.63 15.6433 23.12 15.6433 24.61C15.6406 24.7749 15.6711 24.9387 15.7329 25.0916C15.7947 25.2445 15.8867 25.3834 16.0033 25.5C16.6512 25.8968 17.3187 26.2606 18.0033 26.59V20.09H21.1133V28.27L21.3933 28.33C21.7222 27.9247 22.0834 27.5468 22.4733 27.2C22.8432 26.9224 23.1314 26.5501 23.3074 26.1225C23.4834 25.6948 23.5407 25.2275 23.4733 24.77C23.3833 23.25 23.4733 21.72 23.4733 20.11H26.6233V25.11L28.9633 25.52V20.12L29.8933 20.07C30.7036 20.0896 31.4944 19.8208 32.1249 19.3116C32.7555 18.8024 33.1846 18.0858 33.336 17.2895C33.4873 16.4933 33.3509 15.6692 32.9512 14.9642C32.5514 14.2591 31.9143 13.719 31.1533 13.44C30.9967 13.3439 30.8635 13.2142 30.7632 13.0603C30.6629 12.9063 30.598 12.7321 30.5733 12.55C30.5133 10.88 30.5733 9.21 30.5733 7.55C30.5304 7.2678 30.5768 6.97926 30.7059 6.72468C30.835 6.47009 31.0403 6.26219 31.2933 6.13C31.7967 5.80405 32.1746 5.31701 32.3653 4.74849C32.556 4.17996 32.5483 3.56356 32.3433 3C32.1584 2.42839 31.8 1.92861 31.3179 1.57016C30.8358 1.21171 30.254 1.01242 29.6533 1C29.0409 1.02164 28.452 1.24075 27.9744 1.62464C27.4968 2.00853 27.1561 2.5366 27.0033 3.13C26.8168 3.68687 26.8307 4.29139 27.0424 4.83914C27.2542 5.38689 27.6507 5.84346 28.1633 6.13C29.3233 6.79 28.7333 7.78 28.7733 8.63C28.7733 8.75 27.8933 9.04 27.4133 9.04C21.4833 9 15.5633 9 9.64332 9C9.00332 9 8.36332 9 8.35332 9.86C8.34332 10.72 8.96332 10.75 9.61332 10.74H14.1933V13.23C12.4733 13.23 10.8433 13.23 9.19332 13.23C9.03592 13.2151 8.87717 13.2347 8.72807 13.2873C8.57898 13.3399 8.44311 13.4243 8.3299 13.5346C8.21669 13.645 8.12884 13.7787 8.07244 13.9264C8.01605 14.0741 7.99246 14.2323 8.00332 14.39C7.99134 14.548 8.01365 14.7068 8.06871 14.8554C8.12377 15.004 8.2103 15.1389 8.32235 15.251C8.43441 15.363 8.56936 15.4495 8.71796 15.5046C8.86656 15.5597 9.0253 15.582 9.18332 15.57C9.42332 15.57 9.67332 15.57 9.91332 15.57H29.4533C30.1933 15.57 30.9533 15.64 30.9733 16.57C30.9933 17.5 30.2133 17.66 29.4233 17.66ZM21.5233 13.14H16.0633V10.8H21.5233V13.14ZM28.8033 13.14H23.3833V10.82H28.8033V13.14ZM28.1633 3.87C28.1633 3.58124 28.2489 3.29896 28.4094 3.05887C28.5698 2.81877 28.7978 2.63164 29.0646 2.52114C29.3314 2.41063 29.6249 2.38172 29.9081 2.43805C30.1914 2.49439 30.4515 2.63344 30.6557 2.83762C30.8599 3.04181 30.9989 3.30196 31.0553 3.58517C31.1116 3.86838 31.0827 4.16194 30.9722 4.42872C30.8617 4.6955 30.6745 4.92352 30.4345 5.08395C30.1944 5.24437 29.9121 5.33 29.6233 5.33C29.2361 5.33 28.8647 5.17618 28.5909 4.90238C28.3171 4.62857 28.1633 4.25722 28.1633 3.87Z" fill="white"/>
</svg>
