<svg width="66" height="33" viewBox="0 0 66 33" fill="none" xmlns="http://www.w3.org/2000/svg">
<g clip-path="url(#clip0_108_47)">
<path d="M66 0H0V33H66V0Z" fill="#257470"/>
<path d="M41.3709 23.29C41.3709 16.27 41.3709 9.25 41.3709 2.23C41.3809 1.07 41.3309 1 40.2209 1H21.0209C20.1009 1 19.9609 1.15 19.9609 2.1C19.9609 5.26 19.9609 8.41 19.9609 11.57V17C20.2586 16.6135 20.6565 16.316 21.1113 16.1397C21.5661 15.9634 22.0606 15.9151 22.5409 16C22.9209 16 23.3009 16 23.6709 16C24.2094 15.88 24.7732 15.9639 25.2534 16.2354C25.7336 16.5069 26.0961 16.9468 26.2709 17.47C26.7404 17.3471 27.2276 17.3065 27.7109 17.35C28.2643 17.5302 28.7655 17.8425 29.1709 18.26C29.4288 18.5637 29.7562 18.8005 30.1254 18.9502C30.4945 19.1 30.8944 19.1582 31.2909 19.12C33.2309 19.05 35.1809 19.12 37.1209 19.12C37.6309 19.12 38.4309 18.85 38.4509 19.72C38.4709 20.59 37.6509 20.41 37.1009 20.42H31.2309L31.0209 22C31.4909 22.52 31.8909 23 32.3409 23.44C32.5362 23.6001 32.7786 23.6914 33.0309 23.7C34.1709 23.7 35.3009 23.7 36.4409 23.7C36.9247 23.6664 37.4106 23.6832 37.8909 23.75C38.0279 23.8036 38.1497 23.89 38.2456 24.0015C38.3415 24.1131 38.4086 24.2465 38.4409 24.39C38.4409 24.59 38.1009 24.88 37.8409 24.98C37.5498 25.031 37.2521 25.031 36.9609 24.98H32.4709C32.4709 26.48 32.7709 28.05 30.8509 28.72C31.1201 28.9314 31.4415 29.0661 31.7809 29.11C34.7809 29.11 37.7809 29.11 40.8509 29.11H42.9509C41.1009 27.38 41.3709 25.3 41.3709 23.29ZM23.8509 5.12H32.2609C32.7509 5.12 33.2609 5.12 33.2609 5.79C33.2609 6.46 32.7509 6.45 32.2609 6.44H23.8209C23.3709 6.44 22.9009 6.39 22.8809 5.81C22.8609 5.23 23.3509 5.12 23.8509 5.12ZM37.4309 15.71C32.9009 15.71 28.3709 15.71 23.8409 15.71C23.3609 15.71 22.9109 15.64 22.9009 15.08C22.8909 14.52 23.3709 14.39 23.9009 14.39H37.3709C37.8809 14.39 38.4509 14.39 38.4809 15.03C38.5109 15.67 37.9309 15.71 37.4309 15.71ZM37.6509 11.08C36.4409 11.15 35.2209 11.08 34.0009 11.08H24.0209C23.8309 11.08 23.5909 11.14 23.4609 11.08C23.3309 11.02 22.8709 10.62 22.9009 10.43C22.9582 10.284 23.0444 10.1512 23.1544 10.0395C23.2644 9.92773 23.3959 9.83947 23.5409 9.78C23.8316 9.72435 24.1302 9.72435 24.4209 9.78H37.0809C37.2709 9.78 37.4909 9.71 37.6409 9.78C37.946 9.97206 38.2368 10.186 38.5109 10.42C38.2209 10.65 37.9509 11.06 37.6509 11.08V11.08Z" fill="white"/>
<path d="M29.9512 27.3605C31.1312 27.1605 31.1312 27.1605 31.1312 25.9905V24.9905C31.1312 23.7305 31.1312 23.7305 29.9012 23.4305C29.7534 23.3957 29.6156 23.3277 29.4981 23.2316C29.3805 23.1356 29.2864 23.0141 29.2228 22.8763C29.1592 22.7385 29.1278 22.588 29.131 22.4363C29.1342 22.2846 29.1718 22.1355 29.2412 22.0005C29.9712 20.8305 29.9712 20.8305 28.9812 19.8405C28.7912 19.6505 28.6012 19.4705 28.4112 19.2705C27.5212 18.3805 27.5212 18.3805 26.4812 19.0805C26.3599 19.1443 26.2269 19.1825 26.0902 19.1928C25.9536 19.203 25.8164 19.1851 25.687 19.1401C25.5576 19.0951 25.4388 19.0239 25.338 18.9311C25.2373 18.8383 25.1566 18.7258 25.1012 18.6005C24.7212 17.2705 24.7212 17.2705 23.2912 17.2705C22.9582 17.2918 22.6241 17.2918 22.2912 17.2705C21.4612 17.1705 21.1112 17.5205 21.0512 18.3505C20.9912 19.1805 20.1812 19.5105 19.4512 18.9805C19.1998 18.8038 18.9395 18.6402 18.6712 18.4905C18.458 18.612 18.2542 18.7491 18.0612 18.9005C17.5712 19.3705 17.1212 19.9005 16.6212 20.3205C16.5247 20.3944 16.4451 20.4882 16.3879 20.5955C16.3308 20.7027 16.2972 20.821 16.2897 20.9423C16.2821 21.0636 16.3006 21.1852 16.344 21.2987C16.3874 21.4123 16.4546 21.5152 16.5412 21.6005C17.2612 22.6005 17.0112 23.1905 15.7412 23.4105C15.2212 23.5005 14.9812 23.7305 15.0012 24.2605C15.0212 24.7905 15.0212 25.4205 15.0212 26.0005C15.0212 27.1805 15.0212 27.1905 16.1812 27.3805C16.3279 27.4057 16.4667 27.4654 16.5859 27.5547C16.7051 27.6439 16.8014 27.7603 16.8668 27.8941C16.9322 28.0278 16.9649 28.1753 16.9622 28.3242C16.9595 28.4731 16.9214 28.6192 16.8512 28.7505C16.1512 29.8605 16.1512 29.8605 17.0812 30.7505C17.3112 30.9805 17.5412 31.2205 17.7712 31.4405C18.6312 32.3005 18.6312 32.3005 19.6212 31.6105C19.747 31.5449 19.8854 31.5069 20.0272 31.4989C20.1689 31.491 20.3107 31.5133 20.4431 31.5644C20.5755 31.6155 20.6956 31.6941 20.7952 31.7952C20.8949 31.8963 20.9719 32.0174 21.0212 32.1505C21.3112 33.4305 21.3112 33.4305 22.6212 33.4305H23.3512C24.7212 33.4305 24.7212 33.4305 25.0612 32.1605C25.0958 32.0216 25.1624 31.8926 25.2556 31.784C25.3488 31.6753 25.4662 31.5899 25.5982 31.5345C25.7303 31.4792 25.8735 31.4554 26.0163 31.4651C26.1592 31.4749 26.2978 31.5178 26.4212 31.5905C27.5512 32.3005 27.5512 32.3005 28.4212 31.3605L29.0512 30.7405C29.9512 29.8705 29.9512 29.8705 29.2412 28.8105C29.1523 28.6742 29.1004 28.5171 29.0904 28.3547C29.0805 28.1923 29.1129 28.0301 29.1845 27.8839C29.256 27.7378 29.3643 27.6127 29.4987 27.521C29.6331 27.4292 29.789 27.374 29.9512 27.3605V27.3605ZM23.0212 29.0005C22.0536 28.9824 21.1312 28.5879 20.4498 27.9008C19.7683 27.2138 19.3814 26.2882 19.3712 25.3205C19.4202 24.3816 19.8277 23.4973 20.5097 22.8501C21.1916 22.2029 22.096 21.842 23.0362 21.842C23.9763 21.842 24.8807 22.2029 25.5626 22.8501C26.2446 23.4973 26.6521 24.3816 26.7012 25.3205C26.6882 26.2925 26.2963 27.221 25.609 27.9084C24.9216 28.5957 23.9931 28.9876 23.0212 29.0005V29.0005Z" fill="white"/>
<path d="M50.0203 21.5391C50.0203 20.9491 49.7403 20.709 49.1803 20.719C48.2603 20.719 47.3403 20.719 46.4303 20.719H43.5803C43.0103 20.719 42.7103 20.989 42.7103 21.549C42.7103 22.979 42.6503 24.409 42.7103 25.829C42.7518 26.7452 43.1553 27.6075 43.8322 28.2262C44.5091 28.845 45.404 29.1697 46.3203 29.129C47.2644 29.1357 48.175 28.7793 48.8636 28.1334C49.5523 27.4875 49.9664 26.6017 50.0203 25.659C50.0203 24.289 50.0203 22.9091 50.0203 21.5391Z" fill="white"/>
</g>
<defs>
<clipPath id="clip0_108_47">
<rect width="66" height="33" fill="white"/>
</clipPath>
</defs>
</svg>
