<svg width="66" height="33" viewBox="0 0 66 33" fill="none" xmlns="http://www.w3.org/2000/svg">
<path d="M66 0H0V33H66V0Z" fill="#257470"/>
<path d="M47.2586 25.2009C47.2599 25.0206 47.2254 24.8419 47.157 24.6751C47.0886 24.5083 46.9878 24.3567 46.8603 24.2292C46.7328 24.1017 46.5813 24.0009 46.4144 23.9325C46.2476 23.8641 46.0689 23.8296 45.8886 23.8309H43.3786V23.2909C43.3937 23.1351 43.3776 22.9778 43.3313 22.8282C43.285 22.6786 43.2094 22.5397 43.1089 22.4196C43.0083 22.2996 42.8849 22.2007 42.7458 22.1288C42.6067 22.0569 42.4547 22.0135 42.2986 22.0009V22.0009C42.4214 21.0664 42.695 20.1579 43.1086 19.3109C43.1843 19.1122 43.2851 18.924 43.4086 18.7509C43.9742 18.1674 44.3607 17.434 44.5222 16.6375C44.6837 15.8411 44.6135 15.015 44.3199 14.2572C44.0262 13.4995 43.5215 12.8418 42.8655 12.3621C42.2095 11.8825 41.4297 11.6009 40.6186 11.5509C39.588 11.4714 38.5666 11.7939 37.7686 12.4509C37.1928 12.8927 36.7436 13.4784 36.4663 14.149C36.1889 14.8196 36.0931 15.5515 36.1886 16.2709C36.275 17.1109 36.6251 17.902 37.1886 18.5309C37.3285 18.6656 37.4557 18.8129 37.5686 18.9709C37.8691 19.5298 38.1072 20.12 38.2786 20.7309C38.3886 21.1709 38.4786 21.6109 38.5686 22.0509H38.4686C38.3359 22.0467 38.2043 22.0756 38.0856 22.135C37.9669 22.1943 37.8648 22.2823 37.7886 22.3909C37.579 22.6592 37.4662 22.9905 37.4686 23.3309C37.4686 23.5009 37.4686 23.6709 37.4686 23.8509H34.8886C34.539 23.861 34.2066 24.0043 33.9593 24.2516C33.712 24.4989 33.5687 24.8314 33.5586 25.1809C33.5586 25.9609 33.5586 26.7309 33.5586 27.5109C33.5586 27.7552 33.6279 27.9945 33.7586 28.2009C33.8788 28.4052 34.0496 28.5751 34.2545 28.6942C34.4594 28.8133 34.6916 28.8776 34.9286 28.8809V29.3109C34.9258 29.4347 34.9483 29.5577 34.9947 29.6724C35.0411 29.7872 35.1104 29.8913 35.1983 29.9783C35.2863 30.0654 35.3912 30.1336 35.5064 30.1787C35.6216 30.2239 35.7449 30.245 35.8686 30.2409H45.0386C45.1576 30.2409 45.2755 30.2173 45.3853 30.1715C45.4952 30.1256 45.5948 30.0584 45.6786 29.9738C45.7623 29.8892 45.8283 29.7888 45.873 29.6784C45.9176 29.5681 45.9399 29.4499 45.9386 29.3309V28.8909C46.1194 28.8858 46.2974 28.8449 46.4623 28.7705C46.6272 28.6962 46.7758 28.59 46.8994 28.458C47.0231 28.326 47.1194 28.1708 47.1827 28.0014C47.2461 27.832 47.2753 27.6517 47.2686 27.4709L47.2586 25.2009ZM42.6986 26.1009C42.7012 25.9807 42.7508 25.8662 42.8368 25.7821C42.9228 25.698 43.0383 25.6509 43.1586 25.6509C43.2764 25.6558 43.388 25.7048 43.4713 25.7882C43.5547 25.8715 43.6037 25.9832 43.6086 26.1009V26.5809C43.6073 26.64 43.5944 26.6983 43.5705 26.7524C43.5467 26.8065 43.5125 26.8554 43.4698 26.8962C43.427 26.9371 43.3767 26.9691 43.3216 26.9905C43.2665 27.0119 43.2077 27.0223 43.1486 27.0209C43.031 27.021 42.918 26.9749 42.8339 26.8927C42.7498 26.8104 42.7012 26.6985 42.6986 26.5809C42.6886 26.4211 42.6886 26.2608 42.6986 26.1009V26.1009ZM41.3186 25.6509C41.4356 25.6507 41.5482 25.695 41.6337 25.7749C41.7192 25.8548 41.771 25.9642 41.7786 26.0809C41.7836 26.1675 41.7836 26.2543 41.7786 26.3409V26.5709C41.7786 26.6903 41.7312 26.8047 41.6468 26.8891C41.5624 26.9735 41.4479 27.0209 41.3286 27.0209C41.2695 27.0223 41.2107 27.0119 41.1556 26.9905C41.1005 26.9691 41.0502 26.9371 41.0074 26.8962C40.9647 26.8554 40.9305 26.8065 40.9066 26.7524C40.8828 26.6983 40.8699 26.64 40.8686 26.5809C40.8586 26.4144 40.8586 26.2474 40.8686 26.0809C40.8783 25.9667 40.9293 25.86 41.0122 25.7808C41.0951 25.7016 41.2041 25.6554 41.3186 25.6509V25.6509ZM38.1286 15.7809C38.1457 15.2362 38.3564 14.7155 38.723 14.3122C39.0896 13.909 39.588 13.6497 40.1286 13.5809H40.3786C40.4807 13.569 40.584 13.5909 40.6725 13.6433C40.761 13.6957 40.8299 13.7756 40.8686 13.8709C40.9106 13.9618 40.9196 14.0644 40.894 14.1611C40.8684 14.2579 40.81 14.3427 40.7286 14.4009C40.6588 14.46 40.57 14.492 40.4786 14.4909C40.2424 14.4875 40.0094 14.5456 39.8025 14.6595C39.5955 14.7735 39.4219 14.9394 39.2986 15.1409C39.1885 15.3532 39.1174 15.5835 39.0886 15.8209C39.0886 16.1209 38.8886 16.3309 38.6186 16.3209C38.5484 16.3266 38.4778 16.3161 38.4122 16.2902C38.3467 16.2643 38.288 16.2237 38.2407 16.1716C38.1933 16.1194 38.1586 16.057 38.1391 15.9893C38.1197 15.9216 38.1161 15.8503 38.1286 15.7809V15.7809ZM39.0386 26.3309C39.0299 26.2211 39.0299 26.1108 39.0386 26.0009C39.0699 25.8989 39.1365 25.8113 39.2264 25.7539C39.3164 25.6964 39.4238 25.6728 39.5296 25.6872C39.6353 25.7016 39.7325 25.7531 39.8037 25.8326C39.875 25.912 39.9157 26.0142 39.9186 26.1209C39.9286 26.2874 39.9286 26.4544 39.9186 26.6209C39.9173 26.6787 39.9046 26.7357 39.8813 26.7886C39.858 26.8414 39.8245 26.8892 39.7827 26.9292C39.7409 26.9691 39.6916 27.0004 39.6378 27.0213C39.5839 27.0422 39.5264 27.0522 39.4686 27.0509C39.3509 27.0537 39.2368 27.0102 39.1509 26.9298C39.0649 26.8494 39.0138 26.7385 39.0086 26.6209V26.3609L39.0386 26.3309ZM37.2286 26.1009C37.2448 25.9918 37.2997 25.8922 37.3832 25.8202C37.4667 25.7482 37.5733 25.7086 37.6836 25.7086C37.7939 25.7086 37.9005 25.7482 37.984 25.8202C38.0675 25.8922 38.1224 25.9918 38.1386 26.1009V26.5809C38.1373 26.64 38.1244 26.6983 38.1005 26.7524C38.0767 26.8065 38.0425 26.8554 37.9998 26.8962C37.957 26.9371 37.9067 26.9691 37.8516 26.9905C37.7965 27.0119 37.7377 27.0223 37.6786 27.0209C37.5617 27.0185 37.4502 26.9717 37.3666 26.8899C37.283 26.8082 37.2337 26.6977 37.2286 26.5809C37.2236 26.501 37.2236 26.4208 37.2286 26.3409C37.2203 26.2612 37.2169 26.1811 37.2186 26.1009H37.2286ZM35.3986 26.5809V26.3309C35.3882 26.2111 35.3882 26.0907 35.3986 25.9709C35.4286 25.8706 35.4934 25.7842 35.5814 25.7274C35.6694 25.6706 35.7748 25.647 35.8786 25.6609C35.9849 25.6747 36.0831 25.7253 36.1561 25.8038C36.2292 25.8823 36.2725 25.9839 36.2786 26.0909C36.2886 26.2574 36.2886 26.4244 36.2786 26.5909C36.2773 26.6496 36.2643 26.7074 36.2404 26.761C36.2164 26.8145 36.182 26.8627 36.1392 26.9028C36.0963 26.9429 36.0459 26.974 35.9908 26.9943C35.9358 27.0145 35.8772 27.0236 35.8186 27.0209C35.7045 27.0159 35.5965 26.9676 35.5167 26.8859C35.4368 26.8042 35.391 26.6951 35.3886 26.5809H35.3986ZM44.9786 29.3009H35.8486V28.8609H44.9686L44.9786 29.3009ZM45.4386 26.5809C45.4224 26.69 45.3675 26.7896 45.284 26.8616C45.2005 26.9337 45.0939 26.9733 44.9836 26.9733C44.8733 26.9733 44.7667 26.9337 44.6832 26.8616C44.5997 26.7896 44.5448 26.69 44.5286 26.5809V26.1009C44.5335 25.9832 44.5825 25.8715 44.6658 25.7882C44.7492 25.7048 44.8608 25.6558 44.9786 25.6509C45.0956 25.6507 45.2082 25.695 45.2937 25.7749C45.3792 25.8548 45.431 25.9642 45.4386 26.0809C45.4436 26.1675 45.4436 26.2543 45.4386 26.3409C45.4449 26.421 45.4416 26.5016 45.4286 26.5809H45.4386Z" fill="white"/>
<path d="M33.7284 29.4114C33.6142 29.3507 33.4877 29.3165 33.3584 29.3114H24.7684C24.3584 29.3114 24.2084 29.1514 24.2084 28.7514V17.2014C24.2084 12.2947 24.2084 7.39141 24.2084 2.49141C24.2008 2.41423 24.2103 2.33633 24.2361 2.26321C24.2619 2.19008 24.3035 2.12352 24.3579 2.06821C24.4122 2.01289 24.4781 1.97019 24.5507 1.94309C24.6234 1.916 24.7011 1.90519 24.7784 1.91141C28.2784 1.91141 31.7784 1.91141 35.2784 1.91141H41.4984C41.566 1.90548 41.6341 1.91426 41.698 1.93714C41.7619 1.96003 41.8201 1.99648 41.8685 2.044C41.917 2.09151 41.9546 2.14895 41.9787 2.21237C42.0029 2.2758 42.013 2.3437 42.0084 2.41141V10.7314C42.0025 10.7698 42.0118 10.8089 42.0341 10.8406C42.0565 10.8723 42.0903 10.8941 42.1284 10.9014C42.3284 10.9714 42.5184 11.0614 42.7184 11.1514L42.9184 11.2614V2.43141C42.9284 2.24185 42.8985 2.0523 42.8308 1.87496C42.7631 1.69762 42.6591 1.53641 42.5253 1.40172C42.3916 1.26702 42.2311 1.16181 42.0542 1.09287C41.8774 1.02393 41.688 0.992772 41.4984 1.00141H24.6784C24.4925 0.99857 24.308 1.03359 24.1361 1.10433C23.9642 1.17508 23.8085 1.28007 23.6785 1.41291C23.5484 1.54575 23.4468 1.70367 23.3797 1.87705C23.3127 2.05043 23.2816 2.23564 23.2884 2.42141C23.2884 2.68141 23.2884 2.95141 23.2884 3.21141L19.1884 4.13141C18.999 4.15425 18.8165 4.217 18.6531 4.31551C18.4896 4.41402 18.3489 4.54606 18.2403 4.70292C18.1316 4.85978 18.0574 5.0379 18.0226 5.22552C17.9878 5.41314 17.9932 5.60601 18.0384 5.79141C18.2684 6.79141 18.5084 7.79141 18.7484 8.85141C19.1817 10.7114 19.6184 12.5714 20.0584 14.4314C20.4784 16.2514 20.9084 18.0714 21.3284 19.8814C21.6484 21.2514 21.9684 22.6114 22.3284 23.9714C22.5984 25.0914 22.8584 26.2114 23.1184 27.3314C23.1927 27.6048 23.2528 27.8818 23.2984 28.1614C23.2984 28.3914 23.2984 28.6314 23.2984 28.8614C23.3066 29.0354 23.3403 29.2072 23.3984 29.3714C23.4982 29.6256 23.6734 29.8433 23.9004 29.9952C24.1273 30.1471 24.3953 30.226 24.6684 30.2214H34.2484C34.2031 30.1202 34.163 30.0167 34.1284 29.9114C34.1135 29.7996 34.0684 29.6939 33.9979 29.6058C33.9275 29.5177 33.8343 29.4505 33.7284 29.4114V29.4114Z" fill="white"/>
<path d="M33.5593 23.3418L34.3693 22.9618C34.1512 22.4312 33.8081 21.9612 33.3693 21.5918C32.7672 21.0798 32.0229 20.7644 31.2363 20.688C30.4496 20.6117 29.6585 20.7779 28.9692 21.1645C28.2799 21.5511 27.7254 22.1394 27.3804 22.8505C27.0354 23.5615 26.9164 24.3611 27.0393 25.1418C27.1268 25.7129 27.3435 26.2565 27.6727 26.7313C28.0019 27.2061 28.4351 27.5996 28.9393 27.8818C29.6447 28.2968 30.4667 28.4689 31.2793 28.3718C31.7358 28.3346 32.1808 28.209 32.5893 28.0018C32.612 27.9895 32.6318 27.9723 32.6474 27.9516C32.6629 27.9309 32.6738 27.9071 32.6793 27.8818C32.6793 27.5618 32.6793 27.2418 32.6793 26.8818C32.3691 27.145 32.0086 27.3424 31.6198 27.4619C31.231 27.5814 30.8219 27.6206 30.4174 27.5771C30.013 27.5336 29.6216 27.4083 29.2671 27.2088C28.9126 27.0093 28.6023 26.7398 28.3552 26.4167C28.1081 26.0935 27.9293 25.7235 27.8297 25.3291C27.73 24.9347 27.7116 24.5242 27.7756 24.1225C27.8396 23.7207 27.9846 23.3362 28.2019 22.9923C28.4191 22.6483 28.704 22.3522 29.0393 22.1218C29.3475 21.8859 29.7011 21.7162 30.0779 21.6233C30.4548 21.5304 30.8467 21.5163 31.2293 21.5818C31.7354 21.6524 32.2151 21.8512 32.6229 22.1592C33.0306 22.4672 33.353 22.8743 33.5593 23.3418V23.3418Z" fill="white"/>
<path d="M39.2683 4.59227C39.2512 4.48102 39.1939 4.37988 39.1073 4.30801C39.0207 4.23614 38.9108 4.19852 38.7983 4.20227H27.4183C27.3529 4.19254 27.2861 4.19704 27.2226 4.21544C27.1591 4.23384 27.1003 4.26572 27.0502 4.3089C27.0001 4.35209 26.96 4.40556 26.9324 4.46568C26.9049 4.52579 26.8906 4.59114 26.8906 4.65727C26.8906 4.72339 26.9049 4.78874 26.9324 4.84886C26.96 4.90897 27.0001 4.96245 27.0502 5.00563C27.1003 5.04881 27.1591 5.08069 27.2226 5.09909C27.2861 5.1175 27.3529 5.12199 27.4183 5.11227H38.7983C38.8411 5.12177 38.8855 5.12177 38.9283 5.11227C39.0409 5.08591 39.1391 5.01719 39.2024 4.92036C39.2657 4.82353 39.2893 4.70603 39.2683 4.59227V4.59227Z" fill="white"/>
<path d="M38.7979 7.85201H27.4179C27.3367 7.85602 27.2583 7.88244 27.1912 7.92833C27.1241 7.97423 27.0711 8.0378 27.0379 8.11201C27.0021 8.18347 26.986 8.26319 26.9912 8.34295C26.9964 8.42271 27.0228 8.49965 27.0676 8.56584C27.1124 8.63204 27.174 8.6851 27.2461 8.71958C27.3183 8.75405 27.3983 8.7687 27.4779 8.76201H38.7979C38.8595 8.76477 38.921 8.75483 38.9786 8.73282C39.0362 8.71081 39.0887 8.67719 39.1328 8.63406C39.1769 8.59092 39.2116 8.53919 39.2348 8.48207C39.2581 8.42495 39.2693 8.36366 39.2679 8.30201C39.268 8.24119 39.2557 8.18099 39.2318 8.12505C39.208 8.06911 39.173 8.01858 39.1291 7.97652C39.0852 7.93447 39.0332 7.90175 38.9763 7.88035C38.9193 7.85894 38.8587 7.8493 38.7979 7.85201Z" fill="white"/>
<path d="M39.2692 10.1414C39.2694 10.0775 39.2564 10.0142 39.2308 9.95564C39.2052 9.89705 39.1677 9.84444 39.1206 9.80116C39.0736 9.75788 39.018 9.72488 38.9575 9.70426C38.897 9.68365 38.8329 9.67587 38.7692 9.68143H27.2892C27.1786 9.70775 27.082 9.77498 27.0189 9.86959C26.9559 9.96421 26.9309 10.0792 26.9492 10.1914C26.9682 10.3018 27.0261 10.4017 27.1122 10.4732C27.1984 10.5447 27.3072 10.5831 27.4192 10.5814H38.7692C38.8312 10.5869 38.8937 10.5797 38.9529 10.5603C39.0121 10.5409 39.0667 10.5097 39.1134 10.4685C39.1602 10.4274 39.1981 10.3772 39.2249 10.321C39.2517 10.2647 39.2667 10.2037 39.2692 10.1414Z" fill="white"/>
<path d="M38.7781 6.00189H27.4481C27.3919 5.99156 27.3343 5.99156 27.2781 6.00189C27.1713 6.03019 27.0786 6.09679 27.0178 6.189C26.9569 6.2812 26.9321 6.39257 26.9481 6.50189C26.9631 6.61593 27.0212 6.71989 27.1105 6.79242C27.1997 6.86495 27.3134 6.90054 27.4281 6.89189H38.8181C38.934 6.89201 39.0456 6.84735 39.1294 6.76724C39.2133 6.68712 39.2629 6.57774 39.2681 6.46189C39.2682 6.39887 39.2554 6.3365 39.2304 6.27864C39.2055 6.22078 39.1689 6.16867 39.1229 6.12554C39.077 6.08241 39.0227 6.04917 38.9633 6.02791C38.904 6.00664 38.841 5.99778 38.7781 6.00189V6.00189Z" fill="white"/>
<path d="M36.4984 12.361C36.8084 12.081 37.0984 11.791 37.3984 11.501H27.3984C27.3113 11.4951 27.2245 11.5158 27.1494 11.5605C27.0744 11.6052 27.0148 11.6716 26.9784 11.751C26.9407 11.822 26.9227 11.9018 26.9262 11.9822C26.9298 12.0625 26.9548 12.1404 26.9987 12.2078C27.0426 12.2752 27.1038 12.3296 27.1758 12.3653C27.2479 12.401 27.3282 12.4168 27.4084 12.411H36.3084C36.3755 12.4154 36.4422 12.3978 36.4984 12.361V12.361Z" fill="white"/>
<path d="M35.6594 13.3319H27.4394C27.3762 13.3262 27.3124 13.334 27.2524 13.3547C27.1924 13.3754 27.1375 13.4086 27.0912 13.452C27.0449 13.4954 27.0084 13.5482 26.9839 13.6068C26.9595 13.6653 26.9477 13.7284 26.9494 13.7919C26.9506 13.854 26.9644 13.9153 26.99 13.972C27.0155 14.0287 27.0523 14.0796 27.0981 14.1217C27.1439 14.1637 27.1978 14.1961 27.2564 14.2167C27.3151 14.2374 27.3773 14.2459 27.4394 14.2419H35.4394L35.8094 13.3319H35.6594Z" fill="white"/>
<path d="M35.4176 17.1005C35.4176 17.0005 35.3576 16.9805 35.2576 16.9805H27.2576C27.1516 17.0127 27.0609 17.0822 27.002 17.176C26.9431 17.2698 26.9201 17.3818 26.9371 17.4912C26.9541 17.6007 27.0101 17.7003 27.0947 17.7718C27.1793 17.8433 27.2868 17.8819 27.3976 17.8805H35.6576C35.5976 17.6205 35.4976 17.3605 35.4176 17.1005Z" fill="white"/>
<path d="M27.4385 16.0723H35.2485V15.1523H27.4385C27.3165 15.1523 27.1995 15.2008 27.1132 15.2871C27.027 15.3733 26.9785 15.4903 26.9785 15.6123C26.9785 15.7343 27.027 15.8513 27.1132 15.9376C27.1995 16.0239 27.3165 16.0723 27.4385 16.0723V16.0723Z" fill="white"/>
<path d="M31.918 23.2409L31.118 24.0109L30.338 24.7709L29.818 24.2709C29.7742 24.2264 29.7221 24.1911 29.6646 24.167C29.6071 24.1429 29.5453 24.1305 29.483 24.1305C29.4206 24.1305 29.3589 24.1429 29.3014 24.167C29.2438 24.1911 29.1917 24.2264 29.148 24.2709C29.1025 24.313 29.0663 24.3641 29.0415 24.4208C29.0167 24.4776 29.0039 24.5389 29.0039 24.6009C29.0039 24.6628 29.0167 24.7241 29.0415 24.7809C29.0663 24.8377 29.1025 24.8887 29.148 24.9309C29.418 25.2109 29.698 25.4909 29.988 25.7609C30.0302 25.8113 30.083 25.8519 30.1426 25.8797C30.2022 25.9075 30.2672 25.922 30.333 25.922C30.3987 25.922 30.4637 25.9075 30.5233 25.8797C30.5829 25.8519 30.6357 25.8113 30.678 25.7609C30.938 25.5209 31.188 25.2609 31.438 25.0109C31.688 24.7609 32.168 24.3109 32.528 23.9409C32.6068 23.8589 32.6508 23.7496 32.6508 23.6359C32.6508 23.5221 32.6068 23.4128 32.528 23.3309C32.4569 23.241 32.3542 23.1817 32.2408 23.165C32.1275 23.1483 32.012 23.1754 31.918 23.2409V23.2409Z" fill="white"/>
</svg>
