<svg width="66" height="33" viewBox="0 0 66 33" fill="none" xmlns="http://www.w3.org/2000/svg">
<path d="M66 0H0V33H66V0Z" fill="#257470"/>
<path d="M26.2109 11.06L26.0009 10.86C26.1909 10.6 26.3609 10.34 26.5609 10.1C26.6109 10.03 26.7509 10.01 26.8509 10C27.1837 10.0256 27.518 10.0256 27.8509 10C28.4181 9.87544 28.9199 9.54695 29.2609 9.07688C29.6019 8.60681 29.7585 8.02788 29.7009 7.45C29.6688 7.08651 29.5538 6.7352 29.3649 6.42301C29.176 6.11081 28.9181 5.84603 28.611 5.64894C28.3039 5.45186 27.9557 5.32772 27.5932 5.28603C27.2307 5.24435 26.8634 5.28623 26.5196 5.40846C26.1758 5.53069 25.8645 5.73003 25.6096 5.99119C25.3548 6.25236 25.1631 6.56841 25.0493 6.91512C24.9355 7.26184 24.9027 7.63 24.9532 7.99139C25.0037 8.35278 25.1363 8.6978 25.3409 9C25.1209 9.3 24.9109 9.6 24.6809 9.9C23.3048 9.06952 21.7534 8.57292 20.1509 8.45V6.75H23.3009V2H15.3909V6.76H18.5409V8.48C16.9338 8.60295 15.3784 9.10315 14.0009 9.94L13.3609 9C13.5477 8.7248 13.6761 8.41418 13.738 8.08735C13.7999 7.76053 13.7941 7.42448 13.7209 7.1C13.6106 6.64736 13.3699 6.23704 13.0286 5.91991C12.6873 5.60278 12.2605 5.39279 11.801 5.31596C11.3415 5.23914 10.8695 5.29887 10.4437 5.48774C10.0178 5.67661 9.65669 5.98632 9.40517 6.37848C9.15365 6.77063 9.02276 7.22798 9.02872 7.69382C9.03468 8.15966 9.17722 8.61351 9.43869 8.9991C9.70015 9.3847 10.069 9.68507 10.4996 9.86299C10.9302 10.0409 11.4035 10.0885 11.8609 10C11.9409 10 12.0709 10 12.1109 10.06C12.3209 10.31 12.5009 10.59 12.7109 10.89L12.5809 11C11.2208 12.1589 10.189 13.6547 9.58874 15.3378C8.98853 17.0208 8.84099 18.832 9.16088 20.59C9.51747 22.5834 10.4499 24.4288 11.8431 25.8984C13.2363 27.368 15.0293 28.3976 17.0009 28.86C17.5209 28.97 18.0009 29.04 18.5609 29.13H20.1509C20.6609 29.04 21.1509 28.98 21.6809 28.86C23.533 28.4387 25.2328 27.5143 26.5933 26.1889C27.9538 24.8634 28.922 23.1881 29.3914 21.3476C29.8609 19.5072 29.8133 17.5728 29.2538 15.7577C28.6944 13.9425 27.6449 12.3169 26.2209 11.06H26.2109ZM27.3009 6.86C27.5089 6.86991 27.7056 6.95767 27.852 7.10586C27.9983 7.25406 28.0836 7.45185 28.0909 7.66C28.0857 7.86962 27.9995 8.06907 27.8503 8.21641C27.7011 8.36374 27.5006 8.44747 27.2909 8.45C27.0836 8.43786 26.8882 8.34939 26.7423 8.20166C26.5964 8.05393 26.5104 7.8574 26.5009 7.65C26.5108 7.44196 26.5986 7.24526 26.7467 7.09891C26.8949 6.95257 27.0927 6.86729 27.3009 6.86ZM11.4009 8.45C11.2054 8.42804 11.0249 8.33483 10.8938 8.18818C10.7627 8.04152 10.6902 7.85171 10.6902 7.655C10.6902 7.45829 10.7627 7.26848 10.8938 7.12182C11.0249 6.97517 11.2054 6.88196 11.4009 6.86C11.61 6.86711 11.809 6.95204 11.9588 7.09817C12.1087 7.24429 12.1985 7.44108 12.2109 7.65C12.2057 7.86227 12.1184 8.06427 11.9673 8.21348C11.8163 8.36268 11.6132 8.44747 11.4009 8.45V8.45ZM17.0009 5.15V3.59H21.7409V5.15H17.0009ZM19.3709 27.54C17.6403 27.54 15.9486 27.0268 14.5096 26.0654C13.0707 25.1039 11.9492 23.7373 11.2869 22.1385C10.6247 20.5396 10.4514 18.7803 10.789 17.083C11.1266 15.3856 11.96 13.8265 13.1837 12.6028C14.4074 11.3791 15.9665 10.5457 17.6638 10.2081C19.3612 9.87051 21.1205 10.0438 22.7194 10.7061C24.3182 11.3683 25.6848 12.4898 26.6462 13.9288C27.6077 15.3677 28.1209 17.0594 28.1209 18.79C28.1129 21.1134 27.1844 23.3389 25.5387 24.979C23.893 26.6191 21.6643 27.54 19.3409 27.54H19.3709Z" fill="white"/>
<path d="M25.5205 17.9998C25.7057 17.9156 25.883 17.8152 26.0505 17.6998L26.7405 17.2998L24.3505 13.1598L22.7005 14.1598C22.6393 14.1939 22.5705 14.2119 22.5005 14.2119C22.4304 14.2119 22.3616 14.1939 22.3005 14.1598C22.0932 14.1013 21.9172 13.9637 21.8105 13.7766C21.7039 13.5895 21.6751 13.3679 21.7305 13.1598C21.7405 13.0266 21.7405 12.8929 21.7305 12.7598V11.7598H17.0005C17.0005 11.7598 17.0005 11.7598 17.0005 11.8198C16.9765 12.2127 16.9765 12.6068 17.0005 12.9998C17.0597 13.2224 17.0303 13.4594 16.9184 13.6608C16.8065 13.8623 16.6208 14.0124 16.4005 14.0798C16.3457 14.1114 16.2837 14.128 16.2205 14.128C16.1573 14.128 16.0952 14.1114 16.0405 14.0798L14.6905 13.2998L14.3705 13.1098C13.5605 14.5098 12.7705 15.8698 11.9805 17.2498C12.5505 17.5798 13.0905 17.8998 13.6305 18.2498C13.6855 18.2814 13.7318 18.3264 13.765 18.3806C13.7981 18.4347 13.8172 18.4963 13.8205 18.5598C13.852 18.6701 13.8608 18.7857 13.8464 18.8995C13.832 19.0134 13.7947 19.1231 13.7368 19.2221C13.6789 19.3212 13.6015 19.4075 13.5093 19.4758C13.4171 19.5442 13.3121 19.5931 13.2005 19.6198C13.144 19.6438 13.0903 19.6739 13.0405 19.7098L12.0005 20.3098L14.3905 24.4398C14.8105 24.1998 15.2305 23.9998 15.6005 23.7398C15.6816 23.656 15.7787 23.5894 15.8861 23.5439C15.9934 23.4984 16.1089 23.475 16.2255 23.475C16.3421 23.475 16.4575 23.4984 16.5649 23.5439C16.6722 23.5894 16.7694 23.656 16.8505 23.7398C16.9294 23.8062 16.9825 23.8982 17.0005 23.9998C17.0005 24.5498 17.0005 25.0998 17.0005 25.6498V25.9498H21.7705C21.7705 25.2898 21.7705 24.6598 21.7705 24.0198C21.7699 23.9727 21.7794 23.926 21.7984 23.8829C21.8174 23.8397 21.8454 23.8012 21.8805 23.7698C22.5005 23.3698 22.5005 23.3698 23.1405 23.7698L23.6905 24.0798L24.3805 24.4798C25.1905 23.0898 25.9805 21.7198 26.7705 20.3398C26.2005 20.0098 25.6505 19.6998 25.1005 19.3398C25.0245 19.2709 24.972 19.18 24.9505 19.0798C24.9136 18.9715 24.8993 18.8569 24.9082 18.743C24.9172 18.629 24.9494 18.5181 25.0028 18.4169C25.0561 18.3158 25.1296 18.2267 25.2186 18.155C25.3076 18.0832 25.4103 18.0304 25.5205 17.9998V17.9998ZM23.1805 19.8398C23.1661 19.8758 23.1591 19.9144 23.1599 19.9532C23.1606 19.992 23.1692 20.0303 23.1851 20.0657C23.2009 20.1012 23.2237 20.1331 23.2521 20.1595C23.2806 20.186 23.314 20.2065 23.3505 20.2198C23.7605 20.4298 24.1505 20.6698 24.5605 20.9098L23.7705 22.2798L22.5505 21.5698C22.5253 21.5434 22.495 21.5225 22.4615 21.5082C22.428 21.4939 22.3919 21.4865 22.3555 21.4865C22.319 21.4865 22.283 21.4939 22.2495 21.5082C22.2159 21.5225 22.1857 21.5434 22.1605 21.5698C21.6549 22.0684 21.0327 22.4328 20.3505 22.6298C20.3164 22.6345 20.2837 22.6462 20.2544 22.6641C20.2251 22.6821 20.1998 22.7059 20.1801 22.734C20.1604 22.7622 20.1467 22.7941 20.1399 22.8278C20.1331 22.8614 20.1333 22.8962 20.1405 22.9298C20.1405 23.3898 20.1405 23.8598 20.1405 24.3398H18.5505V23.1998C18.5505 22.7098 18.5505 22.6998 18.1005 22.5398C17.5303 22.348 17.0108 22.0301 16.5805 21.6098C16.5155 21.5486 16.4297 21.5145 16.3405 21.5145C16.2513 21.5145 16.1654 21.5486 16.1005 21.6098C15.7205 21.8498 15.3305 22.0698 14.9305 22.2898L14.8205 22.1198L14.1405 20.9298C14.5505 20.6898 14.9505 20.4498 15.3605 20.2298C15.4261 20.205 15.4795 20.1556 15.5093 20.0922C15.5392 20.0287 15.5432 19.9561 15.5205 19.8898C15.3355 19.1952 15.3355 18.4643 15.5205 17.7698C15.5428 17.7048 15.5385 17.6336 15.5086 17.5717C15.4786 17.5099 15.4253 17.4625 15.3605 17.4398C14.9505 17.2198 14.5605 16.9798 14.1305 16.7298L14.9305 15.3698C15.3505 15.6098 15.7705 15.8398 16.1705 16.0898C16.1928 16.1121 16.2193 16.1299 16.2484 16.142C16.2776 16.1541 16.3089 16.1604 16.3405 16.1604C16.3721 16.1604 16.4033 16.1541 16.4325 16.142C16.4617 16.1299 16.4882 16.1121 16.5105 16.0898C17.0228 15.578 17.6555 15.2031 18.3505 14.9998C18.3832 14.9951 18.4146 14.9836 18.4427 14.9662C18.4709 14.9488 18.4951 14.9257 18.5138 14.8985C18.5326 14.8712 18.5456 14.8404 18.5519 14.8079C18.5582 14.7755 18.5577 14.742 18.5505 14.7098C18.5505 14.2398 18.5505 13.7598 18.5505 13.2798H20.1405C20.1405 13.6998 20.1405 14.1298 20.1405 14.5598C20.1405 14.8298 20.2005 14.9698 20.4805 15.0398C21.111 15.2305 21.6846 15.574 22.1505 16.0398C22.1777 16.0698 22.2108 16.0938 22.2479 16.1102C22.2849 16.1267 22.325 16.1351 22.3655 16.1351C22.406 16.1351 22.446 16.1267 22.4831 16.1102C22.5201 16.0938 22.5533 16.0698 22.5805 16.0398C22.9705 15.7998 23.3705 15.5798 23.7805 15.3498L24.5705 16.7198C24.1605 16.9498 23.7705 17.1898 23.3705 17.3998C23.3331 17.412 23.2986 17.4318 23.2691 17.4578C23.2396 17.4838 23.2157 17.5156 23.1989 17.5511C23.1821 17.5867 23.1726 17.6253 23.1712 17.6646C23.1697 17.7039 23.1763 17.7431 23.1905 17.7798C23.3635 18.4492 23.3601 19.1521 23.1805 19.8198V19.8398Z" fill="white"/>
<path d="M19.3702 16.4102C19.0594 16.4089 18.7515 16.4689 18.464 16.5869C18.1765 16.705 17.9152 16.8786 17.6949 17.0979C17.4747 17.3171 17.3 17.5777 17.1808 17.8647C17.0616 18.1517 17.0002 18.4594 17.0002 18.7702C16.9943 19.2433 17.1289 19.7074 17.387 20.1039C17.6451 20.5005 18.0151 20.8114 18.4501 20.9975C18.885 21.1836 19.3655 21.2363 19.8305 21.1492C20.2955 21.062 20.7242 20.8387 21.0622 20.5077C21.4002 20.1767 21.6324 19.7528 21.7293 19.2897C21.8262 18.8266 21.7835 18.3452 21.6066 17.9064C21.4297 17.4676 21.1266 17.0912 20.7356 16.8249C20.3445 16.5585 19.8833 16.4142 19.4102 16.4102H19.3702ZM19.3702 19.5902C19.1604 19.5827 18.9612 19.496 18.8128 19.3476C18.6643 19.1992 18.5776 19 18.5702 18.7902C18.5753 18.5823 18.6601 18.3842 18.8072 18.2372C18.9543 18.0901 19.1523 18.0053 19.3602 18.0002C19.4721 17.9876 19.5854 17.9988 19.6926 18.033C19.7999 18.0672 19.8987 18.1237 19.9827 18.1988C20.0666 18.2738 20.1338 18.3657 20.1797 18.4685C20.2257 18.5713 20.2495 18.6826 20.2495 18.7952C20.2495 18.9078 20.2257 19.0191 20.1797 19.1219C20.1338 19.2246 20.0666 19.3166 19.9827 19.3916C19.8987 19.4666 19.7999 19.5231 19.6926 19.5573C19.5854 19.5916 19.4721 19.6027 19.3602 19.5902H19.3702Z" fill="white"/>
<path d="M46.3604 2.57998C45.642 2.20163 44.8423 2.00391 44.0304 2.00391C43.2185 2.00391 42.4188 2.20163 41.7004 2.57998L31.0004 7.93998C30.9197 7.96875 30.8512 8.0239 30.8058 8.0965C30.7604 8.1691 30.7409 8.2549 30.7504 8.33998C30.7504 13.6333 30.7504 18.9266 30.7504 24.22C30.7431 24.3009 30.7627 24.3819 30.8061 24.4506C30.8494 24.5193 30.9142 24.5718 30.9904 24.6L41.7604 30C42.3144 30.2871 42.9189 30.4637 43.5404 30.52C43.6026 30.5273 43.6633 30.5442 43.7204 30.57H44.3404C44.5696 30.5412 44.7967 30.4977 45.0204 30.44C45.4808 30.3275 45.9321 30.1804 46.3704 30L57.3704 24.52V8.05998L46.3604 2.57998ZM49.9004 6.49998L54.1104 8.58998L54.2204 8.66998L53.7704 8.89998L44.2304 13.67C44.1179 13.714 43.9929 13.714 43.8804 13.67L39.6804 11.57L39.5404 11.48L41.1804 10.65L49.5004 6.52998C49.5616 6.49821 49.6286 6.47916 49.6973 6.47401C49.7661 6.46885 49.8351 6.47769 49.9004 6.49998V6.49998ZM34.7304 8.19998C37.3371 6.86665 39.9504 5.55998 42.5704 4.27998C43.0154 4.04359 43.5115 3.91998 44.0154 3.91998C44.5192 3.91998 45.0154 4.04359 45.4604 4.27998C46.1504 4.61998 46.8404 4.95998 47.5804 5.33998L47.0004 5.64998L37.6004 10.33C37.4784 10.3789 37.3423 10.3789 37.2204 10.33L33.9304 8.71998C33.9304 8.71998 33.9304 8.71998 33.8404 8.64998L34.7304 8.19998ZM55.1904 23.42C52.0004 25 48.8304 26.58 45.6604 28.19C45.1677 28.4632 44.6137 28.6065 44.0504 28.6065C43.4871 28.6065 42.933 28.4632 42.4404 28.19C41.1504 27.53 39.8504 26.89 38.5504 26.25C38.474 26.223 38.4093 26.1704 38.3674 26.1011C38.3254 26.0318 38.3088 25.9502 38.3204 25.87C38.3204 25.04 38.3204 24.21 38.3204 23.38V22.93H36.4204V25.15L36.2004 25.07L32.8104 23.38C32.7465 23.3561 32.6922 23.3118 32.6561 23.2539C32.6199 23.1961 32.6039 23.1279 32.6104 23.06C32.6104 18.8466 32.6104 14.6333 32.6104 10.42C32.6059 10.3567 32.6059 10.2932 32.6104 10.23L32.8204 10.31L36.1804 12C36.2602 12.029 36.3277 12.0846 36.3714 12.1574C36.4151 12.2302 36.4324 12.3159 36.4204 12.4C36.4204 13.59 36.4204 14.77 36.4204 15.95V16.27H38.3304V13.06L39.3304 13.54C40.4904 14.12 41.6504 14.71 42.8204 15.28C42.9178 15.3136 43.0007 15.3795 43.0553 15.4669C43.1099 15.5543 43.1329 15.6577 43.1204 15.76C43.1204 18.96 43.1204 22.16 43.1204 25.36C43.1204 25.86 43.1204 25.79 43.5504 25.79C43.9804 25.79 44.5504 25.79 45.0404 25.79V25.48C45.0404 22.23 45.0404 18.98 45.0404 15.74C45.0311 15.6459 45.0523 15.5514 45.101 15.4703C45.1496 15.3893 45.223 15.326 45.3104 15.29C48.5971 13.6633 51.8837 12.02 55.1704 10.36L55.4804 10.23C55.4804 10.32 55.4804 10.39 55.4804 10.46C55.4804 14.6533 55.4804 18.84 55.4804 23.02C55.4857 23.1099 55.4597 23.1988 55.4068 23.2718C55.3539 23.3447 55.2775 23.397 55.1904 23.42V23.42Z" fill="white"/>
</svg>
