<svg xmlns="http://www.w3.org/2000/svg" viewBox="0 0 40.85 40.85"><defs><style>.cls-1{fill:#034441;}.cls-2{fill:#699948;}.cls-3{fill:#fff;}</style></defs><g id="Capa_2" data-name="Capa 2"><g id="Layer_1" data-name="Layer 1"><circle class="cls-1" cx="20.42" cy="20.42" r="20.42"/><circle class="cls-2" cx="20.42" cy="20.42" r="15.5"/><polygon class="cls-3" points="16.37 26.09 12.84 21.88 7.68 25.71 6.49 24.11 13.15 19.15 16.71 23.38 28.11 15.13 29.28 16.75 16.37 26.09"/><polygon class="cls-3" points="29.74 18.88 32.19 13.41 26.23 14.03 29.74 18.88"/><path class="cls-2" d="M20.41,14.71h0a.91.91,0,0,1-.89-.82V13.3a1.71,1.71,0,0,1,0-.32.9.9,0,0,1,1.79,0q0,.45,0,.9A.89.89,0,0,1,20.41,14.71Zm-.11-.92h0Zm-.29,0h0Z"/><path class="cls-2" d="M20.65,28.73H20a.89.89,0,0,1-.84-.92.9.9,0,0,1,.87-.87h.86a.9.9,0,0,1,.86.88.9.9,0,0,1-.85.92Zm.15-.8Z"/><path class="cls-2" d="M18.28,15.09A.72.72,0,0,1,18,15a.88.88,0,0,1-.48-.45h0a7.92,7.92,0,0,1-.33-.93.84.84,0,0,1,.47-1,.83.83,0,0,1,1.13.32,7.54,7.54,0,0,1,.32.76l.13.33a.51.51,0,0,1-.1.53l-.07.08a1.23,1.23,0,0,1-.41.36A1,1,0,0,1,18.28,15.09Z"/><path class="cls-2" d="M22.52,15.09a.91.91,0,0,1-.41-.1.86.86,0,0,1-.48-1A6.85,6.85,0,0,1,22,13a.86.86,0,0,1,1-.46.9.9,0,0,1,.66.94.48.48,0,0,1,0,.2l-.08.22c-.09.23-.19.49-.31.73A.79.79,0,0,1,22.52,15.09Zm0-1-.22.45.22-.45Zm-.19.12Z"/><path class="cls-2" d="M16.47,16.15a.9.9,0,0,1-.61-.25h0a5.24,5.24,0,0,1-.65-.79,1,1,0,0,1,0-.89.88.88,0,0,1,.4-.38.5.5,0,0,1,.33-.11,1.61,1.61,0,0,1,1.05.69,1.31,1.31,0,0,1,.39,1,.91.91,0,0,1-.62.69A1.09,1.09,0,0,1,16.47,16.15Z"/><path class="cls-2" d="M24.32,16.16a.52.52,0,0,1-.31-.09L24,16a.89.89,0,0,1-.4-.38.94.94,0,0,1,0-.89,5.25,5.25,0,0,1,.65-.78.85.85,0,0,1,1.17-.06.84.84,0,0,1,.21,1.14,7.7,7.7,0,0,1-.63.76.74.74,0,0,1-.43.28A.64.64,0,0,1,24.32,16.16Z"/><path class="cls-2" d="M20,27.53h-.28a1.64,1.64,0,0,1-1.62-1.3,6.35,6.35,0,0,0-1.57-3,5.2,5.2,0,0,1,2.76-8.63,5.27,5.27,0,0,1,6.31,3.88h0a5,5,0,0,1-.85,4.25l-.43.57a14.87,14.87,0,0,0-.91,1.32,6.81,6.81,0,0,0-.57,1.49,1.77,1.77,0,0,1-1.75,1.38H20Zm.47-12a4.49,4.49,0,0,0-1,.11,4.24,4.24,0,0,0-3.37,4.21,4.18,4.18,0,0,0,1.14,2.78A7.3,7.3,0,0,1,19,26a.66.66,0,0,0,.67.5H21a.78.78,0,0,0,.8-.66,7.41,7.41,0,0,1,.66-1.71,16.28,16.28,0,0,1,1-1.42l.41-.56a4,4,0,0,0,.69-3.42h0A4.27,4.27,0,0,0,20.43,15.51Zm.46,8.85H19.84a.5.5,0,0,1-.5-.5v-.4A4.57,4.57,0,0,1,18,23.07a.5.5,0,0,1-.26-.56l.3-1.28a.55.55,0,0,1,.27-.34.56.56,0,0,1,.44,0,3.09,3.09,0,0,0,1.42.36l-.34-.12c-.89-.29-2.06-.82-2.06-2.2a2.19,2.19,0,0,1,1.63-2.09v-.47a.5.5,0,0,1,.5-.5h1.05a.5.5,0,0,1,.5.5v.32a4.27,4.27,0,0,1,1.09.29.52.52,0,0,1,.29.58l-.3,1.22a.51.51,0,0,1-.26.33.49.49,0,0,1-.41,0,3.21,3.21,0,0,0-.9-.26l.24.09c1.32.43,1.91,1.11,1.91,2.21a2.24,2.24,0,0,1-1.71,2.15v.54A.5.5,0,0,1,20.89,24.36Zm-.55-1h.05v-.43a.51.51,0,0,1,.42-.5c.81-.14,1.29-.61,1.29-1.26,0-.46-.09-.89-1.23-1.27-.68-.24-1.43-.51-1.43-1.15,0-.15,0-.9,1.2-.9a3.59,3.59,0,0,1,1,.15l.06-.24a4,4,0,0,0-.82-.11.51.51,0,0,1-.48-.5l-.05-.28v.35a.5.5,0,0,1-.4.49c-.78.16-1.23.6-1.23,1.22,0,.42.17.86,1.36,1.25.48.14,1.3.4,1.3,1.14,0,.22-.09.93-1.29.93A4.08,4.08,0,0,1,18.87,22l-.07.29a4.47,4.47,0,0,0,1.06.19.5.5,0,0,1,.48.5Z"/><path class="cls-3" d="M20,13.79v.05a.4.4,0,0,0,.39.37.39.39,0,0,0,.4-.37c0-.28,0-.56,0-.85a.39.39,0,0,0-.39-.37A.39.39,0,0,0,20,13c0,.13,0,.27,0,.4Z"/><path class="cls-3" d="M20.82,27.43H20a.4.4,0,0,0,0,.8h.82a.4.4,0,0,0,.39-.41A.39.39,0,0,0,20.82,27.43Z"/><path class="cls-3" d="M18,14.37a.34.34,0,0,0,.47.18c.13-.06.21-.21.32-.33-.15-.38-.26-.73-.42-1a.33.33,0,0,0-.47-.1.34.34,0,0,0-.21.43A6.8,6.8,0,0,0,18,14.37Z"/><path class="cls-3" d="M22.32,14.54c.18.08.39.07.47-.11a7.14,7.14,0,0,0,.38-.91c0-.28-.11-.41-.3-.47a.36.36,0,0,0-.44.19,6.86,6.86,0,0,0-.32.86A.37.37,0,0,0,22.32,14.54Z"/><path class="cls-3" d="M16.22,15.54a.38.38,0,0,0,.64-.21c.05-.28-.61-1.09-1-1.1-.06,0-.21.1-.26.21a.44.44,0,0,0,0,.39A4,4,0,0,0,16.22,15.54Z"/><path class="cls-3" d="M24.31,15.67a.76.76,0,0,0,.25-.1c.22-.25.45-.51.65-.78a.35.35,0,0,0-.11-.47.35.35,0,0,0-.5,0,4.45,4.45,0,0,0-.59.71.44.44,0,0,0,0,.39C24.06,15.55,24.21,15.6,24.31,15.67Z"/><path class="cls-3" d="M25.07,18.64a4.81,4.81,0,0,0-9.47,1.2,4.66,4.66,0,0,0,1.27,3.1,6.94,6.94,0,0,1,1.68,3.19,1.14,1.14,0,0,0,1.15.9h1.35a1.27,1.27,0,0,0,1.27-1,7.35,7.35,0,0,1,.61-1.6c.4-.68.91-1.29,1.37-1.93A4.45,4.45,0,0,0,25.07,18.64Zm-4.18,4.29v.93H19.84V23a4.13,4.13,0,0,1-1.62-.39l.3-1.28a3.6,3.6,0,0,0,1.61.41c.47,0,.79-.13.79-.43s-.27-.46-1-.67c-1-.32-1.7-.79-1.7-1.72a1.77,1.77,0,0,1,1.63-1.71v-.85h1.05v.78a3.67,3.67,0,0,1,1.39.29L22,18.67a3.11,3.11,0,0,0-1.39-.32c-.54,0-.7.2-.7.4s.31.4,1.08.68c1.16.38,1.58.9,1.58,1.74A1.83,1.83,0,0,1,20.89,22.93Z"/><path class="cls-2" d="M20.89,22.93v.93H19.84V23a4.13,4.13,0,0,1-1.62-.39l.3-1.28a3.6,3.6,0,0,0,1.61.41c.47,0,.79-.13.79-.43s-.27-.46-1-.67c-1-.32-1.7-.79-1.7-1.72a1.77,1.77,0,0,1,1.63-1.71v-.85h1.05v.78a3.67,3.67,0,0,1,1.39.29L22,18.67a3.11,3.11,0,0,0-1.39-.32c-.54,0-.7.2-.7.4s.31.4,1.08.68c1.16.38,1.58.9,1.58,1.74A1.83,1.83,0,0,1,20.89,22.93Z"/></g></g></svg>