<svg xmlns="http://www.w3.org/2000/svg" viewBox="0 0 40.85 40.85"><defs><style>.cls-1{fill:#034441;}.cls-2{fill:#699948;}.cls-3{fill:#fff;}</style></defs><g id="Capa_2" data-name="Capa 2"><g id="Layer_1" data-name="Layer 1"><circle class="cls-1" cx="20.42" cy="20.42" r="20.42"/><circle class="cls-2" cx="20.42" cy="20.42" r="15.5"/><path class="cls-3" d="M26.37,27.29H16.18V11.86h2.39c.64,0,1-.3,1-.85s-.34-.85-1-.86H16.13c0-.3,0-.54,0-.79,0-.59-.33-.93-.86-.92s-.84.35-.84,1c0,.11,0,.21,0,.32V27.25a2.62,2.62,0,0,0-2.56,2.39c0,.64,0,1.28,0,1.93a.8.8,0,0,0,.87.86H28.1a.81.81,0,0,0,.89-.9c0-.54,0-1.07,0-1.61A2.52,2.52,0,0,0,26.37,27.29Z"/><path class="cls-3" d="M23.62,21.55a.87.87,0,1,0-1.22,1.24c.82.84,1.65,1.67,2.5,2.49a.84.84,0,0,0,1.32,0c.85-.81,1.68-1.65,2.5-2.49a.87.87,0,0,0,0-1.25.88.88,0,0,0-1.28,0c-.32.31-.61.65-1,1.09V11.38c.38.4.68.73,1,1a.88.88,0,0,0,1.28.08.89.89,0,0,0-.06-1.32L26.32,8.82a.92.92,0,0,0-1.52,0c-.76.75-1.52,1.51-2.27,2.27-.48.48-.53,1-.14,1.4s.9.3,1.37-.15l.9-.9V22.62C24.27,22.21,24,21.86,23.62,21.55Z"/><path class="cls-3" d="M18.73,13.58c-.32,0-.64,0-1,0a.81.81,0,0,0-.78.85.82.82,0,0,0,.78.85c.16,0,.32,0,.48,0s.32,0,.48,0a.86.86,0,0,0,0-1.71Z"/><path class="cls-3" d="M18.78,17c-.16,0-.32,0-.48,0s-.33,0-.49,0a.82.82,0,0,0-.82.86.8.8,0,0,0,.79.84,7,7,0,0,0,1,0,.85.85,0,0,0,0-1.7Z"/><path class="cls-3" d="M18.69,20.44c-.32,0-.64,0-1,0a.81.81,0,0,0-.73.84.79.79,0,0,0,.71.86,3.13,3.13,0,0,0,.53,0h.43a.83.83,0,0,0,.89-.85A.81.81,0,0,0,18.69,20.44Z"/><path class="cls-3" d="M18.67,25.57a.82.82,0,0,0,.89-.84.81.81,0,0,0-.87-.86c-.32,0-.64,0-1,0a.81.81,0,0,0-.73.84.78.78,0,0,0,.71.85,2.34,2.34,0,0,0,.53,0h.43Z"/></g></g></svg>