<svg xmlns="http://www.w3.org/2000/svg" viewBox="0 0 40.85 40.85"><defs><style>.cls-1{fill:#034441;}.cls-2{fill:#699948;}.cls-3{fill:#fff;}</style></defs><g id="Capa_2" data-name="Capa 2"><g id="Layer_1" data-name="Layer 1"><circle class="cls-1" cx="20.42" cy="20.42" r="20.42"/><circle class="cls-2" cx="20.42" cy="20.42" r="15.5"/><path class="cls-3" d="M15.82,28.47a2.32,2.32,0,0,0,.52-.4c.5-.52.92-.45,1.46,0a3.9,3.9,0,0,0,5.4,0,1,1,0,0,1,1.48,0A6.74,6.74,0,0,0,26.4,29c.84.34,1.44.15,1.67-.84a10.54,10.54,0,0,1,.6-1.49l2.75-6.75a19.67,19.67,0,0,0-1.92-.74c-.67-.18-.84-.56-.83-1.23,0-2.08,0-4.16,0-6.24,0-1.18-.28-1.46-1.43-1.47s-2.57,0-3.9,0l-.16-1.37H18l-.14,1.37c-1.33,0-2.62,0-3.9,0s-1.43.29-1.44,1.47c0,2.14,0,4.28,0,6.42a.87.87,0,0,1-.66,1c-.68.22-1.34.51-2,.78,0,.16,0,.19,0,.22l3.06,7.51C13.64,29.32,14.2,29.49,15.82,28.47ZM13.93,11.58H27.28v6.69c-2-.76-3.89-1.47-5.77-2.24a2.15,2.15,0,0,0-1.79,0c-1.89.77-3.8,1.48-5.79,2.25Zm-3.25,8.76a65,65,0,0,0,6.37-2.53,7.34,7.34,0,0,1,7.18,0c2,1,4.13,1.65,6.29,2.49l-.78,1.93c-2.3-.89-4.58-1.63-6.73-2.63a5.22,5.22,0,0,0-4.8,0c-2.15,1-4.42,1.75-6.74,2.64Z"/><path class="cls-3" d="M24.49,29.4a1.06,1.06,0,0,0-1,0c-2.33,1.6-3.57,1.61-5.79,0a1.12,1.12,0,0,0-1,0,4.24,4.24,0,0,1-5.59.23l-.81.9a5.05,5.05,0,0,0,6,.69,1.53,1.53,0,0,1,1.76,0,4.91,4.91,0,0,0,5.12-.05,1.43,1.43,0,0,1,1.68,0c2,1.16,4.78.8,6-.73l-.78-.85A4.23,4.23,0,0,1,24.49,29.4Z"/><path class="cls-3" d="M23.18,8.07l0-.37c-1.48-.53-3.06-.12-4.58-.22-.23,0-.47.22-.7.34l.18.25Z"/><path class="cls-3" d="M21.71,15.05c1.27.5,2.57.94,3.91,1.42V12.94H21.33a14.24,14.24,0,0,0,0,1.47A.9.9,0,0,0,21.71,15.05Z"/><path class="cls-3" d="M15.37,12.92v3.55c1.35-.48,2.62-.92,3.88-1.4a.73.73,0,0,0,.41-.51c.05-.54,0-1.1,0-1.64Z"/></g></g></svg>