<svg xmlns="http://www.w3.org/2000/svg" viewBox="0 0 40.85 40.85"><defs><style>.cls-1{fill:#034441;}.cls-2{fill:#699948;}.cls-3{fill:#fff;}</style></defs><g id="Capa_2" data-name="Capa 2"><g id="Layer_1" data-name="Layer 1"><circle class="cls-1" cx="20.42" cy="20.42" r="20.42"/><circle class="cls-2" cx="20.42" cy="20.42" r="15.5"/><path class="cls-3" d="M29.48,21.15a1.25,1.25,0,0,0,0-.15c-1,1.52-2,3-3.06,4.53H28a4,4,0,0,1-.09,1.1,3.38,3.38,0,0,1-6.67-.83V14.13a.24.24,0,0,1,.16-.26,2,2,0,1,0-2.91-2.06,2,2,0,0,0,1,2,.26.26,0,0,1,.17.28V25.76c0,.17,0,.35,0,.52a3.39,3.39,0,0,1-6.73-.76h1.54c-1-1.51-2-3-3.06-4.53a1.44,1.44,0,0,0,0,.18c0,1.58,0,3.15,0,4.72a4.74,4.74,0,0,0,.06.75,4.9,4.9,0,0,0,5.27,4.1A4.79,4.79,0,0,0,20,29.07c.16-.18.3-.38.45-.57l.07.1a4.81,4.81,0,0,0,5,2.06,4.88,4.88,0,0,0,4-4.76C29.49,24.32,29.48,22.73,29.48,21.15Zm-9-8.59a.47.47,0,0,1-.48-.45.47.47,0,1,1,.94,0A.45.45,0,0,1,20.43,12.56Z"/></g></g></svg>