<svg xmlns="http://www.w3.org/2000/svg" viewBox="0 0 40.85 40.85"><defs><style>.cls-1{fill:#034441;}.cls-2{fill:#699948;}.cls-3{fill:#fff;}</style></defs><g id="Capa_2" data-name="Capa 2"><g id="Layer_1" data-name="Layer 1"><circle class="cls-1" cx="20.42" cy="20.42" r="20.42"/><circle class="cls-2" cx="20.42" cy="20.42" r="15.5"/><path class="cls-3" d="M28.63,11.93A11.63,11.63,0,0,0,18.39,8.74c.4,1.87.78,3.69,1.17,5.53a6.23,6.23,0,0,1,7,7.17L32,22.75A11.69,11.69,0,0,0,28.63,11.93Z"/><path class="cls-3" d="M18.61,27.2A6.28,6.28,0,0,1,18,15l-1-4.35A10.61,10.61,0,0,0,9.33,23.25c.2-.07.39-.15.59-.2s.3-.19.26-.43a8.77,8.77,0,0,1-.06-2.8,9.58,9.58,0,0,1,4.33-7c.54-.36,1.16-.63,1.78-1,.19.83.34,1.56.53,2.29.06.25,0,.34-.23.46a7,7,0,0,0-3.92,6.57A16.52,16.52,0,0,0,12.8,23L9.53,24.18l.34.92,1.68-.59,1.64-.59A7.55,7.55,0,0,0,15,26.39a7.42,7.42,0,0,0,2.59,1.51c0,.14-.06.26-.09.37-.23.94-.47,1.87-.69,2.81,0,.09,0,.28.07.3a6.85,6.85,0,0,0,.81.2l.86-3.44a7.24,7.24,0,0,0,7.75-4l2.52.62c-.05.11-.07.18-.1.25a9.7,9.7,0,0,1-9,5.8c-.27,0-.63-.1-.79,0s-.17.5-.23.77a.47.47,0,0,0,0,.12,10.71,10.71,0,0,0,11.39-7.62L25.76,23A6.37,6.37,0,0,1,18.61,27.2Z"/><path class="cls-3" d="M15.7,29.88a8.92,8.92,0,0,1-3.26-2.44c-.45-.53-.83-1.12-1.26-1.7l-.41.15-.46.18A10.73,10.73,0,0,0,15.78,31a4.75,4.75,0,0,1,.15-.6C16.05,30.13,16,30,15.7,29.88Z"/><path class="cls-3" d="M22.54,18.23v5.65h1.14V18.23Z"/><path class="cls-3" d="M20.35,19.46H19.2v4.4h1.15Z"/><path class="cls-3" d="M20.86,20.51v3.35H22V20.51Z"/><path class="cls-3" d="M18.67,23.87V20.51H17.53v3.36Z"/><path class="cls-3" d="M17,23.87V22.23H15.87v1.64Z"/></g></g></svg>