<svg xmlns="http://www.w3.org/2000/svg" viewBox="0 0 40.85 40.85"><defs><style>.cls-1{fill:#034441;}.cls-2{fill:#699948;}.cls-3{fill:#fff;}</style></defs><g id="Capa_2" data-name="Capa 2"><g id="Layer_1" data-name="Layer 1"><circle class="cls-1" cx="20.42" cy="20.42" r="20.42"/><circle class="cls-2" cx="20.42" cy="20.42" r="15.5"/><path class="cls-3" d="M20.44,7.33A13.1,13.1,0,1,0,33.52,20.45,13.11,13.11,0,0,0,20.44,7.33ZM13.5,28.09a10.28,10.28,0,0,1-1.29-13.92q7.23,7.24,14.46,14.46A10.25,10.25,0,0,1,13.5,28.09Zm15.14-1.42L14.18,12.21A10.32,10.32,0,0,1,28.64,26.67Z"/><path class="cls-3" d="M25.08,27.57l-.16-.12-5-5c-.42-.41-.42-.41-1-.32a9.64,9.64,0,0,0-4.88,2.23c-.37.31-.7.66-1.05,1A9.79,9.79,0,0,0,25.08,27.57Zm-7.57-4.42a2.85,2.85,0,0,1,0,4.49A10,10,0,0,0,17.51,23.15ZM15.72,25a.44.44,0,1,1,0,.87.45.45,0,0,1-.43-.43A.44.44,0,0,1,15.72,25Z"/><path class="cls-3" d="M30.31,19.49a9.85,9.85,0,0,0-1.39-4.21.17.17,0,0,0-.19-.1c-.5,0-1,0-1.49.1a9.65,9.65,0,0,0-4.63,2,9.5,9.5,0,0,0-1.35,1.27c.11.12.2.23.3.32a12.34,12.34,0,0,0,.92.85,9.74,9.74,0,0,0,7.67,2.07.13.13,0,0,0,.13-.13A11,11,0,0,0,30.31,19.49ZM23.93,19a.43.43,0,0,1-.43-.43.44.44,0,0,1,.44-.44.46.46,0,0,1,.43.44A.44.44,0,0,1,23.93,19Zm1.8,1.82a10,10,0,0,0,0-4.49A2.85,2.85,0,0,1,25.73,20.78Z"/><path class="cls-3" d="M23.74,13.86c0-.64,0-1.27,0-1.91,0,0,0-.09,0-.17l-1.8,2.11h.88a1.89,1.89,0,1,1-3.78-.1V10.58l-.92.18c0,.05,0,.09,0,.12v3a2.4,2.4,0,0,0,0,.37,2.84,2.84,0,0,0,3.06,2.42A2.81,2.81,0,0,0,23.74,13.86Z"/><path class="cls-3" d="M27.11,24.52,28.62,26a10,10,0,0,0,1.5-3.44A6.47,6.47,0,0,0,27.11,24.52Z"/></g></g></svg>