<?xml version="1.0" encoding="UTF-8"?> <svg xmlns="http://www.w3.org/2000/svg" width="66" height="33" viewBox="0 0 66 33" fill="none"><rect width="66" height="33" fill="#257470"></rect><path d="M38.13 17.4922C38.872 18.0461 39.3902 18.8481 39.59 19.7522C39.8423 19.3903 39.9847 18.9631 40 18.5222C39.9938 18.3032 39.9405 18.088 39.8439 17.8913C39.7473 17.6947 39.6096 17.521 39.44 17.3822C39.7275 17.3019 39.9925 17.1563 40.2145 16.9569C40.4365 16.7574 40.6095 16.5094 40.72 16.2322C40.8422 15.9101 40.8422 15.5543 40.72 15.2322C40.59 15.4422 40.49 15.6522 40.36 15.8422C40.1828 16.0929 39.9421 16.292 39.6626 16.419C39.383 16.5459 39.0747 16.5962 38.7694 16.5647C38.464 16.5331 38.1725 16.4208 37.9248 16.2394C37.6771 16.058 37.4822 15.8139 37.36 15.5322C37.0717 14.8488 37.0468 14.0829 37.29 13.3822C37.5297 12.5267 38.0286 11.7664 38.718 11.2059C39.4074 10.6454 40.2536 10.3122 41.14 10.2522C41.81 10.2522 42.48 10.2522 43.14 10.3122L46 10.4122H46.15C45.6177 9.3612 45.4896 8.15138 45.79 7.0122C44.7197 6.60801 43.5666 6.47233 42.4317 6.61702C41.2968 6.76172 40.2147 7.18239 39.28 7.8422C38.3348 8.46898 37.5638 9.32514 37.0392 10.3307C36.5146 11.3362 36.2534 12.4583 36.28 13.5922C36.1594 12.5403 36.3507 11.4762 36.83 10.5322C37.262 9.52462 37.9208 8.6304 38.7552 7.91924C39.5895 7.20808 40.5767 6.69918 41.64 6.4322C42.9882 6.09836 44.4017 6.13638 45.73 6.5422H45.86L46.43 5.4522C46.27 5.3922 46.1 5.3122 45.92 5.2622C44.1428 4.68252 42.2273 4.68252 40.45 5.2622C39.3231 5.68401 38.329 6.39853 37.57 7.3322C36.604 8.37083 35.9161 9.63666 35.57 11.0122C35.3114 12.0003 35.3234 13.0398 35.6049 14.0216C35.8865 15.0034 36.4271 15.8913 37.17 16.5922C37.52 16.9522 37.83 17.2222 38.13 17.4922Z" fill="white"></path><path d="M46.56 10.2722H46.66C47.9412 9.95799 49.096 9.26024 49.97 8.2722C50.06 8.1722 50.12 8.0922 49.97 7.9722C49.1139 7.06048 48.0969 6.31464 46.97 5.7722H46.85C46.3887 6.42144 46.1173 7.18626 46.0661 7.98103C46.0149 8.77579 46.1859 9.56913 46.56 10.2722V10.2722ZM47.46 7.0122C47.5094 7.01087 47.5586 7.01945 47.6047 7.03744C47.6507 7.05544 47.6927 7.08248 47.7281 7.11697C47.7636 7.15146 47.7917 7.19271 47.8109 7.23826C47.8301 7.28382 47.84 7.33276 47.84 7.3822C47.84 7.43296 47.8299 7.4832 47.8102 7.52997C47.7904 7.57674 47.7616 7.61908 47.7252 7.6545C47.6888 7.68992 47.6458 7.7177 47.5985 7.7362C47.5512 7.7547 47.5007 7.76354 47.45 7.7622C47.3611 7.74763 47.2802 7.70191 47.2218 7.63322C47.1635 7.56453 47.1314 7.47733 47.1314 7.3872C47.1314 7.29707 47.1635 7.20987 47.2218 7.14118C47.2802 7.07249 47.3611 7.02677 47.45 7.0122H47.46Z" fill="white"></path><path d="M37.56 6.8522C38.693 5.54309 40.279 4.71077 42 4.5222C41.0803 4.12495 40.0799 3.95022 39.08 4.0122C38.0624 4.07896 37.0768 4.3949 36.21 4.9322C36.5969 5.08699 36.9305 5.35087 37.1701 5.69173C37.4098 6.0326 37.5453 6.43577 37.56 6.8522V6.8522Z" fill="white"></path><path d="M40.75 12.4722C41.3287 12.5592 41.9196 12.4422 42.4213 12.1411C42.9231 11.8401 43.3045 11.3737 43.5 10.8222L41.69 10.6822C41.693 11.0349 41.6087 11.3829 41.4447 11.6952C41.2807 12.0075 41.0421 12.2744 40.75 12.4722Z" fill="white"></path><path d="M57.39 8.4822C56.4908 8.48747 55.6301 8.84769 54.9952 9.48446C54.3603 10.1212 54.0026 10.983 54 11.8822C54.0033 12.1138 54.0267 12.3447 54.07 12.5722L40.7 21.2222C40.1179 20.8026 39.4176 20.5785 38.7 20.5822C38.2246 20.5799 37.7542 20.6787 37.32 20.8722L32 15.5822C32.1408 15.2048 32.2119 14.805 32.21 14.4022C32.21 13.5005 31.8518 12.6357 31.2142 11.998C30.5765 11.3604 29.7117 11.0022 28.81 11.0022C27.9083 11.0022 27.0435 11.3604 26.4058 11.998C25.7682 12.6357 25.41 13.5005 25.41 14.4022C25.405 14.4721 25.405 14.5423 25.41 14.6122L11.49 22.9222C10.8837 22.4497 10.1352 22.1966 9.36651 22.2041C8.59785 22.2117 7.85445 22.4795 7.25757 22.9639C6.66069 23.4483 6.24556 24.1206 6.0799 24.8712C5.91424 25.6219 6.00783 26.4065 6.3454 27.0971C6.68297 27.7877 7.24459 28.3435 7.93866 28.6739C8.63273 29.0043 9.41827 29.0897 10.1671 28.9163C10.916 28.7429 11.584 28.3208 12.0622 27.7189C12.5403 27.117 12.8004 26.3709 12.8 25.6022C12.8148 25.4158 12.8148 25.2286 12.8 25.0422L26.52 16.8622C27.1495 17.4657 27.9879 17.8025 28.86 17.8022C29.395 17.7996 29.9222 17.6729 30.4 17.4322L35.65 22.6322C35.443 23.0635 35.3305 23.534 35.32 24.0122C35.32 24.9139 35.6782 25.7787 36.3158 26.4164C36.9535 27.054 37.8183 27.4122 38.72 27.4122C39.6217 27.4122 40.4865 27.054 41.1242 26.4164C41.7618 25.7787 42.12 24.9139 42.12 24.0122C42.117 23.7839 42.0936 23.5563 42.05 23.3322L55.41 14.6722C55.8445 14.9848 56.3467 15.1904 56.8757 15.2722C57.4046 15.354 57.9455 15.3098 58.4541 15.1432C58.9628 14.9765 59.4249 14.6921 59.8029 14.3131C60.1809 13.9341 60.464 13.4712 60.6293 12.9621C60.7946 12.453 60.8374 11.9121 60.7541 11.3833C60.6709 10.8546 60.4639 10.3529 60.1502 9.91926C59.8365 9.48559 59.4247 9.13212 58.9486 8.88761C58.4724 8.64311 57.9453 8.51448 57.41 8.5122L57.39 8.4822ZM11 25.7522C11 25.7522 11 25.8022 11 25.8222C11 25.8422 11 25.8722 11 25.8922C11 25.9122 11 25.9522 11 25.9822V26.0822C10.9184 26.3731 10.7575 26.6356 10.5354 26.8404C10.3133 27.0451 10.0386 27.1842 9.74204 27.2419C9.44549 27.2996 9.13872 27.2738 8.85599 27.1673C8.57327 27.0608 8.3257 26.8778 8.14094 26.6388C7.95617 26.3997 7.84148 26.114 7.80966 25.8136C7.77784 25.5131 7.83015 25.2098 7.96074 24.9373C8.09134 24.6649 8.29509 24.4341 8.54923 24.2707C8.80338 24.1074 9.09793 24.0179 9.4 24.0122C9.49305 24.0019 9.58696 24.0019 9.68 24.0122C9.72619 24.0028 9.77381 24.0028 9.82 24.0122H9.94H10L10.12 24.0622L10.24 24.1222C10.3982 24.211 10.5375 24.3299 10.65 24.4722V24.4722L10.71 24.5522V24.6222V24.6822C10.7119 24.7055 10.7119 24.7289 10.71 24.7522V24.8122V24.8822V24.9622C10.7057 24.982 10.7057 25.0024 10.71 25.0222C10.71 25.0222 10.71 25.0822 10.71 25.1122C10.71 25.1422 10.71 25.1122 10.71 25.1722C10.7138 25.2054 10.7138 25.239 10.71 25.2722C10.71 25.2722 10.71 25.2722 10.71 25.3322V25.6322L11 25.7522ZM30.44 14.5622C30.4353 14.5819 30.4353 14.6025 30.44 14.6222C30.44 14.6222 30.44 14.6822 30.44 14.7222C30.44 14.7622 30.44 14.7222 30.44 14.7822V14.8722C30.4443 14.8953 30.4443 14.9191 30.44 14.9422V15.0222V15.0922V15.1622L30.39 15.2322V15.2922L30.34 15.3622V15.4122L30.28 15.4822L30.21 15.5522L30.13 15.6122L30.04 15.6722L29.94 15.7322L29.83 15.7822H29.7C29.6572 15.7914 29.6128 15.7914 29.57 15.7822H29.42H29.29C29.0516 15.7849 28.8157 15.7336 28.6 15.6322C28.4977 15.5818 28.4006 15.5215 28.31 15.4522V15.4522L28.23 15.3822L28.09 15.2322L28.04 15.1722V15.1222V15.0622C28.0256 15.0342 28.0089 15.0074 27.99 14.9822C27.9952 14.9592 27.9952 14.9352 27.99 14.9122V14.8322V14.7822V14.6822C27.9857 14.639 27.9857 14.5954 27.99 14.5522C27.99 14.5522 27.99 14.4822 27.99 14.4422C27.99 14.4422 27.99 14.3422 27.99 14.2922C27.99 14.2422 27.99 14.1822 27.99 14.1322C27.9949 14.1091 27.9949 14.0853 27.99 14.0622C27.99 14.0622 27.99 14.0022 27.99 13.9722C27.9855 13.9457 27.9855 13.9187 27.99 13.8922C27.99 13.8922 27.99 13.8922 27.99 13.8322C27.9844 13.7991 27.9844 13.7653 27.99 13.7322V13.7322C28.0048 13.6947 28.0215 13.658 28.04 13.6222V13.6222L28.1 13.5122C28.1241 13.4738 28.1509 13.437 28.18 13.4022L28.27 13.2922C28.4943 13.046 28.7866 12.8719 29.11 12.7922C29.1696 12.7827 29.2304 12.7827 29.29 12.7922V12.7922H29.48H29.73H29.89C30.0537 12.9495 30.1828 13.1393 30.2689 13.3494C30.355 13.5595 30.3962 13.7852 30.39 14.0122V14.1722C30.39 14.1722 30.39 14.1722 30.39 14.2322C30.3853 14.2519 30.3853 14.2725 30.39 14.2922V14.5922L30.44 14.5622ZM40.34 24.1222V24.1822C40.3351 24.2086 40.3351 24.2358 40.34 24.2622C40.34 24.3222 40.34 24.3822 40.34 24.4422C40.2438 24.781 40.0391 25.0789 39.7573 25.2902C39.4755 25.5016 39.1322 25.6147 38.78 25.6122C38.5659 25.6122 38.354 25.57 38.1562 25.4881C37.9585 25.4062 37.7788 25.2861 37.6274 25.1348C37.4761 24.9834 37.356 24.8037 37.2741 24.606C37.1922 24.4082 37.15 24.1963 37.15 23.9822C37.15 23.7681 37.1922 23.5562 37.2741 23.3584C37.356 23.1607 37.4761 22.981 37.6274 22.8296C37.7788 22.6783 37.9585 22.5582 38.1562 22.4763C38.354 22.3944 38.5659 22.3522 38.78 22.3522H39C39.3342 22.3993 39.6454 22.5497 39.89 22.7822V22.7822L39.96 22.8622L40 23.0122C40.013 23.041 40.0298 23.0679 40.05 23.0922V23.0922C40.05 23.0922 40.05 23.1422 40.05 23.1722V23.2322V23.3022V23.3822C40.0543 23.402 40.0543 23.4224 40.05 23.4422C40.0547 23.472 40.0547 23.5024 40.05 23.5322C40.0543 23.552 40.0543 23.5724 40.05 23.5922C40.05 23.5922 40.05 23.6622 40.05 23.7022C40.055 23.7554 40.055 23.809 40.05 23.8622C40.1725 23.9148 40.2743 24.0062 40.34 24.1222V24.1222ZM57.34 13.5122H57.12C56.7858 13.4651 56.4746 13.3147 56.23 13.0822V13.0822L56.19 13.0122L56.13 12.9322C56.1074 12.8597 56.0617 12.7965 56 12.7522V12.7022C56.0019 12.6789 56.0019 12.6555 56 12.6322V12.5622V12.4922V12.4122C56 12.4122 56 12.4122 56 12.3522C55.9953 12.3224 55.9953 12.292 56 12.2622C56 12.2622 56 12.2622 56 12.2022C55.9951 12.1657 55.9951 12.1287 56 12.0922C55.9938 12.0761 55.9938 12.0583 56 12.0422C55.995 11.989 55.995 11.9354 56 11.8822C55.9946 11.8357 55.9946 11.7887 56 11.7422V11.6822V11.6022C55.9953 11.5423 55.9953 11.4821 56 11.4222C56.0963 11.0834 56.301 10.7855 56.5827 10.5742C56.8645 10.3628 57.2078 10.2497 57.56 10.2522C57.9923 10.2522 58.4069 10.4239 58.7126 10.7296C59.0183 11.0353 59.19 11.4499 59.19 11.8822C59.19 12.3145 59.0183 12.7291 58.7126 13.0348C58.4069 13.3405 57.9923 13.5122 57.56 13.5122H57.34Z" fill="white"></path></svg> 