<?xml version="1.0" encoding="UTF-8"?> <svg xmlns="http://www.w3.org/2000/svg" width="66" height="33" viewBox="0 0 66 33" fill="none"><rect width="66" height="33" fill="#257470"></rect><path d="M46 6.83C45.7831 6.08958 45.329 5.44091 44.7075 4.9838C44.0859 4.52668 43.3314 4.28643 42.56 4.3H41.85C41.7 4.3 41.67 4.3 41.68 4.12C41.69 3.94 41.68 3.6 41.68 3.34C41.7058 2.78007 41.5225 2.23054 41.1659 1.79812C40.8092 1.36571 40.3046 1.08125 39.75 1V1H39.26C39.08 1.05 38.91 1.08 38.74 1.14C38.308 1.30119 37.9356 1.5907 37.6728 1.96965C37.41 2.3486 37.2695 2.79886 37.27 3.26C37.27 3.59 37.27 3.93 37.27 4.26H34.97C34.97 3.91 34.97 3.57 34.97 3.26C34.9713 2.86172 34.864 2.47061 34.6596 2.12878C34.4552 1.78694 34.1615 1.50732 33.81 1.32C33.5505 1.18849 33.2793 1.08137 33 1L32.48 1C32.2799 1.04799 32.0828 1.1081 31.89 1.18C31.4912 1.34422 31.1486 1.62056 30.9037 1.97553C30.6587 2.33051 30.522 2.74889 30.51 3.18C30.51 3.51 30.51 3.85 30.51 4.18C30.51 4.27 30.51 4.32 30.38 4.32H28.26H28.19C28.1947 4.25342 28.1947 4.18658 28.19 4.12C28.2199 3.71388 28.2199 3.30612 28.19 2.9C28.128 2.41274 27.9039 1.96048 27.5539 1.61589C27.2039 1.2713 26.7482 1.05438 26.26 1L26.2 1H25.71C25.5021 1.04338 25.2981 1.10358 25.1 1.18C24.6856 1.35657 24.3331 1.65244 24.0873 2.02996C23.8416 2.40748 23.7137 2.84958 23.72 3.3C23.72 3.62 23.72 3.95 23.72 4.3H22.56C21.9258 4.29016 21.3017 4.46004 20.76 4.79C20.2827 5.05676 19.8747 5.43194 19.569 5.88529C19.2633 6.33865 19.0684 6.85749 19 7.4V7.54V28.18C19 28.35 19.06 28.53 19.1 28.69C19.2641 29.3927 19.6397 30.0283 20.1761 30.511C20.7125 30.9938 21.3839 31.3006 22.1 31.39H22.21H42.91C43.11 31.39 43.31 31.32 43.5 31.27C44.1892 31.0943 44.8089 30.7134 45.2767 30.1776C45.7446 29.6419 46.0387 28.9766 46.12 28.27V28.16V7.58C46.1 7.33 46.06 7.07 46 6.83ZM38.48 3.28C38.4733 3.05157 38.5451 2.82774 38.6834 2.64579C38.8217 2.46385 39.0181 2.33475 39.24 2.28C39.3863 2.25167 39.537 2.25638 39.6812 2.29378C39.8254 2.33118 39.9595 2.40033 40.0735 2.49617C40.1876 2.59202 40.2788 2.71214 40.3404 2.84775C40.4021 2.98336 40.4327 3.13104 40.43 3.28C40.43 3.67 40.43 4.06 40.43 4.45V7.37C40.4389 7.59314 40.3728 7.81284 40.2423 7.99407C40.1118 8.17531 39.9244 8.30765 39.71 8.37C39.5609 8.40529 39.4058 8.40586 39.2564 8.37167C39.1071 8.33748 38.9677 8.26945 38.8488 8.17282C38.73 8.07618 38.6349 7.95354 38.5709 7.81435C38.507 7.67515 38.4759 7.52313 38.48 7.37C38.48 7.03 38.48 6.68 38.48 6.37V5.37C38.47 4.66 38.47 4 38.48 3.28ZM31.73 3.28C31.7228 3.05291 31.7932 2.83014 31.9295 2.64837C32.0658 2.46661 32.26 2.33669 32.48 2.28C32.737 2.22956 33.0035 2.28197 33.2223 2.42595C33.4411 2.56994 33.5947 2.794 33.65 3.05C33.6604 3.13636 33.6604 3.22364 33.65 3.31C33.65 4.64333 33.65 5.99333 33.65 7.36C33.6514 7.58006 33.5836 7.79499 33.4562 7.97443C33.3288 8.15387 33.1482 8.28874 32.94 8.36C32.7903 8.39709 32.634 8.39903 32.4834 8.36568C32.3328 8.33233 32.1919 8.26458 32.0718 8.16775C31.9517 8.07091 31.8557 7.9476 31.7912 7.80747C31.7267 7.66735 31.6955 7.51419 31.7 7.36C31.7 6.67 31.7 5.97 31.7 5.27C31.7 4.57 31.72 4 31.73 3.26V3.28ZM25.4 2.43C25.5314 2.33027 25.688 2.26904 25.8522 2.25314C26.0165 2.23725 26.1819 2.26732 26.33 2.34C26.4965 2.40468 26.6402 2.51692 26.7434 2.66273C26.8465 2.80855 26.9045 2.98149 26.91 3.16C26.91 3.79 26.91 4.42 26.91 5.06V5.35C26.91 5.99 26.91 6.64 26.91 7.28C26.9053 7.45351 26.875 7.62537 26.82 7.79C26.7506 7.99357 26.6134 8.16717 26.4314 8.28183C26.2494 8.39648 26.0336 8.44525 25.82 8.42C25.6064 8.38214 25.4108 8.27581 25.2629 8.11707C25.115 7.95833 25.0227 7.75578 25 7.54C24.9851 7.26353 24.9851 6.98647 25 6.71V3.35C24.9864 3.17564 25.0158 3.0006 25.0855 2.84022C25.1552 2.67983 25.2632 2.53898 25.4 2.43ZM42.53 29.34C35.93 29.34 29.32 29.34 22.72 29.34C22.502 29.35 22.2843 29.3144 22.0808 29.2355C21.8773 29.1566 21.6925 29.0361 21.5382 28.8818C21.3839 28.7275 21.2634 28.5427 21.1845 28.3392C21.1056 28.1357 21.07 27.918 21.08 27.7C21.08 22.44 21.08 17.18 21.08 11.91V9.51H44.08C44.08 9.58 44.08 9.64 44.08 9.7V27.81C44.0919 28.0158 44.0598 28.2217 43.9858 28.414C43.9118 28.6064 43.7977 28.7808 43.651 28.9256C43.5044 29.0703 43.3285 29.1822 43.1352 29.2537C42.9419 29.3251 42.7356 29.3546 42.53 29.34Z" fill="white"></path><path d="M23 21.17H26.79V17.77H23V21.17Z" fill="white"></path><path d="M38.46 17.76C38.32 17.76 38.34 17.85 38.34 17.93C38.34 18.93 38.34 19.98 38.34 21C38.34 21.15 38.34 21.19 38.52 21.18H42.17V17.78L38.46 17.76Z" fill="white"></path><path d="M37.05 17.77H33.24V21.17H37.05V17.77Z" fill="white"></path><path d="M28.09 17.93C28.09 18.93 28.09 19.98 28.09 21.01C28.09 21.16 28.14 21.18 28.28 21.18H31.92V17.78H28.09V17.93Z" fill="white"></path><path d="M38.34 16.44V16.6H42.17V13.21H38.53C38.38 13.21 38.34 13.26 38.34 13.41C38.35 14.41 38.34 15.42 38.34 16.44Z" fill="white"></path><path d="M38.35 22.4C38.35 23.46 38.35 24.53 38.35 25.6C38.35 25.72 38.41 25.73 38.5 25.73H42.18V22.33H38.36C38.3525 22.3526 38.3491 22.3763 38.35 22.4Z" fill="white"></path><path d="M23 25.72H26.79V22.33H23V25.72Z" fill="white"></path><path d="M26.79 13.22H23V16.61H26.79V13.22Z" fill="white"></path><path d="M31.91 13.22H28.1V16.6H31.91V13.22Z" fill="white"></path><path d="M37.05 13.22H33.24V16.6H37.05V13.22Z" fill="white"></path><path d="M28.09 22.46C28.09 23.46 28.09 24.52 28.09 25.55C28.09 25.69 28.09 25.73 28.27 25.73H31.92V22.33H28.1C28.1 22.39 28.09 22.42 28.09 22.46Z" fill="white"></path><path d="M37.05 22.33H33.24V25.72H36.91C37.05 25.72 37.06 25.66 37.06 25.56V22.49C37.06 22.49 37.05 22.39 37.05 22.33Z" fill="white"></path></svg> 