<svg width="66" height="33" viewBox="0 0 66 33" fill="none" xmlns="http://www.w3.org/2000/svg">
<path d="M66 0H0V33H66V0Z" fill="#257470"/>
<path d="M25.8216 21.6195C27.1224 22.5778 28.5328 23.3696 30.0213 23.9775C32.2486 24.9161 34.6748 25.2503 37.0652 24.9478C39.9773 24.5214 42.7382 23.3536 45.0949 21.5516C45.1786 21.4797 45.2843 21.4403 45.3936 21.4403C45.5028 21.4403 45.6085 21.4797 45.6922 21.5516C46.8677 22.2988 48.0623 23.0265 49.2473 23.764C49.3542 23.8539 49.4882 23.903 49.6265 23.903C49.7648 23.903 49.8988 23.8539 50.0057 23.764C50.102 23.6718 50.1669 23.5504 50.1908 23.4176C50.2147 23.2849 50.1963 23.1478 50.1384 23.0265C49.8635 22.2502 49.5981 21.474 49.3516 20.688C49.2899 20.4726 49.2899 20.2436 49.3516 20.0281C49.6075 19.0578 49.8919 18.0874 50.1764 17.1171C50.2606 16.9884 50.2914 16.8307 50.2621 16.6788C50.2328 16.5268 50.1456 16.393 50.0199 16.3068C49.8942 16.2206 49.7402 16.189 49.5917 16.2191C49.4433 16.2491 49.3126 16.3383 49.2283 16.4669L48.7543 16.8454L45.4173 19.4556C42.6357 17.4222 39.3493 16.2348 35.937 16.0303C35.937 16.564 35.937 17.0006 35.937 17.5052C35.952 17.6724 35.9326 17.841 35.8801 18.0001C35.839 18.1226 35.7557 18.2256 35.6458 18.2899C35.5359 18.3541 35.4069 18.3753 35.2829 18.3494C35.1428 18.3347 35.014 18.2645 34.9237 18.154C34.8334 18.0434 34.7888 17.9012 34.7994 17.7575C34.7994 17.1947 34.7994 16.6319 34.7994 16.0691C33.1584 16.1137 31.5366 16.4417 30.0024 17.0394C30.2109 17.3306 30.41 17.5828 30.5807 17.8642C30.9829 18.563 31.1084 19.3929 30.9314 20.1834C30.9233 20.2623 30.8997 20.3386 30.8622 20.408C30.8246 20.4774 30.7738 20.5383 30.7128 20.5872C30.6518 20.636 30.5818 20.6719 30.507 20.6925C30.4322 20.7132 30.3541 20.7182 30.2773 20.7074C30.2006 20.6971 30.1268 20.6706 30.0606 20.6297C29.9944 20.5887 29.9372 20.5341 29.8926 20.4694C29.8481 20.4046 29.8171 20.3311 29.8018 20.2535C29.7864 20.1759 29.7869 20.0958 29.8033 20.0184V19.7273C29.8611 19.3256 29.802 18.9153 29.6334 18.5477C29.4648 18.1802 29.1942 17.8716 28.8553 17.6605C28.8107 17.6395 28.7621 17.6287 28.7131 17.6287C28.664 17.6287 28.6155 17.6395 28.5709 17.6605C27.6228 18.1942 26.6748 18.689 25.8311 19.2713C25.6196 19.3812 25.4419 19.5487 25.3174 19.7553C25.193 19.9619 25.1266 20.1997 25.1256 20.4424C25.1246 20.6852 25.1891 20.9235 25.3119 21.1312C25.4347 21.3388 25.611 21.5078 25.8216 21.6195V21.6195ZM48.4794 18.5726H48.5458C48.4415 18.9607 48.3467 19.3683 48.2045 19.7467C48.1223 19.9413 48.0799 20.151 48.0799 20.3629C48.0799 20.5749 48.1223 20.7845 48.2045 20.9791C48.3277 21.2605 48.4035 21.5613 48.5458 21.9494L46.0524 20.4066L48.4794 18.5726Z" fill="white"/>
<path d="M16.8532 28.6255C17.2535 28.6523 17.6471 28.7441 18.0193 28.8972C18.4196 29.0841 18.8544 29.1809 19.2944 29.1809C19.7344 29.1809 20.1692 29.0841 20.5695 28.8972C21.0265 28.6908 21.5205 28.5842 22.02 28.5842C22.5194 28.5842 23.0135 28.6908 23.4704 28.8972C23.8602 29.0796 24.2838 29.174 24.7123 29.174C25.1409 29.174 25.5645 29.0796 25.9543 28.8972C26.4168 28.6864 26.9174 28.5774 27.4237 28.5774C27.93 28.5774 28.4306 28.6864 28.8931 28.8972C29.2879 29.0796 29.7161 29.174 30.1493 29.174C30.5824 29.174 31.0106 29.0796 31.4054 28.8972C31.8838 28.6768 32.4024 28.5628 32.927 28.5628C33.4516 28.5628 33.9702 28.6768 34.4486 28.8972C34.8053 29.0653 35.1934 29.1523 35.5862 29.1523C35.9789 29.1523 36.367 29.0653 36.7238 28.8972C37.2217 28.6622 37.7635 28.5405 38.3118 28.5405C38.86 28.5405 39.4018 28.6622 39.8997 28.8972C40.2638 29.063 40.6578 29.1488 41.0563 29.1488C41.4548 29.1488 41.8488 29.063 42.2129 28.8972C42.6966 28.6779 43.2197 28.5646 43.7487 28.5646C44.2777 28.5646 44.8008 28.6779 45.2845 28.8972C45.6584 29.07 46.064 29.1593 46.4743 29.1593C46.8845 29.1593 47.2901 29.07 47.664 28.8972C48.154 28.6764 48.6835 28.5624 49.2188 28.5624C49.7541 28.5624 50.2836 28.6764 50.7736 28.8972C51.0524 28.9972 51.3375 29.0783 51.6268 29.1398L52.48 29.3435C52.48 28.7516 52.48 28.0918 52.48 27.4028C52.48 26.9953 52.2525 26.8206 51.8448 26.7721C51.4825 26.7362 51.1259 26.6547 50.783 26.5295C50.287 26.3066 49.7511 26.1915 49.2093 26.1915C48.6675 26.1915 48.1317 26.3066 47.6356 26.5295C47.2676 26.6996 46.8685 26.7876 46.4648 26.7876C46.061 26.7876 45.6619 26.6996 45.294 26.5295C44.8051 26.3046 44.2752 26.1883 43.7392 26.1883C43.2032 26.1883 42.6733 26.3046 42.1844 26.5295C41.8374 26.69 41.4609 26.773 41.08 26.773C40.6991 26.773 40.3226 26.69 39.9756 26.5295C39.4545 26.2872 38.8888 26.1618 38.3165 26.1618C37.7442 26.1618 37.1785 26.2872 36.6575 26.5295C36.3165 26.6879 35.9464 26.7699 35.572 26.7699C35.1975 26.7699 34.8274 26.6879 34.4865 26.5295C33.9873 26.2995 33.446 26.1805 32.8985 26.1805C32.3511 26.1805 31.8098 26.2995 31.3106 26.5295C30.9477 26.6996 30.5532 26.7877 30.154 26.7877C29.7548 26.7877 29.3603 26.6996 28.9974 26.5295C28.5086 26.3046 27.9787 26.1883 27.4427 26.1883C26.9067 26.1883 26.3768 26.3046 25.8879 26.5295C25.5305 26.7063 25.1408 26.8045 24.7441 26.8179C24.3473 26.8313 23.9522 26.7595 23.5842 26.6071C23.0953 26.3822 22.5654 26.2659 22.0294 26.2659C21.4934 26.2659 20.9635 26.3822 20.4747 26.6071C20.0989 26.7729 19.6941 26.8585 19.2849 26.8585C18.8757 26.8585 18.4709 26.7729 18.0951 26.6071C17.6171 26.4397 17.1201 26.3354 16.6162 26.2966C16.237 26.219 16 26.5004 16 26.8885C16 27.5484 16 28.1985 16 28.7807C16.2763 28.6901 16.5633 28.6379 16.8532 28.6255V28.6255Z" fill="white"/>
<path d="M51.3613 30.3236C51.0144 30.2575 50.6747 30.1567 50.3469 30.0228C49.9877 29.8576 49.5984 29.7721 49.2046 29.7721C48.8108 29.7721 48.4214 29.8576 48.0622 30.0228C47.5656 30.2563 47.0255 30.3772 46.479 30.3772C45.9325 30.3772 45.3924 30.2563 44.8958 30.0228C44.5357 29.8611 44.1467 29.7776 43.7534 29.7776C43.3602 29.7776 42.9712 29.8611 42.6111 30.0228C42.1183 30.252 41.5833 30.3706 41.0421 30.3706C40.5008 30.3706 39.9658 30.252 39.4731 30.0228C39.1163 29.8547 38.7282 29.7677 38.3355 29.7677C37.9427 29.7677 37.5546 29.8547 37.1978 30.0228C36.6926 30.2555 36.1449 30.3758 35.5909 30.3758C35.0369 30.3758 34.4892 30.2555 33.984 30.0228C33.6431 29.8644 33.273 29.7824 32.8985 29.7824C32.5241 29.7824 32.154 29.8644 31.8131 30.0228C31.2987 30.265 30.7392 30.3903 30.173 30.3903C29.6068 30.3903 29.0473 30.265 28.5329 30.0228C28.1798 29.8596 27.7969 29.7753 27.4095 29.7753C27.0221 29.7753 26.6391 29.8596 26.2861 30.0228C25.7972 30.2477 25.2673 30.364 24.7313 30.364C24.1953 30.364 23.6654 30.2477 23.1765 30.0228C22.8086 29.8527 22.4095 29.7647 22.0057 29.7647C21.602 29.7647 21.2029 29.8527 20.8349 30.0228C20.3395 30.248 19.8033 30.3644 19.2612 30.3644C18.7191 30.3644 18.183 30.248 17.6875 30.0228C17.4101 29.9202 17.1247 29.8423 16.8343 29.7899L16 29.5764C16 30.1974 16 30.8864 16 31.5753C16 31.9053 16.256 32.0605 16.6067 32.109C16.981 32.1528 17.3497 32.2374 17.7064 32.3613C18.2024 32.5848 18.7383 32.7002 19.2802 32.7002C19.822 32.7002 20.358 32.5848 20.8539 32.3613C21.2113 32.1957 21.5992 32.1101 21.9915 32.1101C22.3839 32.1101 22.7717 32.1957 23.1291 32.3613C23.6284 32.5914 24.1696 32.7104 24.7171 32.7104C25.2646 32.7104 25.8058 32.5914 26.305 32.3613C26.6478 32.2033 27.0194 32.1216 27.3953 32.1216C27.7712 32.1216 28.1428 32.2033 28.4855 32.3613C29.0042 32.606 29.5686 32.7327 30.1398 32.7327C30.711 32.7327 31.2753 32.606 31.7941 32.3613C32.1418 32.2033 32.5181 32.1216 32.8985 32.1216C33.279 32.1216 33.6553 32.2033 34.003 32.3613C34.497 32.592 35.0337 32.7114 35.5767 32.7114C36.1197 32.7114 36.6564 32.592 37.1504 32.3613C37.5145 32.1955 37.9085 32.1098 38.307 32.1098C38.7055 32.1098 39.0996 32.1955 39.4636 32.3613C39.9564 32.5906 40.4913 32.7091 41.0326 32.7091C41.5739 32.7091 42.1088 32.5906 42.6016 32.3613C42.9547 32.1982 43.3376 32.1138 43.725 32.1138C44.1124 32.1138 44.4953 32.1982 44.8484 32.3613C45.3573 32.599 45.9102 32.7219 46.4695 32.7219C47.0289 32.7219 47.5817 32.599 48.0906 32.3613C48.4455 32.2052 48.8278 32.1246 49.2141 32.1246C49.6003 32.1246 49.9826 32.2052 50.3375 32.3613C50.8379 32.5338 51.3567 32.6446 51.8827 32.6913C51.9581 32.7033 52.0352 32.6977 52.1081 32.6748C52.181 32.6519 52.2478 32.6122 52.3036 32.5589C52.3593 32.5056 52.4024 32.44 52.4297 32.3671C52.457 32.2942 52.4677 32.2159 52.461 32.1382C52.461 31.4686 52.461 30.7894 52.461 30.0907C52.3131 30.2236 52.134 30.3149 51.9412 30.3557C51.7485 30.3965 51.5487 30.3855 51.3613 30.3236V30.3236Z" fill="white"/>
<path d="M18.7019 22.0077C19.0344 22.294 19.4219 22.5058 19.8394 22.6294C20.2568 22.7531 20.6949 22.7858 21.1255 22.7254C21.556 22.6651 21.9695 22.513 22.3391 22.2791C22.7087 22.0452 23.0263 21.7345 23.2714 21.3672C23.3383 21.293 23.3855 21.2025 23.4086 21.1043C23.4317 21.0061 23.4299 20.9035 23.4033 20.8062C23.3766 20.7089 23.3262 20.6203 23.2566 20.5486C23.1871 20.477 23.1008 20.4247 23.0059 20.3969C22.8684 20.3594 22.7225 20.3717 22.5929 20.4319C22.4633 20.492 22.358 20.5962 22.2949 20.7268C22.1389 20.9535 21.9372 21.1434 21.7034 21.2836C21.4696 21.4238 21.2092 21.5111 20.9397 21.5396C20.6702 21.5681 20.3979 21.5371 20.1411 21.4488C19.8842 21.3605 19.6489 21.2169 19.4508 21.0276C19.194 20.8136 19.0112 20.5208 18.9292 20.1923C18.8473 19.8639 18.8706 19.5172 18.9958 19.2033C19.1332 18.8368 19.3707 18.5184 19.68 18.2861C19.9893 18.0539 20.3573 17.9175 20.7401 17.8933C21.309 17.8157 21.4606 17.6702 21.4606 17.088C21.4606 15.5451 21.4606 14.0022 21.4606 12.4594C21.4591 12.3942 21.471 12.3294 21.4955 12.2692C21.52 12.2091 21.5566 12.1548 21.6028 12.11C21.9574 11.8907 22.2542 11.5859 22.4674 11.2223C22.6805 10.8587 22.8036 10.4472 22.8258 10.0238C22.9116 9.49985 22.8502 8.96177 22.6488 8.47217C22.4474 7.98258 22.1142 7.5616 21.6882 7.25826C21.601 7.22474 21.527 7.16298 21.4774 7.08239C21.4278 7.0018 21.4052 6.90681 21.4132 6.81189C21.4132 5.02644 21.4132 3.24099 21.4132 1.45553C21.4132 1.15472 21.4132 0.863616 21.4132 0.572509C21.4132 0.420671 21.3543 0.27505 21.2494 0.167684C21.1445 0.0603178 21.0023 0 20.8539 0C20.7056 0 20.5633 0.0603178 20.4584 0.167684C20.3535 0.27505 20.2946 0.420671 20.2946 0.572509C20.2851 0.682269 20.2851 0.792671 20.2946 0.90243V6.81189C20.2946 6.93804 20.2946 7.13211 20.1619 7.18063C19.786 7.37614 19.4667 7.66886 19.2355 8.02972C19.0044 8.39058 18.8694 8.80705 18.8441 9.23778C18.7495 9.74095 18.7975 10.2613 18.9822 10.7375C19.167 11.2137 19.4809 11.626 19.8869 11.9257C20.0202 12.0084 20.1281 12.1278 20.1985 12.2701C20.2689 12.4125 20.2989 12.5721 20.2851 12.7311C20.2851 14.0701 20.2851 15.3995 20.2851 16.7483L19.7352 16.9424C19.2488 17.1065 18.8131 17.3988 18.4718 17.7898C18.1306 18.1807 17.8958 18.6567 17.7911 19.1699C17.6864 19.6831 17.7155 20.2155 17.8753 20.7136C18.0352 21.2117 18.3203 21.658 18.7019 22.0077V22.0077Z" fill="white"/>
<path d="M27.8313 13.2162C28.4347 13.2162 29.0134 12.9709 29.4401 12.5341C29.8668 12.0974 30.1066 11.505 30.1066 10.8874C30.1066 10.2697 29.8668 9.67738 29.4401 9.24064C29.0134 8.80389 28.4347 8.55853 27.8313 8.55853C27.2279 8.55853 26.6491 8.80389 26.2224 9.24064C25.7957 9.67738 25.556 10.2697 25.556 10.8874C25.556 11.505 25.7957 12.0974 26.2224 12.5341C26.6491 12.9709 27.2279 13.2162 27.8313 13.2162V13.2162Z" fill="white"/>
<path d="M31.6518 8.75261C31.9901 8.75646 32.3219 8.6573 32.605 8.46773C32.8881 8.27816 33.1098 8.00673 33.2418 7.68794C33.3739 7.36914 33.4104 7.01735 33.3467 6.67727C33.283 6.33719 33.122 6.02415 32.8842 5.77794C32.6463 5.53172 32.3423 5.36343 32.0107 5.29445C31.6792 5.22547 31.3351 5.2589 31.0222 5.39051C30.7093 5.52212 30.4417 5.74596 30.2533 6.0336C30.065 6.32124 29.9644 6.65969 29.9644 7.00597C29.9668 7.4651 30.1447 7.905 30.4602 8.23147C30.7756 8.55794 31.2033 8.74501 31.6518 8.75261Z" fill="white"/>
<path d="M32.2491 11.1106C32.2564 11.2634 32.3202 11.4076 32.4276 11.514C32.535 11.6203 32.678 11.6808 32.8274 11.6831C32.976 11.6735 33.1156 11.6075 33.2191 11.498C33.3225 11.3885 33.3823 11.2434 33.3868 11.0912C33.3796 10.9384 33.3157 10.7941 33.2083 10.6878C33.1009 10.5814 32.9579 10.5209 32.8085 10.5186C32.6584 10.5237 32.5162 10.5883 32.4118 10.6987C32.3074 10.8092 32.2491 10.9569 32.2491 11.1106V11.1106Z" fill="white"/>
</svg>
