<?xml version="1.0" encoding="UTF-8"?> <svg xmlns="http://www.w3.org/2000/svg" width="66" height="35" viewBox="0 0 66 35" fill="none"><rect y="1" width="66" height="33" fill="#257470"></rect><path d="M44.2767 26.4421C43.9622 26.0699 43.6066 25.7344 43.2167 25.4421C42.021 24.5655 40.6604 23.9396 39.2167 23.6021C38.5367 23.4121 37.8467 23.2721 37.1467 23.1121L36.3167 24.9521L36.8267 25.0421C38.1726 25.2477 39.4846 25.6346 40.7267 26.1921C41.4889 26.5095 42.1717 26.9909 42.7267 27.6021C42.8585 27.7331 42.9632 27.8889 43.0345 28.0606C43.1059 28.2322 43.1427 28.4162 43.1427 28.6021C43.1427 28.788 43.1059 28.972 43.0345 29.1436C42.9632 29.3153 42.8585 29.4711 42.7267 29.6021C42.6232 29.7403 42.5059 29.8676 42.3767 29.9821C41.7119 30.5636 40.9459 31.0178 40.1167 31.3221C38.003 32.1009 35.7693 32.5036 33.5167 32.5121C32.1106 32.5507 30.7041 32.4536 29.3167 32.2221C27.8931 32.019 26.5078 31.6045 25.2067 30.9921C24.4985 30.6832 23.867 30.2223 23.3567 29.6421C23.0976 29.3737 22.9529 29.0152 22.9529 28.6421C22.9529 28.269 23.0976 27.9105 23.3567 27.6421C23.7678 27.1862 24.2593 26.81 24.8067 26.5321C26.0393 25.8864 27.3653 25.4376 28.7367 25.2021L29.7367 25.0221L28.9367 23.1021L28.2667 23.2321C26.7631 23.503 25.3096 24.0021 23.9567 24.7121C23.0181 25.1711 22.2099 25.8589 21.6067 26.7121C21.1145 27.3973 20.9099 28.248 21.0367 29.0821C21.1747 29.8402 21.541 30.538 22.0867 31.0821C22.8137 31.8145 23.681 32.3927 24.6367 32.7821C26.9414 33.7625 29.4127 34.292 31.9167 34.3421C33.6285 34.4288 35.3446 34.3349 37.0367 34.0621C38.5613 33.8377 40.0482 33.4071 41.4567 32.7821C42.5202 32.3399 43.4654 31.655 44.2167 30.7821C44.7518 30.1892 45.0529 29.4219 45.0639 28.6234C45.075 27.8249 44.7952 27.0496 44.2767 26.4421Z" fill="white"></path><path d="M30.5467 26.5521C30.3567 26.1521 30.1667 25.7321 29.9667 25.3321C29.9497 25.3041 29.9264 25.2805 29.8986 25.2631C29.8708 25.2458 29.8393 25.2351 29.8067 25.2321C28.9325 25.3477 28.0717 25.5486 27.2367 25.8321C26.5855 26.0225 25.989 26.3653 25.4967 26.8321C25.2297 27.0912 25.0717 27.4425 25.0549 27.8142C25.0382 28.186 25.164 28.55 25.4067 28.8321C25.6479 29.1017 25.9276 29.3343 26.2367 29.5221C26.8611 29.8729 27.5356 30.1259 28.2367 30.2721C29.5975 30.5918 30.989 30.7628 32.3867 30.7821C34.329 30.8636 36.2728 30.6615 38.1567 30.1821C38.9185 29.998 39.6337 29.6575 40.2567 29.1821C40.4752 29.0457 40.6565 28.8573 40.7844 28.6337C40.9124 28.4101 40.9829 28.1584 40.9899 27.9009C40.9968 27.6434 40.9399 27.3882 40.8242 27.1581C40.7084 26.928 40.5375 26.7301 40.3267 26.5821C40.0218 26.3381 39.6855 26.1363 39.3267 25.9821C38.3849 25.5808 37.3922 25.3116 36.3767 25.1821C36.3518 25.1746 36.3255 25.1723 36.2997 25.1754C36.2738 25.1785 36.2488 25.1868 36.2263 25.1999C36.2038 25.2131 36.1842 25.2307 36.1688 25.2517C36.1534 25.2727 36.1425 25.2967 36.1367 25.3221C35.9867 25.6821 35.8167 26.0221 35.6567 26.3821C35.6539 26.4321 35.6539 26.4821 35.6567 26.5321C36.0467 26.5921 36.4267 26.6421 36.8067 26.7221C37.5816 26.8394 38.3338 27.0755 39.0367 27.4221C39.2367 27.5321 39.4167 27.6821 39.6367 27.8221C39.5551 27.9141 39.4647 27.9978 39.3667 28.0721C39.1108 28.2317 38.8434 28.3721 38.5667 28.4921C37.4217 28.9084 36.2228 29.1576 35.0067 29.2321C33.0392 29.4372 31.0524 29.3598 29.1067 29.0021C28.3883 28.8892 27.6907 28.6701 27.0367 28.3521C26.8284 28.2243 26.6281 28.0841 26.4367 27.9321C27.0019 27.4372 27.695 27.1114 28.4367 26.9921C29.1267 26.8121 29.8367 26.7021 30.5467 26.5521Z" fill="white"></path><path d="M41.4468 7.0021C41.2216 5.79861 40.7415 4.65725 40.0386 3.6547C39.3358 2.65216 38.4265 1.81165 37.3719 1.18964C36.3173 0.567642 35.1418 0.178554 33.9243 0.048524C32.7069 -0.0815063 31.4757 0.0505323 30.3135 0.435768C29.1513 0.821004 28.085 1.45051 27.1863 2.282C26.2876 3.11349 25.5772 4.1277 25.1029 5.25649C24.6287 6.38528 24.4015 7.60249 24.4366 8.82636C24.4718 10.0502 24.7685 11.2524 25.3068 12.3521L28.6068 19.4521L32.0368 26.8421C32.1413 27.0844 32.3198 27.2874 32.5468 27.4221C32.6893 27.5034 32.8478 27.5527 33.0113 27.5666C33.1747 27.5804 33.3393 27.5585 33.4934 27.5024C33.6476 27.4462 33.7877 27.3572 33.904 27.2414C34.0202 27.1257 34.1099 26.986 34.1668 26.8321C36.3368 22.0821 38.4868 17.3321 40.6668 12.5821C41.2727 11.3321 41.6132 9.97017 41.6668 8.5821C41.5868 8.0721 41.5468 7.5121 41.4468 7.0021ZM36.8668 7.3621C36.7058 7.42726 36.5711 7.54429 36.4842 7.69464C36.3972 7.84499 36.3629 8.02006 36.3868 8.1921C36.3868 10.1921 36.3868 12.1921 36.3868 14.1921C36.3881 15.2997 35.963 16.3653 35.1997 17.1679C34.4363 17.9704 33.3933 18.4482 32.287 18.5023C31.1807 18.5563 30.0961 18.1824 29.2582 17.458C28.4202 16.7337 27.8933 15.7146 27.7868 14.6121C27.7868 13.6121 27.7868 12.6721 27.7868 11.7021C27.7971 11.5477 27.8431 11.3978 27.9212 11.2642C27.9993 11.1305 28.1073 11.0169 28.2368 10.9321C28.3946 10.8932 28.5591 10.89 28.7183 10.9229C28.8775 10.9558 29.0273 11.0238 29.1568 11.1221C29.9468 11.8321 30.6768 12.5921 31.4068 13.3521C31.4908 13.4225 31.5584 13.5105 31.6048 13.6098C31.6512 13.7092 31.6752 13.8175 31.6752 13.9271C31.6752 14.0367 31.6512 14.145 31.6048 14.2444C31.5584 14.3437 31.4908 14.4317 31.4068 14.5021C31.3338 14.5778 31.2456 14.6371 31.148 14.6761C31.0503 14.715 30.9455 14.7328 30.8405 14.728C30.7354 14.7233 30.6326 14.6962 30.5389 14.6487C30.4451 14.6011 30.3626 14.5341 30.2968 14.4521C30.0068 14.1721 29.7468 13.8421 29.4768 13.5321C29.1768 15.3721 29.9168 16.5821 31.3768 16.9621C31.7538 17.0685 32.1498 17.0896 32.536 17.024C32.9223 16.9583 33.2891 16.8075 33.6098 16.5826C33.9305 16.3576 34.1971 16.064 34.3903 15.7232C34.5835 15.3824 34.6985 15.0028 34.7268 14.6121C34.7968 12.3621 34.7268 10.1121 34.7268 7.8621C34.7268 7.7021 34.4768 7.5021 34.2968 7.3921C33.8024 7.14956 33.3955 6.75958 33.1322 6.27596C32.8689 5.79235 32.7622 5.23894 32.8268 4.6921C32.8548 4.17904 33.0354 3.68604 33.3454 3.27627C33.6554 2.8665 34.0807 2.55863 34.5668 2.3921C35.222 2.14357 35.9477 2.15654 36.5937 2.42832C37.2396 2.7001 37.7563 3.20988 38.0368 3.8521C38.334 4.47019 38.378 5.17994 38.1595 5.83004C37.9409 6.48013 37.477 7.01912 36.8668 7.3321V7.3621Z" fill="white"></path><path d="M35.5667 3.7921C35.4161 3.79209 35.2671 3.82191 35.1281 3.87982C34.9891 3.93774 34.863 4.02261 34.757 4.12953C34.651 4.23645 34.5673 4.3633 34.5106 4.50277C34.4539 4.64224 34.4254 4.79155 34.4267 4.9421C34.4342 5.24568 34.5574 5.53491 34.7712 5.75057C34.985 5.96622 35.2732 6.09199 35.5767 6.1021C35.7324 6.10219 35.8866 6.07092 36.03 6.01014C36.1734 5.94936 36.3031 5.86032 36.4114 5.74833C36.5197 5.63634 36.6042 5.50369 36.6601 5.35831C36.716 5.21292 36.7421 5.05777 36.7367 4.9021C36.7369 4.75114 36.7063 4.60173 36.6468 4.46299C36.5873 4.32425 36.5002 4.19911 36.3906 4.09521C36.2811 3.99132 36.1516 3.91085 36.0099 3.85873C35.8682 3.80661 35.7174 3.78394 35.5667 3.7921Z" fill="white"></path></svg> 