<?xml version="1.0" encoding="UTF-8"?> <svg xmlns="http://www.w3.org/2000/svg" width="66" height="33" viewBox="0 0 66 33" fill="none"><rect width="66" height="33" fill="#257470"></rect><path d="M12.9978 5.22544C12.4078 5.36544 11.8478 5.37544 11.2978 5.52544C11.1792 5.56324 11.0699 5.6255 10.9769 5.70818C10.8839 5.79085 10.8092 5.89212 10.7578 6.00544C10.737 6.29328 10.7744 6.58236 10.8678 6.85544C10.9578 7.21544 11.0678 7.56544 11.1678 7.92544C11.0078 8.92544 11.1678 9.22544 11.7278 8.92544C12.2878 8.62544 12.7978 8.38544 13.3378 8.12544C13.8778 7.86544 14.8178 7.67544 14.9978 6.23544C14.9978 5.59544 13.7678 5.00544 12.9978 5.22544Z" fill="white"></path><path d="M55.9177 9.05544L57.0577 8.19544C56.7977 7.59544 56.6177 6.72544 56.2677 6.45544C55.514 5.74954 54.5909 5.2501 53.5877 5.00544C52.4677 4.87544 53.7277 7.11544 52.8977 7.54544C53.0277 7.84544 53.1477 8.37544 53.2977 8.40544C54.1477 8.56687 55.0055 8.6837 55.8677 8.75544L55.9177 9.05544Z" fill="white"></path><path d="M37.8777 23.5554C37.4377 23.6754 36.9977 23.8454 36.5577 23.9854L36.4777 23.6054C36.2977 23.7554 36.0377 23.8354 35.9577 24.0854C35.9192 24.4192 35.9361 24.7571 36.0077 25.0854C36.0077 25.4154 36.0777 25.7454 36.1077 26.0854C36.1377 26.4254 36.1077 26.9654 36.1777 27.0854C36.2814 27.1442 36.3986 27.175 36.5177 27.175C36.6369 27.175 36.754 27.1442 36.8577 27.0854C37.3107 26.9032 37.7487 26.6859 38.1677 26.4354C38.5987 26.2732 38.9882 26.017 39.3077 25.6854C39.6013 25.1875 39.8362 24.6573 40.0077 24.1054C39.6917 23.8153 39.3302 23.5788 38.9377 23.4054C38.5774 23.3639 38.2124 23.4156 37.8777 23.5554Z" fill="white"></path><path d="M30.5477 24.1254C29.9377 23.8154 29.3277 23.4854 28.7077 23.2154C28.5477 23.1554 28.2277 23.2154 28.1977 23.3654C28.0045 24.237 27.8576 25.1183 27.7577 26.0054C27.7826 26.1394 27.8379 26.2659 27.9194 26.3751C28.0009 26.4844 28.1063 26.5734 28.2277 26.6354C28.9677 26.7654 29.7277 26.7954 30.4777 26.8554L30.5877 27.2954L31.9977 25.8254L30.6977 24.1754C30.6677 24.1254 30.6077 24.1454 30.5477 24.1254Z" fill="white"></path><path d="M21.8078 9.08544L22.9978 8.10544C22.7178 7.52544 22.5078 6.68544 22.1378 6.40544C21.401 5.71887 20.498 5.23632 19.5178 5.00544C18.3478 4.89544 19.6978 7.16544 18.8278 7.59544C18.9678 7.88544 19.0978 8.38544 19.2478 8.42544C20.0778 8.58544 20.9178 8.63544 21.7478 8.72544L21.8078 9.08544Z" fill="white"></path><path d="M48.6877 5.67544C48.102 5.44448 47.4772 5.32902 46.8477 5.33544C46.3938 5.33746 45.9425 5.40482 45.5077 5.53544C45.3774 5.55966 45.2538 5.61144 45.1451 5.68733C45.0365 5.76321 44.9453 5.86144 44.8777 5.97544C44.8489 6.31276 44.8863 6.65245 44.9877 6.97544C45.0577 7.28544 45.1577 7.56544 45.1677 7.60544C45.0777 8.73544 45.1677 9.26544 45.7477 8.99544C46.3277 8.72544 46.9977 8.38544 47.5977 8.00544C48.0386 7.76523 48.4372 7.45445 48.7777 7.08544C48.8771 6.9936 48.9548 6.88073 49.0051 6.75506C49.0554 6.6294 49.077 6.49409 49.0684 6.35901C49.0598 6.22393 49.0211 6.09248 48.9553 5.97422C48.8894 5.85597 48.798 5.7539 48.6877 5.67544Z" fill="white"></path><path d="M42.9377 17.9254C42.6302 18.0012 42.3292 18.1015 42.0377 18.2254C41.3543 18.5721 40.7019 18.977 40.0877 19.4354C39.9302 19.804 39.875 20.2081 39.9277 20.6054C39.9867 20.9843 40.0839 21.3562 40.2177 21.7154C40.2977 22.0254 40.3277 22.5654 40.4477 22.6154C40.5677 22.6654 40.8977 22.5354 41.0977 22.3654C41.5018 22.0422 41.8735 21.6805 42.2077 21.2854C42.655 20.7773 43.0534 20.2283 43.3977 19.6454C43.5771 19.2619 43.6364 18.8332 43.5677 18.4154C43.4777 18.1254 43.1177 18.0554 42.9377 17.9254Z" fill="white"></path><path d="M23.2077 12.8154C23.6405 13.1048 24.0877 13.3718 24.5477 13.6154L25.7377 14.3154C26.0177 14.1354 26.4177 14.0754 26.5077 13.7654C26.5676 13.3065 26.5019 12.84 26.3177 12.4154C26.0808 11.9247 25.7706 11.4728 25.3977 11.0754C24.9455 10.5675 24.454 10.0961 23.9277 9.66544C23.7677 9.52544 23.3977 9.48544 23.3577 9.60544C23.1019 10.4664 22.8949 11.3411 22.7377 12.2254C22.7177 12.3354 22.9977 12.6954 23.2077 12.8154Z" fill="white"></path><path d="M60.4077 12.4654C60.1435 11.9288 59.8071 11.4308 59.4077 10.9854C59.0266 10.5438 58.6084 10.1357 58.1577 9.76544C57.9577 9.60544 57.5477 9.48544 57.5177 9.58544C57.2608 10.4529 57.0538 11.3343 56.8977 12.2254C56.8977 12.3354 57.2277 12.6854 57.4277 12.8254C57.7977 13.0854 58.1777 13.2654 58.5577 13.4954L59.8377 14.3254C60.1477 14.1354 60.5577 14.0954 60.6077 13.8354C60.6747 13.369 60.6053 12.8932 60.4077 12.4654Z" fill="white"></path><path d="M41.8178 12.0054C41.3865 12.2197 40.989 12.4959 40.6378 12.8254C40.3904 13.0086 40.2054 13.2635 40.1078 13.5554C40.1078 13.7054 40.3078 14.0954 40.4078 14.3854C40.5078 14.6754 40.5878 14.9854 40.6978 15.2754C40.8078 15.5654 40.9178 15.9854 41.0678 16.0454C41.2178 16.1054 41.4478 15.8454 41.6278 15.6654C41.9479 15.3478 42.2516 15.014 42.5378 14.6654C43.0578 14.0254 43.5378 13.3654 44.1978 12.5354C43.8378 12.0654 43.6678 11.6454 43.4978 11.6554C42.9226 11.6806 42.3552 11.7988 41.8178 12.0054Z" fill="white"></path><path d="M25.5878 17.5654C25.2478 17.1654 24.8678 16.8254 24.5878 16.3754C24.3078 15.9254 23.8678 15.9354 23.7178 16.8454C23.6468 17.1499 23.5498 17.4476 23.4278 17.7354C23.2686 18.0319 23.1604 18.3531 23.1078 18.6854C23.1078 18.9054 23.4078 19.1454 23.5978 19.2954C24.0024 19.6133 24.4229 19.9104 24.8578 20.1854C25.2078 20.4054 25.5778 20.5854 25.9678 20.7954C26.2778 20.5854 26.7778 20.4554 26.8178 20.1554C26.8378 19.6226 26.7244 19.0933 26.4878 18.6154C26.2387 18.2248 25.9357 17.8713 25.5878 17.5654Z" fill="white"></path><path d="M7.99773 11.8654C7.42768 12.1639 6.89128 12.5226 6.39773 12.9354C5.90773 13.2954 5.87773 13.7654 6.26773 14.3954C6.46017 14.7216 6.58911 15.0813 6.64773 15.4554C6.78773 16.3654 7.06773 16.2854 7.43773 15.8954C7.80773 15.5054 8.34773 15.0054 8.76773 14.4154C9.18773 13.8254 9.55773 13.2254 10.0777 12.4154C9.75773 12.0154 9.58773 11.6154 9.40773 11.6054C8.92404 11.5833 8.44171 11.6722 7.99773 11.8654Z" fill="white"></path><path d="M51.3177 8.78544C50.8277 8.78544 50.3177 8.58544 49.8577 8.53544C49.6577 8.53544 49.2777 8.64544 49.2777 8.72544C49.2777 9.72544 49.2777 10.6754 49.2777 11.6354C49.2777 11.7454 49.6577 11.8954 49.8477 11.8654C50.3252 11.76 50.796 11.6264 51.2577 11.4654L51.4077 12.0054C51.9806 11.5516 52.4798 11.0119 52.8877 10.4054C53.1677 10.0054 52.1077 8.84544 51.3177 8.78544Z" fill="white"></path><path d="M15.6377 8.47544C15.4677 8.47544 15.1577 8.68544 15.1577 8.80544C15.1577 9.74544 15.1577 10.6954 15.2377 11.6254C15.2377 11.7554 15.5577 11.9254 15.7177 11.8954C16.2177 11.7954 16.7177 11.6054 17.1977 11.4554L17.3477 12.0054L18.8477 10.4754C18.5054 9.87697 18.07 9.33687 17.5577 8.87544C16.9543 8.60442 16.2992 8.46793 15.6377 8.47544Z" fill="white"></path><path d="M34.3277 20.5154C33.8177 20.5154 33.3277 20.3754 32.8177 20.2754C32.3077 20.1754 32.1177 20.4054 32.2077 21.2754C32.2577 21.6973 32.2577 22.1236 32.2077 22.5454C32.0677 23.5454 32.2077 23.8654 32.8277 23.6454L33.9377 23.2354V23.3854H34.2677C35.0077 23.3854 35.9677 22.4754 35.8577 21.8254C35.6577 20.5754 34.9977 20.5754 34.3277 20.5154Z" fill="white"></path><path d="M22.3278 12.7954C21.6278 12.1154 20.8578 11.2954 20.0978 11.2354C19.1478 11.1554 20.0378 13.2354 19.3578 13.7954C19.4678 14.0854 19.5478 14.5754 19.6778 14.6154C20.3829 14.7971 21.0972 14.9407 21.8178 15.0454V15.3654L22.8678 14.4654C22.7726 13.8848 22.5906 13.3218 22.3278 12.7954Z" fill="white"></path><path d="M36.7977 19.7654L36.6077 19.9254C36.6468 20.2741 36.7484 20.6128 36.9077 20.9254C37.0277 21.0554 37.2977 20.8554 37.4877 20.7454C37.8262 20.5077 38.1767 20.2874 38.5377 20.0854C38.9752 19.8759 39.3445 19.5469 39.6028 19.1363C39.8612 18.7258 39.9981 18.2505 39.9977 17.7654C39.8677 17.0254 38.9077 16.7654 38.1077 17.2354C37.7647 17.3689 37.4098 17.4694 37.0477 17.5354C36.8175 17.5879 36.6167 17.7277 36.4877 17.9254C36.4478 18.2065 36.4683 18.4929 36.5477 18.7654C36.5877 19.1154 36.7077 19.4354 36.7977 19.7654Z" fill="white"></path><path d="M55.8677 12.2354C55.3677 11.8954 54.8677 11.5754 54.3577 11.2354C53.8477 10.8954 53.6977 11.2354 53.6877 12.0654C53.6701 12.5157 53.6166 12.9637 53.5277 13.4054C53.3777 14.2354 53.5277 14.6354 54.0577 14.6254C54.4006 14.6377 54.7388 14.7088 55.0577 14.8354C55.4003 14.9601 55.7344 15.1071 56.0577 15.2754L57.0577 14.4854C56.8777 13.9054 56.7277 13.2854 56.5077 12.7554C56.3528 12.5205 56.1294 12.3389 55.8677 12.2354Z" fill="white"></path><path d="M46.9977 11.9154C46.5212 11.9818 46.05 12.0821 45.5877 12.2154C45.483 12.2428 45.386 12.2941 45.3045 12.3652C45.2229 12.4363 45.159 12.5254 45.1177 12.6254C45.077 12.9111 45.1044 13.2024 45.1977 13.4754C45.2962 13.7952 45.413 14.1091 45.5477 14.4154L45.3377 14.6354C45.3942 14.9556 45.5059 15.2635 45.6677 15.5454C45.7977 15.6654 46.0477 15.4354 46.2377 15.3454C46.5977 15.1654 46.9377 14.9254 47.2977 14.7754C47.9277 14.5054 48.7377 14.1154 48.6177 12.9354C48.4977 11.7554 47.6177 11.8154 46.9977 11.9154Z" fill="white"></path><path d="M28.3777 19.9254C29.006 20.069 29.6447 20.1626 30.2877 20.2054L30.3877 20.5954L31.5977 19.2254C31.3357 18.6352 30.9997 18.0808 30.5977 17.5754C30.1458 17.102 29.5765 16.757 28.9477 16.5754C27.8177 16.3354 28.7677 18.5754 28.0377 18.8954C28.1477 19.2654 28.2277 19.8854 28.3777 19.9254Z" fill="white"></path><path d="M12.8077 11.9354C12.6777 11.9354 12.5577 12.1054 12.4177 12.1554C12.283 12.2217 12.1424 12.2752 11.9977 12.3154C11.7177 12.2354 11.6477 12.1854 11.6077 12.2154C11.4077 12.3854 11.0177 12.6354 11.0377 12.7454C11.1472 13.6596 11.3041 14.5675 11.5077 15.4654C11.5077 15.5754 11.8977 15.5354 12.0877 15.4654C12.4677 15.2754 12.8277 14.9654 13.2177 14.7954C13.6103 14.6773 13.9519 14.4307 14.1876 14.0952C14.4234 13.7598 14.5396 13.3549 14.5177 12.9454C14.5577 12.2154 13.5677 11.6654 12.8077 11.9354Z" fill="white"></path></svg> 