<svg width="41" height="41" viewBox="0 0 41 41" fill="none" xmlns="http://www.w3.org/2000/svg">
<path d="M39.2698 20.6257C39.2698 10.3288 30.9225 1.98145 20.6255 1.98145C10.3285 1.98145 1.9812 10.3288 1.9812 20.6257C1.9812 30.9227 10.3285 39.27 20.6255 39.27C30.9225 39.27 39.2698 30.9227 39.2698 20.6257Z" fill="white" stroke="#689944" stroke-width="3"/>
<path d="M14.6857 11.5977V19.0592H14.6357C14.1111 18.0316 12.7871 16.9797 10.7137 16.9797C7.76599 16.9797 5.29284 19.4261 5.31781 23.3404C5.31781 26.8387 7.51615 29.2607 10.4889 29.2607C12.7122 29.2607 14.1361 28.0619 14.7606 26.7653H14.8106L14.9105 28.9915H15.9847C15.9098 28.1597 15.8848 27.1323 15.8848 26.276V11.5977H14.6857ZM14.6857 24.2455C14.6857 24.6125 14.6607 24.9305 14.5608 25.2241C14.0612 27.1567 12.4374 28.2821 10.7137 28.2821C7.86588 28.2821 6.5169 25.8602 6.5169 23.218C6.5169 20.1845 8.16563 17.9582 10.7887 17.9582C12.7371 17.9582 14.1611 19.2548 14.5608 20.8206C14.6607 21.163 14.6857 21.579 14.6857 21.897V24.2455Z" fill="#689944"/>
<path d="M24.8033 29.2607L20.7995 15.4033H20.6971C20.7123 15.7335 20.735 16.2329 20.7654 16.9013C20.8033 17.5618 20.8374 18.2666 20.8677 19.0156C20.8981 19.7646 20.9132 20.4412 20.9132 21.0453V29.2607H17.7625V11.5977H22.5625L26.4981 25.1046H26.5664L30.7408 11.5977H35.5409V29.2607H32.2537V20.9003C32.2537 20.3446 32.2612 19.7043 32.2764 18.9794C32.2992 18.2545 32.3257 17.5659 32.356 16.9134C32.3864 16.253 32.4091 15.7576 32.4243 15.4275H32.3219L28.0337 29.2607H24.8033Z" fill="#187470"/>
</svg>
