<svg width="503" height="138" viewBox="0 0 503 138" fill="none" xmlns="http://www.w3.org/2000/svg">
<g id="Logo">
<g id="Icono">
<circle id="Ellipse 1" cx="69" cy="69" r="63" stroke="#669C4F" stroke-width="12"/>
<g id="dM">
<path d="M34.9668 98.7422C29.821 98.7422 25.7389 96.9857 22.7207 93.4727C19.7272 89.9596 18.2305 84.7396 18.2305 77.8125C18.2305 70.8112 19.7643 65.5293 22.832 61.9668C25.8997 58.3796 29.9818 56.5859 35.0781 56.5859C37.2305 56.5859 39.1107 56.8704 40.7188 57.4395C42.3268 58.0085 43.7122 58.7754 44.875 59.7402C46.0378 60.6803 47.015 61.7565 47.8066 62.9688H48.252C48.153 62.2018 48.054 61.1504 47.9551 59.8145C47.8561 58.4785 47.8066 57.39 47.8066 56.5488V40.2578H53.9668V98H48.9941L48.0664 92.2109H47.8066C47.0397 93.4232 46.0625 94.5241 44.875 95.5137C43.7122 96.5033 42.3145 97.2949 40.6816 97.8887C39.0736 98.4577 37.1686 98.7422 34.9668 98.7422ZM35.9316 93.6211C40.2858 93.6211 43.3659 92.3841 45.1719 89.9102C46.9779 87.4362 47.8809 83.7624 47.8809 78.8887V77.7754C47.8809 72.6048 47.015 68.6341 45.2832 65.8633C43.5762 63.0924 40.459 61.707 35.9316 61.707C32.1465 61.707 29.3138 63.1667 27.4336 66.0859C25.5534 68.9805 24.6133 72.9388 24.6133 77.9609C24.6133 82.9583 25.541 86.8177 27.3965 89.5391C29.2767 92.2604 32.1217 93.6211 35.9316 93.6211Z" fill="#669C4F"/>
<path d="M84.2362 98L68.6131 52.6895H68.2791C68.3534 53.7038 68.4399 55.0892 68.5389 56.8457C68.6379 58.6022 68.7245 60.4824 68.7987 62.4863C68.8729 64.4902 68.91 66.4076 68.91 68.2383V98H60.8202V43.7461H73.326L88.3553 87.0527H88.578L104.127 43.7461H116.596V98H108.097V67.793C108.097 66.1354 108.122 64.3418 108.172 62.4121C108.246 60.4824 108.32 58.6517 108.394 56.9199C108.493 55.1882 108.568 53.8027 108.617 52.7637H108.32L92.1034 98H84.2362Z" fill="#217672"/>
</g>
</g>
<g id="Frase">
<path id="Mares" d="M323.541 98L307.918 52.6895H307.584C307.658 53.7038 307.745 55.0892 307.844 56.8457C307.943 58.6022 308.029 60.4824 308.104 62.4863C308.178 64.4902 308.215 66.4076 308.215 68.2383V98H300.125V43.7461H312.631L327.66 87.0527H327.883L343.432 43.7461H355.9V98H347.402V67.793C347.402 66.1354 347.427 64.3418 347.477 62.4121C347.551 60.4824 347.625 58.6517 347.699 56.9199C347.798 55.1882 347.872 53.8027 347.922 52.7637H347.625L331.408 98H323.541ZM380.842 56.1406C386.038 56.1406 389.959 57.291 392.606 59.5918C395.278 61.8926 396.614 65.4798 396.614 70.3535V98H390.417L388.747 92.1738H388.45C387.287 93.6582 386.087 94.8828 384.85 95.8477C383.613 96.8125 382.178 97.5299 380.545 98C378.937 98.4948 376.971 98.7422 374.645 98.7422C372.196 98.7422 370.006 98.2969 368.077 97.4062C366.147 96.4909 364.626 95.1055 363.512 93.25C362.399 91.3945 361.842 89.0443 361.842 86.1992C361.842 81.9688 363.413 78.7897 366.555 76.6621C369.722 74.5345 374.497 73.3594 380.879 73.1367L388.004 72.877V70.7246C388.004 67.8796 387.336 65.8509 386.001 64.6387C384.689 63.4264 382.834 62.8203 380.434 62.8203C378.381 62.8203 376.389 63.1172 374.46 63.7109C372.53 64.3047 370.65 65.0345 368.819 65.9004L365.999 59.7402C368.003 58.6764 370.279 57.8105 372.827 57.1426C375.4 56.4746 378.072 56.1406 380.842 56.1406ZM387.967 78.3691L382.661 78.5547C378.307 78.7031 375.251 79.4453 373.495 80.7812C371.738 82.1172 370.86 83.9479 370.86 86.2734C370.86 88.3021 371.466 89.7865 372.678 90.7266C373.891 91.6419 375.486 92.0996 377.465 92.0996C380.484 92.0996 382.982 91.2461 384.961 89.5391C386.965 87.8073 387.967 85.2715 387.967 81.9316V78.3691ZM425.081 56.1406C425.774 56.1406 426.528 56.1777 427.345 56.252C428.161 56.3262 428.866 56.4251 429.46 56.5488L428.644 64.7129C428.124 64.5645 427.481 64.4531 426.714 64.3789C425.972 64.3047 425.304 64.2676 424.71 64.2676C423.151 64.2676 421.667 64.5273 420.257 65.0469C418.847 65.5417 417.597 66.3086 416.509 67.3477C415.42 68.362 414.567 69.6361 413.948 71.1699C413.33 72.7038 413.021 74.485 413.021 76.5137V98H404.263V56.9199H411.091L412.278 64.1562H412.687C413.503 62.6966 414.517 61.3607 415.73 60.1484C416.942 58.9362 418.327 57.9714 419.886 57.2539C421.469 56.5117 423.201 56.1406 425.081 56.1406ZM448.873 56.1406C452.534 56.1406 455.676 56.8952 458.299 58.4043C460.921 59.9134 462.937 62.0534 464.347 64.8242C465.758 67.5951 466.463 70.9102 466.463 74.7695V79.4453H439.039C439.138 83.4284 440.202 86.4961 442.23 88.6484C444.284 90.8008 447.153 91.877 450.84 91.877C453.462 91.877 455.812 91.6296 457.89 91.1348C459.993 90.6152 462.158 89.8607 464.384 88.8711V95.959C462.331 96.9238 460.241 97.6289 458.113 98.0742C455.985 98.5195 453.437 98.7422 450.468 98.7422C446.436 98.7422 442.886 97.9629 439.818 96.4043C436.775 94.821 434.388 92.4707 432.656 89.3535C430.949 86.2363 430.095 82.3646 430.095 77.7383C430.095 73.1367 430.875 69.2279 432.433 66.0117C433.992 62.7956 436.181 60.3464 439.002 58.6641C441.822 56.9818 445.112 56.1406 448.873 56.1406ZM448.873 62.709C446.127 62.709 443.9 63.5996 442.193 65.3809C440.511 67.1621 439.521 69.7721 439.224 73.2109H457.927C457.903 71.1576 457.556 69.3392 456.888 67.7559C456.245 66.1725 455.256 64.9355 453.92 64.0449C452.608 63.1543 450.926 62.709 448.873 62.709ZM499.346 86.2734C499.346 88.9701 498.69 91.2461 497.379 93.1016C496.068 94.957 494.151 96.3672 491.627 97.332C489.128 98.2721 486.061 98.7422 482.424 98.7422C479.554 98.7422 477.08 98.5319 475.002 98.1113C472.949 97.7155 471.007 97.097 469.176 96.2559V88.7227C471.13 89.638 473.32 90.4297 475.744 91.0977C478.194 91.7656 480.507 92.0996 482.684 92.0996C485.554 92.0996 487.619 91.6543 488.881 90.7637C490.143 89.8483 490.774 88.6361 490.774 87.127C490.774 86.2363 490.514 85.4447 489.994 84.752C489.5 84.0345 488.559 83.3047 487.174 82.5625C485.813 81.7956 483.809 80.8802 481.162 79.8164C478.565 78.7773 476.375 77.7383 474.594 76.6992C472.813 75.6602 471.464 74.4108 470.549 72.9512C469.634 71.4668 469.176 69.5742 469.176 67.2734C469.176 63.6367 470.611 60.8783 473.481 58.998C476.375 57.0931 480.197 56.1406 484.947 56.1406C487.471 56.1406 489.846 56.4004 492.072 56.9199C494.324 57.4147 496.526 58.1445 498.678 59.1094L495.932 65.6777C494.076 64.8613 492.209 64.1934 490.328 63.6738C488.473 63.1296 486.58 62.8574 484.651 62.8574C482.399 62.8574 480.68 63.2038 479.492 63.8965C478.33 64.5892 477.748 65.5788 477.748 66.8652C477.748 67.8301 478.033 68.6465 478.602 69.3145C479.171 69.9824 480.148 70.6504 481.533 71.3184C482.944 71.9863 484.898 72.8151 487.397 73.8047C489.846 74.7448 491.961 75.7344 493.742 76.7734C495.548 77.7878 496.934 79.0371 497.899 80.5215C498.864 82.0059 499.346 83.9232 499.346 86.2734Z" fill="#217672"/>
<path id="data" d="M177.967 98.7422C172.821 98.7422 168.739 96.9857 165.721 93.4727C162.727 89.9596 161.23 84.7396 161.23 77.8125C161.23 70.8112 162.764 65.5293 165.832 61.9668C168.9 58.3796 172.982 56.5859 178.078 56.5859C180.23 56.5859 182.111 56.8704 183.719 57.4395C185.327 58.0085 186.712 58.7754 187.875 59.7402C189.038 60.6803 190.015 61.7565 190.807 62.9688H191.252C191.153 62.2018 191.054 61.1504 190.955 59.8145C190.856 58.4785 190.807 57.39 190.807 56.5488V40.2578H196.967V98H191.994L191.066 92.2109H190.807C190.04 93.4232 189.062 94.5241 187.875 95.5137C186.712 96.5033 185.314 97.2949 183.682 97.8887C182.074 98.4577 180.169 98.7422 177.967 98.7422ZM178.932 93.6211C183.286 93.6211 186.366 92.3841 188.172 89.9102C189.978 87.4362 190.881 83.7624 190.881 78.8887V77.7754C190.881 72.6048 190.015 68.6341 188.283 65.8633C186.576 63.0924 183.459 61.707 178.932 61.707C175.146 61.707 172.314 63.1667 170.434 66.0859C168.553 68.9805 167.613 72.9388 167.613 77.9609C167.613 82.9583 168.541 86.8177 170.396 89.5391C172.277 92.2604 175.122 93.6211 178.932 93.6211ZM220.684 56.6602C225.533 56.6602 229.133 57.7487 231.483 59.9258C233.833 62.1029 235.008 65.5788 235.008 70.3535V98H230.518L229.331 91.9883H229.034C227.896 93.4727 226.708 94.722 225.471 95.7363C224.234 96.7259 222.799 97.4805 221.167 98C219.558 98.4948 217.579 98.7422 215.229 98.7422C212.755 98.7422 210.553 98.3092 208.624 97.4434C206.719 96.5775 205.21 95.2663 204.096 93.5098C203.008 91.7533 202.463 89.5267 202.463 86.8301C202.463 82.7728 204.072 79.6556 207.288 77.4785C210.504 75.3014 215.402 74.1139 221.983 73.916L228.997 73.6191V71.1328C228.997 67.6198 228.242 65.1582 226.733 63.748C225.224 62.3379 223.096 61.6328 220.35 61.6328C218.223 61.6328 216.194 61.9421 214.264 62.5605C212.335 63.179 210.504 63.9089 208.772 64.75L206.879 60.0742C208.71 59.1341 210.813 58.3301 213.188 57.6621C215.563 56.9941 218.062 56.6602 220.684 56.6602ZM228.922 77.9609L222.725 78.2207C217.654 78.4186 214.079 79.2474 212.001 80.707C209.922 82.1667 208.883 84.2324 208.883 86.9043C208.883 89.2298 209.588 90.9492 210.999 92.0625C212.409 93.1758 214.277 93.7324 216.602 93.7324C220.214 93.7324 223.17 92.7305 225.471 90.7266C227.772 88.7227 228.922 85.7168 228.922 81.709V77.9609ZM256.276 93.6953C257.291 93.6953 258.33 93.6087 259.394 93.4355C260.457 93.2624 261.323 93.0521 261.991 92.8047V97.5918C261.274 97.9134 260.272 98.1855 258.985 98.4082C257.724 98.6309 256.487 98.7422 255.275 98.7422C253.122 98.7422 251.168 98.3711 249.411 97.6289C247.655 96.862 246.245 95.5755 245.181 93.7695C244.142 91.9635 243.622 89.4648 243.622 86.2734V62.1523H237.833V59.1465L243.659 56.7344L246.109 47.9023H249.819V57.3281H261.732V62.1523H249.819V86.0879C249.819 88.6361 250.401 90.541 251.564 91.8027C252.751 93.0645 254.322 93.6953 256.276 93.6953ZM280.884 56.6602C285.733 56.6602 289.333 57.7487 291.683 59.9258C294.034 62.1029 295.209 65.5788 295.209 70.3535V98H290.718L289.531 91.9883H289.234C288.096 93.4727 286.909 94.722 285.672 95.7363C284.435 96.7259 283 97.4805 281.367 98C279.759 98.4948 277.78 98.7422 275.429 98.7422C272.955 98.7422 270.754 98.3092 268.824 97.4434C266.919 96.5775 265.41 95.2663 264.297 93.5098C263.208 91.7533 262.664 89.5267 262.664 86.8301C262.664 82.7728 264.272 79.6556 267.488 77.4785C270.704 75.3014 275.603 74.1139 282.183 73.916L289.197 73.6191V71.1328C289.197 67.6198 288.442 65.1582 286.933 63.748C285.424 62.3379 283.297 61.6328 280.55 61.6328C278.423 61.6328 276.394 61.9421 274.465 62.5605C272.535 63.179 270.704 63.9089 268.972 64.75L267.08 60.0742C268.91 59.1341 271.013 58.3301 273.388 57.6621C275.763 56.9941 278.262 56.6602 280.884 56.6602ZM289.123 77.9609L282.925 78.2207C277.854 78.4186 274.279 79.2474 272.201 80.707C270.123 82.1667 269.084 84.2324 269.084 86.9043C269.084 89.2298 269.789 90.9492 271.199 92.0625C272.609 93.1758 274.477 93.7324 276.802 93.7324C280.414 93.7324 283.371 92.7305 285.672 90.7266C287.972 88.7227 289.123 85.7168 289.123 81.709V77.9609Z" fill="#669C4F"/>
</g>
</g>
</svg>
